<svg width="23" height="23" xmlns="http://www.w3.org/2000/svg"><path d="M17.703 9.675a3.957 3.957 0 003.5-3.925 3.958 3.958 0 00-3.953-3.953 3.957 3.957 0 00-3.925 3.5 6.447 6.447 0 00-1.825-.266A6.476 6.476 0 005.031 11.5a6.476 6.476 0 006.469 6.469 6.476 6.476 0 006.469-6.469c0-.634-.096-1.245-.267-1.825zm-.453-7.16a3.238 3.238 0 013.234 3.235 3.236 3.236 0 01-3.03 3.224 6.506 6.506 0 00-3.428-3.428 3.236 3.236 0 013.224-3.03zM11.5 17.25c-3.17 0-5.75-2.58-5.75-5.75s2.58-5.75 5.75-5.75 5.75 2.58 5.75 5.75-2.58 5.75-5.75 5.75z" fill="inherit"/><path d="M11.5 6.469v.718a4.317 4.317 0 014.313 4.313h.718A5.037 5.037 0 0011.5 6.469zm7.906 9.703a3.238 3.238 0 00-3.234 3.234 3.238 3.238 0 003.234 3.235 3.238 3.238 0 003.235-3.235 3.238 3.238 0 00-3.235-3.234zm0 5.75a2.518 2.518 0 01-2.515-2.516 2.518 2.518 0 012.515-2.515 2.518 2.518 0 012.516 2.515 2.518 2.518 0 01-2.516 2.516z" fill="inherit"/><path d="M19.406 17.61v.718a1.08 1.08 0 011.078 1.078h.72a1.8 1.8 0 00-1.798-1.797zM6.11 3.594h.718c0-.991-.806-1.797-1.797-1.797v.719A1.08 1.08 0 016.11 3.594z" fill="inherit"/><path d="M5.031 6.828a3.238 3.238 0 003.235-3.234A3.238 3.238 0 005.03.359a3.238 3.238 0 00-3.234 3.235A3.238 3.238 0 005.03 6.828zm0-5.75a2.518 2.518 0 012.516 2.516A2.518 2.518 0 015.03 6.109a2.518 2.518 0 01-2.515-2.515A2.518 2.518 0 015.03 1.078zM19.047 5.75h.719a2.518 2.518 0 00-2.516-2.516v.72c.99 0 1.797.805 1.797 1.796zM5.39 19.047c-.99 0-1.796.806-1.796 1.797a1.8 1.8 0 001.797 1.797c.99 0 1.796-.806 1.796-1.797 0-.991-.806-1.797-1.796-1.797zm0 2.875a1.08 1.08 0 01-1.077-1.078 1.08 1.08 0 011.078-1.078 1.08 1.08 0 011.078 1.078 1.08 1.08 0 01-1.078 1.078zm-3.234-9.344a1.8 1.8 0 00-1.797 1.797 1.8 1.8 0 001.797 1.797c.991 0 1.797-.806 1.797-1.797a1.8 1.8 0 00-1.797-1.797zm0 2.875a1.08 1.08 0 01-1.078-1.078 1.08 1.08 0 011.078-1.078 1.08 1.08 0 011.078 1.078 1.08 1.08 0 01-1.078 1.078zm1.078-3.593a1.8 1.8 0 001.797-1.797c0-.991-.806-1.797-1.797-1.797-.99 0-1.796.806-1.796 1.796 0 .991.806 1.797 1.796 1.797zm0-2.876a1.08 1.08 0 011.079 1.079 1.08 1.08 0 01-1.079 1.078 1.08 1.08 0 01-1.078-1.079 1.08 1.08 0 011.078-1.078zm16.891 2.156a1.439 1.439 0 000 2.875c.793 0 1.438-.644 1.438-1.437s-.645-1.437-1.438-1.437zm0 2.157a.72.72 0 11.001-1.44.72.72 0 01-.001 1.44zm-7.547 5.031a1.439 1.439 0 000 2.875 1.44 1.44 0 001.438-1.437 1.44 1.44 0 00-1.438-1.438zm0 2.156a.72.72 0 11.002-1.439.72.72 0 01-.002 1.44zM11.5 3.953a1.08 1.08 0 001.078-1.078A1.08 1.08 0 0011.5 1.797a1.08 1.08 0 00-1.078 1.078A1.08 1.08 0 0011.5 3.953zm0-1.437a.36.36 0 11-.001.72.36.36 0 01.001-.72zM3.953 17.61a1.08 1.08 0 001.078 1.078 1.08 1.08 0 001.078-1.079 1.08 1.08 0 00-1.078-1.078 1.08 1.08 0 00-1.078 1.078zm1.078-.36a.36.36 0 11-.001.72.36.36 0 01.001-.72z" fill="inherit"/></svg>