<svg width="23" height="19" xmlns="http://www.w3.org/2000/svg"><path d="M22.26 12.742h-1.03V2.122a.56.56 0 00-.56-.561h-2.584v-.53a.56.56 0 00-.56-.56H14.58a.56.56 0 00-.56.56v.866a.336.336 0 10.672 0v-.753h2.72v11.598h-2.71V4.19a.33.33 0 00-.01-.076V3.43a.336.336 0 10-.673 0v.422h-2.574a.561.561 0 00-.561.561v8.328H7.983l.397-3.368a.603.603 0 00-.599-.674h-.122a7.18 7.18 0 00.866-3.372v-.009c0-.016-.01-.385-.032-.612a.457.457 0 00-.622-.378c-.275.11-.8.392-1.3 1.045-.146-.912-.456-1.69-.92-2.295a.452.452 0 00-.36-.179.452.452 0 00-.362.179c-.465.605-.775 1.385-.922 2.299-.51-.67-1.046-.948-1.298-1.049a.456.456 0 00-.622.378c-.022.227-.032.596-.032.612v.009c0 .246.014.496.041.744a.336.336 0 10.67-.075 6.095 6.095 0 01-.038-.665c0-.021.003-.12.009-.236.546.336 1.488 1.247 1.737 3.595h-.778a6.371 6.371 0 01-.593-1.238.336.336 0 00-.634.226 7.3 7.3 0 00.453 1.02H2.8a.603.603 0 00-.6.675l.398 3.368H.65a.696.696 0 00-.695.696v1.86c0 .383.312.695.695.695h.375v1.638c0 .504.41.914.914.914h1.287c.504 0 .914-.41.914-.915v-1.637h14.63v1.638c0 .504.41.914.914.914h1.287c.504 0 .914-.41.914-.915v-1.637h.374a.696.696 0 00.696-.695v-1.86a.696.696 0 00-.695-.696zM18.086 2.234h2.471V4.36h-2.47V2.234zm0 2.8h2.471v1.684h-2.47V5.033zm0 2.357h2.471v5.351h-2.47v-5.35zm-6.528-2.865h2.462V6.08h-2.462V4.526zm0 2.226h2.462v1.202h-2.462V6.752zm0 1.875h2.462v4.115h-2.462V8.626zM7.843 5.095c.006.116.009.215.01.236C7.85 7 7.14 8.282 6.882 8.691h-.776c.249-2.348 1.19-3.26 1.736-3.595zM5.29 3.736c.497.784.673 1.75.702 2.637-.286.656-.473 1.431-.562 2.318h-.28c-.096-.96-.304-1.716-.562-2.31.029-.889.203-1.859.702-2.645zm2.413 5.637l-.398 3.37h-4.03l-.398-3.37h4.826zm-4.835-.078zm.6 8.336a.241.241 0 01-.242.24H1.94a.241.241 0 01-.24-.24v-1.638h1.768v1.638zm17.744 0a.241.241 0 01-.241.24h-1.287a.241.241 0 01-.241-.24v-1.638h1.77v1.638zm1.07-2.333c0 .012-.01.022-.023.022H.65a.022.022 0 01-.022-.022v-1.86c0-.013.01-.023.022-.023h21.61c.012 0 .022.01.022.023v1.86z" fill="inherit"/></svg>