<svg xmlns="http://www.w3.org/2000/svg" width="60" height="60" fill="none" viewBox="0 0 60 60"><g fill="#2D8EFF"><path d="M22.152 13.016V.724L8.016 14.86h12.29c1.33 0 1.846-.517 1.846-1.845Zm7.384 16.821c.257-.196.516-1.865 1.029-4.374.515-2.508-.13-4.05-1.477-3.855-1.352.19-1.671 1.733-1.542 3.342.127 1.606.962 3.406 1.477 4.436 0 0 .257.643.513.451Zm-6.303 12.987c-.436.162-3.34 1.03-5.075 2.7-1.738 1.673-1.61 3.15-.837 3.664.77.513 2.956-1.029 4.308-2.635 1.35-1.61 2.25-3.216 2.25-3.472 0-.257-.128-.45-.646-.257Zm4.827-2.765c1.282-.514 5.911-1.544 5.911-1.544s-3.019-3.598-3.407-4.306c0 0-1.8 4.691-2.503 5.85Z"/><path d="M50.284 0H24.885v14.66a2.938 2.938 0 0 1-2.933 2.935H7.324v40.012A2.396 2.396 0 0 0 9.716 60h40.568a2.396 2.396 0 0 0 2.392-2.393V2.391A2.394 2.394 0 0 0 50.284 0ZM42.46 44.621c-2.265-.308-5.017-2.662-7.349-4.716a.58.58 0 0 0-.174-.037c-.378 0-4.584 1.212-7.781 2.12-4.67 8.351-9.324 10.735-11.508 7.972-1.148-1.455-.705-4.887 4.823-7.46 1.111-.512 2.657-1.12 4.459-1.67 1.54-2.797 3.093-6.66 3.963-8.948-1.418-2.713-2.57-5.572-2.7-6.93-.258-2.703.9-5.147 3.215-5.147 2.95 0 5.141 2.83 1.683 12.778 1.078 1.768 2.535 3.912 4.216 5.614 2.905-.554 5.809-.725 7.016-.653 4.16.251 5.025 2.194 5.152 3.673.13 1.479-1.736 3.856-5.015 3.404Z"/><path d="M42.01 38.9c-1.552-.1-5.594.45-5.145.642 0 0 3.279 2.318 5.205 2.573 1.933.256 2.64-.578 2.64-1.414s-.707-1.672-2.7-1.801Z"/></g></svg>