<svg viewBox="0 0 22 22" fill="none" xmlns="http://www.w3.org/2000/svg"><path fill-rule="evenodd" clip-rule="evenodd" d="M15.77 8.613c1.224 0 1.442-.29 2.27-1.119l1.492-1.468c0 .181.031.372.027.462-.01.517-.064.88-.204 1.382-.476 1.69-1.799 2.905-3.584 2.905-.793 0-1.002.022-1.822-.15-.938-.204-1.68-.276-2.496.49-.136.13-.181.235-.326.38-.535.53-1.12 1.242-1.6 1.74l-.657.702c-.136.136-.231.222-.34.367l-2.882 3.14c-.113.123-.222.204-.33.327l-.648.72c-1.636 2.143-3.15.648-3.15-.426 0-.385.128-.648.29-.883.16-.236.934-.88 1.201-1.151.127-.127.186-.15.309-.259l.924-.865c.24-.19.394-.385.616-.557.122-.095.181-.154.295-.272l.965-.866c.104-.104.172-.19.285-.28.145-.114.19-.15.326-.286l3.104-2.823c1.41-1.291.435-2.537.435-3.842v-.612c0-2.315 1.99-3.86 4.327-3.86.236 0 .209.045.422.05-.666.996-2.8 2.03-2.542 3.86.136.974.72 1.396 1.282 1.957.503.503 1.106 1.237 2.012 1.237zM2.274 17.97c0 1.142 1.504 1.142 1.504 0 0-.34-.326-.657-.847-.657-.29 0-.657.367-.657.657zM8.716 5.605c0 1.386.33 2.002.33 2.632 0 .367-.874.988-1.304 1.423l-1.083.988c-.467.471-1.636 1.436-2.139 1.953-.145.145-.24.19-.38.326-.127.127-.213.236-.354.349a2.893 2.893 0 00-.371.335L1.648 15.23C.605 16.1-.12 16.816.016 18.397c.037.467.14.707.313 1.051.09.181.145.29.267.44.277.34.308.398.69.67 1.041.757 2.555.703 3.601-.113.218-.168.494-.467.689-.67l1.976-2.166c.249-.245.412-.463.661-.707l3.974-4.3c.829-.902.57-.598 1.957-.385 2.841.435 5.31-.54 6.439-3.213.539-1.282.793-3.675-.014-4.862-.19-.285-.462-.326-.752-.326-.376 0-.78.521-1.001.743L17.03 6.343c-.236.231-.626.766-1.024.766-.513 0-.88-.53-1.165-.811-.44-.444-1.305-1.042-.59-1.744l1.365-1.36.897-.897c.25-.25.761-.63.761-1.07 0-.593-.453-.783-.897-.933-2.07-.697-4.55-.117-6.076 1.346-.14.136-.19.2-.308.349-.367.453-.562.675-.82 1.296a6.232 6.232 0 00-.458 2.32z" fill="#2D8EFF"/></svg>