<svg viewBox="0 0 25 24" fill="none" xmlns="http://www.w3.org/2000/svg"><path fill-rule="evenodd" clip-rule="evenodd" d="M15.334 18.815h3.62c.11 0 .144.034.144.14v3.624h-3.764v-3.764zM9.737 7.667h4.609v-1.41h-4.61v1.41zm.423 11.288c0-.106.034-.14.143-.14h3.48c.106 0 .14.034.14.14v3.624H10.16v-3.624zm-5.175 0c0-.106.034-.14.143-.14h3.62v3.764H4.986v-3.624zm7.763-5.315h3.761v3.764h-3.76V13.64zm-4.705 2.024h3.295v1.74H8.043v-1.74zm3.295-1.411H6.631v3.151H4.985v-6.915h14.113v6.915H17.92v-5.175h-6.583v2.024zm-7.764 8.326H1.411V7.76c0-.177 1.125-.718 1.268-.801l5.333-3.04c.597-.323 3.903-2.25 4.031-2.25.127 0 2.8 1.566 3.338 1.858l6.66 3.783c.218.13.63.301.63.45v14.82H20.51V9.08H3.574v13.5zM0 6.915V23.99h24.083V6.915c0-.174-1.296-.83-1.442-.91-.27-.15-.473-.274-.752-.423-.258-.137-.491-.277-.75-.43-1.012-.596-2.016-1.14-3.026-1.72-.494-.284-1.004-.554-1.498-.852a22.136 22.136 0 00-.75-.43c-.276-.155-.5-.298-.783-.44L12.043 0 .153 6.738C.055 6.797 0 6.775 0 6.915z" fill="#2D8EFF"/></svg>