<svg viewBox="0 0 24 24" fill="none" xmlns="http://www.w3.org/2000/svg"><path fill-rule="evenodd" clip-rule="evenodd" d="M2 9.402c0-1.99.835-3.884 2.177-5.225.168-.169.296-.253.465-.421C5.7 2.722 7.779 1.999 9.402 1.999c.544 0 1.123.07 1.599.168 2.147.466 4.146 1.97 5.067 3.96.321.687.564 1.221.678 2.023.217 1.579.109 3.024-.6 4.459-.35.717-.89 1.514-1.459 2.078l-.435.4c-1.064.946-2.95 1.758-4.434 1.758-1.079 0-1.297.01-2.356-.253-.287-.069-.41-.133-.663-.217-.257-.085-.396-.174-.643-.292l-.574-.307c-.88-.525-1.757-1.336-2.316-2.197a7.407 7.407 0 01-1.089-2.539A7.832 7.832 0 012 9.402zM8.921 0h1.153a8.14 8.14 0 011.203.168c.544.119 1.42.371 1.905.609.604.292.48.193 1.103.569.98.589 1.717 1.252 2.45 2.113l.54.718c.578.92.741 1.247 1.088 2.216.608 1.688.693 4.009.114 5.711-.372 1.094-.673 1.821-1.356 2.786-.114.163-.223.282-.322.465.153.233 5.676 5.7 6.314 6.34.258.256.713.598.713 1.058 0 .639-.406 1.074-.93 1.074-.639 0-.807-.317-1.223-.737-.643-.639-6.091-6.142-6.319-6.29-.183.094-.317.213-.49.346-1.088.822-2.796 1.46-4.176 1.638-1.995.263-3.776-.069-5.508-.93a8.067 8.067 0 01-.544-.297c-1.312-.782-2.049-1.544-3.004-2.81A7.07 7.07 0 01.885 13.4C.163 11.792 0 10.921 0 9.076 0 7.319.797 5.23 1.742 3.974c.158-.213.312-.446.48-.634.277-.307.544-.618.856-.866.114-.094.173-.178.287-.272C4.855.935 6.878.13 8.922 0z" fill="#2D8EFF"/></svg>