<svg width="50" height="42" xmlns="http://www.w3.org/2000/svg"><path d="M40.008 39.814H9.996a.81.81 0 00-.806.806c0 .444.363.806.806.806H40.01a.807.807 0 00.806-.806.808.808 0 00-.808-.806zm9.669-29.599a.804.804 0 00-.95-.011l-12.971 9.24a.804.804 0 00-.283.95 2.6 2.6 0 01.187.955 2.623 2.623 0 01-2.618 2.618 2.621 2.621 0 01-2.619-2.618 2.611 2.611 0 012.476-2.6.806.806 0 00.685-1.15L25.726 1.033a.805.805 0 00-.729-.46.803.803 0 00-.728.46l-7.863 16.58a.804.804 0 00.66 1.146 2.593 2.593 0 012.383 2.59 2.622 2.622 0 01-2.618 2.618 2.622 2.622 0 01-2.62-2.618c0-.26.05-.534.154-.837a.803.803 0 00-.287-.909L1.284 10.211a.804.804 0 00-1.24.913l9.24 26.603a.803.803 0 00.76.542h29.908a.806.806 0 00.762-.542l9.237-26.603a.79.79 0 00-.274-.909zM39.384 36.658H10.623L2.42 13.043l10.265 7.536c-.051.26-.079.515-.079.771a4.235 4.235 0 004.23 4.23 4.236 4.236 0 004.23-4.23 4.186 4.186 0 00-2.767-3.956L25.003 3.26l6.684 14.098a4.218 4.218 0 00-2.874 3.994 4.235 4.235 0 004.23 4.23 4.236 4.236 0 004.23-4.23c0-.31-.036-.62-.108-.927l10.44-7.437-8.221 23.67z" fill="inherit"/><path d="M25.348 8.169a.81.81 0 00-1.073.381l-3.608 7.612a.803.803 0 00.177.931 5.775 5.775 0 011.834 4.256.807.807 0 001.611 0c0-1.887-.678-3.644-1.926-5.004l3.369-7.1a.81.81 0 00-.384-1.076z" fill="inherit"/></svg>