<svg width="97" height="97" xmlns="http://www.w3.org/2000/svg"><circle cx="48.5" cy="48.5" r="48.5" fill="inherit"/><path d="M76 58.545c0-6.701-3.844-12.681-9.602-15.59-.179 12.848-10.595 23.264-23.443 23.443C45.864 72.156 51.844 76 58.544 76c3.142 0 6.197-.837 8.882-2.427l8.497 2.35-2.35-8.496A17.392 17.392 0 0076 58.545z" fill="#fff"/><path d="M63.238 42.62c0-11.37-9.25-20.62-20.619-20.62S22 31.25 22 42.62c0 3.705.986 7.312 2.86 10.48l-2.784 10.062 10.063-2.783a20.555 20.555 0 0010.48 2.86c11.37 0 20.62-9.25 20.62-20.62zm-23.783-4.8h-3.164a6.335 6.335 0 016.328-6.328 6.335 6.335 0 016.328 6.328c0 1.771-.75 3.474-2.058 4.67l-2.688 2.46v2.468h-3.164v-3.86l3.716-3.402a3.131 3.131 0 001.03-2.336 3.168 3.168 0 00-3.164-3.164 3.168 3.168 0 00-3.164 3.164zm1.582 12.762h3.164v3.164h-3.164v-3.164z" fill="#fff"/></svg>