<svg width="128" height="128" fill="none" xmlns="http://www.w3.org/2000/svg"><path d="M70.919 62.27H57.08a1.73 1.73 0 01-1.73-1.73 26.346 26.346 0 00-6.337-17.124L45.39 39.19a1.73 1.73 0 01-.417-1.135v-6.919a1.73 1.73 0 011.73-1.73h34.594a1.73 1.73 0 011.73 1.73v6.92c0 .412-.148.812-.417 1.125l-3.624 4.236a26.346 26.346 0 00-6.337 17.125 1.73 1.73 0 01-1.73 1.73zM58.76 58.81h10.478a29.817 29.817 0 017.122-17.654l3.206-3.742v-4.55H48.432v4.55l3.207 3.742a29.817 29.817 0 017.122 17.655zM72.649 5.19h3.46v17.296h-3.46V5.19zm-20.757 0h3.46v17.296h-3.46V5.19z" fill="#443F48"/><path d="M36.975 86.487H19.027a8.649 8.649 0 010-17.298H55.62a6.656 6.656 0 006.65-6.649v-2h3.459v2A10.12 10.12 0 0155.62 72.65H19.027a5.19 5.19 0 000 10.378h17.948v3.46z" fill="#443F48"/><path d="M111.651 119.107h-2.389v-3.459h2.389c3.187 0 6.36-.436 9.43-1.296v-7.956c-13.976-12.356-31.827-9.095-32.009-9.057a1.73 1.73 0 01-1.371-.318c-.16-.12-16.111-11.984-35.963-11.984a79.741 79.741 0 00-35.418 8.59 1.768 1.768 0 01-.441.173L9.79 95.29l-1.21 7.174c-.06.354-.228.681-.481.936l-1.18 1.185v7.379a93.457 93.457 0 0012.179 2.421l-.448 3.432a91.366 91.366 0 01-13.976-2.906 1.727 1.727 0 01-1.211-1.652v-9.39c0-.459.181-.899.505-1.223l1.299-1.299 1.306-7.751a1.73 1.73 0 011.296-1.384l6.97-1.707a82.161 82.161 0 0136.906-8.915c19.037 0 34.209 9.954 37.436 12.24 3.837-.572 20.953-2.229 34.809 10.537a1.724 1.724 0 01.557 1.271v9.977a1.73 1.73 0 01-1.122 1.621 36.492 36.492 0 01-11.774 1.871z" fill="#2D8EFF"/><path d="M35.989 115.648h56.697v3.459H35.989v-3.459zM72.443 98.55a1.227 1.227 0 01-.138 0L35.74 95.61a1.73 1.73 0 01-1.091-.508L27.6 87.981l2.46-2.434 6.596 6.667 35.793 2.874 16.17-1.165.247 3.459-16.3 1.174a1.131 1.131 0 00-.124-.006z" fill="#2D8EFF"/><path d="M100.931 124.541a10.834 10.834 0 01-10.628-12.949 10.834 10.834 0 0119.636-3.905 10.833 10.833 0 011.826 6.02 10.85 10.85 0 01-10.834 10.834zm0-18.209a7.372 7.372 0 00-6.815 4.552 7.373 7.373 0 005.374 10.057 7.375 7.375 0 008.815-7.234 7.385 7.385 0 00-7.374-7.375zm-73.274 18.209a10.834 10.834 0 1110.833-10.834 10.847 10.847 0 01-10.833 10.834zm0-18.209a7.372 7.372 0 00-6.816 4.552 7.373 7.373 0 005.374 10.057 7.375 7.375 0 101.442-14.609z" fill="#2D8EFF"/><path d="M81.297 32.865H46.703a1.73 1.73 0 01-1.73-1.73v-8.649a1.73 1.73 0 011.73-1.73h34.594a1.73 1.73 0 011.73 1.73v8.65a1.73 1.73 0 01-1.73 1.729zm-32.864-3.46h31.135v-5.189H48.432v5.19z" fill="#443F48"/></svg>