<svg width="128" height="102" fill="none" xmlns="http://www.w3.org/2000/svg"><path d="M50.21 88.269c0-3.206-2.709-5.813-6.037-5.813h-4.031c-1.036 0-1.875.84-1.875 1.875v15.152a1.875 1.875 0 103.75 0v-4.34l4.91 5.579c.37.421.888.636 1.408.636a1.875 1.875 0 001.407-3.114l-3.871-4.398c2.504-.708 4.338-2.94 4.338-5.577zm-6.037 2.063c-.5 0-1.358.003-2.156.007v-4.133h2.156c1.24 0 2.286.944 2.286 2.063 0 1.118-1.047 2.063-2.286 2.063zm25.698-7.876c-1.035 0-1.875.84-1.875 1.875v15.152a1.875 1.875 0 103.75 0V84.331a1.874 1.874 0 00-1.875-1.875zm-7.576 3.75a1.875 1.875 0 000-3.75H55.91c-1.035 0-1.875.84-1.875 1.875v15.152a1.875 1.875 0 103.75 0v-5.701h4.04a1.875 1.875 0 000-3.75h-4.04v-3.826h4.51zm19.444-3.75h-4.291a1.875 1.875 0 00-1.875 1.879l.03 15.152a1.875 1.875 0 001.875 1.871h.007c.13 0 3.19-.012 4.412-.033 4.54-.079 7.836-4.04 7.836-9.418 0-5.653-3.213-9.451-7.994-9.451zm.093 15.12c-.57.01-1.579.017-2.483.023l-.023-11.393h2.413c3.129 0 4.244 2.945 4.244 5.701 0 3.865-2.085 5.632-4.151 5.668zM64 36.662c-4.84 0-8.778 3.937-8.778 8.778 0 4.84 3.938 8.777 8.778 8.777s8.778-3.938 8.778-8.777c0-4.84-3.938-8.778-8.778-8.778zm0 13.805a5.034 5.034 0 01-5.028-5.027A5.034 5.034 0 0164 40.412a5.033 5.033 0 015.028 5.028A5.033 5.033 0 0164 50.467z" fill="#443F48"/><path d="M75.583 59.675l3.27 3.27a4.19 4.19 0 003.165 1.22 4.17 4.17 0 003.014-1.518 27.217 27.217 0 006.153-17.207 27.217 27.217 0 00-6.153-17.207 4.17 4.17 0 00-3.014-1.518 4.19 4.19 0 00-3.165 1.22l-3.27 3.27c-1.483 1.483-1.623 3.864-.326 5.537a14.08 14.08 0 012.974 8.698 14.08 14.08 0 01-2.974 8.697c-1.297 1.674-1.157 4.054.326 5.538zm2.638-3.241a17.796 17.796 0 003.76-10.994c0-4.017-1.3-7.819-3.76-10.994-.145-.188-.14-.436.014-.59l3.27-3.27a.427.427 0 01.627.024 23.458 23.458 0 015.303 14.83c0 5.39-1.883 10.657-5.303 14.83a.427.427 0 01-.627.023l-3.27-3.27c-.154-.154-.16-.402-.014-.59z" fill="#2D8EFF"/><path d="M97.961 15.05a4.185 4.185 0 00-2.99-1.385 4.2 4.2 0 00-3.072 1.224l-3.256 3.256a4.185 4.185 0 00-.172 5.72 32.582 32.582 0 018.168 21.574 32.583 32.583 0 01-8.168 21.575 4.186 4.186 0 00.172 5.72l3.256 3.256a4.2 4.2 0 003.072 1.223 4.185 4.185 0 002.99-1.384 45.49 45.49 0 0011.631-30.39 45.488 45.488 0 00-11.63-30.389zm-2.793 58.277a.427.427 0 01-.617.012l-3.257-3.257a.429.429 0 01-.012-.586 36.331 36.331 0 009.107-24.056 36.33 36.33 0 00-9.107-24.057.429.429 0 01.013-.586l3.256-3.257a.42.42 0 01.317-.126.409.409 0 01.3.138 41.748 41.748 0 0110.674 27.888 41.748 41.748 0 01-10.674 27.887z" fill="#2D8EFF"/><path d="M121.727 17.823a1.875 1.875 0 00-3.38 1.624c3.917 8.15 5.903 16.895 5.903 25.993 0 15.205-5.703 29.734-16.058 40.91a.427.427 0 01-.616.014l-3.255-3.255a.42.42 0 01-.019-.576c9.348-10.15 14.496-23.323 14.496-37.093 0-13.77-5.148-26.943-14.497-37.094a.42.42 0 01.02-.575l3.255-3.255a.431.431 0 01.616.013 60.83 60.83 0 015.956 7.547 1.875 1.875 0 003.118-2.083 64.661 64.661 0 00-6.324-8.013 4.145 4.145 0 00-3.069-1.338 4.138 4.138 0 00-2.949 1.222l-3.255 3.255a4.154 4.154 0 00-.126 5.769c8.708 9.455 13.504 21.726 13.504 34.552s-4.796 25.097-13.503 34.551a4.154 4.154 0 00.125 5.77l3.255 3.255a4.138 4.138 0 003.032 1.221 4.146 4.146 0 002.987-1.338C121.942 77.027 128 61.593 128 45.44c0-9.664-2.11-18.956-6.273-27.616zm-69.31 13.382l-3.27-3.27a4.187 4.187 0 00-3.165-1.22 4.17 4.17 0 00-3.015 1.518 27.219 27.219 0 00-6.152 17.207 27.218 27.218 0 006.152 17.207 4.171 4.171 0 006.18.298l3.27-3.27c1.482-1.483 1.623-3.864.326-5.538a14.08 14.08 0 01-2.975-8.697 14.08 14.08 0 012.975-8.698c1.297-1.674 1.157-4.054-.326-5.537zm-2.638 3.24a17.798 17.798 0 00-3.76 10.995 17.8 17.8 0 003.76 10.994c.145.187.14.435-.014.589l-3.27 3.27a.43.43 0 01-.328.126.405.405 0 01-.3-.15 23.459 23.459 0 01-5.302-14.83 23.46 23.46 0 015.303-14.83.403.403 0 01.3-.149h.02c.076 0 .2.019.307.126l3.27 3.27c.154.154.16.402.014.59z" fill="#2D8EFF"/><path d="M39.528 67.014a32.576 32.576 0 01-.002-43.147 4.182 4.182 0 00-.168-5.72l-3.257-3.258a4.206 4.206 0 00-3.072-1.223 4.187 4.187 0 00-2.99 1.385 45.82 45.82 0 00-6.395 9.187 1.875 1.875 0 103.317 1.75 42.052 42.052 0 015.87-8.435.41.41 0 01.301-.138.417.417 0 01.317.126l3.258 3.257a.428.428 0 01.01.586 36.324 36.324 0 00.002 48.114c.15.17.145.426-.012.584l-3.258 3.257a.425.425 0 01-.617-.013A41.737 41.737 0 0122.158 45.44c0-3.978.56-7.915 1.665-11.703a1.875 1.875 0 10-3.6-1.05 45.524 45.524 0 00-1.815 12.753 45.483 45.483 0 0011.63 30.388 4.186 4.186 0 003.105 1.387 4.2 4.2 0 002.958-1.224l3.258-3.258a4.182 4.182 0 00.17-5.719z" fill="#2D8EFF"/><path d="M12.953 45.44c0-12.826 4.796-25.097 13.503-34.551a4.155 4.155 0 00-.125-5.77l-3.255-3.255A4.137 4.137 0 0020.044.643a4.145 4.145 0 00-2.987 1.338C6.057 13.853 0 29.287 0 45.44c0 3.843.344 7.69 1.022 11.437a1.875 1.875 0 003.69-.669A60.565 60.565 0 013.75 45.44c0-15.205 5.703-29.734 16.058-40.91a.422.422 0 01.307-.138.42.42 0 01.309.124l3.255 3.255a.42.42 0 01.02.576C14.35 18.497 9.201 31.67 9.201 45.44c0 13.77 5.149 26.943 14.497 37.094a.42.42 0 01-.02.575l-3.255 3.255a.42.42 0 01-.309.124.421.421 0 01-.307-.138C13.989 80.07 9.496 72.489 6.814 64.423a1.874 1.874 0 10-3.558 1.183C6.105 74.175 10.877 82.23 17.057 88.9a4.145 4.145 0 003.07 1.339 4.142 4.142 0 002.949-1.222l3.255-3.256a4.154 4.154 0 00.125-5.768C17.75 70.537 12.953 58.266 12.953 45.44z" fill="#2D8EFF"/></svg>