<svg width="128" height="128" fill="none" xmlns="http://www.w3.org/2000/svg"><path d="M70.4 83.2c1.18 0 2.133-.956 2.133-2.133V51.2h6.4c5.882 0 10.667-4.785 10.667-10.667 0-5.881-4.785-10.667-10.667-10.667-5.881 0-10.667 4.785-10.667 10.667v6.4h-8.533v-6.4c0-5.881-4.785-10.667-10.666-10.667-5.882 0-10.667 4.785-10.667 10.667S43.185 51.2 49.066 51.2h6.4v29.867a2.134 2.134 0 004.267 0V51.2h8.533v29.867c0 1.177.954 2.133 2.134 2.133zm2.133-42.667c0-3.528 2.872-6.4 6.4-6.4 3.529 0 6.4 2.872 6.4 6.4 0 3.529-2.871 6.4-6.4 6.4h-6.4v-6.4zm-17.066 6.4h-6.4a6.408 6.408 0 01-6.4-6.4c0-3.528 2.871-6.4 6.4-6.4 3.528 0 6.4 2.872 6.4 6.4v6.4zM15.232 4.537l8.166 6.855c.401.337.888.5 1.372.5a2.134 2.134 0 001.372-3.767l-8.166-6.856a2.133 2.133 0 10-2.744 3.268zm1.38 18.616l-10.02-3.646a2.137 2.137 0 00-2.735 1.276 2.136 2.136 0 001.276 2.735l10.02 3.646c.241.087.486.13.73.13a2.134 2.134 0 00.73-4.141zm86.611-11.262c.482 0 .969-.164 1.368-.499l8.171-6.859a2.132 2.132 0 10-2.742-3.268l-8.17 6.859a2.133 2.133 0 001.373 3.767zM12.796 40.538H2.133a2.134 2.134 0 000 4.266h10.663a2.134 2.134 0 000-4.267zm111.343-19.762a2.13 2.13 0 00-2.733-1.273l-10.022 3.648a2.132 2.132 0 101.457 4.009l10.024-3.648a2.132 2.132 0 001.274-2.736z" fill="#2D8EFF"/><path d="M64 0C40.474 0 21.333 19.14 21.333 42.667c0 18.005 7.062 31.436 22.227 42.27.073.05.18.115.259.157.11.06 2.406 1.342 2.982 4.939-2.408.92-4.134 3.239-4.134 5.967 0 1.638.618 3.134 1.634 4.267a6.37 6.37 0 00-1.634 4.267 6.37 6.37 0 001.634 4.266 6.374 6.374 0 00-1.634 4.267c0 3.529 2.871 6.4 6.4 6.4a2.134 2.134 0 000-4.266 2.137 2.137 0 01-2.133-2.134c0-1.175.957-2.133 2.133-2.133H70.4a2.133 2.133 0 100-4.266H49.067a2.137 2.137 0 01-2.133-2.134c0-1.175.957-2.133 2.133-2.133H70.4a2.133 2.133 0 100-4.266H49.067A2.137 2.137 0 0146.934 96c0-1.175.957-2.133 2.133-2.133H70.4a2.133 2.133 0 100-4.266H51.055c-.755-5.372-4.237-7.7-5.11-8.203C31.876 71.314 25.6 59.366 25.6 42.668c0-21.173 17.227-38.4 38.4-38.4 21.174 0 38.4 17.227 38.4 38.4 0 16.697-6.274 28.646-20.345 38.73-.982.566-5.255 3.436-5.255 10.337 0 1.177.954 2.133 2.133 2.133 1.178 0 2.134.958 2.134 2.133a2.135 2.135 0 01-2.133 2.133 2.133 2.133 0 100 4.267c1.177 0 2.133.958 2.133 2.133a2.136 2.136 0 01-2.133 2.134 2.132 2.132 0 100 4.266c1.177 0 2.133.958 2.133 2.133 0 1.216-.917 2.134-2.133 2.134H57.6a2.134 2.134 0 00-2.133 2.133v4.266c0 3.529 2.871 6.4 6.4 6.4h4.267c3.528 0 6.4-2.871 6.4-6.4v-2.133h6.4c3.59 0 6.4-2.812 6.4-6.4a6.372 6.372 0 00-1.635-4.267 6.372 6.372 0 001.635-4.267 6.372 6.372 0 00-1.635-4.266A6.375 6.375 0 0085.334 96c0-2.729-1.727-5.048-4.137-5.967.576-3.597 2.87-4.877 2.957-4.926a2 2 0 00.285-.17c15.164-10.834 22.228-24.265 22.228-42.27C106.667 19.14 87.527 0 64 0zm4.267 121.6a2.135 2.135 0 01-2.133 2.133h-4.267a2.137 2.137 0 01-2.133-2.133v-2.133h8.533v2.133z" fill="#443F48"/><path d="M125.867 40.533H115.2a2.132 2.132 0 100 4.267h10.667a2.132 2.132 0 100-4.267z" fill="#2D8EFF"/></svg>