<svg width="128" height="128" fill="none" xmlns="http://www.w3.org/2000/svg"><g clip-path="url(#clip0)"><path d="M122.1 123h-5.483V43.384a6.728 6.728 0 00-6.721-6.72H97.64a6.728 6.728 0 00-6.72 6.72V123H76.997V79.456a6.728 6.728 0 00-6.72-6.72H58.02a6.728 6.728 0 00-6.72 6.72V123H37.377v-22.551a6.728 6.728 0 00-6.72-6.72H18.4a6.728 6.728 0 00-6.72 6.72V123H5.9a2.5 2.5 0 100 5h116.2a2.5 2.5 0 100-5zm-89.724 0H16.68v-22.551c0-.949.772-1.72 1.72-1.72h12.257c.949 0 1.72.771 1.72 1.72V123zm39.62 0H56.3V79.456c0-.949.771-1.72 1.72-1.72h12.256c.949 0 1.72.771 1.72 1.72V123zm39.621 0H95.92V43.384c0-.949.772-1.72 1.72-1.72h12.256c.949 0 1.721.771 1.721 1.72V123z" fill="#443"/><path d="M116.61 2.629a2.491 2.491 0 00-2.623-2.623c-.04-.002-.08-.006-.121-.006H98.742a2.5 2.5 0 100 5h9.339L83.366 29.715l-9.32-9.32a2.5 2.5 0 00-3.535 0L25.569 65.337a2.5 2.5 0 003.535 3.535L72.28 25.698l9.32 9.32a2.5 2.5 0 003.535 0l26.482-26.482v8.452a2.5 2.5 0 005 0V2.75c0-.04-.004-.08-.006-.121z" fill="#2D8EFF"/><path d="M18.91 78.328a2.5 2.5 0 100-5 2.5 2.5 0 000 5z" fill="#443"/></g><defs><clipPath id="clip0"><path fill="#fff" d="M0 0h128v128H0z"/></clipPath></defs></svg>