<svg width="118" height="128" fill="none" xmlns="http://www.w3.org/2000/svg"><path d="M15.803 24.598c.809.735 1.888.471 2.652-.12a1.875 1.875 0 00-2.77-2.531c-.7.765-.647 1.95.118 2.651zM9.74 33.165c.844.524 2.06.242 2.583-.6a1.876 1.876 0 10-2.583.6zM24.83 18.03c1.432 0 2.376-1.837 1.496-3.007a1.876 1.876 0 10-1.496 3.007zM5.36 42.705c.902.345 2.073-.158 2.429-1.07a1.878 1.878 0 00-1.07-2.429 1.873 1.873 0 00-2.427 1.07 1.874 1.874 0 001.068 2.43zM2.818 52.888c.929.18 2.017-.575 2.19-1.5a1.872 1.872 0 00-1.5-2.187 1.876 1.876 0 00-.69 3.687zM5.33 80.28a1.875 1.875 0 00-1.07 2.427c.287.745.995 1.2 1.748 1.2 1.19 0 2.193-1.407 1.75-2.553A1.876 1.876 0 005.33 80.28zm-1.841-6.498a1.874 1.874 0 001.503-2.186 1.877 1.877 0 00-2.186-1.504 1.879 1.879 0 00-1.503 2.187 1.879 1.879 0 002.186 1.503zM2.198 63.366c2.483-.086 2.484-3.666 0-3.752a1.873 1.873 0 00-1.876 1.874 1.875 1.875 0 001.874 1.878h.002zM107.99 90.363a1.877 1.877 0 00-2.011 3.17c.942.531 1.805.338 2.589-.578a1.879 1.879 0 00-.578-2.592zm-1.361-59.852a1.875 1.875 0 00-.63 2.577c.512.846 1.732 1.143 2.579.63a1.878 1.878 0 00.63-2.576 1.878 1.878 0 00-2.579-.63zm-6.518-8.224a1.875 1.875 0 00-.148 2.649c.862.781 1.745.83 2.649.148a1.877 1.877 0 00-2.501-2.797zm12.351 58.583a1.876 1.876 0 00-2.439 1.044c-.459 1.15.541 2.574 1.741 2.574.746 0 1.448-.445 1.744-1.18a1.877 1.877 0 00-1.046-2.437zm3.36-20.628a1.876 1.876 0 00-1.896 1.859c-.011 1.12.914 1.742 1.876 1.893a1.876 1.876 0 00.02-3.752zm-3.633-16.819a1.88 1.88 0 001.757-2.536c-.955-2.295-4.307-1.032-3.512 1.32a1.875 1.875 0 001.755 1.216zm.914 8.565c.163.926 1.242 1.693 2.171 1.523a1.873 1.873 0 001.523-2.171 1.872 1.872 0 00-2.171-1.523 1.872 1.872 0 00-1.523 2.17zm-11.256 46.887a1.875 1.875 0 10-2.557 2.744c.897.7 1.78.669 2.652-.092a1.876 1.876 0 00-.095-2.652zm13.251-28.165a1.877 1.877 0 00-2.203 1.478c-.206 1.06.777 2.24 1.843 2.24a1.877 1.877 0 00.36-3.717zm-51.624 45.572v-.002a1.878 1.878 0 00-1.721 2.021c.074.909 1.084 1.812 2.02 1.721a1.877 1.877 0 00-.3-3.74zm19.48-5.305a1.874 1.874 0 00-.868 2.506c.428.879 1.63 1.302 2.506.868a1.876 1.876 0 00-1.638-3.374zm-9.493 3.559a1.877 1.877 0 00-1.318 2.304c.252.923 1.386 1.568 2.304 1.318 2.376-.736 1.433-4.189-.986-3.622zm21.367-99.481h-.003a1.879 1.879 0 00-2.631.338c-.633.82-.48 1.999.34 2.632.923.619 1.8.506 2.631-.338a1.88 1.88 0 00-.337-2.632zm-3.199 90.669a1.877 1.877 0 00-.393 2.624c.82.859 1.695.99 2.624.392a1.876 1.876 0 10-2.231-3.016zm-38.304 10.448v-.003a1.88 1.88 0 00-2.058 1.676c-.102.998.862 2.069 1.869 2.069a1.876 1.876 0 00.19-3.742z" fill="#2D8EFF"/><path d="M93.114 61.892a7.33 7.33 0 00-2.449-5.47c3.215-2.886 3.219-8.077 0-10.96 3.214-2.887 3.22-8.077.002-10.961 4.58-4.105 2.172-12-3.969-12.78v-14.2c0-4.147-3.373-7.521-7.52-7.521h-23.77c-2.426 0-2.426 3.752 0 3.752h23.77a3.772 3.772 0 013.768 3.768v.993h-46.32V7.52a3.772 3.772 0 013.769-3.768h4.761c2.426 0 2.426-3.752 0-3.752h-4.761c-4.147 0-7.52 3.374-7.52 7.52v27.463c-5.108-3.254-12.01.594-12.01 6.634v43.991l-3.513 3.529c-3.816-1.783-8.533-.93-11.499 2.05-3.96 3.978-3.96 10.451 0 14.43l11.612 11.664c1.71 1.719 4.37-.927 2.659-2.647L8.512 102.97c-2.507-2.519-2.507-6.618 0-9.137 2.467-2.478 6.638-2.465 9.091 0l19.367 19.455c2.507 2.519 2.507 6.618 0 9.137-2.867 2.88-7.325 2.22-9.826-.738-1.711-1.72-4.37.928-2.66 2.647 8.94 9.451 23.118-1.088 16.384-12.184l3.38-3.395c10.153.774 20.01-4.83 24.565-13.944h10.365c4.147 0 7.52-3.374 7.52-7.52v-18.09a7.363 7.363 0 006.416-7.31zm-3.752.025a3.596 3.596 0 01-3.592 3.592h-3.276c-4.77-.2-4.77-7.011 0-7.21h3.276c1.98 0 3.592 1.612 3.592 3.618zm0-10.962a3.596 3.596 0 01-3.592 3.592h-3.276c-4.77-.198-4.77-7.01 0-7.209h3.276c1.98 0 3.592 1.611 3.592 3.617zm0-10.961a3.596 3.596 0 01-3.592 3.592h-3.276c-4.77-.199-4.77-7.01 0-7.21h3.276c1.98 0 3.592 1.612 3.592 3.618zm0-10.987c-.064 1.92-1.608 3.618-3.592 3.618h-3.276c-4.77-.199-4.77-7.011 0-7.21h3.276a3.596 3.596 0 013.592 3.592zm-6.416-16.742v9.398c-6.982-.342-10.48 8.213-5.35 12.838-3.244 2.817-3.243 8.145 0 10.96-3.244 2.818-3.243 8.146 0 10.962-5.132 4.628-1.628 13.18 5.35 12.838v9.398H47.374c-1.188-6.4-4.877-12.41-10.748-15.474v-50.92h46.32zM46.22 105.091l-2.628-.123a1.895 1.895 0 00-1.416.551l-3.823 3.84-17.918-18 3.636-3.653c.35-.351.546-.827.546-1.323V41.617c0-5.284 8.147-5.284 8.147 0v22.698c0 .748.444 1.425 1.131 1.722 4.47 1.934 7.777 5.94 9.312 11.278 1.731 6.021.808 12.669-2.41 17.348-1.335 1.941 1.657 4.212 3.091 2.127a20.25 20.25 0 001.198-1.98h19.44c-3.902 6.381-10.735 10.266-18.306 10.281zm32.958-14.032H46.653c.864-2.73 1.253-5.683 1.139-8.648h35.154v4.88a3.772 3.772 0 01-3.768 3.768z" fill="#443F48"/><path d="M41.986 26.48c.89.722 1.774.71 2.653-.034l5.491-5.636c1.693-1.737-.995-4.356-2.687-2.618l-5.491 5.636a1.876 1.876 0 00.034 2.653zm0 12.063c.89.72 1.774.71 2.653-.035L61.88 20.81c1.693-1.737-.995-4.356-2.687-2.618L41.952 35.89a1.876 1.876 0 00.034 2.653z" fill="#2D8EFF"/></svg>