<svg width="50" height="50" xmlns="http://www.w3.org/2000/svg"><g clip-path="url(#clip0)" fill="inherit"><path d="M43.934 10.124L25.142.11a.934.934 0 00-.89.005L5.98 10.13a.936.936 0 00-.486.82v13.08a27.083 27.083 0 0016.233 24.788l2.536 1.105a.934.934 0 00.745.001l2.858-1.234a27.03 27.03 0 0016.563-24.92V10.95a.936.936 0 00-.495-.826zM42.558 23.77a25.163 25.163 0 01-15.425 23.198l-.006.003-2.489 1.074-2.162-.943A25.21 25.21 0 017.365 24.03V11.503L24.708 2l17.85 9.511v12.26z"/><path d="M17.805 23.423a.936.936 0 00-1.423 1.215l4.942 5.787c.33.386.908.44 1.301.119l11.51-9.364a.935.935 0 10-1.18-1.452l-10.801 8.787-4.349-5.092z"/></g><defs><clipPath id="clip0"><path fill="#fff" d="M0 0h50v50H0z"/></clipPath></defs></svg>