<svg width="50" height="50" xmlns="http://www.w3.org/2000/svg"><path d="M37.726 21.596v-.955a2.227 2.227 0 00-2.225-2.224h-9.41l1.003-2.45a3.937 3.937 0 00-.664-4.39 2.212 2.212 0 00-1.835-.709 2.212 2.212 0 00-1.681 1.023l-.01.014-4.413 7.296a1.475 1.475 0 00-1.015-.412l-3.151-.023h-.008c-.395 0-.766.153-1.047.432-.282.28-.437.654-.437 1.052v13.153c0 .818.666 1.483 1.484 1.483h3.15c.708 0 1.302-.5 1.449-1.165l3.248 1.108c1.574.537 3.215.809 4.879.809h6.22a2.227 2.227 0 002.226-2.225v-.955c0-.363-.088-.706-.243-1.01a2.227 2.227 0 001.199-1.974v-.955c0-.398-.105-.772-.29-1.096a2.226 2.226 0 001.05-1.888v-.954a2.22 2.22 0 00-.36-1.213c.535-.407.88-1.05.88-1.772zm-1.465 0a.76.76 0 01-.76.76h-5.607a.733.733 0 000 1.464h5.086c.42 0 .76.341.76.76v.955a.76.76 0 01-.76.76h-5.086a.732.732 0 100 1.464h4.326c.42 0 .76.341.76.76v.954c0 .42-.34.76-.76.76h-4.326a.732.732 0 100 1.465h3.37a.76.76 0 01.76.76v.955a.76.76 0 01-.76.76h-6.221a13.64 13.64 0 01-4.406-.73l-3.687-1.258v-6.238a.733.733 0 00-1.465 0v7.456a.02.02 0 01-.019.019h-3.15a.02.02 0 01-.019-.02V20.25c0-.003 0-.008.006-.014s.01-.005.012-.005l3.151.022c.01 0 .02.01.02.02v2.703a.732.732 0 101.464 0v-1.881a1.71 1.71 0 00.353-.408l4.85-8.015a.758.758 0 01.572-.345.757.757 0 01.628.243 2.482 2.482 0 01.394 2.822l-1.425 3.48a.733.733 0 00.678 1.01h10.5c.42 0 .76.34.76.76v.954z" fill="inherit"/><path d="M25 50a4.747 4.747 0 01-3.932-2.044 3.337 3.337 0 00-4.14-1.11 4.747 4.747 0 01-4.428-.195 4.747 4.747 0 01-2.383-3.736 3.336 3.336 0 00-3.032-3.032A4.747 4.747 0 013.35 37.5a4.747 4.747 0 01-.196-4.427 3.336 3.336 0 00-1.11-4.14A4.747 4.747 0 010 25c0-1.587.745-3.02 2.044-3.932a3.336 3.336 0 001.11-4.14 4.747 4.747 0 01.195-4.428 4.747 4.747 0 013.736-2.383 3.336 3.336 0 003.032-3.032A4.746 4.746 0 0112.5 3.35a4.746 4.746 0 014.427-.196 3.336 3.336 0 004.14-1.11A4.748 4.748 0 0125 0c1.587 0 3.02.745 3.932 2.044a3.337 3.337 0 004.14 1.11 4.747 4.747 0 014.428.195 4.747 4.747 0 012.383 3.736 3.336 3.336 0 003.032 3.032A4.747 4.747 0 0146.65 12.5a4.747 4.747 0 01.196 4.427 3.335 3.335 0 001.11 4.14A4.747 4.747 0 0150 25c0 1.587-.745 3.02-2.044 3.932a3.336 3.336 0 00-1.11 4.14 4.747 4.747 0 01-.195 4.428 4.747 4.747 0 01-3.736 2.383 3.336 3.336 0 00-3.032 3.032A4.747 4.747 0 0137.5 46.65a4.747 4.747 0 01-4.427.196 3.336 3.336 0 00-4.14 1.11A4.748 4.748 0 0125 50zm-6.665-4.93a4.8 4.8 0 013.932 2.045A3.3 3.3 0 0025 48.535a3.3 3.3 0 002.733-1.42 4.8 4.8 0 015.957-1.596 3.3 3.3 0 003.078-.137 3.299 3.299 0 001.656-2.597 4.8 4.8 0 014.361-4.36 3.301 3.301 0 002.597-1.657 3.302 3.302 0 00.137-3.078 4.8 4.8 0 011.596-5.957A3.3 3.3 0 0048.535 25a3.3 3.3 0 00-1.42-2.733 4.8 4.8 0 01-1.597-5.957 3.3 3.3 0 00-.136-3.078 3.299 3.299 0 00-2.597-1.656 4.8 4.8 0 01-4.36-4.361 3.3 3.3 0 00-1.657-2.597 3.299 3.299 0 00-3.078-.136 4.8 4.8 0 01-5.957-1.597A3.298 3.298 0 0025 1.465c-1.103 0-2.1.517-2.733 1.42a4.8 4.8 0 01-5.957 1.597 3.3 3.3 0 00-3.078.136 3.299 3.299 0 00-1.656 2.597 4.8 4.8 0 01-4.361 4.36 3.3 3.3 0 00-2.597 1.657 3.3 3.3 0 00-.136 3.078 4.8 4.8 0 01-1.597 5.957A3.299 3.299 0 001.465 25c0 1.103.517 2.1 1.42 2.733a4.8 4.8 0 011.597 5.957 3.3 3.3 0 00.136 3.078 3.299 3.299 0 002.597 1.656 4.8 4.8 0 014.36 4.361 3.3 3.3 0 001.657 2.597 3.3 3.3 0 003.078.137 4.796 4.796 0 012.025-.45z" fill="inherit"/><path d="M25 44.362c-4.903 0-9.58-1.836-13.171-5.17a19.292 19.292 0 01-6.13-12.65.732.732 0 011.46-.116 17.831 17.831 0 005.666 11.692A17.838 17.838 0 0025 42.897c4.532 0 8.856-1.697 12.175-4.78a17.83 17.83 0 005.666-11.69.732.732 0 111.46.114 19.292 19.292 0 01-6.13 12.65 19.297 19.297 0 01-13.17 5.17zM6.43 24.245a.733.733 0 01-.73-.79 19.295 19.295 0 016.13-12.648A19.299 19.299 0 0125 5.638a19.3 19.3 0 0113.164 5.164c3.57 3.312 5.75 7.8 6.136 12.637a.733.733 0 01-1.46.117 17.833 17.833 0 00-5.672-11.68A17.84 17.84 0 0025 7.103a17.839 17.839 0 00-12.174 4.778A17.833 17.833 0 007.16 23.57a.732.732 0 01-.73.675z" fill="inherit"/></svg>