<svg width="48" height="28" xmlns="http://www.w3.org/2000/svg"><g clip-path="url(#clip0_939:204)"><path d="M47.747 24.899a3.288 3.288 0 00-.162-.311c-.83-1.494-2.415-3.328-4.755-5.502l-.05-.05-.024-.024-.025-.025h-.025c-1.062-1.012-1.734-1.693-2.016-2.041-.515-.664-.63-1.336-.349-2.017.199-.514.946-1.6 2.24-3.26.68-.88 1.22-1.585 1.618-2.116 2.871-3.817 4.116-6.256 3.734-7.318l-.148-.248c-.1-.15-.357-.286-.772-.41-.415-.125-.946-.146-1.593-.063l-7.169.05c-.116-.041-.282-.038-.498.012l-.323.075-.125.063-.1.074c-.082.05-.173.137-.273.262-.1.124-.182.27-.248.435a40.636 40.636 0 01-2.664 5.6 53.005 53.005 0 01-1.693 2.676c-.514.755-.946 1.311-1.294 1.668a9.038 9.038 0 01-.946.858c-.282.217-.498.308-.647.274-.15-.033-.29-.066-.424-.1a1.656 1.656 0 01-.56-.609c-.14-.257-.236-.58-.286-.97a10.72 10.72 0 01-.087-1.009c-.007-.282-.004-.68.013-1.195s.025-.863.025-1.045c0-.631.012-1.315.037-2.054.025-.738.045-1.323.062-1.754.017-.432.025-.888.025-1.37 0-.48-.03-.858-.087-1.132a3.875 3.875 0 00-.26-.797 1.342 1.342 0 00-.511-.597 2.876 2.876 0 00-.834-.336c-.88-.2-2-.307-3.36-.324-3.087-.033-5.07.166-5.95.598a3.354 3.354 0 00-.945.746c-.299.365-.34.565-.125.598.996.149 1.7.506 2.116 1.07l.15.299c.115.215.232.597.348 1.145.116.547.19 1.153.224 1.816.082 1.212.082 2.249 0 3.112a37.072 37.072 0 01-.237 2.016c-.075.481-.187.871-.336 1.17-.15.299-.249.481-.299.547a.43.43 0 01-.124.125 1.88 1.88 0 01-.672.125c-.233 0-.515-.117-.846-.35a5.974 5.974 0 01-1.033-.957c-.357-.407-.76-.976-1.208-1.706a29.728 29.728 0 01-1.393-2.588l-.399-.722a62.166 62.166 0 01-1.02-2.029 39.112 39.112 0 01-1.145-2.576c-.133-.349-.332-.614-.597-.797l-.125-.074a1.704 1.704 0 00-.398-.212 2.642 2.642 0 00-.573-.162l-6.82.05c-.697 0-1.17.158-1.419.473l-.1.15c-.05.082-.074.215-.074.398 0 .182.05.406.15.672a82.148 82.148 0 003.247 6.77c1.17 2.174 2.187 3.925 3.05 5.252a61.999 61.999 0 002.638 3.758c.896 1.179 1.49 1.934 1.78 2.265.29.333.518.581.684.747l.623.597c.398.399.983.876 1.754 1.432a29.946 29.946 0 002.564 1.643c.938.539 2.029.979 3.273 1.319 1.245.34 2.456.477 3.635.41h2.862c.58-.05 1.02-.232 1.32-.547l.099-.125c.066-.099.128-.253.186-.46.058-.207.087-.436.087-.684a8.2 8.2 0 01.162-1.929c.124-.572.265-1.004.423-1.294a3.18 3.18 0 01.535-.734c.2-.2.341-.32.424-.361.083-.042.149-.07.199-.087.398-.133.866-.005 1.406.386.54.39 1.046.871 1.519 1.444a44.253 44.253 0 001.705 1.928c.664.714 1.244 1.244 1.742 1.593l.498.3c.332.198.764.381 1.295.547.53.166.994.207 1.393.124l6.372-.099c.63 0 1.12-.104 1.469-.311.348-.208.555-.436.622-.685a1.93 1.93 0 00.013-.847c-.06-.314-.118-.535-.175-.659z" fill="inherit"/></g><defs><clipPath id="clip0_939:204"><path fill="#fff" d="M0 0h48v28H0z"/></clipPath></defs></svg>