<svg width="54" height="57" viewBox="0 0 54 57" fill="none" xmlns="http://www.w3.org/2000/svg">
<path fill-rule="evenodd" clip-rule="evenodd" d="M31.9885 3.82424H33.9953V7.52148H31.9885V3.82424ZM38.7624 5.72387C47.7809 10.0928 54 19.3302 54 30.0184C54 44.9195 41.9102 57 26.9999 57C12.0881 57 0 44.9195 0 30.0184C0 23.7968 2.10772 18.0681 5.64769 13.5039L5.65419 13.4223L5.92277 11.9341C6.40289 10.2489 7.40225 8.6974 8.78081 7.64473C9.22514 7.30828 9.70363 6.96808 10.1626 6.64454C10.6183 6.32266 11.0431 6.00535 11.5168 5.67848C12.8872 4.73324 14.3715 3.58981 15.6947 2.70828C16.1423 2.40722 16.6485 2.08534 17.1449 1.838C19.5781 0.622939 21.8861 1.13989e-07 24.775 1.13989e-07H30.9842C32.1626 1.13989e-07 31.9885 1.18091 31.9885 1.88047H34.8742C35.4064 1.88047 35.8767 2.29854 35.8767 2.757V8.52501C35.8767 9.068 35.4161 9.46524 34.8742 9.46524H31.9885C31.9885 10.1627 32.1626 11.3436 30.9842 11.3436H27.3466C26.746 11.3436 26.3424 10.8102 26.0136 10.4833C24.6969 9.16585 25.6051 9.46524 22.0797 9.46524C21.7494 9.46524 19.5 11.0788 19.194 11.282C18.0173 12.0661 15.462 13.8404 14.2999 14.5383C12.1743 15.8166 9.89729 16.233 7.44292 15.5043C7.19392 15.4315 7.02951 15.3548 6.79513 15.2995C3.78089 19.431 1.99867 24.5174 1.99867 30.0184C1.99867 36.9232 4.7965 43.1709 9.31464 47.6846C13.8393 52.2065 20.0892 55.0026 26.9999 55.0026C33.9025 55.0026 40.154 52.2049 44.6772 47.6846C49.2034 43.1709 51.9996 36.9232 51.9996 30.0184C51.9996 23.1201 49.2001 16.8726 44.6772 12.3505C42.9406 10.6149 40.9481 9.13337 38.7624 7.96703V5.72387ZM10.2245 13.9137C9.60272 13.9137 9.11118 13.9382 8.51711 13.8046C8.16232 13.7234 7.90516 13.6114 7.59104 13.5397C7.59104 11.8479 8.81335 10.002 10.1073 9.03385L13.1818 6.84149C14.2397 6.06074 16.8064 4.19026 17.8773 3.63561C19.0508 3.0285 19.6595 2.73743 21.012 2.3814C21.8747 2.15363 23.0709 1.94377 24.1484 1.94377H30.1069V9.40153C27.1285 9.40153 27.9569 9.66678 26.6728 8.38343C26.3456 8.05655 25.9403 7.52148 25.3398 7.52148H21.7022C21.1618 7.52148 20.8363 7.92622 20.2568 8.271L19.2299 8.93641C19.0654 9.04884 19.0704 9.068 18.9011 9.1721L13.5626 12.7378C13.0841 13.0371 12.6544 13.307 12.0897 13.5218C11.6258 13.6976 10.8299 13.9137 10.2245 13.9137" fill="#2D8EFF"/>
</svg>
