<svg width="130" height="130" fill="none" xmlns="http://www.w3.org/2000/svg"><circle cx="65" cy="65" r="65" fill="#2D8EFF"/><path fill-rule="evenodd" clip-rule="evenodd" d="M56.281 75.138c-.862-.57-12.771-12.83-14.305-13.963-3.95-2.917-7.976.652-7.976 3.33v.114c0 1.159.019 1.709.642 2.837.56 1.012 8.55 8.687 9.439 9.564 1 .986 8.04 8.034 8.88 8.683.38.294.364.389.814.63 2.238 1.197 4.542.737 6.291-1.01 10.516-10.497 21.31-21.026 31.907-31.48C94.365 51.482 96 50.528 96 47.54c0-2.295-2.363-4.54-4.36-4.54-2.373 0-3.053.319-4.934 2.18l-1.09 1.076-20.889 20.609c-.668.659-7.914 7.922-8.446 8.273z" fill="#fff"/></svg>