<svg width="105" height="101" fill="none" xmlns="http://www.w3.org/2000/svg"><path d="M47.16 43.152l8.147 19.809c3.453 1.1 6.258 3.914 7.112 7.72 1.277 5.687-2.274 11.335-7.927 12.61-5.652 1.273-11.276-2.308-12.552-7.994-.855-3.806.477-7.553 3.128-10.028l-1.026-21.414 3.118-.703z" fill="#D9EBFF"/><path d="M1.3 85.955C-5.084 57.508 12.666 29.282 40.938 22.91S97.313 34.43 103.7 62.877A52.808 52.808 0 0197.889 101H85.148c7.78-9.69 11.248-22.737 8.313-35.815-5.1-22.72-27.626-37.064-50.21-31.974S6.44 60.928 11.54 83.647A42.15 42.15 0 0019.927 101H7.184a53.015 53.015 0 01-5.883-15.045zM26.072 4.616l2.522 11.233c6.934-2.85 12.836-4.208 20.48-4.616L46.552 0l-20.48 4.616zM83.74 7.852l-5.576 8.87a63.713 63.713 0 019.215 5.11l5.236-8.329-8.874-5.65z" fill="#D9EBFF"/></svg>