<svg width="23" height="23" xmlns="http://www.w3.org/2000/svg"><path d="M.696 23H3.9a.337.337 0 00.326-.252l.85-3.27h9.207l-.806 3.1a.341.341 0 00.326.422h3.204a.337.337 0 00.326-.252l5.3-20.388A1.89 1.89 0 0021.28.059a1.905 1.905 0 00-2.302 1.352l-.64 2.464h-1.696a.337.337 0 100 .674h1.52l-.457 1.762H7.742a.882.882 0 01-.178-1.744c.058-.012 7.73-.018 7.73-.018a.337.337 0 100-.674H9.13l.394-1.514A1.89 1.89 0 008.173.059 1.905 1.905 0 005.87 1.411L.37 22.578A.34.34 0 00.696 23zm13.762-4.196H4.494a.882.882 0 010-1.762H7.14a.337.337 0 000-.674H5.884l.815-3.136h9.207l-.815 3.136H8.488a.337.337 0 100 .674h6.428l-.458 1.762zm2.081-8.009l-.458 1.763H6.12a.882.882 0 010-1.763h10.42zm3.091-9.214a1.23 1.23 0 011.48-.87c.648.169 1.038.833.87 1.48l-5.233 20.135h-2.508L19.63 1.581zm-2.915 8.54H7.508l.815-3.136h9.206l-.814 3.136zM6.523 1.581a1.23 1.23 0 011.48-.87c.648.169 1.038.833.87 1.48l-.438 1.684h-.693a1.57 1.57 0 00-1.547 1.396c-.086.84.59 1.65 1.433 1.71l-.817 3.14H6.12c-.858 0-1.555.698-1.555 1.555 0 .797.648 1.492 1.44 1.551l-.816 3.14h-.694c-.857 0-1.555.698-1.555 1.556 0 .8.645 1.493 1.442 1.551l-.741 2.852H1.132L6.523 1.581z" fill="inherit"/></svg>