<svg width="64" height="64" xmlns="http://www.w3.org/2000/svg"><circle cx="32" cy="32" r="32" fill="inherit"/><path d="M27.86 37.72h-1.666l1.016-2.54a.967.967 0 10-1.795-.719l-1.547 3.867a.967.967 0 00.898 1.326h1.665l-1.016 2.542a.967.967 0 001.795.718l1.547-3.867a.967.967 0 00-.898-1.326zm-5.737-11.472h8.379a1.936 1.936 0 001.933-1.934v-2.191a1.936 1.936 0 00-1.933-1.934h-8.379a1.936 1.936 0 00-1.934 1.934v2.191c0 1.067.868 1.934 1.934 1.934zm8.379-1.934h-4.131l1.096-2.191h3.035v2.191zm-8.379-2.191h3.182l-1.096 2.191h-2.086v-2.191z" fill="#fff"/><path d="M47.969 18.643h-.58v-1.676a.967.967 0 00-1.934 0v1.676h-2.191v-1.676a.967.967 0 00-1.934 0v1.676h-.58a.967.967 0 00-.967.966c0 2.553 1.108 5.397 3.61 6.009v13.327c0 1.6-1.301 2.9-2.9 2.9h-5.995V31.34c0-.367-.069-.717-.193-1.04a2.905 2.905 0 002.255-2.827V18.9c0-1.599-1.3-2.9-2.9-2.9H18.965c-1.6 0-2.9 1.301-2.9 2.9v8.573c0 1.377.965 2.533 2.255 2.827a2.885 2.885 0 00-.193 1.04V46.1c0 1.599 1.301 2.9 2.9 2.9h10.57c1.6 0 2.901-1.301 2.901-2.9v-2.32h5.994a4.84 4.84 0 004.834-4.835V25.618c2.502-.612 3.61-3.457 3.61-6.009a.967.967 0 00-.967-.966zm-29.971 8.83V18.9c0-.533.434-.966.967-.966H33.66c.533 0 .967.433.967.966v8.573a.968.968 0 01-.967.966H18.965a.968.968 0 01-.967-.966zM32.565 46.1a.968.968 0 01-.967.966h-10.57a.968.968 0 01-.967-.966V31.34c0-.533.433-.967.966-.967h10.57c.534 0 .968.434.968.967V46.1zm11.794-22.301c-1.59 0-2.35-1.687-2.571-3.223h5.143c-.221 1.536-.98 3.223-2.572 3.223z" fill="#fff"/></svg>