<svg width="107" height="108" fill="none" xmlns="http://www.w3.org/2000/svg"><path d="M67.67 69.857a1.78 1.78 0 00-1.767-1.79c-.975 0-1.766.802-1.766 1.79v3.583c0 .989.791 1.791 1.766 1.791s1.767-.802 1.767-1.791v-3.583zm-1.767 19.704a1.78 1.78 0 00-1.767 1.791v7.165a1.78 1.78 0 001.767 1.791c.975 0 1.766-.802 1.766-1.791v-7.165c0-.989-.79-1.791-1.766-1.791zm8.833-41.198c0-.989-.791-1.791-1.766-1.791s-1.767.802-1.767 1.79v3.583a1.78 1.78 0 001.767 1.791c.975 0 1.766-.802 1.766-1.79v-3.583zM67.67 59.11a1.78 1.78 0 00-1.767-1.79c-.975 0-1.766.802-1.766 1.79v3.583c0 .989.791 1.791 1.766 1.791s1.767-.802 1.767-1.791V59.11zm0 21.495a1.78 1.78 0 00-1.767-1.791 1.78 1.78 0 00-1.767 1.791v3.582c0 .99.792 1.792 1.767 1.792.975 0 1.767-.803 1.767-1.791v-3.583zm7.066-21.495c0-.988-.791-1.79-1.766-1.79s-1.767.802-1.767 1.79v3.583a1.78 1.78 0 001.767 1.791c.975 0 1.766-.802 1.766-1.791V59.11zM60.603 48.363a1.78 1.78 0 00-1.767-1.791c-.975 0-1.766.802-1.766 1.79v3.583c0 .989.791 1.791 1.766 1.791.976 0 1.767-.802 1.767-1.79v-3.583zm7.067 0a1.78 1.78 0 00-1.767-1.791c-.975 0-1.766.802-1.766 1.79v3.583c0 .989.791 1.791 1.766 1.791s1.767-.802 1.767-1.79v-3.583zm7.066-17.913v-3.582c0-.988-.791-1.79-1.766-1.79s-1.767.802-1.767 1.79v3.583a1.78 1.78 0 001.767 1.791c.975 0 1.766-.802 1.766-1.791zM60.603 59.11c0-.988-.791-1.79-1.767-1.79-.975 0-1.766.802-1.766 1.79v3.583c0 .989.791 1.791 1.766 1.791a1.78 1.78 0 001.767-1.791V59.11zm21.2-32.242c0-.988-.791-1.79-1.767-1.79-.975 0-1.766.802-1.766 1.79v3.583c0 .989.791 1.791 1.766 1.791s1.767-.802 1.767-1.791v-3.583zM58.836 68.066c-.975 0-1.766.803-1.766 1.791v3.583c0 .989.791 1.791 1.766 1.791a1.78 1.78 0 001.767-1.791v-3.583c0-.988-.791-1.79-1.767-1.79zM88.87 80.605a1.78 1.78 0 00-1.767-1.791 1.78 1.78 0 00-1.767 1.791v3.582c0 .99.792 1.792 1.767 1.792.975 0 1.767-.803 1.767-1.791v-3.583zm-1.767 8.956a1.78 1.78 0 00-1.767 1.791v7.165a1.78 1.78 0 001.767 1.791 1.78 1.78 0 001.767-1.791v-7.165a1.78 1.78 0 00-1.767-1.791zm7.067-21.495c-.975 0-1.767.803-1.767 1.791v3.583a1.78 1.78 0 001.767 1.791c.975 0 1.766-.802 1.766-1.791v-3.583c0-.988-.791-1.79-1.766-1.79z" fill="#2D8EFF"/><path d="M65.903 32.242c.975 0 1.766-.803 1.766-1.791v-7.558l17.667-4.478v29.948c0 .747.458 1.415 1.147 1.678l12.987 4.937V73.44c0 .989.791 1.791 1.766 1.791s1.767-.802 1.767-1.791V53.737c0-.747-.458-1.416-1.147-1.679L88.87 47.121V12.538a1.78 1.78 0 00-1.767-1.79 1.78 1.78 0 00-1.767 1.79v2.184l-19.862 5.035a1.786 1.786 0 00-1.338 1.737v8.957c0 .988.792 1.79 1.767 1.79z" fill="#2D8EFF"/><path d="M95.936 59.11c0-.988-.791-1.79-1.766-1.79s-1.767.802-1.767 1.79v3.583a1.78 1.78 0 001.767 1.791c.975 0 1.766-.802 1.766-1.791V59.11zm-7.066 0a1.78 1.78 0 00-1.767-1.79c-.975 0-1.766.802-1.766 1.79v3.583c0 .989.791 1.791 1.766 1.791s1.767-.802 1.767-1.791V59.11zM74.736 80.605c0-.989-.791-1.791-1.766-1.791s-1.767.802-1.767 1.791v3.582c0 .99.792 1.792 1.767 1.792.975 0 1.766-.803 1.766-1.791v-3.583zM88.87 69.857a1.78 1.78 0 00-1.767-1.79c-.975 0-1.766.802-1.766 1.79v3.583c0 .989.791 1.791 1.766 1.791s1.767-.802 1.767-1.791v-3.583zm-15.9 19.704a1.78 1.78 0 00-1.767 1.791v7.165a1.78 1.78 0 001.767 1.791c.975 0 1.766-.802 1.766-1.791v-7.165c0-.989-.791-1.791-1.766-1.791zm1.766-19.704c0-.988-.791-1.79-1.766-1.79s-1.767.802-1.767 1.79v3.583a1.78 1.78 0 001.767 1.791c.975 0 1.766-.802 1.766-1.791v-3.583z" fill="#2D8EFF"/><path d="M80.036 100.308a1.78 1.78 0 001.767-1.79v-57.32c0-.822-.553-1.538-1.337-1.737l-28.267-7.165a1.75 1.75 0 00-1.516.326c-.43.338-.68.86-.68 1.411V73.44a1.78 1.78 0 001.767 1.791c.975 0 1.766-.802 1.766-1.791V36.328l24.733 6.27v55.92c0 .988.792 1.79 1.767 1.79zM39.403 37.616c0-.99-.791-1.791-1.767-1.791-.975 0-1.766.802-1.766 1.79v3.583c0 .989.791 1.791 1.766 1.791s1.767-.802 1.767-1.79v-3.583zm0-10.748c0-.988-.791-1.79-1.767-1.79-.975 0-1.766.802-1.766 1.79v3.583c0 .989.791 1.791 1.766 1.791s1.767-.802 1.767-1.791v-3.583zM25.27 80.605a1.78 1.78 0 00-1.767-1.791 1.78 1.78 0 00-1.767 1.791v3.582c0 .99.792 1.792 1.767 1.792.975 0 1.767-.803 1.767-1.791v-3.583z" fill="#2D8EFF"/><path d="M9.37 64.484c.975 0 1.766-.803 1.766-1.791v-8.956h17.667v44.78a1.78 1.78 0 001.767 1.791c.975 0 1.766-.803 1.766-1.791V51.945c0-.988-.791-1.79-1.766-1.79H9.37a1.78 1.78 0 00-1.767 1.79v10.748c0 .988.792 1.79 1.767 1.79zm19.433-26.868v3.582a1.78 1.78 0 001.767 1.791c.975 0 1.766-.802 1.766-1.79v-3.583c0-.99-.791-1.791-1.766-1.791-.976 0-1.767.802-1.767 1.79zm10.6-21.496c0-.988-.791-1.79-1.767-1.79-.975 0-1.766.802-1.766 1.79v3.583c0 .989.791 1.791 1.766 1.791s1.767-.802 1.767-1.79V16.12z" fill="#2D8EFF"/><path d="M23.503 89.561a1.78 1.78 0 00-1.767 1.791v7.165a1.78 1.78 0 001.767 1.791 1.78 1.78 0 001.767-1.791v-7.165a1.78 1.78 0 00-1.767-1.791z" fill="#2D8EFF"/><path d="M104.77 103.89h-3.534V92.889a7.14 7.14 0 005.3-6.91c0-3.952-3.169-7.166-7.066-7.166s-7.067 3.214-7.067 7.165a7.141 7.141 0 005.3 6.91v11.002H53.536v-7.345c4.026-.833 7.067-4.45 7.067-8.776 0-4.938-3.963-8.956-8.833-8.956-4.871 0-8.834 4.018-8.834 8.956 0 4.326 3.04 7.943 7.067 8.776v7.345H11.136V85.797c4.027-.832 7.067-4.449 7.067-8.775 0-4.938-3.963-8.956-8.833-8.956-4.871 0-8.834 4.018-8.834 8.956 0 4.326 3.04 7.942 7.067 8.775v18.093h-5.3c-.975 0-1.767.803-1.767 1.792 0 .988.792 1.791 1.767 1.791H104.77c.975 0 1.766-.802 1.766-1.791 0-.989-.791-1.792-1.766-1.792zM4.07 77.022c0-2.962 2.378-5.373 5.3-5.373 2.922 0 5.3 2.41 5.3 5.373s-2.378 5.374-5.3 5.374c-2.922 0-5.3-2.411-5.3-5.374zm42.4 10.747c0-2.962 2.378-5.373 5.3-5.373 2.922 0 5.3 2.41 5.3 5.373s-2.378 5.374-5.3 5.374c-2.922 0-5.3-2.41-5.3-5.374zm49.466-1.79c0-1.976 1.585-3.583 3.534-3.583 1.949 0 3.533 1.606 3.533 3.582 0 1.976-1.584 3.583-3.533 3.583-1.949 0-3.534-1.607-3.534-3.583z" fill="#2D8EFF"/><path d="M14.67 91.352v7.165c0 .989.791 1.791 1.766 1.791a1.78 1.78 0 001.767-1.791v-7.165a1.78 1.78 0 00-1.767-1.791c-.975 0-1.766.802-1.766 1.791zm10.6-32.242a1.78 1.78 0 00-1.767-1.79c-.975 0-1.766.802-1.766 1.79v3.583c0 .989.791 1.791 1.766 1.791s1.767-.802 1.767-1.791V59.11zm0 10.747a1.78 1.78 0 00-1.767-1.79c-.975 0-1.766.802-1.766 1.79v3.583c0 .989.791 1.791 1.766 1.791s1.767-.802 1.767-1.791v-3.583zM14.67 59.11v3.583c0 .989.791 1.791 1.766 1.791a1.78 1.78 0 001.767-1.791V59.11c0-.988-.791-1.79-1.767-1.79-.975 0-1.766.802-1.766 1.79zm24.733 10.747c0-.988-.791-1.79-1.767-1.79-.975 0-1.766.802-1.766 1.79v3.583c0 .989.791 1.791 1.766 1.791s1.767-.802 1.767-1.791v-3.583zm7.067-21.494a1.78 1.78 0 00-1.767-1.791 1.78 1.78 0 00-1.767 1.79v3.583a1.78 1.78 0 001.767 1.791 1.78 1.78 0 001.767-1.79v-3.583zm0-10.747a1.78 1.78 0 00-1.767-1.791 1.78 1.78 0 00-1.767 1.79v3.583a1.78 1.78 0 001.767 1.791 1.78 1.78 0 001.767-1.79v-3.583zm0 21.494a1.78 1.78 0 00-1.767-1.79 1.78 1.78 0 00-1.767 1.79v3.583a1.78 1.78 0 001.767 1.791 1.78 1.78 0 001.767-1.791V59.11zm-1.767 8.956c-.975 0-1.767.803-1.767 1.791v3.583a1.78 1.78 0 001.767 1.791 1.78 1.78 0 001.767-1.791v-3.583a1.78 1.78 0 00-1.767-1.79zm1.767-41.198a1.78 1.78 0 00-1.767-1.79 1.78 1.78 0 00-1.767 1.79v3.583a1.78 1.78 0 001.767 1.791 1.78 1.78 0 001.767-1.791v-3.583zm-7.067 53.737a1.78 1.78 0 00-1.767-1.791c-.975 0-1.766.802-1.766 1.791v3.582c0 .99.791 1.792 1.766 1.792s1.767-.803 1.767-1.791v-3.583z" fill="#2D8EFF"/><path d="M23.503 46.572c.975 0 1.767-.803 1.767-1.791V31.558l6.09-3.087c.598-.304.976-.924.976-1.603V11.854l8.834-4.478 8.833 4.478v15.014a1.78 1.78 0 001.767 1.791c.975 0 1.766-.802 1.766-1.79V10.746c0-.678-.378-1.298-.977-1.603l-9.623-4.877V1.79c0-.988-.791-1.79-1.766-1.79s-1.767.802-1.767 1.791v2.476L29.78 9.144a1.796 1.796 0 00-.977 1.603v15.014l-6.09 3.086a1.796 1.796 0 00-.976 1.603v14.33c0 .99.79 1.792 1.766 1.792zm15.9 12.538c0-.988-.791-1.79-1.767-1.79-.975 0-1.766.802-1.766 1.79v3.583c0 .989.791 1.791 1.766 1.791s1.767-.802 1.767-1.791V59.11zm-1.767 30.451c-.975 0-1.766.802-1.766 1.791v7.165c0 .989.791 1.791 1.766 1.791s1.767-.802 1.767-1.791v-7.165a1.78 1.78 0 00-1.767-1.791z" fill="#2D8EFF"/><path d="M46.47 16.12a1.78 1.78 0 00-1.767-1.79 1.78 1.78 0 00-1.767 1.79v3.583a1.78 1.78 0 001.767 1.791 1.78 1.78 0 001.767-1.79V16.12zm-7.067 32.243a1.78 1.78 0 00-1.767-1.791c-.975 0-1.766.802-1.766 1.79v3.583c0 .989.791 1.791 1.766 1.791s1.767-.802 1.767-1.79v-3.583z" fill="#2D8EFF"/></svg>