<svg width="107" height="108" fill="none" xmlns="http://www.w3.org/2000/svg"><path d="M76.441 100.308H26.975c-.975 0-1.767.803-1.767 1.791v3.583a1.78 1.78 0 001.767 1.791c.975 0 1.766-.802 1.766-1.791v-1.791h47.7c.975 0 1.767-.803 1.767-1.791 0-.989-.791-1.792-1.767-1.792zm-37.1-55.528a1.78 1.78 0 001.767 1.791h7.067c.975 0 1.766-.802 1.766-1.79V34.032c0-.989-.791-1.791-1.766-1.791h-7.067c-.975 0-1.766.802-1.766 1.791V44.78zm3.534-8.956h3.533v7.165h-3.533v-7.165zM23.441 21.495h-21.2c-.975 0-1.766.802-1.766 1.79V59.11c0 .989.791 1.791 1.766 1.791.976 0 1.767-.802 1.767-1.79V25.076h19.433c.976 0 1.767-.802 1.767-1.79 0-.99-.791-1.792-1.767-1.792zM85.275 87.77c0 .989.791 1.79 1.766 1.79h7.067a1.78 1.78 0 001.767-1.79V77.022a1.78 1.78 0 00-1.767-1.79h-7.067c-.975 0-1.766.802-1.766 1.79V87.77zm3.533-8.956h3.534v7.165h-3.534v-7.165zm-79.5-14.33C.575 64.484.475 87.537.475 87.769c0 4.326 3.04 7.943 7.066 8.776v9.137a1.78 1.78 0 001.767 1.791 1.78 1.78 0 001.767-1.791v-9.137c4.026-.833 7.066-4.45 7.066-8.776 0-.232-.1-23.285-8.833-23.285zm0 28.66c-2.922 0-5.3-2.412-5.3-5.375 0-8.923 2.364-19.703 5.3-19.703s5.3 10.78 5.3 19.703c0 2.963-2.378 5.374-5.3 5.374zm10.6-39.407h-7.067c-.975 0-1.766.802-1.766 1.79v3.583c0 .989.791 1.791 1.766 1.791.976 0 1.767-.802 1.767-1.79v-1.792h3.533v8.956a1.78 1.78 0 001.767 1.791 1.78 1.78 0 001.767-1.79V55.527a1.78 1.78 0 00-1.767-1.791zm67.133-7.165h7.067c.975 0 1.767-.803 1.767-1.791V34.033c0-.989-.792-1.79-1.767-1.79h-7.067c-.975 0-1.766.801-1.766 1.79v10.748c0 .988.791 1.79 1.766 1.79zm1.767-10.748h3.534v7.165h-3.534v-7.165z" fill="#2D8EFF"/><path d="M19.908 32.242h-7.067c-.975 0-1.766.802-1.766 1.791V44.78c0 .989.791 1.791 1.766 1.791h7.067a1.78 1.78 0 001.767-1.79V34.032a1.78 1.78 0 00-1.767-1.791zm-1.767 10.747h-3.533v-7.165h3.534v7.165zm38.867 1.791a1.78 1.78 0 001.767 1.791h7.066c.976 0 1.767-.802 1.767-1.79V34.032a1.78 1.78 0 00-1.767-1.791h-7.066a1.78 1.78 0 00-1.767 1.791V44.78zm3.533-8.956h3.534v7.165H60.54v-7.165zm44.167-14.329h-21.2c-.975 0-1.766.802-1.766 1.79 0 .99.791 1.792 1.766 1.792h19.434v71.978a5.168 5.168 0 00-1.767-.329 5.12 5.12 0 00-.908.08 7.001 7.001 0 00-6.159-3.662 7.001 7.001 0 00-6.158 3.663 5.12 5.12 0 00-.908-.081c-2.922 0-5.3 2.411-5.3 5.374 0 2.962 2.378 5.373 5.3 5.373h14.133c2.922 0 5.3-2.411 5.3-5.373V23.286a1.78 1.78 0 00-1.767-1.791zm-3.533 82.396H87.041c-.973 0-1.766-.804-1.766-1.791 0-.987.793-1.792 1.766-1.792.34 0 .661.099.958.292a1.75 1.75 0 001.622.155 1.78 1.78 0 001.056-1.256c.373-1.632 1.785-2.773 3.431-2.773 1.647 0 3.058 1.141 3.431 2.773a1.78 1.78 0 001.057 1.256 1.75 1.75 0 001.621-.155c1.151-.752 2.725.169 2.725 1.5-.001.987-.794 1.791-1.767 1.791zm-42.4-78.814h7.066a1.78 1.78 0 001.767-1.791V12.539c0-.99-.791-1.792-1.767-1.792h-7.066c-.975 0-1.767.803-1.767 1.792v10.747a1.78 1.78 0 001.767 1.791zM60.54 14.33h3.534v7.164H60.54V14.33zm-3.532 51.945a1.78 1.78 0 001.767 1.791h7.066a1.78 1.78 0 001.767-1.791V55.528a1.78 1.78 0 00-1.767-1.791h-7.066a1.78 1.78 0 00-1.767 1.79v10.748zm3.533-8.956h3.534v7.165H60.54v-7.165zM41.108 25.077h7.067c.975 0 1.766-.802 1.766-1.791V12.539c0-.99-.791-1.792-1.766-1.792h-7.067c-.975 0-1.766.803-1.766 1.792v10.747c0 .989.79 1.791 1.766 1.791zm1.767-10.747h3.533v7.164h-3.533V14.33zm9.345 72.168c-.318.34-.512.806-.512 1.272 0 .466.194.931.512 1.272.336.322.795.52 1.255.52.46 0 .918-.198 1.254-.52.318-.34.513-.806.513-1.272a1.9 1.9 0 00-.513-1.272c-.671-.663-1.837-.663-2.509 0zM39.341 66.275a1.78 1.78 0 001.767 1.791h7.067c.975 0 1.766-.802 1.766-1.791V55.528c0-.989-.791-1.791-1.766-1.791h-7.067c-.975 0-1.766.802-1.766 1.79v10.748zm3.534-8.956h3.533v7.165h-3.533v-7.165z" fill="#2D8EFF"/><path d="M35.808 77.022c0 .99.792 1.792 1.767 1.792h5.3v16.12c0 .99.791 1.792 1.766 1.792.976 0 1.767-.803 1.767-1.791V78.814h14.133v16.12c0 .99.792 1.792 1.767 1.792.975 0 1.767-.803 1.767-1.791V78.814h5.3c.975 0 1.766-.803 1.766-1.791 0-.99-.791-1.792-1.766-1.792h-31.8c-.975 0-1.767.803-1.767 1.791zm49.467-10.747c0 .989.791 1.791 1.766 1.791h7.067a1.78 1.78 0 001.767-1.791V55.528a1.78 1.78 0 00-1.767-1.791h-7.067c-.975 0-1.766.802-1.766 1.79v10.748zm3.533-8.956h3.534v7.165h-3.534v-7.165z" fill="#2D8EFF"/><path d="M76.441 0H30.508c-.975 0-1.766.802-1.766 1.791v93.144c0 .988.791 1.79 1.766 1.79s1.767-.802 1.767-1.79V3.582h42.4v91.353c0 .988.791 1.79 1.766 1.79s1.767-.802 1.767-1.79V1.79c0-.988-.791-1.79-1.767-1.79z" fill="#2D8EFF"/></svg>