<svg width="257" height="63" viewBox="0 0 257 63" fill="none" xmlns="http://www.w3.org/2000/svg">
<path fill-rule="evenodd" clip-rule="evenodd" d="M20.3039 0.000534058H109.594C108.519 0.643482 107.499 1.36809 106.544 2.16645H20.3039C15.3186 2.16645 10.7843 4.20812 7.49597 7.49552C4.20673 10.784 2.16596 15.3182 2.16596 20.3035C2.16596 25.2889 4.20673 29.8239 7.49597 33.1113C10.7843 36.3998 15.3186 38.4415 20.3039 38.4415H106.545C107.499 39.2397 108.519 39.9643 109.594 40.6074H20.3039C9.13799 40.6074 0 31.4712 0 20.3035C0 9.1368 9.13714 0.000534058 20.3039 0.000534058Z" fill="white"/>
<path fill-rule="evenodd" clip-rule="evenodd" d="M133.143 0.000534058H236.695C247.864 0.000534058 257 9.1368 257 20.3035C257 31.4712 247.862 40.6074 236.695 40.6074H133.143C133.403 40.6057 133.66 40.5989 133.917 40.5885H126.489C120.912 40.5885 115.841 38.3061 112.164 34.6284C108.487 30.9525 106.204 25.8804 106.204 20.3035C106.204 14.7273 108.486 9.6555 112.164 5.97869C115.84 2.30189 120.912 0.0194092 126.489 0.0194092H133.917C133.661 0.00909424 133.403 0.00207138 133.143 0.000534058Z" fill="#2D8EFF"/>
<path d="M129.575 26.9258C128.683 27.8004 127.666 28.4864 126.522 28.982C125.378 29.4785 124.185 29.7264 122.94 29.7264C121.713 29.7264 120.531 29.4785 119.395 28.982C118.261 28.4864 117.256 27.8089 116.381 26.9515C115.507 26.0932 114.809 25.0934 114.287 23.9495C113.765 22.8056 113.504 21.5865 113.504 20.2916C113.504 19.0636 113.753 17.8822 114.249 16.746C114.745 15.6116 115.423 14.6067 116.28 13.7319C117.137 12.8574 118.138 12.1593 119.282 11.638C120.426 11.1167 121.645 10.8561 122.94 10.8561C124.185 10.8561 125.378 11.1039 126.522 11.6046C127.666 12.1053 128.683 12.799 129.575 13.677L127.481 15.7754C126.792 15.254 126.081 14.8295 125.349 14.5011C124.618 14.1736 123.815 14.0089 122.94 14.0089C122.065 14.0089 121.246 14.1736 120.481 14.5011C119.715 14.8295 119.05 15.2746 118.488 15.8465C117.924 16.4185 117.479 17.0871 117.15 17.8486C116.823 18.6136 116.658 19.4298 116.658 20.3036C116.658 21.1782 116.823 21.9937 117.15 22.7593C117.479 23.5199 117.924 24.1846 118.488 24.7479C119.05 25.3111 119.715 25.7537 120.481 26.0812C121.246 26.4087 122.065 26.5724 122.94 26.5724C123.815 26.5724 124.605 26.4131 125.312 26.0932C126.018 25.7743 126.632 25.3533 127.153 24.8328L129.575 26.9258ZM169.107 10.8311L178.593 29.7769H175.111L172.967 25.9413H165.272L163.482 29.7769H159.646L169.107 10.8311ZM223.674 19.2823V27.0099C223.103 27.5269 222.464 27.9898 221.758 28.3937C221.152 28.7471 220.421 29.0626 219.563 29.3482C218.705 29.6346 217.746 29.7769 216.686 29.7769C215.441 29.7769 214.252 29.529 213.117 29.0325C211.982 28.5362 210.977 27.8596 210.102 27.002C209.227 26.1437 208.529 25.1388 208.008 23.9864C207.488 22.8348 207.227 21.6027 207.227 20.2916C207.227 19.9511 207.245 19.615 207.283 19.2823H210.469C210.409 19.6109 210.379 19.9469 210.379 20.2916C210.379 21.0814 210.548 21.8556 210.884 22.6118C211.221 23.3691 211.675 24.0456 212.247 24.6432C212.818 25.2409 213.486 25.7194 214.252 26.0812C215.018 26.4431 215.829 26.624 216.686 26.624C217.41 26.624 218.104 26.5314 218.768 26.3461C219.433 26.1609 220.032 25.9003 220.572 25.5642V22.4353H216.686V19.2823H223.674ZM216.686 10.8561C218.184 10.8561 219.508 11.1373 220.66 11.7014C221.812 12.2641 222.818 13.0341 223.674 14.0089C223.674 14.0269 223.549 14.1273 223.296 14.3125C223.044 14.4969 222.765 14.6993 222.464 14.9179C222.111 15.1699 221.698 15.4555 221.229 15.7754C220.706 15.2369 220.041 14.8082 219.235 14.4892C218.427 14.1694 217.578 14.0089 216.686 14.0089V10.8561ZM167.014 22.7389H171.554L169.107 17.8693L167.014 22.7389ZM152.558 10.8561V29.7769H149.404V22.0819H141.356V29.7769H138.203V10.8561H141.356V18.9291H149.404V10.8561H152.558ZM200.39 29.7769H196.882L192.708 22.0571H188.835V29.7769H185.681V18.9034H188.835H191.098H194.797C195.18 18.8871 195.525 18.7859 195.827 18.6007C196.097 18.454 196.336 18.2097 196.555 17.8737C196.774 17.5409 196.882 17.0623 196.882 16.4442C196.882 15.8423 196.774 15.3714 196.555 15.0395C196.336 14.7026 196.097 14.4592 195.827 14.3125C195.525 14.1273 195.18 14.0269 194.797 14.0089H191.098H188.835H185.681V10.8561H194.789C195.764 10.9066 196.639 11.1417 197.412 11.5627C197.732 11.7469 198.052 11.9743 198.372 12.2434C198.691 12.5128 198.973 12.8403 199.216 13.2277C199.46 13.6136 199.658 14.0724 199.81 14.6023C199.961 15.1322 200.037 15.7505 200.037 16.4569C200.037 17.5999 199.851 18.5381 199.481 19.2695C199.111 20.0009 198.695 20.5728 198.232 20.9852C197.77 21.3968 197.333 21.6789 196.92 21.8299C196.509 21.9816 196.26 22.0571 196.176 22.0571L200.39 29.7769ZM244.159 14.0089H231.521V10.8561H244.159V14.0089ZM234.674 18.7267H242.747V21.8804H231.521V18.7267H234.674ZM234.674 26.624H244.159V29.7769H231.521V26.624H234.674Z" fill="white"/>
<path d="M89.4491 10.8561C90.7113 10.8561 91.9092 11.1004 93.0443 11.5875C94.1796 12.0753 95.1845 12.7441 96.0593 13.5932C96.9329 14.4429 97.6275 15.4435 98.1402 16.595C98.653 17.7474 98.9094 18.9875 98.9094 20.3164C98.9094 21.5779 98.666 22.7758 98.1789 23.9117C97.69 25.0462 97.0223 26.052 96.1723 26.9258C95.3226 27.8004 94.3221 28.494 93.1705 29.0077C92.0181 29.5205 90.7772 29.7769 89.4491 29.7769C88.1876 29.7769 86.9856 29.5325 85.8417 29.0454C84.6987 28.5575 83.6938 27.8853 82.8276 27.027C81.9608 26.1694 81.2715 25.1636 80.7587 24.0121C80.2459 22.8596 79.9887 21.6284 79.9887 20.3164C79.9887 19.0379 80.2321 17.8315 80.7201 16.6962C81.208 15.5609 81.8767 14.5645 82.7266 13.7071C83.5755 12.8488 84.576 12.1679 85.7284 11.663C86.88 11.1588 88.1209 10.8895 89.4491 10.8561ZM89.4619 26.624C90.2859 26.624 91.0766 26.4594 91.8414 26.131C92.607 25.8035 93.2759 25.3583 93.8556 24.7865C94.436 24.2136 94.8939 23.5456 95.2387 22.7843C95.5834 22.0193 95.7566 21.203 95.7566 20.3293C95.7566 19.4882 95.5928 18.6889 95.2644 17.9241C94.9369 17.1585 94.49 16.4905 93.919 15.9099C93.347 15.3295 92.6782 14.8716 91.9178 14.5261C91.1519 14.1821 90.3364 14.0089 89.4619 14.0089C88.6207 14.0089 87.8215 14.1736 87.0567 14.5011C86.2952 14.8295 85.6231 15.2746 85.0433 15.8465C84.463 16.4185 84.0051 17.0915 83.6595 17.8607C83.3147 18.6349 83.1433 19.4548 83.1433 20.3293C83.1433 21.1867 83.3061 21.986 83.6345 22.7345C83.962 23.478 84.4081 24.1383 84.9799 24.7101C85.5519 25.2821 86.2206 25.7321 86.9812 26.0684C87.7471 26.4045 88.5711 26.5904 89.4619 26.624ZM75.2709 10.8311V13.9841H68.9642V29.7769H65.8113V13.9841H59.5039V10.8311H65.8113H75.2709ZM51.7626 10.8561V22.7637H48.6089V10.8561H51.7626ZM21.6339 10.8311L31.12 29.7769H27.6379L25.4942 25.9413H17.7993L16.0081 29.7769H12.1735L21.6339 10.8311ZM19.5399 22.7389H24.081L21.6339 17.8693L19.5399 22.7389ZM44.4338 29.7769C43.2781 29.7769 42.2936 29.6293 41.4867 29.3352C40.6841 29.0413 40.0197 28.6631 39.4983 28.1999C38.9761 27.7378 38.5817 27.225 38.3038 26.6609C38.0261 26.0974 37.8237 25.5557 37.6986 25.0343C37.5723 24.513 37.4962 24.0456 37.4712 23.6341C37.4463 23.2225 37.4336 22.9316 37.4336 22.7637V10.8561H40.5873V22.7637C40.5873 22.9481 40.608 23.2679 40.6499 23.7223C40.6918 24.1758 40.8308 24.6432 41.0656 25.1226C41.3016 25.602 41.6849 26.0263 42.2139 26.3968C42.7412 26.7645 43.4811 26.9498 44.4338 26.9507V29.7769Z" fill="white"/>
<path d="M19.5426 60.3094C18.7846 61.0666 17.8602 61.4455 16.7695 61.4455C15.678 61.4455 14.7536 61.0666 13.9965 60.3094C13.2385 59.5523 12.8604 58.6271 12.8604 57.5355C12.8604 56.4448 13.2385 55.5205 13.9965 54.7625C14.7536 54.0053 15.678 53.6263 16.7695 53.6263C17.8602 53.6263 18.7846 54.0053 19.5426 54.7625C20.2997 55.5205 20.6787 56.4448 20.6787 57.5355C20.6787 58.6271 20.2997 59.5523 19.5426 60.3094ZM14.8685 59.4691C15.3821 59.9827 16.0158 60.2391 16.7695 60.2391C17.5232 60.2391 18.1569 59.9827 18.6697 59.4691C19.1833 58.9555 19.4405 58.3115 19.4405 57.5355C19.4405 56.7604 19.1833 56.1156 18.6697 55.6028C18.1569 55.0892 17.5232 54.8328 16.7695 54.8328C16.0158 54.8328 15.3821 55.0892 14.8685 55.6028C14.3549 56.1156 14.0985 56.7604 14.0985 57.5355C14.0985 58.3115 14.3549 58.9555 14.8685 59.4691ZM26.2788 53.7661H27.517V61.3049H26.2788V58.0423H23.0478V61.3049H21.8097V53.7661H23.0478V56.8573H26.2788V53.7661ZM28.4113 61.3049V60.1636C28.8846 60.228 29.2389 60.1139 29.472 59.8189C29.7053 59.5248 29.8219 58.9615 29.8219 58.128V53.7661H34.8733V61.3049H33.6341V54.9511H31.0608V58.1066C31.0608 58.7668 30.9897 59.3233 30.8499 59.7761C30.7103 60.228 30.5112 60.5675 30.2524 60.7939C29.9942 61.0194 29.7154 61.1712 29.418 61.2466C29.1197 61.3212 28.7843 61.3418 28.4113 61.3049ZM41.2913 61.3049L40.7597 59.7872H37.5535L37.0262 61.3049H35.68L38.4162 53.7661H39.9014L42.6264 61.3049H41.2913ZM37.9636 58.6236H40.3523L39.1605 55.2204L37.9636 58.6236ZM44.813 53.0124V52.0006H47.8286V53.0124H44.813ZM47.9581 61.3049V56.1559L44.3807 61.3049H43.4349V53.7661H44.6731V58.8826L48.2272 53.7661H49.1964V61.3049H47.9581ZM55.1736 53.7661H56.4119V61.3049H55.1736V58.0423H51.9427V61.3049H50.7046V53.7661H51.9427V56.8573H55.1736V53.7661ZM57.9202 58.591V57.4712H61.9047V58.591H57.9202ZM67.666 53.7661V54.9511H64.6504V61.3049H63.4121V53.7661H67.666ZM73.1048 61.3049V56.1559L69.5277 61.3049H68.5818V53.7661H69.8201V58.8826L73.3742 53.7661H74.3431V61.3049H73.1048ZM81.3975 53.7661V61.3049H80.1593V54.9511H77.0896V61.3049H75.8514V53.7661H81.3975ZM84.144 60.1208H87.4821V61.3049H82.9058V53.7661H87.4288V54.9511H84.144V56.9113H87.1597V58.0851H84.144V60.1208ZM91.3921 53.7661C92.102 53.7661 92.6962 54.0036 93.1738 54.4778C93.6515 54.9511 93.8899 55.5393 93.8899 56.2433C93.8899 56.9396 93.6515 57.5269 93.1738 58.0046C92.6962 58.4813 92.102 58.7205 91.3921 58.7205H89.852V61.3049H88.6139V53.7661H91.3921ZM91.3921 57.5578C91.7573 57.5578 92.0592 57.4335 92.2967 57.1865C92.5333 56.9387 92.6516 56.624 92.6516 56.2433C92.6516 55.8635 92.5333 55.5488 92.2967 55.301C92.0592 55.054 91.7573 54.9297 91.3921 54.9297H89.852V57.5578H91.3921ZM102.183 53.7661V61.3049H100.945V55.9312L98.6504 59.7221H98.5005L96.2059 55.9201V61.3049H94.9677V53.7661H96.3027L98.5775 57.5355L100.857 53.7661H102.183ZM108.602 61.3049L108.07 59.7872H104.865L104.337 61.3049H102.991L105.726 53.7661H107.212L109.937 61.3049H108.602ZM105.273 58.6236H107.662L106.47 55.2204L105.273 58.6236ZM113.523 53.7661C114.234 53.7661 114.828 54.0036 115.306 54.4778C115.783 54.9511 116.022 55.5393 116.022 56.2433C116.022 56.9396 115.783 57.5269 115.306 58.0046C114.828 58.4813 114.234 58.7205 113.523 58.7205H111.983V61.3049H110.745V53.7661H113.523ZM113.523 57.5578C113.889 57.5578 114.191 57.4335 114.428 57.1865C114.665 56.9387 114.784 56.624 114.784 56.2433C114.784 55.8635 114.665 55.5488 114.428 55.301C114.191 55.054 113.889 54.9297 113.523 54.9297H111.983V57.5578H113.523ZM122.786 61.3049H121.31L118.338 57.7139V61.3049H117.1V53.7661H118.338V57.1497L121.203 53.7661H122.678L119.63 57.4386L122.786 61.3049ZM124.832 60.1208H128.17V61.3049H123.594V53.7661H128.116V54.9511H124.832V56.9113H127.847V58.0851H124.832V60.1208ZM134.202 53.7661V54.9511H132.08V61.3049H130.841V54.9511H128.709V53.7661H134.202ZM141.643 57.3957C142.411 57.7619 142.795 58.369 142.795 59.2162C142.795 59.8764 142.546 60.4132 142.047 60.8265C141.548 61.2389 140.896 61.4455 140.093 61.4455C138.713 61.4455 137.801 60.8633 137.357 59.7006L138.423 59.0867C138.645 59.8833 139.202 60.282 140.093 60.282C140.566 60.282 140.929 60.1799 141.18 59.975C141.431 59.7709 141.557 59.4957 141.557 59.151C141.557 58.814 141.436 58.5422 141.196 58.3381C140.955 58.134 140.617 58.0311 140.178 58.0311H139.263V56.9113H139.931C140.354 56.9113 140.684 56.8144 140.922 56.6206C141.158 56.426 141.277 56.1679 141.277 55.8454C141.277 55.5222 141.17 55.265 140.953 55.0746C140.738 54.8851 140.43 54.7899 140.028 54.7899C139.281 54.7899 138.778 55.1312 138.52 55.8129L137.465 55.1989C137.952 54.1511 138.806 53.6263 140.028 53.6263C140.767 53.6263 141.367 53.8261 141.826 54.224C142.286 54.6227 142.515 55.1415 142.515 55.7803C142.515 56.4911 142.224 57.0296 141.643 57.3957ZM148.783 61.3049L148.251 59.7872H145.046L144.518 61.3049H143.173L145.908 53.7661H147.394L150.118 61.3049H148.783ZM145.455 58.6236H147.844L146.652 55.2204L145.455 58.6236ZM153.705 53.7661C154.416 53.7661 155.01 54.0036 155.487 54.4778C155.965 54.9511 156.204 55.5393 156.204 56.2433C156.204 56.9396 155.965 57.5269 155.487 58.0046C155.01 58.4813 154.416 58.7205 153.705 58.7205H152.165V61.3049H150.927V53.7661H153.705ZM153.705 57.5578C154.071 57.5578 154.373 57.4335 154.609 57.1865C154.847 56.9387 154.965 56.624 154.965 56.2433C154.965 55.8635 154.847 55.5488 154.609 55.301C154.373 55.054 154.071 54.9297 153.705 54.9297H152.165V57.5578H153.705ZM162.202 53.7661V61.3049H160.964V58.5585H159.767L157.948 61.3049H156.548L158.465 58.4513C157.97 58.3004 157.563 58.0148 157.243 57.5947C156.924 57.1745 156.764 56.7064 156.764 56.1901C156.764 55.5145 156.999 54.9425 157.469 54.4718C157.939 54.0019 158.512 53.7661 159.187 53.7661H162.202ZM159.187 57.4498H160.964V54.9297H159.187C158.857 54.9297 158.576 55.0514 158.347 55.2958C158.117 55.5393 158.002 55.8377 158.002 56.1901C158.002 56.5417 158.117 56.8393 158.347 57.0836C158.576 57.328 158.857 57.4498 159.187 57.4498ZM169.364 60.1208H170.172V62.748H168.933V61.3049H164.356V62.748H163.118V60.1208H163.818C164.255 59.5463 164.475 58.6811 164.475 57.5252V53.7661H169.364V60.1208ZM165.174 60.1208H168.126V54.9297H165.714V57.5467C165.714 58.6674 165.534 59.5248 165.174 60.1208ZM175.719 53.7661H176.958V61.3049H175.719V58.0423H172.488V61.3049H171.249V53.7661H172.488V56.8573H175.719V53.7661ZM178.465 61.3049V53.7661H179.703V56.3514H181.243C181.954 56.3514 182.548 56.5897 183.025 57.0673C183.503 57.5449 183.741 58.1323 183.741 58.8286C183.741 59.5248 183.503 60.1122 183.025 60.589C182.548 61.0666 181.954 61.3049 181.243 61.3049H178.465ZM184.474 61.3049V53.7661H185.713V61.3049H184.474ZM179.703 60.1422H181.243C181.609 60.1422 181.911 60.0187 182.148 59.7709C182.385 59.5231 182.503 59.2093 182.503 58.8286C182.503 58.4479 182.385 58.134 182.148 57.8862C181.911 57.6384 181.609 57.5149 181.243 57.5149H179.703V60.1422ZM192.767 61.3049H191.355L189.699 58.5825L188.039 61.3049H186.628L188.995 57.424L186.768 53.7661H188.168L189.697 56.2742L191.227 53.7661H192.637L190.403 57.4301L192.767 61.3049ZM199.939 61.4455C198.805 61.4455 197.864 61.07 197.118 60.3197C196.371 59.5703 195.998 58.6416 195.998 57.5355C195.998 56.4302 196.371 55.5025 197.118 54.7522C197.864 54.0019 198.805 53.6263 199.939 53.6263C200.621 53.6263 201.251 53.7884 201.829 54.1108C202.407 54.4341 202.858 54.8722 203.181 55.4253L202.104 56.0495C201.903 55.6765 201.61 55.3807 201.226 55.1612C200.842 54.9425 200.413 54.8328 199.939 54.8328C199.135 54.8328 198.483 55.0883 197.984 55.5976C197.485 56.107 197.236 56.7526 197.236 57.5355C197.236 58.3184 197.485 58.9641 197.984 59.4751C198.483 59.9844 199.135 60.2391 199.939 60.2391C200.413 60.2391 200.843 60.1302 201.232 59.9107C201.619 59.6921 201.911 59.3954 202.104 59.0224L203.181 59.6354C202.865 60.1894 202.417 60.6284 201.839 60.9551C201.263 61.2818 200.629 61.4455 199.939 61.4455ZM209.05 53.7661V54.9511H206.929V61.3049H205.69V54.9511H203.558V53.7661H209.05ZM214.338 61.3049L213.807 59.7872H210.601L210.074 61.3049H208.727L211.463 53.7661H212.949L215.673 61.3049H214.338ZM211.01 58.6236H213.399L212.208 55.2204L211.01 58.6236ZM220.95 53.7661H222.19V61.3049H220.95V58.0423H217.72V61.3049H216.482V53.7661H217.72V56.8573H220.95V53.7661ZM229.243 60.1208H230.051V62.748H228.813V61.3049H223.698V53.7661H224.936V60.1208H228.005V53.7661H229.243V60.1208ZM235.653 61.3049V56.1559L232.075 61.3049H231.129V53.7661H232.367V58.8826L235.92 53.7661H236.891V61.3049H235.653ZM239.777 53.0124V52.0006H242.791V53.0124H239.777ZM242.921 61.3049V56.1559L239.345 61.3049H238.399V53.7661H239.637V58.8826L243.191 53.7661H244.159V61.3049H242.921Z" fill="white"/>
</svg>
