<svg width="50" height="50" xmlns="http://www.w3.org/2000/svg"><path d="M48.786 22.738l-4.07-2.035 4.07-2.031a.78.78 0 000-1.399L25.35 5.555a.782.782 0 00-.698 0L1.213 17.273a.782.782 0 000 1.399l4.071 2.031-4.071 2.035a.781.781 0 00-.432.7v3.124a.781.781 0 00.432.703l4.071 2.032-4.071 2.031a.78.78 0 000 1.398l23.438 11.72a.781.781 0 00.698 0l23.437-11.72a.782.782 0 000-1.398l-4.07-2.031 4.07-2.032a.782.782 0 00.432-.703v-3.125a.78.78 0 00-.432-.699zM25 7.123L46.69 17.97 25 28.814 3.31 17.969 25 7.123zm-.35 23.267a.781.781 0 00.699 0l17.62-8.814 3.721 1.861L25 34.283 3.31 23.437l3.721-1.86 17.62 8.813zM2.345 24.701L24.217 35.64v1.378L2.343 26.08V24.7zm44.346 7.33L25 42.876 3.31 32.031l3.721-1.86 17.62 8.813a.781.781 0 00.698 0l17.62-8.814 3.721 1.861zm-20.909 4.986V35.64L47.656 24.7v1.379L25.781 37.017z" fill="inherit"/></svg>