<svg width="107" height="106" fill="none" xmlns="http://www.w3.org/2000/svg"><path d="M65.379 24.734a1.766 1.766 0 100-3.533h-3.533a1.766 1.766 0 100 3.533h3.533zM38.88 44.167v10.6c0 .975.79 1.767 1.766 1.767h24.733c.977 0 1.766-.792 1.766-1.767v-10.6c0-7.793-6.34-14.133-14.133-14.133-7.792 0-14.133 6.34-14.133 14.133zM51.245 53h-8.833v-7.066h8.833V53zm0-10.6h-8.674a10.614 10.614 0 018.674-8.674V42.4zm3.533-8.674a10.615 10.615 0 018.674 8.675H54.78v-8.675zm0 12.208h8.833V53H54.78v-7.066zm38.868 56.533h-74.2a1.767 1.767 0 000 3.533h74.2a1.766 1.766 0 100-3.533zm-77.733-84.8h1.766V26.5a1.767 1.767 0 003.534 0V15.9c0-.975-.792-1.766-1.767-1.766h-1.767V10.6h10.6v3.534h-1.766c-.975 0-1.767.791-1.767 1.766v3.534a1.767 1.767 0 003.533 0v-1.767h1.767c.975 0 1.766-.791 1.766-1.766V8.834c0-.975-.791-1.767-1.766-1.767H15.913c-.975 0-1.767.792-1.767 1.767V15.9c0 .976.792 1.767 1.767 1.767zm3.533 81.266h3.534a1.767 1.767 0 000-3.533h-3.534a1.767 1.767 0 000 3.533zM37.113 31.8h-3.534a1.767 1.767 0 000 3.534h3.534a1.767 1.767 0 000-3.534zM12.38 102.467H1.78a1.767 1.767 0 000 3.533h10.6a1.768 1.768 0 000-3.533zm60.066-14.134h10.6a1.766 1.766 0 100-3.533h-10.6a1.766 1.766 0 100 3.533zm14.133-10.599a1.766 1.766 0 100-3.534h-3.534a1.766 1.766 0 100 3.534h3.534zm-51.233 8.833c0-.975-.791-1.767-1.767-1.767h-3.533a1.767 1.767 0 000 3.533h3.533c.975 0 1.767-.791 1.767-1.766zm-14.133-42.4c0 .975.791 1.767 1.766 1.767h10.6a1.767 1.767 0 000-3.534h-10.6c-.975 0-1.766.792-1.766 1.767zm83.032 58.3h-3.533a1.766 1.766 0 100 3.533h3.533a1.767 1.767 0 100-3.533z" fill="#2D8EFF"/><path d="M104.245 54.768a1.764 1.764 0 001.249-3.016L94.896 41.154c-.001-.002-.001-.002-.003-.002l-8.83-8.831-.003-.004L54.26.52a1.765 1.765 0 00-2.498 0l-21.2 21.198v.002L.53 51.752a1.766 1.766 0 102.498 2.498l7.585-7.584v50.501a1.767 1.767 0 003.533 0v-8.833h8.833a1.767 1.767 0 000-3.533h-8.833V67.134h1.767a1.767 1.767 0 000-3.533h-1.767v-7.067h15.9a1.767 1.767 0 000-3.533h-15.9v-9.868l18.398-18.398H44.18a1.767 1.767 0 000-3.533h-8.102L53.013 4.266l27.535 27.535h-4.569a1.766 1.766 0 100 3.534h8.102l7.067 7.066h-8.102a1.766 1.766 0 100 3.533h8.833v7.067h-1.766a1.766 1.766 0 100 3.533h1.766V63.6h-8.833a1.766 1.766 0 100 3.534h8.833V84.8h-1.766a1.766 1.766 0 100 3.533h1.766V95.4H79.513a1.766 1.766 0 100 3.533h14.133c.977 0 1.767-.792 1.767-1.767v-50.5l7.584 7.584a1.76 1.76 0 001.248.518z" fill="#2D8EFF"/><path d="M26.513 77.733h12.366V95.4h-5.3a1.767 1.767 0 000 3.533h7.067c.975 0 1.766-.791 1.766-1.767V67.135h21.2v14.133h-1.766a1.766 1.766 0 100 3.533h1.766v12.367a1.766 1.766 0 103.533 0V77.733h1.767a1.766 1.766 0 100-3.533h-1.767v-8.833c0-.975-.79-1.767-1.766-1.767H40.646c-.975 0-1.767.792-1.767 1.767V74.2H26.513a1.767 1.767 0 000 3.533zm-1.767-12.366c0 .975.792 1.766 1.767 1.766h7.066a1.767 1.767 0 000-3.533h-7.066c-.975 0-1.767.792-1.767 1.767zm47.7 1.766h3.533a1.766 1.766 0 100-3.533h-3.533a1.766 1.766 0 100 3.533zm1.766-12.366c0 .975.79 1.766 1.767 1.766h7.066a1.766 1.766 0 100-3.533H75.98c-.977 0-1.767.792-1.767 1.767zM75.979 42.4h-3.534a1.766 1.766 0 100 3.533h3.534a1.766 1.766 0 100-3.533z" fill="#2D8EFF"/></svg>