<svg width="24" height="24" xmlns="http://www.w3.org/2000/svg"><circle cx="12" cy="12" r="12" fill="inherit"/><path d="M12.265 18.622c-.5.002-.998-.085-1.469-.256-1.687-.618-2.812-1.592-3.344-2.895-.874-2.137.163-4.365.208-4.459a.19.19 0 01.353.03c.152.433.42.815.776 1.105.433-2.174 2.328-3.489 2.413-3.547 1.223-.979.224-2.925.214-2.944a.19.19 0 01.286-.235c3.37 2.734 3.175 5.487 2.903 6.619a1.835 1.835 0 00.687-1.698.189.189 0 01.244-.207c.04.013.076.04.1.075a8.6 8.6 0 01.884 1.82 5.17 5.17 0 01-.888 4.989l-.04.049a4.294 4.294 0 01-3.327 1.554zm-1.338-.611c.428.155.882.234 1.338.232a3.918 3.918 0 003.034-1.416l.038-.047a4.794 4.794 0 00.825-4.625c-.14-.4-.31-.788-.508-1.163-.209 1.138-1.298 1.668-1.31 1.674a.19.19 0 01-.253-.252c.06-.128 1.362-3.046-2.066-6.213.219.758.35 1.944-.6 2.703-.031.022-2.04 1.42-2.315 3.614a.19.19 0 01-.294.132 3.51 3.51 0 01-.978-1.055c-.249.727-.632 2.278-.035 3.735.49 1.198 1.541 2.1 3.123 2.68z" fill="#fff"/><path d="M11.459 18.544a.189.189 0 01-.122-.044c-2.411-2.032-.712-4.631-.695-4.657a.19.19 0 01.346.093c.005.29.109.57.295.793a3.845 3.845 0 011.668-3.717.19.19 0 01.263.25 1.312 1.312 0 00-.152.64c.01.26.092.512.237.727l.076.115c.25.372.522.73.813 1.071.227.274.409.583.538.915.948 1.954-.682 3.495-.697 3.511a.19.19 0 01-.258-.277c.06-.056 1.443-1.374.61-3.078a2.977 2.977 0 00-.484-.83c-.3-.351-.58-.72-.84-1.105l-.075-.115a1.767 1.767 0 01-.3-.925 1.697 1.697 0 01.01-.221c-.544.515-1.342 1.612-.966 3.405a.189.189 0 01-.24.22 1.292 1.292 0 01-.768-.81c-.336.763-.738 2.357.862 3.706a.19.19 0 01-.122.334z" fill="#fff"/></svg>