<svg width="24" height="24" xmlns="http://www.w3.org/2000/svg"><circle cx="12" cy="12" r="12" fill="inherit"/><g clip-path="url(#clip0)" fill="#fff"><path d="M13.113 7.155c-.34-.398-.647-.75-.886-1.045-.011-.023-.034-.034-.045-.046a.29.29 0 00-.41.046c-.238.295-.544.647-.885 1.045C9.388 8.892 7.31 11.3 7.31 13.31c0 1.294.522 2.464 1.374 3.316A4.716 4.716 0 0012 18a4.669 4.669 0 003.316-1.374 4.669 4.669 0 001.374-3.316c0-2.01-2.078-4.418-3.577-6.155zm1.794 9.05A4.095 4.095 0 0112 17.422a4.132 4.132 0 01-2.907-1.204 4.112 4.112 0 01-1.204-2.907c0-1.795 1.999-4.111 3.441-5.78.239-.285.466-.546.67-.796.204.25.432.511.67.784 1.442 1.67 3.441 3.975 3.441 5.78a4.132 4.132 0 01-1.204 2.908z"/><path d="M12.023 15.933c-.704 0-1.34-.284-1.795-.738A2.531 2.531 0 019.49 13.4a.281.281 0 00-.284-.284.281.281 0 00-.284.284c0 .863.352 1.635.909 2.203a3.107 3.107 0 002.192.897.281.281 0 00.284-.284.281.281 0 00-.284-.284z"/></g><defs><clipPath id="clip0"><path fill="#fff" transform="translate(6 6)" d="M0 0h12v12H0z"/></clipPath></defs></svg>