<svg width="24" height="24" xmlns="http://www.w3.org/2000/svg"><circle cx="12" cy="12" r="12" fill="inherit"/><g clip-path="url(#clip0)"><path d="M13.82 15.92a.353.353 0 00-.506 0l-1.306 1.318v-9.48L13.32 9.08a.358.358 0 00.51 0l.194-.197a.363.363 0 00.107-.259.364.364 0 00-.108-.26l-2.259-2.258A.361.361 0 0011.502 6a.363.363 0 00-.267.107L8.977 8.365a.376.376 0 000 .518l.197.197a.378.378 0 00.528 0l1.29-1.28v9.406l-1.296-1.287a.373.373 0 00-.523 0l-.2.197a.376.376 0 000 .518l2.258 2.26a.36.36 0 00.262.106.362.362 0 00.266-.107l2.258-2.258a.376.376 0 000-.518l-.197-.197z" fill="#fff"/></g><defs><clipPath id="clip0"><path fill="#fff" transform="translate(5 6)" d="M0 0h13v13H0z"/></clipPath></defs></svg>