<svg xmlns="http://www.w3.org/2000/svg" width="112" height="55" fill="none" viewBox="0 0 112 55"><path fill="#000" d="M40.197 23.393c.51 0 .995.099 1.455.296.459.197.866.468 1.22.812.353.343.635.748.842 1.214.208.467.311.968.311 1.506 0 .51-.098.995-.296 1.455a4 4 0 0 1-.811 1.22 3.872 3.872 0 0 1-1.215.842 3.66 3.66 0 0 1-1.506.312c-.51 0-.997-.1-1.46-.296a3.877 3.877 0 0 1-1.22-.817 3.97 3.97 0 0 1-.837-1.22 3.636 3.636 0 0 1-.311-1.496c0-.517.098-1.005.296-1.465a3.872 3.872 0 0 1 2.026-2.036 3.968 3.968 0 0 1 1.506-.327Zm.005 6.38c.334 0 .654-.066.963-.199a2.604 2.604 0 0 0 1.375-1.354c.14-.31.209-.64.209-.993 0-.34-.066-.664-.199-.974a2.611 2.611 0 0 0-1.354-1.375c-.31-.139-.64-.21-.994-.21-.34 0-.664.067-.973.2-.308.133-.58.313-.815.545-.235.231-.42.503-.56.815-.14.313-.21.645-.21.998 0 .348.067.67.2.974.133.3.313.568.544.8.232.23.502.413.81.549.31.136.643.211 1.004.225Zm-5.742-6.39v1.276h-2.553v6.39h-1.276v-6.39H28.08v-1.276h6.38Zm-9.514.01v4.819H23.67v-4.819h1.276Zm-12.192-.01 3.839 7.667h-1.41l-.867-1.552h-3.114l-.725 1.552H8.926l3.828-7.667Zm-.847 4.819h1.837l-.99-1.971-.847 1.97ZM21.98 31.05c-.468 0-.867-.06-1.193-.179a2.482 2.482 0 0 1-.805-.46 2.02 2.02 0 0 1-.483-.622 3.267 3.267 0 0 1-.337-1.225 6.904 6.904 0 0 1-.015-.352v-4.819h1.276v4.819c0 .074.008.204.025.388.017.183.073.372.169.566.095.194.25.366.464.516.214.149.513.224.899.224v1.144Z"/><path fill="#000" fill-rule="evenodd" d="M12.216 19H48.35c-.434.26-.847.553-1.234.877H12.216a7.32 7.32 0 0 0-5.183 2.156 7.317 7.317 0 0 0-2.157 5.183c0 2.017.826 3.853 2.157 5.183a7.319 7.319 0 0 0 5.183 2.157h34.9c.386.323.798.616 1.233.877H12.216C7.698 35.432 4 31.734 4 27.215S7.698 19 12.216 19Z" clip-rule="evenodd"/><path fill="#2D8EFF" fill-rule="evenodd" d="M57.878 19h41.906c4.519 0 8.216 3.697 8.216 8.216 0 4.52-3.698 8.216-8.216 8.216H57.878c.106 0 .21-.003.314-.007h-3.006a8.183 8.183 0 0 1-5.797-2.412 8.183 8.183 0 0 1-2.412-5.797c0-2.256.924-4.309 2.412-5.797a8.184 8.184 0 0 1 5.797-2.411h3.006a9.018 9.018 0 0 0-.314-.008Z" clip-rule="evenodd"/><path fill="#fff" d="M56.435 29.896c-.36.354-.772.631-1.235.832a3.601 3.601 0 0 1-2.885 0 4.034 4.034 0 0 1-2.067-2.037 3.528 3.528 0 0 1-.316-1.48c0-.497.1-.975.3-1.434a4.042 4.042 0 0 1 2.038-2.068c.463-.21.956-.316 1.48-.316.504 0 .987.1 1.45.303.463.202.874.483 1.235.839l-.847.849a4.454 4.454 0 0 0-.863-.516c-.296-.133-.62-.2-.975-.2-.354 0-.686.067-.995.2a2.5 2.5 0 0 0-.807.545 2.614 2.614 0 0 0-.54.81c-.133.31-.2.64-.2.993a2.552 2.552 0 0 0 .74 1.798 2.537 2.537 0 0 0 1.802.739 2.3 2.3 0 0 0 .96-.194c.285-.129.534-.3.745-.51l.98.847Zm15.997-6.513 3.839 7.667h-1.41l-.867-1.552h-3.113l-.725 1.552h-1.552l3.828-7.667Zm22.083 3.42v3.127a4.454 4.454 0 0 1-1.665.946 3.66 3.66 0 0 1-1.163.174c-.504 0-.986-.1-1.445-.302a4.003 4.003 0 0 1-2.067-2.042 3.583 3.583 0 0 1-.317-1.495c0-.137.008-.273.023-.408h1.29a2.276 2.276 0 0 0 .167 1.347c.136.307.32.58.551.822.232.242.502.436.812.582.31.147.639.22.986.22.293 0 .573-.038.842-.113.269-.075.512-.18.73-.316v-1.266h-1.573v-1.276h2.829Zm-2.829-3.41c.606 0 1.142.114 1.608.342.467.228.874.54 1.22.934a.924.924 0 0 1-.153.123 28.339 28.339 0 0 1-.837.592 2.26 2.26 0 0 0-.806-.52 2.777 2.777 0 0 0-1.032-.195v-1.276Zm-20.101 4.809h1.838l-.99-1.971-.848 1.97Zm-5.85-4.809v7.657H64.46v-3.114h-3.256v3.114h-1.277v-7.657h1.277v3.267h3.256v-3.267h1.276Zm19.357 7.657h-1.42l-1.69-3.124h-1.566v3.124H79.14v-4.4h3.688a.855.855 0 0 0 .711-.417c.09-.135.133-.329.133-.579 0-.243-.044-.434-.133-.568a.864.864 0 0 0-.711-.417H79.14v-1.276h3.685c.395.02.749.116 1.062.286.13.075.258.167.388.275.13.11.243.242.342.399.099.156.179.341.24.556.061.214.092.465.092.75 0 .463-.075.843-.225 1.139-.15.296-.318.527-.505.694-.188.166-.365.28-.531.342a1.459 1.459 0 0 1-.302.092l1.706 3.124Zm17.711-6.381H97.69v-1.276h5.113v1.276Zm-3.838 1.909h3.267v1.276H97.69v-1.276h1.275Zm0 3.196h3.838v1.276H97.69v-1.276h1.275Z"/></svg>