<svg xmlns="http://www.w3.org/2000/svg" width="263" height="263" fill="none" viewBox="0 0 263 263"><g clip-path="url(#clip0_12672_1573)"><path fill="#161616" d="M189.145 139.886H168.67c-1.209 0-1.728-.373-1.728-1.554v-20.916c0-.855-.327-.903-.967-.903h-6.829c-.689 0-.919 0-.919.903v20.193c0 6.723 2.418 8.904 8.981 8.904h22.034c.809 0 .809-.265.809-.952v-4.687c0-.674 0-.988-.906-.988Zm-37.396-23.373h-22.058c-6.043 0-9.669 1.915-9.669 8.229v13.554c0 6.313 3.626 8.217 9.741 8.217h21.986c.87 0 .822-.265.822-.904v-4.687c0-.638 0-.903-.822-.903h-21.611c-.967 0-1.462-.362-1.462-1.325v-4.109h22.481c.87 0 .822-.277.822-.904v-4.626c0-.675 0-.904-.822-.904h-22.481v-3.819c0-.952.495-1.313 1.462-1.313h21.611c.87 0 .822-.277.822-.952v-4.651c0-.626.084-.903-.822-.903Zm-37.481 0H92.222c-6.043 0-9.753 1.915-9.753 8.229v13.554c0 6.313 3.734 8.217 9.753 8.217h22.046c.858 0 .858-.265.858-.904v-4.687c0-.638 0-.903-.858-.903H92.694c-.955 0-1.463-.362-1.463-1.325v-4.109h22.433c.87 0 .87-.277.87-.904v-4.626c0-.675 0-.904-.87-.904H91.231v-3.819c0-.952.508-1.313 1.463-1.313h21.574c.858 0 .858-.277.858-.952v-4.651c.061-.626.061-.903-.858-.903Zm-38.314 0H50.052c-6.116 0-9.802 1.915-9.802 8.229v13.554c0 6.313 3.686 8.217 9.802 8.217h25.902c.87 0 .822-.265.822-.904v-16.554c0-.675 0-.904-.822-.904H54.56c-.859 0-.81.229-.81.904v4.651c0 .626 0 .903.81.903h13.488v5.41H50.415c-.919 0-1.45-.362-1.45-1.325v-14.362c0-.952.531-1.313 1.45-1.313h25.539c.87 0 .822-.277.822-.952v-4.651c0-.626.048-.903-.822-.903Zm145.668 0h-7.893a3.068 3.068 0 0 0-2.562 1l-10.878 11.867-10.818-11.867a3.186 3.186 0 0 0-2.611-1h-7.88c-.629 0-.919.325-.133 1.132l17.09 18.735v9.277c0 .856.278.856.967.856h6.829c.641 0 .919 0 .919-.856v-9.277l17.139-18.735c.737-.807.507-1.132-.169-1.132Z"/></g><defs><clipPath id="clip0_12672_1573"><path fill="#fff" d="M0 0h262.5v262.5H0z"/></clipPath></defs></svg>