<svg xmlns="http://www.w3.org/2000/svg" width="112" height="55" fill="none" viewBox="0 0 112 55"><path fill="#004179" d="M18.405 22.513a.269.269 0 0 0-.27-.266h-1.94c-.15 0-.27.12-.27.266v3.741H11.79v2.453h4.133v3.745c0 .147.121.266.27.266h1.94a.27.27 0 0 0 .27-.266"/><path fill="#00AB4E" d="M11.79 26.255H9.309v-3.028c0-.678.555-1.227 1.24-1.227.686 0 1.24.549 1.24 1.227v.002"/><path fill="#00ADEE" d="M11.79 28.707H9.31v3.745c0 .147.122.266.27.266h1.94c.15 0 .272-.12.272-.266"/><path fill="#004179" d="M64.4 30.633a.269.269 0 0 0-.271-.267h-4.7v-7.853a.27.27 0 0 0-.269-.267h-1.94a.27.27 0 0 0-.271.267v9.938a.27.27 0 0 0 .27.267h6.91a.27.27 0 0 0 .271-.267M42.41 27.512c0 1.78-1.223 2.975-3.043 2.975H37.69v-6.011h1.676c1.768 0 3.042 1.147 3.042 3.036Zm-2.819-5.266h-4.11a.27.27 0 0 0-.27.266v9.94a.27.27 0 0 0 .27.266h4.035c3.26 0 5.478-2.202 5.478-5.236 0-3.11-2.199-5.236-5.403-5.236ZM33.215 22.513a.27.27 0 0 0-.27-.267h-1.94a.27.27 0 0 0-.27.267v9.938a.27.27 0 0 0 .27.267h1.94a.27.27 0 0 0 .27-.267M28.543 22.246h-7.944a.27.27 0 0 0-.27.268v1.843a.27.27 0 0 0 .27.266h7.944a.27.27 0 0 0 .27-.267v-1.842a.27.27 0 0 0-.27-.268ZM28.543 26.294h-7.944a.27.27 0 0 0-.27.267v1.843a.27.27 0 0 0 .27.267h7.944a.27.27 0 0 0 .27-.267V26.56a.27.27 0 0 0-.27-.267ZM28.813 30.608a.27.27 0 0 0-.271-.267h-7.943a.27.27 0 0 0-.27.267v1.843a.27.27 0 0 0 .27.267h7.943a.27.27 0 0 0 .27-.267M54.767 22.246h-7.943a.27.27 0 0 0-.27.268v1.843a.27.27 0 0 0 .27.266h7.943a.27.27 0 0 0 .27-.267v-1.842a.27.27 0 0 0-.27-.268ZM54.767 26.294h-7.943a.27.27 0 0 0-.27.267v1.843a.27.27 0 0 0 .27.267h7.943a.27.27 0 0 0 .27-.267V26.56a.27.27 0 0 0-.27-.267ZM55.037 30.608a.27.27 0 0 0-.27-.267h-7.943a.27.27 0 0 0-.27.267v1.843a.27.27 0 0 0 .27.267h7.943c.148 0 .27-.12.27-.267M71.42 30.527h-3.01V28.45h3.01c.778 0 1.18.536 1.18 1.039 0 .503-.421 1.04-1.18 1.04Zm-3.008-6.108h2.645c.647 0 1.107.449 1.107.99 0 .544-.448.993-1.107.993h-2.645v-1.983Zm4.98 2.812c.84-.522 1.249-1.244 1.249-2.202 0-1.341-1.046-2.783-3.531-2.783h-4.8a.27.27 0 0 0-.27.267v9.939a.27.27 0 0 0 .27.267h5.251c1.908 0 3.57-1.09 3.57-2.944 0-1.152-.477-2.018-1.739-2.544ZM106.999 26.773a.27.27 0 0 0-.271-.267h-4.399c-.15 0-.271.12-.271.267v1.61a.27.27 0 0 0 .271.268h2.26v1.438c-.445.34-1.261.572-2.063.572-1.773 0-3.156-1.333-3.156-3.17 0-1.804 1.441-3.142 2.993-3.142.964 0 1.723.175 2.539.839.038.03.101.081.188.081.072 0 .141-.036.202-.106l1.17-1.48a.26.26 0 0 0 .07-.193.299.299 0 0 0-.115-.192c-1.166-.933-2.297-1.227-3.981-1.227-3.044 0-5.558 2.299-5.558 5.45 0 3.125 2.31 5.387 5.574 5.387 2.352 0 3.847-1.111 4.257-1.446a.789.789 0 0 0 .29-.641M85.098 22.513a.27.27 0 0 0-.27-.267h-7.944a.27.27 0 0 0-.27.267v1.843a.27.27 0 0 0 .27.267h7.944a.27.27 0 0 0 .27-.267M85.098 26.56a.27.27 0 0 0-.27-.266h-7.944a.27.27 0 0 0-.27.266v1.844a.27.27 0 0 0 .27.267h7.944a.27.27 0 0 0 .27-.267M85.098 30.608a.27.27 0 0 0-.27-.267h-7.944a.27.27 0 0 0-.27.267v1.843a.27.27 0 0 0 .27.267h7.944c.148 0 .27-.12.27-.267M89.5 24.422h2.753c.645 0 1.084.553 1.084 1.096 0 .542-.427 1.072-1.084 1.072H89.5v-2.168Zm6.636 8.296c.09 0 .172-.05.213-.128a.232.232 0 0 0-.018-.244l-2.74-3.835c1.37-.498 2.104-1.575 2.104-2.957 0-1.328-.814-3.308-3.336-3.308h-5.07c-.148 0-.27.12-.27.267v9.938a.27.27 0 0 0 .27.267h1.941a.27.27 0 0 0 .27-.267v-3.786h1.34l2.62 3.773c.123.175.323.28.538.28"/><path fill="#002F2E" d="M9.309 28.706h2.482v-2.45H9.309v2.45Z"/><path fill="#FFC507" d="M9.307 26.255v2.45l-3.066.001C5.555 28.706 5 28.16 5 27.48c0-.677.555-1.225 1.24-1.225h.003"/></svg>