<svg xmlns="http://www.w3.org/2000/svg" width="263" height="263" fill="none" viewBox="0 0 263 263"><g clip-path="url(#clip0_12672_1558)"><path fill="#161616" fill-rule="evenodd" d="m172.6 103 14.586 26.513h-45.064L127.605 103H172.6Zm-42.723 30.863c-5.16 0-10.526-.483-13.828-3.314-2.753-2.14-4.267-4.626-5.849-7.456-.344-.562-4.317-7.813-7.382-13.408l-.001-.003c-1.838-3.354-3.35-6.112-3.556-6.475H57.5c1.5 2.751 3.001 5.514 4.503 8.28 3.664 6.744 7.337 13.508 11.045 20.167 4.54 8.285 8.875 16.019 16.787 21.68 3.785 2.83 7.774 4.695 12.453 5.869 4.61 1.105 9.288 1.243 14.035 1.243h37.152l-14.585-26.583h-9.013Zm14.655-.069 14.586 26.652h44.994l-14.655-26.652h-44.925Z" clip-rule="evenodd"/></g><defs><clipPath id="clip0_12672_1558"><path fill="#fff" d="M0 0h262.5v262.5H0z"/></clipPath></defs></svg>