<svg xmlns="http://www.w3.org/2000/svg" width="263" height="263" fill="none" viewBox="0 0 263 263"><g clip-path="url(#clip0_12672_1582)"><path fill="#161616" d="M176.763 85.516C165.914 74.708 150.314 73.5 131.25 73.5c-19.088 0-34.712 1.222-45.557 12.059C74.85 96.39 73.75 111.99 73.75 131.056c0 19.069 1.1 34.672 11.948 45.509 10.844 10.838 26.466 11.935 45.552 11.935s34.705-1.097 45.55-11.935c10.847-10.839 11.95-26.44 11.95-45.509 0-19.091-1.115-34.706-11.987-45.54Z"/><path fill="#fff" d="M164.617 109.124a.72.72 0 0 1 .724.71v42.538a.72.72 0 0 1-.724.705h-9.321c-.4 0-.725-.32-.725-.705v-42.538c0-.391.325-.71.725-.71h9.321Zm-40.448 0c7.031 0 14.383.322 18.009 3.951 3.564 3.57 3.951 10.68 3.965 17.583v21.714a.717.717 0 0 1-.723.705h-9.319a.719.719 0 0 1-.725-.705v-22.087c-.01-3.856-.231-7.819-2.22-9.814-1.711-1.716-4.905-2.109-8.226-2.19h-16.893a.716.716 0 0 0-.721.704v33.387a.72.72 0 0 1-.727.705h-9.325a.714.714 0 0 1-.719-.705v-42.538c0-.391.32-.71.72-.71h26.904Zm2.086 16.942c.397 0 .719.317.719.706v25.6a.715.715 0 0 1-.719.705h-9.789a.716.716 0 0 1-.725-.705v-25.6c0-.389.322-.706.725-.706h9.789Z"/></g><defs><clipPath id="clip0_12672_1582"><path fill="#fff" d="M0 0h262.5v262.5H0z"/></clipPath></defs></svg>