<svg width="130" height="130" fill="none" xmlns="http://www.w3.org/2000/svg"><circle cx="65" cy="65" r="65" fill="#2D8EFF"/><path fill-rule="evenodd" clip-rule="evenodd" d="M33.715 47c0-1.596-.003-3.191.006-4.787.018-3.597-4.721-3.085-4.721-.276v11.954C29 54.838 30.047 56 31.635 56h10.262c3.157 0 3.438-4.664.137-4.92-1.434-.112-3.364-.002-4.852-.002.42-1.827 4.465-6.85 5.442-7.84 2.874-2.912 4.061-3.652 7.513-5.741.713-.432 1.424-.711 2.164-1.04 14.203-6.315 30.711-.78 38.54 12.377 1.803 3.03 2.992 6.192 3.781 9.666 2.359 10.38-1.505 21.568-8.177 28.332-9.387 9.517-23.703 12.038-35.535 6.012-2.99-1.522-3.764-2.246-6.103-4.077-1.415-1.108-2.166-2.126-3.155-3.128-.358-.362-.553-.665-.896-1.06-3.578-4.127-6.024-10.575-6.65-16.179-.132-1.177-.127-2.538-.264-3.81-.292-2.7-4.703-2.679-4.703.27 0 5.995 1.116 10.99 3.374 15.562 2.083 4.219 3.743 6.773 7.13 10.207 3.2 3.245 6.102 5.08 10.064 7.091.51.26.93.413 1.46.628.507.205 1 .427 1.596.632A36.59 36.59 0 0064.442 101h.541c10.155-.085 19.835-4.534 26.655-12.698 1.43-1.711 2.415-3.19 3.552-5.117.57-.967.99-1.866 1.482-2.856C98.296 77.067 100 71.166 100 66.266v-2.672c0-4.863-1.721-10.673-3.328-13.922a68.778 68.778 0 00-1.43-2.77c-1.465-2.664-3.534-5.287-5.608-7.39-1.443-1.464-2.871-2.747-4.583-3.93-1.577-1.09-2.2-1.543-3.958-2.456-4.775-2.477-9.806-3.882-14.93-4.126h-3.224c-3.208.152-6.439.76-9.654 1.846-7.606 2.57-14.867 8.19-18.92 15.266-.216.377-.342.66-.65.888zm18.998 15.469c.753.204 8.677 5.983 9.43 6.187v8.578c-.795-.426-1.611-1.042-2.358-1.546l-7.072-4.782V62.47zM71.295 65c1.007 0 1.933-.092 2.501-1.402.932-2.145-1.031-3.136-2.224-3.942-1.386-.937-9.557-6.351-9.845-6.75.708-.192 2.317-1.687 2.773-1.687.288 0 8.04 5.342 8.958 5.962.48.325 2.83 1.714 2.83 2.194v11.25c0 .568-4.143 3.082-4.577 3.375l-4.853 3.234c0-1.82.248-9.848-.154-10.813-.457-1.097-5.227-3.98-6.225-4.655l-6.49-4.388-1.581-1.069c-1.049-.71-2.314-1.644-3.796-.25-.498.469-.753 1.138-.753 2.05v13.782c0 1.334.444 1.84 1.225 2.414l12.975 8.78c2.93 1.98 2.767 1.428 7.045-1.463 3.028-2.047 8.067-5.303 10.812-7.317.78-.574 1.225-1.08 1.225-2.414V58.109c0-2.067-1.411-2.547-3.384-3.88l-8.653-5.85c-5.027-3.4-4.107-3.45-8.21-.676l-3.41 2.306c-1.087.735-2.486 1.427-2.488 3.038-.001.74.383 1.444.88 1.855l11.813 7.989c.619.418 2.88 2.109 3.606 2.109z" fill="#fff"/></svg>