<svg width="128" height="128" fill="none" xmlns="http://www.w3.org/2000/svg"><g clip-path="url(#clip0)"><path d="M78.933 74.667h-2.346a2.1 2.1 0 01-1.976-1.379 34.77 34.77 0 00-.84-2.011 2.104 2.104 0 01.426-2.381l1.673-1.675a6.415 6.415 0 00-.01-9.043l-6.03-6.029a6.415 6.415 0 00-9.045 0l-1.672 1.67a2.112 2.112 0 01-2.381.427 45.87 45.87 0 00-2.014-.853 2.097 2.097 0 01-1.385-1.98v-2.346a6.4 6.4 0 00-6.4-6.4H38.4a6.4 6.4 0 00-6.4 6.4v2.346a2.1 2.1 0 01-1.378 1.976c-.683.26-1.35.54-2.012.84a2.11 2.11 0 01-2.38-.426l-1.675-1.673a6.415 6.415 0 00-9.043 0l-6.03 6.048a6.415 6.415 0 000 9.046l1.671 1.672c.63.624.8 1.576.427 2.38-.301.662-.58 1.33-.843 2.015a2.097 2.097 0 01-1.99 1.376H6.4a6.4 6.4 0 00-6.4 6.4V89.6A6.4 6.4 0 006.4 96h2.347a2.1 2.1 0 011.975 1.378c.26.683.54 1.35.84 2.012a2.104 2.104 0 01-.426 2.381l-1.673 1.674a6.416 6.416 0 000 9.044l6.03 6.028a6.414 6.414 0 009.045 0l1.672-1.67a2.112 2.112 0 012.38-.427c.662.301 1.33.581 2.015.854A2.096 2.096 0 0132 119.253v2.347a6.4 6.4 0 006.4 6.4h8.533a6.4 6.4 0 006.4-6.4v-2.347a2.1 2.1 0 011.379-1.975c.682-.26 1.35-.54 2.011-.841a2.11 2.11 0 012.381.427l1.675 1.673a6.418 6.418 0 009.043-.011l6.029-6.029a6.415 6.415 0 000-9.045l-1.67-1.673a2.103 2.103 0 01-.427-2.38c.3-.662.58-1.33.853-2.014A2.097 2.097 0 0176.587 96h2.346a6.4 6.4 0 006.4-6.4v-8.533a6.4 6.4 0 00-6.4-6.4zM81.067 89.6a2.133 2.133 0 01-2.134 2.133h-2.346a6.422 6.422 0 00-5.974 4.126c-.226.598-.47 1.186-.734 1.765a6.419 6.419 0 001.28 7.159l1.669 1.67c.833.833.834 2.184.001 3.017l-.001.002-6.03 6.029a2.133 2.133 0 01-3.016 0l-1.672-1.671a6.415 6.415 0 00-7.16-1.28c-.578.263-1.167.508-1.76.734a6.42 6.42 0 00-4.123 5.969v2.347a2.133 2.133 0 01-2.134 2.133H38.4a2.133 2.133 0 01-2.133-2.133v-2.347a6.421 6.421 0 00-4.126-5.973 29.557 29.557 0 01-1.764-.734 6.422 6.422 0 00-7.16 1.28l-1.67 1.668a2.133 2.133 0 01-3.017.002l-.002-.002-6.029-6.022a2.134 2.134 0 010-3.017l1.67-1.672a6.419 6.419 0 001.28-7.16 31 31 0 01-.733-1.76 6.42 6.42 0 00-5.97-4.13H6.4A2.133 2.133 0 014.267 89.6v-8.533c0-1.178.955-2.134 2.133-2.134h2.347a6.421 6.421 0 005.973-4.126c.226-.597.47-1.185.734-1.764a6.42 6.42 0 00-1.28-7.16l-1.677-1.67a2.133 2.133 0 010-3.018l6.029-6.03a2.133 2.133 0 013.016 0l1.673 1.671a6.413 6.413 0 007.16 1.28 30.867 30.867 0 011.76-.734 6.42 6.42 0 004.132-5.969v-2.346c0-1.178.955-2.134 2.133-2.134h8.533c1.178 0 2.134.956 2.134 2.134v2.346a6.422 6.422 0 004.126 5.974c.597.226 1.185.47 1.764.733a6.413 6.413 0 007.16-1.28l1.67-1.668a2.146 2.146 0 013.018 0l6.03 6.03a2.133 2.133 0 010 3.016l-1.671 1.672a6.42 6.42 0 00-1.28 7.16c.262.578.507 1.166.734 1.76a6.42 6.42 0 005.969 4.123h2.346c1.178 0 2.134.955 2.134 2.134V89.6z" fill="#2D8EFF"/><path d="M61.824 84.48a19.28 19.28 0 00-.382-3.149c-.075-.347-.173-.691-.267-1.037-.119-.44-.253-.872-.403-1.299-.104-.296-.213-.59-.324-.883a19.015 19.015 0 00-.94-1.997c-.029-.049-.046-.102-.073-.151a18.924 18.924 0 00-1.92-2.797c-.062-.077-.133-.15-.197-.224a17.877 17.877 0 00-.915-1.007c-.166-.173-.341-.335-.516-.501a31.54 31.54 0 00-.64-.583 20.162 20.162 0 00-.792-.653l-.35-.26a19.065 19.065 0 00-11.438-3.806c-.214 0-.427.032-.64.04a18.595 18.595 0 00-2.095.174 19.35 19.35 0 00-2.068.386c-10.272 2.654-16.447 13.134-13.793 23.406a19.211 19.211 0 0013.808 13.797c.035 0 .07.011.107.019.737.184 1.483.327 2.236.427.497.062.994.075 1.493.098.333.017.64.066.988.066.608 0 1.24-.04 1.884-.104.068 0 .136-.02.213-.028a18.944 18.944 0 001.579-.241c.213-.041.411-.094.616-.141a19.81 19.81 0 001.133-.292c.299-.09.589-.194.881-.297.292-.102.595-.213.898-.328.303-.116.557-.248.832-.376.359-.164.715-.326 1.067-.518h.013a25.257 25.257 0 005.467-3.949 6.714 6.714 0 001.144-1.4 22.772 22.772 0 003.358-10.011c.03-.386.05-.77.06-1.154 0-.122.017-.237.017-.359.002-.3-.028-.578-.041-.868zm-4.252 1.397c0 .177-.015.355-.025.53a16.804 16.804 0 01-.192 1.55 14.965 14.965 0 01-7.497 10.454 16.66 16.66 0 01-.785.388l-.177.085a15.42 15.42 0 01-3.891 1.178c-.094.015-.19.032-.286.045-.267.038-.53.07-.79.094-.343.029-.689.046-1.04.053h-.446a14.948 14.948 0 01-1.51-.094l-.257-.03a15.843 15.843 0 01-1.743-.328c-7.99-2.046-12.809-10.18-10.764-18.17a14.933 14.933 0 0110.75-10.76v-.003a15.451 15.451 0 013.748-.469c.61.003 1.219.045 1.824.124.162.019.322.049.482.072.46.073.917.164 1.367.28.147.038.295.072.44.113a15.02 15.02 0 013.253 1.37c.164.095.324.196.486.296.337.213.664.427.986.67.173.126.348.25.514.384.419.334.82.69 1.201 1.066.152.154.29.323.438.483.245.266.484.54.712.827.158.199.31.404.459.61.213.308.426.628.618.952l.323.531c.275.507.52 1.029.733 1.564.086.213.158.426.235.64.139.392.258.79.363 1.19.053.214.113.403.158.61.124.577.215 1.16.27 1.748.013.155.013.313.024.469.03.49.038.983.02 1.478z" fill="#2D8EFF"/><path d="M121.6 44.8h-6.709a2.084 2.084 0 01-1.989-1.4 44.423 44.423 0 00-2.395-5.783 2.087 2.087 0 01.409-2.408l4.758-4.764a6.4 6.4 0 000-9.048l-9.071-9.056a6.4 6.4 0 00-9.048 0L92.8 17.094c-.63.64-1.6.807-2.406.412a44.315 44.315 0 00-5.786-2.408 2.082 2.082 0 01-1.408-1.989V6.4A6.4 6.4 0 0076.8 0H64a6.4 6.4 0 00-6.4 6.4v6.71a2.082 2.082 0 01-1.4 1.988 44.462 44.462 0 00-5.783 2.406 2.084 2.084 0 01-2.409-.41l-4.763-4.757a6.413 6.413 0 00-9.048 0l-9.054 9.054a6.4 6.4 0 000 9.05l6.996 7.008a2.133 2.133 0 003.02-3.013L28.16 27.43a2.133 2.133 0 010-3.016l9.054-9.054a2.133 2.133 0 013.016 0l4.766 4.757a6.342 6.342 0 007.33 1.203 40.365 40.365 0 015.23-2.173 6.347 6.347 0 004.31-6.038V6.4c0-1.178.956-2.133 2.134-2.133h12.8c1.178 0 2.133.955 2.133 2.133v6.71a6.344 6.344 0 004.312 6.035 40.248 40.248 0 015.23 2.175 6.358 6.358 0 007.329-1.205l4.766-4.755a2.133 2.133 0 013.016 0l9.054 9.056a2.134 2.134 0 010 3.014l-4.757 4.766a6.35 6.35 0 00-1.204 7.33 40.199 40.199 0 012.174 5.23 6.345 6.345 0 006.038 4.31h6.709c1.178 0 2.133.956 2.133 2.134V64a2.133 2.133 0 01-2.133 2.133h-6.709a6.345 6.345 0 00-6.036 4.312 40.081 40.081 0 01-2.176 5.23 6.351 6.351 0 001.206 7.329l4.757 4.766a2.133 2.133 0 010 3.016l-9.058 9.054a2.134 2.134 0 01-3.014 0l-7.01-6.995a2.133 2.133 0 10-3.013 3.02l7.008 6.996a6.4 6.4 0 009.048 0l9.054-9.052a6.4 6.4 0 000-9.05L110.906 80a2.09 2.09 0 01-.412-2.406 44.326 44.326 0 002.408-5.786 2.083 2.083 0 011.989-1.408h6.709A6.4 6.4 0 00128 64V51.2a6.4 6.4 0 00-6.4-6.4z" fill="#443F48"/><path d="M90.01 37.99c-10.837-10.814-28.383-10.814-39.22 0a2.133 2.133 0 003.017 3.017c9.103-9.226 23.96-9.325 33.186-.222 9.226 9.102 9.325 23.96.223 33.186l-.223.222a2.133 2.133 0 103.017 3.017c10.814-10.837 10.814-28.383 0-39.22z" fill="#443F48"/></g><defs><clipPath id="clip0"><path fill="#fff" d="M0 0h128v128H0z"/></clipPath></defs></svg>