<svg width="263" height="263" viewBox="0 0 263 263" fill="none" xmlns="http://www.w3.org/2000/svg">
<g clip-path="url(#clip0_12672_1582)">
<path d="M176.763 85.5157C165.914 74.7079 150.314 73.5 131.25 73.5C112.162 73.5 96.5384 74.7219 85.6934 85.5588C74.8499 96.3912 73.75 111.99 73.75 131.056C73.75 150.125 74.8499 165.728 85.6979 176.565C96.5422 187.403 112.164 188.5 131.25 188.5C150.336 188.5 165.955 187.403 176.8 176.565C187.647 165.726 188.75 150.125 188.75 131.056C188.75 111.965 187.635 96.3499 176.763 85.5157Z" fill="#161616"/>
<path d="M164.617 109.124C165.012 109.124 165.341 109.442 165.341 109.834V152.372C165.341 152.757 165.012 153.077 164.617 153.077H155.296C154.896 153.077 154.571 152.757 154.571 152.372V109.834C154.571 109.443 154.896 109.124 155.296 109.124H164.617ZM124.169 109.124C131.2 109.124 138.552 109.446 142.178 113.075C145.742 116.645 146.129 123.755 146.143 130.658V152.372C146.143 152.757 145.819 153.077 145.42 153.077H136.101C135.702 153.077 135.376 152.757 135.376 152.372V130.285C135.366 126.429 135.145 122.466 133.156 120.471C131.445 118.755 128.251 118.362 124.93 118.281H108.037C107.641 118.281 107.316 118.599 107.316 118.985V152.372C107.316 152.757 106.988 153.077 106.589 153.077H97.2644C96.8659 153.077 96.5454 152.757 96.5454 152.372V109.834C96.5454 109.443 96.8657 109.124 97.2644 109.124H124.169ZM126.255 126.066C126.652 126.066 126.974 126.383 126.974 126.772V152.372C126.974 152.757 126.652 153.077 126.255 153.077H116.466C116.063 153.077 115.741 152.757 115.741 152.372V126.772C115.741 126.383 116.063 126.066 116.466 126.066H126.255Z" fill="white"/>
</g>
<defs>
<clipPath id="clip0_12672_1582">
<rect width="262.5" height="262.5" fill="white"/>
</clipPath>
</defs>
</svg>
