<svg width="24" height="24" xmlns="http://www.w3.org/2000/svg"><circle cx="12" cy="12" r="12" fill="inherit"/><g clip-path="url(#clip0)"><path d="M14.92 10.18a.353.353 0 000 .506l1.318 1.306h-9.48L8.08 10.68a.358.358 0 000-.51l-.197-.194a.363.363 0 00-.259-.107.364.364 0 00-.26.108l-2.258 2.259a.361.361 0 00-.107.262.363.363 0 00.107.267l2.258 2.258c.138.138.38.138.518 0l.197-.197a.378.378 0 000-.528l-1.28-1.29h9.406l-1.287 1.296a.373.373 0 000 .523l.197.2c.138.138.38.139.518 0l2.26-2.258a.36.36 0 00.106-.262.363.363 0 00-.107-.266l-2.258-2.258a.376.376 0 00-.518 0l-.197.197z" fill="#fff"/></g><defs><clipPath id="clip0"><path fill="#fff" transform="rotate(-90 12 7)" d="M0 0h13v13H0z"/></clipPath></defs></svg>