<svg width="35" height="35"><path fill-rule="evenodd" clip-rule="evenodd" d="M0 7.93v25.498C0 34.318.683 35 1.572 35H27.07c.903 0 1.572-.757 1.572-1.504V17.5c0-.96-.76-1.614-1.63-1.597-.93.018-1.582.732-1.582 1.665v14.219H3.213V9.57h14.219c2.232 0 2.167-3.213.068-3.213H1.504c-.397 0-.834.244-1.047.458A1.542 1.542 0 000 7.93zm19.072-6.426c0 .918.61 1.544 1.392 1.684.485.087 8.121.025 8.999.025L13.518 19.192c-.522.519-.803.807-.803 1.59 0 .882 1.34 2.468 3.059.734L31.787 5.537c0 .9-.056 8.438.015 8.94C32.1 16.576 35 16.234 35 14.424V1.572C35 .682 34.317 0 33.428 0H20.576c-.764 0-1.504.746-1.504 1.504z" fill="inherit"/></svg>