<svg width="97" height="97" xmlns="http://www.w3.org/2000/svg"><circle cx="48.5" cy="48.5" r="48.5" fill="inherit"/><path d="M53.625 73.358a17.603 17.603 0 003.5-.477v-1.716a20.252 20.252 0 01-3.5.442v1.75zm-5.25-3.976a17.67 17.67 0 003.5.475v-1.75a20.252 20.252 0 01-3.5-.442v1.716zm5.25.476a17.603 17.603 0 003.5-.477v-1.716a20.252 20.252 0 01-3.5.442v1.75zm-5.25 3.024a17.67 17.67 0 003.5.475v-1.75a20.252 20.252 0 01-3.5-.442v1.716zm12.25-3.044a8.994 8.994 0 01-1.75.825v1.641c1.123-.493 1.75-1.072 1.75-1.554v-.912zm-15.75-2.588c0 .482.627 1.061 1.75 1.554v-1.64a8.997 8.997 0 01-1.75-.826v.912zm-16.372 3.815l1.355 1.355a14.26 14.26 0 002.937-2.013l-1.409-1.409a16.3 16.3 0 01-2.883 2.067zm4.128-3.296l1.401 1.4c.805-.91 1.498-1.92 2.013-2.936L34.7 64.888a16.26 16.26 0 01-2.069 2.88zm3.942-6.139l-.51-.51a9.175 9.175 0 01-.565 2.09l1.257 1.258c.374-1.297.315-2.341-.182-2.838zm24.052 4.708a8.994 8.994 0 01-1.75.825v1.641c1.123-.493 1.75-1.072 1.75-1.554v-.912zm-15.75 4.412c0 .482.627 1.061 1.75 1.554v-1.64a8.997 8.997 0 01-1.75-.826v.912zm21-45.5a2.628 2.628 0 00-2.625-2.625h-21a2.628 2.628 0 00-2.625 2.625v.875h26.25v-.875zM24.743 72.435l.513.513c.497.497 1.542.556 2.837.182l-1.259-1.26a9.224 9.224 0 01-2.091.565zM34.375 55c0-4.343-3.532-7.875-7.875-7.875S18.625 50.657 18.625 55s3.532 7.875 7.875 7.875 7.875-3.532 7.875-7.875zm-2.625-.875a.875.875 0 110 1.75.875.875 0 010-1.75zm-10.5 1.75a.875.875 0 110-1.75.875.875 0 010 1.75zm2.625.875h1.75c0 .483.392.875.875.875h.875v-.875a.875.875 0 00-.875-.875 2.628 2.628 0 01-2.625-2.625v-2.625h1.75v-1.75h1.75v1.911a2.621 2.621 0 011.75 2.464h-1.75a.875.875 0 00-.875-.875h-.875v.875c0 .483.392.875.875.875a2.628 2.628 0 012.625 2.625v2.625h-1.75v1.75h-1.75v-1.911a2.621 2.621 0 01-1.75-2.464z" fill="#fff"/><path d="M67.669 39.656a6.085 6.085 0 01-1.794-4.33v-2.201h-26.25v2.2a6.085 6.085 0 01-1.795 4.332l-.422.423a4.346 4.346 0 00-1.283 3.094V55c0 1.109-.198 2.17-.544 3.162l2.23 2.23c1.07 1.07 1.232 2.88.457 5.096-.449 1.283-1.19 2.613-2.112 3.84.171 2.251 2.056 4.047 4.344 4.047h4.428c-1.11-.684-1.803-1.564-1.803-2.625v-7c0-2.665 4.36-4.179 8.75-4.358V56.75H49.25a7 7 0 01-7-7h3.5a6.995 6.995 0 016.125 3.614V44.5H49.25A5.25 5.25 0 0144 39.25h3.5c2.6 0 4.754 1.893 5.171 4.375h.158A5.247 5.247 0 0158 39.25h3.5c0 2.9-2.35 5.25-5.25 5.25h-2.625v8.864a6.995 6.995 0 016.125-3.614h3.5a7 7 0 01-7 7h-2.625v2.642c4.39.179 8.75 1.693 8.75 4.358v7c0 1.061-.693 1.94-1.803 2.625H65A4.38 4.38 0 0069.375 69V43.174a4.344 4.344 0 00-1.282-3.093l-.424-.425zM39.625 52.375h-1.75v-1.75h1.75v1.75zm0-3.5h-1.75v-1.75h1.75v1.75zm0-3.5h-1.75v-1.75h1.75v1.75zm28 7h-1.75v-1.75h1.75v1.75zm0-3.5h-1.75v-1.75h1.75v1.75zm0-3.5h-1.75v-1.75h1.75v1.75zm.875-17.5H37a.876.876 0 00-.875.875v1.75c0 .482.392.875.875.875h31.5a.876.876 0 00.875-.875v-1.75a.876.876 0 00-.875-.875z" fill="#fff"/><path d="M51.875 64.625v-3.483c-4.301.174-7 1.603-7 2.608 0 1.071 3.068 2.625 7.875 2.625s7.875-1.554 7.875-2.625c0-1.005-2.699-2.433-7-2.608v3.483h-1.75zm-17.51-4.095c-1.744 2.473-4.616 4.095-7.865 4.095-.885 0-1.739-.13-2.553-.354-1.68 2.49-2.317 5.126-1.392 6.049 1.142 1.141 5.165-.089 8.233-3.15 2.254-2.248 3.481-4.896 3.577-6.64z" fill="#fff"/></svg>