<svg width="50" height="50" xmlns="http://www.w3.org/2000/svg"><path d="M48.698 35.788c-.933-1.371-2.515-1.706-4.234-.897l-.91.401c1.436-3.062 1.614-6.474.899-9.698-.821-3.702-2.805-7.29-5.895-10.66a.732.732 0 10-1.08.99c2.915 3.178 4.78 6.539 5.545 9.987.806 3.632.337 7.378-1.719 10.371l-9.115 4.014.007-1.03a.721.721 0 00-.003-.078 4.59 4.59 0 00-3.952-4.102l-8.102-.932c-3.115-.444-3.918-2.31-8.137-3.375-.291-2.474.097-5.108 1.162-7.748 1.604-3.976 4.742-7.84 9.092-11.202 1.622 1.15 8.856 1.292 10.474-.19.83.63 1.621 1.278 2.359 1.935a.73.73 0 001.033-.06.732.732 0 00-.06-1.033 40.765 40.765 0 00-2.589-2.117c.214-.906-.085-1.967-.874-2.598 2.293-3.478 2.96-5.754 2.039-6.947-.633-.819-1.42-.434-1.756-.27-.57.278-.88.293-1.405-.05-1-.655-2.051-.676-3.084 0-.53.347-.949.347-1.48 0-1-.655-2.05-.676-3.083 0-.53.347-.842.325-1.403.046-.335-.166-1.122-.557-1.758.262-.9 1.16-.298 3.364 1.84 6.723a2.3 2.3 0 00-.372.249c-.85-.898-2.244-1.835-4.259-1.61-1.671.187-2.903-.365-3.643-.861a.733.733 0 00-.816 1.216c.943.632 2.51 1.336 4.622 1.1 1.556-.174 2.613.622 3.27 1.431a2.838 2.838 0 00-.025.094c-.56.01-1.399.061-2.322.253-2.22.462-3.868 1.517-4.766 3.052a.732.732 0 001.264.74c1.336-2.283 4.595-2.562 5.89-2.58l.018.049c-4.62 3.563-7.836 7.538-9.564 11.82-1.091 2.707-1.528 5.418-1.306 7.995a15.227 15.227 0 00-2.127-.164v-.443a2.127 2.127 0 00-2.125-2.125H2.887A2.127 2.127 0 00.76 29.871v17.055c0 1.172.954 2.125 2.126 2.125h3.361a2.128 2.128 0 002.125-2.125v-.209l7.333 2.73a8.774 8.774 0 003.07.553h10.926c1.671 0 3.3-.473 4.71-1.367 14.577-9.24 13.692-8.665 13.776-8.74a3.14 3.14 0 00.51-4.105zM31.356 10.77a15.871 15.871 0 01-7.96 0c-1.15-.29-.816-2.34.419-2.03a14.28 14.28 0 007.122 0c1.214-.306 1.587 1.735.42 2.03zM21.76 1.849l.017.008c.99.493 1.86.52 2.856-.133 1.248-.816 1.383.493 3.021.493.79 0 1.224-.285 1.542-.493.531-.347.95-.347 1.48 0 1.002.656 1.849.623 2.869.131.15.544-.19 2.163-2.362 5.396-1.078-.019-2.643 1.04-7.073.055-2.167-3.275-2.502-4.91-2.35-5.457zm25.496 36.913L33.63 47.396a7.325 7.325 0 01-3.926 1.14H18.776a7.31 7.31 0 01-2.559-.461l-7.844-2.92V37.27a.732.732 0 10-1.464 0v9.657a.662.662 0 01-.66.661H2.886a.661.661 0 01-.661-.66V29.87a.66.66 0 01.66-.66h3.362a.66.66 0 01.66.66v3.974a.732.732 0 101.465 0V31.78c6.058.046 7.42 3.24 11.57 3.826l.019.003 8.101.932a3.128 3.128 0 012.668 2.757l-.01 1.393h-7.555a.732.732 0 000 1.464h8.282c.093 0 .2-.02.292-.06l13.323-5.866c.958-.426 1.831-.487 2.424.383.46.677.358 1.592-.232 2.15z" fill="inherit"/><path d="M27.57 33.225a.732.732 0 00.731-.733v-1.214c2.056-.333 3.256-1.997 3.517-3.55.326-1.939-.69-3.625-2.588-4.296a36.025 36.025 0 01-.929-.341v-4.67c.867.144 1.387.593 1.425.626a.732.732 0 00.989-1.08c-.052-.048-.949-.855-2.414-1.024V15.9a.732.732 0 10-1.464 0v1.101a5.387 5.387 0 00-.543.133c-1.243.374-2.171 1.439-2.424 2.78-.23 1.216.157 2.385 1.006 3.052.488.383 1.103.733 1.96 1.108v5.79c-.846-.035-1.367-.194-2.277-.789a.732.732 0 10-.802 1.226c1.196.782 1.995.986 3.08 1.028v1.162c0 .405.328.733.732.733zm-1.79-11.41c-.418-.328-.598-.953-.47-1.63.118-.627.55-1.39 1.406-1.648l.12-.033v3.955a6.177 6.177 0 01-1.056-.644zm2.962 2.998c1.822.644 1.71 2.209 1.631 2.673-.161.96-.867 1.987-2.072 2.296v-5.128l.44.159z" fill="inherit"/></svg>