<svg width="50" height="50" xmlns="http://www.w3.org/2000/svg"><g clip-path="url(#clip0)" fill="inherit"><path d="M47.954 17.71v-3.02a.683.683 0 00-.003-.063v-.01a.68.68 0 00-.036-.162l-.002-.008-2.489-7.072a1.66 1.66 0 00-.2-.39l.002-.029V2.5a2.602 2.602 0 00-2.602-2.597H7.434A2.602 2.602 0 004.832 2.5v4.457l.002.029a1.64 1.64 0 00-.2.39l-2.489 7.072-.002.008a.795.795 0 00-.019.066l-.004.014a.814.814 0 00-.013.082v.012a.644.644 0 00-.003.06v3.021a5.165 5.165 0 002.728 4.548V42.58h-.807c-1.059 0-1.921.86-1.921 1.918v3.487c0 1.058.862 1.918 1.921 1.918h42.007c1.06 0 1.922-.86 1.922-1.918v-3.487a1.922 1.922 0 00-1.922-1.918h-.806V22.26a5.166 5.166 0 002.728-4.549zm-5.172 3.698a3.705 3.705 0 01-3.704-3.698v-2.288h7.409v2.288a3.705 3.705 0 01-3.705 3.698zm-30.334-5.986h2.605a.733.733 0 100-1.464h-2.432l1.334-6.232h6.39l-.438 6.232h-2.114a.733.733 0 100 1.464h2.064v2.288a3.705 3.705 0 01-7.409 0v-2.288zm23.675-7.696l1.316 6.232h-7.288l-.438-6.232h6.41zm-7.881 0l.438 6.232h-7.302l.439-6.232h6.425zm-6.917 7.696h7.409v2.288a3.705 3.705 0 01-7.41 0v-2.288zm8.876 0h7.409v2.288a3.705 3.705 0 01-7.409 0v-2.288zm15.984-1.464h-7.246l-1.316-6.232h6.226c.085 0 .162.054.19.135l2.146 6.097zM7.435 1.368h35.189c.625 0 1.134.507 1.134 1.131v3.762H6.3V2.499c0-.624.509-1.132 1.134-1.132zM6.017 7.86a.202.202 0 01.191-.135h6.245l-1.333 6.232H3.873L6.018 7.86zM3.57 17.71v-2.288h7.41v2.287a3.705 3.705 0 01-7.41 0zm40.187 24.868h-5.663a.733.733 0 100 1.465h7.938c.25 0 .453.204.453.453v3.487c0 .25-.203.454-.454.454H4.025a.454.454 0 01-.454-.454v-3.487c0-.25.204-.453.454-.453h31.348a.733.733 0 100-1.465H20.088V25.924c0-.967-.788-1.754-1.757-1.754H9.524c-.968 0-1.757.787-1.757 1.754v16.655H6.3v-19.8a5.177 5.177 0 005.414-2.42 5.177 5.177 0 004.438 2.514 5.177 5.177 0 004.438-2.514 5.177 5.177 0 004.439 2.514 5.177 5.177 0 004.438-2.514 5.178 5.178 0 004.438 2.514 5.177 5.177 0 004.438-2.514 5.177 5.177 0 005.415 2.42v19.8zm-25.138 0H9.235V25.924c0-.16.13-.29.29-.29h8.806c.16 0 .29.13.29.29v16.655h-.001z"/><path d="M40.533 24.17H23.092c-.969 0-1.757.787-1.757 1.754V36.9c0 .967.788 1.753 1.757 1.753h17.441c.97 0 1.757-.786 1.757-1.753V25.924c0-.967-.788-1.754-1.757-1.754zm.29 12.73a.29.29 0 01-.29.29H23.092a.29.29 0 01-.29-.29V25.925c0-.16.13-.29.29-.29h17.441c.16 0 .29.13.29.29V36.9z"/></g><defs><clipPath id="clip0"><path fill="#fff" d="M0 0h50v50H0z"/></clipPath></defs></svg>