<svg width="105" height="117" fill="none" xmlns="http://www.w3.org/2000/svg"><path d="M43.533 0h17.934v4.024h-6.954v9.465c13.495.517 25.672 6.2 34.6 15.127 9.365 9.37 15.16 22.315 15.16 36.61 0 14.295-5.795 27.24-15.16 36.609C79.742 111.205 66.796 117 52.5 117c-14.294 0-27.24-5.795-36.609-15.165C6.522 92.466.727 79.521.727 65.227c0-14.296 5.795-27.242 15.164-36.61 8.927-8.928 21.1-14.61 34.6-15.128V4.024h-6.958V0zM52.5 26.616c10.661 0 20.315 4.324 27.302 11.31 6.987 6.987 11.306 16.64 11.306 27.3 0 10.659-4.32 20.313-11.306 27.3-6.987 6.986-16.64 11.309-27.302 11.309-10.658 0-20.312-4.323-27.299-11.31-6.986-6.986-11.31-16.64-11.31-27.299 0-10.66 4.324-20.313 11.31-27.3 6.987-6.986 16.64-11.31 27.299-11.31zm26.589 12.02c-6.8-6.803-16.206-11.013-26.59-11.013-10.383 0-19.784 4.21-26.588 11.013C19.108 45.438 14.9 54.841 14.9 65.226c0 10.384 4.209 19.787 11.012 26.59 6.804 6.803 16.205 11.013 26.589 11.013 10.383 0 19.789-4.21 26.589-11.014 6.806-6.802 11.015-16.205 11.015-26.588 0-10.386-4.209-19.789-11.015-26.59zm7.18-7.178c-8.643-8.64-20.58-13.985-33.77-13.985-13.187 0-25.125 5.346-33.767 13.985-8.64 8.64-13.984 20.58-13.984 33.769 0 13.186 5.344 25.125 13.984 33.766 8.642 8.64 20.583 13.985 33.768 13.985 13.188 0 25.126-5.345 33.769-13.985 8.639-8.64 13.982-20.58 13.982-33.766 0-13.188-5.343-25.13-13.982-33.769z" fill="#2D8EFF"/><path opacity=".5" d="M53 65h38c0-20.987-17.013-38-38-38v38z" fill="#2D8EFF"/></svg>