<svg width="19" height="23" xmlns="http://www.w3.org/2000/svg"><path d="M18.092 13.692l-.016-.225c-.264-3.43-1.86-5.58-3.27-7.477-1.304-1.756-2.43-3.272-2.43-5.51a.48.48 0 00-.759-.39C9.501 1.604 7.736 4.156 7.119 6.592c-.428 1.695-.485 3.6-.493 4.86-1.954-.418-2.396-3.341-2.401-3.373a.482.482 0 00-.684-.364c-.102.05-2.515 1.276-2.655 6.171-.01.163-.01.326-.01.49C.875 19.13 4.744 23 9.5 23s8.625-3.87 8.625-8.625c0-.238-.017-.461-.033-.683zM9.5 22.042c-1.585 0-2.875-1.374-2.875-3.063 0-.057 0-.115.004-.186.02-.713.154-1.199.303-1.522.278.597.775 1.146 1.582 1.146a.48.48 0 00.479-.48c0-.682.014-1.469.184-2.179.151-.63.512-1.3.97-1.837.203.697.6 1.261.988 1.812.554.788 1.127 1.603 1.228 2.992.006.082.012.165.012.254 0 1.689-1.29 3.063-2.875 3.063zm3.028-.626a4.106 4.106 0 00.805-2.437c0-.113-.007-.217-.02-.413-.114-1.565-.794-2.531-1.395-3.384-.511-.727-.952-1.354-.952-2.244a.479.479 0 00-.768-.382c-.92.694-1.686 1.863-1.953 2.979-.137.572-.185 1.191-.201 1.7-.333-.357-.436-1.02-.437-1.029a.48.48 0 00-.693-.361c-.12.061-1.181.67-1.242 2.907a4.106 4.106 0 00.8 2.663c-2.725-1.176-4.638-3.888-4.638-7.04 0-.143 0-.286.01-.446.082-2.872 1-4.296 1.6-4.925.419 1.498 1.515 3.455 3.66 3.455a.48.48 0 00.48-.48c0-1.603.036-3.456.464-5.153.487-1.922 1.82-3.997 3.43-5.403.266 2.053 1.384 3.558 2.56 5.139 1.396 1.88 2.84 3.824 3.082 6.972l.016.23c.015.199.03.398.03.611 0 3.152-1.913 5.864-4.638 7.04z" fill="inherit"/></svg>