<svg width="23" height="23" xmlns="http://www.w3.org/2000/svg"><path d="M18.107 9.146a6.85 6.85 0 00.251-1.839c0-1.374-.405-2.7-1.172-3.835a.342.342 0 00-.566.383 6.143 6.143 0 011.055 3.452c0 .58-.08 1.143-.231 1.676a6.857 6.857 0 00-5.944 1.69 6.832 6.832 0 00-5.944-1.69 6.182 6.182 0 015.944-7.85c1.65 0 3.2.642 4.366 1.808a.342.342 0 00.483-.483A6.813 6.813 0 0011.5.449a6.866 6.866 0 00-6.607 8.697C2.066 9.993 0 12.617 0 15.716a6.866 6.866 0 008.164 6.734.342.342 0 00-.13-.671 6.182 6.182 0 01-7.352-6.063A6.186 6.186 0 015.11 9.794a6.89 6.89 0 004.426 4.084 6.842 6.842 0 00-.25 1.838c0 1.75.658 3.347 1.74 4.56a6.18 6.18 0 01-1.764 1.13.342.342 0 00.266.629 6.868 6.868 0 001.977-1.272 6.832 6.832 0 004.638 1.81A6.866 6.866 0 0023 15.717c0-3.099-2.066-5.723-4.893-6.57zm-.888.49a6.203 6.203 0 01-3.97 3.593 6.868 6.868 0 00-1.27-2.069 6.15 6.15 0 015.24-1.525zM11.5 11.648c.45.512.815 1.099 1.076 1.739a6.192 6.192 0 01-2.152 0 6.186 6.186 0 011.076-1.739zM5.781 9.635a6.15 6.15 0 015.24 1.525 6.867 6.867 0 00-1.27 2.07 6.204 6.204 0 01-3.97-3.595zm4.417 4.406a6.866 6.866 0 002.604 0c.15.533.23 1.095.23 1.675a6.167 6.167 0 01-1.529 4.07 6.15 6.15 0 01-1.536-4.07c0-.58.08-1.142.231-1.675zm5.944 7.85a6.15 6.15 0 01-4.159-1.615 6.848 6.848 0 001.733-4.56c0-.636-.088-1.253-.25-1.838a6.89 6.89 0 004.425-4.084 6.186 6.186 0 014.426 5.922 6.182 6.182 0 01-6.175 6.175z" fill="inherit"/></svg>