<svg width="23" height="23" xmlns="http://www.w3.org/2000/svg"><path d="M22.017 7.159l.168-.62a.338.338 0 00-.238-.414L5.757 1.74l.417-.849A.338.338 0 005.96.417L4.631.057a.338.338 0 00-.423.284l-.12.949-2.3-.623a.338.338 0 00-.414.238l-.282 1.043a.338.338 0 00.238.414l17.708 4.794H1.058C.474 7.156 0 7.63 0 8.213v13.683c0 .584.474 1.058 1.058 1.058h20.884c.584 0 1.058-.474 1.058-1.058V8.213c0-.558-.435-1.016-.983-1.054zM4.829.81l.558.15-.295.6-.347-.093L4.83.81zm-2.891.596l19.507 5.281-.106.391L1.832 1.8l.106-.392zm20.387 20.49a.383.383 0 01-.383.382H1.058a.383.383 0 01-.383-.383V8.213c0-.21.172-.382.383-.382h20.884c.211 0 .383.171.383.382v13.683z" fill="inherit"/></svg>