<svg width="64" height="64" xmlns="http://www.w3.org/2000/svg"><circle cx="32" cy="32" r="32" fill="inherit"/><g clip-path="url(#clip0)"><path d="M43.554 42.603H19.377c-.063 0-.125-.005-.185-.014a7.637 7.637 0 01-5.05-2.3A7.483 7.483 0 0112 35.04c0-1.909.72-3.731 2.029-5.132a7.643 7.643 0 014.023-2.265 11.803 11.803 0 013.799-6.375 12.02 12.02 0 017.887-2.939c4.091 0 7.843 2.042 10.037 5.396a9.845 9.845 0 013.387-.591c5.425 0 9.838 4.367 9.838 9.735a9.63 9.63 0 01-2.741 6.741 9.835 9.835 0 01-6.493 2.975c-.069.012-.14.019-.212.019zm-24.05-2.407h23.901c.032-.004.063-.007.096-.008 3.977-.176 7.092-3.392 7.092-7.32 0-4.04-3.334-7.329-7.431-7.329a7.436 7.436 0 00-3.348.785 1.204 1.204 0 01-1.601-.515c-1.654-3.13-4.901-5.074-8.475-5.074-4.752 0-8.82 3.497-9.462 8.135-.077.557-.53.986-1.09 1.034-2.68.227-4.779 2.482-4.779 5.135 0 2.777 2.204 5.04 5.018 5.151.027.001.053.003.079.006z" fill="#fff"/></g><defs><clipPath id="clip0"><path fill="#fff" transform="translate(12 10)" d="M0 0h41v41H0z"/></clipPath></defs></svg>