<svg width="163" height="163" viewBox="0 0 163 163" fill="none" xmlns="http://www.w3.org/2000/svg">
<circle cx="81.5" cy="81.5" r="81.5" fill="#2D8EFF"/>
<path d="M81.5 40.6252L46.625 53.3089V81.5001C46.625 113.355 80.4669 122.02 80.8075 122.105L81.5 122.273L82.1925 122.105C82.5331 122.02 116.375 113.355 116.375 81.5001V53.3089L81.5 40.6252ZM110.562 81.5001C110.562 106.723 86.1233 114.942 81.5114 116.267C77.064 114.95 52.4375 106.507 52.4375 81.5001V57.3788L81.5 46.8124L110.562 57.3788V81.5001Z" fill="white"/>
<path d="M66.1174 79.4453L62.0078 83.5549L75.6876 97.2347L100.992 71.9299L96.8828 67.8203L75.6876 89.0155L66.1174 79.4453Z" fill="white"/>
</svg>
