<svg width="263" height="263" viewBox="0 0 263 263" fill="none" xmlns="http://www.w3.org/2000/svg">
<g clip-path="url(#clip0_12672_1567)">
<path fill-rule="evenodd" clip-rule="evenodd" d="M105.268 75.389L129.464 155.396L105.268 166.825V75.389ZM155.885 70.0632L131.001 152.691L106.075 70.0632H155.885ZM156.732 166.825L132.536 155.396L156.732 75.389V166.825ZM109.146 167.359L131.001 157.36L152.856 167.355L109.146 167.359ZM104.339 169.775H157.662C158.631 169.775 159.116 169.282 159.116 168.3V69.1216C159.116 68.1378 158.631 67.6449 157.662 67.6449H104.339C103.369 67.6449 102.884 68.1378 102.884 69.1198V168.298C102.884 169.282 103.369 169.775 104.339 169.775Z" fill="#161616"/>
<path fill-rule="evenodd" clip-rule="evenodd" d="M74.865 184.651L62 197.645H63.9902C64.9035 197.645 65.7799 197.278 66.4275 196.623L75.1274 187.836C75.5021 187.457 76.1071 187.457 76.4819 187.836L85.1836 196.623C85.8303 197.277 86.7062 197.643 87.6191 197.643H89.6111L76.7461 184.651C76.2249 184.124 75.3825 184.124 74.8613 184.651M115.249 184.257C114.336 184.257 113.46 184.624 112.813 185.278L104.113 194.066C103.739 194.444 103.134 194.444 102.759 194.066L94.0571 185.278C93.4099 184.624 92.5343 184.257 91.6216 184.257H89.6296L102.495 197.251C103.016 197.776 103.856 197.776 104.378 197.251L117.241 184.257H115.249ZM157.312 189.287C156.973 189.286 156.698 189.564 156.697 189.909V197.02C156.697 197.365 156.972 197.643 157.312 197.643H158.502C158.841 197.644 159.116 197.366 159.117 197.021V189.912C159.118 189.568 158.845 189.288 158.506 189.287H157.312ZM169.554 185.28C168.904 184.626 168.026 184.259 167.111 184.26H144.852L146.26 185.678C146.908 186.333 147.786 186.699 148.701 186.699H170.962L169.554 185.28ZM130.104 184.651L117.242 197.645H119.233C120.145 197.645 121.021 197.277 121.668 196.623L130.37 187.836C130.745 187.457 131.35 187.457 131.724 187.836L140.424 196.623C141.071 197.277 141.947 197.643 142.86 197.643H144.852L131.989 184.651C131.467 184.124 130.625 184.124 130.104 184.651ZM194.236 191.85H196.225C198.296 191.862 199.986 190.166 199.998 188.06C199.998 188.001 199.997 187.942 199.994 187.882C199.906 185.836 198.156 184.258 196.129 184.258H176.288L177.7 185.678C178.35 186.333 179.23 186.699 180.146 186.699H196.142C196.849 186.699 197.485 187.222 197.546 187.933C197.609 188.682 197.063 189.342 196.326 189.406C196.285 189.41 196.245 189.411 196.204 189.411H176.905C176.565 189.41 176.289 189.689 176.288 190.034V197.02C176.288 197.365 176.565 197.643 176.905 197.643H178.099C178.438 197.643 178.713 197.364 178.714 197.02V191.85H190.805L195.55 196.614C196.201 197.273 197.084 197.643 198.004 197.643H200L194.236 191.85Z" fill="#161616"/>
</g>
<defs>
<clipPath id="clip0_12672_1567">
<rect width="262.5" height="262.5" fill="white"/>
</clipPath>
</defs>
</svg>
