<svg width="263" height="263" viewBox="0 0 263 263" fill="none" xmlns="http://www.w3.org/2000/svg">
<g clip-path="url(#clip0_12672_1558)">
<path fill-rule="evenodd" clip-rule="evenodd" d="M172.6 103L187.186 129.513H142.122L127.605 103H172.6ZM129.877 133.863C124.717 133.863 119.351 133.38 116.049 130.549C113.296 128.409 111.782 125.923 110.2 123.093C109.856 122.531 105.883 115.28 102.818 109.685L102.817 109.682C100.979 106.328 99.4673 103.57 99.2612 103.207H57.5C59.0005 105.958 60.5011 108.721 62.0033 111.487C65.6666 118.231 69.3403 124.995 73.0484 131.654C77.5889 139.939 81.9231 147.673 89.8349 153.334C93.6197 156.164 97.6094 158.029 102.288 159.203C106.898 160.308 111.576 160.446 116.323 160.446H153.475L138.89 133.863H129.877ZM144.532 133.794L159.118 160.446H204.112L189.457 133.794H144.532Z" fill="#161616"/>
</g>
<defs>
<clipPath id="clip0_12672_1558">
<rect width="262.5" height="262.5" fill="white"/>
</clipPath>
</defs>
</svg>
