<svg width="263" height="263" viewBox="0 0 263 263" fill="none" xmlns="http://www.w3.org/2000/svg">
<g clip-path="url(#clip0_12672_1570)">
<path fill-rule="evenodd" clip-rule="evenodd" d="M66.5 130.935C66.5 95.068 95.568 66 131.435 66C167.302 66 196.37 95.081 196.37 130.935C196.37 166.802 167.289 195.87 131.435 195.87C95.568 195.87 66.5 166.802 66.5 130.935ZM131.435 191.645C164.975 191.645 192.145 164.462 192.145 130.935C192.145 97.408 164.962 70.225 131.435 70.225C97.908 70.225 70.725 97.408 70.725 130.935C70.725 164.462 97.895 191.645 131.435 191.645Z" fill="#161616"/>
<path fill-rule="evenodd" clip-rule="evenodd" d="M131.435 94.535V92.416C152.703 92.416 169.941 109.654 169.941 130.922H167.835C167.835 110.863 151.507 94.535 131.435 94.535ZM95.035 130.935C95.035 151.007 111.363 167.335 131.435 167.335V169.441C110.167 169.441 92.929 152.203 92.929 130.935H95.035Z" fill="#161616"/>
<path d="M162.908 103.388C163.792 104.337 165.066 105.858 165.781 106.794L178.924 98.435C178.118 97.382 177.286 96.355 176.441 95.354L168.108 100.866L167.536 101.36L167.965 100.736L171.644 93.391L169.044 90.791L161.699 94.47L161.075 94.899L161.569 94.327L167.081 86.007C166.067 85.149 165.04 84.317 163.987 83.511L155.641 96.641C156.694 97.46 158.098 98.643 158.982 99.462L166.834 95.38L167.341 95.016L166.964 95.523C166.977 95.51 162.908 103.388 162.908 103.388ZM133.073 86.735L136.661 78.688L136.895 77.973L136.83 78.714L137.207 89.465C138.468 89.582 139.768 89.764 141.055 89.972L140.47 74.047C138.689 73.852 136.895 73.709 135.101 73.631L131.565 82.419L131.435 83.069L131.305 82.419L127.769 73.631C125.975 73.709 124.181 73.852 122.4 74.047L121.815 89.972C123.089 89.764 124.376 89.595 125.663 89.465L126.04 78.714L125.975 77.973L126.209 78.688L129.797 86.735H133.073Z" fill="#161616"/>
<path fill-rule="evenodd" clip-rule="evenodd" d="M104.005 99.423C106.085 97.239 107.255 94.704 105.175 92.299C104.044 90.986 102.146 90.7 100.573 91.35L100.417 91.415L100.469 91.285C100.703 90.661 100.846 88.672 99.156 87.307C98.337 86.657 97.284 86.371 96.244 86.501C94.294 86.696 92.799 88.035 88.704 92.585C87.287 94.184 85.909 95.835 84.596 97.538L95.815 108.185C98.753 104.935 100.313 103.297 102.289 101.23C102.315 101.204 104.005 99.423 104.005 99.423ZM89.367 96.823C91.629 94.054 94.034 91.545 95.113 90.557C95.451 90.245 95.828 89.933 96.283 89.803C97.024 89.608 97.778 90.128 97.947 90.882C98.116 91.636 97.648 92.364 97.115 92.962C95.919 94.314 91.538 98.89 91.538 98.89L89.367 96.823ZM99.429 95.042C98.038 96.485 93.761 100.996 93.761 100.996L96.036 103.154L101.691 97.096C102.12 96.628 102.653 96.017 102.796 95.367C102.913 94.821 102.692 94.262 102.224 93.963C101.743 93.638 101.197 93.69 100.716 93.937C100.326 94.119 99.975 94.47 99.429 95.042Z" fill="#161616"/>
<path d="M131.435 92.429V130.935L92.929 130.935C92.929 109.654 110.154 92.429 131.435 92.429ZM169.941 130.935C169.941 152.216 152.716 169.441 131.435 169.441V130.935H169.941Z" fill="#161616"/>
</g>
<defs>
<clipPath id="clip0_12672_1570">
<rect width="262.5" height="262.5" fill="white"/>
</clipPath>
</defs>
</svg>
