<svg width="263" height="263" viewBox="0 0 263 263" fill="none" xmlns="http://www.w3.org/2000/svg">
<g clip-path="url(#clip0_12672_1576)">
<path d="M152.378 189.215H157.921V190.426H152.378V189.215ZM85.1643 192.491H86.1626C85.8348 194.899 84.2554 196.32 81.8118 196.32C78.6083 196.32 76.7458 194.211 76.7458 190.621C76.7458 187.031 78.6381 184.757 81.5734 184.757C84.5087 184.757 86.0732 186.671 86.1328 190.277H78.7275C78.7573 193.912 79.7407 195.558 82.0055 195.558C83.7637 195.558 84.8663 194.48 85.1643 192.491ZM78.7871 189.439H84.1511C84.017 186.701 83.1528 185.37 81.5734 185.37C79.994 185.37 79.0404 186.746 78.7871 189.439ZM201.936 195.468H199.03L205.78 185.041H197.242L196.676 188.078H197.168C198.062 185.983 198.464 185.654 200.073 185.654H203.128L196.393 196.066H204.931L205.571 192.7H205.05C204.32 194.839 203.619 195.468 201.936 195.468ZM73.5274 194.002L73.2592 182.528V182.378C73.2592 181.331 73.6317 181.091 75.3154 181.002V180.418C74.3767 180.493 73.9744 180.508 73.3486 180.508C72.5589 180.508 71.7543 180.463 70.9646 180.388L66.2711 192.207L61.667 180.388C60.8773 180.478 60.0876 180.508 59.2979 180.508C58.5976 180.508 58.2251 180.478 57.2566 180.418V181.002C58.9701 181.091 59.3128 181.331 59.3128 182.408V182.543L58.7913 194.032C58.7466 195.288 58.5082 195.483 56.75 195.602V196.156C58.0463 196.066 58.538 196.036 59.2383 196.036C59.9386 196.036 60.4154 196.066 61.6968 196.156V195.602C59.9535 195.483 59.6406 195.273 59.6406 194.241V194.032L60.1323 181.899L64.2149 192.236L64.5129 193.059L65.2281 194.884L65.4963 195.632H65.8688L66.137 194.854L66.4648 193.972L66.8224 193.104L67.1204 192.326L71.203 181.914L71.4265 194.002V194.121C71.4265 195.213 71.054 195.483 69.3703 195.572V196.126C70.3984 196.006 71.4414 195.946 72.4695 195.932C73.5125 195.946 74.5406 196.006 75.5687 196.126V195.572C73.7807 195.453 73.5572 195.258 73.5274 194.002ZM193.666 194.406V188.796C193.696 188.078 193.577 187.375 193.309 186.701C192.817 185.549 191.476 184.831 190.031 184.831C188.585 184.831 187.572 185.4 186.678 186.657C186.648 185.968 186.574 185.295 186.425 184.622C185.352 184.966 184.249 185.205 183.132 185.325V185.714C183.251 185.714 183.37 185.744 183.445 185.744C184.667 185.744 184.816 185.879 184.845 186.836V194.421C184.845 195.423 184.607 195.617 183.087 195.677V196.141C183.981 196.051 184.875 196.006 185.769 196.006C186.663 196.006 187.557 196.051 188.451 196.141V195.677C187.155 195.632 186.842 195.393 186.842 194.465V188.811C186.842 186.881 187.736 185.894 189.42 185.894C191.014 185.894 191.655 186.701 191.655 188.751V194.48C191.655 195.408 191.327 195.647 190.001 195.692V196.156C190.895 196.066 191.804 196.021 192.713 196.021C193.621 196.021 194.515 196.066 195.424 196.156V195.692C193.919 195.602 193.666 195.393 193.666 194.406ZM94.0298 184.757C92.7335 184.757 91.6756 185.535 91.1243 186.866V186.612C91.0796 185.909 91.02 185.535 90.9008 184.667C89.828 184.951 88.7403 185.146 87.6228 185.205V185.624H87.9357C89.232 185.654 89.3512 185.759 89.3661 186.776V194.421C89.3661 195.423 89.0979 195.617 87.5781 195.677V196.141C89.4257 195.961 91.2733 195.961 93.1209 196.141V195.677C91.616 195.602 91.3627 195.408 91.3627 194.421V189.544C91.3627 187.225 92.1822 185.759 93.4636 185.759C93.9106 185.759 94.2086 185.983 94.2086 186.312V186.522L94.149 186.761C94.1192 186.836 94.1043 186.911 94.1043 186.986C94.1043 187.449 94.4917 187.778 95.1175 187.778C95.7433 187.778 96.1754 187.33 96.1754 186.657C96.1754 185.535 95.3112 184.757 94.0298 184.757ZM87.8165 140.012C83.4955 132.637 81.335 124.185 81.335 115.508C81.335 107.056 83.4955 98.3792 87.8165 91.004C92.1375 83.6289 98.3955 77.3458 105.741 73.0075C113.087 68.6692 121.505 66.5 130.147 66.5C138.581 66.5 147.223 68.6692 154.569 73.0075C161.914 77.3458 168.172 83.6289 172.493 91.004C176.814 98.3792 178.975 107.056 178.975 115.508C178.975 123.96 176.814 132.637 172.493 140.012C168.172 147.387 161.914 153.67 154.569 158.009C147.223 162.347 138.804 164.516 130.162 164.516C121.744 164.516 113.102 162.347 105.756 158.009C98.3955 153.685 92.1375 147.387 87.8165 140.012ZM131.444 71.4816L137.061 111.604L168.813 136.541C172.27 130.034 173.998 122.883 174.207 115.717C174.207 107.909 172.27 100.324 168.381 93.5921C164.492 86.8901 158.89 81.2503 152.185 77.3458C145.703 73.6507 138.789 71.706 131.444 71.4816ZM129.939 123.751L92.5696 138.935C96.235 145.009 101.644 150.215 107.902 153.895C114.592 157.799 122.161 159.744 129.939 159.744C137.717 159.744 145.271 157.799 151.976 153.895C158.457 150.215 163.643 145.009 167.308 138.935L129.939 123.751ZM85.8646 115.508C85.8646 122.883 87.8016 130.034 91.2584 136.332L123.01 111.394L128.628 71.2722C121.282 71.4816 114.16 73.4413 107.887 77.1214C101.197 81.0259 95.5794 86.6657 91.6905 93.3826C87.8165 100.114 85.8646 107.699 85.8646 115.508ZM170.05 189.903C170.318 190.441 170.452 191.025 170.437 191.623C170.437 192.341 170.243 193.044 169.886 193.673C169.528 194.301 169.007 194.839 168.381 195.243C167.338 195.857 166.34 196.066 164.507 196.066H158.234V195.513C160.067 195.378 160.275 195.213 160.275 193.942V182.602C160.275 181.346 160.022 181.151 158.234 181.062V180.478H164.76C166.369 180.478 167.338 180.732 168.187 181.316C168.664 181.675 169.051 182.124 169.305 182.632C169.558 183.141 169.692 183.709 169.677 184.278V184.293C169.677 185.923 168.738 187.12 166.95 187.749C167.666 187.838 168.336 188.108 168.917 188.497C169.379 188.886 169.781 189.364 170.05 189.903ZM162.331 187.569H164.015C165.401 187.569 166.071 187.404 166.623 186.806C167.174 186.193 167.442 185.43 167.442 184.353C167.442 182.184 166.518 181.226 164.432 181.226H162.331V187.569ZM168.217 191.698C168.217 190.576 167.919 189.574 167.338 189.035C166.772 188.497 166.027 188.287 164.701 188.287H162.317V194.136C162.317 195.169 162.54 195.348 163.851 195.348H164.745C166.965 195.348 168.217 194.032 168.217 191.698ZM102.18 195.572C100.273 195.572 99.3044 193.897 99.3044 190.621C99.3044 187.285 100.392 185.385 102.255 185.385C103.774 185.385 104.683 186.372 105.13 188.392H105.667V184.532L105.25 184.562L104.579 185.759C104.266 185.43 103.864 185.175 103.432 184.996C103 184.831 102.523 184.742 102.046 184.772C99.1256 184.772 97.1439 187.15 97.1439 190.636C97.1439 194.047 99.1107 196.335 101.986 196.335C104.221 196.335 105.637 194.974 105.95 192.476H104.937C104.639 194.54 103.715 195.572 102.18 195.572ZM148.355 190.022L147.297 189.604C145.047 188.661 144.66 188.362 144.66 187.434C144.66 186.342 145.673 185.49 146.999 185.49C148.549 185.49 149.383 186.372 149.607 188.242H150.173V184.607H149.726L149.309 185.564C148.579 185.056 147.685 184.801 146.776 184.816C144.586 184.816 143.051 186.073 143.051 187.928C143.051 189.289 143.617 189.933 145.435 190.726L146.582 191.219L147.521 191.608C148.743 192.132 149.205 192.655 149.205 193.448C149.205 194.645 148.117 195.558 146.642 195.558C144.898 195.558 143.87 194.525 143.408 192.401L142.872 192.431V196.335H143.319L143.915 195.273C144.749 195.932 145.807 196.291 146.895 196.261C149.234 196.261 150.888 194.854 150.888 192.895C150.903 191.548 150.233 190.8 148.355 190.022ZM139.788 192.506H140.786C140.458 194.914 138.879 196.335 136.45 196.335C133.247 196.335 131.384 194.226 131.384 190.636C131.384 187.045 133.276 184.772 136.227 184.772C139.177 184.772 140.726 186.686 140.786 190.292H133.396C133.425 193.927 134.409 195.572 136.674 195.572H136.659C138.387 195.558 139.49 194.48 139.788 192.506ZM133.411 189.439H138.775C138.626 186.701 137.776 185.37 136.197 185.37C134.617 185.37 133.664 186.746 133.411 189.439ZM180.867 192.506H181.85C181.523 194.914 179.943 196.335 177.5 196.335C174.296 196.335 172.434 194.226 172.434 190.636C172.434 187.045 174.341 184.772 177.276 184.772C180.211 184.772 181.776 186.686 181.836 190.292H174.445C174.475 193.927 175.458 195.572 177.723 195.572C179.466 195.558 180.569 194.48 180.867 192.506ZM174.49 189.439H179.854C179.705 186.701 178.87 185.37 177.276 185.37C175.667 185.37 174.728 186.746 174.49 189.439ZM130.445 195.303V195.692L130.073 195.737C129.09 195.812 128.106 196.006 127.167 196.291C126.974 195.677 126.855 195.049 126.81 194.421C126.11 195.737 125.126 196.335 123.726 196.335C121.014 196.335 119.136 193.972 119.136 190.606C119.136 187.24 120.999 184.876 123.651 184.876C124.992 184.876 125.707 185.295 126.631 186.701V182.617C126.631 181.406 126.437 181.241 124.873 181.241V180.867C126.139 180.747 127.391 180.538 128.628 180.224V193.717C128.628 195.139 128.777 195.258 130.445 195.303ZM126.676 190.755C126.676 187.315 125.677 185.549 123.889 185.549C122.101 185.549 121.237 187.255 121.237 190.591C121.237 193.927 122.176 195.692 123.964 195.692C125.752 195.692 126.676 194.002 126.676 190.755ZM116.112 192.506H117.11C116.782 194.914 115.203 196.335 112.759 196.335C109.556 196.335 107.693 194.226 107.693 190.636C107.693 187.045 109.585 184.772 112.536 184.772C115.486 184.772 117.035 186.686 117.095 190.292H109.705C109.734 193.927 110.718 195.572 112.983 195.572H112.968C114.711 195.558 115.814 194.48 116.112 192.506ZM109.734 189.439H115.098C114.949 186.701 114.1 185.37 112.521 185.37C110.941 185.37 109.988 186.746 109.734 189.439Z" fill="#161616"/>
</g>
<defs>
<clipPath id="clip0_12672_1576">
<rect width="262.5" height="262.5" fill="white"/>
</clipPath>
</defs>
</svg>
