<svg width="263" height="263" viewBox="0 0 263 263" fill="none" xmlns="http://www.w3.org/2000/svg">
<g clip-path="url(#clip0_12672_1564)">
<path d="M81.5 182.926C81.7914 184.068 82.7753 185.236 84.1253 185.528H88.2054L88.4135 185.611V195.959H90.9613V185.611L91.1928 185.528H95.2764C96.6415 185.175 97.6042 184.068 97.8906 182.926V182.901H81.5V182.926Z" fill="#161616"/>
<path d="M106.716 195.988H116.409C117.758 195.719 118.76 194.524 119.041 193.369H104.085C104.364 194.525 105.381 195.719 106.716 195.988Z" fill="#161616"/>
<path d="M106.716 190.68H116.409C117.758 190.413 118.76 189.218 119.041 188.061H104.085C104.364 189.219 105.381 190.413 106.716 190.68Z" fill="#161616"/>
<path d="M106.716 185.515H116.409C117.758 185.244 118.76 184.051 119.041 182.894H104.085C104.364 184.051 105.381 185.244 106.716 185.515Z" fill="#161616"/>
<path d="M128.822 185.49H137.777C139.127 185.095 140.26 184.062 140.537 182.916H126.312V190.64H137.955V193.35L128.822 193.357C127.391 193.758 126.178 194.724 125.572 196L126.312 195.986H140.456V188.072H128.822V185.49Z" fill="#161616"/>
<path d="M159.296 195.99C160.567 195.448 161.251 194.511 161.513 193.414H150.203L150.211 182.912L147.675 182.92V195.99H159.296Z" fill="#161616"/>
<path d="M169.173 185.525H178.869C180.216 185.256 181.218 184.061 181.5 182.906H166.543C166.823 184.062 167.839 185.256 169.173 185.525Z" fill="#161616"/>
<path d="M166.933 188.081V195.984H169.454V190.723H178.632V195.984H181.152V188.095L166.933 188.081Z" fill="#161616"/>
<path d="M131.505 157.07L144.235 85.1095C156.37 85.1095 160.197 86.4469 160.75 91.9056C160.75 91.9056 168.89 88.8551 172.995 82.6595C156.974 75.1979 140.877 74.8614 140.877 74.8614L131.484 86.3603L131.505 86.3589L122.112 74.8596C122.112 74.8596 106.014 75.1964 89.9953 82.658C94.0972 88.8536 102.241 91.9042 102.241 91.9042C102.796 86.4451 106.619 85.1077 118.672 85.099L131.505 157.07Z" fill="#161616"/>
<path d="M131.5 71.5399C144.451 71.4404 159.274 73.5536 174.449 80.2011C176.477 76.532 176.999 74.9104 176.999 74.9104C160.41 68.3141 144.876 66.0566 131.498 66C118.122 66.0566 102.588 68.3144 86.0013 74.9104C86.0013 74.9104 86.7413 76.9078 88.5491 80.2011C103.721 73.5536 118.547 71.4404 131.498 71.5399H131.5Z" fill="#161616"/>
</g>
<defs>
<clipPath id="clip0_12672_1564">
<rect width="262.5" height="262.5" fill="white"/>
</clipPath>
</defs>
</svg>
