<svg width="23" height="23" xmlns="http://www.w3.org/2000/svg"><g clip-path="url(#clip0)" fill="inherit"><path d="M21.43 5.766a.417.417 0 00-.57-.151l-2.038 1.178a.417.417 0 10.42.721l2.037-1.178a.417.417 0 00.151-.57zm-.15 10.9l-2.039-1.178a.417.417 0 00-.42.722l2.039 1.178a.417.417 0 10.42-.722zm-9.748 3.08a.42.42 0 00-.45.45v2.353a.42.42 0 10.837 0v-2.353a.42.42 0 00-.387-.45zM4.178 6.793L2.14 5.615a.417.417 0 00-.42.721l2.04 1.178a.417.417 0 00.42-.721zM11.532.001a.42.42 0 00-.45.45v2.353a.42.42 0 00.418.418.42.42 0 00.42-.42V.451a.42.42 0 00-.388-.45zm-4.02 3.758L6.336 1.72a.417.417 0 00-.721.42L6.79 4.177a.417.417 0 00.722-.42zm4.05 4.018A3.723 3.723 0 007.777 11.5a.42.42 0 10.837 0 2.884 2.884 0 012.881-2.886h.005a.42.42 0 00.062-.837zm11.375 3.691a.42.42 0 00-.388-.388h-2.353a.42.42 0 100 .837h2.353a.42.42 0 00.388-.45zm-20.071-.385a.43.43 0 00-.062 0H.451a.42.42 0 000 .837h2.353a.42.42 0 00.062-.837z"/><path d="M11.502 5.343a6.158 6.158 0 10-.002 12.315 6.158 6.158 0 00.002-12.315zm3.76 9.926A5.32 5.32 0 016.18 11.5a5.302 5.302 0 011.559-3.762v.007a5.32 5.32 0 117.524 7.524zm2.125 5.592l-.002-.002-1.178-2.037a.418.418 0 00-.721.42l1.178 2.037a.417.417 0 00.723-.418zM17.248 1.57a.417.417 0 00-.57.15L15.5 3.76a.417.417 0 00.149.57v.002a.417.417 0 00.571-.15l.001-.003L17.4 2.14a.417.417 0 00-.15-.57zm-9.885 17.1a.417.417 0 00-.57.152L5.615 20.86a.417.417 0 00.721.42l1.178-2.039a.417.417 0 00-.15-.57zM4.33 15.637a.417.417 0 00-.571-.151L1.72 16.664a.417.417 0 10.42.721l2.037-1.178a.417.417 0 00.151-.57z"/></g><defs><clipPath id="clip0"><path fill="#fff" d="M0 0h23v23H0z"/></clipPath></defs></svg>