<svg width="21" height="23" xmlns="http://www.w3.org/2000/svg"><path d="M19.044 11.961c-.82-1.381-1.96-2.81-3.387-4.248a34.99 34.99 0 00-2.174-2.005 1.711 1.711 0 001.55-1.701 1.71 1.71 0 00-1.71-1.71c-.285 0-.703.143-1.141.336l1.473-1.87a.472.472 0 00-.37-.763h-5.57a.471.471 0 00-.37.763l1.473 1.87c-.438-.193-.856-.335-1.141-.335a1.71 1.71 0 00-1.71 1.709c0 .843.615 1.545 1.42 1.683a30.633 30.633 0 00-2.04 1.822c-1.43 1.401-2.571 2.824-3.392 4.23C.912 13.529.383 15.294.383 16.99c0 1.376.655 2.892 1.75 4.056C3.323 22.306 4.835 23 6.394 23h8.213c1.584 0 3.095-.657 4.255-1.85 1.116-1.147 1.756-2.663 1.756-4.16 0-1.578-.53-3.27-1.573-5.029zm-4.955-7.954a.767.767 0 01-.766.766c-.258 0-1.017-.351-1.77-.766.753-.415 1.512-.766 1.77-.766.423 0 .766.343.766.766zM12.313.943L10.5 3.245 8.687.943h3.626zM6.91 4.007c0-.423.343-.766.766-.766.258 0 1.017.35 1.77.766-.753.415-1.512.766-1.77.766a.767.767 0 01-.766-.766zm7.695 18.05H6.394c-2.807 0-5.068-2.772-5.068-5.067 0-3.481 2.539-6.702 4.668-8.792A31.145 31.145 0 019.7 5.114l-1.132 4.03a.471.471 0 00.908.254L10.5 5.751l1.024 3.647a.472.472 0 00.908-.255l-1.111-3.958c2.479 1.887 8.353 6.879 8.353 11.805 0 2.7-2.368 5.067-5.068 5.067z" fill="inherit"/></svg>