<svg xmlns="http://www.w3.org/2000/svg" width="16" height="16" viewBox="1.26 17.79 100 108.86" fill="none">
<path d="M1.26123 23.8713C1.26123 20.516 3.98124 17.796 7.33653 17.796H31.3605V60.5655C31.3605 77.1889 17.8846 90.6648 1.26123 90.6648V23.8713Z" fill="#0696B6"/>
<path d="M101.232 120.578C101.232 123.933 98.5121 126.653 95.1568 126.653H71.1329V83.8835C71.1329 67.2602 84.6088 53.7843 101.232 53.7843V120.578Z" fill="#0696B6"/>
<path d="M43.3242 47.8953C39.9689 47.8953 37.2489 45.1753 37.2489 41.82V17.796H71.1329C87.7563 17.796 101.232 31.2719 101.232 47.8953H43.3242Z" fill="#0696B6"/>
<path d="M59.1834 96.5538C62.5387 96.5538 65.2587 99.2738 65.2587 102.629V126.653H31.3747C14.7514 126.653 1.27547 113.177 1.27547 96.5538H59.1834Z" fill="#0696B6"/>
</svg>
