<svg width="14" height="10" xmlns="http://www.w3.org/2000/svg"><path d="M13.125.333H.875A.876.876 0 000 1.208v7.584c0 .482.393.875.875.875h12.25A.876.876 0 0014 8.792V1.209a.876.876 0 00-.875-.876zm.292 8.459c0 .16-.131.292-.292.292H.875a.292.292 0 01-.292-.292V1.209c0-.161.131-.292.292-.292h12.25c.161 0 .292.13.292.291v7.584z"/><path d="M13.797.65a.291.291 0 00-.407-.065L7.514 4.833a.874.874 0 01-1.03-.001L.611.585a.291.291 0 10-.342.473l5.873 4.247a1.456 1.456 0 001.715 0l5.875-4.248a.292.292 0 00.066-.407z" fill="inherit"/><path d="M6.456 4.829a.292.292 0 00-.408-.065L.277 8.953a.293.293 0 00.343.472l5.771-4.189a.293.293 0 00.065-.407zm7.267 4.124l-5.77-4.19a.291.291 0 10-.343.473l5.77 4.19a.292.292 0 10.343-.473z" fill="inherit"/></svg>