<svg width="0" height="0" class="hidden">
  <symbol fill="none" xmlns="http://www.w3.org/2000/svg" viewBox="0 0 1920 1920" id="zoomin">
    <path d="m1920 1766.678-368.126-368.234c114.287-146.817 183.033-330.826 183.033-530.99C1734.907 389.16 1345.746 0 867.454 0 389.16 0 0 389.161 0 867.454c0 478.292 389.161 867.453 867.454 867.453 200.164 0 384.065-68.854 530.99-183.033L1766.678 1920 1920 1766.678ZM867.454 1518.044c-358.8 0-650.59-291.79-650.59-650.59s291.79-650.59 650.59-650.59 650.59 291.79 650.59 650.59-291.79 650.59-650.59 650.59ZM975.885 487.943H759.022v271.079h-271.08v216.863h271.08v271.08h216.863v-271.08h271.08V759.022h-271.08v-271.08Z" fill-rule="evenodd" fill="currentColor"></path>
  </symbol>
  <symbol fill="none" xmlns="http://www.w3.org/2000/svg" viewBox="0 0 1920 1920" id="zoomout">
    <path d="M867.454 1518.044c-358.8 0-650.59-291.79-650.59-650.59s291.79-650.59 650.59-650.59 650.59 291.79 650.59 650.59-291.79 650.59-650.59 650.59ZM1920 1766.678l-368.126-368.234c114.287-146.817 183.033-330.826 183.033-530.99C1734.907 389.16 1345.746 0 867.454 0 389.16 0 0 389.161 0 867.454c0 478.292 389.161 867.453 867.454 867.453 200.164 0 384.065-68.854 530.99-183.033L1766.678 1920 1920 1766.678ZM487.943 975.885h759.021V759.022H487.943v216.863Z" fill-rule="evenodd" fill="currentColor"></path>
  </symbol>
  <symbol fill="none" xmlns="http://www.w3.org/2000/svg" viewBox="0 0 1920 1920" id="reset">
    <path d="M960 0v213.333c411.627 0 746.667 334.934 746.667 746.667S1371.627 1706.667 960 1706.667 213.333 1371.733 213.333 960c0-197.013 78.4-382.507 213.334-520.747v254.08H640V106.667H53.333V320h191.04C88.64 494.08 0 720.96 0 960c0 529.28 430.613 960 960 960s960-430.72 960-960S1489.387 0 960 0" fill-rule="evenodd" fill="currentColor"></path>
  </symbol>
</svg>