<svg width="112" height="55" viewBox="0 0 112 55" fill="none" xmlns="http://www.w3.org/2000/svg">
<path d="M18.4054 22.5131C18.4054 22.3664 18.2837 22.2471 18.1352 22.2471H16.1945C16.0452 22.2471 15.9244 22.3664 15.9244 22.5131V26.2545H11.7913V28.7071H15.9244L15.9235 32.4518C15.9235 32.5993 16.0452 32.7179 16.1945 32.7179H18.1344C18.282 32.7179 18.4045 32.5985 18.4045 32.4518" fill="#004179"/>
<path d="M11.7899 26.2554H9.30884C9.30884 26.2554 9.30884 23.2318 9.30884 23.2268C9.30884 22.5488 9.86428 22.0001 10.5498 22.0001C11.2353 22.0001 11.7899 22.5488 11.7899 23.2268V23.2285" fill="#00AB4E"/>
<path d="M11.7907 28.7072H9.30884V32.4519C9.30884 32.5986 9.4305 32.7179 9.57985 32.7179H11.5197C11.669 32.7179 11.7907 32.5986 11.7907 32.4519" fill="#00ADEE"/>
<path d="M64.4 30.6325C64.4 30.4858 64.2783 30.3664 64.129 30.3664H59.4287L59.4295 22.5131C59.4295 22.3664 59.3079 22.2462 59.1602 22.2462H57.2195C57.0701 22.2462 56.9485 22.3664 56.9485 22.5131V32.4509C56.9485 32.5976 57.0701 32.7178 57.2195 32.7178H64.129C64.2783 32.7178 64.4 32.5976 64.4 32.4509" fill="#004179"/>
<path d="M42.4093 27.5119C42.4093 29.2922 41.1868 30.4874 39.3669 30.4874H37.6914V24.4758H39.3669C41.1348 24.4758 42.4093 25.6229 42.4093 27.5119ZM39.591 22.2462H35.4814C35.3337 22.2462 35.2112 22.3664 35.2112 22.5123V32.4518C35.2112 32.5976 35.3337 32.7178 35.4814 32.7178H39.5163C42.7768 32.7178 44.9943 30.5164 44.9943 27.482C44.9943 24.3722 42.7952 22.2462 39.591 22.2462Z" fill="#004179"/>
<path d="M33.2152 22.5131C33.2152 22.3664 33.0935 22.2462 32.945 22.2462H31.0043C30.8558 22.2462 30.7341 22.3664 30.7341 22.5131V32.4509C30.7341 32.5976 30.8558 32.7178 31.0043 32.7178H32.945C33.0935 32.7178 33.2152 32.5976 33.2152 32.4509" fill="#004179"/>
<path d="M28.5425 22.2462H20.5994C20.4509 22.2462 20.3284 22.3664 20.3284 22.5139V24.3565C20.3284 24.5032 20.4509 24.6233 20.5994 24.6233H28.5425C28.691 24.6233 28.8127 24.5032 28.8127 24.3565V22.5139C28.8127 22.3664 28.691 22.2462 28.5425 22.2462Z" fill="#004179"/>
<path d="M28.5425 26.2935H20.5994C20.4509 26.2935 20.3284 26.4136 20.3284 26.5612V28.4037C20.3284 28.5504 20.4509 28.6706 20.5994 28.6706H28.5425C28.691 28.6706 28.8127 28.5504 28.8127 28.4037V26.5612C28.8127 26.4136 28.691 26.2935 28.5425 26.2935Z" fill="#004179"/>
<path d="M28.8127 30.6076C28.8127 30.4609 28.691 30.3407 28.5417 30.3407H20.5994C20.4509 30.3407 20.3284 30.4609 20.3284 30.6076V32.4509C20.3284 32.5976 20.4509 32.7178 20.5994 32.7178H28.5417C28.691 32.7178 28.8127 32.5985 28.8127 32.4509" fill="#004179"/>
<path d="M54.7666 22.2462H46.8242C46.6749 22.2462 46.5532 22.3664 46.5532 22.5139V24.3565C46.5532 24.5032 46.6749 24.6233 46.8242 24.6233H54.7666C54.9159 24.6233 55.0376 24.5032 55.0376 24.3565V22.5139C55.0376 22.3664 54.9159 22.2462 54.7666 22.2462Z" fill="#004179"/>
<path d="M54.7666 26.2935H46.8242C46.6749 26.2935 46.5532 26.4136 46.5532 26.5612V28.4037C46.5532 28.5504 46.6749 28.6706 46.8242 28.6706H54.7666C54.9159 28.6706 55.0376 28.5504 55.0376 28.4037V26.5612C55.0376 26.4136 54.9159 26.2935 54.7666 26.2935Z" fill="#004179"/>
<path d="M55.0367 30.6076C55.0367 30.4609 54.9151 30.3407 54.7666 30.3407H46.8242C46.6749 30.3407 46.5532 30.4609 46.5532 30.6076V32.4509C46.5532 32.5976 46.6749 32.7178 46.8242 32.7178H54.7666C54.9151 32.7178 55.0367 32.5985 55.0367 32.4509" fill="#004179"/>
<path d="M71.4195 30.5272H68.4107V28.4493H71.4195C72.1981 28.4493 72.6 28.9855 72.6 29.4878C72.6 29.9909 72.1788 30.5272 71.4195 30.5272ZM68.4115 24.4186H71.057C71.7039 24.4186 72.1637 24.8678 72.1637 25.4099C72.1637 25.9528 71.7165 26.402 71.057 26.402H68.4115V24.4186ZM73.392 27.2309C74.2311 26.7095 74.6405 25.9868 74.6405 25.0286C74.6405 23.6876 73.5951 22.2462 71.1098 22.2462H66.3097C66.1621 22.2462 66.0396 22.3664 66.0396 22.5131V32.4518C66.0396 32.5985 66.1621 32.7187 66.3097 32.7187H71.5613C73.4692 32.7187 75.1314 31.6287 75.1314 29.7746C75.1314 28.6233 74.6539 27.7572 73.392 27.2309Z" fill="#004179"/>
<path d="M106.999 26.7733C106.999 26.6258 106.876 26.5064 106.728 26.5064H102.329C102.179 26.5064 102.058 26.6258 102.058 26.7733V28.3829C102.058 28.5305 102.179 28.6507 102.329 28.6507H104.589V30.0887C104.144 30.4294 103.328 30.6614 102.526 30.6614C100.753 30.6614 99.3704 29.3278 99.3704 27.4903C99.3704 25.6867 100.811 24.349 102.363 24.349C103.327 24.349 104.086 24.5238 104.902 25.1877C104.94 25.2176 105.003 25.269 105.09 25.269C105.162 25.269 105.231 25.2333 105.292 25.1629L106.462 23.6834C106.527 23.6071 106.536 23.5359 106.532 23.4903C106.522 23.4008 106.464 23.3369 106.417 23.298C105.251 22.3647 104.12 22.0713 102.436 22.0713C99.3922 22.0713 96.8784 24.3697 96.8784 27.5201C96.8784 30.6457 99.1874 32.9084 102.452 32.9084C104.804 32.9084 106.299 31.7969 106.709 31.4621C106.902 31.3046 106.999 31.0875 106.999 30.8206" fill="#004179"/>
<path d="M85.0981 22.5131C85.0981 22.3672 84.9764 22.2462 84.8279 22.2462H76.8839C76.7363 22.2462 76.6138 22.3672 76.6138 22.5131V24.3565C76.6138 24.5032 76.7363 24.6233 76.8839 24.6233H84.8279C84.9764 24.6233 85.0981 24.5032 85.0981 24.3565" fill="#004179"/>
<path d="M85.0981 26.5603C85.0981 26.4136 84.9764 26.2935 84.8279 26.2935H76.8839C76.7363 26.2935 76.6138 26.4136 76.6138 26.5603V28.4037C76.6138 28.5504 76.7363 28.6706 76.8839 28.6706L84.8279 28.6714C84.9764 28.6714 85.0981 28.5504 85.0981 28.4037" fill="#004179"/>
<path d="M85.0981 30.6076C85.0981 30.4609 84.9764 30.3407 84.8279 30.3407H76.8839C76.7363 30.3407 76.6138 30.4609 76.6138 30.6076V32.4509C76.6138 32.5976 76.7363 32.7178 76.8839 32.7178H84.8279C84.9764 32.7178 85.0981 32.5985 85.0981 32.4509" fill="#004179"/>
<path d="M89.5006 24.4219H92.2526C92.8978 24.4219 93.3366 24.9748 93.3366 25.5177C93.3366 26.0597 92.9104 26.5902 92.2526 26.5902H89.5006V24.4219ZM96.1365 32.7178C96.2263 32.7178 96.3077 32.6689 96.3488 32.5902C96.3899 32.5123 96.3832 32.4178 96.3312 32.3457L93.5917 28.5106C94.9602 28.0125 95.6952 26.9358 95.6952 25.5541C95.6952 24.2263 94.8805 22.2462 92.3592 22.2462H87.2897C87.1412 22.2462 87.0195 22.3656 87.0195 22.5131V32.4509C87.0195 32.5976 87.1412 32.7178 87.2897 32.7178H89.2304C89.3789 32.7178 89.5006 32.5976 89.5006 32.4509V28.6648H90.8397L93.4608 32.4385C93.5825 32.6134 93.783 32.7178 93.9978 32.7178" fill="#004179"/>
<path d="M9.30884 28.7063H11.7907V26.2554H9.30884V28.7063Z" fill="#002F2E"/>
<path d="M9.30677 26.2546V28.7055C9.30677 28.7055 6.24597 28.7064 6.24094 28.7064C5.55544 28.7064 5 28.1585 5 27.4805C5 26.8033 5.55544 26.2546 6.24094 26.2546H6.24345" fill="#FFC507"/>
</svg>
