<svg width="263" height="263" viewBox="0 0 263 263" fill="none" xmlns="http://www.w3.org/2000/svg">
<g clip-path="url(#clip0_12672_1561)">
<path d="M68.294 108.906V101.129C68.294 101.002 68.147 100.96 68.063 101.044L53.72 117.106C52.691 118.247 52.103 119.748 52.061 121.291L51.179 152.252C51.179 152.4 51.347 152.442 51.431 152.316L53.216 149.188C53.426 148.829 53.573 148.427 53.615 148.004L56.177 129.131C56.555 126.384 57.773 123.827 59.684 121.84L65.564 115.69C67.307 113.894 68.294 111.442 68.294 108.906Z" fill="#161616"/>
<path d="M26 108.906V101.129C26 101.002 26.147 100.959 26.231 101.044L40.574 117.106C41.603 118.247 42.191 119.748 42.233 121.291L43.115 152.252C43.115 152.4 42.947 152.442 42.863 152.316L41.078 149.188C40.868 148.828 40.721 148.427 40.679 148.004L38.117 129.131C37.739 126.384 36.521 123.827 34.61 121.84L28.73 115.711C26.966 113.872 26 111.442 26 108.906Z" fill="#161616"/>
<path d="M48.995 118.48L47.315 117.022C47.21 116.937 47.063 116.937 46.979 117.022L45.299 118.48C45.005 118.733 44.837 119.114 44.858 119.515L45.971 158.952C45.971 159.057 46.013 159.163 46.055 159.269L47.021 160.96C47.063 161.044 47.189 161.044 47.252 160.96L48.218 159.269C48.281 159.184 48.302 159.079 48.302 158.952L49.415 119.515C49.436 119.114 49.268 118.755 48.995 118.48Z" fill="#161616"/>
<path fill-rule="evenodd" clip-rule="evenodd" d="M157.439 131.245L149.501 124.883C148.85 124.355 148.01 124.059 147.17 124.059H142.361C142.256 124.059 142.214 124.186 142.298 124.249L155.696 135.176V141.178C155.696 141.241 155.738 141.284 155.801 141.284H159.98C160.043 141.284 160.085 141.241 160.085 141.178V135.176L173.504 124.228C173.588 124.165 173.525 124.038 173.42 124.038H168.611C167.771 124.038 166.952 124.334 166.28 124.862L158.363 131.224C158.09 131.456 157.712 131.456 157.439 131.245Z" fill="#161616"/>
<path fill-rule="evenodd" clip-rule="evenodd" d="M187.931 125.053C186.734 123.679 184.613 123.679 183.437 125.053L169.556 141.157C169.493 141.22 169.535 141.347 169.64 141.347H174.176C174.764 141.347 175.331 141.115 175.73 140.692L184.844 129.977C185.285 129.448 186.104 129.448 186.545 129.977L195.701 140.734C196.1 141.136 196.646 141.368 197.213 141.368H201.749C201.854 141.368 201.896 141.241 201.833 141.178L187.931 125.053Z" fill="#161616"/>
<path fill-rule="evenodd" clip-rule="evenodd" d="M88.811 140.354C90.008 141.727 92.129 141.727 93.305 140.354L107.186 124.249C107.249 124.186 107.207 124.059 107.102 124.059H102.566C101.978 124.059 101.411 124.292 101.012 124.714L91.919 135.451C91.478 135.979 90.659 135.979 90.218 135.451L81.062 124.693C80.663 124.292 80.117 124.059 79.55 124.059H75.014C74.909 124.059 74.867 124.186 74.93 124.249L88.811 140.354Z" fill="#161616"/>
<path fill-rule="evenodd" clip-rule="evenodd" d="M235.853 124.059H231.485C231.422 124.059 231.38 124.102 231.38 124.165L231.422 129.913C231.422 130.125 231.254 130.315 231.023 130.315H210.065C209.855 130.315 209.687 130.146 209.687 129.935L209.645 124.186C209.645 124.123 209.603 124.08 209.54 124.08H205.13C205.067 124.08 205.025 124.123 205.025 124.186L205.067 141.22C205.067 141.284 205.109 141.326 205.172 141.326H209.561C209.624 141.326 209.666 141.284 209.666 141.22V135.112C209.666 134.901 209.834 134.711 210.065 134.711H231.023C231.233 134.711 231.422 134.88 231.422 135.112V141.22C231.422 141.284 231.464 141.326 231.527 141.326H235.895C235.958 141.326 236 141.284 236 141.22L235.958 124.186C235.958 124.123 235.916 124.08 235.853 124.059Z" fill="#161616"/>
<path fill-rule="evenodd" clip-rule="evenodd" d="M108.908 129.279V136.106C108.908 138.98 111.218 141.305 114.074 141.305H135.305C138.161 141.305 140.471 138.98 140.471 136.106V129.279C140.471 126.405 138.161 124.08 135.305 124.08H114.095C111.239 124.08 108.908 126.405 108.908 129.279ZM134.192 137.31H115.229C114.158 137.31 113.297 136.444 113.297 135.366V130.04C113.297 128.962 114.158 128.096 115.229 128.096H134.192C135.263 128.096 136.124 128.962 136.124 130.04V135.366C136.124 136.444 135.263 137.31 134.192 137.31Z" fill="#161616"/>
</g>
<defs>
<clipPath id="clip0_12672_1561">
<rect width="262.5" height="262.5" fill="white"/>
</clipPath>
</defs>
</svg>
