<svg width="263" height="263" viewBox="0 0 263 263" fill="none" xmlns="http://www.w3.org/2000/svg">
<g clip-path="url(#clip0_12672_1555)">
<path d="M65.5081 155.227H50.9792V137.281L36.45 122.76V106.773H65.4911L65.5081 155.227ZM17.0835 155.227V106.773H31.5955V124.754L46.1246 139.275V155.21L17.0835 155.227ZM70.3455 101.933H12.2461V160.067H70.3455V101.933Z" fill="#161616"/>
<path d="M107.306 121.567L92.249 137.28H106.523V140.484H84.3457V140.416L99.4028 124.72H85.1804V121.515H107.323V121.567H107.306Z" fill="#161616"/>
<path d="M141.029 140.493H121.322V121.507H141.029V124.881H125.087V128.955H140.195V132.329H125.087V137.101H141.029V140.493Z" fill="#161616"/>
<path d="M174.737 140.493H155.029V121.507H174.737V124.881H158.794V128.955H173.902V132.329H158.794V137.101H174.737V140.493Z" fill="#161616"/>
<path d="M206.536 140.493L192.62 130.693V140.493H188.736V121.507H192.62V130.642L206.144 121.507H212.122L198.53 130.574L212.582 140.476H206.536V140.493Z" fill="#161616"/>
<path d="M250.754 140.493L240.212 133.403H242.17C245.883 133.403 249.136 131.273 249.136 127.659V127.404C249.136 123.722 245.85 121.507 242.033 121.507H226.584V140.476H230.469V130.574L245.032 140.476H250.754V140.493ZM230.452 124.728H242.102C243.55 124.728 244.896 125.307 245.27 126.483C245.287 126.688 245.338 127.182 245.338 127.676C245.338 128.188 245.305 128.682 245.27 128.869C244.879 129.909 243.55 130.54 242.102 130.54H230.452V124.728Z" fill="#161616"/>
</g>
<defs>
<clipPath id="clip0_12672_1555">
<rect width="262.5" height="262.5" fill="white"/>
</clipPath>
</defs>
</svg>
