<svg width="107" height="106" fill="none" xmlns="http://www.w3.org/2000/svg"><path d="M55.649 28.267h-1.767v-5.3a1.766 1.766 0 10-3.533 0v7.067c0 .975.79 1.766 1.766 1.766h3.534a1.766 1.766 0 100-3.533zM20.315 74.2H13.25c-.977 0-1.767.792-1.767 1.767v10.6c0 .975.79 1.766 1.767 1.766h7.066c.977 0 1.767-.791 1.767-1.766v-10.6c0-.975-.79-1.767-1.767-1.767zM18.55 84.8h-3.534v-7.066h3.534V84.8zm3.532-30.033c0-.975-.79-1.767-1.767-1.767H13.25c-.977 0-1.767.792-1.767 1.767v10.6c0 .975.79 1.767 1.767 1.767h7.066c.977 0 1.767-.792 1.767-1.767v-10.6zM18.549 63.6h-3.534v-7.066h3.534V63.6z" fill="#2D8EFF"/><path d="M25.615 44.167c0-.975-.79-1.767-1.766-1.767H4.415v-1.766a1.766 1.766 0 10-3.533 0V100.7c0 2.922 2.378 5.3 5.3 5.3h14.134c2.922 0 5.3-2.378 5.3-5.3a5.306 5.306 0 00-6.209-5.22 7.016 7.016 0 00-6.158-3.613A7.016 7.016 0 007.09 95.48a5.195 5.195 0 00-.908-.08 5.23 5.23 0 00-1.766.325V45.934h19.433c.977 0 1.766-.792 1.766-1.767zM6.182 98.934c.337 0 .66.097.957.288a1.765 1.765 0 001.622.152 1.773 1.773 0 001.059-1.239 3.506 3.506 0 013.429-2.735 3.508 3.508 0 013.429 2.735 1.772 1.772 0 002.68 1.087c1.152-.742 2.724.166 2.724 1.478 0 .974-.791 1.767-1.766 1.767H6.182a1.768 1.768 0 01-1.767-1.767c0-.973.792-1.766 1.767-1.766zm70.667 0H30.915c-.977 0-1.766.791-1.766 1.766v3.534a1.766 1.766 0 103.533 0v-1.767h42.4v1.767a1.766 1.766 0 103.533 0V100.7c0-.975-.79-1.766-1.766-1.766zM30.915 95.4c.977 0 1.767-.791 1.767-1.766v-68.9a1.766 1.766 0 10-3.533 0v68.9c0 .975.79 1.766 1.766 1.766zm45.934-74.2c-.978 0-1.767.792-1.767 1.767v70.667a1.766 1.766 0 103.533 0V22.967c0-.975-.79-1.766-1.766-1.766zm28.266 17.667c-.977 0-1.766.792-1.766 1.767V42.4H83.915a1.766 1.766 0 100 3.534h19.434v49.791a5.251 5.251 0 00-1.767-.325 5.1 5.1 0 00-.908.08 7.016 7.016 0 00-6.159-3.613 7.016 7.016 0 00-6.158 3.612 5.307 5.307 0 00-6.208 5.22 5.307 5.307 0 005.3 5.301h14.133c2.922 0 5.3-2.378 5.3-5.3V40.634c0-.975-.79-1.767-1.767-1.767zm-3.533 63.6H87.449a1.768 1.768 0 01-1.767-1.767c0-.973.791-1.766 1.766-1.766.338 0 .661.097.958.288a1.765 1.765 0 001.622.152 1.772 1.772 0 001.058-1.239 3.506 3.506 0 013.429-2.735 3.508 3.508 0 013.43 2.735c.132.56.524 1.023 1.057 1.239a1.76 1.76 0 001.622-.152c1.154-.742 2.724.166 2.724 1.478 0 .974-.791 1.767-1.766 1.767zm-20.29-86.314l-26.5-15.9a1.762 1.762 0 00-1.82 0l-26.5 15.9a1.766 1.766 0 101.82 3.028l25.59-15.354 25.59 15.354a1.764 1.764 0 002.424-.604 1.766 1.766 0 00-.604-2.424z" fill="#2D8EFF"/><path d="M85.682 86.567c0 .975.79 1.766 1.766 1.766h7.067c.977 0 1.767-.791 1.767-1.766v-10.6c0-.975-.79-1.767-1.767-1.767h-7.067c-.977 0-1.766.792-1.766 1.767v10.6zm3.533-8.833h3.534V84.8h-3.534v-7.066zm-1.767-10.6h7.067c.977 0 1.767-.792 1.767-1.767v-10.6c0-.975-.79-1.767-1.767-1.767h-7.067c-.977 0-1.766.792-1.766 1.767v10.6c0 .975.79 1.767 1.766 1.767zm1.767-10.6h3.534V63.6h-3.534v-7.066zM52.627 85.313c-.32.335-.512.777-.512 1.254 0 .46.193.919.512 1.254a1.82 1.82 0 001.255.513c.46 0 .917-.195 1.254-.513.318-.335.513-.795.513-1.254 0-.477-.195-.919-.513-1.254-.654-.654-1.874-.654-2.509 0zM39.748 65.367c0 .975.79 1.767 1.767 1.767h7.067c.977 0 1.766-.792 1.766-1.767v-10.6c0-.975-.79-1.767-1.766-1.767h-7.067c-.977 0-1.767.792-1.767 1.767v10.6zm3.534-8.833h3.533V63.6h-3.533v-7.066zM59.182 53c-.977 0-1.767.792-1.767 1.767v10.6c0 .975.79 1.767 1.767 1.767h7.066c.977 0 1.767-.792 1.767-1.767v-10.6c0-.975-.79-1.767-1.767-1.767h-7.066zm5.3 10.6h-3.533v-7.066h3.533V63.6zm-10.6-49.466c-7.793 0-14.133 6.34-14.133 14.133 0 7.793 6.34 14.134 14.133 14.134 7.793 0 14.133-6.341 14.133-14.134s-6.34-14.133-14.133-14.133zm0 24.733c-5.846 0-10.6-4.754-10.6-10.6s4.754-10.6 10.6-10.6 10.6 4.754 10.6 10.6-4.754 10.6-10.6 10.6z" fill="#2D8EFF"/><path d="M36.215 75.967c0 .975.79 1.766 1.767 1.766h5.3v15.9a1.766 1.766 0 103.533 0v-15.9H60.95v15.9a1.766 1.766 0 103.533 0v-15.9h5.3a1.766 1.766 0 100-3.533h-31.8c-.977 0-1.767.792-1.767 1.767z" fill="#2D8EFF"/></svg>