<svg width="31" height="31" xmlns="http://www.w3.org/2000/svg"><g clip-path="url(#clip0)" fill="inherit"><path d="M18.193 15.27a2.923 2.923 0 11-5.846 0 2.923 2.923 0 015.846 0z"/><path d="M22.105 10.099a2.716 2.716 0 00-.656-1.009 2.715 2.715 0 00-1.008-.655c-.31-.12-.773-.263-1.628-.302-.925-.042-1.202-.051-3.543-.051-2.342 0-2.62.008-3.544.05-.855.04-1.319.183-1.628.303-.38.14-.725.364-1.008.655a2.718 2.718 0 00-.656 1.009c-.12.309-.263.773-.302 1.628-.042.924-.051 1.202-.051 3.543s.01 2.618.051 3.543c.04.855.182 1.32.302 1.628.14.381.365.725.656 1.008.283.291.627.516 1.008.656.31.12.773.263 1.628.302.925.042 1.202.051 3.543.051 2.342 0 2.62-.009 3.543-.05.855-.04 1.32-.183 1.629-.303a2.907 2.907 0 001.664-1.664c.12-.309.262-.773.302-1.628.042-.925.05-1.202.05-3.543s-.008-2.619-.05-3.543c-.04-.855-.182-1.32-.302-1.628zm-6.835 9.673a4.502 4.502 0 110-9.005 4.502 4.502 0 010 9.005zm4.68-8.13a1.052 1.052 0 110-2.105 1.052 1.052 0 010 2.104z"/><path d="M15.27 0C6.838 0 0 6.838 0 15.27c0 8.432 6.838 15.27 15.27 15.27 8.432 0 15.27-6.838 15.27-15.27C30.54 6.838 23.701 0 15.27 0zm8.715 18.885c-.042.933-.19 1.57-.407 2.128a4.483 4.483 0 01-2.565 2.564c-.558.217-1.195.365-2.128.408-.935.043-1.234.053-3.615.053-2.381 0-2.68-.01-3.615-.053-.933-.043-1.57-.19-2.128-.407a4.296 4.296 0 01-1.554-1.012 4.297 4.297 0 01-1.01-1.553c-.218-.558-.366-1.195-.408-2.128-.043-.935-.053-1.234-.053-3.615 0-2.381.01-2.68.052-3.615.043-.934.191-1.57.408-2.129a4.295 4.295 0 011.011-1.553 4.295 4.295 0 011.553-1.011c.558-.217 1.195-.365 2.129-.408.935-.042 1.234-.052 3.615-.052 2.38 0 2.68.01 3.615.053.933.042 1.57.19 2.128.407.585.22 1.115.565 1.553 1.011.446.438.792.968 1.012 1.553.216.558.365 1.195.407 2.129.043.935.053 1.234.053 3.615 0 2.38-.01 2.68-.053 3.615z"/></g><defs><clipPath id="clip0"><path fill="inherit" d="M0 0h30.539v30.539H0z"/></clipPath></defs></svg>