<svg width="31" height="31" xmlns="http://www.w3.org/2000/svg"><path d="M15.27 0C6.837 0 0 6.836 0 15.27c0 8.433 6.837 15.27 15.27 15.27s15.27-6.837 15.27-15.27C30.54 6.836 23.702 0 15.27 0zm1.757 20.342c-1.413 0-2.741-.764-3.196-1.63 0 0-.76 3.012-.92 3.594-.566 2.056-2.232 4.112-2.362 4.28-.09.117-.29.08-.31-.075-.036-.261-.461-2.855.04-4.97l1.681-7.128s-.417-.835-.417-2.07c0-1.938 1.124-3.385 2.523-3.385 1.19 0 1.764.893 1.764 1.964 0 1.196-.761 2.984-1.154 4.641-.329 1.388.695 2.52 2.063 2.52 2.479 0 4.147-3.183 4.147-6.955 0-2.867-1.93-5.013-5.442-5.013-3.967 0-6.44 2.959-6.44 6.265 0 1.139.336 1.943.863 2.565.241.286.276.4.188.729-.063.24-.206.82-.267 1.049-.087.332-.355.45-.655.328-1.827-.746-2.678-2.748-2.678-4.997 0-3.716 3.133-8.172 9.348-8.172 4.994 0 8.281 3.614 8.281 7.494 0 5.132-2.853 8.966-7.057 8.966z" fill="inherit"/></svg>