<svg width="31" height="31" xmlns="http://www.w3.org/2000/svg"><g clip-path="url(#clip0)" fill="inherit"><path d="M13.368 18.13l4.967-2.86-4.967-2.86v5.72z"/><path d="M15.27 0C6.838 0 0 6.838 0 15.27c0 8.432 6.838 15.27 15.27 15.27 8.432 0 15.27-6.838 15.27-15.27C30.54 6.838 23.701 0 15.27 0zm9.54 15.285s0 3.097-.392 4.59a2.39 2.39 0 01-1.682 1.682c-1.493.393-7.466.393-7.466.393s-5.958 0-7.467-.409a2.391 2.391 0 01-1.682-1.681c-.393-1.478-.393-4.59-.393-4.59s0-3.097.393-4.59a2.44 2.44 0 011.682-1.698c1.494-.393 7.467-.393 7.467-.393s5.973 0 7.466.409c.817.22 1.462.865 1.682 1.682.409 1.493.393 4.605.393 4.605z"/></g><defs><clipPath id="clip0"><path fill="inherit" d="M0 0h30.539v30.539H0z"/></clipPath></defs></svg>