<svg width="276" height="44" xmlns="http://www.w3.org/2000/svg"><path fill-rule="evenodd" clip-rule="evenodd" d="M21.804-.001h95.893a25.766 25.766 0 00-3.275 2.346H21.804c-5.353 0-10.224 2.212-13.755 5.775a19.681 19.681 0 000 27.755c3.531 3.563 8.402 5.775 13.755 5.775h92.618a25.63 25.63 0 003.275 2.346H21.804C9.81 43.996 0 34.095 0 21.996c0-12.1 9.814-22 21.804-22V0z" fill="#000;"/><path fill-rule="evenodd" clip-rule="evenodd" d="M142.986 0h111.208c11.992 0 21.804 9.901 21.804 21.999 0 12.1-9.814 22-21.804 22H142.986c.279-.002.556-.009.831-.02h-7.979c-5.989 0-11.436-2.473-15.384-6.459-3.948-3.983-6.401-9.479-6.401-15.521a22.004 22.004 0 016.401-15.522c3.948-3.983 9.395-6.456 15.384-6.456h7.979a24.68 24.68 0 00-.831-.021z" fill="#2D8EFF"/><path d="M139.155 29.174a10.784 10.784 0 01-3.278 2.228 9.488 9.488 0 01-3.847.806 9.325 9.325 0 01-3.806-.806 10.655 10.655 0 01-3.236-2.2 10.784 10.784 0 01-2.25-3.254 9.518 9.518 0 01-.84-3.965c0-1.33.268-2.611.799-3.84a10.806 10.806 0 012.181-3.265 10.65 10.65 0 013.225-2.27 9.316 9.316 0 013.929-.847 9.43 9.43 0 013.848.81 10.812 10.812 0 013.277 2.247l-2.25 2.272a11.898 11.898 0 00-2.288-1.38c-.785-.356-1.648-.534-2.589-.534-.94 0-1.819.178-2.641.534a6.639 6.639 0 00-2.14 1.457 6.954 6.954 0 00-1.435 2.168 6.726 6.726 0 00-.528 2.66c0 .949.176 1.831.528 2.66a6.87 6.87 0 001.435 2.154 6.72 6.72 0 002.14 1.446 6.582 6.582 0 002.641.533c.941 0 1.788-.173 2.547-.52a6.619 6.619 0 001.978-1.366l2.6 2.27v.002zm42.453-17.44l10.187 20.527h-3.74l-2.302-4.156h-8.264l-1.922 4.156h-4.12l10.159-20.528h.002zm58.603 9.157v8.373c-.614.561-1.3 1.062-2.06 1.499-.65.383-1.435.725-2.357 1.034-.92.31-1.95.464-3.09.464a9.388 9.388 0 01-3.833-.806 10.705 10.705 0 01-3.239-2.2 10.75 10.75 0 01-2.249-3.268 9.684 9.684 0 01-.84-4.004c0-.367.02-.732.061-1.094h3.422a6.182 6.182 0 00.446 3.61 7.684 7.684 0 001.463 2.2 7.273 7.273 0 002.153 1.558 5.992 5.992 0 002.614.589 8.3 8.3 0 002.236-.3 7.291 7.291 0 001.936-.848v-3.39h-4.172v-3.417h7.509zm-7.505-9.13c1.609 0 3.03.305 4.269.917a10.323 10.323 0 013.238 2.5c0 .019-.135.128-.407.328a56.618 56.618 0 01-2.223 1.584c-.56-.584-1.272-1.048-2.139-1.394a7.312 7.312 0 00-2.738-.52v-3.415zm-53.345 12.876h4.877l-2.627-5.277-2.25 5.277zM163.837 11.76v20.5h-3.387v-8.338h-8.642v8.338h-3.387v-20.5h3.387v8.747h8.642V11.76h3.387zm51.368 20.5h-3.767l-4.483-8.363h-4.159v8.363h-3.387V20.48h9.791a2.27 2.27 0 001.105-.329c.289-.159.547-.422.781-.787.236-.36.352-.88.352-1.55 0-.65-.116-1.16-.352-1.521-.234-.365-.492-.628-.781-.788a2.265 2.265 0 00-1.105-.327h-9.791v-3.416h9.78c1.048.056 1.986.31 2.817.765.343.2.686.445 1.03.736.343.291.645.647.908 1.067.261.418.474.917.637 1.49.162.574.244 1.244.244 2.008 0 1.238-.199 2.254-.595 3.048-.398.792-.844 1.414-1.341 1.86-.496.445-.966.752-1.41.916-.441.164-.709.247-.798.247l4.524 8.364v-.003zm47.006-17.085h-13.574V11.76h13.574v3.415zm-10.186 5.113h8.671v3.417H248.64v-3.417h3.387-.002zm0 8.557h10.186v3.415h-13.574v-3.415h3.388z" fill="#fff"/><path d="M96.062 11.761a9.6 9.6 0 013.861.792 10.667 10.667 0 013.239 2.173 10.346 10.346 0 012.233 3.254c.552 1.249.826 2.593.826 4.031a9.82 9.82 0 01-.785 3.896 10.763 10.763 0 01-2.153 3.267c-.913.947-1.987 1.7-3.225 2.256-1.236.556-2.57.834-3.996.834a9.699 9.699 0 01-3.874-.793 10.323 10.323 0 01-3.239-2.186 10.615 10.615 0 01-2.222-3.268 9.802 9.802 0 01-.826-4.004c0-1.385.26-2.692.785-3.92a10.421 10.421 0 012.153-3.24 10.278 10.278 0 013.225-2.214c1.236-.548 2.57-.839 3.996-.876l.002-.002zm.014 17.085a6.37 6.37 0 002.556-.533 6.934 6.934 0 002.163-1.457 7.177 7.177 0 001.485-2.169 6.43 6.43 0 00.557-2.66c0-.912-.177-1.778-.529-2.607a6.981 6.981 0 00-1.447-2.182 7.096 7.096 0 00-2.148-1.498 6.315 6.315 0 00-2.637-.561c-.904 0-1.762.177-2.584.533a6.991 6.991 0 00-2.163 1.457 7.122 7.122 0 00-1.485 2.182 6.53 6.53 0 00-.556 2.674c0 .928.176 1.794.529 2.607.352.806.83 1.522 1.444 2.14a7.024 7.024 0 002.149 1.471 7.176 7.176 0 002.664.603h.002zm-15.24-17.113v3.418h-6.772v17.113h-3.387V15.15h-6.774v-3.418h16.934zm-25.246.028v12.901h-3.387v-12.9h3.387zm-32.356-.028l10.187 20.528h-3.74l-2.302-4.156h-8.265l-1.922 4.156h-4.12l10.16-20.528h.002zm-2.25 12.904h4.877l-2.627-5.277-2.25 5.277zm26.734 7.627c-1.243 0-2.298-.16-3.166-.479-.862-.318-1.576-.73-2.135-1.23a5.41 5.41 0 01-1.282-1.667 8.641 8.641 0 01-.65-1.765 9.005 9.005 0 01-.244-1.517c-.028-.445-.041-.76-.041-.942v-12.9h3.387v12.9c0 .201.022.547.068 1.04.046.491.195.997.447 1.516.254.52.663.98 1.233 1.381.568.4 1.362.6 2.385.6v3.063h-.002z" fill="#000;"/></svg>