<svg width="130" height="130" fill="none" xmlns="http://www.w3.org/2000/svg"><circle cx="65" cy="65" r="65" fill="#2D8EFF"/><path fill-rule="evenodd" clip-rule="evenodd" d="M83.154 78.27c0-.98.523-2.097 1.038-2.61 3.438-3.426 8.568 1.403 5.333 5.081-2.153 2.448-6.37.693-6.37-2.47zM80.19 55.144h11.185c-.69-1.036-1.23-2.1-1.966-3.166-1.39-2.012-3.175-3.999-5.355-5.175-.841-.454-2.787-1.307-3.864-1.397v9.738zM31 69.703v-.253c.045-.874.557-1.71 1.628-1.853 1.922-.257 17.9.278 19.241-.166 1.796-.594 1.824-3.229-.104-3.778-1.195-.341-18.163.058-19.253-.154-.89-.172-1.424-.937-1.512-1.762v-.478a2.005 2.005 0 011.023-1.572c.59-.33 1.368-.216 2.211-.216l9.974.001c1.72.01 2.964-.33 2.964-2.03 0-1.615-.937-1.906-2.694-1.895l-8.898.004c-.885.007-1.254.02-1.778-.38-1.52-1.16-.663-3.68.971-3.68h2.696v-4.733c0-.829.925-1.758 1.752-1.758h36.926v11.766c0 3.027 2.726 2.435 5.66 2.435h8.086c3.426 0 4.717-.278 7.099.99 1.591.847 3.008 2.57 3.008 4.96V78c0 .92-.921 1.72-1.88 1.764-1.15.054-2.476-.006-3.645-.006-.065.78-.611 1.912-.933 2.445-1.576 2.61-3.906 3.776-7.153 3.776-3.502 0-6.912-3.435-7.143-6.221H58.762c-.065.78-.611 1.912-.933 2.445-3.035 5.025-10.284 5.129-13.414-.084-.314-.524-.825-1.674-.882-2.361-1.852 0-4.53.326-5.43-.5-.293-.268-.634-.754-.634-1.258v-6.357h-4.717c-1.076 0-1.703-.955-1.752-1.94zm16.442 8.567c0-3.309 4.035-4.973 6.24-2.745 3.379 3.415-1.364 8.629-5.064 5.351-.54-.478-1.176-1.655-1.176-2.606z" fill="#fff"/></svg>