<svg width="121" height="102" fill="none" xmlns="http://www.w3.org/2000/svg"><path d="M16.4 0C2.432 14.876-3.628 36.486 2.297 57.56c9 32.009 42.251 50.664 74.261 41.663 32.01-9 50.665-42.25 41.664-74.26C115.504 15.29 110.571 6.839 104.127 0H88.773c9.299 6.414 16.5 15.98 19.79 27.679 7.489 26.634-8.087 54.395-34.72 61.884-26.634 7.49-54.395-8.086-61.885-34.72C6.016 33.707 14.599 11.86 31.704 0H16.399z" fill="#D9EBFF"/><path d="M60.562 51.6l-.454 26.189 21.587-52.98-21.736 6.112.455-26.188-21.588 52.98L60.562 51.6z" fill="#D9EBFF"/></svg>