<svg width="16" height="12" xmlns="http://www.w3.org/2000/svg"><path d="M15.86 1.179L11.006 6l4.852 4.821A1.39 1.39 0 0016 10.22V1.78c0-.216-.053-.419-.14-.602zM14.594.375H1.406c-.216 0-.419.053-.602.14l6.202 6.172c.548.548 1.44.548 1.988 0L15.196.516a1.39 1.39 0 00-.602-.141zM.14 1.179A1.39 1.39 0 000 1.78v8.438c0 .216.053.419.14.602L4.994 6 .141 1.179z" fill="inherit"/><path d="M10.344 6.663l-.687.686c-.914.914-2.4.914-3.314 0l-.687-.686-4.852 4.821c.183.088.386.141.602.141h13.188c.216 0 .419-.053.602-.14l-4.852-4.822z" fill="inherit"/></svg>