<svg width="20" height="20" xmlns="http://www.w3.org/2000/svg"><path d="M19.642 17.32c-.407 1.235-2.024 2.26-3.314 2.56-.882.2-2.035.362-5.915-1.366-4.962-2.208-8.158-7.625-8.408-7.977C1.767 10.186 0 7.67 0 5.066S1.23 1.195 1.727.65C2.134.204 2.807 0 3.454 0c.209 0 .396.011.565.02.496.023.745.055 1.073.896.407 1.054 1.4 3.658 1.517 3.925.12.268.241.63.072.982-.158.363-.297.524-.547.832-.249.308-.485.544-.734.875-.228.288-.486.597-.199 1.13.288.521 1.28 2.26 2.74 3.657 1.886 1.803 3.414 2.379 3.96 2.623.408.182.893.139 1.191-.201.378-.438.845-1.164 1.32-1.878.337-.512.764-.576 1.211-.394.456.17 2.869 1.45 3.365 1.716.496.268.823.395.944.62.118.224.118 1.278-.29 2.516z" fill="inherit"/></svg>