<svg width="718" height="175" viewBox="0 0 718 175" fill="none" xmlns="http://www.w3.org/2000/svg">
<path d="M54.6629 167.256C52.5483 169.44 49.9666 170.533 46.9204 170.533C43.8718 170.533 41.2902 169.44 39.1732 167.256C37.0585 165.072 36 162.404 36 159.255C36 156.109 37.0585 153.443 39.1732 151.257C41.2902 149.073 43.8718 147.98 46.9204 147.98C49.9666 147.98 52.5483 149.073 54.6629 151.257C56.78 153.443 57.8363 156.109 57.8363 159.255C57.8363 162.404 56.78 165.072 54.6629 167.256ZM41.6111 164.832C43.0456 166.314 44.813 167.053 46.9204 167.053C49.0255 167.053 50.7929 166.314 52.2274 164.832C53.6619 163.351 54.3779 161.494 54.3779 159.255C54.3779 157.019 53.6619 155.16 52.2274 153.681C50.7929 152.199 49.0255 151.459 46.9204 151.459C44.813 151.459 43.0456 152.199 41.6111 153.681C40.1766 155.16 39.4605 157.019 39.4605 159.255C39.4605 161.494 40.1766 163.351 41.6111 164.832ZM73.4766 148.383H76.9374V170.128H73.4766V160.717H64.4551V170.128H60.9974V148.383H64.4551V157.299H73.4766V148.383ZM79.4326 170.128V166.836C80.7569 167.021 81.7439 166.692 82.3974 165.842C83.0491 164.993 83.3722 163.368 83.3722 160.964V148.383H97.4804V170.128H94.022V151.801H86.8324V160.902C86.8324 162.807 86.6363 164.412 86.2457 165.718C85.8558 167.021 85.2979 168.001 84.5769 168.654C83.8535 169.304 83.0774 169.742 82.2442 169.96C81.4135 170.175 80.4767 170.234 79.4326 170.128ZM115.408 170.128L113.923 165.75H104.969L103.496 170.128H99.7359L107.375 148.383H111.526L119.137 170.128H115.408ZM106.114 162.394H112.785L109.457 152.577L106.114 162.394ZM125.244 146.209V143.29H133.666V146.209H125.244ZM134.028 170.128V155.276L124.036 170.128H121.395V148.383H124.853V163.141L134.779 148.383H137.486V170.128H134.028ZM154.178 148.383H157.639V170.128H154.178V160.717H145.156V170.128H141.699V148.383H145.156V157.299H154.178V148.383ZM161.849 162.3V159.07H172.98V162.3H161.849ZM189.07 148.383V151.801H180.648V170.128H177.19V148.383H189.07ZM204.261 170.128V155.276L194.27 170.128H191.628V148.383H195.087V163.141L205.013 148.383H207.719V170.128H204.261ZM227.421 148.383V170.128H223.963V151.801H215.39V170.128H211.931V148.383H227.421ZM235.092 166.712H244.415V170.128H231.634V148.383H244.266V151.801H235.092V157.455H243.512V160.841H235.092V166.712ZM255.333 148.383C257.318 148.383 258.978 149.068 260.312 150.436C261.646 151.801 262.312 153.497 262.312 155.528C262.312 157.536 261.646 159.231 260.312 160.608C258.978 161.983 257.318 162.673 255.333 162.673H251.032V170.128H247.574V148.383H255.333ZM255.333 159.32C256.356 159.32 257.199 158.961 257.862 158.249C258.523 157.534 258.853 156.626 258.853 155.528C258.853 154.432 258.523 153.525 257.862 152.81C257.199 152.098 256.356 151.739 255.333 151.739H251.032V159.32H255.333ZM285.474 148.383V170.128H282.017V154.628L275.608 165.562H275.186L268.78 154.596V170.128H265.322V148.383H269.051L275.402 159.255L281.77 148.383H285.474ZM303.4 170.128L301.915 165.75H292.963L291.488 170.128H287.731L295.37 148.383H299.52L307.129 170.128H303.4ZM294.105 162.394H300.777L297.449 152.577L294.105 162.394ZM317.146 148.383C319.132 148.383 320.791 149.068 322.123 150.436C323.459 151.801 324.125 153.497 324.125 155.528C324.125 157.536 323.459 159.231 322.123 160.608C320.791 161.983 319.132 162.673 317.146 162.673H312.845V170.128H309.387V148.383H317.146ZM317.146 159.32C318.169 159.32 319.012 158.961 319.673 158.249C320.336 157.534 320.667 156.626 320.667 155.528C320.667 154.432 320.336 153.525 319.673 152.81C319.012 152.098 318.169 151.739 317.146 151.739H312.845V159.32H317.146ZM343.015 170.128H338.894L330.593 159.77V170.128H327.132V148.383H330.593V158.142L338.595 148.383H342.714L334.202 158.976L343.015 170.128ZM348.729 166.712H358.055V170.128H345.271V148.383H357.904V151.801H348.729V157.455H357.152V160.841H348.729V166.712ZM374.898 148.383V151.801H368.973V170.128H365.515V151.801H359.559V148.383H374.898ZM395.682 158.852C397.828 159.908 398.901 161.659 398.901 164.103C398.901 166.007 398.204 167.556 396.811 168.748C395.416 169.937 393.597 170.533 391.35 170.533C387.499 170.533 384.954 168.854 383.711 165.5L386.687 163.729C387.31 166.027 388.864 167.177 391.35 167.177C392.675 167.177 393.688 166.883 394.389 166.292C395.091 165.703 395.443 164.909 395.443 163.915C395.443 162.943 395.106 162.159 394.435 161.57C393.762 160.982 392.813 160.685 391.592 160.685H389.034V157.455H390.9C392.083 157.455 393.005 157.175 393.668 156.616C394.327 156.055 394.66 155.31 394.66 154.38C394.66 153.448 394.358 152.706 393.757 152.157C393.156 151.61 392.294 151.336 391.171 151.336C389.085 151.336 387.681 152.32 386.96 154.286L384.013 152.516C385.375 149.493 387.76 147.98 391.171 147.98C393.235 147.98 394.911 148.556 396.193 149.703C397.476 150.854 398.118 152.35 398.118 154.192C398.118 156.243 397.306 157.796 395.682 158.852ZM415.624 170.128L414.139 165.75H405.185L403.713 170.128H399.953L407.595 148.383H411.742L419.353 170.128H415.624ZM406.33 162.394H413.002L409.673 152.577L406.33 162.394ZM429.37 148.383C431.356 148.383 433.016 149.068 434.347 150.436C435.681 151.801 436.347 153.497 436.347 155.528C436.347 157.536 435.681 159.231 434.347 160.608C433.016 161.983 431.356 162.673 429.37 162.673H425.07V170.128H421.611V148.383H429.37ZM429.37 159.32C430.393 159.32 431.236 158.961 431.897 158.249C432.558 157.534 432.888 156.626 432.888 155.528C432.888 154.432 432.558 153.525 431.897 152.81C431.236 152.098 430.393 151.739 429.37 151.739H425.07V159.32H429.37ZM453.103 148.383V170.128H449.643V162.206H446.299L441.222 170.128H437.312L442.664 161.897C441.283 161.461 440.143 160.638 439.251 159.426C438.361 158.214 437.913 156.864 437.913 155.375C437.913 153.426 438.571 151.776 439.882 150.418C441.196 149.063 442.796 148.383 444.681 148.383H453.103ZM444.681 159.008H449.643V151.739H444.681C443.759 151.739 442.976 152.09 442.334 152.795C441.695 153.497 441.371 154.358 441.371 155.375C441.371 156.389 441.695 157.247 442.334 157.952C442.976 158.657 443.759 159.008 444.681 159.008ZM473.105 166.712H475.361V174.29H471.903V170.128H459.119V174.29H455.661V166.712H457.616C458.837 165.055 459.45 162.56 459.45 159.226V148.383H473.105V166.712ZM461.404 166.712H469.647V151.739H462.91V159.287C462.91 162.52 462.407 164.993 461.404 166.712ZM490.853 148.383H494.311V170.128H490.853V160.717H481.83V170.128H478.371V148.383H481.83V157.299H490.853V148.383ZM498.524 170.128V148.383H501.982V155.84H506.283C508.269 155.84 509.928 156.527 511.26 157.905C512.593 159.282 513.259 160.977 513.259 162.985C513.259 164.993 512.593 166.687 511.26 168.063C509.928 169.44 508.269 170.128 506.283 170.128H498.524ZM515.304 170.128V148.383H518.765V170.128H515.304ZM501.982 166.774H506.283C507.303 166.774 508.146 166.418 508.809 165.703C509.471 164.988 509.801 164.083 509.801 162.985C509.801 161.887 509.471 160.982 508.809 160.267C508.146 159.552 507.303 159.196 506.283 159.196H501.982V166.774ZM538.465 170.128H534.525L529.899 162.275L525.262 170.128H521.323L527.932 158.934L521.713 148.383H525.624L529.894 155.617L534.164 148.383H538.106L531.865 158.951L538.465 170.128ZM558.5 170.533C555.329 170.533 552.704 169.45 550.619 167.286C548.532 165.124 547.491 162.446 547.491 159.255C547.491 156.067 548.532 153.391 550.619 151.227C552.704 149.063 555.329 147.98 558.5 147.98C560.404 147.98 562.164 148.447 563.778 149.377C565.392 150.309 566.649 151.573 567.553 153.169L564.545 154.969C563.982 153.893 563.165 153.04 562.094 152.407C561.02 151.776 559.822 151.459 558.5 151.459C556.254 151.459 554.433 152.197 553.04 153.666C551.646 155.135 550.949 156.997 550.949 159.255C550.949 161.513 551.646 163.376 553.04 164.85C554.433 166.319 556.254 167.053 558.5 167.053C559.822 167.053 561.024 166.739 562.107 166.106C563.192 165.476 564.003 164.62 564.545 163.544L567.553 165.312C566.671 166.91 565.421 168.176 563.807 169.119C562.195 170.061 560.423 170.533 558.5 170.533ZM583.945 148.383V151.801H578.02V170.128H574.562V151.801H568.606V148.383H583.945ZM598.714 170.128L597.229 165.75H588.278L586.802 170.128H583.044L590.684 148.383H594.834L602.443 170.128H598.714ZM589.42 162.394H596.092L592.763 152.577L589.42 162.394ZM617.185 148.383H620.643V170.128H617.185V160.717H608.161V170.128H604.701V148.383H608.161V157.299H617.185V148.383ZM640.341 166.712H642.598V174.29H639.14V170.128H624.855V148.383H628.313V166.712H636.884V148.383H640.341V166.712ZM658.237 170.128V155.276L648.25 170.128H645.608V148.383H649.065V163.141L658.997 148.383H661.701V170.128H658.237ZM669.763 146.209V143.29H678.18V146.209H669.763ZM678.542 170.128V155.276L668.555 170.128H665.913V148.383H669.371V163.141L679.296 148.383H682V170.128H678.542Z" fill="black"/>
<path fill-rule="evenodd" clip-rule="evenodd" d="M56.7038 0H306.165C303.192 1.79249 300.351 3.80357 297.684 6.03325H56.7038C42.8011 6.03325 30.1225 11.7605 20.9415 20.9415C11.7605 30.1225 6.03325 42.8011 6.03325 56.7038C6.03325 70.6502 11.7605 83.3287 20.9415 92.5098C30.1225 101.691 42.8011 107.418 56.7038 107.418H297.684C300.351 109.648 303.192 111.659 306.165 113.451H56.7038C25.532 113.451 0 87.9193 0 56.7038C0 25.532 25.532 0 56.7038 0Z" fill="black"/>
<path fill-rule="evenodd" clip-rule="evenodd" d="M371.963 0H661.296C692.468 0 718 25.532 718 56.7038C718 87.9193 692.468 113.451 661.296 113.451H371.963C372.706 113.451 373.405 113.408 374.149 113.408H353.382C337.818 113.408 323.653 107.025 313.379 96.7505C303.105 86.4765 296.722 72.3115 296.722 56.7038C296.722 41.1397 303.105 26.9747 313.379 16.7007C323.653 6.42672 337.818 0.0437192 353.382 0.0437192H374.149C373.405 0.0437192 372.706 0 371.963 0Z" fill="#2D8EFF"/>
<path d="M210.289 30.2537V39.0849H192.67V83.1976H183.883V39.0849H166.264V30.2537H183.883H210.289ZM144.623 30.3411V63.6114H135.792V30.3411H144.623ZM60.4199 30.2537L86.9575 83.1976H77.2081L71.2186 72.4864H49.7087L44.7247 83.1976H34.0135L60.4199 30.2537ZM54.6053 63.524H67.2838L60.4199 49.9273L54.6053 63.524ZM124.119 83.1976C120.927 83.1976 118.173 82.7604 115.9 81.9734C113.67 81.1428 111.79 80.0935 110.347 78.7819C108.904 77.5141 107.768 76.0714 107.025 74.4975C106.238 72.9236 105.669 71.3934 105.32 69.9507C104.97 68.4642 104.751 67.1964 104.707 66.0159C104.62 64.8792 104.576 64.0486 104.576 63.6114V30.3411H113.408V63.6114C113.408 64.0923 113.451 65.0104 113.582 66.2783C113.67 67.5461 114.063 68.8577 114.719 70.1693C115.375 71.5246 116.468 72.705 117.954 73.7542C119.397 74.7598 121.496 75.2844 124.119 75.2844V83.1976Z" fill="black"/>
<path d="M246.358 23.521H252.828C254.62 23.521 256.063 24.9637 256.063 26.7562V34.8443H243.122V26.7562C243.122 24.9637 244.565 23.521 246.358 23.521Z" fill="black"/>
<path fill-rule="evenodd" clip-rule="evenodd" d="M249.899 30.3413C253.44 30.3413 256.763 30.9971 259.954 32.3524C263.102 33.7514 265.944 35.5876 268.348 37.9922C270.797 40.353 272.764 43.151 274.163 46.3425C275.606 49.5777 276.349 53.0316 276.349 56.7477C276.349 60.2889 275.649 63.6116 274.294 66.8031C272.939 69.9946 271.059 72.7926 268.698 75.2409C266.293 77.6892 263.539 79.6128 260.304 81.0555C257.069 82.4546 253.615 83.1978 249.899 83.1978C246.401 83.1978 243.035 82.4983 239.843 81.143C236.608 79.7877 233.81 77.9078 231.406 75.5032C229.001 73.0987 227.034 70.3006 225.635 67.0654C224.192 63.8739 223.492 60.4201 223.492 56.7477C223.492 53.2064 224.148 49.7963 225.503 46.6486C226.859 43.4571 228.739 40.7028 231.1 38.2982C233.504 35.8936 236.302 34.0137 239.494 32.571C242.729 31.172 246.183 30.4287 249.899 30.3413Z" fill="#2D8EFF"/>
<path fill-rule="evenodd" clip-rule="evenodd" d="M260.173 56.3979C264.501 56.3979 267.999 59.8955 267.999 64.2237C267.999 68.5519 264.501 72.0494 260.173 72.0494C255.845 72.0494 252.347 68.5519 252.347 64.2237C252.347 59.8955 255.845 56.3979 260.173 56.3979Z" fill="#FEFEFE" fill-opacity="0.501961"/>
<path d="M248.675 21.6848H250.511V23.521H248.675V21.6848ZM248.675 6.99512H250.511V8.83132H248.675V6.99512ZM248.675 10.6675H250.511V12.5037H248.675V10.6675ZM248.675 14.3399H250.511V16.1761H248.675V14.3399ZM248.675 18.0123H250.511V19.8486H248.675V18.0123Z" fill="black"/>
<path fill-rule="evenodd" clip-rule="evenodd" d="M261.572 60.6387C264.632 60.6387 267.08 63.0869 267.08 66.1036C267.08 69.1202 264.632 71.5685 261.572 71.5685C258.555 71.5685 256.107 69.1202 256.107 66.1036C256.107 63.0869 258.555 60.6387 261.572 60.6387Z" fill="#FEFEFE" fill-opacity="0.501961"/>
<path fill-rule="evenodd" clip-rule="evenodd" d="M361.907 0.0439453L318.232 101.079C316.527 99.7237 314.909 98.2809 313.379 96.7508C303.105 86.4767 296.722 72.3117 296.722 56.704C296.722 41.14 303.105 26.975 313.379 16.701C323.653 6.42694 337.818 0.0439453 353.382 0.0439453H361.907Z" fill="#FEFEFE" fill-opacity="0.101961"/>
<path fill-rule="evenodd" clip-rule="evenodd" d="M478.244 0L429.191 113.451H371.963C372.706 113.451 373.405 113.408 374.149 113.408H371.045L420.054 0H478.244Z" fill="#FEFEFE" fill-opacity="0.101961"/>
<path fill-rule="evenodd" clip-rule="evenodd" d="M594.537 0L545.484 113.451H487.338L536.391 0H594.537Z" fill="#FEFEFE" fill-opacity="0.101961"/>
<path fill-rule="evenodd" clip-rule="evenodd" d="M702.917 18.3183L661.777 113.451C661.602 113.451 661.471 113.451 661.296 113.451H603.631L652.684 0H661.296C677.691 0 692.555 7.08251 702.917 18.3183Z" fill="#FEFEFE" fill-opacity="0.101961"/>
<path d="M361.995 75.2407C359.503 77.689 356.661 79.5689 353.47 80.9679C350.278 82.3669 346.955 83.0664 343.458 83.0664C340.048 83.0664 336.725 82.3669 333.577 80.9679C330.386 79.5689 327.588 77.689 325.139 75.2844C322.691 72.8799 320.768 70.1255 319.281 66.8903C317.838 63.6988 317.095 60.2887 317.095 56.7038C317.095 53.2499 317.795 49.971 319.194 46.7795C320.593 43.6317 322.473 40.79 324.877 38.3854C327.238 35.9372 330.036 33.9698 333.271 32.5271C336.463 31.0406 339.873 30.3411 343.458 30.3411C346.955 30.3411 350.278 31.0406 353.47 32.4396C356.661 33.8386 359.503 35.7623 361.995 38.2106L356.136 44.0689C354.213 42.6262 352.245 41.4458 350.191 40.5277C348.136 39.6096 345.906 39.1287 343.458 39.1287C341.01 39.1287 338.736 39.6096 336.594 40.5277C334.452 41.4458 332.615 42.6699 331.042 44.2875C329.468 45.8614 328.2 47.7413 327.282 49.8836C326.364 51.9821 325.926 54.2992 325.926 56.7038C325.926 59.152 326.364 61.4254 327.282 63.5677C328.2 65.7099 329.468 67.5461 331.042 69.12C332.615 70.6939 334.452 71.9618 336.594 72.8799C338.736 73.798 341.01 74.2351 343.458 74.2351C345.906 74.2351 348.136 73.798 350.103 72.8799C352.07 72.0055 353.776 70.8251 355.262 69.3823L361.995 75.2407ZM682.15 39.1287H662.914H655.613H646.825V30.3411H665.187H682.15V39.1287ZM655.613 52.3318H662.914H678.172V61.1194H655.613H646.825V52.3318H655.613ZM655.613 74.3663H682.15V83.1976H646.825V74.3663H655.613ZM472.429 30.2537L498.967 83.1976H489.218L483.228 72.4864H461.718L456.734 83.1976H446.023L472.429 30.2537ZM624.922 53.862V75.4593C623.304 76.902 621.512 78.2136 619.544 79.3066C617.839 80.3121 615.828 81.1865 613.424 81.9734C611.019 82.8041 608.352 83.1976 605.379 83.1976C601.882 83.1976 598.559 82.4981 595.411 81.0991C592.22 79.7438 589.422 77.8201 586.974 75.4156C584.525 73.0547 582.602 70.213 581.115 67.0215C579.673 63.7863 578.929 60.3325 578.929 56.7038C578.929 55.7419 579.017 54.7801 579.104 53.862H588.023C587.848 54.7801 587.761 55.7419 587.761 56.7038C587.761 58.8897 588.241 61.0757 589.16 63.1742C590.121 65.2727 591.389 67.1964 592.963 68.8577C594.581 70.519 596.461 71.8743 598.559 72.8799C600.701 73.8854 602.975 74.3663 605.379 74.3663C607.39 74.3663 609.358 74.104 611.194 73.6231C613.03 73.0985 614.735 72.3552 616.222 71.4371V62.6933H605.379V53.862H624.922ZM605.379 30.3411C609.576 30.3411 613.249 31.128 616.484 32.7019C619.719 34.2758 622.517 36.4181 624.922 39.1287C624.922 39.1724 624.528 39.4784 623.829 40.003C623.129 40.4839 622.386 41.0523 621.512 41.6644C620.55 42.3639 619.37 43.1945 618.058 44.0689C616.615 42.5825 614.735 41.3583 612.506 40.4839C610.232 39.5658 607.871 39.1287 605.379 39.1287V30.3411ZM466.615 63.524H479.293L472.429 49.9273L466.615 63.524ZM426.218 30.3411V83.1976H417.387V61.6877H394.915V83.1976H386.128V30.3411H394.915V52.9002H417.387V30.3411H426.218ZM559.868 83.1976H550.031L538.402 61.644H527.559V83.1976H518.772V52.8128H527.559H533.899H544.216C545.309 52.769 546.271 52.463 547.102 51.9821C547.845 51.5449 548.544 50.8891 549.157 49.9273C549.725 49.0092 550.031 47.6539 550.031 45.9488C550.031 44.2438 549.725 42.9322 549.157 42.0141C548.544 41.096 547.845 40.3965 547.102 40.003C546.271 39.4784 545.309 39.1724 544.216 39.1287H533.899H527.559H518.772V30.3411H544.216C546.927 30.4723 549.375 31.128 551.517 32.3085C552.435 32.8331 553.31 33.4452 554.228 34.1884C555.102 34.9753 555.889 35.8934 556.589 36.9427C557.245 38.0357 557.813 39.3035 558.206 40.79C558.644 42.2764 558.862 43.9815 558.862 45.9926C558.862 49.1841 558.338 51.8072 557.332 53.8183C556.283 55.8731 555.102 57.4907 553.834 58.6274C552.523 59.7641 551.299 60.551 550.162 60.9882C549.025 61.4254 548.326 61.644 548.064 61.644L559.868 83.1976Z" fill="#FEFEFE"/>
</svg>
