<svg width="24" height="24" xmlns="http://www.w3.org/2000/svg"><circle cx="12" cy="12" r="12" fill="inherit"/><path d="M13.015 11.988h-2.03a3.623 3.623 0 00-3.619 3.62V18h9.268v-2.393a3.623 3.623 0 00-3.62-3.619zm-4.946 5.309v-1.69a2.92 2.92 0 012.916-2.916h2.03a2.92 2.92 0 012.916 2.916v1.69H8.069zM12 6a2.802 2.802 0 00-2.799 2.799A2.802 2.802 0 0012 11.597 2.802 2.802 0 0014.799 8.8 2.802 2.802 0 0012 6zm0 4.894A2.098 2.098 0 019.904 8.8c0-1.156.94-2.096 2.096-2.096 1.155 0 2.095.94 2.095 2.096 0 1.155-.94 2.095-2.095 2.095z" fill="#fff"/></svg>