<svg width="718" height="113" viewBox="0 0 718 113" fill="none" xmlns="http://www.w3.org/2000/svg">
<path fill-rule="evenodd" clip-rule="evenodd" d="M56.7038 0H306.165C303.192 1.79249 300.351 3.80357 297.684 6.03325H56.7038C42.8011 6.03325 30.1225 11.7605 20.9415 20.9415C11.7605 30.1225 6.03325 42.8011 6.03325 56.7038C6.03325 70.6502 11.7605 83.3287 20.9415 92.5098C30.1225 101.691 42.8011 107.418 56.7038 107.418H297.684C300.351 109.648 303.192 111.659 306.165 113.451H56.7038C25.532 113.451 0 87.9193 0 56.7038C0 25.532 25.532 0 56.7038 0Z" fill="black"/>
<path fill-rule="evenodd" clip-rule="evenodd" d="M371.963 0H661.296C692.468 0 718 25.532 718 56.7038C718 87.9193 692.468 113.451 661.296 113.451H371.963C372.706 113.451 373.405 113.408 374.149 113.408H353.382C337.818 113.408 323.653 107.025 313.379 96.7505C303.105 86.4765 296.722 72.3115 296.722 56.7038C296.722 41.1397 303.105 26.9747 313.379 16.7007C323.653 6.42672 337.818 0.0437192 353.382 0.0437192H374.149C373.405 0.0437192 372.706 0 371.963 0Z" fill="#2D8EFF"/>
<path d="M210.289 30.2537V39.0849H192.67V83.1976H183.883V39.0849H166.264V30.2537H183.883H210.289ZM144.623 30.3411V63.6114H135.792V30.3411H144.623ZM60.4199 30.2537L86.9575 83.1976H77.2081L71.2186 72.4864H49.7087L44.7247 83.1976H34.0135L60.4199 30.2537ZM54.6053 63.524H67.2838L60.4199 49.9273L54.6053 63.524ZM124.119 83.1976C120.927 83.1976 118.173 82.7604 115.9 81.9734C113.67 81.1428 111.79 80.0935 110.347 78.7819C108.904 77.5141 107.768 76.0714 107.025 74.4975C106.238 72.9236 105.669 71.3934 105.32 69.9507C104.97 68.4642 104.751 67.1964 104.707 66.0159C104.62 64.8792 104.576 64.0486 104.576 63.6114V30.3411H113.408V63.6114C113.408 64.0923 113.451 65.0104 113.582 66.2783C113.67 67.5461 114.063 68.8577 114.719 70.1693C115.375 71.5246 116.468 72.705 117.954 73.7542C119.397 74.7598 121.496 75.2844 124.119 75.2844V83.1976Z" fill="black"/>
<path d="M246.358 23.521H252.828C254.62 23.521 256.063 24.9637 256.063 26.7562V34.8443H243.122V26.7562C243.122 24.9637 244.565 23.521 246.358 23.521Z" fill="black"/>
<path fill-rule="evenodd" clip-rule="evenodd" d="M249.899 30.3413C253.44 30.3413 256.763 30.9971 259.954 32.3524C263.102 33.7514 265.944 35.5876 268.348 37.9922C270.797 40.353 272.764 43.151 274.163 46.3425C275.606 49.5777 276.349 53.0316 276.349 56.7477C276.349 60.2889 275.649 63.6116 274.294 66.8031C272.939 69.9946 271.059 72.7926 268.698 75.2409C266.293 77.6892 263.539 79.6128 260.304 81.0555C257.069 82.4546 253.615 83.1978 249.899 83.1978C246.401 83.1978 243.035 82.4983 239.843 81.143C236.608 79.7877 233.81 77.9078 231.406 75.5032C229.001 73.0987 227.034 70.3006 225.635 67.0654C224.192 63.8739 223.492 60.4201 223.492 56.7477C223.492 53.2064 224.148 49.7963 225.503 46.6486C226.859 43.4571 228.739 40.7028 231.1 38.2982C233.504 35.8936 236.302 34.0137 239.494 32.571C242.729 31.172 246.183 30.4287 249.899 30.3413Z" fill="#2D8EFF"/>
<path fill-rule="evenodd" clip-rule="evenodd" d="M260.173 56.3979C264.501 56.3979 267.999 59.8955 267.999 64.2237C267.999 68.5519 264.501 72.0494 260.173 72.0494C255.845 72.0494 252.347 68.5519 252.347 64.2237C252.347 59.8955 255.845 56.3979 260.173 56.3979Z" fill="#FEFEFE" fill-opacity="0.501961"/>
<path d="M248.675 21.6848H250.511V23.521H248.675V21.6848ZM248.675 6.99512H250.511V8.83132H248.675V6.99512ZM248.675 10.6675H250.511V12.5037H248.675V10.6675ZM248.675 14.3399H250.511V16.1761H248.675V14.3399ZM248.675 18.0123H250.511V19.8486H248.675V18.0123Z" fill="black"/>
<path fill-rule="evenodd" clip-rule="evenodd" d="M261.572 60.6387C264.632 60.6387 267.08 63.0869 267.08 66.1036C267.08 69.1202 264.632 71.5685 261.572 71.5685C258.555 71.5685 256.107 69.1202 256.107 66.1036C256.107 63.0869 258.555 60.6387 261.572 60.6387Z" fill="#FEFEFE" fill-opacity="0.501961"/>
<path fill-rule="evenodd" clip-rule="evenodd" d="M361.907 0.0439453L318.232 101.079C316.527 99.7237 314.909 98.2809 313.379 96.7508C303.105 86.4767 296.722 72.3117 296.722 56.704C296.722 41.14 303.105 26.975 313.379 16.701C323.653 6.42694 337.818 0.0439453 353.382 0.0439453H361.907Z" fill="#FEFEFE" fill-opacity="0.101961"/>
<path fill-rule="evenodd" clip-rule="evenodd" d="M478.244 0L429.191 113.451H371.963C372.706 113.451 373.405 113.408 374.149 113.408H371.045L420.054 0H478.244Z" fill="#FEFEFE" fill-opacity="0.101961"/>
<path fill-rule="evenodd" clip-rule="evenodd" d="M594.537 0L545.484 113.451H487.338L536.391 0H594.537Z" fill="#FEFEFE" fill-opacity="0.101961"/>
<path fill-rule="evenodd" clip-rule="evenodd" d="M702.917 18.3183L661.777 113.451C661.602 113.451 661.471 113.451 661.296 113.451H603.631L652.684 0H661.296C677.691 0 692.555 7.08251 702.917 18.3183Z" fill="#FEFEFE" fill-opacity="0.101961"/>
<path d="M361.995 75.2407C359.503 77.689 356.661 79.5689 353.47 80.9679C350.278 82.3669 346.955 83.0664 343.458 83.0664C340.048 83.0664 336.725 82.3669 333.577 80.9679C330.386 79.5689 327.588 77.689 325.139 75.2844C322.691 72.8799 320.768 70.1255 319.281 66.8903C317.838 63.6988 317.095 60.2887 317.095 56.7038C317.095 53.2499 317.795 49.971 319.194 46.7795C320.593 43.6317 322.473 40.79 324.877 38.3854C327.238 35.9372 330.036 33.9698 333.271 32.5271C336.463 31.0406 339.873 30.3411 343.458 30.3411C346.955 30.3411 350.278 31.0406 353.47 32.4396C356.661 33.8386 359.503 35.7623 361.995 38.2106L356.136 44.0689C354.213 42.6262 352.245 41.4458 350.191 40.5277C348.136 39.6096 345.906 39.1287 343.458 39.1287C341.01 39.1287 338.736 39.6096 336.594 40.5277C334.452 41.4458 332.615 42.6699 331.042 44.2875C329.468 45.8614 328.2 47.7413 327.282 49.8836C326.364 51.9821 325.926 54.2992 325.926 56.7038C325.926 59.152 326.364 61.4254 327.282 63.5677C328.2 65.7099 329.468 67.5461 331.042 69.12C332.615 70.6939 334.452 71.9618 336.594 72.8799C338.736 73.798 341.01 74.2351 343.458 74.2351C345.906 74.2351 348.136 73.798 350.103 72.8799C352.07 72.0055 353.776 70.8251 355.262 69.3823L361.995 75.2407ZM682.15 39.1287H662.914H655.613H646.825V30.3411H665.187H682.15V39.1287ZM655.613 52.3318H662.914H678.172V61.1194H655.613H646.825V52.3318H655.613ZM655.613 74.3663H682.15V83.1976H646.825V74.3663H655.613ZM472.429 30.2537L498.967 83.1976H489.218L483.228 72.4864H461.718L456.734 83.1976H446.023L472.429 30.2537ZM624.922 53.862V75.4593C623.304 76.902 621.512 78.2136 619.544 79.3066C617.839 80.3121 615.828 81.1865 613.424 81.9734C611.019 82.8041 608.352 83.1976 605.379 83.1976C601.882 83.1976 598.559 82.4981 595.411 81.0991C592.22 79.7438 589.422 77.8201 586.974 75.4156C584.525 73.0547 582.602 70.213 581.115 67.0215C579.673 63.7863 578.929 60.3325 578.929 56.7038C578.929 55.7419 579.017 54.7801 579.104 53.862H588.023C587.848 54.7801 587.761 55.7419 587.761 56.7038C587.761 58.8897 588.241 61.0757 589.16 63.1742C590.121 65.2727 591.389 67.1964 592.963 68.8577C594.581 70.519 596.461 71.8743 598.559 72.8799C600.701 73.8854 602.975 74.3663 605.379 74.3663C607.39 74.3663 609.358 74.104 611.194 73.6231C613.03 73.0985 614.735 72.3552 616.222 71.4371V62.6933H605.379V53.862H624.922ZM605.379 30.3411C609.576 30.3411 613.249 31.128 616.484 32.7019C619.719 34.2758 622.517 36.4181 624.922 39.1287C624.922 39.1724 624.528 39.4784 623.829 40.003C623.129 40.4839 622.386 41.0523 621.512 41.6644C620.55 42.3639 619.37 43.1945 618.058 44.0689C616.615 42.5825 614.735 41.3583 612.506 40.4839C610.232 39.5658 607.871 39.1287 605.379 39.1287V30.3411ZM466.615 63.524H479.293L472.429 49.9273L466.615 63.524ZM426.218 30.3411V83.1976H417.387V61.6877H394.915V83.1976H386.128V30.3411H394.915V52.9002H417.387V30.3411H426.218ZM559.868 83.1976H550.031L538.402 61.644H527.559V83.1976H518.772V52.8128H527.559H533.899H544.216C545.309 52.769 546.271 52.463 547.102 51.9821C547.845 51.5449 548.544 50.8891 549.157 49.9273C549.725 49.0092 550.031 47.6539 550.031 45.9488C550.031 44.2438 549.725 42.9322 549.157 42.0141C548.544 41.096 547.845 40.3965 547.102 40.003C546.271 39.4784 545.309 39.1724 544.216 39.1287H533.899H527.559H518.772V30.3411H544.216C546.927 30.4723 549.375 31.128 551.517 32.3085C552.435 32.8331 553.31 33.4452 554.228 34.1884C555.102 34.9753 555.889 35.8934 556.589 36.9427C557.245 38.0357 557.813 39.3035 558.206 40.79C558.644 42.2764 558.862 43.9815 558.862 45.9926C558.862 49.1841 558.338 51.8072 557.332 53.8183C556.283 55.8731 555.102 57.4907 553.834 58.6274C552.523 59.7641 551.299 60.551 550.162 60.9882C549.025 61.4254 548.326 61.644 548.064 61.644L559.868 83.1976Z" fill="#FEFEFE"/>
</svg>
