<svg viewBox="0 0 21 24" fill="none" xmlns="http://www.w3.org/2000/svg"><path fill-rule="evenodd" clip-rule="evenodd" d="M19.228 20.113a2.568 2.568 0 01-.173.094c.061.142.228.453.406.761.13.233.264.461.361.608.03-.191.056-.408.078-.594l.005-.07c.025-.208.05-.369.07-.491.05-.322.058-.372-.1-.678-.09.042-.198.109-.29.164a7.652 7.652 0 01-.358.206zM9.33 4.59a1.568 1.568 0 00-.456 1.123 1.621 1.621 0 001.623 1.622c.469 0 .858-.18 1.136-.461.152-.153.275-.337.355-.537.083-.2.128-.416.128-.633 0-.4-.147-.808-.475-1.136a1.568 1.568 0 00-1.122-.466 1.706 1.706 0 00-1.189.489zm-1.403.99v-.095c0-.178.036-.35.092-.511.053-.159.117-.3.178-.42A2.45 2.45 0 019.164 3.5c.411-.24.903-.356 1.47-.356.625 0 1.233.295 1.686.747.45.45.747 1.059.747 1.684 0 .255-.003.47-.04.683a2.104 2.104 0 01-.232.661c-.261.486-.642.85-1.084 1.08a2.635 2.635 0 01-2.438 0 2.604 2.604 0 01-1.067-1.088c-.278-.534-.278-.797-.278-1.33zM9.525 0h2.02c.094 0 .175.042.236.103.07.066.12.16.144.241.064.192.056.88.05 1.284 0 .044 0 .083-.003.127.292.087.603.256.895.464.372.267.72.595.944.88.545.684.847 1.542.9 2.403.05.834-.139 1.67-.578 2.356l6.461 11.213.147.242c.15.25.225.372.25.53.023.15 0 .306-.047.611-.02.122-.041.267-.064.422h.003l-.236 1.861v.003a.914.914 0 00-.008.075c-.023.245-.064.728-.44.728-.394 0-.472-.144-.674-.522a7.168 7.168 0 00-.211-.378h-.003l-1.883-3.26c-.036-.06-.064-.115-.095-.168-.028-.05-.055-.102-.086-.152l-1.87-3.236c-.119-.2-.66-1.117-1.05-1.806-.18-.316-.33-.589-.394-.727h-2.958c.003.058.006.125.006.183h-.003c0 .297-.053.636-.389.636-.508 0-.57-.17-.57-.57 0-.027 0-.088.004-.152v-.097H7.064c-.119.263-.513.919-.669 1.177-.042.067-.03.05-.05.08l-3.38 5.864v.003a8.47 8.47 0 00-.186.325c-.053.095-.106.19-.178.311-.078.13-.114.192-.147.25-.09.148-.173.29-.242.409L1.3 23.307l-.006.003a.5.5 0 01-.336.23l-.01.003H.794l-.01-.003a.453.453 0 01-.231-.114.542.542 0 01-.145-.22l-.003-.01L.098 20.8l-.055-.434c-.042-.288-.061-.43-.02-.591.04-.15.125-.292.295-.57.086-.144.197-.325.333-.564l.105-.183c.164-.28.32-.553.475-.844a3.584 3.584 0 01-.336-.19c-.066-.038-.13-.077-.183-.105-.553-.297-.58-.486-.361-.9.047-.086.105-.183.175-.294.086-.142.186-.308.294-.503.573-1.047.673-1.177 1.206-.886l.244.142c.12.072.261.158.43.25.181-.364.76-1.353 1.162-2.042.18-.314.328-.564.378-.652l2.402-4.159v-.002l.036-.056c.07-.114.164-.266.198-.366-.009-.025-.037-.067-.07-.123-.172-.277-.517-.841-.517-2.152 0-.64.184-1.27.478-1.828.322-.6.778-1.117 1.28-1.47a5.2 5.2 0 01.59-.344c.147-.072.3-.136.43-.175v-.25c0-.239.003-.478 0-.716-.003-.245.003-.414.056-.54.06-.144.175-.219.386-.25L9.519 0h.006zM.995 20.013l.192 1.538.167-.274c.216-.364.477-.828.602-1.062a2.03 2.03 0 01-.322-.18l-.11-.07H1.52l-.041-.027c-.1-.059-.242-.145-.35-.192-.017.036-.04.07-.059.106a.43.43 0 00-.075.16zm.425-3.397c.1.055.223.125.314.163.07-.155.214-.397.336-.605l.128-.22a2.467 2.467 0 00-.153-.091v-.003c-.064-.036-.127-.072-.189-.105a4.406 4.406 0 01-.238.422c-.095.155-.19.308-.234.416l.036.023zm8.603-4.317v-.391c0-.073.01-.136.033-.192a.386.386 0 01.105-.15.513.513 0 01.162-.092.574.574 0 01.175-.039c.419 0 .483.328.483.653 0 .053-.003.12-.006.18l-.002.031h2.374a4.74 4.74 0 00-.22-.386c-.04-.07-.08-.133-.113-.191l-.803-1.386-.164-.287a7.218 7.218 0 01-.186-.325c-.15.056-.344.103-.55.14-.283.05-.588.08-.813.08-.55 0-.775-.067-1.064-.153-.09-.025-.18-.053-.295-.08l-1.17 2.044-.002.003-.053.086c-.08.13-.194.316-.264.455h2.373zm3.013-3.213a1.33 1.33 0 01-.305.202c.008.023.016.048.033.08.028.05.039.068.053.087l.05.078c.025.041.053.091.08.139.03.058.062.114.1.177l.736 1.272c.078.128.15.262.225.395l.14.244c.355.617.73 1.259 1.11 1.906a164.094 164.094 0 011.864 3.233c.025.044.125.22.261.447.364.622.978 1.672 1.15 2.036.139-.053.303-.158.461-.258.128-.08.253-.159.367-.211l-.695-1.23c-.116-.198-.23-.398-.341-.598-.133-.23-.261-.458-.406-.7a86.598 86.598 0 01-1.23-2.128c-.339-.594-.675-1.191-1.02-1.772-.18-.305-.46-.8-.766-1.338-.517-.912-1.106-1.953-1.425-2.453a2.14 2.14 0 00-.114.111c-.067.064-.136.133-.23.206-.037.025-.067.05-.098.075zM2.16 19.22c.097.061.195.12.3.161.075-.18.236-.444.317-.58l.016-.028c.067-.108.131-.214.19-.314.06-.106.119-.211.177-.317.339-.63.736-1.297 1.13-1.966.381-.64.759-1.278 1.087-1.878.505-.847.972-1.73 1.483-2.575.072-.12.636-1.072 1.039-1.788.16-.281.294-.523.358-.65-.197-.087-.378-.256-.539-.406a2.672 2.672 0 00-.22-.192c-.26.536-1.402 2.483-1.933 3.389-.127.22-.222.378-.255.433l-1.133 1.97C3.8 15.096 3.4 15.81 3 16.52a69.04 69.04 0 01-1.256 2.178c-.016.025-.03.047-.044.066-.028.048-.058.095-.083.142.119.053.258.14.366.206.028.02.056.033.08.05l.095.058zm7.4-10.394c.3.095.62.147.939.147.225 0 .447-.03.655-.075.25-.055.483-.136.68-.222a3.131 3.131 0 001.187-.905c.316-.392.544-.861.647-1.356.08-.38.103-.72.07-1.047a3.604 3.604 0 00-.273-.994c-.033-.08-.08-.17-.13-.256a3.502 3.502 0 00-.178-.27 3.676 3.676 0 00-.37-.446 3.313 3.313 0 00-.45-.367 3.077 3.077 0 00-1.539-.561 3.378 3.378 0 00-1.666.286 2.657 2.657 0 00-.642.397 5.391 5.391 0 00-.52.52c-.38.423-.62 1.009-.696 1.623-.078.608.005 1.244.27 1.777.14.286.294.53.474.748.183.216.397.408.664.586.256.172.556.316.878.416zm.455-7.88v.57c.117-.02.259-.028.403-.028.197 0 .408.016.564.039v-.58h-.967z" fill="#2D8EFF"/></svg>