<svg width="25" height="15" xmlns="http://www.w3.org/2000/svg"><path d="M12.5.049C7.723.049 3.392 2.662.196 6.907a.99.99 0 000 1.181c3.196 4.25 7.527 6.863 12.304 6.863 4.776 0 9.108-2.613 12.304-6.858a.99.99 0 000-1.181C21.608 2.662 17.277.049 12.5.049zm.343 12.698a5.261 5.261 0 01-5.59-5.59c.164-2.618 2.286-4.74 4.904-4.904a5.261 5.261 0 015.59 5.59c-.169 2.613-2.291 4.735-4.904 4.904zm-.159-2.424a2.827 2.827 0 01-3.007-3.007 2.843 2.843 0 012.644-2.644 2.827 2.827 0 013.007 3.007 2.843 2.843 0 01-2.644 2.644z" fill="inherit"/></svg>