<svg width="58" height="58" viewBox="0 0 58 58" fill="none" xmlns="http://www.w3.org/2000/svg">
<path fill-rule="evenodd" clip-rule="evenodd" d="M33.2826 1.67433C30.8639 -0.558109 27.1361 -0.558108 24.7174 1.67433C23.1918 3.08253 21.0713 3.65071 19.046 3.19399C15.8351 2.46997 12.6067 4.33389 11.6284 7.47655C11.0112 9.45892 9.45892 11.0112 7.47655 11.6284C4.33389 12.6067 2.46997 15.8351 3.19399 19.046C3.65071 21.0713 3.08253 23.1918 1.67433 24.7174C-0.558108 27.1361 -0.558109 30.8639 1.67433 33.2826C3.08253 34.8082 3.65071 36.9287 3.19399 38.954C2.46997 42.1649 4.33389 45.3933 7.47655 46.3716C9.45892 46.9888 11.0112 48.5411 11.6284 50.5235C12.6067 53.6661 15.8351 55.53 19.046 54.806C21.0713 54.3493 23.1918 54.9175 24.7174 56.3257C27.1361 58.5581 30.8639 58.5581 33.2826 56.3257C34.8082 54.9175 36.9287 54.3493 38.954 54.806C42.1649 55.53 45.3933 53.6661 46.3716 50.5235C46.9888 48.5411 48.5411 46.9888 50.5235 46.3716C53.6661 45.3933 55.53 42.1649 54.806 38.954C54.3493 36.9287 54.9175 34.8082 56.3257 33.2826C58.5581 30.8639 58.5581 27.1361 56.3257 24.7174C54.9175 23.1918 54.3493 21.0713 54.806 19.046C55.53 15.8351 53.6661 12.6067 50.5235 11.6284C48.5411 11.0112 46.9888 9.45892 46.3716 7.47655C45.3933 4.33389 42.1649 2.46997 38.954 3.19399C36.9287 3.65071 34.8082 3.08253 33.2826 1.67433ZM26.453 23V34H24.7936V29.1035H19.6665V34H18V23H19.6665V27.8125H24.7936V23H26.453ZM30.553 34H28.8865V23H30.553V34ZM36.8159 24.4896H40V23H31.9725V24.4896H35.1636V34H36.8159V24.4896Z" fill="#09A049"/>
</svg>
