<svg width="50" height="38" xmlns="http://www.w3.org/2000/svg"><path d="M40.478 12.41h-3.147l.948-10.889a.722.722 0 00.002-.058v-.006a.732.732 0 00-.441-.671l-.007-.003a.729.729 0 00-.05-.019l-.019-.006a.325.325 0 00-.042-.011l-.03-.007c-.012-.003-.025-.004-.038-.006L37.62.729h-.006c-.013-.002-.026-.002-.039-.002L37.55.725H22.56a.733.733 0 000 1.465h14.19l-1.457 16.736v.004l-.368 4.223H9.475l.425-4.395h4.846a.732.732 0 100-1.464h-4.704l.899-9.277h7.712a.732.732 0 100-1.465h-7.57l.423-4.362h8.124a.733.733 0 000-1.465h-8.79a.733.733 0 00-.715.578l-.002.008a.777.777 0 00-.008.055l-.003.018v.003l-.5 5.165H.731a.732.732 0 100 1.465H9.47l-.899 9.277H5.957a.732.732 0 100 1.464H8.43l-.49 5.051v.002l-.757 7.811v.005l-.002.03-.002.041v.002c0 .019.002.037.003.056l.001.018a.717.717 0 00.009.056l.002.016.01.042.008.029.003.008a.732.732 0 00.174.286l.004.005.025.022c.05.046.107.086.17.116.013.007.025.014.039.02a.76.76 0 00.068.025H7.7a.807.807 0 00.066.017l.009.001a.725.725 0 00.064.01h.002a.718.718 0 00.071.004h3.26a5.584 5.584 0 005.528 4.844 5.584 5.584 0 005.527-4.844h11.748a5.584 5.584 0 005.527 4.844 5.584 5.584 0 005.527-4.844h3.263a.722.722 0 00.072-.004l.013-.002a.754.754 0 00.056-.008l.024-.006a.691.691 0 00.043-.011l.028-.01a.705.705 0 00.036-.013l.03-.013a.779.779 0 00.147-.089l.024-.019a.665.665 0 00.029-.026l.02-.02.03-.032.015-.018a.841.841 0 00.03-.04l.01-.015a.715.715 0 00.034-.055l.002-.003a.72.72 0 00.03-.063l.007-.019a.76.76 0 00.017-.046l.008-.03.01-.037.006-.034.005-.03c.03-.248.604-4.85.86-7.825l.001-.009c.074-.857.121-1.58.121-2.022 0-5.25-4.271-9.521-9.522-9.521zm-3.275 1.466h2.996l-.382 4.394H36.82l.383-4.394zM16.7 35.81a4.117 4.117 0 01-4.112-4.112 4.117 4.117 0 014.112-4.112 4.116 4.116 0 014.112 4.112A4.116 4.116 0 0116.7 35.81zm22.802 0a4.116 4.116 0 01-4.112-4.112 4.116 4.116 0 014.112-4.112 4.116 4.116 0 014.112 4.112 4.117 4.117 0 01-4.112 4.112zm8.141-4.845H45.03a5.584 5.584 0 00-5.527-4.844 5.584 5.584 0 00-5.527 4.844H22.227a5.584 5.584 0 00-5.527-4.844 5.584 5.584 0 00-5.527 4.844H8.717l.616-6.348h26.263a.706.706 0 00.074-.003l.013-.002a.773.773 0 00.057-.009l.024-.006.044-.011.028-.01.037-.013a.627.627 0 00.03-.014l.032-.015.03-.017a.812.812 0 00.03-.018l.027-.019a.582.582 0 00.102-.088.874.874 0 00.106-.142l.015-.025.017-.036.012-.028.013-.035a.17.17 0 00.01-.032l.01-.034.008-.035.005-.035.005-.037v-.005l.368-4.214h3.785c2.244 0 3.256 1.163 4.328 2.394.884 1.016 1.87 2.15 3.549 2.426a272.79 272.79 0 01-.712 6.411zm.837-7.88c-1.088-.221-1.758-.986-2.57-1.918-1.014-1.166-2.252-2.588-4.627-2.853l.38-4.35c3.882.574 6.872 3.928 6.872 7.969 0 .274-.02.673-.055 1.153z" fill="inherit"/></svg>