<svg width="50" height="50" xmlns="http://www.w3.org/2000/svg"><path d="M49.81 10.353a.731.731 0 00-1.033-.05l-2.162 1.96a.222.222 0 01-.313-.015l-1.58-1.744a.731.731 0 00-1.084.983l1.29 1.422-2.182 1.978a.73.73 0 00-.22.373l-.6 2.534a6.897 6.897 0 01-2.087 3.533l-4.288 3.888a1.062 1.062 0 01-1.772-.837c.014-.283.137-.544.347-.734l1.87-1.696a.731.731 0 00-.982-1.084l-1.87 1.696a2.511 2.511 0 00-.658.956 2.375 2.375 0 00-1.01-.224h-.003c-.368 0-.716.083-1.028.233a2.373 2.373 0 00-.337-.672l1.825-1.656a.731.731 0 00-.982-1.083l-1.036.939a2.386 2.386 0 00-.584-.895l-.578-.558.937-.849a.731.731 0 00-.982-1.084l-1.009.915-2.06-1.99a2.527 2.527 0 00.993-3.983l3.108-2.817a11.194 11.194 0 015.249-2.668.732.732 0 00.343-.174l2.301-2.086 3.908 4.31a.73.73 0 001.034.05.731.731 0 00.05-1.032L38.426 3.56a.222.222 0 01.015-.313l2.162-1.96a.731.731 0 10-.982-1.084l-2.162 1.96c-.4.363-.584.877-.546 1.379l-2.418 2.192a12.657 12.657 0 00-5.737 2.974l-3.17 2.874-3.285-3.172a8.353 8.353 0 00-4.438-2.24l-2.344-.393-2.21-2.135a1.68 1.68 0 00-.5-1.395L10.71.219a.731.731 0 10-1.016 1.052l2.1 2.029c.088.085.09.226.005.314l-8.147 8.433a.218.218 0 01-.156.068.226.226 0 01-.158-.063L1.24 10.024a.731.731 0 10-1.017 1.052l2.099 2.027a1.673 1.673 0 001.412.454l2.347 2.268a12.658 12.658 0 003.346 5.528l1.527 1.475a.729.729 0 001.034-.018.731.731 0 00-.018-1.034L10.444 20.3a11.193 11.193 0 01-3.009-5.061.731.731 0 00-.197-.331L5.005 12.75l7.545-7.81 2.118 2.045a.732.732 0 00.387.196l2.567.431a6.896 6.896 0 013.664 1.849l4.163 4.021a1.061 1.061 0 01-1.328 1.642l-1.961-1.87a.731.731 0 00-1.017 1.052l7.171 6.904a.913.913 0 01.28.685 2.372 2.372 0 00-.419-.038h-.003c-.327 0-.64.066-.923.186a2.364 2.364 0 00-.69-1.516 2.367 2.367 0 00-1.684-.7h-.003c-.2 0-.396.025-.586.073l-2.605-2.517a.731.731 0 10-1.017 1.052l2.357 2.276a2.359 2.359 0 00-.43.81 2.374 2.374 0 00-1.02-.229h-.002c-.181 0-.36.02-.532.06l-1.65-1.595a.731.731 0 10-1.017 1.053l1.377 1.33a2.36 2.36 0 00-.56 1.532v.483l-2.095-2.023a.731.731 0 10-1.016 1.052l3.108 3.003-.003 2.332a.91.91 0 01-.482-.243l-4.487-4.335a.731.731 0 10-1.016 1.052l3.91 3.778c-.284.124-.545.3-.77.526a2.506 2.506 0 00-.741 1.783l-.007 5.788a8.352 8.352 0 001.468 4.749l1.343 1.96-.004 3.072a1.673 1.673 0 00-.656 1.33l-.003 1.26a.731.731 0 00.73.733h.001c.403 0 .73-.326.732-.73l.003-1.261c0-.076.035-.127.065-.157a.203.203 0 01.157-.065l11.725.013c.123 0 .222.1.222.221l-.003 1.26a.731.731 0 00.73.734h.001c.404 0 .73-.326.732-.73l.003-1.26a1.68 1.68 0 00-.653-1.332l.003-3.264a12.657 12.657 0 001.658-6.246l.001-.667a.731.731 0 00-.73-.732h-.001a.731.731 0 00-.732.73v.667a11.192 11.192 0 01-1.557 5.679.73.73 0 00-.101.371l-.004 3.106-10.86-.012.004-2.945a.732.732 0 00-.128-.414l-1.471-2.148a6.896 6.896 0 01-1.212-3.92l.006-5.789c0-.283.111-.55.312-.75.2-.199.466-.309.749-.309h.001c.585 0 1.06.477 1.06 1.062l-.003 2.524c0 .404.326.732.73.733h.001a.731.731 0 00.731-.731l.003-2.525.008-7.412c0-.245.097-.476.27-.65a.914.914 0 01.65-.268h.001a.91.91 0 01.65.27.913.913 0 01.269.65l-.009 7.412a.732.732 0 101.463.002l.01-8.88a.91.91 0 01.27-.65.913.913 0 01.65-.269.91.91 0 01.65.27.913.913 0 01.27.65l-.01 8.881a.732.732 0 001.463.002l.007-6.854a.91.91 0 01.27-.65.92.92 0 011.57.652l-.008 6.854a.732.732 0 001.463.002l.005-5.425a.92.92 0 01.92-.918c.247 0 .477.096.65.27a.913.913 0 01.27.65l-.009 7.689c0 .403.327.731.73.732h.001a.731.731 0 00.732-.73l.007-6.612a2.522 2.522 0 00.987.199c.628 0 1.224-.23 1.692-.654l4.288-3.888a8.354 8.354 0 002.528-4.28l.548-2.313 2.275-2.062a1.696 1.696 0 00.296.027c.419 0 .817-.153 1.13-.436l2.162-1.96a.731.731 0 00.05-1.034z" fill="inherit"/></svg>