<svg width="50" height="50" xmlns="http://www.w3.org/2000/svg"><path d="M40.432 17.654c3.252-2.657 2.13-7.91-1.935-8.999a5.132 5.132 0 00-3.169.159L32.1 3.22C30.785.945 27.526.884 26.127 3.103a51.314 51.314 0 01-15.545 15.724.834.834 0 00-.278 1.097c.034.062 5.382 9.325 5.418 9.386a.833.833 0 001.443-.833L12.15 19.79A52.954 52.954 0 0027.537 3.992c.732-1.16 2.433-1.125 3.119.062l11.562 20.027a1.821 1.821 0 01-1.506 2.731 52.983 52.983 0 00-22.083 5.782c-.03.015-7.827 4.518-8.364 4.828a2.922 2.922 0 01-3.987-1.068l-4.221-7.312a2.922 2.922 0 011.068-3.987l5.08-2.933a.833.833 0 00-.833-1.443l-5.08 2.933a4.59 4.59 0 00-1.679 6.264l4.222 7.311a4.59 4.59 0 006.263 1.678l.193-.11 5.211 9.026a2.708 2.708 0 003.701.992l1.828-1.056a2.708 2.708 0 00.992-3.7l-3.694-6.398a.833.833 0 10-1.443.833l3.694 6.398a1.042 1.042 0 01-.382 1.424l-1.828 1.055c-.5.288-1.136.118-1.424-.381l-5.212-9.027 6.673-3.852a51.312 51.312 0 0121.37-5.591c2.626-.103 4.197-2.959 2.884-5.23l-3.229-5.594zm-.238-5.756a3.51 3.51 0 01-.612 4.284l-3.404-5.897a3.504 3.504 0 014.016 1.613zm8.151-3.705l-2.156 1.245a.833.833 0 11-.834-1.443l2.157-1.245a.833.833 0 11.833 1.443zm-9.273-4.75l.526-1.962a.833.833 0 111.61.432l-.526 1.962a.833.833 0 01-1.61-.432zm10.9 13.649a.834.834 0 01-.805.617c-.151 0-.046.018-2.178-.554a.833.833 0 11.43-1.61l1.963.526a.833.833 0 01.59 1.02z" fill="inherit"/></svg>