<svg width="51" height="34" xmlns="http://www.w3.org/2000/svg"><path d="M49.165 5.427c-.573-2.048-2.252-3.662-4.382-4.213C40.893.19 25.329.19 25.329.19s-15.563 0-19.453.985c-2.089.55-3.81 2.205-4.382 4.252C.47 9.168.47 16.927.47 16.927s0 7.796 1.024 11.498c.573 2.048 2.252 3.662 4.382 4.214 3.931 1.024 19.453 1.024 19.453 1.024s15.563 0 19.454-.985c2.13-.551 3.809-2.166 4.382-4.214 1.024-3.74 1.024-11.498 1.024-11.498s.041-7.798-1.024-11.539z" fill="inherit"/><path d="M20.374 24.093l12.942-7.167L20.374 9.76v14.334z" fill="currentColor"/></svg>