<svg width="120" height="120" fill="none" xmlns="http://www.w3.org/2000/svg"><path d="M85.7 50.94A2 2 0 0084 50H62V20a2 2 0 00-3.78-.9l-24 48A1.999 1.999 0 0036 70h22v30a2.001 2.001 0 001.54 1.94c.15.04.305.06.46.06a1.997 1.997 0 001.78-1.1l24-48a2.013 2.013 0 00-.08-1.96zM62 91.52V68a2 2 0 00-2-2H39.24L58 28.48V52a2 2 0 002 2h20.76L62 91.52z" fill="#443F48"/><path d="M108.82 25.16a9.974 9.974 0 00-.74-13.24l-5.66-5.66a2.048 2.048 0 00-2.82 0l-1.42 1.42-5.66-5.66-2.82 2.82 5.66 5.66-2.84 2.84-5.66-5.66-2.82 2.82 5.66 5.66-1.42 1.42a2 2 0 000 2.82l5.66 5.66a9.872 9.872 0 0011.8 1.68A55.352 55.352 0 01116 60a56.05 56.05 0 01-77.24 51.84l-1.52 3.7a60.044 60.044 0 0056.172-5.728A60.042 60.042 0 00120 60a59.338 59.338 0 00-11.18-34.84zm-3.56-1.92a6.06 6.06 0 01-8.5 0l-4.24-4.26 8.5-8.48 4.24 4.24a6.023 6.023 0 010 8.5zM60 0A60.074 60.074 0 000 60a59.338 59.338 0 0011.18 34.84 9.976 9.976 0 00.74 13.24l5.66 5.66a1.94 1.94 0 001.4.58 1.966 1.966 0 001.42-.58l1.42-1.42 5.66 5.66 2.82-2.82-5.66-5.66 2.84-2.84 5.66 5.66 2.82-2.82-5.66-5.66 1.42-1.42a2.001 2.001 0 000-2.82l-5.66-5.66a9.974 9.974 0 00-11.8-1.68A55.356 55.356 0 014 60 56.062 56.062 0 0160 4a55.466 55.466 0 0121.24 4.18l1.52-3.72A59.86 59.86 0 0060 0zM14.74 96.76a6.06 6.06 0 018.5 0l4.24 4.26-8.5 8.48-4.24-4.24a6.024 6.024 0 010-8.5z" fill="#2D8EFF"/></svg>