<svg width="128" height="128" fill="none" xmlns="http://www.w3.org/2000/svg"><circle cx="64" cy="64" r="61.25" fill="#fff" stroke="#443F48" stroke-width="5.5"/><path d="M35.368 72.983c-7.119 0-12.912-5.794-12.912-12.913 0-7.119 5.793-12.912 12.912-12.912 7.12 0 12.913 5.793 12.913 12.912 0 7.12-5.794 12.913-12.913 12.913zm0-17.217a4.306 4.306 0 00-4.304 4.304 4.306 4.306 0 004.304 4.304 4.306 4.306 0 004.304-4.304 4.306 4.306 0 00-4.304-4.304zM64 72.983c-6.81 0-12.351-5.794-12.351-12.913 0-7.119 5.541-12.912 12.35-12.912 6.81 0 12.352 5.793 12.352 12.912 0 7.12-5.542 12.913-12.351 12.913zm0-17.217c-2.273 0-4.117 1.928-4.117 4.304 0 2.376 1.844 4.304 4.117 4.304 2.272 0 4.117-1.928 4.117-4.304 0-2.376-1.845-4.304-4.117-4.304zm28.632 17.217c-7.12 0-12.913-5.794-12.913-12.913 0-7.119 5.794-12.912 12.913-12.912 7.118 0 12.912 5.793 12.912 12.912 0 7.12-5.793 12.913-12.912 12.913zm0-17.217a4.306 4.306 0 00-4.305 4.304 4.306 4.306 0 004.305 4.304 4.306 4.306 0 004.304-4.304 4.306 4.306 0 00-4.305-4.304zM49.403 97.684c-6.81 0-12.35-5.793-12.35-12.912 0-7.119 5.54-12.912 12.35-12.912s12.351 5.793 12.351 12.912c0 7.119-5.541 12.912-12.35 12.912zm0-17.216c-2.272 0-4.117 1.928-4.117 4.304 0 2.376 1.845 4.304 4.117 4.304 2.273 0 4.117-1.928 4.117-4.304 0-2.376-1.844-4.304-4.117-4.304zm28.632 17.216c-7.119 0-12.912-5.793-12.912-12.912 0-7.119 5.793-12.912 12.912-12.912 7.12 0 12.912 5.793 12.912 12.912 0 7.119-5.793 12.912-12.912 12.912zm0-17.216a4.306 4.306 0 00-4.304 4.304 4.306 4.306 0 004.304 4.304 4.306 4.306 0 004.304-4.304 4.306 4.306 0 00-4.304-4.304zm-28.631-33.31c-4.334 0-7.86-3.526-7.86-7.86 0-4.333 3.526-7.86 7.86-7.86 4.333 0 7.86 3.527 7.86 7.86 0 4.334-3.527 7.86-7.86 7.86zm0-10.48a2.62 2.62 0 000 5.24 2.62 2.62 0 000-5.24zm29.193 10.48c-4.334 0-7.86-3.526-7.86-7.86 0-4.333 3.526-7.86 7.86-7.86 4.333 0 7.86 3.527 7.86 7.86 0 4.334-3.527 7.86-7.86 7.86zm0-10.48a2.62 2.62 0 000 5.24 2.62 2.62 0 000-5.24z" fill="#2D8EFF"/></svg>