<svg width="128" height="100" fill="none" xmlns="http://www.w3.org/2000/svg"><path d="M128 87.153V.45H0v86.703h49.537v8.264H26.835v4.133h74.305v-4.133H78.438v-8.264H128zM4.132 4.557h119.736v61.934H4.132V4.557zm70.199 90.86H53.669v-8.264h20.662v8.264zM49.537 83.02H4.132V70.624h119.736V83.02H49.537z" fill="#443F48"/><path d="M66.066 74.756h-4.132v4.132h4.132v-4.132zm8.264 0h-4.132v4.132h4.133v-4.132zm-16.528 0h-4.133v4.132h4.133v-4.132zm43.338-61.934c-3.98 0-7.231 3.25-7.231 7.232a7.31 7.31 0 001.26 4.081L75.212 44.091c-.63-.176-1.26-.302-1.94-.302-.68 0-1.31.126-1.94.302l-15.27-15.269c1.058-1.26 1.739-2.872 1.739-4.636 0-3.981-3.25-7.232-7.232-7.232-3.981 0-7.231 3.25-7.231 7.232 0 1.764.655 3.376 1.738 4.636L31.27 42.63c-1.033-.554-2.167-.907-3.401-.907-3.981 0-7.232 3.25-7.232 7.231s3.25 7.232 7.232 7.232c3.98 0 7.231-3.25 7.231-7.232 0-1.234-.352-2.393-.907-3.401L48.63 31.115c.63.176 1.26.302 1.94.302.68 0 1.31-.126 1.94-.302l15.27 15.27c-1.059 1.26-1.739 2.872-1.739 4.636 0 3.98 3.25 7.23 7.231 7.23 3.982 0 7.232-3.25 7.232-7.23a7.082 7.082 0 00-1.739-4.637L98.42 26.731a7.001 7.001 0 002.721.554c3.981 0 7.232-3.25 7.232-7.232 0-3.98-3.251-7.231-7.232-7.231zM27.868 52.053a3.097 3.097 0 01-3.1-3.099 3.097 3.097 0 013.1-3.099 3.097 3.097 0 013.099 3.1 3.097 3.097 0 01-3.1 3.099zM50.57 27.285a3.097 3.097 0 01-3.1-3.1c.026-1.713 1.412-3.098 3.1-3.098 1.713 0 3.1 1.385 3.1 3.099a3.098 3.098 0 01-3.1 3.099zM73.298 54.12a3.097 3.097 0 01-3.1-3.1 3.097 3.097 0 013.1-3.099 3.097 3.097 0 013.099 3.1 3.097 3.097 0 01-3.1 3.099zm27.867-30.967a3.097 3.097 0 01-3.099-3.1 3.097 3.097 0 013.099-3.099c1.714 0 3.1 1.386 3.1 3.1a3.097 3.097 0 01-3.1 3.099z" fill="#2D8EFF"/></svg>