<svg width=".804em" height="1em" viewBox="0 0 70 87" fill="currentColor" xmlns="http://www.w3.org/2000/svg"><path fill-rule="evenodd" clip-rule="evenodd" d="M43.75 0h-35C6.43 0 4.204.917 2.563 2.548A8.675 8.675 0 000 8.7v69.6c0 2.307.922 4.52 2.563 6.152A8.775 8.775 0 008.75 87h52.5c2.32 0 4.546-.917 6.187-2.548A8.675 8.675 0 0070 78.3V26.1L43.75 0zM22.553 67.225c-1.864 1.54-4.694 2.266-8.155 2.266-2.078 0-3.544-.13-4.541-.26V51.955a35.906 35.906 0 015.403-.36c3.36 0 5.539.6 7.24 1.879 1.838 1.357 2.993 3.523 2.993 6.62 0 3.372-1.234 5.694-2.94 7.13zM35.634 69.6c-5.25 0-8.317-3.941-8.317-8.952 0-5.268 3.382-9.205 8.606-9.205 5.43 0 8.396 4.041 8.396 8.896-.005 5.764-3.522 9.261-8.685 9.261zM56 66.285c1.203 0 2.542-.265 3.334-.574l.603 3.102c-.734.365-2.388.757-4.536.757-6.112 0-9.262-3.78-9.262-8.792 0-5.998 4.3-9.335 9.655-9.335 2.074 0 3.645.418 4.354.783l-.814 3.158a8.702 8.702 0 00-3.36-.652c-3.176 0-5.644 1.905-5.644 5.82 0 3.52 2.1 5.733 5.67 5.733zM43.75 30.45h-4.375V8.7L61.25 30.45h-17.5zm-7.439 24.18c-2.66 0-4.213 2.532-4.213 5.922 0 3.411 1.6 5.822 4.239 5.822 2.66 0 4.188-2.536 4.188-5.926 0-3.13-1.501-5.817-4.214-5.817zm-21.628.203c.336-.078.905-.155 1.78-.155 3.39 0 5.508 1.915 5.482 5.537 0 4.166-2.324 6.128-5.895 6.102-.487 0-1.03 0-1.367-.077V54.833z"/></svg>