<svg width="0" height="0" class="hidden">
  <symbol xmlns="http://www.w3.org/2000/svg" fill="none" viewBox="0 0 70 70" id="delivery">
    <path fill="#2D8EFF" d="M36.12 28c-.303.01-.595.135-.81.355l-6.155 6.136-3.792-3.78c-1.061-1.106-2.776.602-1.668 1.662l4.627 4.615c.46.46 1.206.46 1.668 0l6.989-6.97c.77-.746.203-2.018-.857-2.018h-.002ZM1.167 37.333h7c.646 0 1.166.52 1.166 1.167 0 .646-.52 1.167-1.166 1.167h-7C.52 39.667 0 39.147 0 38.5c0-.646.52-1.167 1.167-1.167Zm0-9.333h7c.646 0 1.166.52 1.166 1.167 0 .646-.52 1.166-1.166 1.166h-7C.52 30.333 0 29.813 0 29.167 0 28.52.52 28 1.167 28Zm0-9.333h7c.646 0 1.166.52 1.166 1.166 0 .647-.52 1.167-1.166 1.167h-7C.52 21 0 20.48 0 19.833c0-.646.52-1.166 1.167-1.166Zm56 25.666c-3.209 0-5.834 2.625-5.834 5.834 0 3.208 2.625 5.833 5.834 5.833C60.375 56 63 53.375 63 50.167c0-3.209-2.625-5.834-5.833-5.834Zm0 2.334c1.946 0 3.5 1.554 3.5 3.5s-1.554 3.5-3.5 3.5a3.483 3.483 0 0 1-3.5-3.5c0-1.946 1.554-3.5 3.5-3.5Zm-30.334-2.334c-3.208 0-5.833 2.625-5.833 5.834C21 53.375 23.625 56 26.833 56c3.209 0 5.834-2.625 5.834-5.833 0-3.209-2.625-5.834-5.834-5.834Zm0 2.334c1.946 0 3.5 1.554 3.5 3.5s-1.554 3.5-3.5 3.5a3.483 3.483 0 0 1-3.5-3.5c0-1.946 1.554-3.5 3.5-3.5ZM15.167 14a3.52 3.52 0 0 0-3.5 3.5v25.667a3.52 3.52 0 0 0 3.5 3.5h4.666c1.578.023 1.578-2.357 0-2.334h-4.666c-.668 0-1.167-.499-1.167-1.166V17.5c0-.667.5-1.167 1.167-1.167H45.5c.667 0 1.167.5 1.167 1.167v26.833H33.833c-1.54 0-1.512 2.357 0 2.334h16.334c1.54 0 1.526-2.334 0-2.334H49v-21h9.863l8.804 13.758v6.076c0 .667-.5 1.166-1.167 1.166h-2.333c-1.526 0-1.526 2.334 0 2.334H66.5a3.52 3.52 0 0 0 3.5-3.5V36.75c0-.222-.063-.443-.182-.63l-9.333-14.583A1.168 1.168 0 0 0 59.5 21H49v-3.5a3.52 3.52 0 0 0-3.5-3.5H15.167Z"></path>
  </symbol>
  <symbol xmlns="http://www.w3.org/2000/svg" fill="none" viewBox="0 0 60 70" id="like">
    <path fill="#2d8eff" d="M3 27c-1.644 0-3 1.356-3 3v30c0 1.644 1.356 3 3 3h14c1.644 0 3-1.356 3-3V30c0-1.644-1.356-3-3-3zm0 2h14c.572 0 1 .428 1 1v30c0 .572-.428 1-1 1H3c-.572 0-1-.428-1-1V30c0-.572.428-1 1-1zM35 7c-.724 0-1.44.08-2.12.38-.676.3-1.284.834-1.712 1.56C30.312 10.4 30 12.534 30 16c0 6.308-4.54 11.16-7.554 13.17-1.06.68.04 2.4 1.108 1.664C26.54 28.846 32 23.294 32 16.004c0-3.33.394-5.2.89-6.04.25-.426.484-.614.8-.752.31-.14.74-.208 1.31-.208.954 0 1.496.316 2.06 1.532.568 1.216.94 3.356.94 6.468 0 5.954-3.76 12.35-3.76 12.35a1 1 0 0 0 .76 1.652h20c1.16 0 1.85.296 2.29.75s.71 1.16.71 2.25c0 1.992-1.594 3.196-1.594 3.196a.999.999 0 0 0 .012 1.616s1.58 1.14 1.58 3.188c0 2.05-1.58 3.188-1.58 3.188a1 1 0 0 0 .124 1.7s1.456.686 1.456 2.612-1.456 2.614-1.456 2.614a.999.999 0 0 0-.028 1.76s1.484.792 1.484 2.626c0 .92-.328 1.446-.86 1.856-.532.408-1.324.644-2.14.644h-32c-1.354 0-1.284 2 0 2h32c1.184 0 2.392-.316 3.36-1.06.968-.74 1.64-1.966 1.64-3.44 0-1.748-.772-2.794-1.492-3.492.724-.694 1.492-1.74 1.492-3.508 0-1.852-.826-2.89-1.566-3.566.714-.76 1.566-1.934 1.566-3.934 0-2.086-.916-3.274-1.632-4.004.712-.734 1.632-1.926 1.632-3.996 0-1.434-.386-2.724-1.274-3.64s-2.2-1.36-3.726-1.36h-18.17c1.198-1.694 3.174-6.92 3.174-12 0-3.26-.34-5.62-1.126-7.312s-2.24-2.688-3.874-2.688z"></path>
  </symbol>
  <symbol xmlns="http://www.w3.org/2000/svg" fill="none" viewBox="0 0 71 76" id="charger">
    <path fill="#2D8EFF" d="M38.634 5.167C35.452 1.125 29.774.737 24.126.91c-2.629.081-5.698.266-8.43 1.012-3.161.86-5.443 2.323-6.977 4.471C6.57 9.402 6.366 13.106 6.335 17.28l-.389 47.134c-1.064.327-2.087.787-3.018 1.452-3.13 2.22-2.987 5.914-2.865 9.177.02.41.348.737.758.737 1.217.01 2.455.01 3.703.01 6.118 0 12.564-.092 18.835-.174 7.54-.102 15.346-.214 22.508-.163h.01a.767.767 0 0 0 .768-.768v-.87c0-4.87.01-7.55-3.336-9.31-.93-.49-1.923-.756-2.936-.9l.594-40.79c2.056.051 3.191.46 4.573 1.545 1.76 1.401 1.657 4.051 1.545 6.63l-.031.9c-.082 2.568-.133 4.112-.184 5.616-.051 1.484-.103 3.008-.184 5.515-.103 3.407-.225 7.264 1.237 10.712 1.423 3.345 4.584 5.494 7.92 5.494.337 0 .674-.02 1.022-.072 3.11-.41 5.658-2.486 6.804-5.545 1.084-2.895 1.084-6.088 1.084-8.901V21.618c1.545-.266 3.008-1.156 3.929-2.445 1.391-1.934 1.555-5.494 1.115-7.97a.757.757 0 0 0-.747-.634c-.726-.01-1.432-.01-2.128-.01l-.092-4.124a.767.767 0 1 0-1.534.041l.092 4.093c-1.044.01-2.088.02-3.182.05l-.072-3.887a.78.78 0 0 0-.777-.757.78.78 0 0 0-.757.777l.071 3.909c-.706.03-1.432.061-2.2.092a.768.768 0 0 0-.726.746c-.082 2.875.02 6.067 1.433 7.92.961 1.258 2.455 2.076 4.04 2.24v23.04c0 2.813 0 5.729-.992 8.358-.951 2.517-3.028 4.226-5.565 4.563-3.018.4-6.026-1.453-7.326-4.501-1.33-3.13-1.217-6.814-1.115-10.057.082-2.507.133-4.031.184-5.515.051-1.504.113-3.048.184-5.616l.031-.88c.113-2.814.246-6.006-2.128-7.888-1.647-1.31-3.1-1.821-5.504-1.883l.072-5.115c.061-4.103-.082-8.021-2.425-10.998ZM7.859 17.29c.031-3.908.215-7.356 2.098-10.006 2.967-4.143 8.89-4.675 14.21-4.839 5.26-.164 10.497.164 13.26 3.663 2.025 2.578 2.148 6.2 2.097 10.006l-.082 5.913-.603 41.415c-.819-.031-1.617-.02-2.354 0-3.928.082-7.918.081-11.786.071-3.877 0-7.877-.01-11.827.072-1.667.03-3.55.072-5.401.43l.388-46.725Zm34.724 48.566c2.517 1.33 2.517 3.13 2.517 7.95v.102c-6.968-.041-14.487.072-21.761.174-7.285.102-14.804.204-21.772.174-.092-3.305.113-5.617 2.24-7.131 2.6-1.842 6.2-1.924 9.096-1.975 3.929-.082 7.93-.082 11.786-.071 3.878 0 7.878.01 11.817-.072.951-.02 1.964-.04 2.967.051.02 0 .05.01.071.01 1.075.072 2.118.307 3.039.788Zm17.791-47.369c-1.105-1.453-1.176-4.45-1.135-6.24.767-.031 1.494-.062 2.19-.082h.02c2.414-.082 4.563-.093 6.906-.082.255 2.128.03 4.829-.942 6.18-.808 1.114-2.138 1.84-3.488 1.882-1.371.05-2.732-.584-3.55-1.658ZM17.701 53.436c1.76 1.35 3.93 2.026 6.047 2.026 2.18 0 4.307-.706 5.893-2.118 3.038-2.69 3.663-6.998 3.898-11.244.41-7.57.348-15.234-.184-22.794-.215-3.07-.583-6.272-2.435-8.778a8.969 8.969 0 0 0-6.569-3.581 8.957 8.957 0 0 0-6.977 2.7c-2.926 3.03-3.264 7.53-3.366 11.889-.061 2.69-.153 5.085-.245 7.632a574.52 574.52 0 0 0-.328 11.213c-.071 5.075.184 9.904 4.266 13.055Zm-2.71-13.044c.081-4.4.204-7.848.327-11.183.092-2.547.184-4.952.245-7.652.102-4.226.4-8.226 2.937-10.855 1.37-1.423 3.335-2.241 5.31-2.241.153 0 .306 0 .46.01 2.128.143 4.164 1.248 5.432 2.967 1.607 2.18 1.944 5.136 2.139 7.97.532 7.5.593 15.1.184 22.6-.215 3.918-.778 7.868-3.387 10.18-1.258 1.115-2.977 1.729-4.85 1.729h-.05c-1.862-.01-3.673-.614-5.085-1.709-3.54-2.711-3.755-6.957-3.663-11.816Zm4.05-6.794c.42 0 .799-.02 1.177-.03.522-.01 1.034-.031 1.627-.031-.368.9-.757 1.923-1.156 2.977-.348.91-.706 1.852-1.095 2.824a1.309 1.309 0 0 0 .532 1.616 1.307 1.307 0 0 0 1.678-.235c2.988-3.274 5.064-5.699 8.328-9.586.338-.4.41-.952.184-1.422a1.319 1.319 0 0 0-1.217-.758c-.491.01-.9.02-1.28.02-.807.021-1.431.032-2.311 0 .122-.756.388-2.322.992-5.534a1.319 1.319 0 0 0-.808-1.473 1.31 1.31 0 0 0-1.607.49c-1.606 2.395-4.542 6.753-6.148 9.014-.297.41-.328.941-.092 1.392.235.46.695.736 1.197.736Zm5.77-9.433c-.234 1.269-.429 2.343-.572 3.192-.123.676-.205 1.218-.266 1.596-.102.696-.143.962.082 1.259a.771.771 0 0 0 .563.297c1.401.071 2.169.06 3.243.03.255-.01.521-.01.818-.02-2.813 3.345-4.747 5.606-7.243 8.369.235-.614.47-1.218.695-1.811.563-1.484 1.095-2.875 1.576-3.96a.772.772 0 0 0-.051-.716.768.768 0 0 0-.624-.358c-.47-.02-.89-.02-1.269-.02-.593 0-1.095.01-1.586.03-.235.01-.49.01-.736.02 1.453-2.107 3.785-5.555 5.37-7.908Z"></path>
  </symbol>
</svg>