<svg width="44" height="48" xmlns="http://www.w3.org/2000/svg"><path d="M39.782 39.974l3.886 3.887-3.886 3.886a.865.865 0 01-1.219 0 .858.858 0 010-1.22l1.976-1.98c-11.298-.051-20.48-9.255-20.487-20.569v-.011c0-10.398-8.46-18.856-18.856-18.856a.863.863 0 11.002-1.727c11.345 0 20.577 9.228 20.58 20.572v.01c0 10.24 8.208 18.582 18.388 18.835l-1.603-1.608a.855.855 0 010-1.22.86.86 0 011.219.001zm-38.588 2.85a.863.863 0 00-.862.865c0 .478.386.864.862.864 8.373 0 15.568-5.039 18.777-12.234a21.566 21.566 0 01-.851-2.553c-2.452 7.568-9.553 13.059-17.926 13.059zM40.236 5.128l-1.673 1.679a.858.858 0 000 1.22.865.865 0 001.218 0l3.887-3.886L39.782.253a.86.86 0 00-1.219 0 .858.858 0 000 1.22l1.918 1.92c-8.304.062-15.425 5.077-18.617 12.222.336.827.613 1.68.847 2.551 2.417-7.444 9.333-12.865 17.525-13.039z" fill="inherit"/></svg>