<svg width="39" height="40" xmlns="http://www.w3.org/2000/svg"><path fill-rule="evenodd" clip-rule="evenodd" d="M5.416.208a5.208 5.208 0 105.104 6.25h27.188a1.042 1.042 0 000-2.083H10.52A5.21 5.21 0 005.416.208zM2.291 5.417a3.125 3.125 0 116.25 0 3.125 3.125 0 01-6.25 0zm35.417 28.125H10.52A5.21 5.21 0 00.208 34.583a5.208 5.208 0 0010.313 1.042h27.187a1.042 1.042 0 000-2.083zM8.541 34.583a3.125 3.125 0 10-6.25 0 3.125 3.125 0 006.25 0zM1.25 20c0-.575.466-1.042 1.042-1.042h15.625c.034 0 .069.002.103.005a5.21 5.21 0 0110.21-.005h9.478a1.042 1.042 0 010 2.084H28.23a5.21 5.21 0 01-10.21-.006 1.066 1.066 0 01-.102.005H2.292A1.042 1.042 0 011.25 20zm21.875-3.125a3.125 3.125 0 100 6.25 3.125 3.125 0 000-6.25z" fill="inherit"/></svg>