<svg width="97" height="97" xmlns="http://www.w3.org/2000/svg"><circle cx="48.5" cy="48.5" r="48.5" fill="inherit"/><g clip-path="url(#clip0)" fill="#fff"><path d="M64.07 30.054a4.527 4.527 0 100-9.054 4.527 4.527 0 000 9.054z"/><path d="M75.081 36.64a5.18 5.18 0 00-5.169-5.143c-5.06 0-7.972-.003-9.658-.001-.7 0-1.378.166-2.001.484l-4.295 2.192-1.046-6.4a2.184 2.184 0 00-4.311.705l1.53 9.357a2.184 2.184 0 003.15 1.592l4.982-2.55.001 36.503a2.621 2.621 0 005.242 0v-20.95h1.132v20.95a2.621 2.621 0 005.242 0c0-.824-.047-24.823-.047-25.646l-5.303-.566a3.997 3.997 0 01-2.083-7.089l-.494-4.195a1.722 1.722 0 011.71-1.924h4.917c.475 0 .928.198 1.253.543.01.012.023.023.034.035.33.371.483.838.414 1.419.255.133.43.4.432.705.004.722.003-.023.003 4.893l.022-.042v.101l-2.822-.301.664-5.63h-4.917l.64 5.426a2.184 2.184 0 00.42 4.256l7.98.852a2.184 2.184 0 002.415-2.183l-.037-7.394zm-31.191.047a5.265 5.265 0 00-5.254-5.227c-9.914 0-4.384.037-11.548.037a5.18 5.18 0 00-5.169 5.143l-.037 7.393a2.184 2.184 0 002.416 2.183l7.98-.852a2.184 2.184 0 00.42-4.256l.64-5.427H28.42l.664 5.63-2.822.302.025-4.952a.802.802 0 01.432-.705c-.14-1.187.742-1.997 1.701-1.997h4.917c1.03 0 1.831.9 1.71 1.923l-.494 4.196a3.998 3.998 0 01-2.083 7.088l-5.302.567c0 .826-.048 24.821-.048 25.646a2.621 2.621 0 105.242 0v-20.95h1.132v20.95a2.621 2.621 0 005.242 0l.001-36.667a.392.392 0 01.785-.002c.05 9.493.024 5.728.117 16.512.01 1.2.987 2.166 2.184 2.166h.02a2.184 2.184 0 002.165-2.204c-.095-10.777-.068-7.016-.118-16.497zm-10.961-6.633a4.527 4.527 0 100-9.054 4.527 4.527 0 000 9.054z"/></g><defs><clipPath id="clip0"><path fill="#fff" transform="translate(21 21)" d="M0 0h55v55H0z"/></clipPath></defs></svg>