<svg viewBox="0 0 20 25" fill="none" xmlns="http://www.w3.org/2000/svg"><path fill-rule="evenodd" clip-rule="evenodd" d="M1.46 15.1v-.893h16.651c0 .717.123 1.906-.734 2.134-.704.192-1.163-.25-1.202.258-.013.21-.018.262-.048.468-.228 1.608-.822 2.61-1.766 3.69-.114.126-.162.135-.285.235-.253.214-.144.18-.537.45-.219.145-.372.258-.604.385-1.534.83-3.125 1.084-4.87.59-.716-.2-.808-.275-1.403-.577-.38-.192-1.106-.734-1.407-1.036l-.7-.852c-.511-.691-.988-1.793-1.115-2.837-.087-.717.027-.722-.236-.752-.397-.04-1.744.354-1.744-1.264zm6.868 5.455c0 .11.03.14.14.14h2.631c.11 0 .145-.03.145-.14v-1.316H8.328v1.316zM1.46 10.723h16.651v2.024H1.461v-2.024zm5.784-7.711V5.88h1.46V1.412h2.164V5.88h1.455V3.012c.271.061.67.271.91.407.323.179.524.336.813.55 1.512 1.133 2.701 3.205 2.701 5.347H2.824c0-2.475 1.5-4.73 3.48-5.88.218-.127.677-.363.94-.424zm0-1.648c0 .18-.201.157-.551.297-.735.289-1.827.918-2.4 1.456-.096.087-.14.153-.24.232-.468.371-1.246 1.385-1.53 1.901-.468.861-.761 1.513-.967 2.514l-.192 1.552H0v5.643c0 1.417.896 2.794 2.116 2.82.022 1.023.97 2.636 1.622 3.462l.389.455c1.32 1.373 3.418 2.387 5.329 2.387 1.936 0 2.963-.284 4.529-1.207.188-.109.34-.227.502-.345.774-.555 1.54-1.443 2.024-2.256.219-.358.385-.73.564-1.132.11-.245.367-1.04.376-1.364.883-.017 1.653-.83 1.945-1.718.105-.306.171-.717.171-1.102V9.316h-1.364l-.066-.783c-.227-1.582-.769-3.064-1.779-4.288a8.694 8.694 0 00-2.286-1.998l-1.473-.686c-.398-.123-.276-.04-.276-1.561h-5.08v1.364z" fill="#2D8EFF"/></svg>