<svg viewBox="0 0 48 48" fill="none" xmlns="http://www.w3.org/2000/svg">
<path d="M24 48C10.77 48 0 37.23 0 24C0 10.77 10.77 0 24 0C37.23 0 48 10.77 48 24C48 37.23 37.23 48 24 48ZM24 3.69C12.8 3.69 3.69 12.8 3.69 24C3.69 35.2 12.8 44.31 24 44.31C35.2 44.31 44.31 35.2 44.31 24C44.31 12.8 35.2 3.69 24 3.69Z" fill="#2D8EFF"/>
<path d="M20.73 33.4998C20.24 33.4998 19.77 33.3098 19.42 32.9598L10.65 24.1898C9.92999 23.4698 9.92999 22.2998 10.65 21.5798C11.37 20.8598 12.54 20.8598 13.26 21.5798L20.73 29.0498L34.73 15.0498C35.45 14.3298 36.62 14.3298 37.34 15.0498C38.06 15.7698 38.06 16.9398 37.34 17.6598L22.04 32.9598C21.69 33.2998 21.22 33.4998 20.73 33.4998Z" fill="#2D8EFF"/>
</svg>
