<svg viewBox="0 0 32 22" fill="none" xmlns="http://www.w3.org/2000/svg"><path fill-rule="evenodd" clip-rule="evenodd" d="M10.088 15.74c1.11 0 1.945.85 1.945 2.005 0 1.518-1.98 2.608-3.3 1.292-1.274-1.278-.274-3.296 1.355-3.296zM1.58 12.703c0 .56.408 1.034.971 1.034h4.56c1.26 0 1.393-2.009-.184-2.009h-4.07c-.723 0-1.277.362-1.277.975zM0 8.75c0 .724.341 1.156 1.156 1.156h8.02c1.594 0 1.434-2.005.184-2.005H.971c-.473 0-.971.4-.971.849zm1.58-3.766c0 .563.397 1.03.971 1.03h8.508c.435 0 .988-.508.863-1.16-.118-.615-.574-.845-1.288-.845H2.795c-.626 0-1.215.38-1.215.975zm21.937 14.644c-.989 0-1.943-.85-1.943-1.762 0-.65.07-1.1.589-1.597 1.204-1.163 3.282-.29 3.282 1.413 0 1.016-.877 1.946-1.928 1.946zM21.087 3.95h3.585l1.908 3.877-5.493.01V3.952zM3.767 2.005h15.315v6.683c0 .55.195.836.547 1.038.595.34 7.47-.087 8.054.146.05.02 1.424 1.678 1.424 1.855v4.985h-1.82c-.021-.909-1.208-2.242-2.308-2.677-2.437-.957-4.804.588-5.291 2.677h-5.771c-.745-3.192-5.18-4.125-7.101-1.205-.16.244-.488.846-.495 1.205H3.766c-.967 0-1.336 1.204-.591 1.81.34.271.863.195 1.444.195h1.702c.042.511.536 1.225.867 1.622.16.191.261.25.449.404 1.465 1.19 3.491 1.176 4.953-.011.502-.41.829-.87 1.104-1.448.104-.216.132-.567.344-.567h5.528c.22 0 .226.313.324.529 1.68 3.651 6.627 2.764 7.396-.53.686 0 2.89.133 3.401-.18.244-.15.425-.4.425-.79v-6.503c0-.344-.515-.936-.71-1.173-.303-.376-.543-.72-.85-1.096a7.173 7.173 0 01-.417-.554L26.84 3.91c-.651-1.295-.717-1.963-1.925-1.963h-3.829c0-.637.115-1.323-.327-1.681A1.132 1.132 0 0020.053 0H3.83c-1.413 0-1.372 2.005-.063 2.005z" fill="#2D8EFF"/></svg>