<?xml version="1.0" standalone="no"?>
<!DOCTYPE svg PUBLIC "-//W3C//DTD SVG 20010904//EN"
 "http://www.w3.org/TR/2001/REC-SVG-20010904/DTD/svg10.dtd">
<svg version="1.0" xmlns="http://www.w3.org/2000/svg"
 width="180.000000pt" height="180.000000pt" viewBox="0 0 180.000000 180.000000"
 preserveAspectRatio="xMidYMid meet">
<metadata>
Created by potrace 1.14, written by Peter Selinger 2001-2017
</metadata>
<g transform="translate(0.000000,180.000000) scale(0.100000,-0.100000)"
fill="#000000" stroke="none">
<path d="M524 1365 c-188 -41 -337 -201 -366 -393 -39 -248 126 -486 371 -538
76 -16 267 -19 276 -4 3 5 2 10 -3 10 -5 0 -32 15 -59 34 -45 31 -57 34 -134
37 -68 4 -96 10 -149 35 -159 75 -253 251 -222 416 25 132 104 236 222 292 53
25 81 31 149 35 77 3 89 6 134 37 27 19 54 34 59 34 5 0 6 5 3 10 -9 14 -208
11 -281 -5z"/>
<path d="M1045 1356 c-125 -30 -239 -130 -303 -263 -36 -76 -37 -81 -37 -193
0 -112 1 -117 37 -193 66 -137 186 -239 316 -266 65 -14 173 -14 231 0 230 53
392 297 353 532 -32 186 -177 346 -353 386 -59 14 -182 12 -244 -3z"/>
</g>
</svg>
