<svg width="31" height="31" xmlns="http://www.w3.org/2000/svg"><path d="M15.284 12.656a2.614 2.614 0 002.615-2.638 2.62 2.62 0 00-2.628-2.626 2.624 2.624 0 00-2.635 2.658 2.62 2.62 0 002.649 2.606z" fill="inherit"/><path d="M15.27 0C6.837 0 0 6.837 0 15.27s6.837 15.27 15.27 15.27 15.27-6.837 15.27-15.27S23.703 0 15.27 0zm.022 4.644c2.974.008 5.362 2.44 5.346 5.448-.015 2.938-2.441 5.319-5.41 5.309-2.94-.01-5.35-2.447-5.332-5.39a5.387 5.387 0 015.396-5.367zm6.024 12.87c-.657.675-1.45 1.164-2.328 1.505-.831.322-1.742.484-2.644.592.137.148.2.22.286.306 1.223 1.23 2.453 2.454 3.672 3.687.416.42.502.942.273 1.43-.25.534-.81.886-1.359.848-.348-.024-.62-.197-.86-.44-.924-.93-1.865-1.842-2.77-2.788-.263-.276-.39-.223-.622.016-.929.957-1.873 1.898-2.823 2.834-.426.42-.934.497-1.428.256-.526-.254-.86-.79-.835-1.331.018-.364.197-.644.448-.893 1.211-1.209 2.419-2.421 3.627-3.633.08-.08.154-.166.271-.29-1.648-.173-3.133-.578-4.405-1.573-.158-.123-.32-.243-.465-.381-.557-.535-.613-1.148-.172-1.778.377-.54 1.01-.684 1.667-.374.127.06.248.135.365.215 2.37 1.629 5.626 1.673 8.005.073a2.17 2.17 0 01.78-.403c.568-.146 1.098.063 1.402.56.348.567.344 1.121-.085 1.562z" fill="inherit"/></svg>