<svg width="31" height="31" xmlns="http://www.w3.org/2000/svg"><path d="M15.27 0C6.837 0 0 6.836 0 15.27c0 8.433 6.837 15.27 15.27 15.27s15.27-6.837 15.27-15.27C30.54 6.836 23.702 0 15.27 0zm7.745 16.921c.712.695 1.465 1.35 2.104 2.117.283.339.55.69.753 1.084.29.563.028 1.18-.476 1.213h-3.128c-.808.067-1.45-.26-1.993-.812-.433-.44-.834-.91-1.25-1.365a2.927 2.927 0 00-.564-.501c-.427-.278-.797-.193-1.041.253-.25.453-.306.956-.33 1.46-.034.738-.257.93-.997.965-1.581.074-3.082-.166-4.476-.963-1.23-.703-2.183-1.696-3.013-2.82-1.616-2.19-2.853-4.595-3.965-7.068-.25-.557-.067-.855.547-.867a87.022 87.022 0 013.063 0c.416.006.69.243.85.635.552 1.358 1.229 2.65 2.076 3.847.226.32.457.637.785.863.362.248.638.166.81-.238.109-.258.156-.533.18-.808.08-.944.09-1.887-.05-2.828-.088-.588-.418-.968-1.005-1.079-.298-.056-.255-.167-.11-.338.253-.295.489-.477.961-.477h3.534c.557.109.682.359.758.92l.003 3.928c-.006.217.11.86.5 1.002.311.104.518-.147.704-.345.848-.9 1.452-1.96 1.993-3.06.239-.484.444-.986.644-1.488.15-.372.38-.554.8-.548l3.403.004c.1 0 .202.001.302.018.573.098.73.345.553.905-.28.879-.822 1.611-1.353 2.345-.568.786-1.175 1.545-1.738 2.334-.517.722-.476 1.085.166 1.712z" fill="inherit"/></svg>