<svg width="64" height="64" xmlns="http://www.w3.org/2000/svg"><circle cx="32" cy="32" r="32" fill="inherit"/><path d="M43.412 29.248h-8.976l7.75-13.628a1.084 1.084 0 00-.942-1.62H28.236c-.467 0-.881.3-1.028.742l-6.504 19.584a1.084 1.084 0 001.028 1.426h9.2l-5.86 13.739a1.084 1.084 0 001.808 1.144L44.224 31.05c.617-.698.121-1.803-.812-1.803zM29.687 44.195l3.882-9.102a1.085 1.085 0 00-.997-1.509h-9.338l5.784-17.416H39.38l-7.75 13.628c-.41.72.11 1.62.942 1.62h8.432L29.687 44.195z" fill="#fff"/></svg>