<svg width="112" height="55" viewBox="0 0 112 55" fill="none" xmlns="http://www.w3.org/2000/svg">
<path d="M40.197 23.393C40.7077 23.393 41.1921 23.4919 41.6518 23.689C42.1109 23.8864 42.5176 24.157 42.8719 24.5006C43.2254 24.8445 43.5065 25.2494 43.7136 25.7154C43.9215 26.1817 44.0253 26.6835 44.0253 27.2213C44.0253 27.7318 43.9268 28.2165 43.7293 28.6762C43.5319 29.1353 43.2616 29.5423 42.9176 29.896C42.5738 30.2499 42.1689 30.5306 41.7025 30.7384C41.2365 30.9459 40.7344 31.0497 40.197 31.0497C39.6865 31.0497 39.2 30.9508 38.7371 30.7537C38.2743 30.5562 37.8676 30.2842 37.5172 29.9369C37.1663 29.5899 36.8874 29.1828 36.6798 28.7168C36.4723 28.2505 36.3686 27.7522 36.3686 27.2213C36.3686 26.704 36.4671 26.2158 36.6646 25.7563C36.862 25.2969 37.1326 24.8937 37.4766 24.5467C37.8201 24.1994 38.225 23.9239 38.691 23.7196C39.1573 23.5155 39.6595 23.4065 40.197 23.393ZM40.2021 29.7738C40.5356 29.7738 40.8556 29.7072 41.165 29.5743C41.4749 29.4418 41.7455 29.2616 41.9801 29.0302C42.2146 28.7984 42.4003 28.5281 42.5398 28.22C42.6793 27.9104 42.749 27.5801 42.749 27.2265C42.749 26.8861 42.6828 26.5627 42.5502 26.2532C42.4177 25.9434 42.2369 25.6731 42.0055 25.4381C41.774 25.2033 41.5037 25.018 41.1959 24.8782C40.886 24.739 40.5561 24.6689 40.2021 24.6689C39.8617 24.6689 39.5383 24.7355 39.2288 24.868C38.9207 25.0009 38.6487 25.1811 38.4137 25.4125C38.1789 25.644 37.9935 25.9163 37.8541 26.2276C37.7145 26.5409 37.6448 26.8726 37.6448 27.2265C37.6448 27.5735 37.7111 27.8969 37.8436 28.1999C37.9765 28.5007 38.157 28.7679 38.388 28.9993C38.6195 29.2308 38.8902 29.4129 39.1983 29.549C39.5078 29.685 39.8413 29.7602 40.2021 29.7738ZM34.4595 23.3829V24.6588H31.9073V31.0497H30.6311V24.6588H28.079V23.3829H30.6311H34.4595ZM24.9463 23.393V28.2117H23.6701V23.393H24.9463ZM12.7541 23.3829L16.5929 31.0497H15.1838L14.3159 29.4976H11.2024L10.4775 31.0497H8.92578L12.7541 23.3829ZM11.9068 28.2016H13.7444L12.7541 26.231L11.9068 28.2016ZM21.9806 31.0497C21.5129 31.0497 21.1145 30.99 20.788 30.871C20.4628 30.752 20.194 30.599 19.983 30.4115C19.772 30.2245 19.612 30.017 19.4999 29.7887C19.3876 29.5607 19.3057 29.3415 19.255 29.1305C19.2037 28.9195 19.1731 28.7304 19.163 28.5639C19.153 28.3973 19.1478 28.2796 19.1478 28.2117V23.393H20.4237V28.2117C20.4237 28.2863 20.4324 28.4157 20.4493 28.5996C20.4663 28.7831 20.5225 28.9722 20.6176 29.1662C20.7131 29.3602 20.8678 29.5319 21.0823 29.6819C21.2956 29.8307 21.5951 29.9056 21.9806 29.906V31.0497Z" fill="black"/>
<path fill-rule="evenodd" clip-rule="evenodd" d="M12.2164 19.0001H48.3492C47.9145 19.2603 47.5019 19.5535 47.1153 19.8766H12.2164C10.199 19.8766 8.36411 20.7028 7.03305 22.0331C5.70234 23.3638 4.87615 25.1987 4.87615 27.2161C4.87615 29.2335 5.70234 31.0687 7.03305 32.3991C8.36411 33.7298 10.199 34.556 12.2164 34.556H47.1157C47.5019 34.879 47.9145 35.1722 48.3492 35.4325H12.2164C7.69753 35.4325 4 31.7353 4 27.2161C4 22.6973 7.69753 19.0001 12.2164 19.0001Z" fill="black"/>
<path fill-rule="evenodd" clip-rule="evenodd" d="M57.8784 19.0001H99.7838C104.303 19.0001 108 22.6973 108 27.2161C108 31.7353 104.302 35.4325 99.7838 35.4325H57.8784C57.9836 35.4318 58.0877 35.429 58.1918 35.4249H55.1858C52.929 35.4249 50.8765 34.5012 49.3886 33.013C47.9007 31.5254 46.9771 29.4729 46.9771 27.2161C46.9771 24.9596 47.9007 22.9072 49.3886 21.4193C50.8765 19.9314 52.929 19.0077 55.1858 19.0077H58.1918C58.088 19.0035 57.9836 19.0007 57.8784 19.0001Z" fill="#2D8EFF"/>
<path d="M56.4349 29.896C56.0741 30.2499 55.6626 30.5275 55.1997 30.728C54.7368 30.929 54.2538 31.0293 53.75 31.0293C53.2534 31.0293 52.7753 30.929 52.3155 30.728C51.8564 30.5275 51.4497 30.2533 51.0958 29.9064C50.7419 29.559 50.4595 29.1544 50.2481 28.6915C50.0372 28.2286 49.9316 27.7353 49.9316 27.2113C49.9316 26.7144 50.0323 26.2363 50.2329 25.7765C50.4338 25.3174 50.7079 24.9108 51.0549 24.5568C51.4019 24.2029 51.8068 23.9204 52.2697 23.7094C52.7326 23.4985 53.2257 23.393 53.75 23.393C54.2538 23.393 54.7368 23.4933 55.1997 23.6959C55.6626 23.8985 56.0741 24.1792 56.4349 24.5346L55.5876 25.3837C55.3087 25.1727 55.021 25.0009 54.725 24.868C54.429 24.7355 54.1042 24.6689 53.75 24.6689C53.396 24.6689 53.0643 24.7355 52.7548 24.868C52.4449 25.0009 52.176 25.1811 51.9481 25.4125C51.72 25.644 51.5396 25.9145 51.4071 26.2227C51.2746 26.5323 51.2079 26.8625 51.2079 27.2162C51.2079 27.57 51.2746 27.9 51.4071 28.2099C51.5396 28.5177 51.72 28.7867 51.9481 29.0146C52.176 29.2425 52.4449 29.4216 52.7548 29.5541C53.0643 29.6867 53.396 29.7529 53.75 29.7529C54.1042 29.7529 54.4235 29.6885 54.7098 29.559C54.9953 29.43 55.2441 29.2596 55.4551 29.049L56.4349 29.896ZM72.4323 23.3829L76.2707 31.0497H74.8619L73.9944 29.4976H70.8806L70.156 31.0497H68.604L72.4323 23.3829ZM94.5148 26.8028V29.93C94.2829 30.1392 94.0245 30.3265 93.7384 30.49C93.4932 30.633 93.1974 30.7606 92.8501 30.8762C92.5037 30.9921 92.1146 31.0497 91.6865 31.0497C91.1826 31.0497 90.7013 30.9494 90.2416 30.7485C89.7826 30.5476 89.3758 30.2738 89.0219 29.9268C88.668 29.5795 88.3855 29.1728 88.1746 28.7064C87.9636 28.2404 87.8582 27.7418 87.8582 27.2113C87.8582 27.0735 87.8657 26.9375 87.881 26.8028H89.1704C89.1462 26.9358 89.134 27.0718 89.134 27.2113C89.134 27.5309 89.2023 27.8442 89.3384 28.1502C89.4744 28.4567 89.6579 28.7304 89.8894 28.9722C90.1212 29.2141 90.3915 29.4078 90.7013 29.5541C91.0109 29.7006 91.3395 29.7738 91.6865 29.7738C91.9796 29.7738 92.2603 29.7363 92.5286 29.6614C92.7977 29.5864 93.0411 29.481 93.2587 29.345V28.0788H91.6865V26.8028H94.5148ZM91.6865 23.393C92.2923 23.393 92.8279 23.5068 93.2943 23.7351C93.7606 23.9628 94.1675 24.2744 94.5148 24.6689C94.5148 24.6762 94.4633 24.7168 94.3611 24.7917C94.2598 24.8663 94.147 24.9482 94.0244 25.0367C93.8814 25.1387 93.7144 25.2543 93.5243 25.3837C93.3129 25.1658 93.0447 24.9923 92.7178 24.8632C92.3909 24.7338 92.0471 24.6689 91.6865 24.6689V23.393ZM71.5849 28.2016H73.4226L72.4323 26.231L71.5849 28.2016ZM65.7354 23.393V31.0497H64.4591V27.9358H61.2026V31.0497H59.9264V23.393H61.2026V26.6599H64.4591V23.393H65.7354ZM85.0916 31.0497H83.6723L81.9829 27.9257H80.4158V31.0497H79.1396V26.6495H80.4158H81.3316H82.8284C82.9833 26.6429 83.1227 26.602 83.2452 26.527C83.3541 26.4677 83.4513 26.3688 83.5394 26.2328C83.6283 26.0981 83.6723 25.9045 83.6723 25.6543C83.6723 25.4108 83.6283 25.2202 83.5394 25.0859C83.4513 24.9496 83.3541 24.8511 83.2452 24.7917C83.1227 24.7168 82.9833 24.6762 82.8284 24.6689H81.3316H80.4158H79.1396V23.393H82.825C83.2199 23.4134 83.5738 23.5086 83.8868 23.679C84.0163 23.7535 84.1454 23.8455 84.2748 23.9544C84.4042 24.0634 84.518 24.1959 84.6169 24.3527C84.7155 24.5089 84.7956 24.6945 84.8566 24.909C84.9181 25.1234 84.9486 25.3736 84.9486 25.6595C84.9486 26.122 84.8737 26.5017 84.7241 26.7977C84.5742 27.0937 84.4059 27.3251 84.2185 27.492C84.0315 27.6585 83.8542 27.7727 83.6876 27.8338C83.5211 27.8952 83.4204 27.9257 83.3865 27.9257L85.0916 31.0497ZM102.803 24.6689H97.6896V23.393H102.803V24.6689ZM98.9652 26.578H102.232V27.8542H97.6896V26.578H98.9652ZM98.9652 29.7738H102.803V31.0497H97.6896V29.7738H98.9652Z" fill="white"/>
</svg>
