<svg width="263" height="263" viewBox="0 0 263 263" fill="none" xmlns="http://www.w3.org/2000/svg">
<g clip-path="url(#clip0_12672_1579)">
<path d="M116.832 99.5799C117.189 99.58 117.547 99.5799 117.904 99.5798C118.868 99.5798 119.832 99.5809 120.796 99.5822C121.806 99.5834 122.815 99.5835 123.825 99.5838C125.734 99.5844 127.644 99.5859 129.553 99.5879C131.728 99.59 133.903 99.5911 136.078 99.592C140.549 99.594 145.021 99.5975 149.492 99.6016C149.492 103.645 149.492 107.689 149.492 111.855C147.946 111.858 147.946 111.858 146.367 111.86C142.962 111.867 139.557 111.877 136.152 111.89C134.087 111.898 132.023 111.904 129.958 111.907C128.158 111.909 126.358 111.914 124.558 111.923C123.606 111.927 122.653 111.93 121.7 111.93C120.803 111.93 119.905 111.933 119.008 111.939C118.679 111.941 118.35 111.941 118.022 111.94C115.718 111.899 115.718 111.899 113.651 112.812C110.91 116.182 112.543 123.539 112.501 126.023C128.124 126.023 143.746 126.023 159.842 126.023C159.842 130.572 159.842 135.121 159.842 139.808C139.286 139.808 118.73 139.808 97.5508 139.808C97.5508 107.967 97.5508 107.967 101.204 104.065C105.384 100.061 111.339 99.5682 116.832 99.5799Z" fill="#161616"/>
<path d="M97.5508 70.5C118.107 70.5 138.663 70.5 159.842 70.5C159.842 75.049 159.842 79.5981 159.842 84.285C144.22 84.285 128.597 84.285 112.501 84.285C112.501 88.834 112.501 93.3831 112.501 98.07C108.401 97.7774 105.223 96.8445 102.151 94.0493C102.015 93.9319 101.88 93.8144 101.74 93.6933C98.9901 91.1623 98.1045 88.0719 97.5508 84.4764C97.5508 79.8642 97.5508 75.252 97.5508 70.5Z" fill="#161616"/>
<path d="M118.827 175.036C120.682 176.479 121.927 178.653 122.236 180.988C122.469 184.192 122.069 186.935 119.941 189.443C118.095 191.378 115.552 192.343 112.885 192.459C112.689 192.469 112.493 192.479 112.291 192.489C109.141 192.572 106.139 191.84 103.781 189.647C101.607 187.3 101.269 184.67 101.326 181.617C101.425 179.256 102.479 177.085 104.2 175.455C108.221 172.228 114.61 172.139 118.827 175.036ZM106.752 178.865C105.706 180.362 105.243 182.122 105.487 183.929C105.839 185.428 106.584 186.661 107.902 187.481C110.028 188.508 112.675 188.586 114.91 187.87C116.389 187.244 117.267 186.283 117.869 184.8C118.323 182.995 118.189 181.268 117.294 179.631C116.63 178.571 115.725 177.926 114.533 177.585C111.913 177.032 108.818 176.922 106.752 178.865Z" fill="#161616"/>
<path d="M186.293 173.504C191.796 173.504 197.298 173.504 202.968 173.504C202.968 174.768 202.968 176.032 202.968 177.334C198.857 177.334 194.745 177.334 190.51 177.334C190.51 178.471 190.51 179.608 190.51 180.78C193.862 180.78 197.214 180.78 200.668 180.78C200.668 181.917 200.668 183.054 200.668 184.226C197.316 184.226 193.963 184.226 190.51 184.226C190.51 185.49 190.51 186.753 190.51 188.055C194.621 188.055 198.732 188.055 202.968 188.055C202.968 189.319 202.968 190.582 202.968 191.884C197.465 191.884 191.962 191.884 186.293 191.884C186.293 185.819 186.293 179.754 186.293 173.504Z" fill="#161616"/>
<path d="M143.36 173.504C144.751 173.504 146.143 173.504 147.576 173.504C147.584 173.849 147.592 174.194 147.599 174.549C147.626 175.694 147.655 176.839 147.687 177.983C147.706 178.677 147.723 179.37 147.738 180.064C147.752 180.734 147.77 181.404 147.79 182.075C147.801 182.452 147.808 182.83 147.814 183.207C147.859 184.564 147.965 185.748 148.726 186.906C150.038 188.042 151.435 188.131 153.104 188.105C153.931 188.037 154.496 187.841 155.243 187.481C155.417 187.402 155.591 187.323 155.77 187.242C156.567 186.622 156.913 185.964 157.05 184.98C157.094 184.252 157.114 183.526 157.127 182.797C157.134 182.528 157.142 182.26 157.149 181.991C157.169 181.289 157.184 180.586 157.198 179.883C157.214 179.164 157.233 178.445 157.253 177.727C157.29 176.319 157.322 174.912 157.351 173.504C158.743 173.504 160.134 173.504 161.568 173.504C161.586 175.009 161.6 176.514 161.608 178.019C161.612 178.718 161.617 179.416 161.626 180.115C161.634 180.792 161.639 181.469 161.641 182.145C161.643 182.524 161.649 182.904 161.655 183.283C161.656 185.783 161.054 188.003 159.46 189.97C157.539 191.884 155.031 192.438 152.392 192.519C149.782 192.461 147.336 191.706 145.384 189.925C143.366 187.647 143.329 185.047 143.341 182.161C143.341 181.913 143.342 181.665 143.342 181.409C143.343 180.754 143.344 180.1 143.347 179.446C143.349 178.776 143.349 178.106 143.35 177.436C143.352 176.125 143.356 174.815 143.36 173.504Z" fill="#161616"/>
<path d="M80.877 173.504C82.2685 173.504 83.66 173.504 85.0936 173.504C85.0936 178.243 85.0936 182.982 85.0936 187.864C88.3196 187.26 90.9854 186.531 92.9804 183.868C95.0716 180.696 95.4683 177.21 95.6353 173.504C96.3021 173.499 96.969 173.495 97.6358 173.492C97.9214 173.49 97.9214 173.49 98.2127 173.488C98.3937 173.487 98.5746 173.486 98.7611 173.486C99.0125 173.484 99.0125 173.484 99.269 173.483C99.6603 173.504 99.6603 173.504 99.852 173.696C100.225 178.899 98.6763 183.948 95.2722 187.903C92.926 190.404 89.3158 191.981 85.8916 192.094C85.2621 192.102 84.6331 192.102 84.0035 192.1C83.6794 192.101 83.6794 192.101 83.3488 192.102C83.1411 192.102 82.9335 192.102 82.7195 192.101C82.5313 192.101 82.3431 192.101 82.1492 192.101C81.6436 192.076 81.6436 192.076 80.877 191.884C80.877 185.819 80.877 179.754 80.877 173.504Z" fill="#161616"/>
<path d="M124.385 173.504C125.84 173.504 127.294 173.504 128.793 173.504C128.797 173.889 128.801 174.274 128.805 174.67C128.818 175.941 128.832 177.211 128.848 178.482C128.858 179.253 128.867 180.023 128.874 180.794C128.881 181.537 128.89 182.281 128.9 183.025C128.904 183.308 128.907 183.592 128.909 183.875C128.912 184.273 128.918 184.67 128.924 185.068C128.926 185.294 128.929 185.52 128.931 185.753C128.984 186.321 129.037 186.638 129.368 187.098C129.998 187.545 130.591 187.533 131.348 187.542C131.716 187.548 131.716 187.548 132.092 187.553C132.359 187.556 132.626 187.558 132.893 187.56C133.167 187.564 133.441 187.567 133.715 187.571C134.435 187.581 135.154 187.589 135.874 187.596C136.609 187.604 137.344 187.613 138.079 187.623C139.52 187.641 140.961 187.657 142.402 187.672C142.402 189.062 142.402 190.452 142.402 191.884C140.685 191.902 138.969 191.916 137.253 191.924C136.456 191.928 135.659 191.933 134.862 191.942C134.091 191.951 133.321 191.955 132.55 191.957C132.257 191.958 131.965 191.961 131.672 191.965C129.682 191.992 128.136 191.816 126.445 190.712C124.444 188.622 124.328 186.423 124.347 183.676C124.348 183.382 124.349 183.088 124.349 182.794C124.351 182.024 124.354 181.255 124.359 180.486C124.362 179.699 124.364 178.912 124.366 178.126C124.37 176.585 124.377 175.045 124.385 173.504Z" fill="#161616"/>
<path d="M74.5505 180.971C74.5505 182.172 74.5505 183.372 74.5505 184.609C74.2748 184.612 73.9992 184.614 73.7151 184.617C72.6938 184.628 71.6726 184.643 70.6514 184.659C70.2092 184.666 69.7669 184.671 69.3246 184.675C68.6894 184.682 68.0543 184.692 67.4192 184.702C67.1218 184.704 67.1218 184.704 66.8184 184.706C66.6342 184.71 66.4501 184.714 66.2603 184.718C66.0982 184.72 65.936 184.722 65.7689 184.724C65.2673 184.775 65.2673 184.775 64.7755 185.375C64.7123 186.259 64.649 187.144 64.5839 188.055C68.7584 188.055 72.9329 188.055 77.2339 188.055C77.2339 189.319 77.2339 190.582 77.2339 191.884C71.6679 191.884 66.1019 191.884 60.3672 191.884C60.3672 183.145 60.3672 183.145 61.3495 182.048C62.8703 181.189 64.3459 181.065 66.0693 181.031C66.2992 181.025 66.5292 181.018 66.7661 181.012C69.3605 180.947 71.9556 180.954 74.5505 180.971Z" fill="#161616"/>
<path d="M163.867 173.313C172.382 173.241 172.382 173.241 174.279 174.884C176.146 176.879 176.191 178.91 176.178 181.515C176.178 181.809 176.178 182.102 176.178 182.396C176.177 183.008 176.176 183.62 176.173 184.232C176.17 185.017 176.169 185.803 176.169 186.589C176.169 187.194 176.168 187.798 176.167 188.403C176.166 188.693 176.166 188.983 176.166 189.273C176.165 189.676 176.164 190.08 176.162 190.483C176.161 190.712 176.16 190.942 176.159 191.179C176.134 191.693 176.134 191.693 175.942 191.884C175.643 191.901 175.343 191.905 175.043 191.903C174.862 191.902 174.681 191.902 174.495 191.901C174.304 191.9 174.114 191.898 173.918 191.896C173.727 191.895 173.535 191.895 173.339 191.894C172.865 191.891 172.391 191.888 171.917 191.884C171.916 191.729 171.915 191.574 171.914 191.414C171.903 189.946 171.889 188.479 171.872 187.011C171.863 186.257 171.856 185.502 171.851 184.748C171.846 184.019 171.838 183.291 171.828 182.562C171.825 182.285 171.823 182.007 171.822 181.73C171.874 179.721 171.874 179.721 171.151 177.908C170.313 177.473 169.479 177.468 168.547 177.446C168.412 177.442 168.278 177.438 168.139 177.435C167.713 177.423 167.288 177.414 166.862 177.405C166.572 177.398 166.281 177.391 165.991 177.383C165.283 177.364 164.575 177.349 163.867 177.334C163.867 176.007 163.867 174.68 163.867 173.313Z" fill="#161616"/>
<path d="M60.3682 173.504C65.9342 173.504 71.5002 173.504 77.2349 173.504C77.2349 174.768 77.2349 176.032 77.2349 177.334C73.0604 177.334 68.8859 177.334 64.5849 177.334C64.5849 178.534 64.5849 179.734 64.5849 180.971C63.1777 180.813 62.3147 180.611 61.2606 179.659C59.7712 177.732 60.3682 176.088 60.3682 173.504Z" fill="#161616"/>
<path d="M176.326 173.504C178.919 173.504 181.513 173.504 184.185 173.504C184.185 174.768 184.185 176.032 184.185 177.334C181.591 177.334 178.998 177.334 176.326 177.334C176.326 176.07 176.326 174.806 176.326 173.504Z" fill="#161616"/>
</g>
<defs>
<clipPath id="clip0_12672_1579">
<rect width="262.5" height="262.5" fill="white"/>
</clipPath>
</defs>
</svg>
