<svg width="70" height="70" viewBox="0 0 70 70" fill="none" xmlns="http://www.w3.org/2000/svg">
<path d="M35 13.756C23.2859 13.756 13.756 23.2861 13.756 35C13.756 46.7139 23.2859 56.244 35 56.244C46.7141 56.244 56.244 46.7141 56.244 35C56.244 23.2859 46.7141 13.756 35 13.756ZM35 53.5097C24.7937 53.5097 16.4903 45.2063 16.4903 35C16.4903 24.7937 24.7937 16.4903 35 16.4903C45.2063 16.4903 53.5097 24.7938 53.5097 35C53.5097 45.2063 45.2063 53.5097 35 53.5097ZM66.4236 28.0606C63.4348 28.0606 61.5669 26.1218 60.8152 24.3074C60.0635 22.4928 60.0135 19.801 62.127 17.6874C63.5216 16.2929 63.5216 14.0239 62.127 12.6294L57.3706 7.87295C55.9761 6.47855 53.7071 6.47855 52.3124 7.87295C50.199 9.98635 47.5072 9.93617 45.6928 9.18477C43.8784 8.43322 41.9396 6.56523 41.9396 3.57643C41.9396 1.60439 40.3352 0 38.3631 0H31.637C29.665 0 28.0604 1.60439 28.0604 3.57643C28.0604 6.56523 26.1216 8.43322 24.3072 9.18477C22.4926 9.93645 19.8007 9.98648 17.6874 7.87295C16.2929 6.47855 14.0239 6.47855 12.6294 7.87295L7.87308 12.6294C7.19756 13.3048 6.82555 14.203 6.82555 15.1584C6.82555 16.1138 7.19756 17.0121 7.87295 17.6874C9.98635 19.801 9.93631 22.4928 9.18463 24.3074C8.43309 26.1218 6.5651 28.0606 3.57629 28.0606C1.60439 28.0606 0 29.665 0 31.6369V38.363C0 40.335 1.60439 41.9394 3.57643 41.9394C6.5651 41.9394 8.43309 43.8782 9.18476 45.6926C9.93644 47.5072 9.98648 50.199 7.87322 52.3124C7.19769 52.9878 6.82568 53.8861 6.82568 54.8416C6.82568 55.797 7.19769 56.6952 7.87308 57.3707L12.6295 62.1271C13.3049 62.8026 14.2032 63.1746 15.1586 63.1746C16.1139 63.1746 17.0122 62.8026 17.6876 62.1272C19.8041 60.0105 22.4961 60.059 24.3095 60.8102C26.1228 61.5613 28.0606 63.4304 28.0606 66.4238C28.0606 68.3959 29.665 70.0003 31.6371 70.0003H38.3633C40.3353 70.0003 41.9397 68.3959 41.9397 66.4238C41.9397 63.435 43.8785 61.567 45.6929 60.8155C47.5076 60.0638 50.1993 60.0138 52.3127 62.1273C52.9882 62.8027 53.8863 63.1747 54.8418 63.1747C55.7974 63.1747 56.6955 62.8027 57.3709 62.1273L62.1275 57.3709C62.8028 56.6955 63.1749 55.7972 63.1749 54.8419C63.1749 53.8863 62.8028 52.9882 62.1275 52.3128C60.0141 50.1994 60.0641 47.5074 60.8156 45.6929C61.5672 43.8785 63.4352 41.9397 66.424 41.9397C68.396 41.9397 70.0004 40.3353 70.0004 38.3633V31.6371C70 29.665 68.3956 28.0606 66.4236 28.0606ZM67.2656 38.3631C67.2656 38.8274 66.8879 39.2052 66.4236 39.2052C62.7963 39.2052 59.6792 41.2902 58.2891 44.6463C56.8988 48.0026 57.6285 51.6812 60.1936 54.2462C60.3526 54.4052 60.4401 54.6165 60.4401 54.8416C60.4401 55.0666 60.3526 55.2781 60.1936 55.4371L55.4371 60.1936C55.2781 60.3526 55.0668 60.4401 54.8417 60.4401C54.6167 60.4401 54.4052 60.3524 54.2462 60.1934C51.6812 57.6285 48.0029 56.8987 44.6465 58.2889C41.2902 59.6791 39.2053 62.7962 39.2053 66.4236C39.2053 66.8879 38.8276 67.2656 38.3633 67.2656H31.6371C31.1728 67.2656 30.7949 66.8879 30.7949 66.4236C30.7949 62.7923 28.7108 59.6734 25.3559 58.2836C24.2315 57.818 23.0713 57.5906 21.928 57.5906C19.6602 57.5906 17.4612 58.4864 15.754 60.1936C15.595 60.3526 15.3836 60.4401 15.1586 60.4401C14.9335 60.4401 14.7221 60.3526 14.5631 60.1934L9.8067 55.437C9.64769 55.278 9.56006 55.0665 9.56006 54.8414C9.56006 54.6164 9.64756 54.405 9.8067 54.2459C12.3717 51.6809 13.1013 48.0024 11.7111 44.6461C10.3209 41.2899 7.20385 39.2049 3.57656 39.2049C3.11227 39.2049 2.73451 38.8272 2.73451 38.3629V31.6367C2.73451 31.1724 3.11227 30.7947 3.57656 30.7947C7.20385 30.7947 10.3209 28.7097 11.7111 25.3535C13.1013 21.9972 12.3717 18.3187 9.80656 15.7537C9.64756 15.5947 9.56006 15.3833 9.56006 15.1583C9.56006 14.9332 9.64756 14.7219 9.8067 14.5627L14.5631 9.80629C14.8915 9.47789 15.4258 9.47803 15.7541 9.80629C18.3191 12.3713 21.9976 13.1011 25.3538 11.7108C28.7101 10.3206 30.7951 7.20357 30.7951 3.57615C30.7951 3.11186 31.1728 2.7341 31.6373 2.7341H38.3634C38.8277 2.7341 39.2055 3.11186 39.2055 3.57615C39.2055 7.20357 41.2904 10.3206 44.6466 11.7108C48.003 13.1009 51.6812 12.3713 54.2462 9.80629C54.5746 9.47803 55.109 9.47803 55.4373 9.80629L60.1937 14.5627C60.5221 14.891 60.5221 15.4254 60.1937 15.7537C57.6287 18.3188 56.8989 21.9972 58.2892 25.3535C59.6794 28.7097 62.7964 30.7947 66.4237 30.7947C66.888 30.7947 67.2658 31.1724 67.2658 31.6367V38.3631H67.2656ZM28.9771 29.7131L23.6901 35L28.9771 40.287C29.511 40.8209 29.511 41.6866 28.9771 42.2207C28.7101 42.4875 28.3603 42.6211 28.0104 42.6211C27.6604 42.6211 27.3107 42.4877 27.0436 42.2207L20.7899 35.9669C20.256 35.433 20.256 34.5673 20.7899 34.0333L27.0436 27.7795C27.5775 27.2456 28.4432 27.2456 28.9773 27.7795C29.5113 28.3134 29.5111 29.1791 28.9771 29.7131ZM42.9563 27.7795L49.2101 34.0333C49.744 34.5671 49.744 35.4329 49.2101 35.9669L42.9563 42.2207C42.6893 42.4877 42.3395 42.6211 41.9896 42.6211C41.6397 42.6211 41.2897 42.4877 41.0229 42.2207C40.489 41.6868 40.489 40.8211 41.0229 40.287L46.3099 35L41.0229 29.7131C40.489 29.1792 40.489 28.3135 41.0229 27.7795C41.5568 27.2454 42.4225 27.2456 42.9563 27.7795ZM38.4002 28.9837L34.1327 41.8759C33.9425 42.4501 33.4083 42.8138 32.8349 42.8138C32.6925 42.8138 32.5477 42.7913 32.4051 42.7442C31.6883 42.5068 31.2996 41.7334 31.5368 41.0166L35.8043 28.1244C36.0417 27.4076 36.8149 27.0189 37.5319 27.2561C38.2487 27.4933 38.6374 28.2667 38.4002 28.9837Z" fill="#058DF3"/>
</svg>
