<svg xmlns="http://www.w3.org/2000/svg" width="115" height="660" fill="none" viewBox="0 0 115 660"><path fill="currentColor" fill-rule="evenodd" d="M52.575.029h59.396v13.035H53.673c-10 0-17.833 8.209-17.833 17.978 0 9.77 8.237 17.978 18.18 17.978h57.951v13.035H54.02c-9.856 0-18.18 7.948-18.18 17.891 0 9.365 7.428 18.036 17.978 18.036h58.153v13.035h-86.45V97.982h6.301c-4.971-4.74-8.728-11.706-8.728-19.481 0-10.29 4.046-18.267 12.283-24.365-8.208-6.099-12.283-14.972-12.283-24.626C23.094 13.873 36.244 0 52.604 0l-.03.029Zm59.396 377.735v13.035H100.67c8.815 8.7 13.758 20.175 13.758 32.661-.029 25.261-20.29 45.667-45.667 45.667-25.377 0-45.667-19.943-45.667-45.291 0-13.527 4.797-24.337 13.758-33.037H25.55v-13.035H112h-.029Zm-43.297 13.035c-17.891 0-32.69 14.597-32.69 32.661 0 18.065 14.539 32.776 32.777 32.776s32.776-15.029 32.776-32.776c0-17.746-14.567-32.661-32.834-32.661h-.03Zm6.59-269.435v77.316c15.26-3.092 26.244-16.359 26.244-32.111 0-12.082-6.388-22.169-15.955-28.123V124.11c16.88 6.677 28.846 23.556 28.846 42.459 0 25.348-20.493 45.667-45.725 45.667-25.233 0-45.61-20.348-45.61-45.667 0-29.366 25.435-48.702 52.2-45.205ZM62.229 198.68l.057-64.223c-15.116 3.064-26.33 16.36-26.33 32.112A32.664 32.664 0 0 0 62.2 198.68h.028Zm29.423 416.581L.954 580.462v-14.134c36.996 14.307 73.992 28.643 111.017 42.922v11.994L.954 664.166v-13.99l90.698-34.944v.029Zm20.319-54.771h-86.45v-13.035h86.45v13.035ZM0 553.958a8.326 8.326 0 0 1 8.324-8.324 8.326 8.326 0 0 1 8.324 8.324 8.327 8.327 0 0 1-8.324 8.324A8.327 8.327 0 0 1 0 553.958Zm25.521-18.094v1.648h13.036v-51.679l61.419 51.679h11.995V468H98.936v51.679L37.516 468H25.522v67.864Zm66.13-207.322L.955 293.743v-14.134c36.996 14.307 73.992 28.643 111.017 42.921v11.995L.954 377.446v-13.989l90.698-34.944v.029ZM48.558 221.6c-17.486 0-25.492 17.834-25.492 32.227 0 14.394 9.104 32.227 24.654 32.227 17.024 0 24.279-16.85 26.33-32.111 1.215-9.104 3.73-22.053 12.978-22.053 10.463 0 14.597 12.313 14.597 21.937 0 10.145-4.423 21.938-16.33 21.938h-1.648v13.498h1.647c19.741 0 29.077-17.631 29.077-35.407 0-17.775-9.943-35.262-26.909-35.262s-25.03 18.181-26.562 34.973c-.838 9.134-5.116 19.134-12.862 19.134-8.584 0-12.515-11.532-12.515-18.931 0-7.4 3.526-18.932 13.006-18.932h1.648v-13.18h-1.648l.03-.058Z" clip-rule="evenodd"/></svg>