<?xml version="1.0" encoding="UTF-8"?>
<svg width="450.8" height="187" fill="none" version="1.1" viewBox="0 0 450.8 187" xmlns="http://www.w3.org/2000/svg">
 <path d="m240.8 181.7-97.62-88.75c-0.769-0.6995-1.771-1.087-2.811-1.086h-68.72c-6.657 0-6.657-10.18 0-10.18h68.72c3.58 0 7.011 1.327 9.66 3.735l97.62 88.74c6.502 5.911 16.89 1.315 16.89-7.47v-70.65c0-7.918 6.442-14.36 14.36-14.36h80.02c45.11 0 81.7-36.58 81.7-81.7h10.18c0 50.73-41.16 91.88-91.88 91.88h-80.02c-2.307 2e-3 -4.177 1.872-4.179 4.179v70.65c0 17.61-20.93 26.81-33.92 15zm-194.3-99.9v17.21l-11.02 23.77h-9.286l7.677-21.79h-6.563v-19.19h19.19zm-26.2 0v17.21l-11.02 23.77h-9.286l7.676-21.79h-6.562v-19.19h19.19z" fill="currentColor"/>
</svg>
