<?xml version="1.0" encoding="UTF-8"?>
<svg width="320" height="55" fill="none" version="1.1" viewBox="0 0 320 55" xmlns="http://www.w3.org/2000/svg">
 <path d="m320 25.27v28.55h-6.28v-28.02c0-4.807-3.955-8.572-8.662-8.572s-8.662 3.959-8.662 8.738v27.85h-6.281v-27.85c0-4.737-3.829-8.738-8.62-8.738-4.512 0-8.689 3.57-8.689 8.641v27.95h-6.281v-41.55h6.281v3.028c2.284-2.39 5.64-4.196 9.386-4.196 4.957 0 8.801 1.945 11.74 5.904 2.938-3.946 7.214-5.904 11.86-5.904 7.534 0 14.22 6.321 14.22 14.18zm-182 28.55h-6.28v-5.432c-4.192 4.237-9.72 6.613-15.74 6.613-12.17-0.0139-22-9.752-22-21.95s9.609-21.95 21.82-21.95c6.517 0 11.72 2.306 15.92 6.613v-5.432h6.28zm-6.28-20.81c0-8.599-7.033-15.71-15.74-15.71-8.704 0-15.79 6.988-15.79 15.75s7.241 15.75 15.79 15.75c8.55 0 15.74-7.002 15.74-15.78zm129.8 3.168h-37.25c1.49 7.335 7.882 12.61 15.47 12.61 5.821 0 10.68-3.07 13.55-7.669h6.907c-3.217 8.113-11.35 13.86-20.46 13.86-12.21 0-22-9.85-22-21.98 0-12.13 9.804-21.92 22-21.92 14.15 0 23.46 12.23 21.78 25.09zm-37.25-6.266 30.94 0.0278c-1.476-7.266-7.882-12.66-15.47-12.66-7.59 0-14 5.307-15.47 12.61zm-200.7 14.14 16.77-43.59h6.81c-6.893 17.78-13.8 35.56-20.68 53.36h-5.779l-20.68-53.36h6.74l16.84 43.59zm26.39 9.766v-41.55h6.28v41.55zm3.147-53.82c2.214 0 4.011 1.792 4.011 4.001s-1.796 4.001-4.011 4.001-4.011-1.792-4.011-4.001 1.796-4.001 4.011-4.001zm7.924 12.27v6.266h24.9l-24.9 29.52v5.765h33.49v-6.265h-24.9l24.9-29.52v-5.765zm100.7 31.79 16.77-43.59h6.809c-6.893 17.78-13.8 35.56-20.68 53.36h-5.779l-20.68-53.36h6.74l16.84 43.59zm51.52-20.71c0-8.405-8.592-12.25-15.53-12.25s-15.53 4.376-15.53 11.85c0 8.183 8.119 11.67 15.47 12.66 4.387 0.5835 10.63 1.792 10.63 6.238 0 5.029-5.933 7.016-10.57 7.016-4.888 0-10.57-2.126-10.57-7.849v-0.7919h-6.503v0.7919c0 9.488 8.495 13.98 17.06 13.98s16.99-4.779 16.99-12.93-8.76-12.03-16.85-12.77c-4.4-0.4029-9.219-2.459-9.219-6.182 0-4.126 5.557-6.015 9.122-6.015s9.121 1.695 9.121 6.252v0.7919h6.35v-0.7919z" clip-rule="evenodd" fill="currentColor" fill-rule="evenodd"/>
</svg>
