<svg width="70" height="70" viewBox="0 0 70 70" fill="none" xmlns="http://www.w3.org/2000/svg">
<path d="M17.4239 8.76579L0.380435 17.4681L0.152174 35.0631L0 52.5947L16.8913 61.3605C26.25 66.1245 34.3913 70.0628 35.0761 69.9992C35.6848 69.9992 43.8261 66.061 53.1087 61.2335L70 52.5312L69.8478 35.0631L69.6196 17.5316L52.5761 8.76579C43.1413 3.93826 35.2283 0 35 0C34.6957 0 26.8587 3.93826 17.4239 8.76579ZM49.6087 10.862C57.5217 14.8637 63.913 18.2938 63.913 18.4844C63.913 18.7385 63 19.3737 61.9348 20.0089C59.9565 21.0887 59.8804 21.0252 47.9348 14.9908C41.3913 11.6242 35.4565 8.89283 34.8478 8.89283C34.3152 8.89283 28.5326 11.6242 22.0652 14.9272C15.5978 18.2303 10.1196 20.9617 9.8913 20.9617C9.66304 20.9617 8.52174 20.39 7.38043 19.7548L5.25 18.6114L19.9348 10.989C28 6.79667 34.7717 3.43009 35 3.49361C35.2283 3.55713 41.7717 6.86018 49.6087 10.862ZM46.1848 17.5316C51.3587 20.1994 55.5435 22.5497 55.5435 22.8037C55.5435 23.0578 54.6304 23.693 53.413 24.2647C51.3587 25.281 51.2065 25.281 43.1413 21.1522L34.9239 16.9599L26.7826 21.1522C18.7174 25.281 18.6413 25.281 16.587 24.2647C15.3696 23.693 14.4565 23.0578 14.4565 22.8037C14.4565 21.9145 34.6196 12.0688 35.6848 12.3864C36.2935 12.577 41.0109 14.9272 46.1848 17.5316ZM40.7826 23.3754C44.0544 25.0905 46.7935 26.742 46.9457 27.0596C47.0978 27.3772 44.4348 29.0287 41.087 30.7438L35 33.7927L28.913 30.7438C25.5652 29.0287 22.9022 27.3772 23.0543 27.1231C23.2065 26.742 33.4783 20.8346 34.7717 20.39C34.8478 20.3265 37.5109 21.7239 40.7826 23.3754ZM9.73913 24.3918C12.3261 25.7257 14.4565 26.9326 14.4565 27.1866C14.4565 27.4407 12.8587 28.457 10.8043 29.4734C8.82609 30.5532 6.46739 31.7601 5.55435 32.2683L3.80435 33.1575V27.3772C3.80435 24.1377 4.03261 21.6604 4.41304 21.7874C4.71739 21.9145 7.07609 23.1213 9.73913 24.3918ZM66.1957 27.3772V33.1575L63.7609 31.8236C62.3913 31.0614 59.9565 29.8545 58.3587 29.0922C56.837 28.33 55.6196 27.4407 55.6957 27.1866C55.9239 26.615 64.6739 21.7239 65.663 21.6604C65.9674 21.5969 66.1957 24.2012 66.1957 27.3772ZM25.0326 32.2047C33.9348 36.7782 33.4783 36.143 33.4783 43.0032C33.4783 47.5766 33.25 48.9741 32.4891 48.7835C30.663 48.4024 6.84783 35.9524 7 35.4443C7.22826 34.8726 17.5761 29.3463 18.5652 29.2828C18.8696 29.2193 21.837 30.5532 25.0326 32.2047ZM57.5978 32.1412C60.6413 33.7292 63.1522 35.1902 63.1522 35.4443C63.0761 35.8254 39.7174 48.2118 37.8913 48.7835C37.587 48.9105 37.2826 46.1792 37.2826 42.6856V36.3335L43.9783 32.7764C47.6304 30.8708 50.9022 29.2193 51.2826 29.2193C51.663 29.2193 54.4783 30.5532 57.5978 32.1412ZM19.0217 45.7345C25.9457 49.2917 32.0326 52.5312 32.5652 52.9758C33.25 53.5475 33.4783 55.5166 33.3261 59.8995L33.0978 66.061L18.4891 58.6291L3.80435 51.1337V44.5912C3.80435 38.5568 3.88043 38.1121 5.17391 38.6838C5.8587 39.0014 12.1739 42.1774 19.0217 45.7345ZM66.0435 44.5277L65.8152 51.0067L52.1196 58.1845C44.587 62.1227 38.1957 65.3623 37.8913 65.4258C37.5109 65.4258 37.2826 62.5674 37.2826 59.1373V52.7853L51.2065 45.544C58.8152 41.4787 65.3587 38.1756 65.663 38.1756C65.9674 38.1121 66.1196 41.034 66.0435 44.5277Z" fill="url(#paint0_linear_744_888)" fill-opacity="0.6"/>
<defs>
<linearGradient id="paint0_linear_744_888" x1="0" y1="35" x2="70" y2="35" gradientUnits="userSpaceOnUse">
<stop stop-color="#72C6EF"/>
<stop offset="1" stop-color="#004E8F"/>
</linearGradient>
</defs>
</svg>
