<svg width="30" height="30" viewBox="0 0 30 30" fill="none" xmlns="http://www.w3.org/2000/svg">
<path fill-rule="evenodd" clip-rule="evenodd" d="M5.9897 15.9346H20.6192L18.0034 18.4043C17.6151 18.7694 17.6151 19.3612 18.0034 19.7261C18.196 19.9085 18.45 20 18.704 20C18.9551 20 19.2091 19.9085 19.4018 19.7261L23.711 15.6607C23.8949 15.4855 24 15.248 24 14.9999C24 14.752 23.8949 14.5144 23.711 14.3389L19.4018 10.2738C19.0165 9.90873 18.3888 9.90873 18.0034 10.2738C17.6151 10.6386 17.6151 11.2305 18.0034 11.5953L20.6192 14.0653H5.9897C5.44376 14.0653 5 14.4836 5 14.9999C5 15.516 5.44376 15.9346 5.9897 15.9346Z" fill="currentColor"/>
</svg>
