<?xml version="1.0" encoding="UTF-8"?>
<svg width="30" height="30" fill="none" version="1.1" viewBox="0 0 30 30" xmlns="http://www.w3.org/2000/svg">
 <path d="m13.42 12.44h-5.011c-0.226 0-0.4104 0.1839-0.4108 0.4102v0.8654c0 0.5363 0.8208 0.5364 0.8208 0v-0.4553h1.684v6.121h-0.5713c-0.5359 0-0.5361 0.8203 0 0.8203h1.965c0.536 0 0.5358-0.8203 0-0.8203h-0.5731v-6.121h1.686v0.6299c0 0.5359 0.8204 0.5359 0.8204 0v-1.04c0-0.2254-0.1836-0.4102-0.4102-0.4102zm1.33-3.543h-6.941c-0.536 0-0.536 0.8204 0 0.8204h6.941c0.5359 0 0.5359-0.8204 0-0.8204zm7.476 14.17h-14.45c-0.5361 0-0.536 0.8203 0 0.8203h14.45c0.536 0 0.5359-0.8203 0-0.8203zm0-3.543h-7.226c-0.536 0-0.536 0.8203 0 0.8203h7.226c0.5359 0 0.536-0.8203 0-0.8203zm0-3.543h-7.226c-0.5362 0-0.5365 0.8209 0 0.8209h7.226c0.4959 0 0.5428-0.8209 0-0.8209zm0-3.544h-7.226c-0.536 0-0.536 0.8203 0 0.8203h7.226c0.5359 0 0.536-0.8203 0-0.8203zm4.641-3.39-8.924-8.924c-0.07565-0.07562-0.1798-0.1201-0.2901-0.1201h-11.54c-1.713 0.002062-3.108 1.397-3.11 3.11v23.78c0.00206 1.713 1.397 3.108 3.11 3.11h17.76c1.713-0.0021 3.108-1.397 3.11-3.11v-17.56c0-0.1086-0.04323-0.2132-0.1201-0.29zm-8.804-7.644 7.523 7.523h-6.384c-0.6281-4.78e-4 -1.139-0.5121-1.14-1.14zm8.104 25.49c-0.0012 1.26-1.028 2.287-2.289 2.289h-17.76c-1.261-0.0012-2.287-1.028-2.289-2.289v-23.78c0.00129-1.261 1.028-2.287 2.289-2.289h11.13v6.964c8.31e-4 1.079 0.88 1.959 1.96 1.96h6.964z" fill="currentColor"/>
</svg>
