<svg width="20" height="80" viewBox="0 0 20 80" fill="none" xmlns="http://www.w3.org/2000/svg">
<path d="M0.0370696 10.4644L4.00967 55.9438C4.24145 58.6211 6.36638 60.8277 9.1357 61.0699C12.2376 61.3411 14.9719 59.0458 15.2425 55.9438L19.2152 10.4644C19.2579 9.93288 19.2634 9.33726 19.2152 8.78932C18.7527 3.49288 14.0847 -0.424927 8.78885 0.0369904C3.49296 0.500004 -0.425396 5.16905 0.0370696 10.4644Z" fill="#058DF3"/>
<path d="M9.62611 79.7793C14.0141 79.7793 17.5713 76.2221 17.5713 71.8341C17.5713 67.4461 14.0141 63.8889 9.62611 63.8889C5.2381 63.8889 1.68091 67.4461 1.68091 71.8341C1.68091 76.2221 5.2381 79.7793 9.62611 79.7793Z" fill="#058DF3"/>
</svg>
