<svg width="71" height="95" viewBox="0 0 71 95" fill="none" xmlns="http://www.w3.org/2000/svg">
<path d="M44.6433 87.2031H40.7617V95.0001H44.6433V87.2031Z" fill="#136574"/>
<path d="M9.70585 87.2029H5.82422V94.9999H9.70585V87.2029Z" fill="#136574"/>
<path d="M17.4721 1.94873H15.5312V21.4459H17.4721V1.94873Z" fill="#B8D1D5"/>
<path d="M34.9369 1.94873H32.9961V21.4459H34.9369V1.94873Z" fill="#B8D1D5"/>
<path d="M36.8796 0H13.5898V3.89849H36.8796V0Z" fill="#136574"/>
<path d="M50.4682 82.3299V26.3195C50.4682 21.4752 46.5578 17.5479 41.7345 17.5479H8.73367C3.91035 17.5479 0 21.4752 0 26.3195V82.3299C0 87.1741 3.91035 91.1015 8.73367 91.1015H41.7345C46.5578 91.1015 50.4682 87.1741 50.4682 82.3299Z" fill="#EBD32A"/>
<path d="M7.76562 31.1983V77.4523C7.76562 78.5291 8.63433 79.4016 9.70644 79.4016C10.7778 79.4016 11.6465 78.5291 11.6465 77.4523V31.1983C11.6465 30.1215 10.7778 29.249 9.70644 29.249C8.63433 29.2482 7.76562 30.1207 7.76562 31.1983Z" fill="#136574"/>
<path d="M15.5312 31.1983V77.4523C15.5312 78.5291 16.4007 79.4016 17.4721 79.4016C18.5442 79.4016 19.4137 78.5291 19.4137 77.4523V31.1983C19.4137 30.1215 18.5442 29.249 17.4721 29.249C16.4 29.2482 15.5312 30.1207 15.5312 31.1983Z" fill="#136574"/>
<path d="M23.293 31.1983V77.4523C23.293 78.5291 24.1617 79.4016 25.233 79.4016C26.3051 79.4016 27.1738 78.5291 27.1738 77.4523V31.1983C27.1738 30.1215 26.3051 29.249 25.233 29.249C24.1617 29.2482 23.293 30.1207 23.293 31.1983Z" fill="#136574"/>
<path d="M31.0547 31.1983V77.4523C31.0547 78.5291 31.9242 79.4016 32.9955 79.4016C34.0676 79.4016 34.9363 78.5291 34.9363 77.4523V31.1983C34.9363 30.1215 34.0668 29.249 32.9955 29.249C31.9234 29.2482 31.0547 30.1207 31.0547 31.1983Z" fill="#136574"/>
<path d="M38.8242 31.1983V77.4523C38.8242 78.5291 39.6929 79.4016 40.765 79.4016C41.8371 79.4016 42.7058 78.5291 42.7058 77.4523V31.1983C42.7058 30.1215 41.8371 29.249 40.765 29.249C39.6929 29.2482 38.8242 30.1207 38.8242 31.1983Z" fill="#136574"/>
<path d="M55.0977 66.392V90.182C55.0977 90.944 55.7123 91.5613 56.4709 91.5613H69.6242C70.3829 91.5613 70.998 90.944 70.998 90.182V66.392C70.998 65.63 70.3829 65.0122 69.6242 65.0122H56.4709C55.7123 65.0127 55.0977 65.63 55.0977 66.392Z" fill="#B8D1D5"/>
<path d="M70.998 63.6323V55.2133C70.998 54.4513 70.3829 53.8335 69.6242 53.8335H56.4709C55.7123 53.8335 55.0977 54.4513 55.0977 55.2133V63.6323C55.0977 64.3943 55.7123 65.0121 56.4709 65.0121H69.6242C70.3829 65.0126 70.998 64.3943 70.998 63.6323Z" fill="#B8D1D5"/>
<path d="M67.6563 87.5698H58.4336V89.8633H67.6563V87.5698Z" fill="#136574"/>
<path d="M66.2189 55.5322H64.6289V59.0245H66.2189V55.5322Z" fill="#71A3AC"/>
<path d="M66.2189 59.8223H64.6289V63.3146H66.2189V59.8223Z" fill="#71A3AC"/>
<path d="M63.8361 55.5322H62.2461V63.3151H63.8361V55.5322Z" fill="#71A3AC"/>
<path d="M61.4533 55.5322H59.8633V63.3151H61.4533V55.5322Z" fill="#71A3AC"/>
<path d="M66.2189 66.7104H64.6289V75.892H66.2189V66.7104Z" fill="#71A3AC"/>
<path d="M66.2189 76.6904H64.6289V85.8725H66.2189V76.6904Z" fill="#71A3AC"/>
<path d="M63.8361 76.6904H62.2461V85.8725H63.8361V76.6904Z" fill="#71A3AC"/>
<path d="M61.4533 76.6904H59.8633V85.8725H61.4533V76.6904Z" fill="#71A3AC"/>
<path d="M61.4533 66.7104H59.8633V70.9018H61.4533V66.7104Z" fill="#71A3AC"/>
<path d="M61.4533 71.7004H59.8633V75.8923H61.4533V71.7004Z" fill="#71A3AC"/>
<path d="M63.8361 66.7104H62.2461V70.9018H63.8361V66.7104Z" fill="#71A3AC"/>
<path d="M63.8361 71.7002H62.2461V75.8921H63.8361V71.7002Z" fill="#71A3AC"/>
<path d="M68.6152 57.6064H45.7188V86.8302H68.6152V57.6064Z" fill="#136574"/>
<path d="M45.7188 86.8302C45.7188 87.3597 46.1456 87.7884 46.6728 87.7884H68.6152V85.8721H46.6728C46.1456 85.8721 45.7188 86.3008 45.7188 86.8302Z" fill="#136574"/>
<path d="M46.1953 86.8304C46.1953 87.0956 46.4085 87.3097 46.6726 87.3097H68.6151V86.3516H46.6726C46.4085 86.3516 46.1953 86.5657 46.1953 86.8304Z" fill="#E7F0F1"/>
<path d="M57.171 78.3425C53.5462 78.3425 50.5977 75.3806 50.5977 71.7401C50.5977 68.0996 53.5462 65.1382 57.171 65.1382C60.7952 65.1382 63.7443 68.0996 63.7443 71.7401C63.7438 75.3806 60.7947 78.3425 57.171 78.3425ZM57.171 65.9369C53.9848 65.9369 51.3924 68.5406 51.3924 71.7406C51.3924 74.9411 53.9848 77.5442 57.171 77.5442C60.3572 77.5442 62.9495 74.9406 62.9495 71.7406C62.949 68.5401 60.3567 65.9369 57.171 65.9369Z" fill="#E7F0F1"/>
<path d="M57.1773 78.342C55.2224 78.342 53.6914 75.4419 53.6914 71.7396C53.6914 68.0377 55.2224 65.1377 57.1773 65.1377C59.1316 65.1377 60.6621 68.0377 60.6621 71.7396C60.6616 75.4419 59.1311 78.342 57.1773 78.342ZM57.1773 65.9364C55.719 65.9364 54.4867 68.5942 54.4867 71.7401C54.4867 74.8859 55.719 77.5438 57.1773 77.5438C58.6355 77.5438 59.8674 74.8854 59.8674 71.7401C59.8668 68.5937 58.6355 65.9364 57.1773 65.9364Z" fill="white"/>
<path d="M57.5643 65.5376H56.7695V77.9431H57.5643V65.5376Z" fill="white"/>
<path d="M62.5142 74.4419H51.8281V75.2406H62.5142V74.4419Z" fill="white"/>
<path d="M63.3436 71.3413H50.9922V72.14H63.3436V71.3413Z" fill="white"/>
<path d="M62.5142 68.2393H51.8281V69.038H62.5142V68.2393Z" fill="white"/>
<path d="M55.0977 86.8291V90.1809C55.0977 90.9428 55.7123 91.5601 56.4709 91.5601H69.6242C70.3829 91.5601 70.998 90.9428 70.998 90.1809V86.8291H55.0977Z" fill="#B8D1D5"/>
<path d="M67.6563 87.5688H58.4336V89.8623H67.6563V87.5688Z" fill="#136574"/>
</svg>
