<svg width="32" height="32" viewBox="0 0 32 32" fill="none" xmlns="http://www.w3.org/2000/svg">
<path d="M6.5333 25.4665C1.3333 20.2665 1.3333 11.7332 6.5333 6.5332" stroke="currentColor" stroke-width="2.66667" stroke-linecap="round" stroke-linejoin="round"/>
<path d="M10.3999 21.5999C7.33325 18.5333 7.33325 13.4666 10.3999 10.2666" stroke="currentColor" stroke-width="2.66667" stroke-linecap="round" stroke-linejoin="round"/>
<path d="M16 18.6666C17.4727 18.6666 18.6666 17.4727 18.6666 15.9999C18.6666 14.5272 17.4727 13.3333 16 13.3333C14.5272 13.3333 13.3333 14.5272 13.3333 15.9999C13.3333 17.4727 14.5272 18.6666 16 18.6666Z" stroke="currentColor" stroke-width="2.66667" stroke-linecap="round" stroke-linejoin="round"/>
<path d="M21.5999 10.3999C24.6666 13.4666 24.6666 18.5332 21.5999 21.7332" stroke="currentColor" stroke-width="2.66667" stroke-linecap="round" stroke-linejoin="round"/>
<path d="M25.4666 6.5332C30.6666 11.7332 30.6666 20.1332 25.4666 25.3332" stroke="currentColor" stroke-width="2.66667" stroke-linecap="round" stroke-linejoin="round"/>
</svg>
