<svg width="56" height="70" viewBox="0 0 56 70" fill="none" xmlns="http://www.w3.org/2000/svg">
<path d="M49.0364 0H6.96354C3.36988 0 0.446289 2.92359 0.446289 6.51711V63.4829C0.446289 67.0764 3.36988 70 6.96354 70H49.0364C52.6299 70 55.5535 67.0764 55.5535 63.4829V6.51711C55.5535 2.92359 52.6299 0 49.0364 0ZM52.8191 63.4829C52.8191 65.5687 51.1222 67.2656 49.0364 67.2656H6.96354C4.87762 67.2656 3.18066 65.5687 3.18066 63.4829V6.51711C3.18066 4.43133 4.87762 2.73438 6.96354 2.73438H49.0364C51.1222 2.73438 52.8191 4.43133 52.8191 6.51711V63.4829ZM45.3095 7.8415H10.6905C8.67402 7.8415 7.03354 9.48199 7.03354 11.4985V17.9638C7.03354 19.9802 8.67402 21.6207 10.6905 21.6207H45.3096C47.3261 21.6207 48.9665 19.9802 48.9665 17.9638V11.4985C48.9664 9.48199 47.3259 7.8415 45.3095 7.8415ZM46.232 17.9638C46.232 18.4639 45.8096 18.8863 45.3095 18.8863H10.6905C10.1904 18.8863 9.76791 18.4639 9.76791 17.9638V11.4985C9.76791 10.9983 10.1904 10.5759 10.6905 10.5759H45.3096C45.8097 10.5759 46.2322 10.9983 46.2322 11.4985L46.232 17.9638ZM16.5332 28.0245H8.40059C7.64563 28.0245 7.0334 28.6366 7.0334 29.3917V35.6128C7.0334 36.3677 7.64563 36.98 8.40059 36.98H16.5332C17.2881 36.98 17.9004 36.3677 17.9004 35.6128V29.3917C17.9004 28.6367 17.2881 28.0245 16.5332 28.0245ZM15.166 34.2456H9.76777V30.7589H15.166V34.2456ZM16.5332 40.2153H8.40059C7.64563 40.2153 7.0334 40.8275 7.0334 41.5825V47.8036C7.0334 48.5585 7.64563 49.1708 8.40059 49.1708H16.5332C17.2881 49.1708 17.9004 48.5585 17.9004 47.8036V41.5825C17.9004 40.8275 17.2881 40.2153 16.5332 40.2153ZM15.166 46.4364H9.76777V42.9497H15.166V46.4364ZM32.0661 28.0245H23.9338C23.1788 28.0245 22.5666 28.6366 22.5666 29.3917V35.6128C22.5666 36.3677 23.1788 36.98 23.9338 36.98H32.0661C32.821 36.98 33.4332 36.3677 33.4332 35.6128V29.3917C33.4332 28.6367 32.8212 28.0245 32.0661 28.0245ZM30.6989 34.2456H25.3009V30.7589H30.6989V34.2456ZM32.0661 40.2153H23.9338C23.1788 40.2153 22.5666 40.8275 22.5666 41.5825V47.8036C22.5666 48.5585 23.1788 49.1708 23.9338 49.1708H32.0661C32.821 49.1708 33.4332 48.5585 33.4332 47.8036V41.5825C33.4332 40.8275 32.8212 40.2153 32.0661 40.2153ZM30.6989 46.4364H25.3009V42.9497H30.6989V46.4364ZM47.5991 28.0245H39.4666C38.7117 28.0245 38.0995 28.6366 38.0995 29.3917V35.6128C38.0995 36.3677 38.7117 36.98 39.4666 36.98H47.5991C48.354 36.98 48.9663 36.3677 48.9663 35.6128V29.3917C48.9663 28.6367 48.3542 28.0245 47.5991 28.0245ZM46.2319 34.2456H40.8338V30.7589H46.2319V34.2456ZM16.5332 52.4061H8.40059C7.64563 52.4061 7.0334 53.0183 7.0334 53.7733V59.9944C7.0334 60.7493 7.64563 61.3616 8.40059 61.3616H16.5332C17.2881 61.3616 17.9004 60.7493 17.9004 59.9944V53.7733C17.9004 53.0183 17.2881 52.4061 16.5332 52.4061ZM15.166 58.6272H9.76777V55.1405H15.166V58.6272ZM32.0661 52.4061H23.9338C23.1788 52.4061 22.5666 53.0183 22.5666 53.7733V59.9944C22.5666 60.7493 23.1788 61.3616 23.9338 61.3616H32.0661C32.821 61.3616 33.4332 60.7493 33.4332 59.9944V53.7733C33.4332 53.0183 32.8212 52.4061 32.0661 52.4061ZM30.6989 58.6272H25.3009V55.1405H30.6989V58.6272ZM47.5991 40.2153H39.4666C38.7117 40.2153 38.0995 40.8275 38.0995 41.5825V59.9944C38.0995 60.7493 38.7117 61.3616 39.4666 61.3616H47.5991C48.354 61.3616 48.9663 60.7493 48.9663 59.9944V41.5825C48.9663 40.8275 48.3542 40.2153 47.5991 40.2153ZM46.2319 58.6272H40.8338V42.9497H46.2319V58.6272Z" fill="#058DF3"/>
</svg>
