<?xml version="1.0" encoding="UTF-8"?>
<svg width="30" height="30" fill="none" version="1.1" viewBox="0 0 30 30" xmlns="http://www.w3.org/2000/svg">
 <g clip-rule="evenodd" fill="currentColor" fill-rule="evenodd">
  <path d="m17.82 15.47c0-1.81-1.472-3.281-3.282-3.281-0.6135 0-0.6119-0.9374 0-0.9374 2.329 0 4.22 1.89 4.22 4.218 0 0.6116-0.9377 0.6133-0.9377 0z"/>
  <path d="m21.57 14.53c0-3.361-2.731-6.09-6.09-6.09-0.6134 0-0.6119-0.9373 0-0.9373 3.878 0 7.028 3.151 7.028 7.027 0 0.6118-0.9378 0.6133-0.9378 0z"/>
  <path d="m25.32 13.59c0-4.909-3.988-8.896-8.898-8.896-0.6136 0-0.612-0.9373 0-0.9373 5.429 0 9.836 4.405 9.836 9.833 0 0.6116-0.9377 0.6133-0.9377 0z"/>
  <path d="m29.08 12.65c0-6.465-5.251-11.72-11.72-11.72-0.6136 0-0.612-0.9373 0-0.9373 6.984 0 12.65 5.669 12.65 12.65 0 0.6116-0.9377 0.6133-0.9377 0z"/>
  <path d="m8.3 21.7c-9.435-9.436-9.735-16.05-6.278-19.5 0.2181-0.2073 0.4445-0.4056 0.6677-0.6074 0.9647-0.7938 2.093-1.213 2.753-1.406 1.402-0.2587 2.878-0.6374 3.863 2.145l1.614 4.285c0.4226 1.23 0.3088 2.265-0.6477 2.921-0.6127 0.3485-1.248 0.6548-1.877 0.9735-0.3526 0.1838-0.4451 0.8374-0.3326 1.475 0.1553 0.7169 0.5667 1.328 0.9115 1.966 0.7389 1.285 1.533 2.353 3.13 3.949 1.595 1.596 2.664 2.39 3.95 3.128 0.6157 0.4099 1.266 0.6738 1.954 0.9048 0.6339 0.1075 1.307 0.0187 1.487-0.3262 0.3058-0.6348 0.6397-1.254 0.9728-1.875 0.6551-0.9573 1.69-1.072 2.922-0.6487l4.291 1.616c2.821 1.081 2.399 2.452 2.14 3.859-0.3351 1.338-1.112 2.415-2.014 3.421-3.458 3.457-10.07 3.157-19.51-6.275zm18.84 5.616c1.212-1.255 1.616-2.197 1.919-3.76 0.1113-0.7636-0.06-1.351-1.713-1.985l-4.276-1.611c-1.109-0.3824-1.65-0.17-2.013 0.6299l-0.7289 1.441c-0.6564 1.26-2.569 0.8935-3.316 0.5736-2.08-1.078-3.361-1.833-5.6-4.072-1.892-1.955-2.584-2.776-4.032-5.569-0.2963-0.7011-0.6852-2.631 0.5864-3.292l1.454-0.7361c0.7864-0.3549 0.9989-0.8961 0.6176-2.006l-1.614-4.283c-0.5589-1.578-1.164-1.787-1.954-1.696-0.4788 0.02337-0.9022 0.1973-1.348 0.3412-0.9934 0.3568-1.556 0.7157-2.442 1.568-2.822 2.822-3.127 8.767 6.283 18.18 9.409 9.407 15.35 9.102 18.18 6.28z"/>
 </g>
</svg>
