<svg width="30" height="30" viewBox="0 0 30 30" fill="none" xmlns="http://www.w3.org/2000/svg">
<path fill-rule="evenodd" clip-rule="evenodd" d="M0.71394 3.05141H5.53878L9.81783 16.5079L9.6029 16.586C8.85339 16.8574 8.22352 17.3843 7.824 18.0741C7.42448 18.7639 7.28087 19.5724 7.41842 20.3576C7.55597 21.1428 7.96587 21.8544 8.57609 22.3673C9.1863 22.8802 9.95777 23.1616 10.7549 23.1621H23.9447L26.5915 24.6942C26.7006 24.7568 26.8241 24.7902 26.9499 24.7909C27.1073 24.791 27.2602 24.7392 27.3851 24.6435C27.51 24.5479 27.5999 24.4137 27.6408 24.2618C27.6817 24.1099 27.6713 23.9487 27.6112 23.8033C27.5512 23.6579 27.4449 23.5363 27.3088 23.4574L24.4935 21.8285C24.3848 21.7657 24.2615 21.7328 24.136 21.733H10.7549C10.235 21.733 9.73633 21.5264 9.36868 21.1588C9.00103 20.7911 8.79449 20.2925 8.79449 19.7725C8.79449 19.2526 9.00103 18.754 9.36868 18.3863C9.73633 18.0187 10.235 17.8121 10.7549 17.8121H25.8404C25.992 17.8122 26.1397 17.7641 26.262 17.6746C26.3844 17.5852 26.4751 17.4591 26.521 17.3146L29.9663 6.47885C30.0006 6.37198 30.009 6.25853 29.9909 6.14777C29.9729 6.03702 29.9289 5.93212 29.8625 5.84165C29.7961 5.75119 29.7092 5.67774 29.6089 5.62731C29.5087 5.57689 29.3979 5.55092 29.2857 5.55154H7.83179L6.74195 2.11947C6.69603 1.97503 6.60531 1.84896 6.48293 1.75953C6.36056 1.6701 6.21289 1.62195 6.06132 1.62207H0.71394C0.525558 1.62378 0.345471 1.69981 0.212864 1.83362C0.0802567 1.96743 0.00585938 2.1482 0.00585938 2.33659C0.00585937 2.52498 0.0802567 2.70575 0.212864 2.83956C0.345471 2.97338 0.525558 3.04941 0.71394 3.05111V3.05141ZM21.8643 28.3776C21.3937 28.3774 20.9337 28.2377 20.5424 27.9762C20.151 27.7147 19.846 27.3431 19.6658 26.9083C19.4856 26.4735 19.4383 25.9951 19.5298 25.5334C19.6214 25.0718 19.8477 24.6476 20.1802 24.3145C20.5127 23.9814 20.9365 23.7543 21.398 23.662C21.8595 23.5696 22.338 23.6161 22.7731 23.7955C23.2082 23.9749 23.5803 24.2793 23.8425 24.6702C24.1047 25.061 24.2452 25.5208 24.2462 25.9914C24.2466 26.3045 24.1853 26.6146 24.0657 26.904C23.9462 27.1934 23.7708 27.4564 23.5497 27.678C23.3285 27.8996 23.0658 28.0754 22.7766 28.1954C22.4874 28.3155 22.1774 28.3774 21.8643 28.3776ZM12.9224 28.3776C12.4517 28.3773 11.9917 28.2376 11.6004 27.9761C11.2092 27.7145 10.9042 27.3429 10.724 26.9081C10.5438 26.4733 10.4966 25.9949 10.5882 25.5332C10.6798 25.0716 10.9061 24.6475 11.2386 24.3144C11.5711 23.9813 11.9949 23.7543 12.4564 23.6619C12.9179 23.5696 13.3964 23.6161 13.8315 23.7955C14.2665 23.975 14.6387 24.2794 14.9009 24.6702C15.163 25.061 15.3035 25.5208 15.3045 25.9914C15.3049 26.6237 15.0542 27.2302 14.6075 27.6777C14.1607 28.1251 13.5546 28.3769 12.9224 28.3776Z" fill="currentColor"/>
</svg>
