<svg width="80" height="80" viewBox="0 0 80 80" fill="none" xmlns="http://www.w3.org/2000/svg">
<path d="M8 70.6667C8 71.403 8.59701 72 9.33333 72H16.3483C17.0846 72 17.6816 71.403 17.6816 70.6667V63.6517C17.6816 62.9154 17.0846 62.3184 16.3483 62.3184H9.33333C8.59701 62.3184 8 62.9154 8 63.6517V70.6667ZM10.6667 64.985H15.015V69.3333H10.6667V64.985Z" fill="#00152D"/>
<path d="M71.9997 9.33333C71.9997 8.59701 71.4027 8 70.6663 8H63.6514C62.915 8 62.318 8.59701 62.318 9.33333V12.8354L62.3174 12.8385L62.318 12.8418V16.3483C62.318 17.0846 62.915 17.6816 63.6514 17.6816H66.911C66.9938 17.6979 67.0704 17.7318 67.1579 17.7318C67.2453 17.7318 67.3218 17.6979 67.4046 17.6816H70.6663C71.4027 17.6816 71.9997 17.0846 71.9997 16.3483V9.33333ZM69.333 15.015H64.9847V10.6667H69.333V15.015Z" fill="#00152D"/>
<path d="M17.6816 16.3483V9.33333C17.6816 8.59701 17.0846 8 16.3483 8H9.33333C8.59701 8 8 8.59701 8 9.33333V16.3483C8 17.0846 8.59701 17.6816 9.33333 17.6816H12.5911C12.674 17.6979 12.7505 17.7318 12.8379 17.7318C12.9254 17.7318 13.002 17.6979 13.0848 17.6816H16.3483C17.0846 17.6816 17.6816 17.0846 17.6816 16.3483ZM15.015 15.015H10.6667V10.6667H15.015V15.015Z" fill="#00152D"/>
<path d="M72 43.5072V36.4915C72 35.7552 71.403 35.1582 70.6667 35.1582H63.6517C62.9154 35.1582 62.3184 35.7552 62.3184 36.4915V43.5072C62.3184 44.2435 62.9154 44.8405 63.6517 44.8405H66.9083C66.9921 44.8572 67.0697 44.8913 67.1582 44.8913C67.2467 44.8913 67.3242 44.8572 67.408 44.8405H70.6667C71.403 44.8405 72 44.2435 72 43.5072ZM69.3333 42.1738H64.985V37.8249H69.3333V42.1738Z" fill="#00152D"/>
<path d="M8 43.5072C8 44.2435 8.59701 44.8405 9.33333 44.8405H12.5881C12.6719 44.8572 12.7494 44.8913 12.8379 44.8913C12.9264 44.8913 13.004 44.8572 13.0878 44.8405H16.3483C17.0846 44.8405 17.6816 44.2435 17.6816 43.5072V36.4915C17.6816 35.7552 17.0846 35.1582 16.3483 35.1582H9.33333C8.59701 35.1582 8 35.7552 8 36.4915V43.5072ZM10.6667 37.8249H15.015V42.1738H10.6667V37.8249Z" fill="#00152D"/>
<path d="M67.1585 33.8115C67.8916 33.8115 68.4919 33.2119 68.4919 32.4782C68.4919 31.7314 67.8916 31.1318 67.1585 31.1318C66.4248 31.1318 65.8252 31.7314 65.8252 32.4782C65.8252 33.2119 66.4248 33.8115 67.1585 33.8115Z" fill="#00152D"/>
<path d="M67.1585 29.7858C67.8949 29.7858 68.4919 29.1889 68.4919 28.4525C68.4919 27.7161 67.8949 27.1191 67.1585 27.1191C66.4221 27.1191 65.8252 27.7161 65.8252 28.4525C65.8252 29.1889 66.4221 29.7858 67.1585 29.7858Z" fill="#00152D"/>
<path d="M67.1585 21.7458C67.8949 21.7458 68.4919 21.1488 68.4919 20.4124C68.4919 19.6761 67.8949 19.0791 67.1585 19.0791C66.4221 19.0791 65.8252 19.6761 65.8252 20.4124C65.8252 21.1488 66.4221 21.7458 67.1585 21.7458Z" fill="#00152D"/>
<path d="M67.1585 25.7721C67.8949 25.7721 68.4919 25.1752 68.4919 24.4388C68.4919 23.7024 67.8949 23.1055 67.1585 23.1055C66.4221 23.1055 65.8252 23.7024 65.8252 24.4388C65.8252 25.1752 66.4221 25.7721 67.1585 25.7721Z" fill="#00152D"/>
<path d="M67.1585 60.9587C67.8949 60.9587 68.4919 60.3617 68.4919 59.6253C68.4919 58.8889 67.8949 58.292 67.1585 58.292C66.4221 58.292 65.8252 58.8889 65.8252 59.6253C65.8252 60.3617 66.4221 60.9587 67.1585 60.9587Z" fill="#00152D"/>
<path d="M67.1585 56.946C67.8949 56.946 68.4919 56.349 68.4919 55.6126C68.4919 54.8763 67.8949 54.2793 67.1585 54.2793C66.4221 54.2793 65.8252 54.8763 65.8252 55.6126C65.8252 56.349 66.4221 56.946 67.1585 56.946Z" fill="#00152D"/>
<path d="M67.1585 48.9059C67.8949 48.9059 68.4919 48.309 68.4919 47.5726C68.4919 46.8362 67.8949 46.2393 67.1585 46.2393C66.4221 46.2393 65.8252 46.8362 65.8252 47.5726C65.8252 48.309 66.4221 48.9059 67.1585 48.9059Z" fill="#00152D"/>
<path d="M67.1585 52.9323C67.8949 52.9323 68.4919 52.3353 68.4919 51.599C68.4919 50.8626 67.8949 50.2656 67.1585 50.2656C66.4221 50.2656 65.8252 50.8626 65.8252 51.599C65.8252 52.3353 66.4221 52.9323 67.1585 52.9323Z" fill="#00152D"/>
<path d="M27.4769 14.1725C28.2133 14.1725 28.8102 13.5756 28.8102 12.8392C28.8102 12.1028 28.2133 11.5059 27.4769 11.5059C26.7405 11.5059 26.1436 12.1028 26.1436 12.8392C26.1436 13.5756 26.7405 14.1725 27.4769 14.1725Z" fill="#00152D"/>
<path d="M51.5985 14.1725C52.3348 14.1725 52.9318 13.5756 52.9318 12.8392C52.9318 12.1028 52.3348 11.5059 51.5985 11.5059C50.8621 11.5059 50.2651 12.1028 50.2651 12.8392C50.2651 13.5756 50.8621 14.1725 51.5985 14.1725Z" fill="#00152D"/>
<path d="M19.4388 14.1725C20.1752 14.1725 20.7721 13.5756 20.7721 12.8392C20.7721 12.1028 20.1752 11.5059 19.4388 11.5059C18.7024 11.5059 18.1055 12.1028 18.1055 12.8392C18.1055 13.5756 18.7024 14.1725 19.4388 14.1725Z" fill="#00152D"/>
<path d="M31.5042 14.1725C32.2406 14.1725 32.8376 13.5756 32.8376 12.8392C32.8376 12.1028 32.2406 11.5059 31.5042 11.5059C30.7679 11.5059 30.1709 12.1028 30.1709 12.8392C30.1709 13.5756 30.7679 14.1725 31.5042 14.1725Z" fill="#00152D"/>
<path d="M23.4652 14.1725C24.2015 14.1725 24.7985 13.5756 24.7985 12.8392C24.7985 12.1028 24.2015 11.5059 23.4652 11.5059C22.7288 11.5059 22.1318 12.1028 22.1318 12.8392C22.1318 13.5756 22.7288 14.1725 23.4652 14.1725Z" fill="#00152D"/>
<path d="M55.6107 14.1725C56.3471 14.1725 56.944 13.5756 56.944 12.8392C56.944 12.1028 56.3471 11.5059 55.6107 11.5059C54.8743 11.5059 54.2773 12.1028 54.2773 12.8392C54.2773 13.5756 54.8743 14.1725 55.6107 14.1725Z" fill="#00152D"/>
<path d="M47.5721 14.1725C48.3085 14.1725 48.9054 13.5756 48.9054 12.8392C48.9054 12.1028 48.3085 11.5059 47.5721 11.5059C46.8357 11.5059 46.2388 12.1028 46.2388 12.8392C46.2388 13.5756 46.8357 14.1725 47.5721 14.1725Z" fill="#00152D"/>
<path d="M40.8786 12.8392C40.8786 12.1061 40.2783 11.5059 39.5316 11.5059C38.7985 11.5059 38.2119 12.1061 38.2119 12.8392C38.2119 13.5859 38.7985 14.1725 39.5316 14.1725C40.2783 14.1725 40.8786 13.5859 40.8786 12.8392Z" fill="#00152D"/>
<path d="M43.557 14.1725C44.2933 14.1725 44.8903 13.5756 44.8903 12.8392C44.8903 12.1028 44.2933 11.5059 43.557 11.5059C42.8206 11.5059 42.2236 12.1028 42.2236 12.8392C42.2236 13.5756 42.8206 14.1725 43.557 14.1725Z" fill="#00152D"/>
<path d="M35.5184 14.1725C36.2548 14.1725 36.8517 13.5756 36.8517 12.8392C36.8517 12.1028 36.2548 11.5059 35.5184 11.5059C34.782 11.5059 34.1851 12.1028 34.1851 12.8392C34.1851 13.5756 34.782 14.1725 35.5184 14.1725Z" fill="#00152D"/>
<path d="M59.6383 11.5059C58.8916 11.5059 58.292 12.1061 58.292 12.8392C58.292 13.5859 58.8916 14.1725 59.6383 14.1725C60.3714 14.1725 60.9717 13.5859 60.9717 12.8392C60.9717 12.1061 60.3714 11.5059 59.6383 11.5059Z" fill="#00152D"/>
<path d="M35.5184 68.4919C36.2548 68.4919 36.8517 67.8949 36.8517 67.1585C36.8517 66.4221 36.2548 65.8252 35.5184 65.8252C34.782 65.8252 34.1851 66.4221 34.1851 67.1585C34.1851 67.8949 34.782 68.4919 35.5184 68.4919Z" fill="#00152D"/>
<path d="M43.557 68.4919C44.2933 68.4919 44.8903 67.8949 44.8903 67.1585C44.8903 66.4221 44.2933 65.8252 43.557 65.8252C42.8206 65.8252 42.2236 66.4221 42.2236 67.1585C42.2236 67.8949 42.8206 68.4919 43.557 68.4919Z" fill="#00152D"/>
<path d="M62.318 67.162V70.6667C62.318 71.403 62.915 72 63.6514 72H70.6663C71.4027 72 71.9997 71.403 71.9997 70.6667V63.6517C71.9997 62.9154 71.4027 62.3184 70.6663 62.3184H63.6514C62.915 62.3184 62.318 62.9154 62.318 63.6517V67.1557C62.318 67.1568 62.3174 67.1577 62.3174 67.1589C62.3174 67.16 62.318 67.1609 62.318 67.162ZM64.9847 64.985H69.333V69.3333H64.9847V64.985Z" fill="#00152D"/>
<path d="M38.1982 67.1595C38.1982 67.8926 38.7985 68.4928 39.5316 68.4928C40.2783 68.4928 40.8786 67.8926 40.8786 67.1595C40.8786 66.4258 40.2783 65.8262 39.5316 65.8262C38.7985 65.8262 38.1982 66.4258 38.1982 67.1595Z" fill="#00152D"/>
<path d="M47.5721 68.4919C48.3085 68.4919 48.9054 67.8949 48.9054 67.1585C48.9054 66.4221 48.3085 65.8252 47.5721 65.8252C46.8357 65.8252 46.2388 66.4221 46.2388 67.1585C46.2388 67.8949 46.8357 68.4919 47.5721 68.4919Z" fill="#00152D"/>
<path d="M51.5985 68.4919C52.3348 68.4919 52.9318 67.8949 52.9318 67.1585C52.9318 66.4221 52.3348 65.8252 51.5985 65.8252C50.8621 65.8252 50.2651 66.4221 50.2651 67.1585C50.2651 67.8949 50.8621 68.4919 51.5985 68.4919Z" fill="#00152D"/>
<path d="M55.6107 68.4919C56.3471 68.4919 56.944 67.8949 56.944 67.1585C56.944 66.4221 56.3471 65.8252 55.6107 65.8252C54.8743 65.8252 54.2773 66.4221 54.2773 67.1585C54.2773 67.8949 54.8743 68.4919 55.6107 68.4919Z" fill="#00152D"/>
<path d="M31.5042 68.4919C32.2406 68.4919 32.8376 67.8949 32.8376 67.1585C32.8376 66.4221 32.2406 65.8252 31.5042 65.8252C30.7679 65.8252 30.1709 66.4221 30.1709 67.1585C30.1709 67.8949 30.7679 68.4919 31.5042 68.4919Z" fill="#00152D"/>
<path d="M59.639 68.4919C60.3754 68.4919 60.9723 67.8949 60.9723 67.1585C60.9723 66.4221 60.3754 65.8252 59.639 65.8252C58.9026 65.8252 58.3057 66.4221 58.3057 67.1585C58.3057 67.8949 58.9026 68.4919 59.639 68.4919Z" fill="#00152D"/>
<path d="M23.4652 68.4919C24.2015 68.4919 24.7985 67.8949 24.7985 67.1585C24.7985 66.4221 24.2015 65.8252 23.4652 65.8252C22.7288 65.8252 22.1318 66.4221 22.1318 67.1585C22.1318 67.8949 22.7288 68.4919 23.4652 68.4919Z" fill="#00152D"/>
<path d="M19.4508 68.4928C20.1846 68.4928 20.7712 67.8926 20.7712 67.1595C20.7712 66.4258 20.1846 65.8262 19.4508 65.8262C18.7041 65.8262 18.1045 66.4258 18.1045 67.1595C18.1045 67.8926 18.7041 68.4928 19.4508 68.4928Z" fill="#00152D"/>
<path d="M27.4769 68.4919C28.2133 68.4919 28.8102 67.8949 28.8102 67.1585C28.8102 66.4221 28.2133 65.8252 27.4769 65.8252C26.7405 65.8252 26.1436 66.4221 26.1436 67.1585C26.1436 67.8949 26.7405 68.4919 27.4769 68.4919Z" fill="#00152D"/>
<path d="M12.8372 29.7858C13.5736 29.7858 14.1706 29.1889 14.1706 28.4525C14.1706 27.7161 13.5736 27.1191 12.8372 27.1191C12.1009 27.1191 11.5039 27.7161 11.5039 28.4525C11.5039 29.1889 12.1009 29.7858 12.8372 29.7858Z" fill="#00152D"/>
<path d="M12.8372 25.7721C13.5736 25.7721 14.1706 25.1752 14.1706 24.4388C14.1706 23.7024 13.5736 23.1055 12.8372 23.1055C12.1009 23.1055 11.5039 23.7024 11.5039 24.4388C11.5039 25.1752 12.1009 25.7721 12.8372 25.7721Z" fill="#00152D"/>
<path d="M12.8372 33.8122C13.5736 33.8122 14.1706 33.2152 14.1706 32.4788C14.1706 31.7425 13.5736 31.1455 12.8372 31.1455C12.1009 31.1455 11.5039 31.7425 11.5039 32.4788C11.5039 33.2152 12.1009 33.8122 12.8372 33.8122Z" fill="#00152D"/>
<path d="M12.8382 19.0918C12.1051 19.0918 11.5049 19.6784 11.5049 20.4251C11.5049 21.1589 12.1051 21.7454 12.8382 21.7454C13.5719 21.7454 14.1715 21.1589 14.1715 20.4251C14.1715 19.6784 13.5719 19.0918 12.8382 19.0918Z" fill="#00152D"/>
<path d="M12.8372 60.9587C13.5736 60.9587 14.1706 60.3617 14.1706 59.6253C14.1706 58.8889 13.5736 58.292 12.8372 58.292C12.1009 58.292 11.5039 58.8889 11.5039 59.6253C11.5039 60.3617 12.1009 60.9587 12.8372 60.9587Z" fill="#00152D"/>
<path d="M12.8372 56.946C13.5736 56.946 14.1706 56.349 14.1706 55.6126C14.1706 54.8763 13.5736 54.2793 12.8372 54.2793C12.1009 54.2793 11.5039 54.8763 11.5039 55.6126C11.5039 56.349 12.1009 56.946 12.8372 56.946Z" fill="#00152D"/>
<path d="M12.8372 48.9059C13.5736 48.9059 14.1706 48.309 14.1706 47.5726C14.1706 46.8362 13.5736 46.2393 12.8372 46.2393C12.1009 46.2393 11.5039 46.8362 11.5039 47.5726C11.5039 48.309 12.1009 48.9059 12.8372 48.9059Z" fill="#00152D"/>
<path d="M12.8372 52.9323C13.5736 52.9323 14.1706 52.3353 14.1706 51.599C14.1706 50.8626 13.5736 50.2656 12.8372 50.2656C12.1009 50.2656 11.5039 50.8626 11.5039 51.599C11.5039 52.3353 12.1009 52.9323 12.8372 52.9323Z" fill="#00152D"/>
<path d="M24.1618 36.4528C23.5225 36.5635 23.0557 37.1182 23.0557 37.7666V42.2432C23.0557 42.8923 23.5238 43.4476 24.1637 43.557L28.0264 44.2204C28.18 44.6527 28.3571 45.0765 28.557 45.4906L26.2985 48.6956C25.9248 49.2262 25.9867 49.9482 26.4456 50.4066L29.6032 53.5641C30.0622 54.0238 30.7848 54.085 31.3148 53.7106L34.5413 51.4333C34.9443 51.6247 35.3584 51.7946 35.7816 51.943L36.4528 55.8382C36.5628 56.4775 37.1175 56.945 37.7666 56.945H42.2432C42.8923 56.945 43.4469 56.4775 43.557 55.8382L44.2282 51.9424C44.6475 51.7946 45.0609 51.624 45.4665 51.432L48.695 53.7106C49.2243 54.085 49.9476 54.0225 50.4066 53.5641L53.5635 50.4066C54.0218 49.9482 54.0843 49.2262 53.7106 48.6963L51.4528 45.4906C51.6527 45.0765 51.8298 44.652 51.9827 44.2197L55.8376 43.557C56.4775 43.4469 56.945 42.8923 56.945 42.2432V37.7666C56.945 37.1182 56.4782 36.5635 55.8395 36.4528L52.029 35.792C51.8747 35.3421 51.693 34.8994 51.4873 34.4684L53.7106 31.3141C54.0837 30.7848 54.0225 30.0635 53.5648 29.6045L50.4079 26.4385C49.9502 25.9775 49.2256 25.9163 48.6937 26.2913L45.5739 28.499C45.1338 28.2842 44.6781 28.0947 44.2093 27.932L43.557 24.1618C43.4463 23.5225 42.8916 23.0557 42.2432 23.0557H37.7666C37.1182 23.0557 36.5635 23.5225 36.4528 24.1611L35.8005 27.9248C35.3356 28.0876 34.8792 28.279 34.4346 28.4984L31.3161 26.2913C30.7842 25.9163 30.0602 25.9775 29.6019 26.4385L26.4443 29.6045C25.9867 30.0635 25.9255 30.7848 26.2985 31.3141L28.5225 34.4678C28.3161 34.8994 28.1351 35.3415 27.9801 35.792L24.1618 36.4528ZM31.1696 33.5947L29.124 30.6937L30.695 29.1188L33.5661 31.1507C33.9925 31.4521 34.5557 31.4775 35.0062 31.2152C35.7419 30.7881 36.5225 30.46 37.3258 30.2406C37.8252 30.1038 38.2002 29.6917 38.2887 29.182L38.8883 25.7223H41.1208L41.721 29.1898C41.8089 29.6995 42.1839 30.1117 42.6826 30.2484C43.5075 30.4743 44.2887 30.7998 45.0029 31.2152C45.4535 31.4756 46.0173 31.4528 46.443 31.1507L49.3148 29.1188L50.8851 30.6937L48.8402 33.5947C48.5433 34.016 48.516 34.57 48.7692 35.0186C49.1787 35.7438 49.4938 36.5146 49.7054 37.3096C49.8395 37.8122 50.2536 38.1904 50.766 38.2796L54.2783 38.8883V41.1195L50.7327 41.7295C50.2256 41.8167 49.8141 42.1872 49.6748 42.6826C49.4554 43.4652 49.139 44.2236 48.7347 44.9365C48.4808 45.3851 48.5081 45.9404 48.805 46.3617L50.8844 49.3148L49.3154 50.8844L46.3454 48.7881C45.9281 48.4925 45.3766 48.4626 44.9294 48.7113C44.2139 49.1091 43.4626 49.4176 42.6963 49.6299C42.1989 49.7679 41.8258 50.18 41.7386 50.6885L41.1201 54.2783H38.8896L38.2712 50.6885C38.1839 50.18 37.8102 49.7679 37.3135 49.6299C36.5316 49.4137 35.7822 49.1058 35.0863 48.7145C34.6377 48.4632 34.0843 48.4906 33.6644 48.7881L30.6943 50.8844L29.1247 49.3148L31.2048 46.3623C31.5016 45.9404 31.529 45.3857 31.2751 44.9365C30.8714 44.2243 30.5544 43.4652 30.3337 42.682C30.1943 42.1872 29.7829 41.8161 29.2757 41.7295L25.7223 41.1195V38.889L29.2425 38.2796C29.7555 38.1911 30.1696 37.8122 30.3037 37.3096C30.516 36.514 30.8311 35.7432 31.2406 35.0192C31.4938 34.5706 31.4665 34.016 31.1696 33.5947Z" fill="#00152D"/>
<path d="M39.9997 45.6253C43.1019 45.6253 45.6253 43.1019 45.6253 39.9997C45.6253 36.8975 43.1019 34.374 39.9997 34.374C36.8975 34.374 34.374 36.8975 34.374 39.9997C34.374 43.1019 36.8975 45.6253 39.9997 45.6253ZM39.9997 37.0407C41.6312 37.0407 42.9587 38.3682 42.9587 39.9997C42.9587 41.6312 41.6312 42.9587 39.9997 42.9587C38.3682 42.9587 37.0407 41.6312 37.0407 39.9997C37.0407 38.3682 38.3682 37.0407 39.9997 37.0407Z" fill="#00152D"/>
</svg>
