<?xml version="1.0" encoding="UTF-8"?>
<svg width="30" height="30" fill="none" version="1.1" viewBox="0 0 30 30" xmlns="http://www.w3.org/2000/svg">
 <g fill="currentColor">
  <path d="m22.9 14.09v-12.61c0-0.8199-0.6667-1.487-1.487-1.487h-18.24c-0.8198 0-1.487 0.6667-1.487 1.487v25.92c0 0.8198 0.6667 1.487 1.487 1.487h12.82c1.209 0.7019 2.611 1.107 4.106 1.107 4.521 0 8.199-3.678 8.199-8.199 0.0013-3.54-2.255-6.563-5.404-7.708zm4.515 5.902-1.301 1.301c-0.1247 0.1246-0.3266 0.1246-0.4513 0l-2.957-2.957 2.273-2.273c1.183 1.008 2.052 2.374 2.436 3.928zm-3.12 3.973-1.152-1.152c-0.3104-0.3104-0.7847 0.1639-0.4743 0.4743l1.464 1.464c0.3122 0.3122-0.1662 0.7908-0.4784 0.4783l-1.462-1.464c-0.3102-0.3105-0.7847 0.1637-0.4743 0.4743l1.348 1.348c0.2178 0.3358-0.2412 0.705-0.5231 0.4228l-1.298-1.298c-0.3106-0.3104-0.7848 0.1641-0.4743 0.4743l0.9066 0.9093c0.3123 0.3125-0.1662 0.7906-0.4784 0.4784l-0.8619-0.8619c-0.1321-0.3779-0.4705-0.6358-0.8564-0.6708-0.01001-0.4647-0.334-0.8586-0.7901-0.9608 0.0055-0.042 0.0095-0.0853 0.0095-0.1287 0-0.5514-0.4379-0.9891-0.9757-1.007-0.0587-0.8446-1.103-1.256-1.718-0.6409l-0.1287 0.1287-0.2182-0.2182c-0.2939-0.2939-0.3023-0.7734 0-1.079l2.464-2.464h1.212l-1.962 1.962c-0.2674 0.2676-0.2637 0.701 0 0.9649 0.5841 0.584 1.534 0.584 2.118 0l0.1436-0.1437c0.8578-0.8578 2.255-0.8578 3.113 0l2.026 2.026c0.3097 0.3097-0.1616 0.7945-0.477 0.4824zm-6.288 2.046c-0.2856 0.2764-0.7396-0.08384-0.5231-0.4228l0.8063-0.8063c0.3076-0.2028 0.6836 0.186 0.4526 0.4879-0.1937 0.2218-0.2096 0.2318-0.7358 0.7412zm-1.111-0.7819c-0.3122 0.3124-0.7907-0.1662-0.4783-0.4783l1.037-1.037c0.3107-0.3107 0.7936 0.1594 0.4797 0.4797-0.4964 0.4557-1.012 1.009-1.038 1.035zm-1.122-1.743 0.706-0.706c0.3128-0.3128 0.7924 0.1657 0.4797 0.4784l-0.706 0.706c-0.312 0.312-0.7919-0.1662-0.4797-0.4784zm3.044 2.662 0.3686-0.3686c0.2516-0.2516 0.7626 0.1818 0.4391 0.5055l-0.2819 0.2819c-0.2802 0.2802-0.7361-0.08225-0.5258-0.4188zm3.262-8.134-3.956-0.0081-2.355-2.355c1.228-0.8686 2.722-1.381 4.338-1.381 1.614 0 3.11 0.5123 4.338 1.381zm-6.845-1.95 2.273 2.272-2.957 2.957c-0.1206 0.1206-0.3307 0.1206-0.4513 0l-1.301-1.301c0.3835-1.556 1.254-2.922 2.436-3.928zm7.987 4.922c-1.119-1.119-2.942-1.119-4.061 0l-0.1437 0.1436c-0.3225 0.3226-0.8469 0.3226-1.17 0-4e-3 -4e-3 -4e-3 -0.0121 0-0.0162l2.428-2.428h1.828l2.736 2.736c0.1315 0.1315 0.2033 0.3049 0.2033 0.4906 0.06995 0.2697-0.2076 0.4032-0.3049 0.5922zm-20.05 7.234c-0.4499 0-0.8171-0.3659-0.8171-0.8171v-25.92c0-0.4499 0.3659-0.8171 0.8171-0.8171h18.24c0.4499 0 0.8172 0.3659 0.8172 0.8171v12.4c-0.6776-0.1816-1.389-0.2805-2.124-0.2805-4.521 0-8.199 3.678-8.199 8.198 0 2.599 1.217 4.918 3.11 6.421h-11.84zm16.93 1.107c-4.151 0-7.529-3.377-7.529-7.529 0-0.3428 0.0258-0.6789 0.0691-1.01l0.9784 0.9784c0.3189 0.3187 0.7947 0.3711 1.166 0.1734 0.0515 0.2832 0.187 0.5434 0.3943 0.7508l0.2182 0.2181-0.103 0.103c-0.5439 0.5439-0.291 1.443 0.3943 1.67-0.2094 0.6563 0.2844 1.317 0.9595 1.317 0.0433 0 0.0853-4e-3 0.1287-0.0094 0.1364 0.6304 0.8174 0.9516 1.382 0.7087 0.2493 0.637 1.114 0.8793 1.651 0.3429 0.1734-0.1283 0.2868-0.315 0.4282-0.4703l0.4784 0.4784c0.5183 0.5183 1.398 0.3222 1.653-0.3524 0.5493 0.2399 1.24-0.05696 1.385-0.7073 0.6622 0.08514 1.332-0.5437 1.088-1.308 0.6821-0.2234 0.9399-1.124 0.3943-1.67l-0.0366-0.0366c0.3233-0.2341 0.3641-0.5996 0.4947-0.9364 0.2382 0.04357 0.5974 0.0097 0.8794-0.2723l0.9785-0.9784c0.0447 0.3306 0.0691 0.6667 0.0691 1.01 0.0067 4.151-3.37 7.529-7.521 7.529z"/>
  <path d="m4.816 3.642h14.75v0.6708h-14.75v-0.6708z"/>
  <path d="m4.816 6.32h14.75v0.6708h-14.75v-0.6708z"/>
  <path d="m4.816 8.999h14.75v0.6708h-14.75v-0.6708z"/>
  <path d="m4.816 11.68h8.704v0.6708h-8.704v-0.6708z"/>
  <path d="m4.816 25.85h4.583v0.6708h-4.583v-0.6708z"/>
  <path d="m4.816 22.72h4.583v0.6708h-4.583v-0.6708z"/>
 </g>
</svg>
