<svg width="30" height="30" viewBox="0 0 30 30" fill="none" xmlns="http://www.w3.org/2000/svg">
<path fill-rule="evenodd" clip-rule="evenodd" d="M12.9641 15.7071C13.3546 15.3166 13.3546 14.6834 12.9641 14.2929L4.6644 5.99319C4.29746 5.62626 4.29746 5.03133 4.6644 4.6644C5.03133 4.29746 5.62626 4.29746 5.99319 4.6644L14.2929 12.9641C14.6834 13.3546 15.3166 13.3546 15.7071 12.9641L24.0068 4.6644C24.3737 4.29746 24.9687 4.29746 25.3356 4.6644C25.7025 5.03133 25.7025 5.62626 25.3356 5.99319L17.0359 14.2929C16.6454 14.6834 16.6454 15.3166 17.0359 15.7071L25.3356 24.0068C25.7025 24.3737 25.7025 24.9687 25.3356 25.3356C24.9687 25.7025 24.3737 25.7025 24.0068 25.3356L15.7071 17.0359C15.3166 16.6454 14.6834 16.6454 14.2929 17.0359L5.99319 25.3356C5.62626 25.7025 5.03133 25.7025 4.6644 25.3356C4.29746 24.9687 4.29746 24.3737 4.6644 24.0068L12.9641 15.7071Z" fill="currentColor"/>
</svg>
