<svg width="469" height="144" viewBox="0 0 469 144" fill="none" xmlns="http://www.w3.org/2000/svg">
<path fill-rule="evenodd" clip-rule="evenodd" d="M57 0L0 72L57 144L114 72L57 0ZM57 19.3329L15.3052 72L57 124.667L98.6948 72L57 19.3329Z" fill="currentColor"/>
<path d="M455.045 69.48C463.805 73.2 468.845 80.88 468.845 90.48C468.845 105.6 459.005 115.2 443.165 115.2H406.505V28.8H440.165C455.645 28.8 464.705 39.54 464.705 51.54C464.705 59.46 461.045 66 455.045 69.48ZM440.045 38.88H417.305V64.86H440.045C447.665 64.86 453.725 59.64 453.725 51.54C453.725 44.1 448.145 38.88 440.045 38.88ZM417.305 105H441.125C450.665 105 457.865 99.54 457.865 90.42C457.865 81.72 451.505 74.94 442.325 74.94H417.305V105Z" fill="currentColor"/>
<path d="M349.361 105.06H393.281V115.2H338.681V28.8H393.281V38.94H349.361V66H386.081V76.14H349.361V105.06Z" fill="currentColor"/>
<path d="M255.075 115.2H244.395L219.375 28.8H230.535L249.735 97.14L268.875 28.86L280.095 28.8L299.295 97.14L318.435 28.8H329.655L304.635 115.2H293.955L274.515 47.46L255.075 115.2Z" fill="currentColor"/>
<path d="M178.32 117C152.46 117 138 98.64 138 72C138 45.36 152.46 27 178.32 27C198.3 27 211.44 37.98 216.36 55.14L205.5 58.02C201.96 45.18 192.9 37.2 178.32 37.2C159 37.2 149.4 51.3 149.28 72C149.16 92.7 159 106.8 178.32 106.8C192.9 106.8 201.96 98.82 205.5 85.98L216.36 88.86C211.44 106.02 198.3 117 178.32 117Z" fill="currentColor"/>
</svg>
