<svg width="30" height="30" viewBox="0 0 30 30" fill="none" xmlns="http://www.w3.org/2000/svg">
<g fill="currentColor">
<path d="M29.3782 18.7496C29.3782 18.5815 29.3509 18.4087 29.2964 18.2224L27.7191 12.9405L27.1646 11.3905C26.9373 10.6951 26.2964 10.1905 25.6373 10.1905H19.8646V8.79054C19.8646 7.81327 19.0691 7.02236 18.0964 7.02236H16.0736C16.0827 6.89054 16.1009 6.75873 16.1009 6.62236C16.1464 4.74963 15.2646 2.94054 13.7327 1.786C12.1964 0.626908 10.2873 0.281453 8.49183 0.835999C6.0282 1.60418 4.3691 3.85418 4.3691 6.44054C4.3691 6.636 4.38274 6.83145 4.39638 7.02236H2.37365C1.39638 7.02236 0.605469 7.81782 0.605469 8.79054V21.3951L0.61456 25.0224C0.61456 25.5133 0.819105 25.9815 1.16911 26.3042C1.47365 26.5815 1.85547 26.7315 2.24183 26.7315C2.28729 26.7315 2.33274 26.7315 2.3782 26.7269H3.9782C4.10547 27.5496 4.54183 28.2724 5.16911 28.7633H2.37365C2.18729 28.7633 2.03274 28.9178 2.03274 29.1042C2.03274 29.2905 2.18729 29.4451 2.37365 29.4451H6.51456C6.5691 29.4451 6.6191 29.4315 6.66456 29.4042C6.8191 29.4269 6.9782 29.4451 7.13729 29.4451C8.73729 29.4451 10.06 28.2633 10.2964 26.7269H19.5282C19.5509 26.7269 19.5736 26.7178 19.5964 26.7133L20.6464 26.7224C20.7691 27.5451 21.21 28.2678 21.8373 28.7587H15.9418C15.7555 28.7587 15.6009 28.9133 15.6009 29.0996C15.6009 29.286 15.7555 29.4405 15.9418 29.4405H23.8055C25.3827 29.4405 26.6918 28.2905 26.9555 26.786L27.81 26.7951C28.6827 26.7951 29.3964 26.0542 29.3964 25.1451L29.3782 18.7496ZM27.0418 13.1269L28.3373 17.4269H22.7646C22.41 17.4087 22.1327 17.1269 22.1327 16.7905L22.1373 13.7133C22.1373 13.5451 22.2009 13.3951 22.3191 13.2815C22.4236 13.1815 22.56 13.1269 22.7191 13.1269H22.7464H27.0418ZM8.69183 1.47691C9.18729 1.32236 9.69183 1.24964 10.1918 1.24964C11.2964 1.24964 12.3827 1.61327 13.3191 2.32236C14.6736 3.34509 15.4555 4.94509 15.4146 6.59964C15.3236 10.2315 12.2873 13.2542 10.8327 14.7042C10.5873 14.9496 10.3827 15.1542 10.2373 15.3133C10.0918 15.1542 9.88729 14.9496 9.64638 14.7087C8.15547 13.2178 5.05092 10.1133 5.05092 6.42691C5.05092 4.14509 6.51456 2.15418 8.69183 1.47691ZM1.28729 8.78145C1.28729 8.18145 1.77365 7.69509 2.37365 7.69509H4.48274C5.06001 11.0815 7.77365 13.8042 9.16456 15.1951C9.39638 15.4269 9.59183 15.6224 9.73274 15.7769C9.86456 15.9178 10.0464 15.9996 10.2373 15.9996C10.4282 15.9996 10.61 15.9178 10.7373 15.7769C10.8782 15.6224 11.0782 15.4224 11.3146 15.186C12.6918 13.8133 15.4146 11.0951 15.9873 7.69509H18.0964C18.6964 7.69509 19.1827 8.18145 19.1827 8.78145V21.0451H1.28729V8.78145ZM7.13729 28.7496C5.75092 28.7496 4.6191 27.6224 4.6191 26.2315C4.6191 24.8405 5.74638 23.7133 7.13729 23.7133C8.5282 23.7133 9.65547 24.8405 9.65547 26.2315C9.65547 27.6224 8.52365 28.7496 7.13729 28.7496ZM10.3282 26.036C10.2236 24.3678 8.83729 23.036 7.14183 23.036C5.44638 23.036 4.05547 24.3633 3.95547 26.036H2.35547C2.08729 26.0587 1.83274 25.9724 1.63729 25.7951C1.42365 25.5996 1.30547 25.3178 1.30547 25.0178L1.28729 21.7269H19.1782L19.1873 26.0315L10.3282 26.036ZM23.8055 28.7496C22.4191 28.7496 21.2873 27.6224 21.2873 26.2315C21.2873 24.8451 22.4146 23.7133 23.8055 23.7133C25.1964 23.7133 26.3236 24.8405 26.3236 26.2315C26.3236 27.6224 25.1964 28.7496 23.8055 28.7496ZM27.8146 26.1042L27.0009 26.0951C26.9282 24.3951 25.5282 23.0315 23.81 23.0315C22.1146 23.0315 20.7282 24.3587 20.6236 26.0269L19.8782 26.0178L19.8646 10.8633H25.6373C25.9964 10.8633 26.3827 11.1815 26.5191 11.5996L26.8191 12.4451H22.7555C22.4055 12.4315 22.0873 12.5542 21.8418 12.7905C21.5918 13.0315 21.4509 13.3678 21.4509 13.7133L21.4464 16.7905C21.4464 17.4951 22.01 18.0724 22.7418 18.1087H28.5418L28.6418 18.4178C28.6782 18.5405 28.6964 18.6451 28.6964 18.7451L28.7146 25.136C28.7146 25.6724 28.31 26.1042 27.8146 26.1042Z"/>
<path d="M23.8063 24.8447C23.0426 24.8447 22.4199 25.4675 22.4199 26.2311C22.4199 26.9947 23.0426 27.6175 23.8063 27.6175C24.5699 27.6175 25.1926 26.9947 25.1926 26.2311C25.1926 25.4675 24.5745 24.8447 23.8063 24.8447ZM23.8063 26.9402C23.4154 26.9402 23.1017 26.622 23.1017 26.2356C23.1017 25.8493 23.4199 25.5311 23.8063 25.5311C24.1926 25.5311 24.5108 25.8493 24.5108 26.2356C24.5108 26.622 24.1972 26.9402 23.8063 26.9402Z"/>
<path d="M7.13636 24.8447C6.37273 24.8447 5.75 25.4675 5.75 26.2311C5.75 26.9947 6.37273 27.6175 7.13636 27.6175C7.9 27.6175 8.52273 26.9947 8.52273 26.2311C8.52273 25.4675 7.9 24.8447 7.13636 24.8447ZM7.13636 26.9402C6.74545 26.9402 6.43182 26.622 6.43182 26.2356C6.43182 25.8493 6.75 25.5311 7.13636 25.5311C7.52273 25.5311 7.84091 25.8493 7.84091 26.2356C7.84091 26.622 7.52727 26.9402 7.13636 26.9402Z"/>
<path d="M13.8055 28.75H12.1964C12.01 28.75 11.8555 28.9045 11.8555 29.0909C11.8555 29.2773 12.01 29.4318 12.1964 29.4318H13.8055C13.9918 29.4318 14.1464 29.2773 14.1464 29.0909C14.1464 28.9045 13.9918 28.75 13.8055 28.75Z"/>
<path d="M23.7692 19.2402H22.4737C22.2874 19.2402 22.1328 19.3948 22.1328 19.5811C22.1328 19.7675 22.2874 19.9221 22.4737 19.9221H23.7692C23.9555 19.9221 24.1101 19.7675 24.1101 19.5811C24.1101 19.3948 23.9555 19.2402 23.7692 19.2402Z"/>
<path d="M13.4928 6.59015C13.4928 4.79469 12.0337 3.33105 10.2337 3.33105C8.4337 3.33105 6.97461 4.79015 6.97461 6.59015C6.97461 8.39015 8.4337 9.84924 10.2337 9.84924C12.0337 9.84924 13.4928 8.39015 13.4928 6.59015ZM7.66097 6.59015C7.66097 5.17196 8.81552 4.01287 10.2382 4.01287C11.661 4.01287 12.8155 5.16742 12.8155 6.59015C12.8155 8.01287 11.661 9.16742 10.2382 9.16742C8.81552 9.16742 7.66097 8.01287 7.66097 6.59015Z"/>
</g>
</svg>
