<svg xmlns="http://www.w3.org/2000/svg" width="13.4" height="18.4" fill="none" version="1.1" viewBox="0 0 13.4 18.4"><path fill="#136574" d="M1.48.05C.702.05.07.683.07 1.46v15.48c0 .777.632 1.41 1.41 1.41h10.44c.778 0 1.41-.633 1.41-1.41V4.86a2.5 2.5 0 0 0-1.027-2.02c-.936-.682-2.382-1.735-3.158-2.303a2.492 2.492 0 0 0-1.471-.48zm6.195.566c.037 0 .073 0 .11.004v2.672c0 .573.466 1.04 1.038 1.04h3.875c.048.17.07.344.07.52v12.08c0 .467-.378.849-.845.849H1.483a.848.848 0 0 1-.846-.848V1.463c0-.467.38-.846.846-.846zm.674.12c.165.061.32.146.463.25.78.567 2.224 1.622 3.162 2.303 0 0 .247.157.465.478H8.824a.475.475 0 0 1-.475-.475V.735zM2.804 7.763c-.371 0-.371.566 0 .566h7.936a.284.284 0 0 0-.016-.566zm-.006 1.883c-.369 0-.369.564 0 .564h7.951c.37 0 .37-.564 0-.564zm0 1.786c-.37 0-.37.565 0 .565h7.953c.37 0 .37-.564 0-.564zm.004 1.786c-.37 0-.371.564-.002.564h7.947c.37 0 .37-.564 0-.564z"/></svg>