<svg width="30" height="30" viewBox="0 0 30 30" fill="none" xmlns="http://www.w3.org/2000/svg">
<g fill="currentColor">
<path d="M25.2312 20.7865V5.60472C25.2312 4.382 24.2357 3.38654 23.013 3.38654H22.413V2.78654C22.413 1.56381 21.4175 0.568359 20.1948 0.568359H3.47209C2.24936 0.568359 1.25391 1.56381 1.25391 2.78654V24.3956C1.25391 25.6184 2.24936 26.6138 3.47209 26.6138H4.07209V27.2138C4.07209 28.4365 5.06754 29.432 6.29027 29.432H24.3766C26.7857 29.432 28.7448 27.4729 28.7448 25.0638C28.7448 22.9502 27.2312 21.182 25.2312 20.7865ZM3.47209 25.932C2.62663 25.932 1.93572 25.2411 1.93572 24.3956V2.78654C1.93572 1.94109 2.62663 1.25018 3.47209 1.25018H20.1948C21.0403 1.25018 21.7312 1.94109 21.7312 2.78654V3.38654H10.4312C10.3403 3.38654 10.2539 3.4229 10.1903 3.48654L4.17209 9.50472C4.10845 9.56836 4.07209 9.65472 4.07209 9.74563V25.932H3.47209ZM7.663 6.97745L10.0903 4.55018V7.86836C10.0903 8.71381 9.39936 9.40472 8.55391 9.40472H5.23572L7.663 6.97745ZM6.29027 28.7502C5.44482 28.7502 4.75391 28.0593 4.75391 27.2138V10.0865H8.55391C9.77663 10.0865 10.7721 9.09109 10.7721 7.86836V4.06836H23.013C23.8585 4.06836 24.5494 4.75927 24.5494 5.60472V20.7093C24.4903 20.7047 24.4357 20.7002 24.3766 20.7002C21.9675 20.7002 20.0085 22.6593 20.0085 25.0684C20.0085 26.6184 20.8221 27.9774 22.0403 28.7547H6.29027V28.7502ZM24.3766 28.7502C22.3448 28.7502 20.6903 27.0956 20.6903 25.0638C20.6903 23.032 22.3448 21.3775 24.3766 21.3775C26.4085 21.3775 28.063 23.032 28.063 25.0638C28.063 27.0956 26.4085 28.7502 24.3766 28.7502Z"/>
<path d="M10.5218 11.4365H6.74911C6.56275 11.4365 6.4082 11.5911 6.4082 11.7774V15.5547C6.4082 15.7411 6.56275 15.8956 6.74911 15.8956H10.5218C10.7082 15.8956 10.8627 15.7411 10.8627 15.5547V11.7774C10.8627 11.5911 10.7082 11.4365 10.5218 11.4365ZM10.1809 15.2138H7.09002V12.1183H10.1809V15.2138Z"/>
<path d="M13.0811 12.9816H22.563C22.7493 12.9816 22.9039 12.8271 22.9039 12.6407C22.9039 12.4544 22.7493 12.2998 22.563 12.2998H13.0811C12.8948 12.2998 12.7402 12.4544 12.7402 12.6407C12.7402 12.8271 12.8902 12.9816 13.0811 12.9816Z"/>
<path d="M13.0811 15.0366H19.4584C19.6448 15.0366 19.7993 14.882 19.7993 14.6956C19.7993 14.5093 19.6448 14.3547 19.4584 14.3547H13.0811C12.8948 14.3547 12.7402 14.5093 12.7402 14.6956C12.7402 14.882 12.8902 15.0366 13.0811 15.0366Z"/>
<path d="M10.5218 17.2461H6.74911C6.56275 17.2461 6.4082 17.4006 6.4082 17.587V21.3643C6.4082 21.5506 6.56275 21.7052 6.74911 21.7052H10.5218C10.7082 21.7052 10.8627 21.5506 10.8627 21.3643V17.587C10.8627 17.4006 10.7082 17.2461 10.5218 17.2461ZM10.1809 21.0234H7.09002V17.9279H10.1809V21.0234Z"/>
<path d="M13.0811 18.7912H22.563C22.7493 18.7912 22.9039 18.6366 22.9039 18.4503C22.9039 18.2639 22.7493 18.1094 22.563 18.1094H13.0811C12.8948 18.1094 12.7402 18.2639 12.7402 18.4503C12.7402 18.6366 12.8902 18.7912 13.0811 18.7912Z"/>
<path d="M19.4584 20.1641H13.0811C12.8948 20.1641 12.7402 20.3186 12.7402 20.505C12.7402 20.6913 12.8948 20.8459 13.0811 20.8459H19.4584C19.6448 20.8459 19.7993 20.6913 19.7993 20.505C19.7993 20.3186 19.6448 20.1641 19.4584 20.1641Z"/>
<path d="M10.5218 23.0547H6.74911C6.56275 23.0547 6.4082 23.2092 6.4082 23.3956V27.1729C6.4082 27.3592 6.56275 27.5138 6.74911 27.5138H10.5218C10.7082 27.5138 10.8627 27.3592 10.8627 27.1729V23.3956C10.8627 23.2092 10.7082 23.0547 10.5218 23.0547ZM10.1809 26.832H7.09002V23.7365H10.1809V26.832Z"/>
<path d="M18.8221 23.9141H13.0811C12.8948 23.9141 12.7402 24.0686 12.7402 24.255C12.7402 24.4413 12.8948 24.5959 13.0811 24.5959H18.8221C19.0084 24.5959 19.163 24.4413 19.163 24.255C19.163 24.0686 19.013 23.9141 18.8221 23.9141Z"/>
<path d="M16.2675 25.9729H13.0811C12.8948 25.9729 12.7402 26.1274 12.7402 26.3138C12.7402 26.5002 12.8948 26.6547 13.0811 26.6547H16.2675C16.4539 26.6547 16.6084 26.5002 16.6084 26.3138C16.6084 26.1274 16.4584 25.9729 16.2675 25.9729Z"/>
<path d="M26.0136 23.4687L23.5363 25.946L22.7408 25.1506C22.609 25.0187 22.3908 25.0187 22.259 25.1506C22.1272 25.2824 22.1272 25.5006 22.259 25.6324L23.2954 26.6687C23.3636 26.7369 23.4499 26.7687 23.5363 26.7687C23.6227 26.7687 23.709 26.7369 23.7772 26.6687L26.4954 23.9506C26.6272 23.8187 26.6272 23.6006 26.4954 23.4687C26.3636 23.3369 26.1454 23.3324 26.0136 23.4687Z"/>
</g>
</svg>
