<svg width="30" height="30" viewBox="0 0 30 30" fill="none" xmlns="http://www.w3.org/2000/svg">
<g fill="currentColor">
<path d="M1.98676 29.6475H28.0116C28.9122 29.6475 29.6449 28.9148 29.6449 28.0142V21.4179V16.5991V16.4309C29.6449 16.4099 29.6426 16.3891 29.6381 16.3686L27.51 6.78633C27.3426 6.03311 26.6869 5.50711 25.9154 5.50711H24.597V1.53615C24.597 0.883008 24.0656 0.351562 23.4123 0.351562H10.2295C10.148 0.351562 10.0706 0.391289 10.0261 0.436055L5.48586 4.97619C5.43758 5.0243 5.40137 5.10111 5.40137 5.17963V5.50717H4.08295C3.3115 5.50717 2.65584 6.03316 2.48844 6.78639L0.360313 16.3686C0.355801 16.389 0.353516 16.4099 0.353516 16.4309V16.5991V21.4179V28.0142C0.353457 28.9148 1.08623 29.6475 1.98676 29.6475ZM25.9154 6.08156C26.4155 6.08156 26.8407 6.42264 26.9492 6.9109L28.8529 15.4829C28.7298 15.4395 28.598 15.4146 28.4603 15.4146H24.597V6.08156H25.9154ZM24.0226 1.53615V15.4146H22.5419C21.8888 15.4146 21.3573 15.946 21.3573 16.5991V18.7305C21.3573 19.0669 21.0836 19.3406 20.7471 19.3406H9.25133C8.91482 19.3406 8.64108 19.0669 8.64108 18.7305V16.5991C8.64108 15.946 8.10963 15.4146 7.45648 15.4146H5.97576V5.46686H9.33207C9.98522 5.46686 10.5167 4.93541 10.5167 4.28227V0.926016H23.4123C23.7489 0.926016 24.0226 1.19977 24.0226 1.53615ZM9.94227 1.33213V4.28221C9.94227 4.61859 9.66852 4.89234 9.33213 4.89234H6.38205L9.94227 1.33213ZM3.04924 6.9109C3.1577 6.42264 3.58279 6.08156 4.08295 6.08156H5.40137V15.4146H1.53805C1.40029 15.4146 1.26852 15.4394 1.14541 15.4828L3.04924 6.9109ZM0.92791 16.5991C0.92791 16.2628 1.20166 15.989 1.53805 15.989H7.45648C7.79287 15.989 8.06662 16.2628 8.06662 16.5991V18.7305C8.06662 19.3836 8.59807 19.9151 9.25133 19.9151H20.7471C21.4003 19.9151 21.9318 19.3836 21.9318 18.7305V16.5991C21.9318 16.2628 22.2055 15.989 22.5419 15.989H28.4603C28.7967 15.989 29.0704 16.2628 29.0704 16.5991V21.4179V28.0142C29.0704 28.5981 28.5955 29.073 28.0116 29.073H1.98676C1.40287 29.073 0.92791 28.5981 0.92791 28.0142V21.4179V16.5991Z"/>
<path d="M9.57674 26.1134H20.4227C21.2867 26.1134 21.9896 25.4104 21.9896 24.5465C21.9896 23.6824 21.2866 22.9795 20.4227 22.9795H9.57674C8.71271 22.9795 8.00977 23.6825 8.00977 24.5465C8.00977 25.4104 8.71271 26.1134 9.57674 26.1134ZM9.57674 23.5539H20.4227C20.97 23.5539 21.4153 23.9991 21.4153 24.5465C21.4153 25.0938 20.97 25.539 20.4227 25.539H9.57674C9.02941 25.539 8.58416 25.0938 8.58416 24.5465C8.58416 23.9991 9.02941 23.5539 9.57674 23.5539Z"/>
<path d="M10.2168 7.48352C10.2168 7.64219 10.3454 7.77074 10.504 7.77074H19.4958C19.6544 7.77074 19.783 7.64219 19.783 7.48352C19.783 7.32484 19.6544 7.19629 19.4958 7.19629H10.504C10.3454 7.19629 10.2168 7.32484 10.2168 7.48352Z"/>
<path d="M19.4957 9.93066H10.504C10.3454 9.93066 10.2168 10.0592 10.2168 10.2179C10.2168 10.3766 10.3454 10.5051 10.504 10.5051H19.4958C19.6544 10.5051 19.783 10.3766 19.783 10.2179C19.7829 10.0592 19.6544 9.93066 19.4957 9.93066Z"/>
<path d="M19.4957 12.665H10.504C10.3454 12.665 10.2168 12.7936 10.2168 12.9523C10.2168 13.1109 10.3454 13.2395 10.504 13.2395H19.4958C19.6544 13.2395 19.783 13.1109 19.783 12.9523C19.783 12.7936 19.6544 12.665 19.4957 12.665Z"/>
<path d="M19.4957 15.3984H10.504C10.3454 15.3984 10.2168 15.527 10.2168 15.6857C10.2168 15.8443 10.3454 15.9729 10.504 15.9729H19.4958C19.6544 15.9729 19.783 15.8443 19.783 15.6857C19.7829 15.527 19.6544 15.3984 19.4957 15.3984Z"/>
<path d="M1.98676 29.6475H28.0116C28.9122 29.6475 29.6449 28.9148 29.6449 28.0142V21.4179V16.5991V16.4309C29.6449 16.4099 29.6426 16.3891 29.6381 16.3686L27.51 6.78633C27.3426 6.03311 26.6869 5.50711 25.9154 5.50711H24.597V1.53615C24.597 0.883008 24.0656 0.351562 23.4123 0.351562H10.2295C10.148 0.351562 10.0706 0.391289 10.0261 0.436055L5.48586 4.97619C5.43758 5.0243 5.40137 5.10111 5.40137 5.17963V5.50717H4.08295C3.3115 5.50717 2.65584 6.03316 2.48844 6.78639L0.360313 16.3686C0.355801 16.389 0.353516 16.4099 0.353516 16.4309V16.5991V21.4179V28.0142C0.353457 28.9148 1.08623 29.6475 1.98676 29.6475ZM25.9154 6.08156C26.4155 6.08156 26.8407 6.42264 26.9492 6.9109L28.8529 15.4829C28.7298 15.4395 28.598 15.4146 28.4603 15.4146H24.597V6.08156H25.9154ZM24.0226 1.53615V15.4146H22.5419C21.8888 15.4146 21.3573 15.946 21.3573 16.5991V18.7305C21.3573 19.0669 21.0836 19.3406 20.7471 19.3406H9.25133C8.91482 19.3406 8.64108 19.0669 8.64108 18.7305V16.5991C8.64108 15.946 8.10963 15.4146 7.45648 15.4146H5.97576V5.46686H9.33207C9.98522 5.46686 10.5167 4.93541 10.5167 4.28227V0.926016H23.4123C23.7489 0.926016 24.0226 1.19977 24.0226 1.53615ZM9.94227 1.33213V4.28221C9.94227 4.61859 9.66852 4.89234 9.33213 4.89234H6.38205L9.94227 1.33213ZM3.04924 6.9109C3.1577 6.42264 3.58279 6.08156 4.08295 6.08156H5.40137V15.4146H1.53805C1.40029 15.4146 1.26852 15.4394 1.14541 15.4828L3.04924 6.9109ZM0.92791 16.5991C0.92791 16.2628 1.20166 15.989 1.53805 15.989H7.45648C7.79287 15.989 8.06662 16.2628 8.06662 16.5991V18.7305C8.06662 19.3836 8.59807 19.9151 9.25133 19.9151H20.7471C21.4003 19.9151 21.9318 19.3836 21.9318 18.7305V16.5991C21.9318 16.2628 22.2055 15.989 22.5419 15.989H28.4603C28.7967 15.989 29.0704 16.2628 29.0704 16.5991V21.4179V28.0142C29.0704 28.5981 28.5955 29.073 28.0116 29.073H1.98676C1.40287 29.073 0.92791 28.5981 0.92791 28.0142V21.4179V16.5991Z"/>
<path d="M9.57674 26.1134H20.4227C21.2867 26.1134 21.9896 25.4104 21.9896 24.5465C21.9896 23.6824 21.2866 22.9795 20.4227 22.9795H9.57674C8.71271 22.9795 8.00977 23.6825 8.00977 24.5465C8.00977 25.4104 8.71271 26.1134 9.57674 26.1134ZM9.57674 23.5539H20.4227C20.97 23.5539 21.4153 23.9991 21.4153 24.5465C21.4153 25.0938 20.97 25.539 20.4227 25.539H9.57674C9.02941 25.539 8.58416 25.0938 8.58416 24.5465C8.58416 23.9991 9.02941 23.5539 9.57674 23.5539Z"/>
<path d="M10.2168 7.48352C10.2168 7.64219 10.3454 7.77074 10.504 7.77074H19.4958C19.6544 7.77074 19.783 7.64219 19.783 7.48352C19.783 7.32484 19.6544 7.19629 19.4958 7.19629H10.504C10.3454 7.19629 10.2168 7.32484 10.2168 7.48352Z"/>
<path d="M19.4957 9.93066H10.504C10.3454 9.93066 10.2168 10.0592 10.2168 10.2179C10.2168 10.3766 10.3454 10.5051 10.504 10.5051H19.4958C19.6544 10.5051 19.783 10.3766 19.783 10.2179C19.7829 10.0592 19.6544 9.93066 19.4957 9.93066Z"/>
<path d="M19.4957 12.665H10.504C10.3454 12.665 10.2168 12.7936 10.2168 12.9523C10.2168 13.1109 10.3454 13.2395 10.504 13.2395H19.4958C19.6544 13.2395 19.783 13.1109 19.783 12.9523C19.783 12.7936 19.6544 12.665 19.4957 12.665Z"/>
<path d="M19.4957 15.3984H10.504C10.3454 15.3984 10.2168 15.527 10.2168 15.6857C10.2168 15.8443 10.3454 15.9729 10.504 15.9729H19.4958C19.6544 15.9729 19.783 15.8443 19.783 15.6857C19.7829 15.527 19.6544 15.3984 19.4957 15.3984Z"/>
</g>
</svg>
