<svg width="60" height="60" viewBox="0 0 60 60" fill="none" xmlns="http://www.w3.org/2000/svg">
    <circle cx="30" cy="30" r="30" fill="currentColor" />
    <path
        d="M30.6624 18.0629C26.6677 14.0682 20.191 14.0682 16.1962 18.0629C12.2015 22.0577 12.2015 28.5344 16.1962 32.5291L17.411 33.7439"
        stroke="#FDFEFF" stroke-width="2.17372" stroke-miterlimit="10" />
    <path
        d="M32.2147 42.1315C33.1295 43.0463 34.6127 43.0463 35.5276 42.1315C36.4424 41.2166 36.4424 39.7334 35.5276 38.8186C36.4424 39.7334 37.9256 39.7334 38.8404 38.8186C39.7552 37.9037 39.7553 36.4205 38.8404 35.5057C39.7707 36.436 41.2888 36.4202 42.1992 35.4585M42.1992 35.4585C43.0766 34.5316 43.0213 33.061 42.1188 32.1584L32.8767 22.9161L29.7548 26.038C28.2466 27.5462 25.8013 27.5462 24.2931 26.038L23.4902 25.2351L30.6624 18.0629C34.6572 14.0682 41.1339 14.0682 45.1286 18.0629C49.1233 22.0577 49.1233 28.5344 45.1286 32.5291L42.1992 35.4585Z"
        stroke="#FDFEFF" stroke-width="2.17372" stroke-miterlimit="10" />
    <path
        d="M32.0857 42.0118C31.152 41.2045 29.741 41.291 28.8682 42.1638L28.2306 42.8014C27.3157 43.7163 27.3157 45.1995 28.2306 46.1143C29.1453 47.0292 30.6286 47.0292 31.5434 46.1143L32.2138 45.4439C33.1696 44.4881 33.1269 42.9121 32.0857 42.0118Z"
        stroke="#FDFEFF" stroke-width="2.17372" stroke-miterlimit="10" />
    <path
        d="M28.1761 39.5436C27.2614 38.6287 25.7781 38.6287 24.8633 39.5436L23.5934 40.8135C22.6785 41.7284 22.6785 43.2116 23.5934 44.1264C24.5082 45.0413 25.9914 45.0413 26.9063 44.1264L28.1762 42.8565C29.091 41.9416 29.091 40.4583 28.1761 39.5436Z"
        stroke="#FDFEFF" stroke-width="2.17372" stroke-miterlimit="10" />
    <path
        d="M21.5498 32.9176C20.6349 32.0027 19.1517 32.0027 18.2369 32.9176L16.9669 34.1875C16.052 35.1024 16.052 36.5856 16.9669 37.5004C17.8817 38.4153 19.3649 38.4153 20.2798 37.5004L21.5498 36.2305C22.4646 35.3156 22.4646 33.8324 21.5498 32.9176Z"
        stroke="#FDFEFF" stroke-width="2.17372" stroke-miterlimit="10" />
    <path
        d="M24.8619 36.2306C23.9472 35.3157 22.4639 35.3157 21.5491 36.2306L19.1671 38.6126C18.2522 39.5275 18.2523 41.0107 19.1671 41.9255C20.0819 42.8404 21.5651 42.8404 22.48 41.9255L24.862 39.5435C25.7768 38.6286 25.7768 37.1454 24.8619 36.2306Z"
        stroke="#FDFEFF" stroke-width="2.17372" stroke-miterlimit="10" />
    <path d="M35.8582 39.1492L32.6558 35.9468" stroke="#FDFEFF" stroke-width="2.17372" stroke-miterlimit="10" />
    <path d="M39.1707 35.8363L35.9683 32.6338" stroke="#FDFEFF" stroke-width="2.17372" stroke-miterlimit="10" />
</svg>