<svg width="30" height="30" viewBox="0 0 30 30" fill="none" xmlns="http://www.w3.org/2000/svg">
<g fill="currentColor">
<path d="M15.9664 9.03301L16.0886 9.64968L14.9997 10.9552L13.9109 9.64412L14.0331 9.02745C13.8497 8.97745 13.6775 8.91079 13.5053 8.83301L13.3164 9.79412L14.9997 11.8219L16.6886 9.79967L16.4997 8.83856C16.3275 8.91634 16.1497 8.98301 15.9664 9.03301Z"/>
<path d="M18.8669 5.74362L18.6835 5.67695C18.5891 5.64362 18.4669 5.59362 18.3335 5.53806V5.56029C18.3335 7.39917 16.8391 8.89362 15.0002 8.89362C13.1613 8.89362 11.6669 7.39917 11.6669 5.56029C11.6669 5.04918 11.7891 4.56029 11.9947 4.12695C11.7336 4.28251 11.478 4.4714 11.2447 4.72695L11.1891 4.78806L11.178 4.83806C11.1724 4.86029 11.1724 4.88251 11.1669 4.89917C11.1502 5.01029 11.1336 5.11584 11.1224 5.2214C11.1169 5.32695 11.1113 5.44362 11.1113 5.55473C11.1113 7.69917 12.8558 9.44362 15.0002 9.44362C17.0835 9.44362 18.7835 7.79917 18.878 5.74362H18.8669Z"/>
<path d="M14.922 0.555555H14.9497C18.2664 0.583333 19.4442 2.95 19.4442 5.15C19.4442 5.23333 19.4442 5.46111 19.0331 5.46111H19.0053L18.9053 5.45555L18.7775 5.41111C18.522 5.31667 18.0997 5.12778 17.6109 4.91111C16.1831 4.27222 14.4109 3.47778 13.3164 3.47778C12.5831 3.47778 11.9497 3.71667 11.3831 4.2C11.5164 2.16667 13.0497 0.555555 14.922 0.555555ZM14.922 0C12.6497 0 10.8164 2.02222 10.8164 4.49444C10.8164 4.5 10.822 4.73333 10.8331 4.97222V5C10.8331 6.06111 11.4497 7.17222 12.3275 7.97778C11.7442 7.33889 11.3886 6.48889 11.3886 5.55555C11.3886 5.33333 11.4109 5.12222 11.4497 4.91111C11.822 4.50555 12.3997 4.03333 13.3164 4.03333C14.6664 4.03333 17.5997 5.58333 18.5886 5.93333C18.5053 6.71667 18.172 7.42222 17.672 7.97222C18.2664 7.42222 18.7386 6.73333 18.9831 6.01111H19.0331C19.4942 6.01111 19.9997 5.77778 19.9997 5.14444C19.9997 2.66667 18.6275 0.0333333 14.9553 0C14.9442 0 14.9331 0 14.922 0Z"/>
<path d="M10.5556 15.556V12.7782H19.4444V15.556H20V12.7782C20 12.4727 19.75 12.2227 19.4444 12.2227H10.5556C10.25 12.2227 10 12.4727 10 12.7782V15.556H10.5556Z"/>
<path d="M9.72761 15.5554C9.20539 14.561 8.8665 13.5499 9.08317 12.9054C9.62206 11.3221 10.4276 10.2832 11.3554 9.97209C11.4998 9.92209 11.8832 9.84431 12.7887 9.84431C13.1109 9.84431 13.4276 9.85543 13.7276 9.86654L13.6109 9.72209L13.6943 9.30543C13.4054 9.29431 13.0998 9.2832 12.7943 9.2832C12.1665 9.2832 11.5498 9.32209 11.1887 9.44431C10.2165 9.76654 9.23317 10.761 8.5665 12.7276C8.29428 13.5276 8.62761 14.5832 9.11094 15.5554H9.72761Z"/>
<path d="M17.2056 9.87166C18.2444 9.87166 18.5944 9.94388 18.6944 9.97166C19.3111 10.1605 20.4222 11.1883 20.95 12.8883C21.1444 13.505 20.7833 14.5272 20.2444 15.5494H20.8667C21.3611 14.5494 21.7167 13.4772 21.4778 12.7217C20.9056 10.8828 19.6722 9.68832 18.8556 9.43832C18.5389 9.34388 17.8889 9.31055 17.2056 9.31055C16.9056 9.31055 16.5944 9.3161 16.3111 9.32721L16.3889 9.7161L16.25 9.88277C16.5556 9.88277 16.8833 9.87166 17.2056 9.87166Z"/>
<path d="M26.1118 16.6666V17.2222H3.88954V16.6666H26.1118ZM26.1118 16.1111H3.88954C3.58398 16.1111 3.33398 16.3611 3.33398 16.6666V17.7778H26.6673V16.6666C26.6673 16.3611 26.4173 16.1111 26.1118 16.1111Z"/>
<path d="M26.1118 16.6666V29.4444H3.88954V16.6666H26.1118ZM26.1118 16.1111H3.88954C3.58398 16.1111 3.33398 16.3611 3.33398 16.6666V29.4444C3.33398 29.75 3.58398 30 3.88954 30H26.1118C26.4173 30 26.6673 29.75 26.6673 29.4444V16.6666C26.6673 16.3611 26.4173 16.1111 26.1118 16.1111Z"/>
<path d="M15.89 19.5332C15.6066 19.4777 15.3122 19.4443 15.0122 19.4443C15.0122 19.4443 15.0066 19.4443 15.0011 19.4443C14.9955 19.4443 14.9955 19.4443 14.99 19.4443C14.69 19.4443 14.3955 19.4777 14.1122 19.5332C12.0844 19.9443 10.5566 21.7388 10.5566 23.8888C10.5566 26.0388 12.0844 27.8332 14.1122 28.2443C14.3955 28.2999 14.69 28.3332 14.99 28.3332H15.0011C15.0011 28.3332 15.0066 28.3332 15.0122 28.3332C15.3122 28.3332 15.6066 28.2999 15.89 28.2443C17.9178 27.8332 19.4455 26.0388 19.4455 23.8888C19.4455 21.7388 17.9178 19.9443 15.89 19.5332ZM18.5122 22.2221H16.9622C16.7066 21.4054 16.2678 20.6721 15.69 20.0666C16.94 20.2888 17.9844 21.111 18.5122 22.2221ZM15.0011 20.1721C15.6178 20.7277 16.09 21.4277 16.3733 22.2221H13.6233C13.9122 21.4277 14.3844 20.7277 15.0011 20.1721ZM16.6678 23.8888C16.6678 24.2721 16.6233 24.6443 16.54 24.9999H13.4622C13.3789 24.6443 13.3344 24.2721 13.3344 23.8888C13.3344 23.5054 13.3789 23.1332 13.4622 22.7777H16.54C16.6233 23.1332 16.6678 23.5054 16.6678 23.8888ZM14.3122 20.0666C13.7344 20.6721 13.2955 21.4054 13.04 22.2221H11.49C12.0178 21.111 13.0622 20.2888 14.3122 20.0666ZM11.2789 22.7777H12.8955C12.8233 23.1388 12.7844 23.5054 12.7844 23.8888C12.7844 24.2721 12.8233 24.6388 12.8955 24.9999H11.2789C11.1733 24.6499 11.1122 24.2777 11.1122 23.8888C11.1122 23.4999 11.1733 23.1277 11.2789 22.7777ZM11.49 25.5554H13.04C13.2955 26.3721 13.7344 27.1054 14.3122 27.711C13.0622 27.4888 12.0178 26.6666 11.49 25.5554ZM15.0011 27.6054C14.3844 27.0499 13.9122 26.3499 13.6289 25.5554H16.3789C16.09 26.3499 15.6178 27.0499 15.0011 27.6054ZM15.69 27.711C16.2678 27.1054 16.7066 26.3721 16.9622 25.5554H18.5122C17.9844 26.6666 16.94 27.4888 15.69 27.711ZM18.7233 24.9999H17.1122C17.1844 24.6388 17.2233 24.2721 17.2233 23.8888C17.2233 23.5054 17.1844 23.1388 17.1122 22.7777H18.7289C18.8344 23.1277 18.8955 23.4999 18.8955 23.8888C18.8955 24.2777 18.8289 24.6499 18.7233 24.9999Z"/>
<path d="M15.0009 15.5554C15.3077 15.5554 15.5564 15.3067 15.5564 14.9999C15.5564 14.6931 15.3077 14.4443 15.0009 14.4443C14.694 14.4443 14.4453 14.6931 14.4453 14.9999C14.4453 15.3067 14.694 15.5554 15.0009 15.5554Z"/>
</g>
</svg>
