<?xml version="1.0" encoding="UTF-8"?>
<svg width="19" height="23" fill="none" version="1.1" viewBox="0 0 19 23" xmlns="http://www.w3.org/2000/svg">
 <path d="m5.681 9.37c-0.177 0.177-0.177 0.4639 0 0.6409l2.11 2.11c0.177 0.1771 0.4639 0.1771 0.641 0l4.422-4.422c0.177-0.177 0.177-0.4639 0-0.641l-0.9279-0.9278c-0.177-0.1771-0.4639-0.1771-0.641 0l-3.173 3.173-0.8613-0.8613c-0.177-0.177-0.4639-0.177-0.641 0zm1.248 0.03328-0.2869 0.2869 1.469 1.469 3.781-3.781-0.2869-0.2869-3.173 3.173c-0.177 0.1771-0.4639 0.1771-0.641 0zm2.338-5.644c-2.961 0-5.366 2.405-5.366 5.366 0 2.961 2.405 5.366 5.366 5.366 2.961 0 5.366-2.406 5.366-5.366 0-2.964-2.408-5.366-5.366-5.366zm0 0.9066c-2.459 0-4.46 1.998-4.46 4.46 0 2.459 1.998 4.46 4.46 4.46 2.461 0 4.46-1.999 4.46-4.46 0-2.459-1.998-4.46-4.46-4.46zm1.173-4.047c-0.5445-0.7927-1.754-0.8589-2.344 0l-1.06 1.544c-0.1352 0.1966-0.3553 0.2623-0.5644 0.2043l-1.804-0.5019c-0.9722-0.2717-1.891 0.5213-1.794 1.504l0.181 1.864c0.00745 0.2824-0.08261 0.4328-0.3008 0.5212l-1.704 0.7754c-0.9118 0.4168-1.121 1.609-0.4073 2.308l1.337 1.311c0.1672 0.1631 0.1987 0.3951 0.1058 0.5924l-0.8074 1.689c-0.4351 0.9122 0.1855 1.953 1.173 2.03l0.7728 0.0606-3.142 4.569c-0.2309 0.334 0.06601 0.7733 0.4553 0.7009l3.497-0.6583 1.621 3.212c0.1865 0.3697 0.7282 0.3098 0.8387-0.0812l1.829-5.284 0.6463-0.4612c0.181-0.1299 0.4167-0.1327 0.6017 0l0.6463 0.4612 1.829 5.284c0.1105 0.3909 0.6522 0.451 0.8387 0.0812l1.619-3.211 3.497 0.6583c0.3897 0.0725 0.6855-0.3679 0.4553-0.7009l-3.142-4.569 0.7721-0.0605c0.9933-0.07798 1.606-1.121 1.173-2.03l-0.8074-1.689c-0.09393-0.1956-0.06114-0.4296 0.1058-0.5924l1.336-1.311c0.6775-0.6643 0.5427-1.851-0.3794-2.294-0.0093-0.00466-0.0179-0.00932-0.0279-0.01398l-1.704-0.7748c-0.2205-0.1011-0.322-0.3054-0.3008-0.5205l0.181-1.864c0.09499-0.9887-0.8243-1.775-1.794-1.504l-1.804 0.5019c-0.2144 0.05942-0.4313-0.01225-0.5645-0.2043zm3.833 13.98 2.818 4.098-2.754-0.5185c-0.205-0.0386-0.4041 0.0685-0.4906 0.2476l-1.29 2.555-1.104-3.19c0.7564 0.2654 1.627-0.1598 1.84-0.991l0.4673-1.813c0.05289-0.2057 0.2211-0.365 0.4592-0.3848zm-7.19 3.193c-0.7821 0.2763-1.633-0.187-1.841-0.9917l-0.4673-1.813c-0.05338-0.2072-0.2227-0.3653-0.4593-0.3847l-0.05325-4e-3 -2.818 4.098 2.754-0.5185c0.205-0.0386 0.404 0.0686 0.4906 0.2476l1.29 2.556zm3.669-15.12-1.06-1.544c-0.2052-0.2996-0.6431-0.3031-0.8506 0l-1.06 1.544c-0.3506 0.5099-0.9639 0.7289-1.553 0.5658l-1.804-0.5019c-0.3399-0.09485-0.6905 0.1667-0.6543 0.5485l0.1804 1.864c0.06041 0.6162-0.2742 1.179-0.8254 1.43l-1.665 0.7575c-0.3594 0.1564-0.4706 0.5784-0.1877 0.8566l1.337 1.311c0.434 0.4261 0.5553 1.062 0.2862 1.626l-0.8074 1.689c-0.1552 0.3237 0.0508 0.7071 0.4253 0.7375l1.866 0.1457c0.6059 0.04729 1.109 0.4572 1.267 1.064l0.4672 1.813c0.09119 0.3534 0.5045 0.5025 0.802 0.2895l1.524-1.088c0.5019-0.3582 1.149-0.3581 1.651 0l1.525 1.09c0.2976 0.2123 0.7109 0.0639 0.8021-0.2896l0.4672-1.813c0.1556-0.6029 0.6574-1.016 1.267-1.064l1.866-0.1458c0.3721-0.03021 0.5812-0.4099 0.4254-0.7375l-0.8074-1.689c-0.2691-0.5638-0.1478-1.2 0.2862-1.626l1.336-1.311c0.2589-0.2534 0.1859-0.6738-0.1304-0.8307l-0.0187-0.00799-1.704-0.7754c-0.5517-0.2515-0.8847-0.8124-0.8254-1.43l0.1811-1.864c0.03589-0.3805-0.3128-0.6437-0.6543-0.5485l-1.804 0.5019c-0.6024 0.1682-1.211-0.07024-1.552-0.5671z" clip-rule="evenodd" fill="currentColor" fill-rule="evenodd"/>
</svg>
