<svg width="30" height="30" viewBox="0 0 30 30" fill="none" xmlns="http://www.w3.org/2000/svg">
<rect width="30" height="30" rx="15" fill="#0866FF"/>
<path d="M24.2863 14.9991C24.2863 9.87072 20.1289 5.71335 15.0006 5.71335C9.87221 5.71335 5.71484 9.87072 5.71484 14.9991C5.71484 19.3539 8.71283 23.0079 12.7574 24.0114V17.8366H10.8426V14.9991H12.7574V13.7764C12.7574 10.6158 14.1877 9.15089 17.2906 9.15089C17.8788 9.15089 18.8939 9.26622 19.3092 9.38158V11.9539C19.09 11.9308 18.7094 11.9193 18.2364 11.9193C16.7138 11.9193 16.1255 12.496 16.1255 13.9956V14.9991H19.1586L18.6375 17.8366H16.1255V24.2168C20.7233 23.6615 24.2863 19.7466 24.2863 14.9991Z" fill="white"/>
</svg>
