<svg width="17" height="16" viewBox="0 0 17 16" fill="none" xmlns="http://www.w3.org/2000/svg">
<path d="M16.2418 7.8005C16.2418 3.52687 12.7774 0.0623951 8.50373 0.0623951C4.2301 0.0623951 0.765625 3.52687 0.765625 7.8005C0.765625 11.4295 3.26395 14.4745 6.63439 15.3107V10.1651H5.03873V7.8005H6.63439V6.78158C6.63439 4.14777 7.82631 2.92701 10.4121 2.92701C10.9023 2.92701 11.7482 3.02312 12.0942 3.11926V5.26284C11.9116 5.24362 11.5944 5.23399 11.2003 5.23399C9.93144 5.23399 9.44119 5.71462 9.44119 6.96423V7.8005H11.9687L11.5345 10.1651H9.44119V15.4819C13.2727 15.0192 16.2418 11.7568 16.2418 7.8005Z" fill="currentColor"/>
</svg>
