<?xml version="1.0" encoding="UTF-8"?>
<svg width="82.46" height="70.89" fill="none" version="1.1" viewBox="0 0 82.46 70.89" xmlns="http://www.w3.org/2000/svg">
 <path d="m8.043 0c-4.443 0-8.043 3.602-8.043 8.045v54.8c0 4.443 3.6 8.045 8.043 8.045h66.37c4.443 0 8.045-3.602 8.045-8.045v-38.71c-1e-6 -4.443-3.602-8.045-8.045-8.045h-30.46c-9.672 0-9.854-16.09-19.53-16.09zm-3.02 28.16v21.12c0 1.316-2.01 1.313-2.01 0v-21.12c0-1.313 2.01-1.316 2.01 0zm0 25.14v2.012c0 1.316-2.01 1.313-2.01 0v-2.012c0-1.315 2.01-1.318 2.01 0z" fill="currentColor"/>
</svg>
