<svg width="30" height="30" viewBox="0 0 30 30" fill="none" xmlns="http://www.w3.org/2000/svg">
<path fill-rule="evenodd" clip-rule="evenodd" d="M14.6938 28.1326C11.7336 26.4514 7.83064 23.4134 4.8072 20.0128C2.40099 17.3064 0.537184 14.352 0.104528 11.6232C-0.185566 9.78944 0.132041 7.91109 1.00892 6.27461C1.88579 4.63814 3.27381 3.33334 4.96132 2.55921C6.64882 1.78507 8.54321 1.58407 10.3556 1.98686C12.168 2.38965 13.7989 3.37412 14.9996 4.79015C16.2004 3.37412 17.8313 2.38965 19.6437 1.98686C21.4561 1.58407 23.3505 1.78507 25.038 2.55921C26.7255 3.33334 28.1135 4.63814 28.9904 6.27461C29.8673 7.91109 30.1849 9.78944 29.8948 11.6232C29.462 14.352 27.5982 17.3064 25.1921 20.0128C22.1651 23.4171 18.2565 26.4587 15.295 28.1387C15.2032 28.1908 15.0992 28.2178 14.9936 28.2167C14.888 28.2157 14.7846 28.1866 14.6938 28.1326Z" fill="currentColor"/>
</svg>
