<svg width="64" height="64" viewBox="0 0 64 64" fill="none" xmlns="http://www.w3.org/2000/svg">
<path d="M15.9304 8.01443L0.347826 15.9708L0.13913 32.0577L0 48.0866L15.4435 56.101C24 60.4567 31.4435 64.0574 32.0696 63.9993C32.6261 63.9993 40.0696 60.3986 48.5565 55.9849L64 48.0285L63.8609 32.0577L63.6522 16.0289L48.0696 8.01443C39.4435 3.60069 32.2087 0 32 0C31.7217 0 24.5565 3.60069 15.9304 8.01443ZM45.3565 9.93093C52.5913 13.5897 58.4348 16.7258 58.4348 16.9C58.4348 17.1323 57.6 17.7131 56.6261 18.2938C54.8174 19.2811 54.7478 19.223 43.8261 13.7058C37.8435 10.6278 32.4174 8.13059 31.8609 8.13059C31.3739 8.13059 26.087 10.6278 20.1739 13.6478C14.2609 16.6677 9.25217 19.1649 9.04348 19.1649C8.83478 19.1649 7.7913 18.6423 6.74783 18.0615L4.8 17.0162L18.2261 10.0471C25.6 6.21409 31.7913 3.13608 32 3.19416C32.2087 3.25223 38.1913 6.27217 45.3565 9.93093ZM42.2261 16.0289C46.9565 18.468 50.7826 20.6168 50.7826 20.8491C50.7826 21.0814 49.9478 21.6622 48.8348 22.1849C46.9565 23.1141 46.8174 23.1141 39.4435 19.3392L31.9304 15.5062L24.487 19.3392C17.113 23.1141 17.0435 23.1141 15.1652 22.1849C14.0522 21.6622 13.2174 21.0814 13.2174 20.8491C13.2174 20.0361 31.6522 11.0344 32.6261 11.3247C33.1826 11.499 37.4957 13.6478 42.2261 16.0289ZM37.287 21.3718C40.2783 22.9399 42.7826 24.4498 42.9217 24.7402C43.0609 25.0306 40.6261 26.5406 37.5652 28.1086L32 30.8962L26.4348 28.1086C23.3739 26.5406 20.9391 25.0306 21.0783 24.7983C21.2174 24.4498 30.6087 19.0488 31.7913 18.6423C31.8609 18.5842 34.2957 19.8619 37.287 21.3718ZM8.90435 22.301C11.2696 23.5206 13.2174 24.6241 13.2174 24.8564C13.2174 25.0887 11.7565 26.0179 9.87826 26.9471C8.06956 27.9344 5.91304 29.0378 5.07826 29.5024L3.47826 30.3155V25.0306C3.47826 22.0687 3.68696 19.8038 4.03478 19.9199C4.31304 20.0361 6.46957 21.1395 8.90435 22.301ZM60.5217 25.0306V30.3155L58.2957 29.0959C57.0435 28.399 54.8174 27.2955 53.3565 26.5986C51.9652 25.9017 50.8522 25.0887 50.9217 24.8564C51.1304 24.3337 59.1304 19.8619 60.0348 19.8038C60.313 19.7457 60.5217 22.1268 60.5217 25.0306ZM22.887 29.4443C31.0261 33.6258 30.6087 33.045 30.6087 39.3172C30.6087 43.4986 30.4 44.7763 29.7043 44.6021C28.0348 44.2536 6.26087 32.8708 6.4 32.4062C6.6087 31.8835 16.0696 26.8309 16.9739 26.7729C17.2522 26.7148 19.9652 27.9344 22.887 29.4443ZM52.6609 29.3863C55.4435 30.8381 57.7391 32.1739 57.7391 32.4062C57.6696 32.7546 36.313 44.0794 34.6435 44.6021C34.3652 44.7182 34.087 42.221 34.087 39.0268V33.2192L40.2087 29.967C43.5478 28.2247 46.5391 26.7148 46.887 26.7148C47.2348 26.7148 49.8087 27.9344 52.6609 29.3863ZM17.3913 41.8144C23.7217 45.0667 29.287 48.0285 29.7739 48.435C30.4 48.9577 30.6087 50.7581 30.4696 54.7653L30.2609 60.3986L16.9043 53.6038L3.47826 46.7509V40.7691C3.47826 35.2519 3.54783 34.8454 4.73043 35.368C5.35652 35.6584 11.1304 38.5622 17.3913 41.8144ZM60.3826 40.711L60.1739 46.6347L47.6522 53.1972C40.7652 56.7979 34.9217 59.7598 34.6435 59.8179C34.2957 59.8179 34.087 57.2045 34.087 54.0684V48.2608L46.8174 41.6402C53.7739 37.9234 59.7565 34.9034 60.0348 34.9034C60.313 34.8454 60.4522 37.5168 60.3826 40.711Z" fill="#00152D"/>
</svg>
