<svg width="15" height="15" viewBox="0 0 15 15" fill="none" xmlns="http://www.w3.org/2000/svg">
<g fill="currentColor">
<path d="M2.89628 1.09515C2.42972 1.27659 2.03517 1.51851 1.64061 1.91307C1.24605 2.30475 1.00413 2.70218 0.82269 3.16586C0.647011 3.61514 0.528932 4.13066 0.494372 4.88522C0.459812 5.63977 0.451172 5.88169 0.451172 7.80553C0.451172 9.72936 0.459812 9.97128 0.494372 10.7258C0.528932 11.4804 0.649891 11.9959 0.82269 12.4452C1.00413 12.9117 1.24605 13.3063 1.64061 13.7009C2.03517 14.0954 2.42972 14.3373 2.89628 14.5188C3.34556 14.6945 3.86108 14.8125 4.61564 14.8471C5.37019 14.8817 5.61211 14.8903 7.53595 14.8903C9.45978 14.8903 9.7017 14.8817 10.4563 14.8471C11.2108 14.8125 11.7263 14.6916 12.1756 14.5188C12.6422 14.3373 13.0367 14.0954 13.4313 13.7009C13.8258 13.3063 14.0678 12.9117 14.2492 12.4452C14.4249 11.9959 14.543 11.4804 14.5775 10.7258C14.6121 9.97128 14.6207 9.72936 14.6207 7.80553C14.6207 5.88169 14.6121 5.63977 14.5775 4.88522C14.543 4.13066 14.422 3.61514 14.2492 3.16586C14.0678 2.70218 13.8258 2.30475 13.4342 1.91307C13.0396 1.51851 12.645 1.27659 12.1785 1.09515C11.7292 0.919472 11.2137 0.801393 10.4591 0.766833C9.70458 0.732273 9.46266 0.723633 7.53882 0.723633C5.61499 0.723633 5.37307 0.732273 4.61852 0.766833C3.86108 0.798513 3.34556 0.919472 2.89628 1.09515ZM10.3987 2.03979C11.0899 2.07147 11.4642 2.18667 11.7148 2.28459C12.046 2.41419 12.2822 2.56683 12.5298 2.8145C12.7775 3.06218 12.9302 3.29834 13.0598 3.62954C13.1577 3.8801 13.2729 4.2545 13.3046 4.9457C13.3391 5.69161 13.3449 5.91625 13.3449 7.8084C13.3449 9.70056 13.3362 9.9252 13.3046 10.6711C13.2729 11.3623 13.1577 11.7367 13.0598 11.9873C12.9302 12.3185 12.7775 12.5546 12.5298 12.8023C12.2822 13.05 12.046 13.2026 11.7148 13.3322C11.4642 13.4301 11.0899 13.5453 10.3987 13.577C9.65274 13.6116 9.4281 13.6173 7.53595 13.6173C5.64379 13.6173 5.41915 13.6087 4.67324 13.577C3.98204 13.5453 3.60764 13.4301 3.35708 13.3322C3.02588 13.2026 2.78972 13.05 2.54204 12.8023C2.29437 12.5546 2.14173 12.3185 2.01213 11.9873C1.91421 11.7367 1.79901 11.3623 1.76733 10.6711C1.73277 9.9252 1.72701 9.70056 1.72701 7.8084C1.72701 5.91625 1.73565 5.69161 1.76733 4.9457C1.79901 4.2545 1.91421 3.8801 2.01213 3.62954C2.14173 3.29834 2.29437 3.06218 2.54204 2.8145C2.78972 2.56683 3.02588 2.41419 3.35708 2.28459C3.60764 2.18667 3.98204 2.07147 4.67324 2.03979C5.41915 2.00523 5.64379 1.99947 7.53595 1.99947C9.4281 1.99947 9.65274 2.00523 10.3987 2.03979Z"/>
<path d="M3.89853 7.8084C3.89853 9.81864 5.5286 11.4458 7.53596 11.4458C9.54331 11.4458 11.1734 9.81576 11.1734 7.8084C11.1734 5.80105 9.54619 4.17098 7.53596 4.17098C5.52572 4.17098 3.89853 5.79817 3.89853 7.8084ZM9.89755 7.8084C9.89755 9.11304 8.84059 10.17 7.53596 10.17C6.23132 10.17 5.17437 9.11304 5.17437 7.8084C5.17437 6.50377 6.23132 5.44681 7.53596 5.44681C8.84059 5.44681 9.89755 6.50377 9.89755 7.8084Z"/>
<path d="M11.3203 4.87658C11.7895 4.87658 12.1698 4.4962 12.1698 4.02698C12.1698 3.55776 11.7895 3.17738 11.3203 3.17738C10.851 3.17738 10.4707 3.55776 10.4707 4.02698C10.4707 4.4962 10.851 4.87658 11.3203 4.87658Z"/>
</g>
</svg>
