<?xml version="1.0" encoding="UTF-8"?>
<svg width="30" height="30" fill="none" version="1.1" viewBox="0 0 30 30" xmlns="http://www.w3.org/2000/svg">
 <g fill="currentColor">
  <path d="m11.21 17c-2.124 0-4.046 1.285-4.859 3.246-0.8125 1.961-0.3621 4.229 1.14 5.731 1.501 1.501 3.768 1.953 5.731 1.14 1.962-0.8128 3.246-2.734 3.246-4.859-0.0033-2.897-2.363-5.256-5.259-5.259zm-2.401 8.852c-1.451-0.9698-2.178-2.725-1.837-4.436 0.3404-1.711 1.683-3.055 3.396-3.395 1.711-0.3403 3.466 0.3863 4.436 1.838 1.132 1.695 0.9303 3.986-0.539 5.455-1.47 1.47-3.761 1.67-5.455 0.5385z"/>
  <path d="m5.516 25.04h-1.875c-0.6131 0-0.6131 0.9375 0 0.9375h1.875c0.6132 0 0.6131-0.9375 0-0.9375z"/>
  <path d="m5.516 26.34h-1.875c-0.6131 0-0.6131 0.9375 0 0.9375h1.875c0.6131 0 0.6132-0.9375 0-0.9375z"/>
  <path d="m28.06 6.403-5.327-5.325c-0.09825-0.09931-0.2087-0.1296-0.3009-0.1327-0.0112 0-0.0206-0.006562-0.0319-0.006562h-14.9c-0.9626 0.00103-1.746 0.7849-1.748 1.748v12.05h-1.567c-0.2581 0-0.4688 0.2102-0.4688 0.4688v1.065c-1.187 0.154-2.081 1.168-2.085 2.366v8.027c0.00154 1.32 1.077 2.396 2.397 2.397h14.35c0.7175-0.0028 1.397-0.3301 1.847-0.8878h6.382c0.9623-0.0021 1.745-0.7864 1.746-1.748l-0.0051-19.56c-2e-6 -0.00892 0.0066-0.0211 0.0066-0.03282-2.05e-4 -0.1934-0.12-0.3663-0.2996-0.435zm-5.191-3.865 3.832 3.832h-3.02c-0.447-4.985e-4 -0.8112-0.3647-0.8114-0.8119zm-18.21 13.14h1.401v0.5625h-1.401zm13.73 12.45h-14.35c-0.8036-1e-3 -1.459-0.6554-1.46-1.46v-8.027c0.00102-0.8039 0.6558-1.459 1.46-1.46h2.503c0.5229-0.0081 1.001-0.3029 1.244-0.7665l0.8484-1.615c0.08483-0.1628 0.254-0.266 0.4388-0.2658h4.283c0.1843-2.04e-4 0.3537 0.1022 0.4392 0.2653l0.848 1.614c0.2465 0.4717 0.7371 0.7679 1.269 0.7669h2.478c0.8039 1e-3 1.459 0.6558 1.46 1.46v8.028c-1e-3 0.8039-0.6558 1.459-1.46 1.46zm8.228-0.8878h-5.906c0.049-0.1868 0.0748-0.3789 0.0769-0.5719v-8.027c-0.0017-1.32-1.077-2.396-2.397-2.397h-2.48c-0.183 0-0.3528-0.1015-0.4388-0.2654l-0.8484-1.614c-0.2465-0.4723-0.7372-0.7684-1.269-0.7678h-4.283c-0.5317-8.14e-4 -1.022 0.295-1.268 0.7664l-0.802 1.526v-0.6797c-5.331e-4 -0.194-0.1218-0.3674-0.3023-0.435v-12.09c5.194e-4 -0.4461 0.3638-0.8095 0.81-0.81h14.43v3.683c1e-3 0.9634 0.7855 1.748 1.749 1.749h3.74v19.12c-4.15e-4 0.4449-0.3621 0.8083-0.8081 0.81z"/>
  <path d="m11.21 19.12c-1.269 0-2.418 0.7674-2.904 1.94-0.2379 0.5744-0.3002 1.206-0.1789 1.816 0.2478 1.246 1.225 2.222 2.47 2.47 0.6098 0.1213 1.242 0.059 1.816-0.1789 1.173-0.4857 1.94-1.635 1.94-2.904-0.0019-1.731-1.412-3.142-3.144-3.143zm0 5.349c-0.892 0-1.698-0.5397-2.038-1.362-0.3408-0.8235-0.1509-1.775 0.4794-2.404 1.382-1.38 3.767-0.3894 3.765 1.564-0.0023 1.214-0.9913 2.202-2.206 2.203z"/>
  <path d="m25.77 14.06v3.406c0 0.6132 0.9375 0.6132 0.9375 0v-3.406c0-0.6132-0.9375-0.6131-0.9375 0z"/>
  <path d="m25.77 19.41v1.134c0 0.6132 0.9375 0.6132 0.9375 0v-1.134c0-0.6131-0.9375-0.6131-0.9375 0z"/>
 </g>
</svg>
