<svg width="60" height="60" viewBox="0 0 60 60" fill="none" xmlns="http://www.w3.org/2000/svg">
    <circle cx="30" cy="30" r="30" fill="currentColor" />
    <path
        d="M47.6891 24.9368V18.94C47.6891 15.886 39.358 15.0669 34.4318 15.0669C29.5057 15.0669 21.1745 15.886 21.1745 18.94V24.34C17.9625 24.6969 13.4635 25.5803 13.2002 27.7216V33.929C13.2002 36.0352 17.1435 37.0766 21.2037 37.5271V42.9272C21.2037 45.9812 29.5349 46.8002 34.4611 46.8002C39.3872 46.8002 47.6891 45.9812 47.6891 42.9272C47.6891 42.9272 47.6891 36.7783 47.6891 36.708C47.3908 34.5667 42.9209 33.6833 39.7148 33.3323V28.529C43.7459 28.0843 47.6891 27.043 47.6891 24.9368ZM34.4318 27.0605C27.4112 27.0605 23.2046 25.6564 22.9296 24.9368V21.0403C25.6443 22.3976 30.9098 22.7955 34.4318 22.7955C37.9538 22.7955 43.2076 22.3742 45.934 21.0403V24.9017C45.6414 25.6681 41.4583 27.0605 34.4318 27.0605ZM34.4318 16.8221C41.353 16.8221 45.5478 18.1852 45.9223 18.94C45.5303 19.7005 41.353 21.0637 34.4318 21.0637C27.5106 21.0637 23.3158 19.7005 22.9413 18.94C23.3333 18.1852 27.5048 16.8221 34.4318 16.8221ZM21.6074 26.0601C23.3626 28.2014 30.1726 28.8157 34.4318 28.8157C35.0578 28.8157 35.7423 28.8157 36.4561 28.7689C34.6249 29.4183 31.1906 30.056 26.4283 30.056C19.5071 30.056 15.3122 28.6928 14.9378 27.9381C15.1718 27.511 17.0967 26.534 21.6074 26.0601ZM14.9261 33.929V30.0326C17.6408 31.3899 22.9062 31.7877 26.4283 31.7877C29.9503 31.7877 35.2041 31.3665 37.9304 30.0326V33.8998C37.6496 34.6487 33.4489 36.0528 26.4224 36.0528C19.3959 36.0528 15.2186 34.6487 14.9261 33.929ZM34.4318 45.0451C27.4112 45.0451 23.2046 43.6409 22.9296 42.9272V39.0307C25.6443 40.388 30.9098 40.7859 34.4318 40.7859C37.9538 40.7859 43.2076 40.3646 45.934 39.0307V42.8921C45.6414 43.6409 41.4583 45.0451 34.4318 45.0451ZM45.9223 36.9304C45.5244 37.6909 41.3471 39.0541 34.4318 39.0541C29.6578 39.0541 26.1942 38.4047 24.3689 37.7611C25.0943 37.7611 25.7906 37.8079 26.4283 37.8079C30.6875 37.8079 37.4916 37.2229 39.2527 35.0523C43.7634 35.5262 45.6824 36.5033 45.9223 36.9304Z"
        fill="#FDFEFF" />
</svg>