<svg width="84" height="94" viewBox="0 0 84 94" fill="none" xmlns="http://www.w3.org/2000/svg">
    <g clip-path="url(#clip0_935_32911)">
        <path fill-rule="evenodd" clip-rule="evenodd"
            d="M43.7662 91.9775L63.6112 64.0191C68.9398 56.5122 72.0865 47.8978 72.0865 39.6388C72.0865 32.2943 69.5701 25.2158 63.8368 19.4665C57.9692 13.6193 50.0331 10.3374 41.761 10.3374C33.4889 10.3374 25.5528 13.6193 19.6852 19.4665C13.8812 25.2861 11.4414 32.3486 11.4414 39.5745C11.4414 48.0336 14.7432 56.7385 19.9105 64.0191L39.7554 91.9775C39.9791 92.3037 40.2785 92.5704 40.6279 92.7547C40.9772 92.939 41.3661 93.0353 41.7608 93.0353C42.1556 93.0353 42.5444 92.939 42.8937 92.7547C43.2431 92.5704 43.5425 92.3037 43.7662 91.9775ZM49.2922 34.5749C51.0349 36.3223 52.1195 38.6216 52.3612 41.081C52.603 43.5404 51.9868 46.0078 50.6178 48.0627C49.2488 50.1176 47.2116 51.6329 44.8534 52.3504C42.4951 53.0679 39.9618 52.9432 37.685 51.9975C35.4082 51.0519 33.5288 49.3438 32.367 47.1643C31.2053 44.9848 30.833 42.4688 31.3138 40.0449C31.7945 37.6211 33.0985 35.4394 35.0034 33.8716C36.9084 32.3038 39.2965 31.4469 41.7609 31.4469C43.1598 31.445 44.5454 31.7204 45.8378 32.2572C47.1303 32.794 48.3043 33.5817 49.2922 34.5749ZM41.7609 27.1584C45.2145 27.1582 48.5613 28.359 51.2311 30.556C53.9008 32.7531 55.7283 35.8104 56.4022 39.2072C57.076 42.604 56.5546 46.13 54.9266 49.1845C53.2987 52.2389 50.665 54.6328 47.4743 55.9582C44.2836 57.2836 40.7333 57.4586 37.4284 56.4533C34.1235 55.4479 31.2684 53.3246 29.3497 50.4449C27.431 47.5652 26.5673 44.1075 26.9058 40.6608C27.2443 37.2141 28.7641 33.9918 31.2062 31.5428C32.5907 30.1508 34.2359 29.0468 36.0472 28.2944C37.8586 27.542 39.8003 27.1558 41.7609 27.1584Z"
            fill="#00152D" />
    </g>
    <path
        d="M29.1031 40.7114C29.8981 34.0576 35.1214 29.3369 41.7687 29.3369C48.4159 29.3369 53.6392 34.0576 54.4342 40.7114C55.3236 48.1548 49.2071 55.1481 41.7687 55.1481C34.3302 55.1481 28.2137 48.1548 29.1031 40.7114Z"
        stroke="#fff" stroke-width="4.30718" />
    <defs>
        <clipPath id="clip0_935_32911">
            <rect width="82.6979" height="82.6979" fill="white" transform="translate(0.414062 10.3374)" />
        </clipPath>
    </defs>
</svg>