<svg width="198" height="59" viewBox="0 0 198 59" fill="none" xmlns="http://www.w3.org/2000/svg">
<path d="M10.9779 41.4487C9.58194 41.4487 8.27078 41.2044 7.04437 40.7158C5.82793 40.2173 4.75607 39.4894 3.82879 38.5322C2.91147 37.575 2.19358 36.4035 1.67509 35.0175C1.15661 33.6216 0.897372 32.0263 0.897372 30.2315C0.897372 27.8784 1.33609 25.8693 2.21352 24.2042C3.09095 22.5291 4.29243 21.2478 5.81796 20.3604C7.3435 19.4631 9.06346 19.0144 10.9779 19.0144C13.6301 19.0144 15.7289 19.6326 17.2744 20.8689C18.8299 22.0954 19.8818 23.8203 20.4302 26.0438L16.7509 26.6271C16.3421 25.3508 15.6741 24.3338 14.7468 23.576C13.8195 22.8083 12.638 22.4244 11.2022 22.4244C9.75643 22.4045 8.55495 22.7185 7.59775 23.3666C6.64055 24.0147 5.91767 24.9271 5.4291 26.1036C4.9505 27.2802 4.7112 28.6561 4.7112 30.2315C4.7112 31.8069 4.9505 33.1779 5.4291 34.3445C5.9077 35.5011 6.6256 36.4035 7.5828 37.0516C8.54996 37.6997 9.75643 38.0337 11.2022 38.0536C12.289 38.0636 13.2412 37.8692 14.0588 37.4703C14.8764 37.0615 15.5445 36.4483 16.063 35.6307C16.5814 34.8031 16.9304 33.7712 17.1099 32.5348H13.311V29.7081H20.9387C20.9586 29.8676 20.9736 30.1019 20.9836 30.411C20.9935 30.7201 20.9985 30.9046 20.9985 30.9644C20.9985 32.9984 20.5947 34.8081 19.7871 36.3935C18.9894 37.9689 17.8428 39.2053 16.3471 40.1026C14.8515 41 13.0618 41.4487 10.9779 41.4487ZM24.0024 41V19.4631H32.9013C33.1107 19.4631 33.3799 19.473 33.7089 19.493C34.038 19.5029 34.3421 19.5329 34.6213 19.5827C35.8676 19.7722 36.8946 20.1859 37.7023 20.8241C38.5199 21.4622 39.1231 22.2698 39.512 23.247C39.9108 24.2142 40.1102 25.291 40.1102 26.4775C40.1102 28.2324 39.6665 29.743 38.7791 31.0093C37.8917 32.2656 36.5307 33.0433 34.6961 33.3424L33.1556 33.477H27.6068V41H24.0024ZM36.3712 41L32.1236 32.2357L35.7879 31.428L40.4542 41H36.3712ZM27.6068 30.1119H32.7517C32.9512 30.1119 33.1755 30.1019 33.4248 30.082C33.674 30.062 33.9034 30.0221 34.1128 29.9623C34.711 29.8128 35.1796 29.5485 35.5186 29.1696C35.8676 28.7908 36.1119 28.362 36.2515 27.8834C36.4011 27.4048 36.4758 26.9362 36.4758 26.4775C36.4758 26.0189 36.4011 25.5502 36.2515 25.0716C36.1119 24.5831 35.8676 24.1493 35.5186 23.7705C35.1796 23.3916 34.711 23.1273 34.1128 22.9778C33.9034 22.9179 33.674 22.8831 33.4248 22.8731C33.1755 22.8531 32.9512 22.8432 32.7517 22.8432H27.6068V30.1119ZM42.2536 41L49.0437 19.4631H54.3233L61.1134 41H57.4042L51.2423 21.6766H52.0499L45.9628 41H42.2536ZM46.0375 36.3337V32.9685H57.3444V36.3337H46.0375ZM63.8174 41V19.4631H67.4667L77.4575 34.6436V19.4631H81.1068V41H77.4575L67.4667 25.8195V41H63.8174ZM85.5869 41V19.4631H89.1913V41H85.5869Z" fill="#F6F6F6"/>
<path d="M116.666 7.41765L102.32 14.7427L102.128 29.5532L102 44.3102L116.218 51.6887C124.096 55.6988 130.949 59.0138 131.525 58.9603C132.037 58.9603 138.89 55.6453 146.704 51.5818L160.922 44.2567L160.794 29.5532L160.602 14.7962L146.255 7.41765C138.314 3.35412 131.653 0.039135 131.461 0.039135C131.205 0.039135 124.608 3.35412 116.666 7.41765ZM143.758 9.18208C150.418 12.5505 155.798 15.4378 155.798 15.5982C155.798 15.812 155.03 16.3467 154.133 16.8814C152.468 17.7903 152.404 17.7369 142.349 12.6575C136.841 9.82369 131.845 7.52459 131.333 7.52459C130.884 7.52459 126.017 9.82369 120.573 12.604C115.129 15.3843 110.518 17.6834 110.326 17.6834C110.134 17.6834 109.173 17.2022 108.212 16.6675L106.419 15.7051L118.78 9.28901C125.569 5.76016 131.269 2.92638 131.461 2.97985C131.653 3.03331 137.161 5.81363 143.758 9.18208ZM140.876 14.7962C145.231 17.0418 148.753 19.0201 148.753 19.234C148.753 19.4478 147.985 19.9825 146.96 20.4637C145.231 21.3192 145.103 21.3192 138.314 17.8438L131.397 14.315L124.544 17.8438C117.755 21.3192 117.691 21.3192 115.962 20.4637C114.937 19.9825 114.169 19.4478 114.169 19.234C114.169 18.4854 131.141 10.198 132.037 10.4653C132.55 10.6257 136.52 12.604 140.876 14.7962ZM136.328 19.7152C139.082 21.1588 141.388 22.5489 141.516 22.8163C141.644 23.0836 139.403 24.4738 136.585 25.9174L131.461 28.4838L126.337 25.9174C123.519 24.4738 121.278 23.0836 121.406 22.8698C121.534 22.5489 130.18 17.5765 131.269 17.2022C131.333 17.1487 133.574 18.325 136.328 19.7152ZM110.198 20.5707C112.375 21.6935 114.169 22.7094 114.169 22.9232C114.169 23.1371 112.824 23.9926 111.094 24.848C109.429 25.757 107.444 26.7729 106.675 27.2006L105.202 27.9492V23.0836C105.202 20.3568 105.394 18.2715 105.715 18.3785C105.971 18.4854 107.956 19.5013 110.198 20.5707ZM157.72 23.0836V27.9492L155.67 26.8263C154.517 26.1847 152.468 25.1689 151.123 24.5272C149.842 23.8856 148.817 23.1371 148.881 22.9232C149.073 22.442 156.439 18.325 157.271 18.2715C157.527 18.2181 157.72 20.4102 157.72 23.0836ZM123.071 27.1472C130.564 30.9968 130.18 30.4621 130.18 36.2366C130.18 40.0863 129.988 41.2626 129.347 41.1022C127.81 40.7814 107.764 30.3017 107.892 29.874C108.084 29.3928 116.794 24.7411 117.627 24.6876C117.883 24.6342 120.381 25.757 123.071 27.1472ZM150.482 27.0937C153.044 28.4304 155.158 29.6601 155.158 29.874C155.094 30.1948 135.432 40.621 133.895 41.1022C133.638 41.2091 133.382 38.91 133.382 35.9693V30.6225L139.018 27.6284C142.092 26.0243 144.846 24.6342 145.167 24.6342C145.487 24.6342 147.857 25.757 150.482 27.0937ZM118.011 38.5357C123.839 41.5299 128.963 44.2567 129.411 44.631C129.988 45.1122 130.18 46.7697 130.052 50.459L129.86 55.6453L117.563 49.3896L105.202 43.0805V37.5733C105.202 32.4939 105.266 32.1196 106.355 32.6008C106.931 32.8682 112.247 35.5415 118.011 38.5357ZM157.591 37.5198L157.399 42.9735L145.871 49.0153C139.531 52.3303 134.151 55.0572 133.895 55.1106C133.574 55.1106 133.382 52.7046 133.382 49.8174V44.4706L145.103 38.3753C151.507 34.9534 157.015 32.1731 157.271 32.1731C157.527 32.1196 157.655 34.5791 157.591 37.5198Z" fill="#F6F6F6"/>
<path d="M173.315 41V19.4631H176.919V41H173.315ZM186.574 41V22.8432H179.605V19.4631H197.148V22.8432H190.179V41H186.574Z" fill="#F6F6F6"/>
</svg>
