<svg width="475" height="200" viewBox="0 0 475 200" fill="none" xmlns="http://www.w3.org/2000/svg">
<path fill-rule="evenodd" clip-rule="evenodd" d="M204.598 146.906C194.013 178.927 163.033 201.273 127.721 199.42C96.7914 197.816 71.0884 178.1 60.354 151.074L69.7156 154.68L55.5906 132.599C55.4582 131.557 55.3425 130.515 55.2598 129.456L65.6633 116.671C66.4738 154.614 96.4605 186.056 134.965 188.074C165.25 189.645 192.193 172.576 204.631 146.889L204.598 146.906ZM55.4748 113.727C57.0791 100.098 62.2065 87.6437 69.8975 77.2401L74.8595 79.4399C69.666 88.7519 66.4242 99.3539 65.746 110.717L55.4748 113.727ZM74.6941 71.3685C82.0047 63.264 91.0189 56.7473 101.125 52.3477C91.5978 58.0704 83.4768 65.9103 77.3901 75.2554L74.6941 71.3685Z" fill="#EBD228"/>
<path fill-rule="evenodd" clip-rule="evenodd" d="M128.828 21.4345C138.438 21.9307 147.667 23.8659 156.318 27.0084L156.466 28.2655L151.934 31.2592L139.116 31.1599L134.65 32.4335L150.512 38.4044C144.839 37.2962 138.967 36.7173 132.963 36.7173C131.094 36.7173 129.242 36.767 127.406 36.8827L122.46 29.8202L128.828 21.418V21.4345ZM167.978 32.1689C177.24 37.0316 185.61 43.3829 192.755 50.892V56.8464L190.787 57.4914C187.892 55.0931 184.832 52.8768 181.657 50.8589L167.3 33.062L167.978 32.1854V32.1689ZM206.02 68.54C209.41 74.3455 212.206 80.548 214.323 87.0481C210.618 79.6383 205.937 72.7908 200.429 66.7041L206.02 68.54ZM103.291 41.6628C92.1429 45.5165 81.9708 51.4709 73.2709 59.0462L90.4062 39.5787L86.0562 40.5215L60.6013 50.7597L58.6662 47.0051C66.4399 39.7111 75.4376 33.7236 85.3119 29.3571L103.423 35.5926L103.291 41.6462V41.6628ZM57.5911 76.7603C50.2143 87.6601 45.1531 100.247 43.0856 113.826L30.9619 95.07C33.4098 84.4514 37.6275 74.4944 43.3006 65.5629L49.9993 68.9205L44.1607 87.2632L43.4495 92.5228L57.6076 76.7769L57.5911 76.7603ZM43.6314 144.64C47.8987 167.118 60.4194 186.668 77.9517 199.999C59.3278 189.761 44.5081 173.485 36.1224 153.82L43.5487 144.607L43.6314 144.64Z" fill="#F8F8F8"/>
<path fill-rule="evenodd" clip-rule="evenodd" d="M474.579 108.12V142.11H467.12V108.749C467.12 103.026 462.422 98.5436 456.832 98.5436C451.242 98.5436 446.544 103.257 446.544 108.947V142.11H439.085V108.947C439.085 103.307 434.536 98.5436 428.847 98.5436C423.488 98.5436 418.526 102.794 418.526 108.831V142.11H411.066V92.6389H418.526V96.2446C421.238 93.3997 425.224 91.2495 429.674 91.2495C435.562 91.2495 440.127 93.5651 443.617 98.279C447.107 93.5816 452.184 91.2495 457.709 91.2495C466.657 91.2495 474.596 98.7752 474.596 108.137L474.579 108.12ZM258.42 142.11H250.96V135.643C245.982 140.687 239.416 143.515 232.27 143.515C217.814 143.499 206.137 131.905 206.137 117.383C206.137 102.861 217.55 91.2495 232.055 91.2495C239.796 91.2495 245.982 93.9951 250.96 99.1225V92.6554H258.42V142.126V142.11ZM250.96 117.333C250.96 107.095 242.608 98.6263 232.27 98.6263C221.933 98.6263 213.514 106.946 213.514 117.383C213.514 127.819 222.115 136.139 232.27 136.139C242.426 136.139 250.96 127.803 250.96 117.349V117.333ZM405.145 121.104H360.901C362.671 129.837 370.262 136.122 379.277 136.122C386.19 136.122 391.963 132.467 395.37 126.992H403.574C399.753 136.651 390.094 143.499 379.277 143.499C364.771 143.499 353.144 131.772 353.144 117.333C353.144 102.894 364.788 91.233 379.277 91.233C396.081 91.233 407.146 105.788 405.145 121.104ZM360.901 113.644L397.652 113.678C395.899 105.027 388.291 98.6098 379.277 98.6098C370.262 98.6098 362.654 104.928 360.901 113.628V113.644ZM122.512 130.482L142.426 78.58H150.514C142.327 99.751 134.123 120.922 125.952 142.11H119.088L94.5264 78.58H102.532L122.528 130.482H122.512ZM153.855 142.11V92.6389H161.314V142.11H153.855ZM157.593 78.0342C160.223 78.0342 162.356 80.1678 162.356 82.7977C162.356 85.4275 160.223 87.5611 157.593 87.5611C154.963 87.5611 152.829 85.4275 152.829 82.7977C152.829 80.1678 154.963 78.0342 157.593 78.0342ZM167.947 92.6389H167.004V100.098H196.577L167.004 135.246V142.11H206.782V134.65H177.209L206.782 99.5029V92.6389H167.947ZM286.587 130.482L306.501 78.58H314.589C306.402 99.751 298.198 120.922 290.028 142.11H283.163L258.602 78.58H266.607L286.604 130.482H286.587ZM347.785 105.821C347.785 95.8145 337.58 91.233 329.343 91.233C321.106 91.233 310.901 96.443 310.901 105.341C310.901 115.083 320.544 119.235 329.277 120.409C334.487 121.104 341.896 122.543 341.896 127.836C341.896 133.823 334.851 136.188 329.343 136.188C323.537 136.188 316.789 133.658 316.789 126.843V125.901H309.065V126.843C309.065 138.14 319.154 143.482 329.326 143.482C339.498 143.482 349.505 137.793 349.505 128.084C349.505 118.375 339.101 113.76 329.492 112.884C324.265 112.404 318.542 109.956 318.542 105.523C318.542 100.611 325.142 98.3617 329.376 98.3617C333.61 98.3617 340.209 100.38 340.209 105.805V106.747H347.752V105.805L347.785 105.821Z" fill="#F8F8F8"/>
<path fill-rule="evenodd" clip-rule="evenodd" d="M192.59 42.2428L199.62 51.9682L211.032 48.2468L203.953 57.9391L211.032 67.6315L199.62 63.8935L192.574 73.6189L192.607 61.611L181.178 57.9226L192.607 54.2342V42.2263H192.59V42.2428ZM28.4651 88.7694L43.6818 112.289L70.7244 104.995L53.0599 126.728L68.3592 150.198L42.2263 140.109L24.6444 161.909L26.1661 133.94L0 123.95L27.0758 116.755L28.4816 88.7694H28.4651ZM50.5954 24.8429L62.6034 45.6335L86.0569 40.5557L69.9967 58.4022L82.0873 79.1432L60.1555 69.3847L44.1614 87.2808L46.659 63.4138L24.694 53.738L48.1806 48.743L50.5954 24.8594V24.8429ZM103.44 0L103.093 19.9967L83.9398 25.7856L102.861 32.2858L102.448 52.2825L114.472 36.305L133.361 42.8879L121.882 26.5134L133.973 10.5855L114.853 16.4406L103.44 0.0165394V0ZM154.383 10.9494L163.331 24.2144L178.697 19.7486L168.839 32.352L177.754 45.9808L162.802 40.0926L152.994 52.7291L153.556 36.735L138.505 31.31L153.887 26.9104L154.4 10.9163L154.383 10.9494Z" fill="#EBD228"/>
</svg>
