<svg width="81" height="80" viewBox="0 0 81 80" fill="none" xmlns="http://www.w3.org/2000/svg">
<path d="M11.3872 62.2928H30.7738L30.7072 62.4662C29.7205 65.0928 27.1605 66.8528 24.3605 66.8528H21.8272C21.0938 66.8528 20.4938 67.4528 20.4938 68.1862C20.4938 68.9195 21.0938 69.5195 21.8272 69.5195H58.8272C59.5605 69.5195 60.1605 68.9195 60.1605 68.1862C60.1605 67.4528 59.5605 66.8528 58.8272 66.8528H56.2938C53.4805 66.8528 50.9338 65.0928 49.9472 62.4528L49.8805 62.2795H69.2672C71.6938 62.2795 73.6538 60.3062 73.6538 57.8928V14.8662C73.6538 12.4395 71.6805 10.4795 69.2672 10.4795H11.3872C8.97382 10.4795 7.00049 12.4395 7.00049 14.8662V57.9062C7.00049 60.3328 8.97382 62.2928 11.3872 62.2928ZM47.4538 63.3995C47.9605 64.7328 48.7472 65.8928 49.7472 66.8528H30.9205C31.9072 65.8928 32.7072 64.7328 33.2138 63.3995L33.6272 62.2928H47.0272L47.4538 63.3995ZM69.2805 59.6262H32.6538H11.3872C10.4405 59.6262 9.66716 58.8528 9.66716 57.9062V54.6128H71.0005V57.9062C71.0005 58.8528 70.2272 59.6262 69.2805 59.6262ZM11.3872 13.1462H69.2805C70.2272 13.1462 71.0005 13.9195 71.0005 14.8662V51.9462H9.66716V14.8662C9.66716 13.9195 10.4405 13.1462 11.3872 13.1462Z" fill="#00152D"/>
<path d="M23.5199 47.8532H57.1465C57.8799 47.8532 58.4799 47.2532 58.4799 46.5199V18.5599C58.4799 17.8266 57.8799 17.2266 57.1465 17.2266H23.5199C22.7865 17.2266 22.1865 17.8266 22.1865 18.5599V46.5199C22.1865 47.2666 22.7732 47.8532 23.5199 47.8532ZM24.8532 19.8932H55.8132V45.1866H24.8532V19.8932Z" fill="#00152D"/>
<path d="M49.2404 25.0801H31.4271C30.6938 25.0801 30.0938 25.6801 30.0938 26.4134C30.0938 27.1467 30.6938 27.7467 31.4271 27.7467H49.2271C49.9604 27.7467 50.5604 27.1467 50.5604 26.4134C50.5604 25.6801 49.9738 25.0801 49.2404 25.0801Z" fill="#00152D"/>
<path d="M49.2404 31.04H31.4271C30.6938 31.04 30.0938 31.64 30.0938 32.3734C30.0938 33.1067 30.6938 33.7067 31.4271 33.7067H49.2271C49.9604 33.7067 50.5604 33.1067 50.5604 32.3734C50.5604 31.64 49.9738 31.04 49.2404 31.04Z" fill="#00152D"/>
<path d="M43.0136 37.334H37.6536C36.9203 37.334 36.3203 37.934 36.3203 38.6673C36.3203 39.4007 36.9203 40.0007 37.6536 40.0007H43.0136C43.747 40.0007 44.347 39.4007 44.347 38.6673C44.347 37.934 43.747 37.334 43.0136 37.334Z" fill="#00152D"/>
</svg>
