<svg width="30" height="30" viewBox="0 0 30 30" fill="none" xmlns="http://www.w3.org/2000/svg">
<g fill="currentColor">
<path d="M11.6969 27.5924C11.6969 27.8511 11.4913 28.0632 11.2326 28.0632C10.9738 28.0632 10.7617 27.8511 10.7617 27.5924V21.6955C10.7617 21.2978 10.934 20.9394 11.2127 20.6809C11.4848 20.4289 11.8497 20.2764 12.2542 20.2764H17.7395C18.1441 20.2764 18.5155 20.4287 18.7806 20.6809C19.0591 20.9396 19.232 21.2978 19.232 21.6955V27.5924C19.232 27.8511 19.0262 28.0632 18.7675 28.0632C18.5088 28.0632 18.2966 27.8511 18.2966 27.5924V21.6955C18.2966 21.5696 18.2434 21.4501 18.1506 21.3641C18.0447 21.2713 17.9052 21.2115 17.7395 21.2115H15.4642V27.5926C15.4642 27.8514 15.2589 28.0635 15.0002 28.0635C14.7416 28.0635 14.5293 27.8514 14.5293 27.5926V21.2113H12.2542C12.0951 21.2113 11.9556 21.2713 11.8497 21.3639C11.7569 21.4499 11.6971 21.5694 11.6971 21.6953L11.6969 27.5924Z"/>
<path d="M10.3784 13.9886H13.4426C13.7013 13.9886 13.9069 14.1943 13.9069 14.4529V17.3052C13.9069 17.5639 13.7013 17.769 13.4426 17.769H10.3784C10.1196 17.769 9.91406 17.5637 9.91406 17.3052V14.4529C9.91383 14.1943 10.1196 13.9886 10.3784 13.9886ZM10.3784 8.31738H13.4426C13.7013 8.31738 13.9069 8.52316 13.9069 8.78168V11.6338C13.9069 11.8925 13.7013 12.0981 13.4426 12.0981H10.3784C10.1196 12.0981 9.91406 11.8923 9.91406 11.6338V8.78191C9.91383 8.52316 10.1196 8.31738 10.3784 8.31738ZM12.9717 9.25301H10.8492V11.1629H12.9717V9.25301ZM18.0921 11.1629C18.3509 11.1629 18.5562 11.3753 18.5562 11.634C18.5562 11.8928 18.3506 12.0983 18.0921 12.0983H16.56C16.3012 12.0983 16.0889 11.8925 16.0889 11.634V8.78191C16.0889 8.52316 16.301 8.31762 16.56 8.31762C16.8187 8.31762 17.0243 8.5234 17.0243 8.78191V11.1629H18.0921ZM16.56 13.9886H19.6177C19.8764 13.9886 20.0885 14.1943 20.0885 14.4529V17.3052C20.0885 17.5639 19.8764 17.769 19.6177 17.769H16.56C16.3012 17.769 16.0889 17.5637 16.0889 17.3052V14.4529C16.0889 14.1943 16.3012 13.9886 16.56 13.9886ZM19.1536 14.9239H17.0245V16.8341H19.1536V14.9239ZM12.9717 14.9239H10.8492V16.8341H12.9717V14.9239Z"/>
<path d="M22.8802 14.3667C22.7477 14.5856 22.4627 14.6651 22.2436 14.5324C22.1705 14.486 22.1109 14.4265 22.0711 14.3602L18.0516 7.54805C17.8458 7.19649 17.6735 6.74555 17.5676 6.34758C17.4612 5.93625 17.4082 5.51203 17.4082 5.07398C17.4082 3.6743 17.9721 2.40773 18.8939 1.48547C19.8094 0.570469 21.0762 0 22.4824 0C23.8819 0 25.1487 0.570469 26.0707 1.4857C26.9859 2.40797 27.5566 3.67453 27.5566 5.07422C27.5566 5.51203 27.4969 5.93648 27.3909 6.34781C27.2845 6.7725 27.1186 7.17024 26.9133 7.54172L22.8802 14.3667ZM22.4824 13.2124L26.1037 7.07695C26.2697 6.77859 26.4023 6.45352 26.4886 6.11531C26.5746 5.78344 26.621 5.43867 26.621 5.07398C26.621 3.93305 26.1572 2.89852 25.4074 2.14898C24.6579 1.39969 23.6231 0.935156 22.4824 0.935156C21.3349 0.935156 20.3002 1.39945 19.5509 2.14898C18.8077 2.89852 18.3436 3.93305 18.3436 5.07398C18.3436 5.43891 18.3898 5.78344 18.4697 6.11531C18.5557 6.44672 18.6884 6.76523 18.8475 7.06359L22.4824 13.2124Z"/>
<path d="M22.4834 2.36816C23.2264 2.36816 23.9028 2.67355 24.3934 3.1641C24.8844 3.64832 25.1895 4.32473 25.1895 5.07426C25.1895 5.82355 24.8841 6.50043 24.3934 6.99121C23.9026 7.47543 23.2264 7.78035 22.4834 7.78035C21.7339 7.78035 21.0573 7.47543 20.5665 6.99121C20.0757 6.50043 19.7773 5.82379 19.7773 5.07426C19.7773 4.32473 20.0757 3.64832 20.5665 3.1641C21.0573 2.67332 21.7337 2.36816 22.4834 2.36816ZM23.7303 3.82082C23.4118 3.50254 22.9677 3.30355 22.4834 3.30355C21.9927 3.30355 21.548 3.50254 21.2298 3.82082C20.9112 4.1459 20.7125 4.58348 20.7125 5.07449C20.7125 5.56527 20.9112 6.00965 21.2298 6.32816C21.5478 6.64644 21.9927 6.84543 22.4834 6.84543C22.9677 6.84543 23.4118 6.64644 23.7303 6.32816C24.0552 6.00988 24.2541 5.56527 24.2541 5.07449C24.2541 4.58348 24.0552 4.1459 23.7303 3.82082Z"/>
<path d="M24.6446 22.784C24.3859 22.784 24.1808 22.5719 24.1808 22.3132C24.1808 22.0544 24.3861 21.8486 24.6446 21.8486H26.3427C26.9265 21.8486 27.444 22.1871 27.6694 22.7243L29.8648 28.0704C29.9577 28.2958 29.9907 28.5215 29.9642 28.747C29.9178 29.2047 29.6124 29.6289 29.2079 29.8413C29.0023 29.9475 28.7769 30.0007 28.5383 30.0007H1.46351C1.22468 30.0007 0.999212 29.9475 0.793665 29.8413C0.382337 29.6289 0.0839774 29.2047 0.0310086 28.747C0.0110867 28.5215 0.0441336 28.2958 0.130384 28.0704L2.33257 22.7243C2.55804 22.1871 3.07531 21.8486 3.65913 21.8486H5.34382C5.60257 21.8486 5.80812 22.0546 5.80812 22.3132C5.80812 22.5717 5.60257 22.784 5.34382 22.784H3.65913C3.45359 22.784 3.27429 22.8834 3.19484 23.0824L0.999446 28.4282C0.966165 28.5016 0.95304 28.5743 0.959602 28.6474C0.979524 28.8 1.0857 28.9392 1.21835 29.0123C1.29124 29.0456 1.3707 29.0655 1.46374 29.0655H28.5387C28.6316 29.0655 28.711 29.0456 28.7776 29.0123C28.917 28.9392 29.023 28.8002 29.0363 28.6474C29.0429 28.5743 29.0363 28.5016 29.003 28.4282L26.8077 23.0824C26.728 22.8832 26.5489 22.784 26.3434 22.784H24.6446Z"/>
<path d="M22.0118 16.3759C22.0118 16.1172 22.2239 15.9048 22.4827 15.9048C22.7414 15.9048 22.947 16.1172 22.947 16.3759V27.592C22.947 27.8507 22.7412 28.0628 22.4827 28.0628H7.51898C7.26023 28.0628 7.05469 27.8507 7.05469 27.592V7.09023C7.05469 6.69227 7.22719 6.33391 7.50586 6.07539C7.77117 5.8232 8.14266 5.66406 8.54719 5.66406H15.9293C16.188 5.66406 16.3936 5.87617 16.3936 6.13516C16.3936 6.39391 16.1878 6.60602 15.9293 6.60602H8.54719C8.38125 6.60602 8.24203 6.65922 8.13609 6.75859C8.04328 6.84461 7.99008 6.96414 7.99008 7.09023V27.1274H22.012L22.0118 16.3759Z"/>
</g>
</svg>
