<svg width="60" height="60" viewBox="0 0 60 60" fill="none" xmlns="http://www.w3.org/2000/svg">
    <circle cx="30" cy="30" r="30" fill="currentColor" />
    <path
        d="M30.0032 12.4966C21.6454 12.4966 14.8442 19.2978 14.8442 27.6556C14.8442 29.667 15.2455 31.5845 15.9601 33.3425C14.9917 35.1909 14.0006 36.9685 12.9926 38.7151C12.3297 39.8636 12.3786 41.1949 12.9489 42.1427C13.5197 43.0904 14.5528 43.7005 15.7047 43.7005C15.71 43.7005 15.7153 43.7005 15.7206 43.7005L17.9684 43.6734L19.4397 45.9645C20.0704 46.9438 21.1502 47.4734 22.2296 47.4449C23.3091 47.4165 24.3982 46.8044 25.0173 45.7322C25.0298 45.7097 26.6388 42.4253 26.6388 42.4253C27.7223 42.6721 28.8457 42.8125 30.0027 42.8125C31.1572 42.8125 32.2762 42.6733 33.3575 42.4276C33.3575 42.4276 34.9737 45.7091 34.9858 45.7322C35.6049 46.8045 36.694 47.4163 37.7735 47.4449C38.8529 47.4733 39.9327 46.9437 40.5634 45.9645L42.0347 43.6734L44.2826 43.7005C44.2856 43.7005 44.2886 43.7005 44.2912 43.7005C45.443 43.7005 46.4739 43.0904 47.0446 42.1427C47.6153 41.1949 47.6733 39.8636 47.0109 38.715C46.0029 36.9684 45.0118 35.1909 44.0434 33.3424C44.7581 31.5844 45.1593 29.667 45.1593 27.6555C45.1593 19.2978 38.3609 12.4966 30.0032 12.4966ZM30.0032 14.8288C37.1005 14.8288 42.8277 20.5582 42.8277 27.6556C42.8277 34.7529 37.1005 40.4801 30.0032 40.4801C22.9058 40.4801 17.1763 34.7529 17.1763 27.6556C17.1763 20.5582 22.9058 14.8288 30.0032 14.8288ZM17.2674 35.8454C18.9652 38.4754 21.4484 40.5461 24.3891 41.7236L22.9953 44.5682C22.7494 44.9942 22.4609 45.1116 22.1686 45.1193C21.8762 45.1273 21.5903 45.0024 21.3942 44.698L19.5791 41.8671C19.3609 41.5277 18.9827 41.3253 18.5793 41.3319L15.7051 41.3656C15.3988 41.3656 15.1019 41.193 14.9467 40.9352C14.7914 40.6774 14.7256 40.3865 15.015 39.8853C15.7728 38.5723 17.2674 35.8454 17.2674 35.8454ZM42.7366 35.8454C43.4801 37.222 44.2313 38.5728 44.989 39.8857C45.2783 40.387 45.2035 40.6779 45.0486 40.9356C44.8933 41.1934 44.5987 41.3661 44.2924 41.3661L41.4251 41.3323C41.0225 41.3265 40.6453 41.5289 40.4275 41.8675L38.601 44.6984C38.4049 45.0028 38.1281 45.1275 37.8357 45.1197C37.5434 45.1124 37.255 44.9945 37.009 44.5686L35.6084 41.7263C38.5458 40.571 41.0847 38.3443 42.7366 35.8454Z"
        fill="#FDFEFF" />
    <path
        d="M30.0036 19.5205C28.3158 19.5205 27.6262 21.1755 27.4368 21.5862C27.058 22.4077 26.7368 23.0525 26.5258 23.2055C26.3149 23.3585 25.5978 23.4605 24.6993 23.5654C24.2501 23.6176 22.4475 23.797 21.9367 25.3646C21.4259 26.9322 22.7752 28.139 23.1073 28.446C23.7716 29.0601 24.2842 29.5669 24.3645 29.8148C24.4449 30.0627 24.3261 30.7795 24.1481 31.6664C24.0591 32.1098 23.6672 33.8737 25.009 34.8503C26.3508 35.827 27.903 34.9079 28.2977 34.6864C29.0869 34.2444 29.7338 33.9118 29.9944 33.912C30.2551 33.9122 30.8935 34.243 31.682 34.6864C32.0763 34.9081 33.6394 35.8298 34.9775 34.8595C36.3157 33.8891 35.9267 32.1191 35.8385 31.6755C35.6621 30.7883 35.5436 30.0808 35.6243 29.833C35.7051 29.5853 36.223 29.0772 36.8883 28.4643C37.221 28.1578 38.5859 27.0092 38.059 25.3828C37.5321 23.7564 35.7546 23.6277 35.3055 23.5745C34.4071 23.4681 33.6897 23.3658 33.4789 23.2124C33.2682 23.059 32.9452 22.4084 32.5679 21.5862C32.3792 21.1751 31.6914 19.5205 30.0036 19.5205ZM30.45 22.5587C30.7633 23.2415 31.0611 24.3345 32.1102 25.0981C33.1594 25.8617 34.2839 25.8023 35.03 25.8906C35.7958 25.9813 35.9156 26.1415 35.3055 26.7515C34.7529 27.2606 33.8127 27.875 33.4106 29.1087C33.0086 30.3425 33.4034 31.3941 33.5495 32.131C33.7118 32.9467 33.651 33.1315 32.8253 32.6548C32.1747 32.2791 31.292 31.581 29.9944 31.5798C28.6968 31.5787 27.8118 32.2792 27.1612 32.6548C26.4714 33.0531 26.2602 33.0141 26.4393 32.1219C26.5871 31.3853 26.985 30.3364 26.5851 29.102C26.1851 27.8675 25.2441 27.2525 24.6925 26.7425C24.1677 26.2574 24.0372 25.9899 24.9658 25.8816C25.712 25.7945 26.8442 25.8505 27.8946 25.089C28.945 24.3272 29.2403 23.241 29.5549 22.5587C29.8524 21.9134 30.1522 21.9098 30.45 22.5587Z"
        fill="#FDFEFF" />
</svg>