<svg width="263" height="263" viewBox="0 0 263 263" fill="none" xmlns="http://www.w3.org/2000/svg">
<g clip-path="url(#clip0_12672_1573)">
<path d="M189.145 139.886H168.67C167.461 139.886 166.942 139.513 166.942 138.332V117.416C166.942 116.561 166.615 116.513 165.975 116.513H159.146C158.457 116.513 158.227 116.513 158.227 117.416V137.609C158.227 144.332 160.645 146.513 167.208 146.513H189.242C190.051 146.513 190.051 146.248 190.051 145.561V140.874C190.051 140.2 190.051 139.886 189.145 139.886ZM151.749 116.513H129.691C123.648 116.513 120.022 118.428 120.022 124.742V138.296C120.022 144.609 123.648 146.513 129.763 146.513H151.749C152.619 146.513 152.571 146.248 152.571 145.609V140.922C152.571 140.284 152.571 140.019 151.749 140.019H130.138C129.171 140.019 128.676 139.657 128.676 138.694V134.585H151.157C152.027 134.585 151.979 134.308 151.979 133.681V129.055C151.979 128.38 151.979 128.151 151.157 128.151H128.676V124.332C128.676 123.38 129.171 123.019 130.138 123.019H151.749C152.619 123.019 152.571 122.742 152.571 122.067V117.416C152.571 116.79 152.655 116.513 151.749 116.513ZM114.268 116.513H92.2224C86.1791 116.513 82.4685 118.428 82.4685 124.742V138.296C82.4685 144.609 86.2032 146.513 92.2224 146.513H114.268C115.126 146.513 115.126 146.248 115.126 145.609V140.922C115.126 140.284 115.126 140.019 114.268 140.019H92.6938C91.7389 140.019 91.2313 139.657 91.2313 138.694V134.585H113.664C114.534 134.585 114.534 134.308 114.534 133.681V129.055C114.534 128.38 114.534 128.151 113.664 128.151H91.2313V124.332C91.2313 123.38 91.7389 123.019 92.6938 123.019H114.268C115.126 123.019 115.126 122.742 115.126 122.067V117.416C115.187 116.79 115.187 116.513 114.268 116.513ZM75.9538 116.513H50.0522C43.9364 116.513 40.25 118.428 40.25 124.742V138.296C40.25 144.609 43.9364 146.513 50.0522 146.513H75.9538C76.8241 146.513 76.7757 146.248 76.7757 145.609V129.055C76.7757 128.38 76.7757 128.151 75.9538 128.151H54.5605C53.7024 128.151 53.7507 128.38 53.7507 129.055V133.706C53.7507 134.332 53.7507 134.609 54.5605 134.609H68.0492V140.019H50.4148C49.4962 140.019 48.9644 139.657 48.9644 138.694V124.332C48.9644 123.38 49.4962 123.019 50.4148 123.019H75.9538C76.8241 123.019 76.7757 122.742 76.7757 122.067V117.416C76.7757 116.79 76.8241 116.513 75.9538 116.513ZM221.622 116.513H213.729C213.253 116.469 212.774 116.537 212.329 116.711C211.884 116.884 211.486 117.159 211.167 117.513L200.289 129.38L189.471 117.513C189.141 117.159 188.735 116.885 188.282 116.711C187.83 116.538 187.343 116.47 186.86 116.513H178.98C178.351 116.513 178.061 116.838 178.847 117.645L195.937 136.38V145.657C195.937 146.513 196.215 146.513 196.904 146.513H203.733C204.374 146.513 204.652 146.513 204.652 145.657V136.38L221.791 117.645C222.528 116.838 222.298 116.513 221.622 116.513Z" fill="#161616"/>
</g>
<defs>
<clipPath id="clip0_12672_1573">
<rect width="262.5" height="262.5" fill="white"/>
</clipPath>
</defs>
</svg>
