<svg width="170" height="42" viewBox="0 0 170 42" fill="none" xmlns="http://www.w3.org/2000/svg">
<path d="M59.1688 7.1806C60.0037 7.1806 60.7955 7.34221 61.5469 7.66441C62.2973 7.98705 62.9622 8.42948 63.5412 8.99112C64.1191 9.5532 64.5786 10.215 64.9172 10.9768C65.2569 11.7391 65.4265 12.5593 65.4265 13.4384C65.4265 14.2728 65.2655 15.0652 64.9427 15.8166C64.6201 16.567 64.1782 17.2324 63.616 17.8104C63.0539 18.3889 62.3921 18.8477 61.6298 19.1875C60.8681 19.5267 60.0472 19.6963 59.1688 19.6963C58.3343 19.6963 57.5392 19.5347 56.7825 19.2125C56.0259 18.8897 55.3611 18.4451 54.7883 17.8773C54.2148 17.31 53.7588 16.6447 53.4196 15.883C53.0805 15.1207 52.9109 14.3062 52.9109 13.4384C52.9109 12.5927 53.0719 11.7947 53.3947 11.0437C53.7175 10.2927 54.1597 9.63364 54.722 9.06648C55.2835 8.49874 55.9453 8.04833 56.707 7.71436C57.4693 7.38083 58.2902 7.20267 59.1688 7.1806ZM59.1772 17.6108C59.7223 17.6108 60.2453 17.5018 60.7512 17.2846C61.2576 17.068 61.7001 16.7735 62.0836 16.3953C62.4669 16.0163 62.7704 15.5744 62.9985 15.0709C63.2264 14.5648 63.3404 14.0248 63.3404 13.4469C63.3404 12.8905 63.2321 12.3618 63.0155 11.856C62.7988 11.3495 62.5032 10.9076 62.1249 10.5236C61.7465 10.1397 61.3047 9.83678 60.8017 9.60823C60.2951 9.3807 59.7558 9.26614 59.1772 9.26614C58.6208 9.26614 58.0921 9.37504 57.5862 9.59168C57.0825 9.8089 56.6379 10.1034 56.2538 10.4816C55.8699 10.86 55.567 11.3052 55.3391 11.814C55.111 12.3261 54.997 12.8685 54.997 13.4469C54.997 14.0141 55.1053 14.5428 55.3219 15.0379C55.5392 15.5297 55.8342 15.9665 56.2119 16.3447C56.5903 16.7231 57.0327 17.0208 57.5363 17.2432C58.0423 17.4656 58.5874 17.5885 59.1772 17.6108V17.6108ZM49.7902 7.16405V9.24973H45.6184V19.6963H43.5323V9.24973H39.3606V7.16405H43.5323H49.7902ZM34.2399 7.1806V15.0572H32.1538V7.1806H34.2399ZM14.3103 7.16405L20.5853 19.6963H18.2819L16.8633 17.1592H11.7739L10.589 19.6963H8.05249L14.3103 7.16405ZM12.9253 15.0408H15.9291L14.3103 11.8197L12.9253 15.0408ZM29.392 19.6963C28.6276 19.6963 27.9763 19.5987 27.4426 19.4041C26.9111 19.2097 26.4716 18.9595 26.1267 18.6532C25.7819 18.3475 25.5204 18.0083 25.3371 17.6351C25.1535 17.2624 25.0196 16.9041 24.9368 16.5592C24.8529 16.2143 24.8029 15.9052 24.7864 15.633C24.77 15.3607 24.7616 15.1683 24.7616 15.0572V7.1806H26.8471V15.0572C26.8471 15.1792 26.8613 15.3908 26.8891 15.6913C26.9168 15.9913 27.0087 16.3004 27.1641 16.6176C27.3202 16.9347 27.5731 17.2154 27.9236 17.4605C28.2724 17.7037 28.7619 17.8262 29.392 17.8268V19.6963Z" fill="black"/>
<path fill-rule="evenodd" clip-rule="evenodd" d="M13.4306 -0.000281738H72.4938C71.7832 0.425015 71.1087 0.904328 70.4768 1.43243H13.4306C10.1329 1.43243 7.13363 2.78295 4.95786 4.9575C2.78266 7.13277 1.43217 10.1321 1.43217 13.4297C1.43217 16.7274 2.78266 19.7273 4.95786 21.9018C7.13363 24.0771 10.1329 25.4276 13.4306 25.4276H70.4774C71.1087 25.9556 71.7832 26.4349 72.4938 26.8604H13.4306C6.04403 26.8604 0 20.8169 0 13.4297C0 6.04317 6.04403 -0.000281738 13.4306 -0.000281738Z" fill="black"/>
<path fill-rule="evenodd" clip-rule="evenodd" d="M88.0712 -0.000281738H156.57C163.957 -0.000281738 170 6.04317 170 13.4297C170 20.8169 163.955 26.8604 156.57 26.8604H88.0712C88.2431 26.8592 88.4133 26.8547 88.5835 26.8479H83.6698C79.9808 26.8479 76.6258 25.3381 74.1937 22.9053C71.7615 20.4738 70.2517 17.1187 70.2517 13.4297C70.2517 9.74118 71.7615 6.38629 74.1937 3.95415C76.6258 1.52202 79.9808 0.0122054 83.6698 0.0122054H88.5835C88.4139 0.00538093 88.2431 0.000734676 88.0712 -0.000281738Z" fill="#2D8EFF"/>
<path d="M85.7112 17.8104C85.1214 18.3889 84.4487 18.8426 83.692 19.1705C82.9354 19.499 82.1459 19.6629 81.3223 19.6629C80.5106 19.6629 79.729 19.499 78.9775 19.1705C78.227 18.8426 77.5623 18.3946 76.9838 17.8274C76.4053 17.2597 75.9436 16.5983 75.5982 15.8416C75.2533 15.085 75.0808 14.2785 75.0808 13.422C75.0808 12.6097 75.2453 11.8282 75.5732 11.0767C75.9016 10.3263 76.3497 9.66152 76.9169 9.08289C77.4841 8.5044 78.146 8.04266 78.9027 7.69781C79.6593 7.35295 80.4653 7.1806 81.3223 7.1806C82.1459 7.1806 82.9354 7.34453 83.692 7.67574C84.4487 8.00694 85.1214 8.46578 85.7112 9.04659L84.3261 10.4346C83.8702 10.0897 83.3999 9.8089 82.9161 9.59168C82.4322 9.37504 81.9014 9.26614 81.3223 9.26614C80.7437 9.26614 80.2015 9.37504 79.6956 9.59168C79.189 9.8089 78.7495 10.1034 78.3769 10.4816C78.0042 10.86 77.7093 11.3023 77.4926 11.806C77.276 12.312 77.1671 12.8519 77.1671 13.4299C77.1671 14.0084 77.276 14.5479 77.4926 15.0543C77.7093 15.5574 78.0042 15.9971 78.3769 16.3697C78.7495 16.7423 79.189 17.035 79.6956 17.2517C80.2015 17.4683 80.7437 17.5766 81.3223 17.5766C81.9014 17.5766 82.4232 17.4712 82.8912 17.2597C83.3579 17.0487 83.7646 16.7702 84.1095 16.4259L85.7112 17.8104ZM111.861 7.16405L118.135 19.6963H115.832L114.414 17.1592H109.324L108.14 19.6963H105.603L111.861 7.16405ZM147.957 12.7543V17.866C147.578 18.208 147.155 18.5142 146.688 18.7814C146.287 19.0151 145.804 19.2238 145.236 19.4127C144.67 19.6022 144.034 19.6963 143.334 19.6963C142.51 19.6963 141.723 19.5324 140.972 19.2039C140.222 18.8756 139.557 18.4281 138.978 17.8608C138.4 17.293 137.938 16.6283 137.593 15.866C137.248 15.1043 137.076 14.2893 137.076 13.422C137.076 13.1968 137.088 12.9745 137.113 12.7543H139.221C139.181 12.9717 139.162 13.194 139.162 13.422C139.162 13.9444 139.273 14.4565 139.496 14.9567C139.718 15.4577 140.018 15.9052 140.396 16.3004C140.775 16.6958 141.217 17.0124 141.723 17.2517C142.229 17.4911 142.767 17.6108 143.334 17.6108C143.813 17.6108 144.272 17.5495 144.71 17.4269C145.15 17.3044 145.548 17.132 145.904 16.9097V14.84H143.334V12.7543H147.957ZM143.334 7.1806C144.324 7.1806 145.2 7.3666 145.962 7.73977C146.724 8.11192 147.389 8.62129 147.957 9.26614C147.957 9.27804 147.873 9.3444 147.706 9.46695C147.54 9.58892 147.356 9.7228 147.155 9.86742C146.922 10.0341 146.649 10.223 146.338 10.4346C145.992 10.0784 145.554 9.79482 145.02 9.58384C144.485 9.37228 143.923 9.26614 143.334 9.26614V7.1806ZM110.476 15.0408H113.479L111.861 11.8197L110.476 15.0408ZM100.914 7.1806V19.6963H98.8276V14.6062H93.5045V19.6963H91.4184V7.1806H93.5045V12.5207H98.8276V7.1806H100.914ZM132.554 19.6963H130.234L127.472 14.5898H124.911V19.6963H122.825V12.5037H124.911H126.408H128.854C129.107 12.493 129.335 12.426 129.536 12.3035C129.714 12.2065 129.873 12.0449 130.017 11.8226C130.162 11.6024 130.234 11.2859 130.234 10.877C130.234 10.4789 130.162 10.1674 130.017 9.94786C129.873 9.72497 129.714 9.56394 129.536 9.46695C129.335 9.3444 129.107 9.27804 128.854 9.26614H126.408H124.911H122.825V7.1806H128.849C129.494 7.21399 130.073 7.36951 130.584 7.648C130.796 7.76983 131.007 7.92026 131.219 8.09828C131.43 8.27644 131.616 8.49308 131.778 8.74936C131.939 9.00463 132.07 9.3081 132.17 9.65862C132.27 10.0091 132.32 10.4182 132.32 10.8854C132.32 11.6415 132.197 12.2621 131.953 12.7459C131.708 13.2297 131.433 13.608 131.127 13.8808C130.821 14.1531 130.531 14.3396 130.259 14.4395C129.986 14.5399 129.822 14.5898 129.767 14.5898L132.554 19.6963ZM161.506 9.26614H153.147V7.1806H161.506V9.26614ZM155.232 12.3868H160.572V14.4729H153.147V12.3868H155.232ZM155.232 17.6108H161.506V19.6963H153.147V17.6108H155.232Z" fill="white"/>
<path d="M12.9263 39.8307C12.4254 40.3316 11.814 40.5823 11.0925 40.5823C10.3705 40.5823 9.75904 40.3316 9.25764 39.8307C8.7568 39.3299 8.5061 38.7179 8.5061 37.9959C8.5061 37.2744 8.7568 36.663 9.25764 36.1616C9.75904 35.6607 10.3705 35.41 11.0925 35.41C11.814 35.41 12.4254 35.6607 12.9263 36.1616C13.4277 36.663 13.6779 37.2744 13.6779 37.9959C13.6779 38.7179 13.4277 39.3299 12.9263 39.8307V39.8307ZM9.83504 39.2749C10.1748 39.6146 10.5934 39.7842 11.0925 39.7842C11.5911 39.7842 12.0097 39.6146 12.3494 39.2749C12.6892 38.9351 12.8588 38.5092 12.8588 37.9959C12.8588 37.4831 12.6892 37.0566 12.3494 36.7174C12.0097 36.3777 11.5911 36.2081 11.0925 36.2081C10.5934 36.2081 10.1748 36.3777 9.83504 36.7174C9.49529 37.0566 9.3257 37.4831 9.3257 37.9959C9.3257 38.5092 9.49529 38.9351 9.83504 39.2749ZM17.3821 35.5025H18.2018V40.4893H17.3821V38.3311H15.2455V40.4893H14.4265V35.5025H15.2455V37.5472H17.3821V35.5025ZM18.7927 40.4893V39.7343C19.1064 39.7769 19.3402 39.7014 19.4949 39.5063C19.6493 39.3118 19.7258 38.9391 19.7258 38.3878V35.5025H23.0672V40.4893H22.2481V36.2863H20.5453V38.3736C20.5453 38.8104 20.4989 39.1785 20.4064 39.478C20.314 39.7769 20.1819 40.0015 20.0111 40.1512C19.8398 40.3004 19.656 40.4008 19.4586 40.4507C19.2619 40.5 19.04 40.5136 18.7927 40.4893V40.4893ZM27.3132 40.4893L26.9615 39.4853H24.8407L24.4919 40.4893H23.6014L25.4108 35.5025H26.3938L28.1963 40.4893H27.3132ZM25.1119 38.7156H26.692L25.9037 36.4644L25.1119 38.7156ZM29.6427 35.0039V34.3346H31.6375V35.0039H29.6427ZM31.7231 40.4893V37.0832L29.3568 40.4893H28.7311V35.5025H29.5502V38.8869L31.9011 35.5025H32.5422V40.4893H31.7231ZM36.4955 35.5025H37.3151V40.4893H36.4955V38.3311H34.3588V40.4893H33.5399V35.5025H34.3588V37.5472H36.4955V35.5025ZM38.3122 38.6941V37.9533H40.9485V38.6941H38.3122ZM44.7595 35.5025V36.2863H42.7647V40.4893H41.9456V35.5025H44.7595ZM48.3573 40.4893V37.0832L45.991 40.4893H45.3653V35.5025H46.1844V38.8869L48.5353 35.5025H49.1763V40.4893H48.3573ZM53.8426 35.5025V40.4893H53.0235V36.2863H50.993V40.4893H50.1739V35.5025H53.8426ZM55.6594 39.706H57.8675V40.4893H54.8403V35.5025H57.8322V36.2863H55.6594V37.5829H57.6536V38.3594H55.6594V39.706ZM60.4532 35.5025C60.9234 35.5025 61.3166 35.6596 61.6324 35.9733C61.9484 36.2863 62.1061 36.6754 62.1061 37.1411C62.1061 37.6017 61.9484 37.9902 61.6324 38.3061C61.3166 38.6215 60.9234 38.7797 60.4532 38.7797H59.4346V40.4893H58.6156V35.5025H60.4532ZM60.4532 38.0106C60.6954 38.0106 60.8951 37.9284 61.0522 37.765C61.2087 37.6011 61.287 37.3929 61.287 37.1411C61.287 36.8898 61.2087 36.6817 61.0522 36.5178C60.8951 36.3544 60.6954 36.2722 60.4532 36.2722H59.4346V38.0106H60.4532ZM67.592 35.5025V40.4893H66.773V36.9346L65.2552 39.4422H65.1553L63.6381 36.9273V40.4893H62.819V35.5025H63.7021L65.2064 37.9959L66.7145 35.5025H67.592ZM71.8375 40.4893L71.4858 39.4853H69.3656L69.0162 40.4893H68.1263L69.9357 35.5025H70.9185L72.7206 40.4893H71.8375ZM69.6361 38.7156H71.2163L70.428 36.4644L69.6361 38.7156ZM75.0931 35.5025C75.5634 35.5025 75.9565 35.6596 76.2718 35.9733C76.5882 36.2863 76.7459 36.6754 76.7459 37.1411C76.7459 37.6017 76.5882 37.9902 76.2718 38.3061C75.9565 38.6215 75.5634 38.7797 75.0931 38.7797H74.0745V40.4893H73.2554V35.5025H75.0931ZM75.0931 38.0106C75.3353 38.0106 75.5349 37.9284 75.6916 37.765C75.8487 37.6011 75.927 37.3929 75.927 37.1411C75.927 36.8898 75.8487 36.6817 75.6916 36.5178C75.5349 36.3544 75.3353 36.2722 75.0931 36.2722H74.0745V38.0106H75.0931ZM81.22 40.4893H80.2438L78.2779 38.1138V40.4893H77.4583V35.5025H78.2779V37.7406L80.173 35.5025H81.1486L79.1328 37.9318L81.22 40.4893ZM82.5733 39.706H84.782V40.4893H81.7542V35.5025H84.7463V36.2863H82.5733V37.5829H84.5681V38.3594H82.5733V39.706ZM88.7711 35.5025V36.2863H87.3679V40.4893H86.5488V36.2863H85.1382V35.5025H88.7711ZM93.6938 37.9034C94.202 38.1456 94.4561 38.5472 94.4561 39.1076C94.4561 39.5443 94.291 39.8994 93.9609 40.1728C93.6307 40.4456 93.1998 40.5823 92.6678 40.5823C91.7556 40.5823 91.1527 40.1972 90.8584 39.428L91.5634 39.0219C91.7109 39.5489 92.079 39.8126 92.6678 39.8126C92.9814 39.8126 93.2213 39.7451 93.3875 39.6095C93.5536 39.4745 93.637 39.2925 93.637 39.0645C93.637 38.8416 93.5571 38.6618 93.3983 38.5268C93.2388 38.3918 93.0142 38.3237 92.725 38.3237H92.1192V37.5829H92.561C92.8413 37.5829 93.0597 37.5189 93.2168 37.3907C93.3727 37.2619 93.4516 37.0912 93.4516 36.8779C93.4516 36.6641 93.3801 36.4939 93.2377 36.368C93.0954 36.2427 92.8912 36.1797 92.6252 36.1797C92.1311 36.1797 91.7987 36.4054 91.628 36.8564L90.9298 36.4503C91.2525 35.7571 91.8175 35.41 92.6252 35.41C93.1141 35.41 93.5111 35.5422 93.8146 35.8054C94.1186 36.0691 94.2706 36.4123 94.2706 36.8348C94.2706 37.305 94.0783 37.6612 93.6938 37.9034V37.9034ZM98.4168 40.4893L98.0651 39.4853H95.9444L95.5956 40.4893H94.7051L96.515 35.5025H97.4973L99.2999 40.4893H98.4168ZM96.2155 38.7156H97.7957L97.0073 36.4644L96.2155 38.7156ZM101.672 35.5025C102.143 35.5025 102.536 35.6596 102.851 35.9733C103.167 36.2863 103.325 36.6754 103.325 37.1411C103.325 37.6017 103.167 37.9902 102.851 38.3061C102.536 38.6215 102.143 38.7797 101.672 38.7797H100.654V40.4893H99.8348V35.5025H101.672ZM101.672 38.0106C101.915 38.0106 102.114 37.9284 102.271 37.765C102.427 37.6011 102.506 37.3929 102.506 37.1411C102.506 36.8898 102.427 36.6817 102.271 36.5178C102.114 36.3544 101.915 36.2722 101.672 36.2722H100.654V38.0106H101.672ZM107.293 35.5025V40.4893H106.474V38.6725H105.682L104.48 40.4893H103.553L104.821 38.6016C104.494 38.5018 104.224 38.3129 104.013 38.035C103.802 37.7571 103.696 37.4474 103.696 37.1059C103.696 36.659 103.852 36.2807 104.162 35.9693C104.473 35.6585 104.852 35.5025 105.299 35.5025H107.293ZM105.299 37.9391H106.474V36.2722H105.299C105.08 36.2722 104.895 36.3527 104.743 36.5143C104.591 36.6754 104.515 36.8728 104.515 37.1059C104.515 37.3385 104.591 37.5353 104.743 37.6969C104.895 37.8586 105.08 37.9391 105.299 37.9391ZM112.031 39.706H112.565V41.4438H111.746V40.4893H108.718V41.4438H107.899V39.706H108.362C108.651 39.3259 108.797 38.7536 108.797 37.9891V35.5025H112.031V39.706ZM109.259 39.706H111.212V36.2722H109.616V38.0032C109.616 38.7446 109.497 39.3118 109.259 39.706ZM116.234 35.5025H117.053V40.4893H116.234V38.3311H114.097V40.4893H113.278V35.5025H114.097V37.5472H116.234V35.5025ZM118.051 40.4893V35.5025H118.87V37.2126H119.889C120.359 37.2126 120.752 37.3702 121.067 37.6862C121.383 38.0021 121.541 38.3906 121.541 38.8512C121.541 39.3118 121.383 39.7003 121.067 40.0156C120.752 40.3316 120.359 40.4893 119.889 40.4893H118.051ZM122.025 40.4893V35.5025H122.845V40.4893H122.025ZM118.87 39.7201H119.889C120.13 39.7201 120.33 39.6385 120.487 39.4745C120.644 39.3106 120.722 39.103 120.722 38.8512C120.722 38.5994 120.644 38.3918 120.487 38.2278C120.33 38.0639 120.13 37.9823 119.889 37.9823H118.87V39.7201ZM127.511 40.4893H126.578L125.482 38.6884L124.384 40.4893H123.451L125.016 37.9221L123.543 35.5025H124.469L125.481 37.1615L126.492 35.5025H127.426L125.947 37.9261L127.511 40.4893ZM132.256 40.5823C131.505 40.5823 130.883 40.3338 130.389 39.8375C129.895 39.3418 129.648 38.7275 129.648 37.9959C129.648 37.2648 129.895 36.651 130.389 36.1548C130.883 35.6585 131.505 35.41 132.256 35.41C132.707 35.41 133.124 35.5172 133.506 35.7305C133.888 35.9443 134.186 36.2342 134.4 36.6L133.687 37.0129C133.554 36.7662 133.361 36.5705 133.107 36.4253C132.852 36.2807 132.569 36.2081 132.256 36.2081C131.724 36.2081 131.293 36.3771 130.962 36.714C130.632 37.0509 130.467 37.478 130.467 37.9959C130.467 38.5137 130.632 38.9408 130.962 39.2789C131.293 39.6158 131.724 39.7842 132.256 39.7842C132.569 39.7842 132.853 39.7122 133.11 39.567C133.367 39.4224 133.559 39.2261 133.687 38.9794L134.4 39.3849C134.191 39.7513 133.895 40.0417 133.513 40.2578C133.131 40.4739 132.711 40.5823 132.256 40.5823V40.5823ZM138.282 35.5025V36.2863H136.879V40.4893H136.06V36.2863H134.649V35.5025H138.282ZM141.78 40.4893L141.428 39.4853H139.308L138.959 40.4893H138.069L139.878 35.5025H140.861L142.663 40.4893H141.78ZM139.579 38.7156H141.159L140.371 36.4644L139.579 38.7156ZM146.155 35.5025H146.974V40.4893H146.155V38.3311H144.017V40.4893H143.198V35.5025H144.017V37.5472H146.155V35.5025ZM151.639 39.706H152.173V41.4438H151.355V40.4893H147.971V35.5025H148.79V39.706H150.82V35.5025H151.639V39.706ZM155.878 40.4893V37.0832L153.512 40.4893H152.886V35.5025H153.705V38.8869L156.058 35.5025H156.698V40.4893H155.878ZM158.607 35.0039V34.3346H160.601V35.0039H158.607ZM160.687 40.4893V37.0832L158.321 40.4893H157.695V35.5025H158.514V38.8869L160.865 35.5025H161.506V40.4893H160.687" fill="black"/>
</svg>
