<svg width="263" height="263" viewBox="0 0 263 263" fill="none" xmlns="http://www.w3.org/2000/svg">
<g clip-path="url(#clip0_12672_1585)">
<g clip-path="url(#clip1_12672_1585)">
<mask id="mask0_12672_1585" style="mask-type:luminance" maskUnits="userSpaceOnUse" x="41" y="86" width="177" height="91">
<path d="M217.25 86.75H41.25V176.75H217.25V86.75Z" fill="white"/>
</mask>
<g mask="url(#mask0_12672_1585)">
<path d="M89.1337 131.476C89.1818 139.572 88.0279 147.521 84.951 155.096C83.4606 158.793 81.5375 162.297 78.8933 165.327C77.3548 167.126 75.576 168.736 73.5087 169.919C68.7491 172.618 63.9414 172.618 59.1818 169.872C56.6337 168.404 54.6145 166.416 52.8837 164.143C49.5616 159.83 47.451 154.959 45.9606 149.798C43.9895 142.886 43.2635 135.879 43.5568 128.683C43.8933 121.96 44.9943 115.379 47.3548 109.083C48.9414 104.917 50.9606 100.987 53.9414 97.5783C55.6722 95.5899 57.6385 93.8382 60.0423 92.6546C64.2298 90.5715 68.4606 90.5241 72.6433 92.6546C75.576 94.1223 77.8356 96.2527 79.802 98.8093C82.9798 102.928 85.0471 107.568 86.5375 112.492C88.076 117.557 88.8933 122.718 89.1337 128.02C89.1818 129.109 89.1337 130.293 89.1337 131.476ZM45.2827 131.192C45.2827 136.921 45.8597 142.081 47.1625 147.194C48.4606 152.307 50.3356 157.136 53.4125 161.487C55.1914 164.001 57.3068 166.179 59.9991 167.741C64.326 170.156 68.6529 170.156 72.8837 167.647C74.0856 166.937 75.2347 166.037 76.2491 165.09C79.5183 162.013 81.6818 158.273 83.3164 154.201C85.6721 148.425 86.8741 142.413 87.3068 136.211C87.7875 129.156 87.1625 122.244 85.3837 115.427C84.0856 110.456 82.1145 105.769 79.0808 101.65C77.3981 99.3774 75.475 97.389 73.0279 95.9686C68.6529 93.4121 64.2298 93.4121 59.8548 95.9213C58.3164 96.8208 56.9702 97.9571 55.7683 99.2353C52.9798 102.166 51.0039 105.627 49.4702 109.32C46.4895 116.516 45.3356 123.991 45.2827 131.192Z" fill="#161616"/>
<path d="M141.428 121.899C141.86 121.899 142.149 121.899 142.437 121.899C149.601 121.899 156.812 121.899 163.976 121.899C165.995 121.899 167.774 122.467 169.216 123.887C172.726 127.296 171.716 133.024 167.293 135.108C166.957 135.25 166.62 135.392 166.139 135.628C167.63 137.617 169.072 139.51 170.659 141.546C170.322 141.594 170.082 141.688 169.841 141.688C168.735 141.688 167.63 141.641 166.476 141.688C165.851 141.736 165.466 141.499 165.13 141.025C164.024 139.51 162.822 137.995 161.668 136.48C161.284 135.96 160.899 135.77 160.226 135.77C156.716 135.818 153.255 135.77 149.745 135.77C149.312 135.77 148.928 135.77 148.399 135.77C148.399 134.445 148.399 133.166 148.399 131.746C148.784 131.746 149.216 131.699 149.601 131.699C154.409 131.699 159.216 131.699 164.024 131.699C165.659 131.699 166.812 130.847 167.149 129.379C167.534 127.769 166.284 126.112 164.601 125.97C164.312 125.97 164.072 125.97 163.784 125.97C158.062 125.97 152.341 125.97 146.62 125.97C146.235 125.97 145.851 126.018 145.418 126.018C145.418 131.225 145.418 136.386 145.418 141.594C144.024 141.594 142.774 141.594 141.428 141.594C141.428 135.013 141.428 128.527 141.428 121.899Z" fill="#161616"/>
<path d="M116.476 121.899C118.687 121.899 120.947 121.851 123.159 121.899C128.255 122.041 132.485 126.302 132.678 131.32C132.87 136.67 128.639 141.594 122.582 141.594C118.447 141.641 114.264 141.641 110.13 141.594C104.697 141.546 100.322 137.285 100.178 131.935C100.082 126.964 103.495 123.13 107.822 122.135C108.735 121.899 109.697 121.899 110.659 121.851C112.63 121.851 114.553 121.899 116.476 121.899ZM116.476 125.923C114.457 125.923 112.389 125.923 110.37 125.923C109.841 125.923 109.264 125.923 108.784 126.065C105.466 126.917 104.072 129.9 104.312 132.267C104.649 135.297 107.149 137.522 110.226 137.569C114.312 137.569 118.447 137.569 122.534 137.569C125.947 137.569 128.543 135.013 128.543 131.699C128.543 128.337 125.562 125.781 122.582 125.923C120.562 126.018 118.543 125.923 116.476 125.923Z" fill="#161616"/>
<path d="M214.503 141.641C212.917 141.641 211.474 141.688 210.032 141.594C209.792 141.594 209.455 141.262 209.311 140.978C208.494 139.558 207.724 138.138 206.907 136.717C206.715 136.386 206.523 136.054 206.33 135.676C200.321 135.676 194.359 135.676 188.157 135.676C188.926 134.255 189.648 132.977 190.369 131.652C194.888 131.652 199.407 131.652 204.167 131.652C203.253 130.089 202.484 128.622 201.571 127.343C200.898 126.396 199.792 125.923 198.542 125.923C196.715 125.923 194.84 125.97 193.013 125.923C191.09 125.876 189.744 126.775 188.83 128.385C187.34 131.131 185.801 133.877 184.263 136.67C183.494 138.043 182.676 139.463 181.955 140.883C181.667 141.499 181.282 141.688 180.609 141.641C179.359 141.594 178.109 141.641 176.715 141.641C176.859 141.262 176.955 140.978 177.099 140.741C179.84 135.77 182.532 130.847 185.273 125.923C186.715 123.319 188.974 121.946 192.003 121.946C194.407 121.946 196.859 121.899 199.263 121.946C202.099 121.993 204.311 123.272 205.657 125.686C208.542 130.752 211.33 135.912 214.119 141.026C214.311 141.12 214.407 141.31 214.503 141.641Z" fill="#161616"/>
<path d="M85.7202 130.861C85.7202 138.294 84.7106 145.017 82.1625 151.408C80.7682 154.911 78.9894 158.225 76.3452 160.971C75.2346 162.108 73.9894 163.196 72.6433 164.049C68.4606 166.652 64.1817 166.605 59.9509 164.049C57.6384 162.628 55.8163 160.687 54.2779 158.462C51.4894 154.438 49.7106 149.988 48.6048 145.301C46.1048 134.554 46.3452 123.901 49.8548 113.438C51.249 109.177 53.2683 105.243 56.3933 101.929C57.3548 100.94 58.4606 99.9928 59.6144 99.188C63.9894 96.2054 68.9413 96.3 73.2682 99.2827C75.5279 100.798 77.2586 102.786 78.749 105.059C81.4413 109.083 83.0759 113.533 84.1817 118.22C85.2875 122.571 85.7682 126.979 85.7202 130.861ZM77.3981 121.96C77.4509 119.404 77.1144 116.326 76.3932 113.296C75.6721 110.172 74.6144 107.189 72.7394 104.533C71.8259 103.26 70.7682 102.123 69.374 101.318C67.3548 100.182 65.2394 100.135 63.2682 101.366C62.3548 101.929 61.5375 102.639 60.8644 103.449C58.9894 105.532 57.8356 108.089 57.0183 110.74C54.8548 117.837 54.7586 125.038 56.4413 132.234C57.1577 135.311 58.3163 138.199 60.2394 140.803C61.0086 141.844 61.9221 142.791 63.0279 143.454C65.2394 144.827 67.4509 144.827 69.6144 143.407C70.5759 142.744 71.4413 141.892 72.2106 140.992C73.4606 139.525 74.2731 137.82 74.9942 136.069C76.7298 131.713 77.3981 127.168 77.3981 121.96ZM60.5231 155.669C60.5231 158.841 63.1721 161.445 66.3932 161.445C69.6144 161.445 72.2586 158.841 72.2586 155.669C72.2586 153.065 70.2875 149.888 66.3932 149.888C62.7394 149.888 60.5759 152.781 60.5231 155.669Z" fill="#161616"/>
</g>
</g>
</g>
<defs>
<clipPath id="clip0_12672_1585">
<rect width="262.5" height="262.5" fill="white"/>
</clipPath>
<clipPath id="clip1_12672_1585">
<rect width="180" height="90" fill="white" transform="translate(41.25 86.5)"/>
</clipPath>
</defs>
</svg>
