<svg width="112" height="55" viewBox="0 0 112 55" fill="none" xmlns="http://www.w3.org/2000/svg">
<path fill-rule="evenodd" clip-rule="evenodd" d="M53.4629 31.9996H57.9506V19.467H62.1647V31.9996H66.5019C66.6661 31.9996 66.7071 31.946 66.7071 31.7984V15.6562H53.4629V31.9996ZM71.66 38.4941H72.0568C72.2073 38.4941 72.262 38.4404 72.262 38.2928V35.797H71.66V38.4941ZM79.4861 36.1325C79.4861 36.4008 79.6914 36.3203 80.225 36.3203V38.4941H80.7586V36.3203C81.5795 36.3203 81.4974 36.4143 81.4974 35.797H79.4861V36.1325ZM77.1465 36.7229V37.6353C77.1465 38.6685 79.0483 38.8832 79.1578 37.6353H78.5421C78.5147 37.9842 78.2411 38.0647 77.9948 37.9842C77.5296 37.8366 77.5296 36.2532 78.1453 36.2532C78.4326 36.2532 78.5147 36.4813 78.6105 36.6558H79.1578C79.0757 35.7299 77.9401 35.5287 77.3791 36.0922C77.2149 36.2532 77.1465 36.4277 77.1465 36.7229ZM53.3945 36.6558H53.9281C54.0513 36.1191 54.7354 36.1191 54.7354 36.5887C54.7354 37.2328 53.9965 36.3337 53.9965 37.3133C54.4207 37.3133 54.6122 37.2999 54.7354 37.5011C55.009 37.9574 54.106 38.3733 53.9281 37.6353H53.3945C53.4219 38.8027 55.3374 38.7759 55.3374 37.6353C55.3374 37.3401 55.1732 37.2328 54.9953 37.112C55.1732 36.8571 55.4058 36.7631 55.2826 36.3203C55.0364 35.5287 53.4219 35.5823 53.3945 36.6558ZM70.7844 37.9037C70.3602 37.9976 70.5107 37.9574 69.9908 37.9574V37.3133C70.5107 37.3133 70.3602 37.273 70.7844 37.367C70.8254 37.5011 70.9212 37.6219 70.7844 37.9037ZM69.4572 38.4941C70.5107 38.4941 71.3864 38.6819 71.3864 37.5011C71.3864 36.7631 70.4423 36.7766 69.9908 36.7766V35.797H69.4572V38.4941ZM59.9482 36.9107C59.5241 37.0181 59.6609 36.9778 59.1547 36.9778V36.3203C59.5241 36.3203 60.2903 36.1861 59.9482 36.9107ZM58.6074 38.4941H59.1547V37.5011H59.6199C60.906 37.5011 60.906 35.797 59.6883 35.797H58.6074V38.4941ZM82.7014 36.7229C82.8793 36.8436 83.0024 37.2999 83.0298 37.5682H82.4278C82.5099 37.2328 82.6741 37.0583 82.7014 36.7229ZM81.5658 38.4941H82.0994C82.1678 38.3465 82.2089 38.2257 82.2226 38.0245H83.235L83.3718 38.4807L83.9739 38.4941L83.2077 36.4813C83.1256 36.2532 83.0161 35.9983 82.9614 35.797H82.4962C82.4415 36.0385 82.3731 36.213 82.2773 36.4411L81.7847 37.7829C81.689 38.011 81.5795 38.2257 81.5658 38.4941ZM57.0066 36.7229C57.0339 37.0852 57.1981 37.1791 57.2118 37.5682H56.6782C56.6782 37.2462 56.815 36.8571 57.0066 36.7229ZM55.7342 38.4941H56.3362C56.3635 38.2928 56.4046 38.1721 56.473 38.0245H57.4034L57.5539 38.4807L58.1422 38.4941C58.0875 38.2257 58.0054 38.0781 57.9096 37.8098L57.1434 35.797H56.6782C56.6509 36.052 56.0899 37.4609 55.9668 37.7963C55.871 38.0245 55.7889 38.266 55.7342 38.4941ZM73.0009 38.4941H74.8069V37.9574H73.5345V37.367H74.6017V36.8436H73.5345V36.3203C74.9711 36.3203 74.8069 36.4545 74.8069 35.797H73.0009V38.4941ZM84.439 38.4941H84.9726V37.367H85.8346V38.4941H86.4366V35.797H85.8346V36.8436H84.9726V35.797H84.439V38.4941ZM66.6387 38.4941H67.2407V37.367H68.1164V38.4941H68.65V35.797H68.1164V36.8436H67.2407V35.797H66.6387V38.4941ZM61.6311 36.7229C61.6311 36.3472 61.85 36.2532 62.2331 36.2532H62.4931V36.9778H61.9595C61.8227 36.9778 61.6311 36.79 61.6311 36.7229ZM61.0838 36.5216C61.0838 36.8571 61.1112 37.2059 61.4943 37.3133C61.4532 37.7561 61.0565 38.0379 61.0154 38.4941H61.6311C61.7132 38.3331 62.0142 37.689 62.0279 37.5011H62.4931V38.4941H63.0267V35.797C62.3152 35.797 61.0838 35.636 61.0838 36.5216ZM92.9356 38.4941H93.2639C93.606 38.4941 94.1533 37.0718 94.468 36.8436V38.4941H95.0016V35.797H94.468L93.4692 37.434V35.797H92.9356V38.4941ZM90.0487 38.4941H90.596C90.6507 38.2391 90.938 37.8903 91.0748 37.6622L91.5947 36.8436V38.4941H92.1283V35.797C91.3895 35.797 91.5126 36.052 90.8149 37.1388L90.6507 37.367V35.797H90.0487V38.4941ZM87.1754 38.4941H88.9815V39.0845H89.5151V37.9574H89.1867V35.797H88.6531V37.9574H87.7775V35.797H87.1754V38.4941ZM64.6412 37.0449V36.3203H65.2432V37.9574H64.4359C64.5727 37.7024 64.6412 37.434 64.6412 37.0449ZM64.0939 36.9107C64.0939 37.1925 64.0391 37.3804 63.9707 37.5816C63.875 37.9305 63.9434 37.9574 63.5603 37.9574V39.0845H64.0939V38.4941H65.5715V39.0845H66.1051V37.9574H65.7768V35.797H64.0939V36.9107ZM68.2532 23.8548C68.2532 25.1429 68.4584 26.27 68.7731 27.2093C69.6214 29.732 71.3043 31.1811 73.7534 31.9728C75.5184 32.5364 78.0495 32.3083 79.664 31.3824C80.4986 30.8859 81.1554 30.2553 81.7574 29.5709C81.5248 29.2221 79.4725 26.847 79.2125 26.686C78.8705 27.3167 77.5296 28.323 76.5445 28.323C75.2584 28.323 74.4512 28.2023 73.6302 26.9812C72.1115 24.7404 72.6999 19.2657 76.2025 19.2657C76.9139 19.2657 77.4065 19.467 77.858 19.7488C78.4463 20.1513 78.8705 20.5673 79.0894 20.7149L80.2934 19.2657C80.526 18.9571 81.4153 18.0446 81.4974 17.7629C81.1417 17.2395 79.8692 16.3808 79.3083 16.099C76.7497 14.8243 73.5755 15.2402 71.5095 16.8236C70.7981 17.3871 70.0182 18.1922 69.5667 18.9839C69.293 19.4804 69.1152 19.8024 68.8826 20.3526C68.5132 21.2784 68.2532 22.5934 68.2532 23.8548ZM81.4974 23.3985C81.4974 25.0087 81.5111 26.0688 82.1268 27.5716C82.4825 28.4438 82.9203 29.2086 83.5497 29.9064C84.5622 31.047 86.6418 32.2546 88.7899 32.2546C90.3497 32.2546 91.5263 32.1875 92.8535 31.3958C93.0998 31.2482 93.2366 31.1677 93.4555 31.0067L94.5227 30.0808C94.6732 29.9198 94.8921 29.6917 94.9332 29.5038C94.7279 29.1952 92.9082 27.2496 92.5251 26.686C92.0189 27.0081 91.1432 28.323 89.7203 28.323C88.3521 28.323 87.5312 28.1352 86.7239 26.8068C85.4789 24.7404 85.7525 19.2657 89.5151 19.2657C90.897 19.2657 91.6495 20.2587 92.3336 20.7149L92.9082 19.9769C93.1271 19.7353 93.305 19.4938 93.5239 19.2523C93.948 18.7692 94.3175 18.2996 94.7416 17.8165C94.5227 17.5079 94.0712 17.1188 93.7565 16.8907C93.5376 16.7297 93.4008 16.6089 93.1682 16.4747C90.8696 15.0926 88.6531 14.945 86.0946 16.0319C85.6567 16.2198 85.1779 16.5015 84.8221 16.7565C83.5771 17.6555 82.8382 18.7156 82.2089 20.0976C81.8395 20.8893 81.4974 22.2714 81.4974 23.3985Z" fill="#294256"/>
<path d="M31.3239 14.7437C30.544 14.7437 29.8599 14.9316 29.039 14.9316C29.1074 14.6498 30.0104 13.1738 30.1746 12.9054C30.3798 12.5565 30.544 12.2479 30.7492 11.8856C31.0502 11.4025 31.1323 11.0671 31.3923 11C31.4607 11.3355 33.4993 14.5693 33.5951 14.9316C32.7742 14.9316 32.1037 14.7437 31.3239 14.7437Z" fill="#DD1D4C"/>
<path d="M26.9046 18.6082C26.973 18.3666 28.437 16.005 28.5054 15.7232C29.4768 15.7232 30.4209 15.4549 31.3923 15.4549C31.6933 15.4549 32.1858 15.5488 32.4732 15.5756C32.8836 15.6293 33.1436 15.6293 33.5677 15.683C34.1834 15.7635 34.0603 15.683 34.3065 16.1392C34.4297 16.3539 34.676 16.6893 34.7307 16.904C34.4023 16.904 33.8003 16.8235 33.4583 16.7699C32.7468 16.6759 33.1846 16.4478 32.4595 16.4478C32.5005 16.9309 32.5689 17.2798 32.911 17.3737C33.1436 17.4542 33.7729 17.4676 34.115 17.5079L35.0591 17.6286C35.3053 17.7226 35.5379 18.2459 35.7295 18.6082C34.6349 18.6082 31.9532 18.1654 31.3239 18.1654L29.1074 18.4069C28.3685 18.474 27.6571 18.6082 26.9046 18.6082Z" fill="#DD1D4C"/>
<path d="M24.6334 24.1231C24.2229 24.1231 24.0587 24.056 23.7577 24.056C23.8124 23.8547 24.0587 23.4924 24.1818 23.2911L26.2342 19.7219C26.4394 19.3059 26.4667 19.4133 26.9867 19.3462L30.0651 19.0241C32.4321 18.7289 34.2381 19.3998 36.2083 19.3998C36.3999 19.7621 37.1798 20.9161 37.2071 21.3052C36.5778 21.1576 35.5516 21.265 34.9222 21.1845C33.6498 21.01 34.6486 20.5136 33.253 20.5136C33.513 21.587 33.2941 22.164 34.7307 22.1506H37.8091L38.8763 24.056C38.5753 24.056 38.3564 24.1231 37.946 24.1231C37.5492 24.1231 37.2755 24.1231 36.9882 24.1633L35.1411 24.2573C33.814 24.2573 32.651 24.378 31.3239 24.378C29.983 24.378 28.8201 24.2573 27.5066 24.2573C27.0961 24.2573 26.9867 24.1902 26.5762 24.1902L24.6334 24.1231Z" fill="#DD1D4C"/>
<path d="M21.2813 39.6078L16 37.5682C16.0274 37.273 17.6966 34.5356 17.9155 34.1331C18.066 33.8647 18.4901 33.2207 18.5449 32.9791C18.8185 32.9791 19.2016 33.0999 19.4205 33.167C19.6941 33.2475 19.9404 33.3012 20.2141 33.3683L29.7504 35.8909C30.0788 35.9848 31.0913 36.2532 31.3923 36.2532C31.6659 36.2532 35.579 35.0858 36.0715 35.0724C36.0715 35.3407 36.0442 35.2334 36.1399 35.4078C37.0019 35.2066 37.8912 34.9248 38.7395 34.6833C39.1773 34.5625 39.5878 34.4417 40.0393 34.321C42.0232 33.7574 41.0107 34.0123 41.2981 33.6903L42.42 33.3683C42.8715 33.2609 43.5693 33.0194 44.0345 32.9791C44.2397 33.3548 44.4723 33.7708 44.7049 34.1465C44.9375 34.5222 45.1427 34.9114 45.3616 35.2737C45.5121 35.5286 46.5793 37.3266 46.634 37.5682C46.4151 37.6219 46.1415 37.756 45.9089 37.8365C45.6763 37.9305 45.4574 38.0244 45.1974 38.1183C44.7186 38.3196 44.185 38.4672 43.7608 38.6819C43.6514 38.5343 43.6787 38.6148 43.624 38.4269L38.0144 40.4665C37.7955 40.547 37.5081 40.6946 37.2071 40.7215C37.2071 40.9764 37.2208 40.9898 37.2755 41.1777L31.9396 43.2307C31.1597 43.5393 31.3649 43.4856 30.5987 43.2039L26.6036 41.6608C24.8112 40.963 23.0599 40.2921 21.2813 39.6078Z" fill="#DD1D4C"/>
<path d="M25.3038 33.9587C23.2925 33.4756 20.9666 32.7644 19.01 32.3216C19.0785 32.0399 19.3931 31.5836 19.5436 31.3287L23.2925 24.7806L26.371 24.9013C26.7951 24.9013 26.9456 24.9684 27.3014 24.9818C30.6124 25.0758 31.2144 25.1429 34.4023 24.9684C34.717 24.955 35.0727 24.9953 35.4011 24.9684C35.7432 24.955 35.9621 24.9013 36.3999 24.9147C36.8104 24.9147 37.043 24.8879 37.344 24.8477L39.3415 24.7806C39.4099 25.0623 39.7383 25.5186 39.8751 25.7601C40.0667 26.0821 40.2035 26.3773 40.4087 26.686C40.7918 27.3166 41.1202 27.9473 41.4896 28.5779L43.1178 31.3824C43.2409 31.6105 43.5693 32.1204 43.624 32.3216L40.8876 33.0462C40.3814 32.1069 39.9299 31.1677 39.4373 30.2015C38.9448 29.222 38.5206 28.2693 38.0144 27.33C37.7681 27.33 37.4397 27.3837 37.1524 27.4105C36.3041 27.5045 35.4285 27.6655 34.5939 27.6655C34.6075 28.1754 35.8663 33.7171 35.8663 34.3612L31.6386 35.4615C31.2418 35.5689 30.9271 35.4481 30.5714 35.3542L25.3038 33.9587Z" fill="#DD1D4C"/>
</svg>
