<svg width="45" height="60" viewBox="0 0 45 60" fill="none" xmlns="http://www.w3.org/2000/svg">
<path d="M36 60H9C6.61305 60 4.32387 59.0518 2.63604 57.364C0.948212 55.6761 0 53.3869 0 51V9C0 6.61305 0.948212 4.32387 2.63604 2.63604C4.32387 0.948212 6.61305 0 9 0H28.77C29.557 0.00331386 30.3112 0.315767 30.87 0.87L44.13 14.13C44.6842 14.6888 44.9967 15.443 45 16.23V51C45 53.3869 44.0518 55.6761 42.364 57.364C40.6761 59.0518 38.3869 60 36 60Z" fill="currentColor"/>
<path d="M42.9001 17.22H32.1001C30.9066 17.22 29.762 16.7459 28.9181 15.902C28.0742 15.0581 27.6001 13.9135 27.6001 12.72V1.92C27.5988 1.59271 27.6949 1.27242 27.8761 0.99987C28.0573 0.72732 28.3155 0.51482 28.6178 0.389394C28.9201 0.263968 29.2529 0.231283 29.5738 0.295494C29.8947 0.359706 30.1893 0.517914 30.4201 0.749999L44.0701 14.4C44.3022 14.6308 44.4604 14.9254 44.5246 15.2463C44.5888 15.5672 44.5561 15.9 44.4307 16.2023C44.3053 16.5046 44.0928 16.7628 43.8202 16.944C43.5477 17.1252 43.2274 17.2213 42.9001 17.22Z" fill="#FFFFFF" fill-opacity="0.4"/>
<path d="M10.17 51.3901C9.96206 51.4203 9.74996 51.4015 9.55055 51.3353C9.35115 51.2691 9.16995 51.1572 9.02138 51.0087C8.87281 50.8601 8.76097 50.6789 8.69476 50.4795C8.62855 50.2801 8.6098 50.068 8.63999 49.8601V41.0701C8.61085 40.865 8.62929 40.6559 8.6939 40.4591C8.75851 40.2623 8.86754 40.083 9.01256 39.935C9.15759 39.7871 9.33471 39.6746 9.53021 39.6061C9.72572 39.5376 9.93436 39.515 10.14 39.5401C10.3245 39.5193 10.5113 39.5368 10.6888 39.5915C10.8662 39.6462 11.0304 39.737 11.1712 39.858C11.312 39.9791 11.4263 40.1279 11.507 40.2952C11.5876 40.4624 11.6329 40.6445 11.64 40.8301C11.8819 40.4088 12.2488 40.0733 12.69 39.8701C13.1623 39.6251 13.688 39.5014 14.22 39.5101C14.8987 39.5006 15.5657 39.6882 16.14 40.0501C16.706 40.4279 17.1532 40.9584 17.43 41.5801C17.7477 42.3246 17.9115 43.1256 17.9115 43.9351C17.9115 44.7445 17.7477 45.5456 17.43 46.2901C17.021 47.1236 16.3057 47.7669 15.4336 48.0855C14.5615 48.4042 13.6 48.3736 12.75 48.0001C12.3246 47.8012 11.9616 47.49 11.7 47.1001V49.8301C11.7173 50.0367 11.6916 50.2447 11.6245 50.4409C11.5574 50.6372 11.4503 50.8173 11.31 50.9701C11.1577 51.1128 10.9784 51.2235 10.7826 51.2956C10.5867 51.3677 10.3784 51.3999 10.17 51.3901ZM13.17 46.1101C13.3885 46.1125 13.6048 46.0651 13.8023 45.9715C13.9998 45.878 14.1734 45.7407 14.31 45.5701C14.6444 45.0887 14.7936 44.5027 14.73 43.9201C14.7909 43.3376 14.6419 42.7525 14.31 42.2701C14.1678 42.1082 13.9923 41.9788 13.7956 41.8908C13.5989 41.8028 13.3855 41.7582 13.17 41.7601C12.9498 41.7558 12.7312 41.7992 12.5293 41.8872C12.3273 41.9753 12.1468 42.1058 12 42.2701C11.6837 42.7595 11.5362 43.339 11.58 43.9201C11.5316 44.5016 11.6795 45.0825 12 45.5701C12.1486 45.7577 12.3416 45.9053 12.5616 45.9996C12.7816 46.0939 13.0216 46.1319 13.26 46.1101H13.17Z" fill="#FFFFFF" fill-opacity="0.95"/>
<path d="M23.0101 48.33C22.343 48.3551 21.684 48.1773 21.1201 47.82C20.5452 47.444 20.0878 46.9138 19.8001 46.29C19.4824 45.5455 19.3186 44.7445 19.3186 43.935C19.3186 43.1256 19.4824 42.3245 19.8001 41.58C20.0878 40.9562 20.5452 40.426 21.1201 40.05C21.6814 39.6839 22.3401 39.4957 23.0101 39.51C23.5321 39.5051 24.0472 39.6287 24.5101 39.87C24.9247 40.0581 25.2856 40.3468 25.5601 40.71V37.44C25.5299 37.2321 25.5487 37.02 25.6149 36.8206C25.6811 36.6212 25.7929 36.44 25.9415 36.2914C26.0901 36.1428 26.2713 36.031 26.4707 35.9648C26.6701 35.8986 26.8822 35.8798 27.0901 35.91C27.292 35.8951 27.4948 35.922 27.6858 35.9891C27.8768 36.0562 28.0519 36.1621 28.2001 36.3C28.3404 36.4527 28.4475 36.6329 28.5146 36.8291C28.5817 37.0253 28.6074 37.2334 28.5901 37.44V46.77C28.6219 47.1678 28.4944 47.562 28.2356 47.8658C27.9768 48.1696 27.6079 48.3582 27.2101 48.39C27.0131 48.4058 26.815 48.3826 26.6269 48.3217C26.4389 48.2609 26.2647 48.1637 26.1143 48.0355C25.8105 47.7767 25.6219 47.4078 25.5901 47.01C25.3592 47.4291 25.0024 47.765 24.5701 47.97C24.0859 48.2117 23.5513 48.3351 23.0101 48.33ZM24.0001 46.11C24.2186 46.1124 24.4349 46.065 24.6324 45.9715C24.8299 45.8779 25.0035 45.7406 25.1401 45.57C25.4876 45.0939 25.6478 44.5066 25.5901 43.92C25.6423 43.3339 25.4826 42.7485 25.1401 42.27C24.9979 42.1081 24.8224 41.9787 24.6257 41.8907C24.429 41.8027 24.2156 41.7581 24.0001 41.76C23.7843 41.7561 23.5703 41.7998 23.3732 41.8879C23.1762 41.9761 23.001 42.1065 22.8601 42.27C22.5176 42.7485 22.3579 43.3339 22.4101 43.92C22.3524 44.5066 22.5126 45.0939 22.8601 45.57C22.9935 45.7442 23.1665 45.884 23.3648 45.9779C23.563 46.0718 23.7808 46.1171 24.0001 46.11Z" fill="#FFFFFF" fill-opacity="0.95"/>
<path d="M33.06 48.2999C32.8533 48.324 32.6438 48.3009 32.4472 48.2325C32.2507 48.1641 32.0721 48.0521 31.925 47.905C31.7778 47.7578 31.6658 47.5793 31.5974 47.3827C31.529 47.1862 31.506 46.9767 31.53 46.7699V41.9999H31.08C30.9234 42.0246 30.7631 42.0124 30.612 41.9643C30.4609 41.9162 30.3231 41.8336 30.2095 41.7229C30.096 41.6122 30.0098 41.4766 29.9578 41.3268C29.9058 41.177 29.8894 41.0172 29.91 40.8599C29.91 40.1099 30.3 39.7499 31.08 39.7499H31.5C31.4869 39.2688 31.5704 38.7899 31.7456 38.3416C31.9208 37.8933 32.1841 37.4847 32.52 37.1399C33.2941 36.4827 34.2654 36.1026 35.28 36.0599H35.79C36.0692 35.9481 36.3808 35.9481 36.66 36.0599C36.8624 36.1753 37.0207 36.3547 37.11 36.5699C37.1544 36.7877 37.1544 37.0122 37.11 37.2299C37.0754 37.4416 36.9818 37.6391 36.84 37.7999C36.7067 37.9674 36.5126 38.0752 36.3 38.0999H36.06C35.6214 38.0803 35.1888 38.2069 34.83 38.4599C34.7138 38.5838 34.6244 38.7303 34.5676 38.8904C34.5108 39.0505 34.4878 39.2205 34.5 39.3899V39.6599H35.46C36.24 39.6599 36.63 40.0199 36.63 40.7699C36.6506 40.9272 36.6342 41.087 36.5822 41.2368C36.5302 41.3866 36.444 41.5222 36.3305 41.6329C36.2169 41.7436 36.0791 41.8262 35.928 41.8743C35.7769 41.9224 35.6166 41.9346 35.46 41.9099H34.5V46.7099C34.5376 46.914 34.5277 47.124 34.471 47.3236C34.4142 47.5232 34.3123 47.7071 34.173 47.8609C34.0337 48.0147 33.8608 48.1343 33.6678 48.2104C33.4748 48.2866 33.2668 48.3172 33.06 48.2999Z" fill="#FFFFFF" fill-opacity="0.95"/>
</svg>
