<svg width="35" height="35" viewBox="0 0 35 35" fill="none" xmlns="http://www.w3.org/2000/svg">
<rect width="35" height="35" rx="17.5" fill="#00152D"/>
<path fill-rule="evenodd" clip-rule="evenodd" d="M25.8676 24.2001C25.7591 24.3082 25.6283 24.4464 25.4897 24.5926C25.1436 24.9599 24.7113 25.4165 24.4404 25.6016C23.0148 26.5757 21.1076 26.1096 19.7585 25.5475C17.9789 24.806 16.0413 23.4393 14.3016 21.6993C12.5603 19.9593 11.1936 18.0211 10.4521 16.2425C9.89069 14.8931 9.42358 12.9855 10.3979 11.5596C10.5829 11.2885 11.0405 10.8568 11.4073 10.5101C11.554 10.3719 11.6912 10.2412 11.7997 10.1331C11.9922 9.94154 12.2528 9.83398 12.5244 9.83398C12.7961 9.83398 13.0566 9.94154 13.2492 10.1331L15.8722 12.7554C16.0637 12.948 16.1712 13.2085 16.1712 13.48C16.1712 13.7516 16.0637 14.0121 15.8722 14.2046L15.1577 14.9178C14.9191 15.1546 14.7633 15.4623 14.7136 15.7948C14.6639 16.1274 14.7229 16.4671 14.8818 16.7634C15.8646 18.6184 17.3819 20.1354 19.237 21.1179C19.5333 21.2768 19.8729 21.3357 20.2054 21.2859C20.5379 21.2361 20.8453 21.0803 21.082 20.8416L21.7948 20.1284C21.9874 19.9368 22.248 19.8293 22.5196 19.8293C22.7913 19.8293 23.0518 19.9368 23.2444 20.1284L25.8676 22.7511C26.0591 22.9436 26.1666 23.2041 26.1666 23.4756C26.1666 23.7471 26.0591 24.0076 25.8676 24.2001Z" fill="#C7ECFF"/>
</svg>
