<svg width="179" height="74" viewBox="0 0 179 74" fill="none" xmlns="http://www.w3.org/2000/svg">
<path d="M179.673 73.329C179.742 73.329 179.812 73.3072 179.871 73.262C180.015 73.1525 180.043 72.9473 179.933 72.8037C178.197 70.5277 175.93 68.6878 173.195 67.3351C170.759 66.1301 167.958 65.3121 164.871 64.9036C161.701 64.4843 158.467 64.7653 155.339 65.0371C152.866 65.252 150.309 65.4742 147.819 65.3441C143.311 65.1089 139.659 63.2878 137.535 60.2164C136.535 58.7708 135.764 57.2422 135.018 55.7641C133.266 52.292 131.612 49.0125 127.332 47.2339C124.866 46.209 122.018 45.709 118.627 45.7055C118.615 45.7055 118.603 45.7055 118.591 45.7055C115.541 45.7055 112.375 46.1094 109.829 46.4341C86.5862 49.3989 80.6753 40.2612 75.4602 32.199C73.9212 29.8198 72.4675 27.5725 70.6511 25.8246C69.6706 24.8809 68.6635 24.1572 67.5724 23.6123C66.3587 23.0061 65.0655 22.6307 63.6188 22.4647C56.6385 21.6637 44.8768 19.9306 32.1561 17.8288C20.4649 15.8971 11.2846 14.1999 9.31218 13.6054C7.40939 13.032 5.40822 12.1642 3.67731 11.1619C2.00682 10.1946 1.11421 9.40629 0.797211 8.94352C1.22154 9.30515 1.86797 9.82309 2.6799 10.3722C4.04906 11.2982 6.16185 12.4843 8.45186 12.876C9.30823 13.0225 11.3249 13.4362 14.1161 14.0087C25.5367 16.3513 49.3011 21.226 62.2546 21.9787C70.3965 22.4517 76.2391 21.7301 79.7069 21.0415C82.0757 20.5711 83.5999 20.0653 84.4614 19.7238C85.6393 19.257 86.3098 18.8173 86.4544 18.417C86.5373 18.1872 86.4651 17.9532 86.2659 17.8064C85.7439 17.4218 85.0425 17.299 84.4788 17.2003C84.2425 17.159 84.0194 17.1199 83.8528 17.0691C83.6874 17.0186 83.6422 16.9754 83.6337 16.9656C83.6332 16.9559 83.6342 16.9174 83.6696 16.8377C83.7364 16.6875 83.9672 16.2042 84.2866 15.5354C85.1781 13.6689 86.8374 10.1947 88.2186 7.0875C88.9883 5.35589 89.5728 3.95926 89.9559 2.93639C90.6359 1.12067 90.5803 0.766251 90.465 0.558833C90.3975 0.437197 90.281 0.358808 90.1455 0.343738C89.9342 0.320253 89.6749 0.272855 89.4004 0.222642C88.3565 0.0316872 86.9268 -0.229838 85.8021 0.381441C85.3793 0.611235 84.3217 1.67943 82.3328 3.70598C80.3877 5.68798 77.9668 8.1547 75.7426 10.143C72.6134 12.9402 71.2489 13.5348 70.6549 13.5348C70.6495 13.5348 70.6442 13.5347 70.6389 13.5346C69.2986 13.51 65.8113 13.0813 62.3469 12.5152C60.5724 12.2253 59.0137 11.9333 57.8392 11.671C56.8373 11.4471 56.2884 11.2833 55.9888 11.1739C57.3376 10.5535 61.1993 8.72791 64.7311 7.01122C67.0656 5.87652 68.9315 4.94836 70.2771 4.25255C71.0593 3.84806 71.6639 3.52265 72.0743 3.28526C72.3027 3.1531 72.4715 3.04827 72.5901 2.96477C72.7154 2.8766 72.9251 2.72903 72.8916 2.49059C72.8697 2.33506 72.7456 2.21548 72.5826 2.19298C71.2048 2.00294 68.6215 1.75105 66.8016 2.19944C66.2396 2.33788 64.3713 2.98191 61.7855 3.87328C58.6034 4.97019 54.2454 6.4725 50.5728 7.62267C45.2765 9.2813 43.6118 9.51488 43.1478 9.41872C42.2726 9.23726 40.1346 8.8831 37.1755 8.39289C32.1816 7.56555 25.3421 6.4325 19.1747 5.23826C10.3841 3.53598 8.6239 4.28837 6.18768 5.32964C5.87558 5.46302 5.55289 5.60095 5.20311 5.73825C4.55319 5.99338 3.91376 6.2209 3.34962 6.42164C1.5513 7.06155 0.363297 7.48426 0.066803 8.24046C-0.0428467 8.52015 -0.0174103 8.81696 0.14238 9.12267C0.498672 9.80427 1.66768 10.7538 3.34972 11.7278C5.12315 12.7547 7.17372 13.644 9.12355 14.2316C11.1202 14.8333 20.3334 16.5382 32.0495 18.474C44.7802 20.5775 56.5539 22.3123 63.5443 23.1144C69.2266 23.7665 71.8609 27.8388 74.9111 32.5542C76.207 34.5576 77.5471 36.6292 79.221 38.5988C81.1297 40.8445 83.1811 42.5925 85.4925 43.9427C88.301 45.5833 91.4867 46.6523 95.2317 47.2107C97.2724 47.515 99.5023 47.6634 101.86 47.6511C104.346 47.6384 107.055 47.4472 109.912 47.0828C115.145 46.4151 121.659 45.5843 127.081 47.8378C131.137 49.5234 132.739 52.6978 134.434 56.0586C135.19 57.5567 135.971 59.1057 136.997 60.5884C138.172 62.2878 139.772 63.6219 141.752 64.5537C143.542 65.396 145.572 65.8817 147.784 65.9972C150.321 66.1296 152.901 65.9054 155.396 65.6886C158.489 65.4199 161.687 65.1419 164.785 65.5519C171.184 66.3984 176.242 69.0432 179.413 73.2003C179.477 73.2847 179.575 73.329 179.673 73.329ZM85.7836 18.269C85.6396 18.4193 85.2055 18.7288 84.1844 19.1302C83.3434 19.4608 81.854 19.951 79.5343 20.409C76.1097 21.0853 70.3383 21.7933 62.2926 21.3258C49.3863 20.576 25.6532 15.7077 14.2476 13.3681C11.4503 12.7943 9.42917 12.3797 8.56219 12.2315C6.3916 11.8602 4.37051 10.725 3.05728 9.83799C2.04573 9.15477 1.28674 8.50952 0.924255 8.18564C1.4057 7.80748 2.46289 7.43129 3.56885 7.03775C4.13762 6.83536 4.78232 6.60594 5.44206 6.347C5.80089 6.20614 6.12817 6.06625 6.44469 5.93097C8.77385 4.93548 10.4567 4.21615 19.0504 5.88027C25.2265 7.07624 32.071 8.21009 37.0686 9.03803C39.9091 9.50859 42.1527 9.88029 43.0151 10.0591C43.523 10.1644 44.8793 10.091 50.7682 8.24674C54.4497 7.09382 58.8129 5.58975 61.9986 4.49155C64.4716 3.63911 66.4248 2.96579 66.958 2.83443C68.3745 2.48545 70.3208 2.59221 71.7053 2.7435C70.8603 3.22715 68.8532 4.28473 64.0983 6.59163C60.1917 8.48694 56.0851 10.4209 55.346 10.7478C55.0068 10.8978 55.0312 11.1609 55.0467 11.2379C55.1006 11.5048 55.3898 11.6562 55.8392 11.814C56.1909 11.9376 56.6932 12.0761 57.332 12.2259C58.4806 12.4951 60.0633 12.7994 61.9088 13.1059C65.5274 13.707 69.194 14.1623 70.627 14.1886C70.6358 14.1888 70.6446 14.1888 70.6535 14.1888C71.707 14.1889 73.4643 13.0568 76.1785 10.6306C78.4186 8.62811 80.8478 6.15294 82.7996 4.16415C84.3209 2.61405 85.7579 1.14987 86.1144 0.956097C87.0363 0.455082 88.2819 0.682943 89.2828 0.865993C89.4913 0.904122 89.6914 0.940744 89.8753 0.967869C89.8497 1.17742 89.7318 1.69399 89.2616 2.9236C88.8687 3.95088 88.2871 5.32907 87.5329 7.01989C86.1736 10.0676 84.5623 13.4412 83.6966 15.2536C83.3629 15.9522 83.1425 16.4138 83.0721 16.5721C82.9546 16.8366 82.949 17.072 83.0554 17.2718C83.2572 17.6504 83.7711 17.7404 84.3662 17.8445C84.8483 17.9289 85.3899 18.0238 85.7836 18.269Z" fill="#136574"/>
</svg>
