<svg width="30" height="30" viewBox="0 0 30 30" fill="none" xmlns="http://www.w3.org/2000/svg">
<g fill="currentColor">
<path d="M11.5411 28.3425L14.2226 29.8C14.4608 29.9305 14.7281 29.9989 14.9998 29.9989C15.2715 29.9989 15.5388 29.9305 15.7771 29.8L18.4596 28.3405C21.5069 26.6736 24.048 24.2155 25.8151 21.2253C27.5822 18.235 28.5098 14.8233 28.5001 11.35V4.36996C28.4999 3.97991 28.3489 3.60505 28.0786 3.3238C27.8084 3.04256 27.4398 2.87671 27.0501 2.86096C20.8821 2.69196 17.0681 0.932963 15.7151 0.184963C15.4966 0.062876 15.2504 -0.0012207 15.0001 -0.0012207C14.7498 -0.0012207 14.5036 0.062876 14.2851 0.184963C12.9321 0.932963 9.11808 2.69196 2.95008 2.86096C2.56035 2.87671 2.19181 3.04256 1.92156 3.3238C1.6513 3.60505 1.50028 3.97991 1.50008 4.36996V11.35C1.48999 14.8237 2.41745 18.2359 4.18466 21.2265C5.95188 24.2172 8.49335 26.6756 11.5411 28.3425ZM2.50008 4.36996C2.49848 4.23989 2.54722 4.11424 2.63612 4.01929C2.72502 3.92433 2.84719 3.86742 2.97708 3.86046C9.36508 3.68546 13.3521 1.84346 14.7696 1.06046C14.84 1.02114 14.9194 1.0005 15.0001 1.0005C15.0808 1.0005 15.1601 1.02114 15.2306 1.06046C16.6501 1.84346 20.6351 3.68546 27.0231 3.86046C27.153 3.86742 27.2751 3.92433 27.364 4.01929C27.4529 4.11424 27.5017 4.23989 27.5001 4.36996V11.35C27.5099 14.6438 26.6309 17.8794 24.9557 20.7155C23.2804 23.5516 20.8711 25.8832 17.9816 27.4645L15.3001 28.924C15.2081 28.9742 15.1049 29.0005 15.0001 29.0005C14.8952 29.0005 14.7921 28.9742 14.7001 28.924L12.0186 27.4645C9.12904 25.8832 6.71966 23.5516 5.04443 20.7155C3.3692 17.8794 2.4902 14.6439 2.50008 11.35V4.36996Z"/>
<path d="M12.4966 26.5855L14.2826 27.5575C14.5026 27.6779 14.7493 27.741 15.0001 27.741C15.2509 27.741 15.4976 27.6779 15.7176 27.5575L17.5036 26.5855C20.2351 25.0903 22.5126 22.8858 24.096 20.2044C25.6794 17.523 26.5099 14.464 26.5001 11.35V5.78804C26.4986 5.53452 26.4014 5.29093 26.2277 5.10618C26.0541 4.92143 25.817 4.80921 25.5641 4.79204C22.06 4.61119 18.6228 3.76265 15.4371 2.29204C15.3011 2.22519 15.1516 2.19043 15.0001 2.19043C14.8486 2.19043 14.6991 2.22519 14.5631 2.29204C11.3776 3.76259 7.94048 4.61113 4.43659 4.79204C4.18355 4.80909 3.94635 4.92126 3.77262 5.10602C3.5989 5.29078 3.50153 5.53444 3.50009 5.78804V11.35C3.49027 14.464 4.32082 17.523 5.90418 20.2044C7.48754 22.8858 9.76505 25.0903 12.4966 26.5855ZM4.50459 5.79004C8.13679 5.60079 11.6993 4.71861 15.0001 3.19104C18.3025 4.71827 21.8665 5.59977 25.5001 5.78804V11.35C25.5098 14.2843 24.7277 17.1668 23.2361 19.6937C21.7445 22.2206 19.5988 24.2982 17.0251 25.7075L15.2391 26.6795C15.1657 26.7195 15.0836 26.7404 15.0001 26.7404C14.9166 26.7404 14.8344 26.7195 14.7611 26.6795L12.9751 25.7075C10.4014 24.2982 8.25567 22.2206 6.76409 19.6937C5.27251 17.1668 4.49036 14.2843 4.50009 11.35L4.50459 5.79004Z"/>
<path d="M15 21C16.3845 21 17.7378 20.5895 18.889 19.8203C20.0401 19.0511 20.9373 17.9579 21.4672 16.6788C21.997 15.3997 22.1356 13.9922 21.8655 12.6344C21.5954 11.2765 20.9287 10.0292 19.9497 9.05026C18.9708 8.07129 17.7235 7.4046 16.3656 7.13451C15.0078 6.86441 13.6003 7.00303 12.3212 7.53285C11.0421 8.06266 9.94888 8.95987 9.17971 10.111C8.41054 11.2622 8 12.6155 8 14C8.00199 15.8559 8.74012 17.6352 10.0524 18.9476C11.3648 20.2599 13.1441 20.998 15 21ZM15 8C16.1867 8 17.3467 8.3519 18.3334 9.01119C19.3201 9.67047 20.0892 10.6075 20.5433 11.7039C20.9974 12.8003 21.1162 14.0067 20.8847 15.1705C20.6532 16.3344 20.0818 17.4035 19.2426 18.2426C18.4035 19.0818 17.3344 19.6532 16.1705 19.8847C15.0067 20.1162 13.8003 19.9974 12.7039 19.5433C11.6075 19.0892 10.6705 18.3201 10.0112 17.3334C9.35189 16.3467 9 15.1867 9 14C9.00172 12.4092 9.63441 10.8841 10.7593 9.75926C11.8841 8.63442 13.4092 8.00172 15 8Z"/>
<path d="M13.2583 16.8534C13.352 16.9471 13.4792 16.9998 13.6118 16.9999H13.6428C13.7135 16.9954 13.7825 16.976 13.8452 16.9429C13.9078 16.9098 13.9628 16.8638 14.0063 16.8079L17.8948 11.8079C17.9368 11.7562 17.9681 11.6967 17.9869 11.6328C18.0056 11.5689 18.0114 11.5019 18.0038 11.4358C17.9963 11.3696 17.9757 11.3056 17.9431 11.2475C17.9105 11.1895 17.8667 11.1385 17.8141 11.0976C17.7616 11.0567 17.7014 11.0267 17.6371 11.0094C17.5728 10.9921 17.5057 10.9878 17.4397 10.9967C17.3737 11.0057 17.3102 11.0278 17.2529 11.0616C17.1955 11.0955 17.1455 11.1404 17.1058 11.1939L13.5648 15.7469L12.8538 15.0364C12.8077 14.9886 12.7525 14.9505 12.6915 14.9243C12.6305 14.8981 12.5649 14.8843 12.4985 14.8837C12.4321 14.8832 12.3663 14.8958 12.3048 14.9209C12.2434 14.9461 12.1875 14.9832 12.1406 15.0302C12.0936 15.0771 12.0565 15.1329 12.0314 15.1944C12.0062 15.2558 11.9936 15.3217 11.9942 15.3881C11.9947 15.4545 12.0085 15.5201 12.0347 15.5811C12.0609 15.6421 12.099 15.6972 12.1468 15.7434L13.2583 16.8534Z"/>
</g>
</svg>
