<?xml version="1.0" encoding="UTF-8"?>
<svg width="17" height="17" fill="none" version="1.1" viewBox="0 0 17 17" xmlns="http://www.w3.org/2000/svg">
 <path d="m5.404 10.32-0.7228-0.1051-0.3232-0.6549c-0.1817-0.3682-0.7114-0.3683-0.8932-3e-5l-0.3232 0.6549-0.7228 0.1051c-0.4062 0.0589-0.5701 0.5626-0.276 0.8495l0.523 0.5098-0.1234 0.7198c-0.06936 0.4046 0.359 0.7162 0.7227 0.5251l0.6465-0.3399 0.6465 0.3399c0.3636 0.191 0.792-0.1205 0.7227-0.5251l-0.1235-0.7198 0.523-0.5098c0.2942-0.2867 0.1301-0.7906-0.2761-0.8495zm-1.275 1.253c-0.1371-0.0664-0.2972-0.0664-0.4343 0 0.02082-0.1509-0.02865-0.3032-0.1342-0.413 0.15-0.0268 0.2794-0.1209 0.3513-0.2552 0.07185 0.1343 0.2013 0.2284 0.3513 0.2552-0.1055 0.1099-0.155 0.2621-0.1342 0.413zm5.831-1.253-0.7228-0.1051-0.3232-0.6549c-0.1817-0.3682-0.7115-0.3682-0.8932 3e-5l-0.3232 0.6549-0.7228 0.1051c-0.4062 0.0589-0.5701 0.5626-0.276 0.8495l0.523 0.5098-0.1235 0.7198c-0.06939 0.4047 0.3591 0.7162 0.7227 0.5251l0.6465-0.3399 0.6465 0.3399c0.3636 0.191 0.792-0.1205 0.7227-0.5251l-0.1235-0.7198 0.523-0.5098c0.294-0.2865 0.1303-0.7906-0.2761-0.8495zm-1.276 1.253c-0.06853-0.0332-0.1428-0.0498-0.2171-0.0498-0.07427 0-0.1486 0.0166-0.2171 0.0498 0.02082-0.1509-0.02862-0.3031-0.1342-0.413 0.15-0.0268 0.2794-0.1209 0.3513-0.2552 0.07185 0.1343 0.2013 0.2283 0.3512 0.2552-0.1055 0.1099-0.155 0.2621-0.1342 0.413zm5.831-1.253-0.7228-0.1051-0.3233-0.6549c-0.1817-0.3682-0.7114-0.3682-0.8932 3e-5l-0.3232 0.6549-0.7228 0.1051c-0.4061 0.05888-0.5701 0.5625-0.276 0.8495l0.523 0.5098-0.1235 0.7198c-0.06934 0.405 0.3594 0.716 0.7227 0.525l0.6464-0.3398 0.6466 0.3398c0.3632 0.1911 0.792-0.1201 0.7226-0.525l-0.1235-0.7198 0.523-0.5098c0.2941-0.2868 0.1302-0.7906-0.276-0.8495zm-1.276 1.253c-0.0686-0.0332-0.1429-0.0498-0.2172-0.0498s-0.1486 0.0166-0.2171 0.0498c0.0208-0.1509-0.0287-0.3031-0.1342-0.413 0.15-0.0269 0.2795-0.1209 0.3513-0.2552 0.0719 0.1343 0.2014 0.2284 0.3513 0.2552-0.1055 0.1099-0.155 0.2621-0.1341 0.413zm0.2077-11.57h-9.961c-1.922 0-3.486 1.579-3.486 3.52v7.969c0 1.753 1.301 3.208 2.988 3.451v1.567c3e-5 2e-4 3e-5 4e-4 3e-5 6e-4v0.0021c0.00346 0.2496 0.1904 0.4578 0.4376 0.4879 0.1492 0.0182 0.3033-0.0314 0.415-0.1446 2e-4 -2e-4 1.846-1.877 1.846-1.877h7.76c1.941 0 3.52-1.564 3.52-3.486v-7.969c0-1.926-1.594-3.52-3.52-3.52zm2.523 11.49c0 1.373-1.132 2.49-2.523 2.49h-7.971c-0.1324 5e-4 -0.2578 0.0532-0.351 0.1469-9e-5 1e-4 -2.9e-4 3e-4 -3.9e-4 4e-4s-1.7e-4 1e-4 -2.7e-4 2e-4c-7e-5 1e-4 -1.3e-4 1e-4 -2e-4 2e-4 -1.3e-4 2e-4 -2.6e-4 3e-4 -4e-4 4e-4 -6e-5 1e-4 -6e-5 1e-4 -1.3e-4 1e-4 -1.7e-4 2e-4 -3.3e-4 4e-4 -5e-4 5e-4l-3e-5 1e-4c-3e-5 0-2.3e-4 2e-4 -2.7e-4 2e-4l-1.139 1.158v-0.8088c0-0.275-0.223-0.498-0.498-0.498-1.373 0-2.49-1.117-2.49-2.49v-7.969c0-1.391 1.117-2.523 2.49-2.523h9.961c1.368 0 2.523 1.156 2.523 2.523zm-6.01-7.969c0-0.8239-0.6703-1.494-1.494-1.494-0.8239 0-1.494 0.6703-1.494 1.494 0 0.8239 0.6703 1.494 1.494 1.494 0.8239 0 1.494-0.6703 1.494-1.494zm-1.494 0.498c-0.2746 0-0.498-0.2234-0.498-0.498s0.2234-0.498 0.498-0.498c0.2746 0 0.498 0.2234 0.498 0.498s-0.2234 0.498-0.498 0.498zm0 0.9961c-1.373 0-2.49 1.117-2.49 2.49 0 0.275 0.223 0.498 0.498 0.498h3.984c0.2751 0 0.4981-0.223 0.4981-0.498 0-1.373-1.117-2.49-2.49-2.49zm-1.409 1.992c0.2055-0.5798 0.7595-0.9961 1.409-0.9961s1.203 0.4163 1.409 0.9961z" fill="currentColor"/>
</svg>
