<?xml version="1.0" encoding="UTF-8"?>
<svg width="30" height="30" fill="none" version="1.1" viewBox="0 0 30 30" xmlns="http://www.w3.org/2000/svg">
 <path d="m3.848 5.237c-0.2298-0.3978 0.3786-0.7491 0.6083-0.3514l0.271 0.469 1.091-1.091c0.3247-0.3248 0.8216 0.1719 0.4968 0.4968l-1.415 1.415c-0.1621 0.1623-0.4368 0.1275-0.5526-0.07266zm20.23 20.72c1.89 0.2045 3.828 0.7836 3.828 1.86 0 1.28-2.807 1.949-5.58 1.949-2.773 0-5.582-0.6695-5.582-1.949 0-1.077 1.939-1.656 3.83-1.86-2.343-3.023-4.278-5.553-5.056-7.561-0.5603-1.446-0.7493-2.934-0.5465-4.304 0.2221-1.501 0.8863-2.813 1.974-3.901 2.952-2.955 7.796-2.966 10.76 0 1.088 1.088 1.752 2.4 1.974 3.901 0.2025 1.37 0.0138 2.858-0.5457 4.304-0.7216 1.861-2.486 4.265-5.056 7.561zm-2.998-0.4936c0.447 0.5749 0.8745 1.125 1.246 1.617 0.3714-0.4927 0.7989-1.042 1.246-1.618 1.838-2.364 4.126-5.306 4.907-7.321 1.097-2.834 0.6339-5.551-1.27-7.454-2.69-2.691-7.09-2.681-9.768-2e-4 -1.905 1.905-2.368 4.622-1.27 7.454 0.7813 2.016 3.069 4.958 4.907 7.321zm2.487 1.152c-0.3516 0.4545-0.6789 0.8819-0.9585 1.261-0.1399 0.1899-0.4257 0.1899-0.5656 0-0.2796-0.3794-0.6069-0.8069-0.9585-1.261-2.485 0.1905-3.638 0.8657-3.638 1.202 0 0.4231 1.722 1.246 4.879 1.246 3.157 0 4.877-0.8235 4.877-1.246 0-0.3373-1.154-1.012-3.636-1.202zm-1.241-5.846c-2.866 0-5.198-2.332-5.198-5.198s2.332-5.198 5.198-5.198 5.198 2.332 5.198 5.198-2.332 5.198-5.198 5.198zm-4.495-5.198c0 0.8638 0.2454 1.671 0.6694 2.357 0.2635-0.8386 1.016-1.488 2.119-1.822-0.4006-0.4223-0.6473-0.9921-0.6473-1.619 0-3.074 4.707-3.076 4.707 0 0 0.6266-0.2464 1.196-0.6466 1.618 1.103 0.3351 1.856 0.9848 2.119 1.824 0.4246-0.6861 0.6704-1.494 0.6704-2.358 0-2.479-2.017-4.495-4.495-4.495s-4.495 2.017-4.495 4.495zm4.495 0.5672c0.9098 0 1.65-0.741 1.65-1.652 0-2.159-3.302-2.155-3.302 0 0 0.9098 0.741 1.652 1.652 1.652zm0 3.928c1.265 0 2.409-0.5259 3.226-1.37v-0.0794c0-1.159-1.163-1.774-2.287-1.973-0.2879 0.1261-0.6056 0.1964-0.9395 0.1964s-0.6519-0.0703-0.94-0.1964c-1.125 0.199-2.288 0.8139-2.288 1.973v0.0777c0.8178 0.8448 1.962 1.372 3.228 1.372zm-21.69-13c-0.7753-2.001-0.4235-4.012 0.941-5.378 1.937-1.937 5.114-1.942 7.056-1.8e-4 1.365 1.365 1.717 3.375 0.9412 5.378-0.5148 1.327-1.934 3.172-3.111 4.686 1.22 0.1607 2.334 0.5611 2.334 1.287 0 0.9443-1.914 1.374-3.691 1.374s-3.693-0.4301-3.693-1.374c0-0.7262 1.115-1.127 2.335-1.287-1.179-1.516-2.597-3.359-3.112-4.686zm5.321 5.338c-0.2081 0.2695-0.4016 0.5228-0.5682 0.7491-0.1399 0.19-0.4257 0.1899-0.5655 1e-4 -0.167-0.2264-0.3606-0.4797-0.5691-0.7493-1.477 0.1221-2.082 0.5025-2.137 0.6357 0.07517 0.1914 1.076 0.6716 2.989 0.6716s2.913-0.4803 2.987-0.6716c-0.05455-0.1331-0.6595-0.5134-2.136-0.6357zm-4.666-5.592c0.4935 1.272 1.951 3.145 3.122 4.65 0.2451 0.3151 0.4809 0.6183 0.6931 0.8971 0.2138-0.2812 0.4516-0.5872 0.699-0.9053 1.168-1.502 2.622-3.372 3.114-4.642 0.6821-1.761 0.3967-3.448-0.7829-4.627-1.668-1.668-4.4-1.662-6.062 0-1.179 1.181-1.465 2.867-0.7829 4.627zm0.7745-1.595c0-1.676 1.364-3.04 3.04-3.04 1.676 0 3.039 1.364 3.039 3.04 0 1.676-1.363 3.039-3.039 3.039-1.675 0-3.04-1.363-3.04-3.039zm0.7025 0c0 1.288 1.049 2.336 2.338 2.336 1.289 0 2.336-1.048 2.336-2.336 0-1.288-1.048-2.338-2.336-2.338-1.288 0-2.338 1.049-2.338 2.338zm8.378 12.89c1.795 0.8836 1.511 4.21-1.049 4.21h-5.373l0.1592-0.0919c0.3977-0.2296 0.0464-0.8382-0.3514-0.6083l-1.294 0.7474c-0.2307 0.1275-0.2269 0.4828 0 0.6081l1.294 0.7475c0.3975 0.229 0.7497-0.3781 0.3515-0.6084l-0.1592-0.0919h5.373c3.318 0 3.797-4.343 1.359-5.543-0.4123-0.2028-0.7223 0.4274-0.3103 0.6303zm-0.8681-0.8782c-0.4326-0.251-0.866-0.5008-1.299-0.751-0.3975-0.2296-0.7493 0.3785-0.3514 0.6084l0.1592 0.0919h-2.169c-0.6397 0-1.16-0.5204-1.16-1.16v-0.7524c0-0.4592-0.7025-0.4592-0.7025 0v0.7524c0 1.027 0.8356 1.863 1.863 1.863h2.169l-0.1592 0.092c-0.4089 0.2361-0.0338 0.831 0.3515 0.6083l1.294-0.7474c0.1942-0.1124 0.2669-0.445 0.0053-0.6047zm5.725 10.28-1.294-0.7474c-0.3978-0.2297-0.749 0.3786-0.3515 0.6083l0.1592 0.092h-11.37c-2.664 0-2.861-3.594-0.8208-4.307 0.4338-0.1519 0.2013-0.8152-0.2318-0.6632-2.79 0.9753-2.379 5.672 1.053 5.672h11.37l-0.1592 0.0919c-0.3101 0.1792-0.1784 0.6555 0.1761 0.6555 0.0596 0 0.12-0.0151 0.1754-0.0471l1.294-0.7475c0.2136-0.1187 0.2435-0.4671-2e-4 -0.6082z" fill="currentColor"/>
</svg>
