<svg width="30" height="30" viewBox="0 0 30 30" fill="none" xmlns="http://www.w3.org/2000/svg">
<path d="M15 30C13.9487 30 13.2403 29.1204 12.6152 28.3443C12.3639 28.0323 11.8961 27.4516 11.6787 27.3934C11.4334 27.3281 10.7671 27.584 10.3261 27.7535C9.41373 28.1043 8.37961 28.5018 7.4973 27.9912C6.60428 27.4746 6.43201 26.3707 6.28008 25.3969C6.20824 24.9364 6.09961 24.2404 5.92945 24.0702C5.75924 23.9 5.06332 23.7914 4.60283 23.7196C3.629 23.5676 2.52521 23.3954 2.00859 22.5024C1.49807 21.62 1.89563 20.586 2.24637 19.6737C2.41594 19.2328 2.67211 18.5664 2.6066 18.3212C2.54848 18.1038 1.96775 17.6361 1.65574 17.3848C0.879609 16.7597 0 16.0512 0 15C0 13.9488 0.879609 13.2403 1.65568 12.6152C1.9677 12.3639 2.54848 11.8961 2.6066 11.6787C2.67217 11.4335 2.416 10.7671 2.24648 10.3261C1.89574 9.41379 1.49818 8.37967 2.00877 7.49725C2.52551 6.60422 3.6293 6.43201 4.60312 6.28008C5.06361 6.20824 5.75959 6.09967 5.9298 5.92951C6.09996 5.75936 6.20854 5.06344 6.28043 4.60289C6.43236 3.62906 6.60457 2.52527 7.4976 2.00859C8.37996 1.49818 9.41402 1.89562 10.3263 2.24643C10.7672 2.41594 11.4334 2.67193 11.6788 2.6066C11.8962 2.54854 12.3639 1.96775 12.6152 1.65568C13.2403 0.879609 13.9488 0 15 0C16.0512 0 16.7597 0.879609 17.3848 1.65568C17.6361 1.9677 18.1039 2.54842 18.3213 2.6066C18.5665 2.67188 19.2329 2.41594 19.6739 2.24648C20.5863 1.8958 21.6204 1.49824 22.5028 2.00877C23.3958 2.52545 23.568 3.6293 23.7199 4.60312C23.7918 5.06361 23.9003 5.75959 24.0705 5.9298C24.2407 6.09996 24.9366 6.20859 25.3971 6.28043C26.3709 6.43236 27.4747 6.60457 27.9914 7.49754C28.5019 8.38002 28.1044 9.41402 27.7536 10.3263C27.584 10.7672 27.3278 11.4336 27.3934 11.6788C27.4515 11.8962 28.0322 12.3639 28.3443 12.6152C29.1204 13.2403 30 13.9488 30 15C30 16.0512 29.1204 16.7597 28.3443 17.3848C28.0323 17.6361 27.4516 18.1039 27.3934 18.3213C27.3278 18.5665 27.5841 19.2329 27.7535 19.6739C28.1043 20.5862 28.5018 21.6203 27.9912 22.5028C27.4746 23.3958 26.3707 23.568 25.3969 23.7199C24.9364 23.7918 24.2404 23.9003 24.0702 24.0705C23.9 24.2407 23.7914 24.9366 23.7196 25.3971C23.5676 26.3709 23.3954 27.4747 22.5025 27.9914C21.6199 28.5019 20.5859 28.1044 19.6737 27.7536C19.2327 27.584 18.5661 27.328 18.3212 27.3934C18.1038 27.4515 17.6361 28.0322 17.3848 28.3443C16.7597 29.1204 16.0512 30 15 30Z" fill="currentColor"/>
<path d="M12.0989 21.9828C11.6512 21.7949 11.4407 21.2798 11.6286 20.8322L16.9231 8.21666C17.1109 7.76906 17.626 7.55854 18.0736 7.74639C18.5212 7.93424 18.7318 8.44934 18.5439 8.89693L13.2494 21.5126C13.0615 21.9601 12.5464 22.1706 12.0989 21.9828ZM14.6437 10.6873C14.6437 8.70363 13.1999 7.08984 11.4254 7.08984C9.65078 7.08984 8.20703 8.70363 8.20703 10.6873C8.20703 12.6709 9.65078 14.2847 11.4254 14.2847C13.1999 14.2847 14.6437 12.6708 14.6437 10.6873ZM12.8859 10.6873C12.8859 11.7016 12.2307 12.5269 11.4254 12.5269C10.62 12.5269 9.96484 11.7016 9.96484 10.6873C9.96484 9.67289 10.62 8.84766 11.4254 8.84766C12.2307 8.84766 12.8859 9.67289 12.8859 10.6873ZM21.7942 19.3127C21.7942 17.3291 20.3504 15.7153 18.5758 15.7153C16.8013 15.7153 15.3575 17.3291 15.3575 19.3127C15.3575 21.2964 16.8013 22.9102 18.5759 22.9102C20.3505 22.9102 21.7942 21.2964 21.7942 19.3127ZM20.0363 19.3127C20.0363 20.3271 19.3812 21.1523 18.5758 21.1523C17.7705 21.1523 17.1153 20.3271 17.1153 19.3127C17.1153 18.2984 17.7705 17.4731 18.5758 17.4731C19.3812 17.4731 20.0363 18.2984 20.0363 19.3127Z" fill="white"/>
</svg>
