<svg width="60" height="70" viewBox="0 0 60 70" fill="none" xmlns="http://www.w3.org/2000/svg">
<path d="M55.3662 19.9366C57.5219 19.9366 59.2757 18.1828 59.2757 16.0271V3.90947C59.2755 1.75383 57.5219 0 55.3662 0H4.63372C2.47807 0 0.72438 1.75383 0.72438 3.90947V16.0271C0.72438 18.1828 2.47821 19.9366 4.63385 19.9366H8.92217V25.923H4.63372C2.47807 25.923 0.724243 27.6768 0.724243 29.8324V41.9501C0.724243 44.1057 2.47807 45.8596 4.63372 45.8596H17.701C17.6998 45.8899 17.6966 45.9199 17.6966 45.9504C17.6966 46.566 17.9363 47.1447 18.3716 47.5798C19.1547 48.3629 18.8649 49.2703 18.7574 49.5298C18.65 49.7893 18.2133 50.6358 17.1059 50.6358C15.8354 50.6358 14.8016 51.6696 14.8016 52.9401V55.7931C14.8016 57.0637 15.8354 58.0974 17.1059 58.0974C18.2133 58.0974 18.65 58.944 18.7574 59.2035C18.8649 59.463 19.1547 60.3704 18.3718 61.1533C17.9364 61.5885 17.6966 62.1672 17.6966 62.7828C17.6966 63.3984 17.9363 63.9771 18.3716 64.4122L20.3892 66.4299C20.8244 66.865 21.4031 67.1047 22.0186 67.1047C22.6341 67.1047 23.2128 66.865 23.648 66.4299C24.4326 65.645 25.3396 65.9344 25.599 66.0419C25.8582 66.1493 26.7041 66.5859 26.7041 67.6957C26.7041 68.9663 27.7378 70 29.0083 70H31.8614C33.1319 70 34.1656 68.9663 34.1656 67.6957C34.1656 66.5883 35.0122 66.1516 35.2716 66.0442C35.5311 65.9367 36.4385 65.6469 37.2216 66.43C38.12 67.3282 39.5818 67.3284 40.4804 66.43L42.498 64.4124C42.9331 63.9773 43.1728 63.3985 43.1728 62.783C43.1728 62.1675 42.9331 61.5888 42.498 61.1536C41.7148 60.3705 42.0047 59.4631 42.1122 59.2036C42.2196 58.9442 42.6563 58.0977 43.7637 58.0977C45.0342 58.0977 46.068 57.0639 46.068 55.7934V52.9404C46.068 51.6698 45.0342 50.6361 43.7637 50.6361C42.6563 50.6361 42.2197 49.7896 42.1122 49.5302C42.0047 49.2707 41.7148 48.3632 42.498 47.5802C42.9703 47.1078 43.1918 46.48 43.1675 45.8598H55.3659C57.5216 45.8598 59.2754 44.106 59.2754 41.9504V29.8327C59.2754 27.6769 57.5216 25.9232 55.3659 25.9232H51.0776V19.9369H55.3662V19.9366ZM3.45875 16.0271V3.90947C3.45875 3.26156 3.9858 2.73438 4.63385 2.73438H55.3662C56.0141 2.73438 56.5413 3.26143 56.5413 3.90947V16.0271C56.5413 16.675 56.0143 17.2022 55.3662 17.2022H4.63372C3.9858 17.2022 3.45875 16.675 3.45875 16.0271ZM43.3339 53.3509V55.3824C41.6569 55.5337 40.2444 56.5678 39.5861 58.157C38.9278 59.7464 39.1954 61.4764 40.2741 62.7692L38.8375 64.2059C37.5447 63.127 35.8145 62.8596 34.2253 63.5179C32.636 64.1761 31.602 65.5886 31.4507 67.2656H29.4192C29.268 65.5873 28.2341 64.1737 26.6453 63.5157C25.0563 62.8577 23.3259 63.1261 22.0321 64.206L20.5956 62.7694C21.6745 61.4764 21.942 59.7465 21.2836 58.1571C20.6253 56.5678 19.2129 55.5338 17.5359 55.3824V53.3509C19.2129 53.1997 20.6253 52.1656 21.2836 50.5762C21.9419 48.987 21.6742 47.2568 20.5955 45.964L22.0321 44.5274C23.3249 45.6062 25.0551 45.8738 26.6443 45.2153C28.2336 44.5572 29.2677 43.1446 29.419 41.4676H31.4505C31.6019 43.1445 32.636 44.557 34.2251 45.2153C35.8145 45.8738 37.5445 45.6061 38.8373 44.5274L40.2741 45.964C39.1953 47.257 38.9277 48.987 39.586 50.5764C40.2444 52.1654 41.6569 53.1996 43.3339 53.3509ZM56.5412 29.8324V41.9501C56.5412 42.598 56.0141 43.1252 55.3661 43.1252H41.3024L40.4804 42.3032C39.582 41.405 38.12 41.405 37.2217 42.3032C36.4386 43.0865 35.5312 42.7965 35.2716 42.6891C35.0122 42.5816 34.1656 42.1449 34.1656 41.0375C34.1656 39.767 33.1319 38.7332 31.8614 38.7332H29.0083C27.7378 38.7332 26.7041 39.767 26.7041 41.0375C26.7041 42.1449 25.8575 42.5816 25.598 42.6891C25.3387 42.7967 24.4309 43.0864 23.648 42.3032C22.7495 41.4049 21.2877 41.4047 20.3892 42.3032L19.5674 43.1251H4.63372C3.9858 43.1251 3.45862 42.598 3.45862 41.95V29.8323C3.45862 29.1844 3.98567 28.6572 4.63372 28.6572H55.3661C56.0141 28.6573 56.5412 29.1845 56.5412 29.8324ZM48.3434 25.923H11.6565V19.9366H48.3435V25.923H48.3434ZM43.4959 9.9683C43.4959 10.7234 42.8838 11.3355 42.1287 11.3355H40.4346C39.6795 11.3355 39.0674 10.7234 39.0674 9.9683C39.0674 9.2132 39.6795 8.60111 40.4346 8.60111H42.1287C42.8838 8.60111 43.4959 9.2132 43.4959 9.9683ZM51.9212 9.9683C51.9212 10.7234 51.3091 11.3355 50.554 11.3355H48.8599C48.1048 11.3355 47.4927 10.7234 47.4927 9.9683C47.4927 9.2132 48.1048 8.60111 48.8599 8.60111H50.554C51.3091 8.60111 51.9212 9.2132 51.9212 9.9683ZM34.8771 9.9683C34.8771 10.7234 34.265 11.3355 33.5099 11.3355H9.44594C8.69084 11.3355 8.07875 10.7234 8.07875 9.9683C8.07875 9.2132 8.69084 8.60111 9.44594 8.60111H33.5099C34.265 8.60111 34.8771 9.2132 34.8771 9.9683ZM39.0674 35.8913C39.0674 35.1362 39.6795 34.5241 40.4346 34.5241H42.1287C42.8838 34.5241 43.4959 35.1362 43.4959 35.8913C43.4959 36.6464 42.8838 37.2585 42.1287 37.2585H40.4346C39.6795 37.2585 39.0674 36.6464 39.0674 35.8913ZM47.4927 35.8913C47.4927 35.1362 48.1048 34.5241 48.8599 34.5241H50.554C51.3091 34.5241 51.9212 35.1362 51.9212 35.8913C51.9212 36.6464 51.3091 37.2585 50.554 37.2585H48.8599C48.1048 37.2585 47.4927 36.6464 47.4927 35.8913ZM8.07875 35.8913C8.07875 35.1362 8.69084 34.5241 9.44594 34.5241H33.5099C34.265 34.5241 34.8771 35.1362 34.8771 35.8913C34.8771 36.6464 34.265 37.2585 33.5099 37.2585H9.44594C8.69084 37.2585 8.07875 36.6464 8.07875 35.8913ZM30.4349 47.1808C26.4726 47.1808 23.2491 50.4044 23.2491 54.3668C23.2491 58.329 26.4726 61.5526 30.4349 61.5526C34.3971 61.5526 37.6208 58.329 37.6208 54.3668C37.6207 50.4044 34.3971 47.1808 30.4349 47.1808ZM30.4349 58.818C27.9804 58.818 25.9834 56.8211 25.9834 54.3666C25.9834 51.9121 27.9804 49.9151 30.4349 49.9151C32.8894 49.9151 34.8864 51.912 34.8864 54.3666C34.8864 56.8213 32.8894 58.818 30.4349 58.818Z" fill="#058DF3"/>
</svg>
