<svg width="30" height="30" viewBox="0 0 30 30" fill="none" xmlns="http://www.w3.org/2000/svg">
<g stroke="currentColor" stroke-width="0.878906" stroke-miterlimit="10" stroke-linecap="round" stroke-linejoin="round">
<path d="M11.3343 2.68652C10.4786 2.94264 9.63217 3.2949 8.84766 3.72129"/>
<path d="M3.7024 8.88574C3.27842 9.67195 2.92902 10.5195 2.67578 11.3757"/>
<path d="M2.6875 18.665C2.94361 19.5207 3.29588 20.3671 3.72227 21.1516"/>
<path d="M8.88477 26.2988C9.67098 26.7228 10.5185 27.0722 11.3748 27.3254"/>
<path d="M18.666 27.3131C19.5217 27.057 20.3681 26.7047 21.1526 26.2783"/>
<path d="M26.2988 21.115C26.7228 20.3288 27.0722 19.4813 27.3254 18.625"/>
<path d="M27.3121 11.3343C27.056 10.4786 26.7037 9.63217 26.2773 8.84766"/>
<path d="M21.115 3.70143C20.3288 3.27744 19.4813 2.92805 18.625 2.6748"/>
<path d="M6.92578 13.9742C7.42969 9.96289 10.8527 6.86035 15.0006 6.86035C16.0236 6.86035 17.0021 7.04902 17.9039 7.39356"/>
<path d="M6.92578 16.0254C7.42969 20.0367 10.8527 23.1393 15.0006 23.1393C18.4195 23.1393 21.3457 21.0316 22.551 18.0451"/>
<path d="M19.7129 8.36328C21.7871 9.83809 23.14 12.2609 23.14 15.0002C23.14 15.3594 23.1166 15.7139 23.0715 16.0607"/>
<path d="M13.8758 7.01953C14.4286 7.68434 14.6643 8.55937 14.5172 9.41461C14.4636 9.72586 14.3249 10.0161 14.1163 10.2533L14.0208 10.3619C13.7653 10.6525 13.6761 11.0535 13.7845 11.425C13.953 12.0029 13.6392 12.6115 13.0706 12.8093C12.7385 12.9248 12.3694 12.8355 12.1269 12.5809L11.2988 11.7116C11.0372 11.437 10.9308 11.0497 11.0153 10.68L11.133 10.1646C11.2578 9.61875 10.9642 9.06381 10.4427 8.8599L9.99609 8.68523"/>
<path d="M22.514 12.099L20.6341 11.6812C20.1478 11.5731 19.6407 11.7287 19.2986 12.0909C18.9614 12.4479 18.9629 13.0065 19.302 13.3617L19.6185 13.6932C19.9134 14.0021 19.9577 14.4731 19.7257 14.8317C19.5153 15.1569 19.1241 15.3161 18.7463 15.2303C18.2411 15.1154 17.7234 15.3647 17.4981 15.8313C17.1469 16.5588 17.1962 17.416 17.6284 18.0985L17.7065 18.2217C18.0153 18.7093 18.5987 18.9481 19.1608 18.817C19.7947 18.6691 20.4432 18.998 20.6982 19.5968L21.0371 20.3925"/>
<path d="M8.31385 10.5059L9.19135 13.0548C9.28357 13.3227 9.47963 13.5422 9.73545 13.664L10.9462 14.2403C11.2374 14.3789 11.4492 14.643 11.5212 14.9574C11.6313 15.4383 11.3935 15.9312 10.9486 16.1444L10.5742 16.3239C10.2653 16.4719 10.0475 16.7606 9.98998 17.0983L9.96725 17.232C9.87772 17.7581 9.40932 18.1345 8.87623 18.1087L7.53906 18.0441"/>
<path d="M14.3356 20.2606L15.0052 19.2107C15.3144 18.7258 15.1972 18.0845 14.7364 17.7404C14.0254 17.2092 13.0247 17.3186 12.4452 17.9908L12.2411 18.2277C11.9593 18.5544 11.8951 19.0159 12.0768 19.4072L12.4136 20.1327C12.5677 20.4645 12.8769 20.6979 13.2384 20.755C13.6699 20.8231 14.1008 20.6289 14.3356 20.2606Z"/>
<path d="M14.19 0.644967C14.8321 0.295163 15.6529 0.391901 16.1962 0.935241C16.7915 1.53049 16.8589 2.47268 16.3544 3.14657L14.9993 4.95659L13.6443 3.14657C13.1398 2.47268 13.2072 1.53049 13.8024 0.935241C13.9202 0.817467 14.0509 0.720729 14.19 0.644967Z"/>
<path d="M4.27777 5.42143C4.48449 4.72 5.1333 4.20801 5.90164 4.20801C6.74346 4.20801 7.45736 4.82664 7.57713 5.65984L7.89887 7.89789L5.66082 7.57615C4.82756 7.45639 4.20898 6.74248 4.20898 5.90066C4.20898 5.73426 4.23301 5.57342 4.27777 5.42143Z"/>
<path d="M0.644967 15.8097C0.295163 15.1675 0.391901 14.3468 0.935241 13.8034C1.53049 13.2082 2.47268 13.1408 3.14657 13.6453L4.95659 15.0003L3.14657 16.3554C2.47268 16.8599 1.53049 16.7925 0.935241 16.1972C0.817467 16.0795 0.720729 15.9488 0.644967 15.8097Z"/>
<path d="M5.4224 25.7227C4.72098 25.5159 4.20898 24.8671 4.20898 24.0988C4.20898 23.257 4.82762 22.5431 5.66082 22.4233L7.89887 22.1016L7.57713 24.3396C7.45736 25.1729 6.74346 25.7914 5.90164 25.7914C5.73523 25.7914 5.57439 25.7674 5.4224 25.7227Z"/>
<path d="M15.8087 29.3546C15.1666 29.7044 14.3458 29.6077 13.8024 29.0643C13.2072 28.4691 13.1398 27.5269 13.6443 26.853L14.9993 25.043L16.3544 26.853C16.8589 27.5269 16.7915 28.4691 16.1962 29.0643C16.0785 29.1821 15.9478 29.2788 15.8087 29.3546Z"/>
<path d="M25.7227 24.5783C25.5159 25.2798 24.8671 25.7917 24.0988 25.7917C23.257 25.7917 22.5431 25.1731 22.4233 24.3399L22.1016 22.1018L24.3396 22.4235C25.1729 22.5433 25.7914 23.2572 25.7914 24.099C25.7914 24.2655 25.7674 24.4263 25.7227 24.5783Z"/>
<path d="M29.3546 14.191C29.7044 14.8331 29.6077 15.6539 29.0643 16.1972C28.4691 16.7925 27.5269 16.8599 26.853 16.3554L25.043 15.0003L26.853 13.6453C27.5269 13.1408 28.4691 13.2082 29.0643 13.8034C29.1821 13.9211 29.2788 14.0519 29.3546 14.191Z"/>
<path d="M24.5781 4.2768C25.2795 4.48352 25.7914 5.13232 25.7914 5.90066C25.7914 6.74248 25.1729 7.45639 24.3396 7.57615L22.1016 7.89789L22.4233 5.65984C22.5431 4.82658 23.257 4.20801 24.0988 4.20801C24.2653 4.20801 24.4261 4.23203 24.5781 4.2768Z"/>
</g>
<g fill="currentColor">
<circle cx="15" cy="2.12012" r="0.439453"/>
<circle cx="5.89258" cy="5.89258" r="0.439453"/>
<circle cx="2.11914" cy="15" r="0.439453"/>
<circle cx="5.89258" cy="24.1074" r="0.439453"/>
<circle cx="15" cy="27.8799" r="0.439453"/>
<circle cx="24.1074" cy="24.1074" r="0.439453"/>
<circle cx="27.8809" cy="15" r="0.439453"/>
<circle cx="24.1074" cy="5.89258" r="0.439453"/>
</g>
</svg>
