<svg xmlns="http://www.w3.org/2000/svg" fill="none" viewBox="0 0 30 30"><symbol id="a" viewBox="0 0 7.498 7.5"><path fill="currentColor" stroke-width=".239" d="m1.562 1.64-.197-.492.396-.396A.112.112 0 0 0 1.682.56h-.484L1.002.07a.112.112 0 0 0-.209 0L.597.56H.112C.013.56-.037.681.033.751l.397.397-.197.492c-.04.099.07.193.162.138l.503-.302.502.302c.092.055.202-.039.162-.138zm-.607-.39a.112.112 0 0 0-.116 0l-.275.164.101-.252a.112.112 0 0 0-.025-.12L.383.784h.29a.112.112 0 0 0 .104-.07l.12-.3.12.3c.017.042.059.07.104.07h.29l-.257.258a.112.112 0 0 0-.025.12l.101.252z"/></symbol><g fill="currentColor"><path d="M19.69 23.44h-2.344v-1.103a4.706 4.706 0 0 0 2.25-3.116h.562c.924 0 1.712-.678 1.85-1.59a1.873 1.873 0 0 0-1.296-2.066l.31-1.547a3.88 3.88 0 0 0-3.806-4.64h-1.04a.235.235 0 0 1-.235-.234c0-.646-.526-1.172-1.172-1.172h-1.453a4.414 4.414 0 0 0-3.328 1.52 4.411 4.411 0 0 0-1.032 3.51l.365 2.555a1.873 1.873 0 0 0-1.328 2.06c.132.92.924 1.607 1.854 1.605h.562a4.702 4.702 0 0 0 2.25 3.116v1.103h-2.344a5.17 5.17 0 0 0-5.156 5.156v.468c0 .258.21.469.469.469h18.75a.47.47 0 0 0 .469-.469v-.468a5.17 5.17 0 0 0-5.156-5.156zm-6.562 1.055 1.162.87-1.162 1.163-1.162-1.162zm3.75 0 1.162.87-1.162 1.163-1.162-1.162zm4.219-7.148c0 .516-.42.937-.938.937h-.468V16.41h.468c.517 0 .938.421.938.938zm-11.25.937a.939.939 0 0 1-.937-.937c0-.517.42-.938.937-.938h.469v1.875zm.469-2.812h-.064L9.88 12.87a3.473 3.473 0 0 1 .814-2.765 3.474 3.474 0 0 1 2.622-1.196h1.453c.13 0 .234.106.234.235 0 .646.526 1.172 1.172 1.172h1.041a2.942 2.942 0 0 1 2.886 3.52l-.327 1.636h-.084c-.001-.442-.21-.86-.563-1.125l-1.007-.756a1.185 1.185 0 0 0-1.54.11.242.242 0 0 1-.342 0l-1.51-1.51a1.644 1.644 0 0 0-2.264 0l-1.326 1.326a2.798 2.798 0 0 0-.824 1.956zm.937 2.812v-2.779a1.867 1.867 0 0 1 .55-1.326l1.325-1.326a.664.664 0 0 1 .938 0l1.51 1.51a1.208 1.208 0 0 0 1.667 0 .242.242 0 0 1 .315-.022l1.007.756a.469.469 0 0 1 .187.375v2.812c0 2.066-1.683 3.75-3.75 3.75s-3.75-1.684-3.75-3.75zm5.156 4.472v.92l-1.406 1.055-1.406-1.055v-.92c.917.289 1.9.287 2.812 0zM6.1 28.597a4.23 4.23 0 0 1 4.22-4.219h1.405l-.75.563a.47.47 0 0 0-.05.706l1.875 1.875a.47.47 0 0 0 .663 0l1.544-1.544 1.544 1.544a.47.47 0 0 0 .663 0l1.875-1.875a.47.47 0 0 0-.05-.706l-.75-.563h1.406a4.231 4.231 0 0 1 4.219 4.22z"/><use href="#a" transform="translate(.613 3.282)"/><use href="#a" transform="translate(7.173 .285)"/><use href="#a" transform="translate(15.61 .475)"/><use href="#a" transform="translate(22.17 3.282)"/></g></svg>