<svg width="51" height="50" viewBox="0 0 51 50" fill="none" xmlns="http://www.w3.org/2000/svg">
<path d="M25.5 50C11.6928 50 0.5 38.8072 0.5 25C0.5 11.1928 11.6928 0 25.5 0C39.3072 0 50.5 11.1928 50.5 25C50.5 38.8072 39.3072 50 25.5 50ZM25.5 3.57143C13.6653 3.57143 4.07143 13.1653 4.07143 25C4.07143 36.8347 13.6653 46.4286 25.5 46.4286C37.3347 46.4286 46.9286 36.8347 46.9286 25C46.9286 13.1653 37.3347 3.57143 25.5 3.57143Z" fill="#058DF3"/>
<path d="M23.4642 35.7142C23.0216 35.713 22.5952 35.5477 22.2678 35.2499L13.8213 27.4463C13.1394 26.7337 13.1642 25.6034 13.8768 24.9215C14.5252 24.3008 15.5334 24.2581 16.232 24.8213L23.232 31.3035L35.732 14.9642C36.3288 14.1751 37.4519 14.0192 38.241 14.616C39.0301 15.2128 39.1859 16.3358 38.5892 17.1249L24.982 34.9821C24.6835 35.3962 24.2219 35.6626 23.7142 35.7142H23.4642Z" fill="#058DF3"/>
</svg>
