<svg width="30" height="30" viewBox="0 0 30 30" fill="none" xmlns="http://www.w3.org/2000/svg">
<path d="M16.2006 23.6784L19.5218 25.4237C20.3725 25.871 21.4034 25.7964 22.1811 25.2317C22.9587 24.6669 23.3485 23.7095 23.1863 22.7624L22.5509 19.0712C22.4105 18.2525 22.6817 17.4173 23.2763 16.8373L25.9632 14.2176C26.6517 13.5469 26.8994 12.5435 26.6023 11.6296C26.3054 10.7156 25.5152 10.0496 24.5641 9.9115L20.8515 9.37578C20.0291 9.25624 19.3178 8.73989 18.9498 7.99465L17.289 4.63048C16.8639 3.76857 15.9863 3.22266 15.025 3.22266C14.064 3.22266 13.1864 3.76857 12.7611 4.63048L11.1006 7.99465C10.7328 8.73989 10.0221 9.25624 9.19967 9.37578L5.48629 9.9115C4.53519 10.0496 3.74496 10.7156 3.4478 11.6296C3.15091 12.5435 3.39863 13.5469 4.08684 14.2176L6.77404 16.8373C7.36835 17.4173 7.63961 18.2525 7.4994 19.0712L6.86507 22.7697C6.70237 23.7169 7.0916 24.6745 7.86928 25.2395C8.64669 25.8043 9.67784 25.8788 10.5282 25.4313L13.8498 23.6857C14.5843 23.2962 15.4634 23.2936 16.2006 23.6784Z" fill="currentColor"/>
</svg>
