<svg width="81" height="80" viewBox="0 0 81 80" fill="none" xmlns="http://www.w3.org/2000/svg">
<path d="M19.1866 72.0006H62.1333C64.2666 72.0006 65.9999 70.2006 65.9999 68.0006V20.0006C65.9999 17.8006 64.2666 16.0006 62.1333 16.0006H53.9599C52.7466 14.3872 50.8266 13.3339 48.6666 13.3339H45.9999C45.8933 10.4672 43.7199 8.14722 40.9599 8.01389C39.4799 7.93389 38.0799 8.45389 36.9999 9.46722C35.9333 10.4672 35.3333 11.8806 35.3333 13.3339H32.6666C30.4933 13.3339 28.5866 14.3872 27.3733 16.0006H19.1999C17.0666 16.0006 15.3333 17.8006 15.3333 20.0006V68.0006C15.3333 70.2006 17.0666 72.0006 19.1866 72.0006ZM32.6666 16.0006H36.6666C37.3999 16.0006 37.9999 15.4006 37.9999 14.6672V13.3339C37.9999 12.6006 38.2933 11.9072 38.8266 11.4006C39.3599 10.8939 40.0666 10.6406 40.8133 10.6672C42.1999 10.7472 43.3333 12.0406 43.3333 13.5606V14.6672C43.3333 15.4006 43.9333 16.0006 44.6666 16.0006H48.6666C50.3999 16.0006 51.8933 17.1206 52.4399 18.6672H28.8933C29.4399 17.1206 30.9333 16.0006 32.6666 16.0006ZM17.9999 20.0006C17.9999 19.2672 18.5333 18.6672 19.1866 18.6672H26.1333C26.0399 19.0939 25.9999 19.5472 25.9999 20.0006C25.9999 20.7339 26.5999 21.3339 27.3333 21.3339H53.9999C54.7333 21.3339 55.3333 20.7339 55.3333 20.0006C55.3333 19.5472 55.2799 19.0939 55.1999 18.6672H62.1466C62.7999 18.6672 63.3466 19.2672 63.3466 20.0006V68.0006C63.3466 68.7339 62.8133 69.3339 62.1466 69.3339H19.1866C18.5333 69.3339 17.9999 68.7339 17.9999 68.0006V20.0006Z" fill="#00152D"/>
<path d="M36.6666 34.6667H59.3333C60.0666 34.6667 60.6666 34.0667 60.6666 33.3333C60.6666 32.6 60.0666 32 59.3333 32H36.6666C35.9333 32 35.3333 32.6 35.3333 33.3333C35.3333 34.0667 35.9333 34.6667 36.6666 34.6667Z" fill="#00152D"/>
<path d="M25.0133 35.5601C25.2666 35.8534 25.64 36.0001 26 36.0001C26.2933 36.0001 26.5866 35.9067 26.8266 35.7067L33.4933 30.3734C34.0666 29.9201 34.16 29.0801 33.7066 28.4934C33.2533 27.9201 32.4133 27.8267 31.8266 28.2801L26.1466 32.8267L24.32 30.8001C23.8266 30.2534 22.9866 30.2134 22.44 30.7067C21.8933 31.2001 21.8533 32.0401 22.3466 32.5867L25.0133 35.5601Z" fill="#00152D"/>
<path d="M36.6666 48.0007H59.3333C60.0666 48.0007 60.6666 47.4007 60.6666 46.6673C60.6666 45.934 60.0666 45.334 59.3333 45.334H36.6666C35.9333 45.334 35.3333 45.934 35.3333 46.6673C35.3333 47.4007 35.9333 48.0007 36.6666 48.0007Z" fill="#00152D"/>
<path d="M25.0133 48.8931C25.2666 49.1864 25.64 49.3331 26 49.3331C26.2933 49.3331 26.5866 49.2397 26.8266 49.0397L33.4933 43.7064C34.0666 43.2531 34.16 42.4131 33.7066 41.8264C33.2533 41.2531 32.4133 41.1597 31.8266 41.6131L26.1466 46.1597L24.32 44.1331C23.8266 43.5864 22.9866 43.5464 22.44 44.0397C21.8933 44.5331 21.8533 45.3731 22.3466 45.9197L25.0133 48.8931Z" fill="#00152D"/>
<path d="M36.6666 61.3327H59.3333C60.0666 61.3327 60.6666 60.7327 60.6666 59.9993C60.6666 59.266 60.0666 58.666 59.3333 58.666H36.6666C35.9333 58.666 35.3333 59.266 35.3333 59.9993C35.3333 60.7327 35.9333 61.3327 36.6666 61.3327Z" fill="#00152D"/>
<path d="M25.0133 62.227C25.2666 62.5204 25.64 62.6671 26 62.6671C26.2933 62.6671 26.5866 62.5737 26.8266 62.3737L33.4933 57.0404C34.0666 56.587 34.16 55.747 33.7066 55.1604C33.2533 54.587 32.4133 54.4937 31.8266 54.947L26.1466 59.4937L24.32 57.467C23.8266 56.9204 22.9866 56.8804 22.44 57.3737C21.8933 57.867 21.8533 58.707 22.3466 59.2537L25.0133 62.227Z" fill="#00152D"/>
</svg>
