<svg width="15" height="13" viewBox="0 0 15 13" fill="none" xmlns="http://www.w3.org/2000/svg">
<path fill-rule="evenodd" clip-rule="evenodd" d="M1.65782 5.66825C5.30182 4.08061 7.73173 3.03395 8.94754 2.52825C12.4189 1.08438 13.1402 0.833566 13.6104 0.825284C13.7138 0.823462 13.945 0.849089 14.0948 0.970613C14.2212 1.07323 14.256 1.21184 14.2727 1.30913C14.2893 1.40642 14.3101 1.62804 14.2936 1.80121C14.1055 3.77776 13.2915 8.57431 12.8774 10.7881C12.7022 11.7248 12.3571 12.0389 12.0231 12.0696C11.2972 12.1364 10.746 11.5899 10.0429 11.129C8.94278 10.4079 8.32126 9.95893 7.25336 9.2552C6.01922 8.44192 6.81926 7.99492 7.5226 7.26441C7.70666 7.07323 10.905 4.16411 10.9669 3.9002C10.9746 3.8672 10.9818 3.74417 10.9087 3.67921C10.8356 3.61424 10.7278 3.63646 10.6499 3.65412C10.5396 3.67917 8.78205 4.84083 5.37735 7.1391C4.87848 7.48166 4.42662 7.64857 4.02177 7.63982C3.57546 7.63018 2.71693 7.38747 2.0787 7.18C1.29589 6.92554 0.673721 6.79101 0.727898 6.35885C0.756117 6.13376 1.06609 5.90356 1.65782 5.66825Z" fill="currentColor"/>
</svg>
