<svg width="14" height="15" viewBox="0 0 14 15" fill="none" xmlns="http://www.w3.org/2000/svg">
<path d="M13.3273 3.86218C12.514 3.86218 11.7637 3.59278 11.1612 3.13829C10.4701 2.6173 9.97363 1.85306 9.79829 0.972203C9.75488 0.754564 9.7315 0.529968 9.72927 0.299805H7.40621V6.64751L7.40343 10.1244C7.40343 11.054 6.79811 11.8422 5.959 12.1194C5.71548 12.1998 5.45247 12.2379 5.17862 12.2229C4.82906 12.2037 4.50149 12.0982 4.21677 11.9279C3.61089 11.5655 3.20011 10.9082 3.18897 10.1562C3.17144 8.98087 4.12159 8.02264 5.29606 8.02264C5.5279 8.02264 5.75054 8.06049 5.959 8.12924V6.39425V5.77056C5.73913 5.73799 5.51537 5.72102 5.2891 5.72102C4.00359 5.72102 2.80129 6.25537 1.94186 7.21805C1.29229 7.94555 0.902652 8.87372 0.842537 9.84697C0.763775 11.1255 1.23161 12.3409 2.13891 13.2376C2.27222 13.3693 2.41221 13.4914 2.5586 13.6042C3.33648 14.2028 4.28747 14.5273 5.2891 14.5273C5.51537 14.5273 5.73913 14.5106 5.959 14.4781C6.89468 14.3395 7.758 13.9111 8.4393 13.2376C9.27646 12.4102 9.73901 11.3117 9.74402 10.1425L9.73206 4.95037C10.1314 5.25846 10.5681 5.5134 11.0368 5.71128C11.7657 6.01881 12.5385 6.17466 13.334 6.17438V4.48754V3.86162C13.3345 3.86218 13.3278 3.86218 13.3273 3.86218Z" fill="currentColor"/>
</svg>
