<svg width="30" height="30" viewBox="0 0 30 30" fill="none" xmlns="http://www.w3.org/2000/svg">
<circle cx="15" cy="15" r="15" fill="black"/>
<path d="M12.166 15.3387C10.5857 15.3387 9.30899 16.6154 9.33235 18.1801C9.34792 19.1843 9.90063 20.0562 10.7141 20.5428C10.4378 20.1185 10.2743 19.6164 10.2665 19.0754C10.2432 17.5106 11.5198 16.2339 13.1001 16.2339C13.4115 16.2339 13.7112 16.2845 13.9915 16.3741V13.2407C13.6996 13.1979 13.3998 13.1746 13.1001 13.1746C13.0846 13.1746 13.0729 13.1746 13.0573 13.1746V15.4788C12.7771 15.3893 12.4774 15.3387 12.166 15.3387Z" fill="#F00044"/>
<path d="M18.997 5.94214H18.9737H18.1641C18.3976 7.11374 19.0554 8.13353 19.974 8.82637C19.3707 8.02844 19.0048 7.032 18.997 5.94214Z" fill="#F00044"/>
<path d="M23.762 10.7104C23.4545 10.7104 23.1587 10.6792 22.8668 10.6248V12.8706C21.8081 12.8706 20.7805 12.6643 19.8152 12.2518C19.1924 11.9871 18.6124 11.6484 18.0792 11.2397L18.0948 18.1642C18.087 19.7212 17.472 21.1808 16.3588 22.2823C15.4519 23.1776 14.3036 23.7498 13.0581 23.9327C12.7661 23.9755 12.4664 23.9989 12.1667 23.9989C10.8355 23.9989 9.56663 23.5668 8.53516 22.7689C8.65193 22.909 8.77648 23.0452 8.91271 23.1776C10.0337 24.283 11.5206 24.8941 13.1048 24.8941C13.4045 24.8941 13.7042 24.8707 13.9961 24.8279C15.2417 24.645 16.3899 24.0728 17.2968 23.1776C18.41 22.076 19.025 20.6164 19.0328 19.0595L18.9744 12.135C19.5038 12.5437 20.0837 12.8862 20.7104 13.147C21.6796 13.5557 22.7072 13.7659 23.762 13.7659" fill="#F00044"/>
<path d="M8.90066 14.8986C10.01 13.7971 11.4852 13.186 13.0577 13.1743V12.3452C12.7658 12.3024 12.4661 12.2791 12.1663 12.2791C10.5783 12.2791 9.0875 12.8902 7.9665 14.0034C6.86497 15.0971 6.23441 16.5918 6.2383 18.1448C6.2383 19.7095 6.85718 21.177 7.97429 22.2863C8.15333 22.4614 8.33627 22.6249 8.53089 22.7728C7.65122 21.7258 7.17246 20.418 7.16857 19.0401C7.17246 17.487 7.79913 15.9924 8.90066 14.8986Z" fill="#08FFF9"/>
<path d="M22.8666 10.6242V9.79123H22.8589C21.7768 9.79123 20.7803 9.43313 19.9785 8.82593C20.6752 9.74452 21.695 10.3984 22.8666 10.6242Z" fill="#08FFF9"/>
<path d="M12.9413 21.8304C13.311 21.8499 13.6652 21.7993 13.9922 21.6942C15.121 21.3244 15.9345 20.2735 15.9345 19.0357L15.9384 14.4038V5.94187H18.1648C18.1064 5.64994 18.0753 5.35413 18.0714 5.04663H15.0042V13.5047L15.0003 18.1366C15.0003 19.3744 14.1868 20.4253 13.058 20.7951C12.7311 20.9041 12.3769 20.9547 12.0071 20.9313C11.5361 20.9041 11.0963 20.7639 10.7148 20.5382C11.1936 21.2777 12.011 21.7798 12.9413 21.8304Z" fill="#08FFF9"/>
<path d="M13.0571 23.9326C14.3027 23.7496 15.4509 23.1775 16.3578 22.2822C17.471 21.1807 18.086 19.721 18.0938 18.1641L18.0782 11.2396C18.6076 11.6483 19.1876 11.9908 19.8142 12.2516C20.7834 12.6603 21.811 12.8705 22.8658 12.8705V10.6246C21.6942 10.3989 20.6744 9.74496 19.9777 8.82637C19.0591 8.13353 18.3974 7.11374 18.1678 5.94214H15.9375V14.4002L15.9336 19.0321C15.9336 20.2699 15.1201 21.3208 13.9913 21.6906C13.6643 21.7996 13.3101 21.8502 12.9404 21.8268C12.0062 21.7762 11.1927 21.2741 10.7139 20.5384C9.90043 20.0558 9.34772 19.18 9.33215 18.1758C9.30879 16.6111 10.5855 15.3344 12.1658 15.3344C12.4772 15.3344 12.7769 15.385 13.0571 15.4745V13.1702C11.4846 13.1819 10.0094 13.793 8.90009 14.8945C7.79856 15.9883 7.168 17.4829 7.17189 19.0321C7.17189 20.41 7.65065 21.7178 8.53421 22.7649C9.56958 23.5628 10.8346 23.9948 12.1658 23.9948C12.4655 23.9987 12.7652 23.9754 13.0571 23.9326Z" fill="white"/>
</svg>
