<svg xmlns="http://www.w3.org/2000/svg" width="178" height="217" fill="none" viewBox="0 0 178 217"><path fill="#F9A789" d="M177.54 217.53c-55.5.35-121.68.35-177.2 0C6.94 175.47 5 155.9 36.36 145.2c7.26-2.47 16.32-4.47 27.67-6.17l.01-.05c.84-5.2 2.62-16.49 3.44-21.76 11.5-.49 31.4-.49 42.88 0l3.17 19.87.22 1.36.08.58c9.74 1.48 17.78 3.16 24.46 5.17 34.86 10.47 32.35 29.82 39.25 73.32Z"/><path fill="#ED8472" d="M113.54 137.1c-23.6 2.77-40.3-2.95-48.14-6.6l2.1-13.28 19.8-.47 1.64-.03 1.63.03 19.8.47 3.17 19.88Z"/><path fill="#CED4DB" d="m64.07 135.95 24.43 19.04 26.02-18.68.11 17.59-25.89 16.73-28.7-27.23"/><path fill="#136574" d="M177.54 217.53a15044 15044 0 0 1-144.25.16c-11.28-.05-22.31-.09-32.95-.16 5.17-33.04 5.1-52.18 20.02-64.07 4.06-3.25 9.27-5.96 16-8.25l14.66.2 37.86 24.35 49.4-25.56c7.41 2.23 13.13 4.86 17.6 8.04 16.62 11.75 16.23 31.03 21.66 65.29Z"/><path fill="#71A3AC" d="M177.54 217.53c-11.51.07-23.48.12-35.72.16v-30.12c0-13.67 5.35-26.1 14.07-35.33 16.61 11.75 16.22 31.03 21.65 65.29ZM33.3 187.57v30.12c-11.28-.05-22.31-.09-32.95-.16 5.17-33.04 5.1-52.18 20.02-64.07a51.3 51.3 0 0 1 12.93 34.11Z"/><path fill="#fff" d="m88.52 154.91-7.16 8.75-17.82-19.1.67-8.45 24.31 18.8ZM114.22 136.2l-25.75 18.81 7.42 8.97 22.2-25.4-3.88-2.37Z"/><path fill="#71A3AC" d="m64.43 139.09 1.99-14.36s-14.58-5.07-23.92 12.83l46.45 33.84 46.4-32.37s-9.63-17.58-23.95-15.4l2.34 14.62-24.79 31.16-24.52-30.32Z"/><path fill="#71A3AC" d="m89.36 171.26 44.25-35.31s5.6-1.3 10.38 2.17c3.82 2.78 3.05 8.73-1.3 10.57l-53.33 22.57ZM88.88 171.14l-44.96-35.2s-6.94-2.65-11.76 3.13a5.32 5.32 0 0 0 2.06 8.23l54.66 23.84Z"/><path stroke="#fff" stroke-linecap="round" stroke-miterlimit="10" stroke-width="1.0431" d="M96.85 167.01c-2.21 11.56 3.74 23.53 1.49 35.1M79.96 166.27c2.76 3.78 3.14 8.83 2.39 13.45-.74 4.62-2.48 9-3.59 13.55-1.12 4.53-1.58 9.46.2 13.79"/><path fill="#D46F35" d="M138.82 48.17c-.08 12.49-.67 25.23-5.18 36.88-4.53 11.66-13.64 22.18-25.4 25.9-14.1-1.67-28.19-3.37-41.58-5-3.82-1.68-4.7-3.43-12.95-6.4-11.45-13.93-16.3-31.22-15.55-48.15.17-3.87.63-7.7 1.36-11.48-3.96-1.5-5.25-4.6-5.1-7.5.15-2.9 1.53-5.61 3.22-7.98a31.33 31.33 0 0 1 20.62-12.62 6.8 6.8 0 0 1 1.63-7.36c1.8-1.7 4.28-2.5 6.7-3.07C80.3-1.85 95.16.65 107.4 8.1a54.6 54.6 0 0 1 13.56 11.73c5.02.61 10.12 1.55 14.59 3.94 4.46 2.4 8.26 6.44 9.24 11.38.98 4.95-1.47 10.66-5.97 13.01Z"/><path fill="#ED8472" d="M139.31 93.64c7.9-2.55 12.67-9.7 10.65-15.96-2.02-6.27-10.06-9.29-17.96-6.74-7.9 2.55-12.67 9.7-10.65 15.96 2.02 6.27 10.06 9.28 17.96 6.74Z"/><path fill="#D9675F" d="M135.72 76.45c5.01-1.14 9.8 1.1 10.69 5 .88 3.9-2.45 7.98-7.47 9.12-5 1.14-9.79-1.1-10.68-4.99-.89-3.9 2.45-7.98 7.46-9.13Z" opacity="0.749"/><path fill="#B84954" d="M144.13 77.96a11.88 11.88 0 0 0-7.97-2.6 12 12 0 0 0-7.7 3.36l.34 2.26a12.67 12.67 0 0 1 7.52-4.18c2.87-.46 5.87.15 7.81 1.16Z"/><path fill="#ED8472" d="M26.36 77.65c2.02-6.27 10.07-9.28 17.97-6.74 7.9 2.55 12.67 9.7 10.65 15.96-2.02 6.27-10.06 9.28-17.97 6.74-7.9-2.55-12.67-9.7-10.65-15.96Z"/><path fill="#D9675F" d="M29.96 81.4c.89-3.9 5.67-6.13 10.68-4.99 5.01 1.15 8.35 5.23 7.46 9.13-.88 3.9-5.67 6.13-10.68 4.99-5-1.14-8.35-5.23-7.46-9.13Z" opacity="0.749"/><path fill="#B84954" d="M32.22 77.96a11.88 11.88 0 0 1 7.97-2.6c2.84.14 5.62 1.35 7.7 3.36l-.34 2.26a12.67 12.67 0 0 0-7.52-4.18c-2.87-.46-5.87.15-7.81 1.16Z"/><path fill="#F9A789" d="M135.35 67.19c0 30.92-21.13 61.97-47.18 61.97-3.77 0-7.44-.65-10.95-1.86-20.78-7.11-36.24-33.66-36.24-60.11v-.2c.08-30.82 21.18-49.83 47.19-49.83 26.05 0 47.18 19.1 47.18 50.03Z"/><path fill="#D46F35" d="M76.4 66.95c-2.81-3.03-7.35-4.83-12.34-4.48-4.97.35-9.2 2.75-11.58 6.12a12.05 12.05 0 0 1 23.92-1.65ZM99.95 66.95c2.81-3.03 7.35-4.83 12.33-4.48 4.98.35 9.22 2.75 11.58 6.12a12.05 12.05 0 0 0-23.92-1.65Z"/><path fill="#020A0C" d="M69.02 80.78a2.94 2.94 0 1 0 0-5.89 2.94 2.94 0 0 0 0 5.89ZM106.85 80.78a2.94 2.94 0 1 0 0-5.89 2.94 2.94 0 0 0 0 5.89Z"/><path fill="#DF6E64" d="M84.8 112.17c2.7.66 5.52.86 8.3.59a4.86 4.86 0 0 1-4.28 2.46 4.25 4.25 0 0 1-4.02-3.05Z"/><path stroke="#DF6E64" stroke-linecap="round" stroke-miterlimit="10" stroke-width="2.08621" d="M87.96 76.2c-.83 3.6-.47 7.48 1.4 10.83l-1.42 7.18M76.04 100.63a28.01 28.01 0 0 0 26.12-1.24"/><path fill="#D46F35" d="M98.79 13.57c-15.74-3.79-33.82-1.21-45.44 10.07-8.25 8-12.42 19.54-13.32 31.02a90.01 90.01 0 0 0 4.23 34.12c-1.5-8.58-1.3-14.01 1.16-20.4 2.46-6.38 5.92-12.46 7.19-19.19 2.28 3.3 7.6 3.75 12.14 2.45 4.54-1.29 8.47-4.09 12.3-6.82-1.62 2.34-.28 5.02 1.76 6.26 2.05 1.24 4.57 1.37 6.96 1.23 11.29-.64 22.19-6.45 29.64-14.93.6 3.9 1.25 7.92 3.37 11.23 2.13 3.3 6.18 5.74 9.9 5.55.67 4.85 2.72 9.39 4.2 14.07s1.1 8.97.84 14.98c2.63-7.71 3.29-15.76 3.04-23.6-.25-7.85-2.02-15.78-6.05-22.52a51.96 51.96 0 0 0-31.92-23.52Z"/><path fill="#F7AD5E" d="M107.4 8.13a68.28 68.28 0 0 0-25.56-3.05c-2.9.2-5.93.67-8.23 2.43-2.32 1.75-3.57 5.2-2.04 7.98a49.86 49.86 0 0 0-21.65 6.74c-2.79 1.65-5.51 3.7-6.87 6.62a7.34 7.34 0 0 0 2.5 9.2 41.37 41.37 0 0 0-7.39 13.35c.17-3.87.63-7.7 1.36-11.48-3.96-1.5-5.25-4.6-5.1-7.5.15-2.9 1.53-5.61 3.22-7.98a31.33 31.33 0 0 1 20.62-12.62 6.8 6.8 0 0 1 1.63-7.36c1.8-1.7 4.28-2.5 6.7-3.07C80.3-1.84 95.15.66 107.4 8.13Z" opacity="0.702"/></svg>