<svg width="30" height="30" viewBox="0 0 30 30" fill="none" xmlns="http://www.w3.org/2000/svg">
<path d="M15 30C23.2843 30 30 23.2843 30 15C30 6.71573 23.2843 0 15 0C6.71573 0 0 6.71573 0 15C0 23.2843 6.71573 30 15 30Z" fill="#6F3FAA"/>
<g fill="white">
<path d="M23.6638 10.1333V10.1111C23.4627 9.29636 22.9377 8.45431 22.2491 7.74522C21.4445 6.9134 20.4201 6.26056 19.4417 6.0492H19.4212C16.5034 5.49011 13.506 5.49011 10.5883 6.0492H10.5678C8.75077 6.44295 6.77861 8.34181 6.33884 10.1111V10.1333C5.79851 12.5863 5.79851 15.1275 6.33884 17.5804V17.6009C6.65247 18.8623 7.74338 20.1884 9.00134 20.9895C9.41216 21.2573 9.85935 21.4645 10.3292 21.6049V23.5787C10.3298 23.7365 10.3775 23.8905 10.466 24.021C10.5545 24.1516 10.6798 24.2529 10.8261 24.312C10.9724 24.371 11.1329 24.3852 11.2873 24.3527C11.4416 24.3201 11.5828 24.2424 11.6928 24.1293L13.694 22.0498C14.1269 22.0736 14.5633 22.0873 14.9962 22.0873C16.4783 22.0868 17.957 21.9464 19.4127 21.6679H19.4332C21.2451 21.2725 23.219 19.3736 23.6553 17.6043V17.5839C24.1989 15.1304 24.2019 12.588 23.6638 10.1333ZM22.0803 17.2157C21.7871 18.3697 20.2905 19.8066 19.0991 20.0708C17.5515 20.3672 15.9765 20.4958 14.4013 20.4543C14.386 20.4534 14.3707 20.4559 14.3565 20.4619C14.3423 20.4678 14.3296 20.4768 14.3195 20.4884L12.8587 21.9884L11.3042 23.5822C11.2793 23.6084 11.2471 23.6266 11.2118 23.6344C11.1765 23.6422 11.1396 23.6392 11.106 23.6258C11.0724 23.6124 11.0436 23.5892 11.0233 23.5592C11.003 23.5293 10.9922 23.4939 10.9922 23.4577V20.185C10.9923 20.1587 10.9831 20.1332 10.9663 20.1129C10.9495 20.0927 10.9261 20.079 10.9002 20.0742C10.6517 20.0152 10.4121 19.9235 10.1877 19.8015C9.1752 19.2611 8.15418 18.1532 7.91895 17.2157C7.43172 14.9984 7.43172 12.7017 7.91895 10.4844C8.21043 9.33556 9.71554 7.90204 10.8985 7.63613C13.6074 7.1178 16.3901 7.1178 19.0991 7.63613C19.7553 7.78272 20.5053 8.28215 21.0917 8.89579C21.5741 9.39522 21.944 9.97136 22.0803 10.4895C22.5668 12.7052 22.5668 15 22.0803 17.2157Z"/>
<path d="M19.1415 17.3865C18.9201 17.8919 18.5393 18.311 18.0574 18.5797C17.9062 18.6439 17.7493 18.6935 17.5887 18.728C17.4063 18.6735 17.2324 18.636 17.0773 18.5695C15.7852 18.0667 14.5824 17.3593 13.5148 16.4746C13.1977 16.2042 12.8998 15.912 12.6234 15.6002C11.9406 14.8139 11.3672 13.9389 10.9188 12.999C10.7006 12.5541 10.5165 12.0939 10.329 11.6354C10.1586 11.2178 10.4109 10.7831 10.6699 10.4712C10.9236 10.1819 11.2355 9.94954 11.5853 9.78937C11.7084 9.72751 11.8492 9.71069 11.9834 9.74182C12.1176 9.77296 12.2367 9.85009 12.3199 9.95983C12.7554 10.4491 13.1393 10.9821 13.4654 11.5502C13.5681 11.7154 13.6033 11.9138 13.5636 12.1042C13.524 12.2946 13.4125 12.4625 13.2523 12.5729C13.1671 12.6326 13.0819 12.7007 13.0086 12.7672C12.9363 12.8207 12.874 12.8865 12.8245 12.9615C12.7818 13.0318 12.7558 13.1109 12.7487 13.1928C12.7416 13.2747 12.7536 13.3572 12.7836 13.4337C13.1126 14.3388 13.612 15.0939 14.3586 15.624C14.6112 15.8027 14.8835 15.9519 15.1699 16.0689C15.357 16.1707 15.5672 16.2223 15.7802 16.2189C16.1518 16.1746 16.2745 15.7638 16.5336 15.5524C16.6525 15.4551 16.7997 15.3987 16.9532 15.3916C17.1068 15.3845 17.2585 15.4272 17.3859 15.5132C17.662 15.6837 17.9279 15.8763 18.1938 16.0638C18.4568 16.2433 18.71 16.4368 18.9523 16.6433C19.0657 16.7257 19.1466 16.845 19.1812 16.9808C19.2157 17.1165 19.2017 17.26 19.1415 17.3865Z"/>
<path d="M15.4897 9.21831H15.2715C15.3414 9.2149 15.4147 9.21831 15.4897 9.21831Z"/>
<path d="M19.2601 14.3261C19.0896 14.3261 19.0061 14.1812 18.9942 14.0227C18.972 13.7107 18.955 13.3971 18.9123 13.0869C18.8387 12.5635 18.6564 12.0612 18.3771 11.6124C18.0901 11.1449 17.7082 10.7428 17.256 10.4322C16.8038 10.1215 16.2915 9.90923 15.7521 9.80903C15.5067 9.76471 15.2561 9.75448 15.0089 9.72891C14.8521 9.71187 14.6459 9.70164 14.6118 9.50732C14.6067 9.46958 14.6097 9.43119 14.6206 9.39471C14.6316 9.35823 14.6502 9.3245 14.6752 9.29578C14.7002 9.26706 14.731 9.24401 14.7657 9.22817C14.8003 9.21233 14.8379 9.20406 14.876 9.20391C14.9169 9.20156 14.9578 9.20156 14.9987 9.20391C15.7438 9.21022 16.4758 9.40018 17.1299 9.75697C17.784 10.1138 18.34 10.6264 18.7487 11.2494C19.0713 11.7515 19.2904 12.3131 19.393 12.9011C19.4578 13.2693 19.4817 13.6477 19.5106 14.0227C19.5165 14.0594 19.5144 14.097 19.5046 14.1329C19.4948 14.1688 19.4775 14.2022 19.4538 14.2309C19.4301 14.2596 19.4006 14.2829 19.3672 14.2993C19.3338 14.3157 19.2973 14.3248 19.2601 14.3261Z"/>
<path d="M18.3386 13.5307C18.3377 13.5813 18.3308 13.6317 18.3182 13.6807C18.3033 13.73 18.2736 13.7735 18.2331 13.8053C18.1926 13.8371 18.1433 13.8557 18.0919 13.8584C18.0405 13.8612 17.9895 13.8481 17.9458 13.8209C17.9021 13.7937 17.8679 13.7537 17.8477 13.7063C17.829 13.6374 17.8203 13.5662 17.8221 13.4949C17.8261 13.1137 17.7507 12.7357 17.6006 12.3853C17.5665 12.3103 17.529 12.2336 17.4864 12.1603C17.2424 11.7397 16.8802 11.4001 16.4449 11.1836C16.1822 11.0595 15.9033 10.9735 15.6165 10.9279C15.4903 10.9074 15.3642 10.8955 15.2381 10.8784C15.2052 10.8768 15.1731 10.8684 15.1436 10.8539C15.1141 10.8393 15.088 10.8188 15.0667 10.7938C15.0455 10.7687 15.0296 10.7395 15.0201 10.708C15.0105 10.6766 15.0076 10.6435 15.0114 10.6108C15.0114 10.5774 15.0185 10.5444 15.0321 10.5139C15.0458 10.4834 15.0658 10.4562 15.0907 10.434C15.1157 10.4118 15.145 10.3951 15.1769 10.385C15.2088 10.375 15.2424 10.3718 15.2756 10.3756C15.7761 10.3949 16.2664 10.5229 16.7125 10.7506C17.2573 11.0247 17.7016 11.4638 17.9824 12.0051C18.1405 12.3213 18.2464 12.6609 18.296 13.0108C18.3052 13.0565 18.312 13.1025 18.3165 13.1489C18.325 13.2512 18.3284 13.3534 18.3369 13.4796C18.3369 13.4915 18.3386 13.5068 18.3386 13.5307Z"/>
<path d="M17.1716 13.2948C17.1619 13.338 17.1396 13.3774 17.1074 13.4077C17.0752 13.4381 17.0346 13.4582 16.9909 13.4653H16.9534C16.8975 13.4689 16.842 13.4542 16.7953 13.4234C16.7485 13.3927 16.7131 13.3475 16.6943 13.2948C16.6837 13.2669 16.6768 13.2376 16.6738 13.2079C16.6649 13.0932 16.6478 12.9793 16.6227 12.867C16.572 12.6397 16.4429 12.4375 16.2579 12.2959C16.1685 12.2318 16.0688 12.1833 15.963 12.1528C15.8284 12.1136 15.6869 12.1238 15.554 12.0914C15.4882 12.0798 15.4298 12.0425 15.3915 11.9879C15.3531 11.9333 15.338 11.8657 15.3494 11.7999C15.3621 11.7369 15.3973 11.6807 15.4484 11.6418C15.4996 11.6029 15.5632 11.584 15.6272 11.5886C16.4079 11.6448 16.9909 12.0198 17.1409 12.8567C17.1563 12.9344 17.1671 13.013 17.1733 13.092C17.1828 13.1593 17.1822 13.2277 17.1716 13.2948Z"/>
</g>
</svg>
