<svg width="18" height="18" viewBox="0 0 18 18" fill="none" xmlns="http://www.w3.org/2000/svg">
<g fill="currentColor">
<path d="M15.6019 1.75558C15.1547 1.34287 13.3472 0.0307455 9.32113 0.0129192C9.32113 0.0129192 4.57339 -0.273382 2.25894 1.84957C0.970579 3.1382 0.517358 5.02374 0.469551 7.36142C0.421744 9.6991 0.359891 14.0801 4.58284 15.2679H4.58689L4.58419 17.0805C4.58419 17.0805 4.55718 17.8144 5.04038 17.964C5.62487 18.1455 5.96789 17.5878 6.52591 16.9866C6.8322 16.6565 7.25517 16.1717 7.57388 15.8011C10.462 16.0442 12.6833 15.4886 12.9356 15.4065C13.5187 15.2174 16.8185 14.7945 17.3551 10.414C17.9091 5.89885 17.0872 3.04285 15.6019 1.75558ZM16.0914 10.0902C15.6384 13.7478 12.962 13.9777 12.4686 14.136C12.2587 14.2035 10.3078 14.6888 7.85451 14.5287C7.85451 14.5287 6.0265 16.734 5.45552 17.3074C5.36639 17.3971 5.26159 17.4333 5.19164 17.4155C5.09332 17.3914 5.06631 17.275 5.06739 17.1049C5.06901 16.8618 5.08306 14.0927 5.08306 14.0927C1.51077 13.101 1.71901 9.37228 1.75953 7.41976C1.80004 5.46724 2.16683 3.86773 3.2564 2.79194C5.21406 1.01876 9.24686 1.28372 9.24686 1.28372C12.6525 1.29858 14.2844 2.32413 14.6628 2.66769C15.9193 3.74348 16.5594 6.31777 16.0914 10.0891V10.0902Z"/>
<path d="M10.979 7.48687C10.9207 7.48687 10.8645 7.46444 10.8223 7.42422C10.78 7.384 10.7548 7.32907 10.7519 7.27079C10.7132 6.49804 10.3492 6.11964 9.60612 6.07967C9.54692 6.07496 9.4919 6.0473 9.4528 6.00261C9.4137 5.95791 9.39361 5.8997 9.39682 5.8404C9.40002 5.7811 9.42627 5.72539 9.46997 5.68517C9.51366 5.64495 9.57134 5.62339 9.6307 5.62509C10.6111 5.67911 11.1562 6.23902 11.2064 7.2481C11.2079 7.27797 11.2035 7.30783 11.1935 7.336C11.1834 7.36416 11.1679 7.39006 11.1479 7.41224C11.1278 7.43441 11.1036 7.45241 11.0765 7.46522C11.0495 7.47802 11.0202 7.48538 10.9904 7.48687H10.979Z"/>
<path d="M12.1477 7.87908H12.1423C12.082 7.87767 12.0247 7.85235 11.983 7.80869C11.9413 7.76503 11.9186 7.70661 11.92 7.64626C11.9376 6.86811 11.7153 6.23798 11.2405 5.71994C10.7656 5.20189 10.1188 4.92099 9.25634 4.85779C9.19602 4.85339 9.13993 4.8252 9.10039 4.77944C9.06086 4.73367 9.04112 4.67408 9.04553 4.61376C9.04993 4.55344 9.07812 4.49735 9.12388 4.45781C9.16965 4.41828 9.22924 4.39854 9.28956 4.40295C10.26 4.47399 11.0292 4.8135 11.5762 5.41176C12.1231 6.01002 12.3951 6.76683 12.3751 7.65571C12.3739 7.71528 12.3495 7.77201 12.307 7.81376C12.2645 7.85551 12.2073 7.87896 12.1477 7.87908Z"/>
<path d="M13.3431 8.3455C13.283 8.34544 13.2253 8.32165 13.1827 8.27931C13.1401 8.23698 13.1159 8.17952 13.1154 8.11943C13.1048 6.72763 12.704 5.66453 11.8899 4.86991C11.0856 4.08663 10.0695 3.68473 8.86946 3.67609C8.83956 3.67598 8.80997 3.66999 8.78239 3.65844C8.7548 3.6469 8.72976 3.63004 8.7087 3.60882C8.66615 3.56597 8.64236 3.50797 8.64258 3.44759C8.64279 3.3872 8.66699 3.32937 8.70984 3.28682C8.75269 3.24427 8.81069 3.22049 8.87108 3.2207H8.87297C10.1943 3.23043 11.3163 3.67555 12.2078 4.54417C13.0994 5.4128 13.5591 6.61689 13.571 8.11673C13.5715 8.17707 13.5479 8.23512 13.5056 8.27812C13.4632 8.32111 13.4056 8.34554 13.3452 8.34604L13.3431 8.3455Z"/>
<path d="M9.66261 10.3092C9.66261 10.3092 9.98267 10.3362 10.155 10.1239L10.491 9.70118C10.653 9.49159 11.0441 9.35789 11.4271 9.57127C11.7141 9.73495 11.9928 9.9129 12.262 10.1044C12.5162 10.2913 13.0366 10.7257 13.0383 10.7257C13.2862 10.935 13.3435 11.2424 13.1747 11.5665C13.1747 11.5684 13.1733 11.5716 13.1733 11.5732C12.9874 11.8955 12.7513 12.1862 12.474 12.4343C12.4708 12.4359 12.4708 12.4375 12.4678 12.4391C12.2269 12.6405 11.9902 12.7549 11.7577 12.7824C11.7235 12.7884 11.6887 12.7906 11.654 12.7889C11.5515 12.7899 11.4495 12.7742 11.3521 12.7425L11.3445 12.7314C10.9863 12.6304 10.3884 12.3776 9.39251 11.8282C8.81623 11.514 8.2676 11.1516 7.75249 10.7448C7.4943 10.5411 7.24802 10.3226 7.01485 10.0907L6.99001 10.0658L6.96516 10.041L6.94031 10.0161C6.93194 10.008 6.92383 9.99964 6.91546 9.99127C6.68347 9.7581 6.46506 9.51182 6.26129 9.25363C5.85458 8.73858 5.49217 8.19004 5.17793 7.61388C4.62856 6.61777 4.37575 6.02032 4.27473 5.66163L4.26366 5.65407C4.23199 5.55658 4.21639 5.45459 4.21747 5.3521C4.21558 5.3174 4.21767 5.2826 4.22368 5.24838C4.25267 5.01628 4.36728 4.77941 4.56752 4.53776C4.56914 4.53479 4.57076 4.53479 4.57238 4.53155C4.82041 4.25424 5.11108 4.01828 5.43344 3.83254C5.43506 3.83254 5.43831 3.83092 5.4402 3.83092C5.76431 3.66211 6.07168 3.71937 6.28073 3.96597C6.28236 3.96759 6.71586 4.48806 6.90196 4.74222C7.09352 5.01171 7.27146 5.29061 7.43512 5.5779C7.6485 5.96062 7.5148 6.35253 7.30521 6.51405L6.88251 6.85005C6.66913 7.02237 6.69722 7.34244 6.69722 7.34244C6.69722 7.34244 7.3233 9.71199 9.66261 10.3092Z"/>
</g>
</svg>
