<svg width="16" height="10" viewBox="0 0 16 10" fill="none" xmlns="http://www.w3.org/2000/svg">
<path d="M15.0163 9.59286C14.6526 9.64399 12.8742 9.59286 12.7819 9.59286C12.3222 9.59873 11.8787 9.42317 11.5475 9.10422C11.1725 8.74342 10.8373 8.3457 10.4708 7.96786C10.3624 7.85315 10.2451 7.74723 10.12 7.65109C9.82735 7.42524 9.53758 7.47638 9.39979 7.82155C9.29214 8.19455 9.21705 8.57619 9.17536 8.96217C9.15121 9.31161 8.92962 9.53036 8.53758 9.5545C8.29468 9.56729 8.05178 9.57155 7.81172 9.56587C6.93686 9.56028 6.07577 9.34756 5.29894 8.94513C4.45841 8.47676 3.7261 7.8364 3.14979 7.06587C2.20235 5.85564 1.44525 4.52609 0.76911 3.15536C0.733599 3.08717 0.0404167 1.61274 0.0233713 1.54314C-0.0391287 1.31018 0.0233716 1.08717 0.215133 1.01047C0.337292 0.963594 2.62138 1.01047 2.65973 1.01047C2.82954 1.009 2.99541 1.06161 3.13331 1.1607C3.27122 1.25979 3.374 1.4002 3.42678 1.56161C3.84902 2.64274 4.4271 3.65631 5.14269 4.57013C5.24284 4.69233 5.36004 4.79948 5.4907 4.88831C5.67678 5.01473 5.85292 4.9707 5.92962 4.75621C6.02052 4.45861 6.07396 4.15084 6.08871 3.84001C6.1015 3.22354 6.08871 2.81729 6.05462 2.20223C6.03189 1.80734 5.89269 1.46075 5.3103 1.34996C5.13133 1.31871 5.1157 1.17098 5.23076 1.02325C5.47082 0.716435 5.79894 0.668139 6.16684 0.649673C6.71513 0.618423 7.26343 0.63973 7.81172 0.649673H7.93104C8.16967 0.648803 8.40773 0.673085 8.64127 0.722117C8.77933 0.750036 8.90466 0.821819 8.99861 0.926767C9.09255 1.03171 9.15006 1.16421 9.16258 1.3045C9.19063 1.46006 9.20253 1.61809 9.19809 1.77609C9.18388 2.44939 9.15121 3.12126 9.14411 3.79456C9.13757 4.06115 9.16188 4.32759 9.21655 4.58859C9.29468 4.94655 9.54042 5.03604 9.78474 4.77751C10.1011 4.44331 10.3912 4.08524 10.6526 3.70649C11.1148 3.01621 11.4961 2.27507 11.789 1.49768C11.9481 1.09854 12.0731 1.01047 12.4992 1.01047H14.9225C15.0666 1.00794 15.2103 1.02709 15.3487 1.06729C15.3976 1.08016 15.4434 1.10301 15.4832 1.1344C15.5229 1.16579 15.5558 1.20505 15.5796 1.24972C15.6035 1.2944 15.6179 1.34351 15.6219 1.394C15.6259 1.44449 15.6194 1.49526 15.6029 1.54314C15.4836 2.07439 15.1967 2.52751 14.8927 2.96359C14.3998 3.66246 13.8799 4.34286 13.3756 5.03036C13.3119 5.12153 13.2535 5.2164 13.2009 5.31445C13.0106 5.65678 13.0248 5.84854 13.3004 6.13405C13.7407 6.58575 14.2109 7.01047 14.6356 7.47638C14.9474 7.81508 15.2288 8.18061 15.4765 8.56871C15.7876 9.05024 15.5958 9.51047 15.0163 9.59286Z" fill="currentColor"/>
</svg>
