<svg width="18" height="18" viewBox="0 0 18 18" fill="none" xmlns="http://www.w3.org/2000/svg">
<path d="M9.047 0C4.13094 0 0.129377 4.00104 0.127291 8.91866C0.12677 10.4906 0.537614 12.025 1.31811 13.3775L0.0527344 18L4.7811 16.7596C6.08402 17.4703 7.55065 17.8446 9.04335 17.8451H9.047C13.9625 17.8451 17.9641 13.8436 17.9662 8.92596C17.9672 6.54275 17.0402 4.30188 15.3562 2.61627C13.6721 0.930136 11.4328 0.00104275 9.047 0ZM9.047 16.3389H9.04387C7.71384 16.3389 6.40883 15.9807 5.27067 15.3055L5.00008 15.1449L2.19455 15.8811L2.94325 13.1455L2.76702 12.865C2.0251 11.6846 1.63303 10.3201 1.63355 8.91971C1.63511 4.83212 4.96097 1.50678 9.05013 1.50678C11.0303 1.5073 12.8916 2.27946 14.291 3.68092C15.6909 5.08186 16.461 6.94473 16.4605 8.92544C16.4589 13.013 13.133 16.3389 9.047 16.3389ZM13.1132 10.7868C12.8906 10.6752 11.7947 10.1361 11.5903 10.0615C11.3859 9.98697 11.2373 9.94995 11.0887 10.1731C10.9401 10.3962 10.5131 10.8983 10.3833 11.0469C10.2535 11.196 10.1231 11.2143 9.90049 11.1027C9.67787 10.9911 8.95941 10.7555 8.10852 9.99635C7.44585 9.40563 6.99851 8.6757 6.86869 8.45255C6.73887 8.22941 6.85461 8.10897 6.96671 7.99791C7.06681 7.89833 7.18934 7.73775 7.30091 7.6074C7.41248 7.47706 7.4495 7.38425 7.52354 7.23514C7.59757 7.08655 7.56055 6.9562 7.50477 6.84463C7.44898 6.73306 7.0032 5.63608 6.81759 5.18978C6.63668 4.75547 6.45315 4.81387 6.31603 4.80709C6.18621 4.80031 6.03761 4.79927 5.88902 4.79927C5.74043 4.79927 5.49903 4.85506 5.29465 5.07821C5.09027 5.30136 4.51467 5.84046 4.51467 6.93743C4.51467 8.03441 5.31342 9.09437 5.42448 9.24296C5.53605 9.39155 6.9959 11.6429 9.23157 12.6079C9.76337 12.8373 10.1784 12.9745 10.5022 13.0772C11.036 13.2466 11.522 13.2226 11.9057 13.1653C12.3338 13.1011 13.2243 12.6262 13.4099 12.1053C13.5955 11.585 13.5955 11.1387 13.5397 11.0454C13.4839 10.9526 13.3353 10.8968 13.1127 10.7852L13.1132 10.7868Z" fill="currentColor"/>
</svg>
