<svg width="36" height="36" viewBox="0 0 36 36" fill="none" xmlns="http://www.w3.org/2000/svg">
<rect width="35" height="35" rx="17.5" fill="#00152D"/>
<path d="M18.0539 7.5C12.3185 7.5 7.64996 12.1679 7.64753 17.9051C7.64692 19.7391 8.12624 21.5292 9.03682 23.1071L7.56055 28.5L13.077 27.0529C14.597 27.882 16.3081 28.3187 18.0496 28.3193H18.0539C23.7887 28.3193 28.4571 23.6509 28.4596 17.9136C28.4608 15.1332 27.3793 12.5189 25.4146 10.5523C23.4498 8.58516 20.8373 7.50122 18.0539 7.5ZM18.0539 26.562H18.0502C16.4985 26.562 14.976 26.1442 13.6481 25.3564L13.3324 25.1691L10.0593 26.028L10.9328 22.8364L10.7272 22.5091C9.86164 21.132 9.40422 19.5401 9.40483 17.9063C9.40665 13.1375 13.2868 9.25791 18.0575 9.25791C20.3677 9.25852 22.5393 10.1594 24.1719 11.7944C25.8051 13.4288 26.7035 15.6022 26.7029 17.913C26.7011 22.6819 22.8209 26.562 18.0539 26.562ZM22.7978 20.0846C22.538 19.9544 21.2595 19.3254 21.021 19.2384C20.7826 19.1515 20.6092 19.1083 20.4359 19.3686C20.2625 19.629 19.7643 20.2147 19.6129 20.3881C19.4614 20.562 19.3093 20.5833 19.0496 20.4532C18.7899 20.323 17.9517 20.0481 16.959 19.1624C16.1859 18.4732 15.664 17.6217 15.5125 17.3613C15.361 17.101 15.4961 16.9605 15.6268 16.8309C15.7436 16.7147 15.8866 16.5274 16.0168 16.3753C16.1469 16.2232 16.1901 16.115 16.2765 15.941C16.3629 15.7676 16.3197 15.6156 16.2546 15.4854C16.1895 15.3552 15.6694 14.0754 15.4529 13.5547C15.2418 13.0481 15.0277 13.1162 14.8677 13.1083C14.7163 13.1004 14.5429 13.0991 14.3695 13.0991C14.1962 13.0991 13.9146 13.1642 13.6761 13.4246C13.4377 13.6849 12.7661 14.3139 12.7661 15.5937C12.7661 16.8735 13.698 18.1101 13.8276 18.2835C13.9577 18.4568 15.6609 21.0833 18.2692 22.2092C18.8896 22.4769 19.3738 22.6369 19.7515 22.7567C20.3744 22.9544 20.9413 22.9264 21.389 22.8595C21.8884 22.7847 22.9273 22.2305 23.1439 21.6229C23.3604 21.0158 23.3604 20.4951 23.2953 20.3863C23.2303 20.278 23.0569 20.2129 22.7972 20.0827L22.7978 20.0846Z" fill="#C7ECFF"/>
</svg>
