<svg width="80" height="80" viewBox="0 0 80 80" fill="none" xmlns="http://www.w3.org/2000/svg">
<path d="M61.7198 44.1737V30.747V30.7337V26.0937C61.7198 22.9337 59.1598 20.3737 55.9998 20.3737H46.9732V14.6537C46.9732 12.0937 44.8932 10.0137 42.3332 10.0137H26.0532C23.4932 10.0137 21.4132 12.0937 21.4132 14.6537V20.3737H12.3865C9.2265 20.3737 6.6665 22.9337 6.6665 26.0937V52.667C6.6665 55.827 9.2265 58.387 12.3865 58.387H47.5065C48.1732 64.907 53.6932 70.0003 60.3865 70.0003C67.5198 70.0003 73.3332 64.187 73.3332 57.0537C73.3332 50.3603 68.2398 44.8403 61.7198 44.1737ZM70.5732 55.7203H61.7198V46.867C66.3198 47.467 69.9732 51.107 70.5732 55.7203ZM24.0798 14.6403C24.0798 13.547 24.9598 12.667 26.0532 12.667H42.3332C43.4265 12.667 44.3065 13.547 44.3065 14.6403V20.3603H24.0798V14.6403ZM12.3865 23.0403H22.7465H45.6398H55.9998C57.6798 23.0403 59.0532 24.4137 59.0532 26.0937V29.8803L39.7865 38.2003C36.2265 39.7337 32.1465 39.7337 28.5998 38.2003L9.33317 29.867V26.0803C9.33317 24.4003 10.7065 23.0403 12.3865 23.0403ZM9.33317 52.667V32.7737L27.5465 40.6403C29.6665 41.5603 31.9332 42.0137 34.1998 42.0137C36.4665 42.0137 38.7332 41.5603 40.8532 40.6403L59.0532 32.7737V44.1603C52.9732 44.787 48.1332 49.627 47.5065 55.707H12.3865C10.7065 55.7203 9.33317 54.347 9.33317 52.667ZM60.3865 67.3337C54.7198 67.3337 50.1065 62.7203 50.1065 57.0537C50.1065 51.8403 54.0132 47.5203 59.0532 46.867V57.0537C59.0532 57.787 59.6532 58.387 60.3865 58.387H70.5732C69.9065 63.427 65.5998 67.3337 60.3865 67.3337Z" fill="#00152D"/>
</svg>
