<svg width="9" height="18" viewBox="0 0 9 18" fill="none" xmlns="http://www.w3.org/2000/svg">
<path d="M8.326 0H5.59842C2.91871 0 0.645953 2.03995 0.645953 6.00023C0.645953 8.37606 1.74656 10.1281 3.70817 10.9921L0.0479018 17.6162C-0.0717225 17.8325 0.0479019 18 0.238998 18H1.93776C2.08144 18 2.17712 17.9522 2.22499 17.8325L5.55062 11.3279H6.74707V17.8325C6.74707 17.9042 6.81879 18 6.91414 18H8.39782C8.5414 18 8.58934 17.9281 8.58934 17.8085V0.240094C8.58934 0.0717887 8.49349 0 8.326 0ZM6.74707 9.79214H5.7421C4.16303 9.79214 2.63191 8.64011 2.63191 5.76014C2.63191 2.75953 4.06726 1.53571 5.52663 1.53571H6.74707V9.79214Z" fill="currentColor"/>
</svg>
