<svg width="128" height="128" fill="none" xmlns="http://www.w3.org/2000/svg"><path d="M64 128C28.71 128 0 99.29 0 64S28.71 0 64 0s64 28.71 64 64-28.71 64-64 64zM64 5.333C31.653 5.333 5.333 31.653 5.333 64S31.653 122.667 64 122.667 122.667 96.347 122.667 64 96.347 5.333 64 5.333z" fill="#443F48"/><path d="M64 101.333c-4.41 0-8-3.589-8-8 0-4.41 3.59-8 8-8s8 3.59 8 8c0 4.411-3.59 8-8 8zm0-10.666A2.668 2.668 0 0064 96a2.668 2.668 0 000-5.333zm0-16A2.668 2.668 0 0161.333 72V29.333a2.668 2.668 0 015.334 0V72A2.668 2.668 0 0164 74.667z" fill="#2D8EFF"/></svg>