<svg width="128" height="128" fill="none" xmlns="http://www.w3.org/2000/svg"><g clip-path="url(#clip0)"><path d="M.405 11.742L8.942 26.68c.287.505.77.87 1.333 1.011l7.964 1.991 27.316 27.316 3.018-3.018L20.83 26.238a2.128 2.128 0 00-.99-.561l-7.653-1.92L4.92 11.03l6.231-6.232 12.731 7.276 1.921 7.652c.093.376.288.719.561.992l27.743 27.743 3.017-3.018-27.315-27.316-1.991-7.96a2.138 2.138 0 00-1.011-1.336L11.866.297a2.134 2.134 0 00-2.56.343L.77 9.177a2.134 2.134 0 00-.365 2.565zm88.724 30.317L42.18 89.009l-3.018-3.02 46.95-46.948 3.017 3.018zM33.963 90.67a2.133 2.133 0 00-1.83-1.036H19.33c-.75 0-1.444.392-1.83 1.035l-6.402 10.67a2.133 2.133 0 000 2.198l6.403 10.67a2.133 2.133 0 001.829 1.035h12.804c.75 0 1.443-.393 1.83-1.035l6.4-10.67a2.133 2.133 0 000-2.198l-6.4-10.67zm-3.037 20.304H20.538l-5.122-8.536 5.122-8.537h10.389l5.121 8.537-5.122 8.536z" fill="#2D8EFF"/><path d="M102.557 51.221c14.094.048 25.56-11.34 25.607-25.435a25.511 25.511 0 00-.784-6.362 2.134 2.134 0 00-3.578-.994l-13.284 13.275-10.54-3.512-3.515-10.538 13.284-13.287a2.134 2.134 0 00-1.001-3.58C95.077-2.675 81.192 5.6 77.73 19.267a25.463 25.463 0 00-.781 6.344 24.99 24.99 0 00.519 5L30.732 77.349a25.176 25.176 0 00-5-.519C11.588 76.83.123 88.294.123 102.438c0 14.143 11.465 25.608 25.609 25.608 14.143 0 25.608-11.465 25.608-25.608a25.12 25.12 0 00-.519-5L62.01 86.249l4.893 4.893a2.135 2.135 0 003.018 0l1.067-1.067a2.402 2.402 0 013.384 0 2.39 2.39 0 01.005 3.38l-.005.005-1.066 1.067a2.134 2.134 0 000 3.017L98.763 123c6.695 6.757 17.6 6.806 24.357.11 6.757-6.695 6.806-17.601.11-24.357a10.405 10.405 0 00-.11-.111L97.663 73.187a2.134 2.134 0 00-3.017 0l-1.066 1.067c-.937.93-2.449.93-3.386 0a2.39 2.39 0 010-3.385l1.068-1.067a2.134 2.134 0 000-3.018l-4.893-4.893 11.188-11.189c1.645.34 3.32.514 5 .52zm8.385 72.558a12.978 12.978 0 01-4.539-.828l16.667-16.668c2.515 6.691-.87 14.153-7.56 16.668-1.46.548-3.008.829-4.568.828zM86.765 68.315a6.66 6.66 0 009.39 9.376l23.948 23.97c.26.261.503.536.738.815l-18.246 18.246c-.28-.235-.554-.478-.815-.738l-23.967-23.97a6.66 6.66 0 00-9.39-9.377l-3.414-3.414L83.35 64.908l3.415 3.407zm8.618-21.464L46.972 95.253c-.532.53-.745 1.3-.564 2.028 2.928 11.497-4.02 23.192-15.518 26.118-11.498 2.928-23.192-4.019-26.12-15.518-2.927-11.498 4.02-23.192 15.52-26.12a21.496 21.496 0 0110.6 0 2.153 2.153 0 002.027-.563l48.4-48.402c.53-.53.744-1.3.561-2.027-2.907-11.363 3.947-22.932 15.31-25.84a21.249 21.249 0 016.581-.622L92.512 15.568a2.132 2.132 0 00-.516 2.183l4.267 12.805a2.136 2.136 0 001.351 1.348l12.805 4.268a2.135 2.135 0 002.183-.514l11.257-11.257c.025.407.038.81.038 1.211.06 11.726-9.396 21.28-21.122 21.34a21.265 21.265 0 01-5.376-.663 2.136 2.136 0 00-2.028.561l.012.001z" fill="#443F48"/><path d="M110.47 107.331l-3.018 3.018-21.34-21.34 3.017-3.018 21.341 21.34z" fill="#443F48"/></g><defs><clipPath id="clip0"><path fill="#fff" d="M0 0h128v128H0z"/></clipPath></defs></svg>