<svg width="58" height="58" viewBox="0 0 58 58" fill="none" xmlns="http://www.w3.org/2000/svg">
<path d="M24.7174 1.67433C27.1361 -0.558108 30.8639 -0.558109 33.2826 1.67433C34.8082 3.08253 36.9287 3.65071 38.954 3.19399C42.1649 2.46997 45.3933 4.33389 46.3716 7.47655C46.9888 9.45892 48.5411 11.0112 50.5235 11.6284C53.6661 12.6067 55.53 15.8351 54.806 19.046C54.3493 21.0713 54.9175 23.1918 56.3257 24.7174C58.5581 27.1361 58.5581 30.8639 56.3257 33.2826C54.9175 34.8082 54.3493 36.9287 54.806 38.954C55.53 42.1649 53.6661 45.3933 50.5235 46.3716C48.5411 46.9888 46.9888 48.5411 46.3716 50.5235C45.3933 53.6661 42.1649 55.53 38.954 54.806C36.9287 54.3493 34.8082 54.9175 33.2826 56.3257C30.8639 58.5581 27.1361 58.5581 24.7174 56.3257C23.1918 54.9175 21.0713 54.3493 19.046 54.806C15.8351 55.53 12.6067 53.6661 11.6284 50.5235C11.0112 48.5411 9.45892 46.9888 7.47655 46.3716C4.33389 45.3933 2.46997 42.1649 3.19399 38.954C3.65071 36.9287 3.08253 34.8082 1.67433 33.2826C-0.558109 30.8639 -0.558108 27.1361 1.67433 24.7174C3.08253 23.1918 3.65071 21.0713 3.19399 19.046C2.46997 15.8351 4.33389 12.6067 7.47655 11.6284C9.45892 11.0112 11.0112 9.45892 11.6284 7.47655C12.6067 4.33389 15.8351 2.46997 19.046 3.19399C21.0713 3.65071 23.1918 3.08253 24.7174 1.67433Z" fill="#ECB801"/>
<path d="M12.7013 46.9833L15.3112 43.3891L15.9002 43.8169L14.2145 46.1384C14.1471 46.2312 14.0694 46.3278 13.9812 46.4283L16.5492 45.1764C16.6715 45.1159 16.7858 45.1242 16.8918 45.2012L16.9863 45.2698C17.0923 45.3468 17.1355 45.4529 17.1159 45.5879L16.7273 48.4338C16.762 48.3755 16.797 48.3186 16.8322 48.2632C16.8674 48.2077 16.9012 48.1577 16.9337 48.1129L18.6195 45.7914L19.2085 46.2192L16.5987 49.8133L16.0941 49.4469C16.0643 49.4252 16.0392 49.4058 16.0189 49.3885C15.9985 49.3712 15.9825 49.3532 15.9707 49.3345C15.9573 49.3147 15.9494 49.2925 15.947 49.2679C15.9429 49.2422 15.9433 49.2121 15.948 49.1776L16.3211 46.4002C16.3314 46.3267 16.3455 46.2534 16.3632 46.1802C16.3792 46.1058 16.3973 46.0303 16.4174 45.9538C16.3497 45.9983 16.283 46.0397 16.2172 46.078C16.1502 46.1179 16.0834 46.1542 16.0167 46.1868L13.5097 47.407C13.4784 47.4222 13.4499 47.4319 13.4241 47.436C13.3984 47.4401 13.3748 47.4394 13.3535 47.434C13.3304 47.4274 13.3075 47.4171 13.2848 47.4031C13.262 47.3891 13.2357 47.3713 13.2059 47.3497L12.7013 46.9833Z" fill="white"/>
<path d="M9.91168 39.8512C10.1779 39.6638 10.4562 39.5343 10.7464 39.4627C11.0338 39.3907 11.3169 39.3767 11.5958 39.4208C11.8748 39.4648 12.1407 39.5669 12.3936 39.727C12.6448 39.8882 12.8677 40.107 13.0622 40.3833C13.2555 40.6579 13.3856 40.9407 13.4526 41.2316C13.518 41.5237 13.5249 41.8093 13.4735 42.0884C13.4209 42.3659 13.3127 42.6285 13.1491 42.8764C12.9839 43.1255 12.7681 43.3437 12.5018 43.5311C12.2356 43.7185 11.9582 43.8474 11.6696 43.9178C11.3794 43.9893 11.0948 44.003 10.8159 43.959C10.5358 43.9132 10.2701 43.8097 10.0189 43.6485C9.76598 43.4884 9.54288 43.2711 9.34958 42.9964C9.21992 42.8122 9.1197 42.6236 9.04891 42.4305C8.97644 42.2386 8.93182 42.0471 8.91506 41.8561C8.89661 41.6662 8.90577 41.4782 8.94254 41.2921C8.97645 41.1054 9.03554 40.9261 9.11982 40.7541C9.2041 40.5821 9.31306 40.4203 9.44671 40.2686C9.57918 40.1152 9.73418 39.9761 9.91168 39.8512ZM10.3979 40.5419C10.1986 40.6822 10.0391 40.8345 9.91943 40.9989C9.79806 41.1645 9.71688 41.3355 9.6759 41.5121C9.63492 41.6887 9.63522 41.8688 9.6768 42.0524C9.71719 42.2343 9.79986 42.414 9.9248 42.5916C10.0497 42.7691 10.1916 42.9084 10.3504 43.0094C10.508 43.1089 10.6775 43.1699 10.8587 43.1926C11.0388 43.2136 11.2272 43.1949 11.424 43.1365C11.6191 43.0793 11.8163 42.9806 12.0156 42.8403C12.2149 42.7001 12.3752 42.5471 12.4966 42.3816C12.6163 42.2172 12.6966 42.0467 12.7376 41.8701C12.7757 41.693 12.7746 41.5135 12.7342 41.3316C12.6926 41.148 12.6094 40.9675 12.4844 40.79C12.3595 40.6124 12.2182 40.474 12.0606 40.3746C11.9018 40.2735 11.7332 40.2118 11.5548 40.1897C11.3747 40.1686 11.1871 40.1867 10.992 40.244C10.7952 40.3023 10.5972 40.4017 10.3979 40.5419Z" fill="white"/>
<path d="M9.35799 31.3728L9.50196 31.9035C9.53359 32.0201 9.53597 32.1266 9.50908 32.223C9.47968 32.318 9.43018 32.4015 9.36058 32.4734L8.22606 33.7233C8.15358 33.8002 8.1084 33.8762 8.09052 33.951C8.07264 34.0259 8.07737 34.1137 8.10472 34.2145L8.22778 34.6681L10.1132 34.1566L10.3167 34.9066L8.43127 35.4181L8.55433 35.8717C8.58114 35.9705 8.62145 36.0487 8.67526 36.1063C8.72853 36.1618 8.80561 36.2035 8.90651 36.2313L10.5172 36.7364C10.6136 36.7633 10.6988 36.8113 10.7727 36.8803C10.8446 36.95 10.8961 37.0421 10.9272 37.1567L11.072 37.6903L8.95068 37.0628C8.81135 37.0263 8.69512 36.9772 8.60199 36.9155C8.50832 36.8518 8.42949 36.7724 8.36549 36.6773C8.35549 36.7733 8.32942 36.861 8.28728 36.9404C8.24264 37.0183 8.18264 37.0982 8.10727 37.1802L6.75306 38.7348L6.58174 38.1033C6.55975 38.0223 6.55941 37.9428 6.58071 37.8649C6.60147 37.785 6.64179 37.7146 6.70168 37.6538L7.82137 36.408C7.89385 36.331 7.93535 36.2571 7.94586 36.1864C7.95637 36.1156 7.95063 36.0398 7.92865 35.9587L7.8265 35.5822L6.02998 36.0696L5.82649 35.3196L7.62301 34.8322L7.52006 34.4527C7.49807 34.3717 7.46494 34.3043 7.42065 34.2505C7.37582 34.1948 7.30242 34.1511 7.20044 34.1193L5.6054 33.6131C5.52299 33.5909 5.45291 33.5516 5.39515 33.4951C5.33685 33.4367 5.29645 33.366 5.27392 33.283L5.10341 32.6545L7.05764 33.3114C7.1641 33.3441 7.25628 33.3827 7.33417 33.4274C7.41009 33.4726 7.47691 33.5351 7.53463 33.6149C7.54125 33.4985 7.56914 33.3902 7.61831 33.2898C7.66694 33.1875 7.74215 33.0854 7.84394 32.9835L9.35799 31.3728Z" fill="white"/>
<path d="M5.24083 25.2332L9.66762 25.597L9.59968 26.4236L7.66487 26.2646L7.49401 28.3433L9.42882 28.5023L9.36087 29.3289L4.93408 28.965L5.00202 28.1385L6.90622 28.295L7.07708 26.2163L5.17288 26.0598L5.24083 25.2332Z" fill="white"/>
<path d="M9.56251 18.9985C9.86567 19.1173 10.1271 19.278 10.3468 19.4807C10.5654 19.6807 10.7332 19.9092 10.8502 20.1662C10.9673 20.4232 11.0288 20.7013 11.0347 21.0005C11.0387 21.299 10.9791 21.6056 10.8558 21.9202C10.7333 22.2329 10.5692 22.4974 10.3635 22.7137C10.1558 22.9293 9.9214 23.0925 9.66017 23.2035C9.39969 23.3126 9.12095 23.3673 8.82395 23.3675C8.52505 23.3669 8.22401 23.3073 7.92085 23.1885C7.61769 23.0697 7.3572 22.9093 7.13939 22.7074C6.91968 22.5048 6.7513 22.275 6.63426 22.018C6.51796 21.759 6.45779 21.4804 6.45378 21.1819C6.44786 20.8826 6.50616 20.5767 6.62867 20.264C6.71085 20.0542 6.81296 19.8666 6.93499 19.7011C7.05513 19.5348 7.19026 19.392 7.34038 19.2727C7.48861 19.1526 7.65049 19.0566 7.82606 18.9846C8.00046 18.9099 8.18264 18.8604 8.3726 18.8358C8.56257 18.8113 8.75767 18.8129 8.95789 18.8408C9.15886 18.8668 9.3604 18.9193 9.56251 18.9985ZM9.25435 19.785C9.02745 19.6961 8.81244 19.6471 8.6093 19.6379C8.40426 19.6279 8.21678 19.6545 8.04686 19.7177C7.87695 19.7809 7.72687 19.8805 7.59664 20.0164C7.46715 20.1504 7.36281 20.3185 7.28362 20.5206C7.20444 20.7227 7.16646 20.9178 7.16969 21.1061C7.17367 21.2924 7.21617 21.4674 7.29719 21.6311C7.37896 21.7929 7.49845 21.9398 7.65568 22.0718C7.81101 22.203 8.00212 22.3131 8.22901 22.402C8.45591 22.4909 8.67188 22.5403 8.87692 22.5502C9.08005 22.5595 9.26658 22.5325 9.4365 22.4693C9.60525 22.4034 9.75438 22.3035 9.88387 22.1695C10.0141 22.0336 10.1188 21.8646 10.198 21.6624C10.2772 21.4603 10.3148 21.2661 10.3108 21.0798C10.3076 20.8916 10.266 20.717 10.1862 20.5559C10.1044 20.3941 9.98586 20.2476 9.83054 20.1164C9.67331 19.9844 9.48125 19.8739 9.25435 19.785Z" fill="white"/>
<path d="M14.4687 9.72615L17.5376 12.9372L17.0113 13.4402L15.0291 11.3661C14.9498 11.2832 14.8687 11.1894 14.7856 11.0847L15.5576 13.8353C15.5952 13.9665 15.5666 14.0774 15.4719 14.1679L15.3875 14.2486C15.2927 14.3391 15.1807 14.3627 15.0513 14.3192L12.321 13.4274C12.3721 13.472 12.4218 13.5166 12.47 13.5612C12.5183 13.6057 12.5615 13.648 12.5997 13.6879L14.582 15.762L14.0557 16.265L10.9868 13.054L11.4376 12.6231C11.4642 12.5977 11.4879 12.5765 11.5085 12.5596C11.5292 12.5426 11.5498 12.5301 11.5702 12.5218C11.5922 12.5122 11.6154 12.5084 11.64 12.5104C11.6661 12.511 11.6956 12.5167 11.7287 12.5276L14.3945 13.3918C14.4649 13.4151 14.5345 13.4421 14.6034 13.4726C14.6737 13.5017 14.7447 13.533 14.8163 13.5665C14.7847 13.4919 14.7559 13.4188 14.73 13.3473C14.7027 13.2742 14.679 13.202 14.6589 13.1306L13.9071 10.4456C13.8978 10.4121 13.8934 10.3823 13.8939 10.3562C13.8945 10.3302 13.8994 10.3071 13.9086 10.287C13.9192 10.2656 13.9334 10.2449 13.9512 10.225C13.9691 10.2051 13.9913 10.1825 14.018 10.157L14.4687 9.72615Z" fill="white"/>
<path d="M21.9481 8.26707C22.0852 8.56243 22.1631 8.85926 22.1819 9.15758C22.2016 9.45317 22.165 9.73429 22.072 10.0009C21.979 10.2676 21.8313 10.5111 21.6288 10.7315C21.4254 10.95 21.1705 11.1304 20.864 11.2726C20.5594 11.414 20.2579 11.4918 19.9598 11.506C19.6607 11.5183 19.3784 11.4744 19.1129 11.3741C18.8493 11.2729 18.61 11.1198 18.3952 10.9147C18.1795 10.7078 18.0032 10.4566 17.8661 10.1613C17.729 9.86592 17.6516 9.57002 17.6336 9.27356C17.6149 8.97525 17.652 8.69277 17.745 8.42612C17.8398 8.15861 17.9889 7.91558 18.1923 7.69705C18.3948 7.47666 18.6483 7.29578 18.953 7.15442C19.1573 7.0596 19.3608 6.99453 19.5634 6.95922C19.7651 6.92204 19.9615 6.9122 20.1524 6.92968C20.3426 6.94531 20.5259 6.98777 20.7026 7.05706C20.8802 7.12363 21.0462 7.21368 21.2004 7.32721C21.3547 7.44075 21.4946 7.57676 21.62 7.73526C21.7474 7.8929 21.8567 8.07017 21.9481 8.26707ZM21.1819 8.62264C21.0793 8.40159 20.9578 8.21755 20.8173 8.07052C20.676 7.92164 20.522 7.81132 20.3556 7.73958C20.1891 7.66784 20.0118 7.63609 19.8237 7.64435C19.6375 7.65174 19.446 7.70112 19.2491 7.79249C19.0522 7.88386 18.8899 7.99869 18.7621 8.13697C18.6363 8.27439 18.5461 8.43026 18.4915 8.60458C18.4388 8.77804 18.4237 8.96679 18.4461 9.17084C18.4677 9.37304 18.5298 9.58466 18.6323 9.80571C18.7349 10.0268 18.8569 10.2117 18.9982 10.3606C19.1387 10.5076 19.2921 10.617 19.4586 10.6888C19.6261 10.7578 19.803 10.7886 19.9892 10.7812C20.1772 10.773 20.3697 10.7232 20.5666 10.6318C20.7635 10.5404 20.9249 10.426 21.0508 10.2886C21.1785 10.1503 21.2691 9.99537 21.3227 9.82377C21.3754 9.65032 21.391 9.46249 21.3694 9.2603C21.3469 9.05624 21.2844 8.84369 21.1819 8.62264Z" fill="white"/>
<path d="M27.6103 4.92456L28.2379 9.32172L27.4168 9.4389L27.1425 7.51705L25.0777 7.81174L25.352 9.73359L24.531 9.85078L23.9034 5.45361L24.7245 5.33643L24.9944 7.22788L27.0592 6.93319L26.7892 5.04174L27.6103 4.92456Z" fill="white"/>
<path d="M31.4073 5.70881L31.2652 6.93234L32.8091 7.11171L32.7357 7.74331L31.1918 7.56394L31.0468 8.81189L33.0057 9.03947L32.9295 9.69547L30.1468 9.37219L30.6594 4.96014L33.4421 5.28343L33.3662 5.93639L31.4073 5.70881Z" fill="white"/>
<path d="M38.4551 7.48425L37.1895 7.0461L35.9585 10.6019L35.1776 10.3316L36.4087 6.77578L35.1431 6.33763L35.3652 5.69614L38.6772 6.84275L38.4551 7.48425Z" fill="white"/>
<path d="M44.1074 10.0495L41.6437 13.7453L40.9536 13.2853L42.4973 10.9696C42.5552 10.8827 42.6177 10.7927 42.6847 10.6996C42.7534 10.6075 42.8312 10.513 42.9181 10.4159C42.8204 10.4886 42.7239 10.5522 42.6285 10.6067C42.5359 10.6607 42.4504 10.7058 42.372 10.7422L39.4899 12.0031C39.4576 12.0185 39.4218 12.0315 39.3826 12.0423C39.3451 12.0542 39.3068 12.0619 39.2676 12.0653C39.2295 12.067 39.1906 12.0645 39.1509 12.0577C39.1122 12.0491 39.0767 12.0341 39.0444 12.0125L38.5281 11.6683L40.9918 7.97253L41.6819 8.43256L40.1382 10.7482C40.0803 10.8351 40.0164 10.9254 39.9465 11.0191C39.8795 11.1123 39.8026 11.2074 39.7157 11.3045C39.8134 11.2318 39.9091 11.1676 40.0028 11.112C40.0982 11.0575 40.1859 11.0126 40.266 10.9774L43.1456 9.71469C43.1779 9.69936 43.2129 9.68573 43.2503 9.6738C43.2895 9.66301 43.3282 9.65676 43.3662 9.65505C43.4054 9.65164 43.4435 9.65363 43.4804 9.66101C43.5201 9.66783 43.5571 9.68259 43.5911 9.70531L44.1074 10.0495Z" fill="white"/>
<path d="M45.8096 12.1258C46.0341 12.1559 46.2554 12.2314 46.4734 12.3524C46.6928 12.4749 46.8987 12.6438 47.0911 12.8591C47.2508 13.0377 47.3734 13.2179 47.4589 13.3996C47.5458 13.5829 47.5953 13.7597 47.6075 13.9301C47.6213 14.0991 47.5986 14.2581 47.5394 14.407C47.4832 14.5562 47.3917 14.6874 47.265 14.8006C47.1093 14.9398 46.936 15.0302 46.7451 15.0717C46.5571 15.1134 46.3601 15.0972 46.1539 15.0233C46.1855 15.1324 46.2041 15.2408 46.2096 15.3484C46.2181 15.4562 46.2116 15.5595 46.1901 15.6584C46.1715 15.7574 46.138 15.8505 46.0896 15.9377C46.0425 16.0265 45.9793 16.1063 45.8999 16.1773C45.7503 16.311 45.5853 16.4076 45.4051 16.4671C45.2261 16.5282 45.0408 16.5482 44.8491 16.5273C44.6588 16.5079 44.4664 16.4464 44.2721 16.3427C44.0793 16.2376 43.8942 16.0858 43.7168 15.8873C43.6131 15.7712 43.5221 15.6479 43.4439 15.5174C43.3655 15.3897 43.3003 15.2584 43.2484 15.1235C43.1965 14.9886 43.1577 14.853 43.132 14.7167C43.1063 14.5804 43.0956 14.4485 43.0998 14.3212L43.557 14.238C43.5934 14.2357 43.6287 14.2399 43.6629 14.2505C43.7 14.2613 43.7315 14.2812 43.7574 14.3102C43.7929 14.3499 43.8158 14.4077 43.826 14.4837C43.8378 14.5583 43.8546 14.6463 43.8765 14.7476C43.8983 14.8489 43.9342 14.9597 43.984 15.08C44.0367 15.2004 44.121 15.3255 44.237 15.4553C44.4213 15.6614 44.6082 15.7814 44.7977 15.8152C44.9872 15.8491 45.1736 15.7841 45.3568 15.6203C45.4317 15.5535 45.4852 15.4782 45.5174 15.3944C45.5497 15.3106 45.5612 15.2221 45.5519 15.1288C45.5427 15.0354 45.5126 14.9387 45.4616 14.8387C45.4135 14.7388 45.3458 14.64 45.2585 14.5423L44.8409 14.0751L45.3336 13.6307L45.7143 14.0567C45.8849 14.2475 46.0554 14.363 46.2257 14.403C46.3989 14.4431 46.5573 14.3991 46.7008 14.2708C46.8276 14.1575 46.8826 14.0163 46.866 13.8472C46.8523 13.6782 46.7594 13.4975 46.5875 13.3051C46.4879 13.1936 46.3897 13.1083 46.2929 13.0493C46.1975 12.9917 46.1087 12.9461 46.0265 12.9125C45.9472 12.879 45.8769 12.8526 45.8156 12.8332C45.7557 12.8153 45.7114 12.7904 45.6827 12.7583C45.6554 12.7278 45.6399 12.695 45.636 12.66C45.6322 12.625 45.6374 12.5846 45.6515 12.539L45.8096 12.1258Z" fill="white"/>
<path d="M51.4838 19.7357L47.5293 21.7583L47.1516 21.0199L49.6294 19.7526C49.7223 19.7051 49.8208 19.657 49.9248 19.6084C50.0297 19.5617 50.1437 19.5171 50.267 19.4748C50.1463 19.4905 50.0309 19.4989 49.921 19.4999C49.8139 19.5018 49.7173 19.4995 49.6311 19.493L46.5002 19.1863C46.4645 19.1839 46.4269 19.1779 46.3874 19.1681C46.3489 19.1602 46.3117 19.1482 46.2758 19.1321C46.2418 19.115 46.2091 19.0938 46.1777 19.0684C46.1481 19.0421 46.1245 19.0116 46.1068 18.977L45.8242 18.4246L49.7787 16.402L50.1564 17.1404L47.6787 18.4076C47.5857 18.4552 47.4858 18.5028 47.3791 18.5505C47.2752 18.5991 47.1616 18.6445 47.0383 18.6869C47.1591 18.6711 47.2739 18.6618 47.3829 18.659C47.4928 18.658 47.5912 18.6617 47.6783 18.67L50.8078 18.9739C50.8436 18.9763 50.8807 18.9815 50.9192 18.9894C50.9587 18.9991 50.9955 19.0125 51.0295 19.0296C51.0654 19.0458 51.0976 19.0661 51.1262 19.0905C51.1576 19.1159 51.1826 19.1468 51.2013 19.1833L51.4838 19.7357Z" fill="white"/>
<path d="M50.5651 24.4531C50.5952 24.6016 50.6394 24.7275 50.6978 24.8305C50.7583 24.9332 50.8299 25.0138 50.9128 25.0723C50.998 25.1324 51.0935 25.1705 51.1991 25.1868C51.3068 25.2026 51.4219 25.1982 51.5443 25.1734C51.6607 25.1499 51.7625 25.1105 51.8495 25.0553C51.9365 25.0002 52.0059 24.9297 52.0575 24.8441C52.1091 24.7584 52.1409 24.657 52.1527 24.5397C52.1665 24.422 52.1582 24.2879 52.1278 24.1373L52.0055 23.5321L50.4428 23.8479L50.5651 24.4531ZM52.754 24.0107C52.8129 24.3018 52.8296 24.5606 52.8044 24.7872C52.7791 25.0137 52.7193 25.2086 52.6248 25.3719C52.5304 25.5351 52.4045 25.6671 52.2473 25.7678C52.0905 25.8705 51.9107 25.9424 51.708 25.9834C51.4972 26.0259 51.2964 26.03 51.1056 25.9954C50.9168 25.9604 50.7449 25.8855 50.5901 25.7705C50.4352 25.6556 50.3012 25.4988 50.1879 25.3003C50.0751 25.1037 49.9901 24.8639 49.9329 24.5809L49.8106 23.9757L48.278 24.2854L48.1144 23.4755L52.4681 22.5956L52.754 24.0107Z" fill="white"/>
<path d="M50.85 32.9343C50.5253 32.9101 50.2281 32.8335 49.9584 32.7045C49.6907 32.5777 49.463 32.4088 49.2755 32.1976C49.0879 31.9865 48.9473 31.7388 48.8535 31.4546C48.7618 31.1705 48.7285 30.86 48.7536 30.523C48.7786 30.1881 48.8576 29.887 48.9905 29.6197C49.1254 29.3526 49.3014 29.1275 49.5183 28.9445C49.7352 28.7636 49.9854 28.6293 50.2692 28.5416C50.555 28.4541 50.8603 28.4225 51.185 28.4467C51.5097 28.471 51.8058 28.5475 52.0734 28.6763C52.3431 28.8053 52.5717 28.9753 52.7592 29.1865C52.9466 29.3996 53.0862 29.6483 53.1779 29.9323C53.2717 30.2166 53.3061 30.5261 53.2811 30.861C53.2643 31.0857 53.222 31.2951 53.1541 31.4892C53.0882 31.6835 53.0011 31.8597 52.8928 32.018C52.7865 32.1764 52.6601 32.3158 52.5135 32.4363C52.3688 32.559 52.2093 32.66 52.035 32.7394C51.8607 32.8188 51.6738 32.8747 51.4742 32.907C51.2745 32.9414 51.0664 32.9505 50.85 32.9343ZM50.9128 32.0919C51.1559 32.1101 51.3758 32.0936 51.5726 32.0426C51.7715 31.9918 51.9428 31.9111 52.0866 31.8007C52.2304 31.6903 52.3445 31.5509 52.4289 31.3827C52.5132 31.2165 52.5634 31.0251 52.5796 30.8087C52.5957 30.5922 52.5746 30.3945 52.516 30.2156C52.4574 30.0387 52.3652 29.884 52.2396 29.7514C52.1138 29.6209 51.9564 29.5157 51.7672 29.4358C51.5801 29.3562 51.3651 29.3072 51.1221 29.2891C50.8791 29.271 50.6581 29.2873 50.4592 29.3382C50.2624 29.3892 50.0921 29.4699 49.9483 29.5803C49.8064 29.693 49.6934 29.8324 49.6091 29.9986C49.5246 30.1668 49.4743 30.3592 49.4582 30.5756C49.442 30.7921 49.4633 30.9888 49.5219 31.1657C49.5805 31.3446 49.6716 31.4992 49.7953 31.6296C49.9211 31.7602 50.0776 31.8653 50.2646 31.945C50.4538 32.0248 50.6698 32.0738 50.9128 32.0919Z" fill="white"/>
<path d="M48.2447 36.1191C48.1924 36.2635 48.1657 36.391 48.1647 36.5018C48.1638 36.6125 48.1817 36.7073 48.2185 36.786C48.2546 36.8666 48.3067 36.9334 48.3746 36.9863C48.4418 37.0412 48.5188 37.0844 48.6054 37.1158C48.6959 37.1486 48.782 37.1635 48.8637 37.1604C48.9473 37.1581 49.0253 37.1352 49.0977 37.0917C49.172 37.049 49.2405 36.9834 49.303 36.895C49.3649 36.8085 49.4206 36.6969 49.4701 36.5602L49.7539 35.7777L48.5296 35.3336L48.2447 36.1191ZM51.4981 36.4102L50.2911 35.9724L50.067 36.5904C49.9706 36.8561 49.9461 37.0737 49.9935 37.2434C50.0402 37.415 50.1685 37.5389 50.3783 37.6149C50.5959 37.6938 50.7732 37.6884 50.9103 37.5987C51.0473 37.509 51.1634 37.3333 51.2583 37.0715L51.4981 36.4102ZM51.859 37.2893C51.7598 37.5627 51.649 37.7871 51.5265 37.9627C51.404 38.1383 51.2723 38.2703 51.1314 38.3586C50.9897 38.4488 50.8401 38.498 50.6825 38.5062C50.5248 38.5144 50.3604 38.4874 50.189 38.4253C50.0908 38.3896 50.0017 38.341 49.9217 38.2793C49.8436 38.2183 49.7763 38.1427 49.7197 38.0525C49.6644 37.9649 49.622 37.8624 49.5927 37.745C49.5627 37.6296 49.5489 37.4993 49.5514 37.3543C49.2144 37.8812 48.8004 38.0556 48.3095 37.8776C48.1324 37.8134 47.981 37.7204 47.8552 37.5985C47.7295 37.4767 47.6352 37.3314 47.5722 37.1626C47.5112 36.9945 47.4841 36.805 47.4909 36.594C47.4977 36.383 47.5451 36.1562 47.6331 35.9136L48.2048 34.3369L52.3805 35.8512L51.859 37.2893Z" fill="white"/>
<path d="M46.3562 41.7997L47.8799 42.1917C47.949 42.2069 48.0288 42.2282 48.1193 42.2556C48.2098 42.2831 48.3062 42.3146 48.4084 42.3502C48.3375 42.269 48.2722 42.1905 48.2125 42.1147C48.1545 42.04 48.1052 41.9726 48.0646 41.9123L47.157 40.6356L46.3562 41.7997ZM44.1475 42.0513L44.5096 41.5249C44.5502 41.4659 44.5976 41.4277 44.6519 41.4103C44.7078 41.3941 44.764 41.3917 44.8207 41.4034L45.7553 41.6436L46.798 40.1276L46.2395 39.3408C46.2099 39.3006 46.1925 39.25 46.1871 39.1892C46.1818 39.1283 46.1994 39.0684 46.24 39.0093L46.6039 38.4804L49.2746 42.4352L48.7958 43.1311L44.1475 42.0513Z" fill="white"/>
<path d="M43.5473 47.7073L44.5425 46.8111L42.0246 44.0148L42.6386 43.4619L45.1566 46.2581L46.1518 45.3619L46.6061 45.8664L44.0015 48.2117L43.5473 47.7073Z" fill="white"/>
<path d="M39.0192 46.889C38.8841 46.962 38.7793 47.0373 38.7048 47.1148C38.6295 47.1951 38.578 47.2765 38.5504 47.3589C38.5229 47.4414 38.5163 47.524 38.5309 47.607C38.5455 47.6899 38.5747 47.7719 38.6185 47.8529C38.6662 47.9412 38.7213 48.015 38.7837 48.0744C38.8461 48.1338 38.9183 48.1727 39.0005 48.1912C39.0836 48.2114 39.1775 48.2107 39.2821 48.189C39.3868 48.1673 39.5067 48.1199 39.6418 48.0469L40.2795 47.7021L39.6541 46.5456L39.0192 46.889ZM39.9486 48.6143C39.6946 48.7516 39.4625 48.8411 39.2522 48.8827C39.04 48.9252 38.8509 48.9285 38.6848 48.8926C38.5179 48.8595 38.3719 48.7918 38.2468 48.6895C38.1226 48.589 38.0201 48.464 37.9392 48.3145C37.8399 48.1308 37.7822 47.9466 37.7662 47.762C37.7484 47.5784 37.7715 47.3995 37.8356 47.2252C37.9006 47.0527 38.0067 46.8894 38.1539 46.7353C38.2992 46.5822 38.4854 46.4443 38.7123 46.3215L40.0742 45.5852L42.1869 49.4923L41.46 49.8853L40.5863 48.2695L39.9486 48.6143Z" fill="white"/>
<path d="M23.9381 42V18H30.2871C33.2364 18 35.4203 18.5938 36.8386 19.7815C38.2796 20.9692 39 22.6947 39 24.958C39 26.4818 38.651 27.7927 37.9531 28.8908C37.2552 29.9664 36.2195 30.7955 34.8462 31.3782C33.4953 31.9608 31.818 32.2521 29.8143 32.2521H26.9775V42H23.9381ZM21 37.4286V35.2437H32.5497V37.4286H21ZM21 32.2521V29.6975H28.7336V32.2521H21ZM29.3752 29.6975C30.7486 29.6975 31.9081 29.5518 32.8537 29.2605C33.8218 28.9692 34.5647 28.4874 35.0826 27.8151C35.6004 27.1429 35.8593 26.2241 35.8593 25.0588C35.8593 23.535 35.3865 22.4034 34.4409 21.6639C33.4953 20.9244 32.0206 20.5546 30.0169 20.5546H26.9775V29.6975H29.3752Z" fill="white"/>
<path d="M23.9381 42V18H30.2871C33.2364 18 35.4203 18.5938 36.8386 19.7815C38.2796 20.9692 39 22.6947 39 24.958C39 26.4818 38.651 27.7927 37.9531 28.8908C37.2552 29.9664 36.2195 30.7955 34.8462 31.3782C33.4953 31.9608 31.818 32.2521 29.8143 32.2521H26.9775V42H23.9381ZM21 37.4286V35.2437H32.5497V37.4286H21ZM21 32.2521V29.6975H28.7336V32.2521H21ZM29.3752 29.6975C30.7486 29.6975 31.9081 29.5518 32.8537 29.2605C33.8218 28.9692 34.5647 28.4874 35.0826 27.8151C35.6004 27.1429 35.8593 26.2241 35.8593 25.0588C35.8593 23.535 35.3865 22.4034 34.4409 21.6639C33.4953 20.9244 32.0206 20.5546 30.0169 20.5546H26.9775V29.6975H29.3752Z" fill="white"/>
</svg>
