<svg xmlns="http://www.w3.org/2000/svg" width="263" height="263" fill="none" viewBox="0 0 263 263"><g fill="#161616" fill-rule="evenodd" clip-path="url(#clip0_12672_1567)" clip-rule="evenodd"><path d="m105.268 75.389 24.196 80.007-24.196 11.429V75.389Zm50.617-5.326-24.884 82.628-24.926-82.628h49.81Zm.847 96.762-24.196-11.429 24.196-80.007v91.436Zm-47.586.534 21.855-9.999 21.855 9.995-43.71.004Zm-4.807 2.416h53.323c.969 0 1.454-.493 1.454-1.475V69.122c0-.984-.485-1.477-1.454-1.477h-53.323c-.97 0-1.455.493-1.455 1.475v99.178c0 .984.485 1.477 1.455 1.477ZM74.865 184.651 62 197.645h1.99c.913 0 1.79-.367 2.437-1.022l8.7-8.787a.949.949 0 0 1 1.355 0l8.702 8.787a3.424 3.424 0 0 0 2.435 1.02h1.992l-12.865-12.992a1.321 1.321 0 0 0-1.885 0m40.388-.394c-.913 0-1.789.367-2.436 1.021l-8.7 8.788a.95.95 0 0 1-1.354 0l-8.702-8.788a3.426 3.426 0 0 0-2.435-1.021H89.63l12.865 12.994a1.322 1.322 0 0 0 1.883 0l12.863-12.994h-1.992Zm42.063 5.03a.618.618 0 0 0-.615.622v7.111c0 .345.275.623.615.623h1.19a.618.618 0 0 0 .615-.622v-7.109a.618.618 0 0 0-.611-.625h-1.194Zm12.242-4.007a3.44 3.44 0 0 0-2.443-1.02h-22.259l1.408 1.418a3.432 3.432 0 0 0 2.441 1.021h22.261l-1.408-1.419Zm-39.45-.629-12.862 12.994h1.991c.912 0 1.788-.368 2.435-1.022l8.702-8.787a.948.948 0 0 1 1.354 0l8.7 8.787a3.425 3.425 0 0 0 2.436 1.02h1.992l-12.863-12.992a1.321 1.321 0 0 0-1.885 0Zm64.132 7.199h1.989c2.071.012 3.761-1.684 3.773-3.79a3.55 3.55 0 0 0-.004-.178c-.088-2.046-1.838-3.624-3.865-3.624h-19.841l1.412 1.42a3.445 3.445 0 0 0 2.446 1.021h15.996c.707 0 1.343.523 1.404 1.234a1.355 1.355 0 0 1-1.342 1.478h-19.299a.62.62 0 0 0-.617.623v6.986a.62.62 0 0 0 .617.623h1.194a.62.62 0 0 0 .615-.623v-5.17h12.091l4.745 4.764a3.45 3.45 0 0 0 2.454 1.029H200l-5.764-5.793Z"/></g><defs><clipPath id="clip0_12672_1567"><path fill="#fff" d="M0 0h262.5v262.5H0z"/></clipPath></defs></svg>