<svg xmlns="http://www.w3.org/2000/svg" width="263" height="263" fill="none" viewBox="0 0 263 263"><g fill="#161616" clip-path="url(#clip0_12672_1570)"><path fill-rule="evenodd" d="M66.5 130.935C66.5 95.068 95.568 66 131.435 66c35.867 0 64.935 29.081 64.935 64.935 0 35.867-29.081 64.935-64.935 64.935-35.867 0-64.935-29.068-64.935-64.935Zm64.935 60.71c33.54 0 60.71-27.183 60.71-60.71s-27.183-60.71-60.71-60.71-60.71 27.183-60.71 60.71 27.17 60.71 60.71 60.71Z" clip-rule="evenodd"/><path fill-rule="evenodd" d="M131.435 94.535v-2.119c21.268 0 38.506 17.238 38.506 38.506h-2.106c0-20.059-16.328-36.387-36.4-36.387Zm-36.4 36.4c0 20.072 16.328 36.4 36.4 36.4v2.106c-21.268 0-38.506-17.238-38.506-38.506h2.106Z" clip-rule="evenodd"/><path d="M162.908 103.388c.884.949 2.158 2.47 2.873 3.406l13.143-8.359a82.862 82.862 0 0 0-2.483-3.081l-8.333 5.512-.572.494.429-.624 3.679-7.345-2.6-2.6-7.345 3.679-.624.429.494-.572 5.512-8.32a81.103 81.103 0 0 0-3.094-2.496l-8.346 13.13a58.448 58.448 0 0 1 3.341 2.821l7.852-4.082.507-.364-.377.507c.013-.013-4.056 7.865-4.056 7.865Zm-29.835-16.653 3.588-8.047.234-.715-.065.741.377 10.751c1.261.117 2.561.299 3.848.507l-.585-15.925a82.181 82.181 0 0 0-5.369-.416l-3.536 8.788-.13.65-.13-.65-3.536-8.788a82.181 82.181 0 0 0-5.369.416l-.585 15.925a63.553 63.553 0 0 1 3.848-.507l.377-10.751-.065-.741.234.715 3.588 8.047h3.276Z"/><path fill-rule="evenodd" d="M104.005 99.423c2.08-2.184 3.25-4.719 1.17-7.124-1.131-1.313-3.029-1.599-4.602-.949l-.156.065.052-.13c.234-.624.377-2.613-1.313-3.978a3.906 3.906 0 0 0-2.912-.806c-1.95.195-3.445 1.534-7.54 6.084a94.28 94.28 0 0 0-4.108 4.953l11.219 10.647a291.16 291.16 0 0 1 6.474-6.955l1.716-1.807Zm-14.638-2.6c2.262-2.769 4.667-5.278 5.746-6.266.338-.312.715-.624 1.17-.754.741-.195 1.495.325 1.664 1.079.169.754-.299 1.482-.832 2.08-1.196 1.352-5.577 5.928-5.577 5.928l-2.171-2.067Zm10.062-1.781c-1.391 1.443-5.668 5.954-5.668 5.954l2.275 2.158 5.655-6.058c.429-.468.962-1.079 1.105-1.729a1.326 1.326 0 0 0-.572-1.404c-.481-.325-1.027-.273-1.508-.026-.39.182-.741.533-1.287 1.105Z" clip-rule="evenodd"/><path d="M131.435 92.429v38.506H92.929c0-21.281 17.225-38.506 38.506-38.506Zm38.506 38.506c0 21.281-17.225 38.506-38.506 38.506v-38.506h38.506Z"/></g><defs><clipPath id="clip0_12672_1570"><path fill="#fff" d="M0 0h262.5v262.5H0z"/></clipPath></defs></svg>