<svg xmlns:xlink="http://www.w3.org/1999/xlink" width="0" height="0" class="hidden"><defs><path id="reuse-0" fill="#297EE0" d="M27.5 0C12.312 0 0 12.312 0 27.5S12.312 55 27.5 55 55 42.688 55 27.5 42.688 0 27.5 0Zm14.78 37.936c-1.174.734-5.943.952-7.098.114-.633-.46-1.212-1.036-1.762-1.584-.385-.383-.822-.569-1.152-.985-.27-.34-.455-.741-.74-1.077-.48-.564-1.217-1.044-1.801-.355-.88 1.036.138 3.07-1.034 3.845-.394.26-.79.334-1.282.297l-1.088.05c-.64.012-1.652.018-2.38-.113-.811-.146-1.481-.59-2.215-.915-1.393-.618-2.72-1.46-3.73-2.625-2.748-3.176-6.44-7.543-7.873-11.535-.295-.82-1.074-2.445-.336-3.148 1.005-.73 5.935-.936 6.704.193.312.459.51 1.13.73 1.65.276.648.424 1.258.855 1.832.38.509.66 1.02.955 1.578.33.626.643 1.227 1.045 1.803.273.392.994 1.172 1.45 1.23 1.113.142 1.044-2.562.961-3.222a12.75 12.75 0 0 1-.079-1.957c.018-.55.068-1.326-.258-1.775-.532-.733-1.715-.185-1.808-1.17.196-.279.155-.527 1.46-.957 1.028-.338 1.693-.327 2.37-.273 1.383.111 2.848-.263 4.183.185 1.275.43 1.077 2.241 1.035 3.327-.058 1.481.004 2.928 0 4.432-.002.684-.03 1.351.806 1.295.782-.052.862-.71 1.236-1.254.52-.758.997-1.526 1.525-2.281.714-1.02.93-2.168 1.6-3.213.24-.373.448-1.17.818-1.465.28-.225.811-.107 1.15-.107h.806c.617 0 1.246-.005 1.88.017.913.032 1.935-.178 2.84-.05 3.905.551-4.908 8.9-4.45 10.39.317 1.03 2.328 2.18 3.054 3.023.963 1.123 3.929 3.355 1.623 4.8Z"/><path id="reuse-1" fill="#fff" d="M36.637 18.753c-5.043-2.695-9.872-5.172-14.807-7.759V26.47c5.194-2.824 10.668-5.41 14.828-7.716h-.021Z"/><path id="reuse-2" fill="#fff" d="M36.637 18.753c-5.043-2.695-14.807-7.759-14.807-7.759l13.018 8.75c.001 0-2.371 1.315 1.789-.99Z"/><path id="reuse-3" fill="#CD201F" d="M22.779 38.582c-10.475-.193-14.053-.367-16.252-.82-1.487-.3-2.78-.97-3.728-1.938-.733-.734-1.315-1.854-1.767-3.407-.388-1.294-.54-2.37-.755-5-.33-5.934-.408-10.786 0-16.208.337-2.994.5-6.548 2.737-8.621C4.07 1.618 5.3.993 6.678.735 8.834.325 18.015.002 27.52.002c9.484 0 18.686.324 20.843.733 1.724.323 3.34 1.293 4.289 2.543 2.04 3.21 2.076 7.202 2.284 10.324.085 1.488.085 9.936 0 11.424-.323 4.934-.582 6.68-1.315 8.49-.453 1.143-.84 1.746-1.509 2.415a7.23 7.23 0 0 1-3.837 1.96c-9.064.683-16.76.83-25.496.69Zm13.88-19.829c-5.043-2.695-9.871-5.194-14.807-7.78v15.475c5.194-2.823 10.67-5.41 14.829-7.716l-.022.021Z"/><path id="reuse-4" fill="#2D8EFF" d="M27.5 0A27.5 27.5 0 1 0 55 27.5 27.53 27.53 0 0 0 27.5 0Zm2.292 27.223a2.293 2.293 0 0 1-1.075 1.943l-8.8 5.5a2.296 2.296 0 1 1-2.434-3.896l7.725-4.817v-9.911a2.292 2.292 0 0 1 4.584 0v11.18Z"/><path id="reuse-5" fill="#2D8EFF" d="M54.895 12.7 35.603 31.991a11.474 11.474 0 0 1-16.206 0L.105 12.701C.073 13.061 0 13.39 0 13.75v27.5a11.472 11.472 0 0 0 11.458 11.458h32.084A11.472 11.472 0 0 0 55 41.25v-27.5c0-.36-.073-.688-.105-1.05Z"/><path id="reuse-6" fill="#2D8EFF" d="M32.363 28.75 53.295 7.818a11.426 11.426 0 0 0-9.753-5.526H11.458a11.426 11.426 0 0 0-9.753 5.526L22.637 28.75a6.891 6.891 0 0 0 9.726 0Z"/><path id="reuse-7" fill="#FA608E" d="M35.696 14.633H19.304a4.75 4.75 0 0 0-4.745 4.745V35.77a4.751 4.751 0 0 0 4.745 4.746h16.392a4.751 4.751 0 0 0 4.746-4.746V19.378a4.75 4.75 0 0 0-4.746-4.745ZM27.5 36.095c-4.698 0-8.52-3.822-8.52-8.52 0-4.699 3.822-8.521 8.52-8.521 4.699 0 8.521 3.822 8.521 8.52 0 4.698-3.823 8.521-8.52 8.521Zm8.795-15.28a2.018 2.018 0 0 1-2.017-2.016c0-1.111.905-2.015 2.017-2.015 1.111 0 2.016.904 2.016 2.015a2.018 2.018 0 0 1-2.016 2.016Z"/><path id="reuse-8" fill="#FA608E" d="M27.5 22.654a4.926 4.926 0 0 0-4.92 4.92 4.927 4.927 0 0 0 4.92 4.92 4.926 4.926 0 0 0 4.92-4.92 4.926 4.926 0 0 0-4.92-4.92Z"/><path id="reuse-9" fill="#FA608E" d="M27.5 0C12.313 0 0 12.313 0 27.5S12.313 55 27.5 55 55 42.687 55 27.5 42.687 0 27.5 0Zm16.542 35.77c0 4.603-3.743 8.346-8.346 8.346H19.304c-4.602 0-8.346-3.743-8.346-8.346V19.378c0-4.602 3.744-8.346 8.346-8.346h16.392c4.603 0 8.346 3.744 8.346 8.346V35.77Z"/><path id="reuse-10" fill="#2D8EFF" d="M27.5 55C42.691 55 55 42.691 55 27.5S42.691 0 27.5 0 0 12.309 0 27.5 12.309 55 27.5 55ZM12.584 26.904l26.514-10.223c1.23-.445 2.306.3 1.907 2.161l.002-.002-4.514 21.269c-.335 1.508-1.231 1.874-2.485 1.164l-6.875-5.067-3.316 3.195c-.366.366-.676.676-1.386.676l.488-6.997 12.742-11.51c.554-.489-.124-.764-.855-.278L19.06 31.206l-6.788-2.118c-1.474-.467-1.506-1.473.312-2.184Z"/><path id="reuse-11" fill="#2D8EFF" d="M28.084 16.042V1.054c2.12.8 4.045 2.043 5.649 3.644l7.984 7.989a15.938 15.938 0 0 1 3.646 5.646H30.375a2.291 2.291 0 0 1-2.291-2.291Zm18.333 7.986v19.514A11.472 11.472 0 0 1 34.96 55H12.042A11.472 11.472 0 0 1 .584 43.542V11.458A11.472 11.472 0 0 1 12.042 0H22.39c.373 0 .742.03 1.111.055v15.987a6.875 6.875 0 0 0 6.875 6.875h15.987c.025.369.055.738.055 1.111ZM28.084 43.542a2.292 2.292 0 0 0-2.292-2.292H14.334a2.292 2.292 0 0 0 0 4.583h11.458a2.291 2.291 0 0 0 2.292-2.291Zm6.875-9.167a2.292 2.292 0 0 0-2.292-2.292H14.334a2.292 2.292 0 0 0 0 4.584h18.333a2.292 2.292 0 0 0 2.292-2.292Z"/><path id="reuse-12" fill="#2D8EFF" d="M28.554.02C13.05.448.574 12.144.116 26.676c11.879-.139 18.56-.902 23.016-5.08 4.457-4.179 5.273-10.441 5.422-21.576Zm1.76.001c.146 11.133.96 17.395 5.42 21.575 4.457 4.177 11.136 4.94 23.017 5.08C58.294 12.145 45.816.45 30.314.02ZM.116 28.324C.574 42.856 13.051 54.552 28.554 54.98c-.149-11.134-.965-17.395-5.422-21.576-4.457-4.177-11.137-4.94-23.016-5.08Zm58.635 0c-11.88.14-18.56.901-23.017 5.08-4.458 4.178-5.274 10.44-5.42 21.575 15.502-.43 27.98-12.124 28.437-26.655z"/></defs><symbol xmlns="http://www.w3.org/2000/svg" id="vk" fill="none" viewBox="0 0 55 55"><circle cx="26.5" cy="27.5" r="20.5" fill="#fff"/><use xlink:href="#reuse-0"/></symbol><symbol xmlns="http://www.w3.org/2000/svg" id="youtube" fill="none" viewBox="0 0 55 39"><use xlink:href="#reuse-1"/><use xlink:href="#reuse-2"/><use xlink:href="#reuse-3"/></symbol><symbol xmlns="http://www.w3.org/2000/svg" id="clock" fill="none" viewBox="0 0 55 55"><use xlink:href="#reuse-4"/></symbol><symbol id="contacts" viewBox="0 0 0 0"><symbol xmlns="http://www.w3.org/2000/svg" id="envelope" fill="none" viewBox="0 0 55 55"><use xlink:href="#reuse-5"/><use xlink:href="#reuse-6"/></symbol><symbol xmlns="http://www.w3.org/2000/svg" id="instagram" fill="none" viewBox="0 0 55 55"><circle cx="27.574" cy="27.574" r="21.447" fill="#fff"/><use xlink:href="#reuse-7"/><use xlink:href="#reuse-8"/><use xlink:href="#reuse-9"/></symbol><symbol xmlns="http://www.w3.org/2000/svg" id="telegram" fill="none" viewBox="0 0 55 55"><circle cx="28" cy="29" r="18" fill="#fff"/><use xlink:href="#reuse-10"/></symbol><symbol xmlns="http://www.w3.org/2000/svg" id="vk" fill="none" viewBox="0 0 55 55"><circle cx="26.5" cy="27.5" r="20.5" fill="#fff"/><use xlink:href="#reuse-0"/></symbol><symbol xmlns="http://www.w3.org/2000/svg" id="youtube" fill="none" viewBox="0 0 55 39"><use xlink:href="#reuse-1"/><use xlink:href="#reuse-2"/><use xlink:href="#reuse-3"/></symbol><symbol xmlns="http://www.w3.org/2000/svg" id="clock" fill="none" viewBox="0 0 55 55"><use xlink:href="#reuse-4"/></symbol><symbol xmlns="http://www.w3.org/2000/svg" id="document" fill="none" viewBox="0 0 47 55"><use xlink:href="#reuse-11"/></symbol><symbol xmlns="http://www.w3.org/2000/svg" id="dzen" fill="none" viewBox="0 0 59 55"><use xlink:href="#reuse-12"/></symbol></symbol><symbol xmlns="http://www.w3.org/2000/svg" id="document" fill="none" viewBox="0 0 47 55"><use xlink:href="#reuse-11"/></symbol><symbol xmlns="http://www.w3.org/2000/svg" id="dzen" fill="none" viewBox="0 0 59 55"><use xlink:href="#reuse-12"/></symbol><symbol xmlns="http://www.w3.org/2000/svg" id="envelope" fill="none" viewBox="0 0 55 55"><use xlink:href="#reuse-5"/><use xlink:href="#reuse-6"/></symbol><symbol xmlns="http://www.w3.org/2000/svg" id="instagram" fill="none" viewBox="0 0 55 55"><circle cx="27.574" cy="27.574" r="21.447" fill="#fff"/><use xlink:href="#reuse-7"/><use xlink:href="#reuse-8"/><use xlink:href="#reuse-9"/></symbol><symbol xmlns="http://www.w3.org/2000/svg" id="marker" fill="none" viewBox="0 0 24 24"><path fill="#fff" d="M12 0A10.011 10.011 0 0 0 2 10c0 5.282 8.4 12.533 9.354 13.343l.646.546.646-.546C13.6 22.533 22 15.282 22 10A10.011 10.011 0 0 0 12 0Zm0 15a5 5 0 1 1 0-9.998A5 5 0 0 1 12 15Z"/><path fill="#fff" d="M12 13a3 3 0 1 0 0-6 3 3 0 0 0 0 6Z"/></symbol><symbol xmlns="http://www.w3.org/2000/svg" id="phone" fill="none" viewBox="0 0 24 24"><path fill="#2D8EFF" d="M17.588 15.697a2.25 2.25 0 0 0-3.188 0l-1.087 1.088A19.606 19.606 0 0 1 9.93 14.07a19.606 19.606 0 0 1-2.715-3.383L8.303 9.6a2.25 2.25 0 0 0 0-3.188L6.18 4.297a2.197 2.197 0 0 0-1.582-.66A2.25 2.25 0 0 0 3 4.297L1.98 5.31A4.777 4.777 0 0 0 .75 9.247c.24 2.813 2.085 6.196 4.928 9.046 2.842 2.85 6.262 4.687 9.075 4.957.21.011.42.011.63 0a4.553 4.553 0 0 0 3.307-1.23L19.703 21a2.248 2.248 0 0 0 .66-1.598 2.197 2.197 0 0 0-.66-1.582l-2.115-2.123ZM19.95 4.043A11.19 11.19 0 0 0 12 .75a.75.75 0 1 0 0 1.5 9.75 9.75 0 0 1 9.75 9.832.75.75 0 1 0 1.5 0 11.181 11.181 0 0 0-3.3-8.04Z"/><path fill="#2D8EFF" d="M15.682 8.332a4.5 4.5 0 0 1 1.328 3.233.75.75 0 1 0 1.5 0 6 6 0 0 0-6-6.075.75.75 0 1 0 0 1.5 4.5 4.5 0 0 1 3.172 1.342Z"/></symbol><symbol xmlns="http://www.w3.org/2000/svg" id="telegram" fill="none" viewBox="0 0 55 55"><circle cx="28" cy="29" r="18" fill="#fff"/><use xlink:href="#reuse-10"/></symbol></svg>