<svg xmlns="http://www.w3.org/2000/svg" width="263" height="263" fill="none" viewBox="0 0 263 263"><g fill="#161616" clip-path="url(#clip0_12672_1579)"><path d="M116.832 99.58h1.072c.964 0 1.928 0 2.892.002l3.029.002c1.909 0 3.819.002 5.728.004l6.525.004c4.471.002 8.943.005 13.414.01v12.253l-3.125.005c-3.405.007-6.81.017-10.215.03-2.065.008-4.129.014-6.194.017-1.8.002-3.6.007-5.4.016-.952.004-1.905.007-2.858.007-.897 0-1.795.003-2.692.009-.329.002-.658.002-.986.001-2.304-.041-2.304-.041-4.371.872-2.741 3.37-1.108 10.727-1.15 13.211h47.341v13.785H97.551c0-31.841 0-31.841 3.653-35.743 4.18-4.004 10.135-4.497 15.628-4.485ZM97.55 70.5h62.292v13.785h-47.341V98.07c-4.1-.293-7.278-1.225-10.35-4.02l-.411-.357c-2.75-2.53-3.635-5.621-4.19-9.217V70.5ZM118.827 175.036a9.121 9.121 0 0 1 3.409 5.952c.233 3.204-.167 5.947-2.295 8.455-1.846 1.935-4.389 2.9-7.056 3.016l-.594.03c-3.15.083-6.152-.649-8.51-2.842-2.174-2.347-2.512-4.977-2.455-8.03.099-2.361 1.153-4.532 2.874-6.162 4.021-3.227 10.41-3.316 14.627-.419Zm-12.075 3.829c-1.046 1.497-1.509 3.257-1.265 5.064.352 1.499 1.097 2.732 2.415 3.552 2.126 1.027 4.773 1.105 7.008.389 1.479-.626 2.357-1.587 2.959-3.07.454-1.805.32-3.532-.575-5.169-.664-1.06-1.569-1.705-2.761-2.046-2.62-.553-5.715-.663-7.781 1.28ZM186.293 173.504h16.675v3.83H190.51v3.446h10.158v3.446H190.51v3.829h12.458v3.829h-16.675v-18.38ZM143.36 173.504h4.216l.023 1.045c.027 1.145.056 2.29.088 3.434.019.694.036 1.387.051 2.081.014.67.032 1.34.052 2.011.011.377.018.755.024 1.132.045 1.357.151 2.541.912 3.699 1.312 1.136 2.709 1.225 4.378 1.199.827-.068 1.392-.264 2.139-.624l.527-.239c.797-.62 1.143-1.278 1.28-2.262.044-.728.064-1.454.077-2.183l.022-.806c.02-.702.035-1.405.049-2.108.016-.719.035-1.438.055-2.156.037-1.408.069-2.815.098-4.223h4.217c.018 1.505.032 3.01.04 4.515.004.699.009 1.397.018 2.096.008.677.013 1.354.015 2.03.002.379.008.759.014 1.138.001 2.5-.601 4.72-2.195 6.687-1.921 1.914-4.429 2.468-7.068 2.549-2.61-.058-5.056-.813-7.008-2.594-2.018-2.278-2.055-4.878-2.043-7.764l.001-.752c.001-.655.002-1.309.005-1.963l.003-2.01c.002-1.311.006-2.621.01-3.932ZM80.877 173.504h4.217v14.36c3.226-.604 5.891-1.333 7.886-3.996 2.092-3.172 2.488-6.658 2.655-10.364l2-.012.578-.004.548-.002.508-.003c.391.021.391.021.583.213.373 5.203-1.176 10.252-4.58 14.207-2.346 2.501-5.956 4.078-9.38 4.191-.63.008-1.259.008-1.888.006l-.655.002-.63-.001h-.57c-.505-.025-.505-.025-1.272-.217v-18.38ZM124.385 173.504h4.408l.012 1.166c.013 1.271.027 2.541.043 3.812.01.771.019 1.541.026 2.312.007.743.016 1.487.026 2.231.004.283.007.567.009.85.003.398.009.795.015 1.193l.007.685c.053.568.106.885.437 1.345.63.447 1.223.435 1.98.444l.744.011.801.007.822.011c.72.01 1.439.018 2.159.025l2.205.027c1.441.018 2.882.034 4.323.049v4.212c-1.717.018-3.433.032-5.149.04-.797.004-1.594.009-2.391.018-.771.009-1.541.013-2.312.015-.293.001-.585.004-.878.008-1.99.027-3.536-.149-5.227-1.253-2.001-2.09-2.117-4.289-2.098-7.036l.002-.882c.002-.77.005-1.539.01-2.308l.007-2.36c.004-1.541.011-3.081.019-4.622ZM74.55 180.971v3.638l-.835.008c-1.021.011-2.042.026-3.064.042-.442.007-.884.012-1.326.016-.636.007-1.27.017-1.906.027l-.6.004-.559.012-.491.006c-.502.051-.502.051-.994.651l-.191 2.68h12.65v3.829H60.367c0-8.739 0-8.739.983-9.836 1.52-.859 2.996-.983 4.72-1.017l.696-.019c2.594-.065 5.19-.058 7.784-.041ZM163.867 173.313c8.515-.072 8.515-.072 10.412 1.571 1.867 1.995 1.912 4.026 1.899 6.631v.881c-.001.612-.002 1.224-.005 1.836-.003.785-.004 1.571-.004 2.357l-.002 1.814-.001.87-.004 1.21-.003.696c-.025.514-.025.514-.217.705-.299.017-.599.021-.899.019l-.548-.002-.577-.005-.579-.002-1.422-.01-.003-.47a1077.17 1077.17 0 0 0-.042-4.403 426.82 426.82 0 0 1-.021-2.263c-.005-.729-.013-1.457-.023-2.186a115.38 115.38 0 0 1-.006-.832c.052-2.009.052-2.009-.671-3.822-.838-.435-1.672-.44-2.604-.462l-.408-.011c-.426-.012-.851-.021-1.277-.03l-.871-.022c-.708-.019-1.416-.034-2.124-.049v-4.021ZM60.368 173.504h16.867v3.83h-12.65v3.637c-1.407-.158-2.27-.36-3.324-1.312-1.49-1.927-.893-3.571-.893-6.155ZM176.326 173.504h7.859v3.83h-7.859v-3.83Z"/></g><defs><clipPath id="clip0_12672_1579"><path fill="#fff" d="M0 0h262.5v262.5H0z"/></clipPath></defs></svg>