<svg xmlns="http://www.w3.org/2000/svg" width="16" height="16" fill="none" viewBox="1.26 17.79 100 108.86"><path fill="#0696B6" d="M1.261 23.871a6.075 6.075 0 0 1 6.076-6.075H31.36v42.77c0 16.623-13.475 30.099-30.099 30.099V23.87ZM101.232 120.578a6.075 6.075 0 0 1-6.075 6.075H71.133v-42.77c0-16.623 13.476-30.099 30.099-30.099v66.794ZM43.324 47.895a6.075 6.075 0 0 1-6.075-6.075V17.796h33.884c16.623 0 30.099 13.476 30.099 30.1H43.324ZM59.183 96.554a6.075 6.075 0 0 1 6.076 6.075v24.024H31.375c-16.624 0-30.1-13.476-30.1-30.1h57.908Z"/></svg>