<svg xmlns="http://www.w3.org/2000/svg" xmlns:xlink="http://www.w3.org/1999/xlink" width="12" height="8" fill="none" viewBox="0 0 12 8"><defs><path id="reuse-0" fill="#C8B100" stroke="#000" stroke-width=".26" d="M4.502 3.686h-.01v.016h.002l.013-.008-.005-.008Z"/></defs><g clip-path="url(#clip0_150_492)"><path fill="#C60B1E" d="M12 0H0v8h12V0Z"/><path fill="#FFC400" d="M12 2H0v4h12V2Z"/><path fill="#AD1519" stroke="#000" stroke-linejoin="round" stroke-width=".26" d="M2.688 3.556s-.008 0-.013-.003a.193.193 0 0 1-.018-.015l-.01-.008-.01-.014s-.012-.018-.007-.033a.041.041 0 0 1 .023-.024l.025-.01.018-.006.02-.005.01-.005.014-.002c.004-.001.013-.004.018-.004l.027.001.026.001.035-.002h.018c.007.001.02.005.024.007l.033.012c.008.003.028.006.037.01a.052.052 0 0 1 .02.018c.004.006.005.013.006.017a.03.03 0 0 1 0 .018c-.001.004-.008.013-.008.013l-.01.016-.012.01s-.01.009-.017.008c-.007 0-.08-.014-.127-.014a.882.882 0 0 0-.122.014Z"/><path fill="#C8B100" stroke="#000" stroke-width=".26" d="M2.81 3.49c.013 0 .023-.017.023-.04 0-.021-.01-.04-.022-.04-.013 0-.022.019-.022.04 0 .023.01.04.022.04Z"/><path fill="#C8B100" stroke="#000" stroke-width=".26" d="M2.81 3.488c.007 0 .011-.017.011-.037 0-.02-.004-.037-.01-.037s-.01.017-.01.037c0 .02.004.037.01.037Z"/><path fill="#C8B100" d="M2.81 3.423c.01 0 .016-.007.016-.014 0-.008-.007-.014-.015-.014s-.015.006-.015.014c0 .007.007.014.015.014Z"/><path fill="#C8B100" stroke="#000" stroke-width=".3" d="M2.831 3.404v.01h-.04v-.01h.015v-.021h-.01v-.01h.01v-.009h.01v.01h.01v.009h-.01v.02h.015Z"/><path stroke="#000" stroke-width=".26" d="M2.815 3.395c.004.001.007.003.009.006a.013.013 0 0 1-.003.018.016.016 0 0 1-.02 0 .013.013 0 0 1-.003-.018.015.015 0 0 1 .01-.006"/><path fill="#C8B100" stroke="#000" stroke-width=".26" d="M2.81 3.553h-.076l-.002-.019-.003-.02-.004-.024c-.021-.028-.041-.046-.048-.042.002-.005.004-.01.008-.012.019-.01.058.016.087.06a.242.242 0 0 1 .007.012h.064a.242.242 0 0 1 .007-.012c.03-.044.068-.07.087-.06.004.003.006.007.008.012-.007-.004-.026.014-.048.042l-.003.025-.004.02-.002.018h-.077Z"/><path stroke="#000" stroke-width=".26" d="M2.68 3.447c.015-.008.05.018.077.06m.184-.06c-.014-.008-.048.018-.075.06"/><path fill="#C8B100" d="M2.697 3.588a.075.075 0 0 0-.009-.017.463.463 0 0 1 .123-.015c.048 0 .092.006.123.015l-.009.014a.11.11 0 0 0-.006.013.383.383 0 0 0-.108-.013.375.375 0 0 0-.11.014l-.004-.011Z"/><path stroke="#000" stroke-width=".26" d="M2.697 3.588a.075.075 0 0 0-.009-.017.463.463 0 0 1 .123-.015c.048 0 .092.006.123.015l-.009.014a.11.11 0 0 0-.006.013.383.383 0 0 0-.108-.013.375.375 0 0 0-.11.014l-.004-.011"/><path fill="#C8B100" stroke="#000" stroke-width=".26" d="M2.81 3.628a.505.505 0 0 0 .098-.01c.01-.004.017-.008.016-.014 0-.002-.003-.005-.006-.006a.397.397 0 0 0-.107-.013.399.399 0 0 0-.108.013c-.003.001-.005.004-.006.006 0 .006.005.01.016.014.016.004.059.01.098.01ZM2.936 3.553l-.01-.008s-.009.005-.02.004c-.011-.002-.015-.016-.015-.016s-.013.01-.023.01-.017-.01-.017-.01-.012.008-.022.007c-.01 0-.019-.013-.019-.013s-.01.013-.02.014c-.01 0-.018-.009-.018-.009s-.004.01-.017.012c-.013.002-.024-.01-.024-.01s-.007.012-.015.015c-.01.003-.02-.005-.02-.005l-.004.007c0 .003-.005.003-.005.003l.003.008a.449.449 0 0 1 .12-.015c.048 0 .092.006.123.015l.003-.009Z"/><path fill="#C8B100" stroke="#000" stroke-width=".26" d="M2.811 3.512h.004a.015.015 0 0 0 0 .007c0 .009.008.017.017.017a.018.018 0 0 0 .017-.012l.003-.006v.006c.002.009.01.015.018.015.01 0 .018-.008.018-.017V3.52l.005-.006.003.007a.017.017 0 0 0 .015.024.017.017 0 0 0 .015-.008l.004-.004v.006c0 .005.002.01.007.01 0 0 .006.001.015-.005l.013-.012v.007s-.008.013-.015.017c-.004.003-.01.005-.015.004-.006 0-.01-.005-.011-.01a.025.025 0 0 1-.013.004.025.025 0 0 1-.023-.014.026.026 0 0 1-.039-.001.026.026 0 0 1-.039-.004.026.026 0 0 1-.02.01.025.025 0 0 1-.018-.006.026.026 0 0 1-.039.001.025.025 0 0 1-.022.014.024.024 0 0 1-.013-.004c-.002.005-.006.01-.011.01-.005.001-.011-.001-.015-.004-.008-.004-.016-.017-.016-.017v-.007a.1.1 0 0 0 .014.012c.008.006.014.006.014.006.006 0 .008-.006.008-.011v-.006l.004.004a.017.017 0 0 0 .014.008.017.017 0 0 0 .015-.024l.003-.007.006.006v.002c0 .01.007.017.017.017.01 0 .017-.006.018-.015v-.006c.002 0 .003.006.003.006a.018.018 0 0 0 .017.012c.01 0 .018-.008.018-.017v-.006l.004-.001Z"/><path fill="#C8B100" stroke="#000" stroke-linejoin="round" stroke-width=".26" d="M2.81 3.556a.463.463 0 0 0-.122.015c-.002 0-.005-.001-.005-.003s0-.004.003-.005a.447.447 0 0 1 .125-.016c.05 0 .094.006.125.016.002 0 .004.003.003.005 0 .002-.003.003-.005.003a.464.464 0 0 0-.123-.015Z"/><path fill="#C8B100" stroke="#000" stroke-width=".26" d="m2.647 3.536-.01-.012c-.004-.003-.011-.005-.011-.005 0-.001.004-.004.009-.004.003 0 .005 0 .007.003v-.003s.005 0 .006.005c.002.004.001.011.001.011s0 .003-.002.005Z"/><path fill="#C8B100" d="m2.677 3.524-.002.01-.022.002-.003-.001V3.53l.017-.014.01.007Z"/><path stroke="#000" stroke-width=".26" d="m2.677 3.524-.002.01-.022.002-.003-.001V3.53l.017-.014.01.007"/><path fill="#C8B100" stroke="#000" stroke-width=".26" d="M2.647 3.532c.002-.002.006-.001.009.001.003.002.004.006.002.008s-.006.002-.009-.001c-.003-.002-.004-.006-.002-.008ZM2.688 3.534c0-.003 0-.006.002-.007.003 0 .005.002.006.005s0 .006-.002.006c-.002.001-.005 0-.006-.004ZM2.699 3.52l.008.008.02-.01v-.004l-.002-.002-.022-.002-.004.01Z"/><path fill="#C8B100" d="m2.721 3.484-.01.01.013.019.004.001.003-.003.005-.022-.015-.005Z"/><path stroke="#000" stroke-width=".26" d="m2.721 3.484-.01.01.013.019.004.001.003-.003.005-.022-.015-.005"/><path fill="#C8B100" d="m2.758 3.509-.004.01-.023-.002-.003-.003.002-.003.02-.01.008.008Z"/><path stroke="#000" stroke-width=".26" d="m2.758 3.509-.004.01-.023-.002-.003-.003.002-.003.02-.01.008.008"/><path fill="#C8B100" stroke="#000" stroke-width=".26" d="M2.728 3.522a.008.008 0 0 0 .008-.008.008.008 0 0 0-.008-.007.008.008 0 0 0-.008.007c0 .005.004.008.008.008ZM2.766 3.52c0-.004.001-.007.003-.007.003 0 .005.002.005.005s-.001.006-.003.006-.005-.002-.005-.005Z"/><path fill="#C8B100" d="m2.78 3.508.007.009.021-.007.003-.003-.003-.003-.021-.006-.006.01Z"/><path stroke="#000" stroke-width=".26" d="m2.78 3.508.007.009.021-.007.003-.003-.003-.003-.021-.006-.006.01"/><path fill="#C8B100" d="m2.81 3.474-.013.009.01.022.004.002.003-.002.01-.022-.013-.009Z"/><path stroke="#000" stroke-width=".26" d="m2.81 3.474-.013.009.01.022.004.002.003-.002.01-.022-.013-.009"/><path fill="#C8B100" d="m2.84 3.508-.005.009-.022-.007-.002-.003.002-.003.022-.006.006.01Z"/><path stroke="#000" stroke-width=".26" d="m2.84 3.508-.005.009-.022-.007-.002-.003.002-.003.022-.006.006.01"/><path fill="#C8B100" stroke="#000" stroke-width=".26" d="M2.81 3.515a.008.008 0 0 0 .009-.008.008.008 0 0 0-.008-.007.008.008 0 0 0-.008.007c0 .005.003.008.008.008ZM2.856 3.52c0-.004-.001-.007-.003-.007-.003 0-.005.002-.005.005s0 .006.003.006c.002 0 .005-.002.005-.005Z"/><path fill="#C8B100" d="m2.864 3.509.004.01.022-.002.003-.003-.001-.003-.02-.01-.008.008Z"/><path stroke="#000" stroke-width=".26" d="m2.864 3.509.004.01.022-.002.003-.003-.001-.003-.02-.01-.008.008"/><path fill="#C8B100" d="m2.9 3.484.011.01-.014.019-.003.001-.003-.003-.005-.022.014-.005Z"/><path stroke="#000" stroke-width=".26" d="m2.9 3.484.011.01-.014.019-.003.001-.003-.003-.005-.022.014-.005"/><path fill="#C8B100" d="m2.923 3.52-.008.008-.02-.01-.001-.004.003-.002.022-.002.004.01Z"/><path stroke="#000" stroke-width=".26" d="m2.923 3.52-.008.008-.02-.01-.001-.004.003-.002.022-.002.004.01"/><path fill="#C8B100" stroke="#000" stroke-width=".26" d="M2.894 3.522a.008.008 0 0 0 .007-.008.008.008 0 0 0-.007-.007.008.008 0 0 0-.008.007c0 .005.003.008.008.008ZM2.933 3.534c.001-.003 0-.006-.002-.007-.002 0-.004.002-.006.005 0 .003 0 .006.003.006.002.001.004 0 .005-.004ZM2.972 3.536l.01-.012a.036.036 0 0 1 .01-.005c0-.001-.004-.004-.008-.004a.009.009 0 0 0-.008.003v-.003s-.004 0-.006.005c-.002.004 0 .011 0 .011s0 .003.002.005ZM2.941 3.524l.002.01.023.002.003-.001V3.53l-.018-.014-.01.007Z"/><path fill="#C8B100" stroke="#000" stroke-width=".26" d="M2.972 3.532c-.002-.002-.006-.001-.009.001-.003.002-.003.006-.002.008.002.002.006.002.01-.001.002-.002.003-.006 0-.008Z"/><path fill="#AD1519" stroke="#000" stroke-width=".26" d="m2.689 3.589.005-.008.01.002-.006.009-.01-.003Z"/><path fill="#058E6E" d="m2.734 3.581-.011.002c-.003 0-.006-.002-.007-.004 0-.003.002-.006.005-.006l.011-.002.011-.001c.003 0 .006.001.006.004a.005.005 0 0 1-.004.005l-.011.002Z"/><path stroke="#000" stroke-width=".26" d="m2.734 3.581-.011.002c-.003 0-.006-.002-.007-.004 0-.003.002-.006.005-.006l.011-.002.011-.001c.003 0 .006.001.006.004a.005.005 0 0 1-.004.005l-.011.002"/><path fill="#fff" stroke="#000" stroke-width=".26" d="M2.771 3.58c.004 0 .007-.004.007-.007 0-.004-.003-.007-.007-.007s-.007.003-.007.007c0 .003.003.006.007.006Z"/><path fill="#AD1519" d="M2.811 3.576h-.015c-.003 0-.005-.003-.005-.005 0-.003.002-.005.005-.005h.031c.003 0 .005.002.005.005 0 .002-.002.005-.005.005h-.016Z"/><path stroke="#000" stroke-width=".26" d="M2.811 3.576h-.015c-.003 0-.005-.003-.005-.005 0-.003.002-.005.005-.005h.031c.003 0 .005.002.005.005 0 .002-.002.005-.005.005h-.016"/><path fill="#fff" stroke="#000" stroke-width=".26" d="M2.85 3.58c.004 0 .008-.004.008-.007 0-.004-.004-.007-.007-.007-.004 0-.007.003-.007.007 0 .003.003.006.007.006Z"/><path fill="#058E6E" d="m2.888 3.581.011.002c.003 0 .006-.002.006-.004a.005.005 0 0 0-.004-.006l-.011-.002-.012-.001c-.003 0-.005.001-.006.004 0 .002.002.005.005.005l.011.002Z"/><path stroke="#000" stroke-width=".26" d="m2.888 3.581.011.002c.003 0 .006-.002.006-.004a.005.005 0 0 0-.004-.006l-.011-.002-.012-.001c-.003 0-.005.001-.006.004 0 .002.002.005.005.005l.011.002"/><path fill="#AD1519" stroke="#000" stroke-width=".26" d="m2.932 3.59-.004-.01-.01.002.004.01.01-.003Z"/><path fill="#AD1519" stroke="#000" stroke-linejoin="round" stroke-width=".26" d="M2.81 3.619a.422.422 0 0 1-.1-.01.426.426 0 0 1 .202 0 .426.426 0 0 1-.101.01Z"/><path stroke="#000" stroke-width=".01" d="M2.829 3.617V3.6m-.01.019v-.02m-.006.02v-.02"/><path stroke="#000" stroke-width=".02" d="M2.807 3.618v-.02"/><path stroke="#000" stroke-width=".03" d="M2.802 3.618v-.02"/><path stroke="#000" stroke-width=".04" d="M2.796 3.618v-.02M2.791 3.618v-.02"/><path stroke="#000" stroke-width=".05" d="M2.787 3.618v-.02"/><path stroke="#000" stroke-width=".06" d="M2.778 3.617V3.6m.004.019v-.02"/><path stroke="#000" stroke-width=".07" d="M2.77 3.616V3.6m.004.017v-.018"/><path stroke="#000" stroke-width=".08" d="M2.759 3.616V3.6m.003.015V3.6m.004.016V3.6"/><path stroke="#000" stroke-width=".09" d="M2.755 3.615v-.014"/><path stroke="#000" stroke-width=".1" d="M2.752 3.615V3.6"/><path stroke="#000" stroke-width=".11" d="M2.748 3.614v-.012"/><path stroke="#000" stroke-width=".12" d="M2.74 3.613v-.01m.004.01v-.01M2.736 3.612v-.008"/><path stroke="#000" stroke-width=".13" d="M2.732 3.612v-.008"/><path stroke="#000" stroke-width=".14" d="M2.728 3.61v-.005"/><path stroke="#000" stroke-width=".15" d="M2.724 3.61v-.004"/><path stroke="#000" stroke-width=".18" d="M2.72 3.61v-.003"/><path fill="#005BBF" stroke="#000" stroke-width=".39" d="M3.06 5.29a.136.136 0 0 1-.062-.013.139.139 0 0 0-.062-.013.142.142 0 0 0-.063.013.138.138 0 0 1-.063.014.136.136 0 0 1-.062-.015.14.14 0 0 0-.061-.012.136.136 0 0 0-.062.013.138.138 0 0 1-.063.014v.038a.14.14 0 0 0 .063-.014.136.136 0 0 1 .062-.013.14.14 0 0 1 .06.013.138.138 0 0 0 .063.014.138.138 0 0 0 .063-.013.14.14 0 0 1 .063-.014c.024 0 .046.005.062.014a.135.135 0 0 0 .062.013v-.038Z"/><path fill="#CCC" stroke="#000" stroke-width=".39" d="M3.06 5.33a.136.136 0 0 1-.062-.014.139.139 0 0 0-.062-.014.14.14 0 0 0-.063.014.138.138 0 0 1-.063.013.138.138 0 0 1-.062-.014.14.14 0 0 0-.061-.013.136.136 0 0 0-.062.013.14.14 0 0 1-.063.014v.039a.14.14 0 0 0 .063-.014.136.136 0 0 1 .062-.013.14.14 0 0 1 .06.013.136.136 0 0 0 .063.014.14.14 0 0 0 .063-.014.14.14 0 0 1 .063-.013c.024 0 .046.005.062.013a.137.137 0 0 0 .062.014v-.039Z"/><path fill="#005BBF" stroke="#000" stroke-width=".39" d="M3.06 5.368a.138.138 0 0 1-.062-.014.137.137 0 0 0-.062-.013.14.14 0 0 0-.063.013.14.14 0 0 1-.063.014.136.136 0 0 1-.062-.014.14.14 0 0 0-.061-.013.136.136 0 0 0-.062.013.14.14 0 0 1-.063.014v.038a.138.138 0 0 0 .063-.014.138.138 0 0 1 .062-.012c.023 0 .045.004.06.012a.136.136 0 0 0 .063.014.138.138 0 0 0 .063-.013.14.14 0 0 1 .063-.013c.024 0 .046.004.062.013a.133.133 0 0 0 .062.013v-.038Z"/><path fill="#CCC" d="M3.06 5.445a.135.135 0 0 1-.062-.014.139.139 0 0 0-.062-.013.14.14 0 0 0-.063.013.14.14 0 0 1-.063.014.138.138 0 0 1-.062-.014.138.138 0 0 0-.061-.013.136.136 0 0 0-.062.013.14.14 0 0 1-.063.014v-.038a.138.138 0 0 0 .063-.015.138.138 0 0 1 .062-.012c.023 0 .045.004.06.012a.136.136 0 0 0 .063.014.138.138 0 0 0 .063-.013.14.14 0 0 1 .063-.013c.024 0 .046.004.062.013a.134.134 0 0 0 .062.013v.04Z"/><path stroke="#000" stroke-width=".39" d="M3.06 5.445a.135.135 0 0 1-.062-.014.139.139 0 0 0-.062-.013.14.14 0 0 0-.063.013.14.14 0 0 1-.063.014.138.138 0 0 1-.062-.014.138.138 0 0 0-.061-.013.136.136 0 0 0-.062.013.14.14 0 0 1-.063.014v-.038a.138.138 0 0 0 .063-.015.138.138 0 0 1 .062-.012c.023 0 .045.004.06.012a.136.136 0 0 0 .063.014.138.138 0 0 0 .063-.013.14.14 0 0 1 .063-.013c.024 0 .046.004.062.013a.134.134 0 0 0 .062.013v.04"/><path fill="#005BBF" stroke="#000" stroke-width=".39" d="M3.06 5.484a.137.137 0 0 1-.062-.014.137.137 0 0 0-.062-.014.14.14 0 0 0-.063.014.14.14 0 0 1-.063.014.138.138 0 0 1-.062-.015.138.138 0 0 0-.061-.013.136.136 0 0 0-.062.014.14.14 0 0 1-.063.014v-.039a.14.14 0 0 0 .063-.014.136.136 0 0 1 .062-.013c.023 0 .045.005.06.013a.138.138 0 0 0 .063.014.14.14 0 0 0 .063-.014.14.14 0 0 1 .063-.013c.024 0 .046.005.062.013a.136.136 0 0 0 .062.014v.039Z"/><path fill="#C8B100" stroke="#000" stroke-linejoin="round" stroke-width=".39" d="m2.67 5.132.003.01c0 .024-.02.042-.045.042h.367c-.025 0-.045-.018-.045-.042l.001-.01a.02.02 0 0 1-.007.001h-.273Z"/><path fill="#C8B100" stroke="#000" stroke-width=".39" d="M2.677 5.108h.267c.01 0 .017.006.017.013 0 .007-.008.012-.017.012h-.267c-.009 0-.016-.005-.016-.012s.007-.013.016-.013ZM2.628 5.278h.366v-.094h-.366v.094Z"/><path fill="#CCC" stroke="#000" stroke-width=".39" d="M2.68 5.093h.26V3.82h-.26v1.274Z"/><path stroke="#000" stroke-width=".39" d="M2.866 3.82v1.272m.03-1.271v1.271"/><path fill="#C8B100" stroke="#000" stroke-width=".39" d="M2.633 3.718h.357v-.094h-.357v.094Z"/><path fill="#C8B100" stroke="#000" stroke-linejoin="round" stroke-width=".39" d="M2.67 3.78a.015.015 0 0 1 .007-.001h.267l.008.001a.022.022 0 0 1-.016-.02c0-.01.007-.019.016-.022a.03.03 0 0 1-.008.001H2.67h.001c.01.002.015.01.015.02a.022.022 0 0 1-.015.021Z"/><path fill="#C8B100" stroke="#000" stroke-width=".39" d="M2.677 3.779h.267c.01 0 .017.006.017.013 0 .007-.008.012-.017.012h-.267c-.009 0-.016-.005-.016-.012s.007-.013.016-.013ZM2.677 3.718h.267c.01 0 .017.005.017.01 0 .006-.007.011-.017.011h-.267c-.009 0-.016-.005-.016-.01 0-.006.007-.011.016-.011Z"/><path fill="#AD1519" stroke="#000" stroke-width=".39" d="M2.6 4.778c-.037.02-.061.042-.057.053.002.01.013.017.03.028.026.018.041.05.029.065a.092.092 0 0 0-.002-.146Z"/><path fill="#AD1519" d="M3.206 4.296a.83.83 0 0 0-.388-.034c-.156.026-.274.088-.265.139l.001.004-.06-.136c-.01-.056.122-.125.294-.154a.88.88 0 0 1 .153-.012c.11 0 .207.014.265.035v.158Z"/><path stroke="#000" stroke-linejoin="round" stroke-width=".39" d="M3.206 4.296a.83.83 0 0 0-.388-.034c-.156.026-.274.088-.265.139l.001.004-.06-.136c-.01-.056.122-.125.294-.154a.88.88 0 0 1 .153-.012c.11 0 .207.014.265.035v.158"/><path fill="#AD1519" stroke="#000" stroke-width=".39" d="M2.68 4.456c-.072-.006-.121-.025-.127-.055-.004-.024.02-.05.064-.075.02.002.041.005.064.005v.125Z"/><path fill="#AD1519" d="M2.941 4.358a.215.215 0 0 1 .096.032l.002.003c.008.016-.032.051-.098.09v-.125Z"/><path stroke="#000" stroke-width=".39" d="M2.941 4.358a.215.215 0 0 1 .096.032l.002.003c.008.016-.032.051-.098.09v-.125"/><path fill="#AD1519" stroke="#000" stroke-linejoin="round" stroke-width=".39" d="M2.519 4.701c-.007-.02.063-.061.163-.098.045-.016.082-.033.129-.054.138-.06.24-.13.227-.156l-.001-.003a.92.92 0 0 1 .019.132c.012.023-.08.092-.208.153a2.21 2.21 0 0 1-.167.066c-.073.025-.145.072-.138.09l-.024-.13Z"/><path fill="#AD1519" stroke="#000" stroke-width=".27" d="M5.198 3.527s-.012.012-.02.014c-.01.002-.02-.008-.02-.008s-.008.008-.018.01c-.009.003-.022-.01-.022-.01s-.01.013-.017.016c-.008.003-.018-.004-.018-.004s-.004.006-.01.01c-.004.001-.008-.001-.008-.001l-.01-.006-.01-.012-.01-.004-.006-.017-.001-.009c-.002-.01.014-.022.037-.027a.065.065 0 0 1 .033 0c.009-.008.028-.014.051-.014.02 0 .039.004.049.011a.09.09 0 0 1 .048-.01c.023 0 .042.005.051.012a.066.066 0 0 1 .033 0c.023.006.04.018.037.028l-.001.01a.384.384 0 0 1-.005.016l-.01.004-.011.012-.01.006s-.004.002-.007 0c-.007-.003-.01-.01-.01-.01s-.01.008-.019.005c-.008-.003-.017-.016-.017-.016s-.013.013-.023.01c-.009-.002-.017-.01-.017-.01s-.01.01-.02.008c-.008-.002-.02-.014-.02-.014Z"/><path fill="#C8B100" stroke="#000" stroke-width=".26" d="M5.197 3.49c.012 0 .022-.013.022-.03 0-.018-.01-.032-.022-.032-.012 0-.022.014-.022.031 0 .018.01.032.022.032Z"/><path fill="#C8B100" stroke="#000" stroke-width=".26" d="M5.198 3.488c.005 0 .01-.013.01-.029s-.005-.029-.01-.029c-.006 0-.01.013-.01.03 0 .015.004.028.01.028Z"/><path fill="#C8B100" d="M5.197 3.437a.014.014 0 0 0 .015-.014.014.014 0 0 0-.014-.014.014.014 0 0 0-.015.014c0 .008.006.014.014.014Z"/><path fill="#C8B100" d="M5.218 3.418v.01h-.04v-.01h.015v-.02h-.01v-.01h.01v-.01h.01v.01h.01v.01h-.01v.02h.015Z"/><path stroke="#000" stroke-width=".3" d="M5.218 3.418v.01h-.04v-.01h.015v-.02h-.01v-.01h.01v-.01h.01v.01h.01v.01h-.01v.02h.015"/><path stroke="#000" stroke-width=".26" d="M5.202 3.41a.015.015 0 0 1 .008.006.013.013 0 0 1-.003.018.015.015 0 0 1-.02 0 .014.014 0 0 1-.002-.018.015.015 0 0 1 .009-.006"/><path stroke="#000" stroke-linecap="round" stroke-width=".26" d="M5.03 3.52a.046.046 0 0 1 .042-.063c.008 0 .016.002.022.005"/><path stroke="#000" stroke-width=".26" d="M5.112 3.487a.028.028 0 0 1-.005-.014c0-.018.02-.033.042-.033.01 0 .02.003.027.007M5.283 3.487a.029.029 0 0 0 .004-.014c0-.018-.02-.033-.042-.033a.05.05 0 0 0-.027.007"/><path stroke="#000" stroke-linecap="round" stroke-width=".26" d="M5.363 3.52a.046.046 0 0 0-.042-.063.043.043 0 0 0-.022.005"/><path stroke="#000" stroke-width=".21" d="M5.017 3.506a.007.007 0 0 0 .007-.007.007.007 0 0 0-.007-.007.007.007 0 0 0-.007.007c0 .004.003.007.007.007ZM5.02 3.48a.007.007 0 0 0 .007-.006.007.007 0 0 0-.007-.007.007.007 0 0 0-.007.007c0 .003.003.006.007.006ZM5.036 3.461a.007.007 0 0 0 .007-.007.007.007 0 0 0-.007-.006.007.007 0 0 0-.007.006c0 .004.003.007.007.007ZM5.058 3.45a.007.007 0 0 0 .007-.006.007.007 0 0 0-.007-.007.007.007 0 0 0-.007.007c0 .004.003.007.007.007ZM5.08 3.452a.007.007 0 0 0 .008-.007.007.007 0 0 0-.007-.007.007.007 0 0 0-.007.007c0 .004.003.007.007.007Z"/><path fill="#fff" stroke="#000" stroke-width=".21" d="M5.095 3.48a.007.007 0 0 0 .007-.007.007.007 0 0 0-.007-.007.007.007 0 0 0-.007.007c0 .004.003.007.007.007Z"/><path stroke="#000" stroke-width=".21" d="M5.099 3.456a.007.007 0 0 0 .007-.007.007.007 0 0 0-.007-.007.007.007 0 0 0-.007.007c0 .004.003.007.007.007ZM5.117 3.441a.007.007 0 0 0 .007-.007.007.007 0 0 0-.007-.007.007.007 0 0 0-.007.007c0 .004.003.007.007.007ZM5.14 3.434a.007.007 0 0 0 .007-.007.007.007 0 0 0-.007-.007.007.007 0 0 0-.008.007c0 .004.004.007.008.007ZM5.163 3.435a.007.007 0 0 0 .007-.007.007.007 0 0 0-.007-.007.007.007 0 0 0-.007.007c0 .004.003.007.007.007ZM5.231 3.435a.007.007 0 0 0 .007-.007.007.007 0 0 0-.007-.007.007.007 0 0 0-.007.007c0 .004.003.007.007.007ZM5.254 3.434a.007.007 0 0 0 .007-.007.007.007 0 0 0-.007-.007.007.007 0 0 0-.007.007c0 .004.003.007.007.007ZM5.277 3.441a.007.007 0 0 0 .007-.007.007.007 0 0 0-.007-.007.007.007 0 0 0-.007.007c0 .004.003.007.007.007ZM5.295 3.456a.007.007 0 0 0 .007-.007.007.007 0 0 0-.007-.007.007.007 0 0 0-.007.007c0 .004.003.007.007.007Z"/><path fill="#fff" stroke="#000" stroke-width=".21" d="M5.299 3.48a.007.007 0 0 0 .007-.007.007.007 0 0 0-.007-.007.007.007 0 0 0-.007.007c0 .004.003.007.007.007Z"/><path stroke="#000" stroke-width=".21" d="M5.313 3.452a.007.007 0 0 0 .007-.007.007.007 0 0 0-.007-.007.007.007 0 0 0-.007.007c0 .004.003.007.007.007ZM5.336 3.45a.007.007 0 0 0 .007-.006.007.007 0 0 0-.007-.007.007.007 0 0 0-.007.007c0 .004.003.007.007.007ZM5.358 3.461a.007.007 0 0 0 .007-.007.007.007 0 0 0-.007-.006.007.007 0 0 0-.007.006c0 .004.003.007.007.007ZM5.374 3.48a.007.007 0 0 0 .007-.006.007.007 0 0 0-.007-.007.007.007 0 0 0-.007.007c0 .003.003.006.007.006ZM5.377 3.506a.007.007 0 0 0 .007-.007.007.007 0 0 0-.007-.007.007.007 0 0 0-.007.007c0 .004.003.007.007.007Z"/><path fill="#C8B100" d="M5.084 3.588c-.003-.01-.01-.017-.01-.017a.463.463 0 0 1 .123-.015c.049 0 .092.006.123.015l-.008.014a.11.11 0 0 0-.006.013.383.383 0 0 0-.109-.013.375.375 0 0 0-.11.014l-.003-.011Z"/><path stroke="#000" stroke-width=".26" d="M5.084 3.588c-.003-.01-.01-.017-.01-.017a.463.463 0 0 1 .123-.015c.049 0 .092.006.123.015l-.008.014a.11.11 0 0 0-.006.013.383.383 0 0 0-.109-.013.375.375 0 0 0-.11.014l-.003-.011"/><path fill="#C8B100" stroke="#000" stroke-width=".26" d="M5.197 3.628a.505.505 0 0 0 .098-.01c.01-.004.017-.008.016-.014 0-.002-.003-.005-.006-.006a.397.397 0 0 0-.108-.013.399.399 0 0 0-.107.013c-.003.001-.005.004-.006.006-.001.006.005.01.016.014.016.004.059.01.097.01ZM5.322 3.553l-.01-.008s-.008.005-.02.004c-.01-.002-.014-.016-.014-.016s-.013.01-.023.01-.018-.01-.018-.01-.01.008-.02.007c-.01 0-.02-.013-.02-.013s-.01.013-.02.014c-.01 0-.018-.009-.018-.009s-.005.01-.017.012c-.013.002-.024-.01-.024-.01s-.007.012-.016.015c-.008.003-.02-.005-.02-.005l-.003.007c-.001.003-.005.003-.005.003l.003.008a.449.449 0 0 1 .12-.015c.048 0 .091.006.122.015l.004-.009Z"/><path fill="#C8B100" stroke="#000" stroke-width=".26" d="M5.198 3.512h.004a.015.015 0 0 0 0 .007c0 .009.007.017.017.017a.018.018 0 0 0 .017-.012l.003-.006v.006c.001.009.01.015.018.015.01 0 .018-.008.018-.017V3.52l.005-.006.003.007a.017.017 0 0 0 .015.024.017.017 0 0 0 .015-.008l.003-.004v.006c0 .005.003.01.008.01 0 0 .006.001.015-.005l.012-.012.001.007s-.008.013-.016.017c-.004.003-.01.005-.015.004-.005 0-.009-.005-.01-.01a.025.025 0 0 1-.013.004.025.025 0 0 1-.023-.014.026.026 0 0 1-.039-.001.026.026 0 0 1-.039-.004.026.026 0 0 1-.02.01.025.025 0 0 1-.018-.006.026.026 0 0 1-.039.001.025.025 0 0 1-.023.014.024.024 0 0 1-.012-.004c-.002.005-.006.01-.011.01-.005.001-.011-.001-.015-.004-.008-.004-.017-.017-.017-.017l.001-.007a.1.1 0 0 0 .013.012c.009.006.015.006.015.006.005 0 .008-.006.008-.011v-.006l.003.004a.017.017 0 0 0 .014.008.017.017 0 0 0 .016-.024l.003-.007.005.006v.002c0 .01.008.017.018.017.009 0 .017-.006.018-.015v-.006l.003.006a.018.018 0 0 0 .017.012c.01 0 .018-.008.018-.017l-.001-.006.005-.001Z"/><path fill="#C8B100" stroke="#000" stroke-linejoin="round" stroke-width=".26" d="M5.197 3.556a.463.463 0 0 0-.122.015c-.002 0-.005-.001-.006-.003 0-.002.001-.004.003-.005a.447.447 0 0 1 .125-.016c.05 0 .095.006.126.016.002 0 .003.003.003.005-.001.002-.004.003-.006.003a.464.464 0 0 0-.123-.015Z"/><path fill="#C8B100" stroke="#000" stroke-width=".26" d="m5.034 3.536-.01-.012a.038.038 0 0 0-.012-.005c0-.001.005-.004.01-.004.002 0 .005 0 .007.003v-.003s.004 0 .006.005c.002.004 0 .011 0 .011l-.001.005Z"/><path fill="#C8B100" d="m5.064 3.524-.002.01-.022.002-.004-.001.001-.004.017-.014.01.007Z"/><path stroke="#000" stroke-width=".26" d="m5.064 3.524-.002.01-.022.002-.004-.001.001-.004.017-.014.01.007"/><path fill="#C8B100" stroke="#000" stroke-width=".26" d="M5.034 3.532c.002-.002.006-.001.008.001.003.002.004.006.002.008s-.005.002-.008-.001c-.003-.002-.004-.006-.002-.008ZM5.075 3.534c0-.003 0-.006.002-.007.002 0 .005.002.006.005s0 .006-.002.006c-.002.001-.005 0-.006-.004ZM5.085 3.52l.009.008.02-.01v-.004l-.002-.002-.023-.002-.004.01Z"/><path fill="#C8B100" d="m5.108 3.484-.01.01.013.019.004.001.002-.003.005-.022-.014-.005Z"/><path stroke="#000" stroke-width=".26" d="m5.108 3.484-.01.01.013.019.004.001.002-.003.005-.022-.014-.005"/><path fill="#C8B100" d="m5.144 3.509-.004.01-.022-.002-.003-.003.002-.003.02-.01.007.008Z"/><path stroke="#000" stroke-width=".26" d="m5.144 3.509-.004.01-.022-.002-.003-.003.002-.003.02-.01.007.008"/><path fill="#C8B100" stroke="#000" stroke-width=".26" d="M5.115 3.522a.008.008 0 0 0 .008-.008.008.008 0 0 0-.008-.007.008.008 0 0 0-.008.007c0 .005.004.008.008.008ZM5.153 3.52c0-.004 0-.007.003-.007.002 0 .005.002.005.005s-.001.006-.004.006c-.002 0-.004-.002-.004-.005Z"/><path fill="#C8B100" d="m5.167 3.508.007.009.021-.007.002-.003-.002-.003-.021-.006-.007.01Z"/><path stroke="#000" stroke-width=".26" d="m5.167 3.508.007.009.021-.007.002-.003-.002-.003-.021-.006-.007.01"/><path fill="#C8B100" d="m5.197 3.474-.014.009.01.022.004.002.004-.002.01-.022-.014-.009Z"/><path stroke="#000" stroke-width=".26" d="m5.197 3.474-.014.009.01.022.004.002.004-.002.01-.022-.014-.009"/><path fill="#C8B100" d="m5.228 3.508-.007.009L5.2 3.51l-.002-.003.002-.003.021-.006.007.01Z"/><path stroke="#000" stroke-width=".26" d="m5.228 3.508-.007.009L5.2 3.51l-.002-.003.002-.003.021-.006.007.01"/><path fill="#C8B100" stroke="#000" stroke-width=".26" d="M5.197 3.515a.008.008 0 0 0 .008-.008.008.008 0 0 0-.008-.007.008.008 0 0 0-.007.007c0 .005.003.008.007.008ZM5.243 3.52c0-.004-.002-.007-.004-.007s-.004.002-.005.005c0 .003.002.006.004.006s.004-.002.005-.005Z"/><path fill="#C8B100" d="m5.25 3.509.005.01.022-.002.003-.003-.002-.003-.02-.01-.007.008Z"/><path stroke="#000" stroke-width=".26" d="m5.25 3.509.005.01.022-.002.003-.003-.002-.003-.02-.01-.007.008"/><path fill="#C8B100" d="m5.287 3.484.01.01-.013.019-.004.001-.002-.003-.005-.022.014-.005Z"/><path stroke="#000" stroke-width=".26" d="m5.287 3.484.01.01-.013.019-.004.001-.002-.003-.005-.022.014-.005"/><path fill="#C8B100" d="m5.31 3.52-.009.008-.02-.01v-.004l.002-.002.023-.002.004.01Z"/><path stroke="#000" stroke-width=".26" d="m5.31 3.52-.009.008-.02-.01v-.004l.002-.002.023-.002.004.01"/><path fill="#C8B100" stroke="#000" stroke-width=".26" d="M5.28 3.522a.008.008 0 0 0 .008-.008.008.008 0 0 0-.008-.007.008.008 0 0 0-.008.007c0 .005.004.008.008.008ZM5.32 3.534c.001-.003 0-.006-.002-.007-.002 0-.005.002-.006.005 0 .003 0 .006.002.006.002.001.005 0 .006-.004ZM5.358 3.536l.01-.012a.036.036 0 0 1 .012-.005c0-.001-.005-.004-.01-.004a.009.009 0 0 0-.007.003v-.003s-.004 0-.006.005c-.002.004 0 .011 0 .011l.001.005ZM5.328 3.524l.002.01.022.002.004-.001-.001-.004-.017-.014-.01.007Z"/><path fill="#C8B100" stroke="#000" stroke-width=".26" d="M5.359 3.532c-.002-.002-.006-.001-.009.001-.003.002-.004.006-.002.008s.006.002.009-.001c.003-.002.003-.006.002-.008Z"/><path fill="#AD1519" stroke="#000" stroke-width=".26" d="m5.075 3.589.005-.008.01.002-.005.009-.01-.003Z"/><path fill="#058E6E" d="m5.12 3.581-.01.002c-.004 0-.006-.002-.007-.004 0-.003.002-.006.004-.006l.012-.002.01-.001c.004 0 .006.001.007.004a.005.005 0 0 1-.004.005l-.012.002Z"/><path stroke="#000" stroke-width=".26" d="m5.12 3.581-.01.002c-.004 0-.006-.002-.007-.004 0-.003.002-.006.004-.006l.012-.002.01-.001c.004 0 .006.001.007.004a.005.005 0 0 1-.004.005l-.012.002"/><path fill="#fff" stroke="#000" stroke-width=".26" d="M5.158 3.58c.004 0 .007-.004.007-.007 0-.004-.003-.007-.007-.007s-.007.003-.007.007c0 .003.003.006.007.006Z"/><path fill="#AD1519" d="M5.198 3.576h-.015c-.003 0-.006-.003-.006-.005 0-.003.002-.005.005-.005h.032c.003 0 .005.002.005.005 0 .002-.002.005-.005.005h-.016Z"/><path stroke="#000" stroke-width=".26" d="M5.198 3.576h-.015c-.003 0-.006-.003-.006-.005 0-.003.002-.005.005-.005h.032c.003 0 .005.002.005.005 0 .002-.002.005-.005.005h-.016"/><path fill="#fff" stroke="#000" stroke-width=".26" d="M5.237 3.58c.004 0 .007-.004.007-.007 0-.004-.003-.007-.007-.007s-.007.003-.007.007c0 .003.003.006.007.006Z"/><path fill="#058E6E" d="m5.275 3.581.01.002c.004 0 .006-.002.007-.004a.005.005 0 0 0-.005-.006l-.01-.002-.012-.001c-.003 0-.006.001-.006.004 0 .002.001.005.004.005l.012.002Z"/><path stroke="#000" stroke-width=".26" d="m5.275 3.581.01.002c.004 0 .006-.002.007-.004a.005.005 0 0 0-.005-.006l-.01-.002-.012-.001c-.003 0-.006.001-.006.004 0 .002.001.005.004.005l.012.002"/><path fill="#AD1519" stroke="#000" stroke-width=".26" d="m5.318 3.59-.004-.01-.01.002.005.01.01-.003Z"/><path fill="#AD1519" stroke="#000" stroke-linejoin="round" stroke-width=".26" d="M5.197 3.619a.422.422 0 0 1-.1-.01.426.426 0 0 1 .202 0 .426.426 0 0 1-.102.01Z"/><path stroke="#000" stroke-width=".01" d="M5.215 3.617V3.6m-.009.019v-.02m-.007.02v-.02"/><path stroke="#000" stroke-width=".02" d="M5.194 3.618v-.02"/><path stroke="#000" stroke-width=".03" d="M5.188 3.618v-.02"/><path stroke="#000" stroke-width=".04" d="M5.183 3.618v-.02M5.178 3.618v-.02"/><path stroke="#000" stroke-width=".05" d="M5.173 3.618v-.02"/><path stroke="#000" stroke-width=".06" d="M5.164 3.617V3.6m.005.019v-.02"/><path stroke="#000" stroke-width=".07" d="M5.156 3.616V3.6m.004.017v-.018"/><path stroke="#000" stroke-width=".08" d="M5.145 3.616V3.6m.004.015V3.6m.004.016V3.6"/><path stroke="#000" stroke-width=".09" d="M5.142 3.615v-.014"/><path stroke="#000" stroke-width=".1" d="M5.138 3.615V3.6"/><path stroke="#000" stroke-width=".11" d="M5.134 3.614v-.012"/><path stroke="#000" stroke-width=".12" d="M5.127 3.613v-.01m.003.01v-.01M5.122 3.612v-.008"/><path stroke="#000" stroke-width=".13" d="M5.119 3.612v-.008"/><path stroke="#000" stroke-width=".14" d="M5.115 3.61v-.005"/><path stroke="#000" stroke-width=".15" d="M5.11 3.61v-.004"/><path stroke="#000" stroke-width=".18" d="M5.106 3.61v-.003"/><path fill="#005BBF" stroke="#000" stroke-width=".39" d="M5.447 5.29a.136.136 0 0 1-.063-.013.139.139 0 0 0-.062-.013.142.142 0 0 0-.062.013.138.138 0 0 1-.063.014.136.136 0 0 1-.063-.015.14.14 0 0 0-.06-.012.136.136 0 0 0-.062.013.138.138 0 0 1-.063.014v.038a.14.14 0 0 0 .063-.014.136.136 0 0 1 .062-.013.14.14 0 0 1 .06.013.138.138 0 0 0 .063.014.138.138 0 0 0 .063-.013.14.14 0 0 1 .062-.014c.024 0 .046.005.062.014a.135.135 0 0 0 .063.013v-.038Z"/><path fill="#CCC" stroke="#000" stroke-width=".39" d="M5.447 5.33a.136.136 0 0 1-.063-.014.139.139 0 0 0-.062-.014.14.14 0 0 0-.062.014.138.138 0 0 1-.063.013.138.138 0 0 1-.063-.014.14.14 0 0 0-.06-.013.136.136 0 0 0-.062.013.14.14 0 0 1-.063.014v.039a.14.14 0 0 0 .063-.014.136.136 0 0 1 .062-.013.14.14 0 0 1 .06.013.136.136 0 0 0 .063.014.14.14 0 0 0 .063-.014.14.14 0 0 1 .062-.013c.024 0 .046.005.062.013a.137.137 0 0 0 .063.014v-.039Z"/><path fill="#005BBF" stroke="#000" stroke-width=".39" d="M5.447 5.368a.138.138 0 0 1-.063-.014.137.137 0 0 0-.062-.013.14.14 0 0 0-.062.013.14.14 0 0 1-.063.014.136.136 0 0 1-.063-.014.14.14 0 0 0-.06-.013.136.136 0 0 0-.062.013.14.14 0 0 1-.063.014v.038a.138.138 0 0 0 .063-.014.138.138 0 0 1 .062-.012c.023 0 .044.004.06.012a.136.136 0 0 0 .063.014.138.138 0 0 0 .063-.013.14.14 0 0 1 .062-.013c.024 0 .046.004.062.013a.133.133 0 0 0 .063.013v-.038Z"/><path fill="#CCC" d="M5.447 5.445a.135.135 0 0 1-.063-.014.139.139 0 0 0-.062-.013.14.14 0 0 0-.062.013.14.14 0 0 1-.063.014.138.138 0 0 1-.063-.014.138.138 0 0 0-.06-.013.136.136 0 0 0-.062.013.14.14 0 0 1-.063.014v-.038a.138.138 0 0 0 .063-.015.138.138 0 0 1 .062-.012c.023 0 .044.004.06.012a.136.136 0 0 0 .063.014.138.138 0 0 0 .063-.013.14.14 0 0 1 .062-.013c.024 0 .046.004.062.013a.134.134 0 0 0 .063.013v.04Z"/><path stroke="#000" stroke-width=".39" d="M5.447 5.445a.135.135 0 0 1-.063-.014.139.139 0 0 0-.062-.013.14.14 0 0 0-.062.013.14.14 0 0 1-.063.014.138.138 0 0 1-.063-.014.138.138 0 0 0-.06-.013.136.136 0 0 0-.062.013.14.14 0 0 1-.063.014v-.038a.138.138 0 0 0 .063-.015.138.138 0 0 1 .062-.012c.023 0 .044.004.06.012a.136.136 0 0 0 .063.014.138.138 0 0 0 .063-.013.14.14 0 0 1 .062-.013c.024 0 .046.004.062.013a.134.134 0 0 0 .063.013v.04"/><path fill="#005BBF" stroke="#000" stroke-width=".39" d="M5.447 5.484a.137.137 0 0 1-.063-.014.137.137 0 0 0-.062-.014.14.14 0 0 0-.062.014.14.14 0 0 1-.063.014.138.138 0 0 1-.063-.015.138.138 0 0 0-.06-.013.136.136 0 0 0-.062.014.14.14 0 0 1-.063.014v-.039a.14.14 0 0 0 .063-.014.136.136 0 0 1 .062-.013c.023 0 .044.005.06.013a.138.138 0 0 0 .063.014.14.14 0 0 0 .063-.014.14.14 0 0 1 .062-.013c.024 0 .046.005.062.013a.136.136 0 0 0 .063.014v.039Z"/><path fill="#C8B100" stroke="#000" stroke-linejoin="round" stroke-width=".39" d="m5.057 5.132.002.01c0 .024-.02.042-.044.042h.367c-.025 0-.045-.018-.045-.042l.001-.01a.02.02 0 0 1-.007.001h-.274Z"/><path fill="#C8B100" stroke="#000" stroke-width=".39" d="M5.064 5.108h.267c.01 0 .016.006.016.013 0 .007-.007.012-.016.012h-.267c-.009 0-.016-.005-.016-.012s.007-.013.016-.013ZM5.015 5.278h.366v-.094h-.366v.094Z"/><path fill="#CCC" stroke="#000" stroke-width=".39" d="M5.067 5.093h.26V3.82h-.26v1.274Z"/><path stroke="#000" stroke-width=".39" d="M5.253 3.82v1.272m.029-1.271v1.271"/><path fill="#C8B100" stroke="#000" stroke-width=".39" d="M5.02 3.718h.357v-.094H5.02v.094Z"/><path fill="#C8B100" stroke="#000" stroke-linejoin="round" stroke-width=".39" d="M5.057 3.78a.015.015 0 0 1 .007-.001h.267l.007.001a.022.022 0 0 1-.016-.02c0-.01.008-.019.017-.022a.03.03 0 0 1-.008.001h-.275.002c.01.002.015.01.015.02a.022.022 0 0 1-.016.021Z"/><path fill="#C8B100" stroke="#000" stroke-width=".39" d="M5.064 3.779h.267c.01 0 .016.006.016.013 0 .007-.007.012-.016.012h-.267c-.009 0-.016-.005-.016-.012s.007-.013.016-.013ZM5.064 3.718h.267c.01 0 .017.005.017.01 0 .006-.008.011-.017.011h-.267c-.009 0-.016-.005-.016-.01 0-.006.007-.011.016-.011Z"/><path fill="#AD1519" stroke="#000" stroke-width=".39" d="M5.41 4.778c.036.02.06.042.056.053-.002.01-.013.017-.03.028-.026.018-.041.05-.029.065a.092.092 0 0 1 .002-.146Z"/><path fill="#AD1519" d="M4.803 4.296a.83.83 0 0 1 .388-.034c.156.026.274.088.265.139l-.001.004.06-.136c.01-.056-.122-.125-.294-.154a.88.88 0 0 0-.153-.012.828.828 0 0 0-.265.035v.158Z"/><path stroke="#000" stroke-linejoin="round" stroke-width=".39" d="M4.803 4.296a.83.83 0 0 1 .388-.034c.156.026.274.088.265.139l-.001.004.06-.136c.01-.056-.122-.125-.294-.154a.88.88 0 0 0-.153-.012.828.828 0 0 0-.265.035v.158"/><path fill="#AD1519" stroke="#000" stroke-width=".39" d="M5.329 4.456c.072-.006.121-.025.127-.055.004-.024-.02-.05-.064-.075-.02.002-.041.005-.064.005v.125Z"/><path fill="#AD1519" d="M5.068 4.358a.215.215 0 0 0-.096.032l-.002.003c-.008.016.032.051.098.09v-.125Z"/><path stroke="#000" stroke-width=".39" d="M5.068 4.358a.215.215 0 0 0-.096.032l-.002.003c-.008.016.032.051.098.09v-.125"/><path fill="#AD1519" stroke="#000" stroke-linejoin="round" stroke-width=".39" d="M5.49 4.701c.007-.02-.063-.061-.163-.098-.045-.016-.082-.033-.129-.054-.138-.06-.24-.13-.227-.156l.001-.003c-.007.006-.019.132-.019.132-.012.023.08.092.208.153.04.02.127.051.167.066.073.025.145.072.138.09l.024-.13Z"/><path fill="#C8B100" d="M2.663 4.234c.032-.011.052-.025.042-.05-.006-.016-.023-.019-.047-.01l-.044.016.04.096a.223.223 0 0 1 .012-.005l.014-.004-.017-.042Zm-.02-.046.012-.004c.009-.004.02.001.024.013.003.008.002.018-.008.024-.003.003-.007.004-.011.006l-.016-.04ZM2.764 4.148l-.013.003a.212.212 0 0 1-.014.002l.022.1.07-.014-.002-.006v-.006a.508.508 0 0 1-.042.01l-.02-.09ZM2.905 4.234c.013-.036.03-.071.045-.107l-.009.001h-.008a.906.906 0 0 1-.03.077c-.013-.024-.028-.048-.04-.072l-.016.002h-.016c.02.033.04.066.058.1a.105.105 0 0 1 .008-.001h.008ZM3.051 4.157a.201.201 0 0 1 .008-.014.057.057 0 0 0-.029-.01c-.028-.003-.045.01-.047.027-.004.036.053.033.05.057 0 .01-.011.014-.023.013-.013-.001-.023-.009-.024-.02h-.004a.121.121 0 0 1-.008.019c.009.005.02.008.03.01.03.002.052-.01.054-.028.003-.035-.054-.037-.052-.057.001-.009.008-.014.022-.013.011.001.018.007.02.015h.003ZM4.965 4.24c.01-.038.022-.074.035-.11a.05.05 0 0 1-.009.002h-.008a.878.878 0 0 1-.023.08c-.015-.024-.032-.046-.045-.07l-.017.004c-.005 0-.01 0-.016.002.023.03.045.062.067.094l.008-.002h.008ZM5.064 4.13l-.014.001h-.015l-.002.102h.072a.03.03 0 0 1 0-.006v-.006a.511.511 0 0 1-.043.001l.002-.091ZM5.176 4.147l.034.005v-.006l.001-.006-.097-.008v.006l-.001.006.035.001-.008.092h.014l.014.003.008-.093ZM5.216 4.248l.014.003c.005 0 .01.002.014.004l.011-.047h.002l.008.019.014.035.017.003.016.005-.005-.011-.022-.048c.018 0 .032-.006.035-.02.002-.01-.002-.018-.01-.025-.008-.005-.021-.008-.03-.01l-.04-.008-.024.1Zm.05-.086c.012.002.026.004.026.017l-.001.008c-.004.015-.015.02-.034.014l.01-.04ZM5.401 4.28c0 .01-.003.021-.005.033l.015.007.013.008.01-.115a.12.12 0 0 1-.013-.007l-.102.065c.003 0 .006.002.008.004l.008.004.028-.02.038.02Zm-.029-.027.034-.022-.004.038-.03-.016Z"/><path fill="#AD1519" stroke="#000" stroke-width=".26" d="M3.994 2.924a.76.76 0 0 1 .263.04.54.54 0 0 0 .244.039.43.43 0 0 1 .17.039.46.46 0 0 1 .125.078l-.025.023-.008.063-.068.079-.035.03-.081.064-.042.004-.013.036-.526-.062-.528.062-.013-.036-.042-.004-.081-.065-.035-.029-.068-.079-.007-.063-.026-.023a.462.462 0 0 1 .125-.078.43.43 0 0 1 .17-.04.54.54 0 0 0 .244-.038.728.728 0 0 1 .257-.04Z"/><path fill="#C8B100" d="m3.605 3.063.022.017.034-.054a.123.123 0 0 1-.06-.119c.003-.07.088-.126.195-.126.056 0 .106.015.142.04a.511.511 0 0 1 .003-.03.29.29 0 0 0-.145-.037c-.123 0-.22.07-.224.153l-.001.015c0 .044.02.084.052.112l-.018.029Z"/><path stroke="#000" stroke-width=".39" d="m3.605 3.063.022.017.034-.054a.123.123 0 0 1-.06-.119c.003-.07.088-.126.195-.126.056 0 .106.015.142.04a.511.511 0 0 1 .003-.03.29.29 0 0 0-.145-.037c-.123 0-.22.07-.224.153l-.001.015c0 .044.02.084.052.112l-.018.029"/><path fill="#C8B100" d="M3.607 3.063c-.042-.031-.068-.074-.068-.12 0-.055.035-.103.089-.135a.142.142 0 0 0-.057.114c0 .044.02.084.052.112l-.016.03Z"/><path stroke="#000" stroke-width=".39" d="M3.607 3.063c-.042-.031-.068-.074-.068-.12 0-.055.035-.103.089-.135a.142.142 0 0 0-.057.114c0 .044.02.084.052.112l-.016.03"/><path fill="#C8B100" stroke="#000" stroke-width=".39" d="M3.235 3.118a.146.146 0 0 1-.023-.16c.034-.071.14-.122.268-.122a.44.44 0 0 1 .098.01l-.017.024a.424.424 0 0 0-.081-.007c-.116 0-.214.045-.242.106a.117.117 0 0 0-.012.051c0 .037.018.07.045.093l-.042.07-.023-.019.03-.046Z"/><path fill="#C8B100" stroke="#000" stroke-width=".39" d="M3.278 2.888a.177.177 0 0 0-.066.07.145.145 0 0 0 .023.16l-.025.042a.174.174 0 0 1-.039-.108c0-.067.043-.125.107-.164ZM4 2.74c.029 0 .053.019.059.044a.51.51 0 0 1 .006.074v.008l.001.01a.444.444 0 0 0 .02.136l-.085.083-.087-.083c.011-.03.02-.08.02-.136l.001-.01v-.008a.51.51 0 0 1 .006-.074c.006-.025.031-.044.06-.044Z"/><path fill="#C8B100" stroke="#000" stroke-width=".39" d="M4 2.767a.03.03 0 0 1 .03.022.461.461 0 0 1 .007.07V2.877c.001.053.009.1.02.128L4 3.06l-.057-.054a.422.422 0 0 0 .02-.129V2.86c0-.025.003-.049.007-.07.003-.013.016-.022.03-.022Z"/><path fill="#C8B100" d="m4.395 3.063-.022.017-.033-.054a.123.123 0 0 0 .06-.119c-.004-.07-.088-.126-.196-.126a.252.252 0 0 0-.141.04.4.4 0 0 0-.004-.03.29.29 0 0 1 .145-.037c.124 0 .22.07.225.153v.015c0 .044-.02.084-.052.112l.018.029Z"/><path stroke="#000" stroke-width=".39" d="m4.395 3.063-.022.017-.033-.054a.123.123 0 0 0 .06-.119c-.004-.07-.088-.126-.196-.126a.252.252 0 0 0-.141.04.4.4 0 0 0-.004-.03.29.29 0 0 1 .145-.037c.124 0 .22.07.225.153v.015c0 .044-.02.084-.052.112l.018.029"/><path fill="#C8B100" d="M4.394 3.063c.042-.031.068-.074.068-.12 0-.055-.035-.103-.09-.135a.142.142 0 0 1 .058.114c0 .044-.02.084-.053.112l.017.03Z"/><path stroke="#000" stroke-width=".39" d="M4.394 3.063c.042-.031.068-.074.068-.12 0-.055-.035-.103-.09-.135a.142.142 0 0 1 .058.114c0 .044-.02.084-.053.112l.017.03"/><path fill="#C8B100" stroke="#000" stroke-width=".39" d="M4.765 3.118a.147.147 0 0 0 .024-.16c-.034-.071-.141-.122-.268-.122a.442.442 0 0 0-.099.01l.018.024a.423.423 0 0 1 .08-.007c.117 0 .214.045.242.106a.117.117 0 0 1 .012.051c0 .037-.017.07-.045.093l.043.07.022-.019-.029-.046Z"/><path fill="#C8B100" stroke="#000" stroke-width=".39" d="M4.722 2.888c.03.019.054.043.067.07a.145.145 0 0 1-.024.16l.026.042a.174.174 0 0 0 .038-.108c0-.067-.042-.125-.107-.164Z"/><path fill="#005BBF" stroke="#000" stroke-width=".26" d="M4 2.744c.04 0 .072-.03.072-.067A.07.07 0 0 0 4 2.61a.07.07 0 0 0-.071.067.07.07 0 0 0 .07.067Z"/><path fill="#C8B100" stroke="#000" stroke-width=".26" d="M3.982 2.489v.036h-.038v.037h.038V2.667h-.049c0 .004-.003.006-.003.01 0 .01.002.018.006.026h.13a.065.065 0 0 0 .006-.026c0-.004-.003-.006-.004-.01h-.047V2.562h.039v-.037H4.02v-.036h-.039Z"/><path fill="#fff" stroke="#000" stroke-width=".39" d="M4 3.052c.017 0 .031-.013.031-.029s-.014-.029-.03-.029c-.017 0-.031.013-.031.029s.014.029.03.029Z"/><path fill="#fff" stroke="#000" stroke-width=".39" d="M4 2.995c.017 0 .031-.013.031-.029s-.014-.028-.03-.028c-.017 0-.031.012-.031.028s.014.03.03.03ZM4 2.929c.014 0 .025-.01.025-.023A.024.024 0 0 0 4 2.883a.024.024 0 0 0-.025.023c0 .012.011.023.025.023ZM4 2.868c.01 0 .018-.008.018-.017a.017.017 0 0 0-.017-.017.017.017 0 0 0-.018.017c0 .01.008.017.018.017ZM4 2.816c.008 0 .015-.006.015-.013 0-.007-.007-.013-.014-.013-.008 0-.015.006-.015.013 0 .007.007.013.015.013ZM3.183 3.195c.01 0 .018-.007.018-.016a.017.017 0 0 0-.018-.017.017.017 0 0 0-.018.017c0 .009.008.016.018.016ZM3.159 3.153c.01 0 .018-.007.018-.017a.017.017 0 0 0-.018-.016.017.017 0 0 0-.018.016c0 .01.008.017.018.017ZM3.143 3.104c.01 0 .018-.008.018-.017a.017.017 0 0 0-.018-.017.017.017 0 0 0-.018.017c0 .01.008.017.018.017ZM3.14 3.05c.01 0 .018-.007.018-.016a.017.017 0 0 0-.017-.016.017.017 0 0 0-.018.016c0 .01.008.017.018.017ZM3.154 2.999c.01 0 .017-.007.017-.017a.017.017 0 0 0-.017-.016.017.017 0 0 0-.018.016c0 .01.008.017.018.017ZM3.18 2.952c.01 0 .019-.008.019-.017a.017.017 0 0 0-.018-.016.017.017 0 0 0-.018.016c0 .01.008.017.018.017ZM3.217 2.913c.01 0 .018-.007.018-.017a.017.017 0 0 0-.018-.016.017.017 0 0 0-.018.016c0 .01.008.017.018.017ZM3.259 2.88c.01 0 .017-.007.017-.016a.017.017 0 0 0-.017-.016.017.017 0 0 0-.018.016c0 .01.008.017.018.017ZM3.309 2.854c.01 0 .017-.007.017-.016a.017.017 0 0 0-.017-.017.017.017 0 0 0-.018.017c0 .009.008.016.018.016ZM3.36 2.836c.01 0 .018-.008.018-.017a.017.017 0 0 0-.017-.017.017.017 0 0 0-.018.017c0 .01.008.017.018.017ZM3.418 2.825c.01 0 .018-.007.018-.016a.017.017 0 0 0-.018-.017.017.017 0 0 0-.017.017c0 .009.008.016.017.016ZM3.474 2.822c.01 0 .017-.007.017-.016a.017.017 0 0 0-.017-.017.017.017 0 0 0-.018.017c0 .009.008.016.018.016ZM3.527 2.824c.01 0 .018-.007.018-.016a.017.017 0 0 0-.018-.017.017.017 0 0 0-.017.017c0 .009.008.016.017.016ZM3.587 3.062c.01 0 .018-.008.018-.017a.017.017 0 0 0-.018-.017.017.017 0 0 0-.017.017c0 .01.008.017.017.017ZM3.557 3.019c.01 0 .018-.007.018-.017a.017.017 0 0 0-.018-.016.017.017 0 0 0-.017.016c0 .01.008.017.017.017ZM3.542 2.973c.01 0 .017-.008.017-.017a.017.017 0 0 0-.017-.017.017.017 0 0 0-.018.017c0 .01.008.017.018.017ZM3.543 2.922c.01 0 .018-.008.018-.017a.017.017 0 0 0-.018-.017.017.017 0 0 0-.017.017c0 .01.008.017.017.017ZM3.554 2.87c.01 0 .018-.007.018-.016a.017.017 0 0 0-.018-.017.017.017 0 0 0-.017.017c0 .01.008.017.017.017ZM3.581 2.824c.01 0 .018-.007.018-.016a.017.017 0 0 0-.018-.017.017.017 0 0 0-.017.017c0 .009.008.016.017.016ZM3.622 2.792c.01 0 .018-.007.018-.016a.017.017 0 0 0-.018-.017.017.017 0 0 0-.017.017c0 .009.008.016.017.016ZM3.67 2.766c.01 0 .018-.008.018-.017a.017.017 0 0 0-.018-.017.017.017 0 0 0-.017.017c0 .01.007.017.017.017ZM3.723 2.75c.01 0 .018-.008.018-.017a.017.017 0 0 0-.018-.017.017.017 0 0 0-.017.017c0 .01.007.017.017.017ZM3.778 2.74c.01 0 .018-.007.018-.016a.017.017 0 0 0-.018-.017.017.017 0 0 0-.018.017c0 .009.008.016.018.016ZM3.832 2.741c.01 0 .018-.007.018-.017a.017.017 0 0 0-.018-.016.017.017 0 0 0-.018.016c0 .01.008.017.018.017ZM3.888 2.75c.01 0 .017-.007.017-.016a.017.017 0 0 0-.017-.017.017.017 0 0 0-.018.017c0 .01.008.017.018.017ZM3.94 2.768c.01 0 .017-.007.017-.016a.017.017 0 0 0-.017-.017.017.017 0 0 0-.018.017c0 .009.008.016.018.016ZM4.06 2.768c.01 0 .018-.007.018-.016a.017.017 0 0 0-.017-.017.017.017 0 0 0-.018.017c0 .009.008.016.018.016ZM4.113 2.75c.01 0 .017-.007.017-.016a.017.017 0 0 0-.017-.017.017.017 0 0 0-.018.017c0 .01.008.017.018.017ZM4.169 2.741c.01 0 .017-.007.017-.017a.017.017 0 0 0-.017-.016.017.017 0 0 0-.018.016c0 .01.008.017.018.017ZM4.222 2.74c.01 0 .018-.007.018-.016a.017.017 0 0 0-.018-.017.017.017 0 0 0-.017.017c0 .009.008.016.017.016ZM4.277 2.75c.01 0 .018-.008.018-.017a.017.017 0 0 0-.018-.017.017.017 0 0 0-.017.017c0 .01.008.017.017.017ZM4.33 2.766c.01 0 .018-.008.018-.017a.017.017 0 0 0-.018-.017.017.017 0 0 0-.017.017c0 .01.008.017.017.017ZM4.378 2.792c.01 0 .018-.007.018-.016a.017.017 0 0 0-.018-.017.017.017 0 0 0-.017.017c0 .009.007.016.017.016ZM4.419 2.824c.01 0 .018-.007.018-.016a.017.017 0 0 0-.018-.017.017.017 0 0 0-.018.017c0 .009.008.016.018.016ZM4.446 2.87c.01 0 .018-.007.018-.016a.017.017 0 0 0-.018-.017.017.017 0 0 0-.018.017c0 .01.008.017.018.017ZM4.457 2.922c.01 0 .018-.008.018-.017a.017.017 0 0 0-.018-.017.017.017 0 0 0-.018.017c0 .01.008.017.018.017ZM4.459 2.973c.01 0 .018-.008.018-.017a.017.017 0 0 0-.018-.017.017.017 0 0 0-.018.017c0 .01.008.017.018.017ZM4.443 3.019c.01 0 .018-.007.018-.017a.017.017 0 0 0-.018-.016.017.017 0 0 0-.018.016c0 .01.008.017.018.017ZM4.413 3.062c.01 0 .018-.008.018-.017a.017.017 0 0 0-.018-.017.017.017 0 0 0-.017.017c0 .01.008.017.017.017ZM4.473 2.824c.01 0 .018-.007.018-.016a.017.017 0 0 0-.018-.017.017.017 0 0 0-.018.017c0 .009.008.016.018.016ZM4.527 2.822c.01 0 .018-.007.018-.016a.017.017 0 0 0-.018-.017.017.017 0 0 0-.018.017c0 .009.008.016.018.016ZM4.582 2.825c.01 0 .018-.007.018-.016a.017.017 0 0 0-.018-.017.017.017 0 0 0-.018.017c0 .009.008.016.018.016ZM4.64 2.836c.01 0 .018-.008.018-.017a.017.017 0 0 0-.018-.017.017.017 0 0 0-.018.017c0 .01.008.017.018.017ZM4.692 2.854c.01 0 .017-.007.017-.016a.017.017 0 0 0-.017-.017.017.017 0 0 0-.018.017c0 .009.008.016.018.016ZM4.742 2.88c.01 0 .017-.007.017-.016a.017.017 0 0 0-.017-.016.017.017 0 0 0-.018.016c0 .01.008.017.018.017ZM4.783 2.913c.01 0 .018-.007.018-.017a.017.017 0 0 0-.018-.016.017.017 0 0 0-.017.016c0 .01.008.017.017.017ZM4.82 2.952c.01 0 .017-.008.017-.017a.017.017 0 0 0-.018-.016.017.017 0 0 0-.017.016c0 .01.008.017.017.017ZM4.846 2.999c.01 0 .018-.007.018-.017a.017.017 0 0 0-.018-.016.017.017 0 0 0-.017.016c0 .01.008.017.017.017ZM4.86 3.05c.01 0 .017-.007.017-.016a.017.017 0 0 0-.018-.016.017.017 0 0 0-.017.016c0 .01.008.017.017.017ZM4.858 3.104c.01 0 .017-.008.017-.017a.017.017 0 0 0-.017-.017.017.017 0 0 0-.018.017c0 .01.008.017.018.017ZM4.842 3.153c.01 0 .017-.007.017-.017a.017.017 0 0 0-.017-.016.017.017 0 0 0-.018.016c0 .01.008.017.018.017ZM4.818 3.195c.01 0 .017-.007.017-.016a.017.017 0 0 0-.017-.017.017.017 0 0 0-.018.017c0 .009.008.016.018.016Z"/><path fill="#C8B100" stroke="#000" stroke-width=".39" d="M4.002 3.619a1.82 1.82 0 0 1-.497-.061.02.02 0 0 1-.014-.02c0-.009.005-.016.014-.02a1.82 1.82 0 0 1 .497-.06c.197 0 .372.023.498.06.009.004.013.011.013.02a.02.02 0 0 1-.013.02 1.818 1.818 0 0 1-.498.06Z"/><path fill="#C8B100" d="M4.001 3.457c-.198 0-.377.026-.502.064.01-.005.01-.017-.004-.05-.015-.041-.04-.04-.04-.04.139-.04.332-.066.547-.066.215 0 .41.026.548.067 0 0-.024-.002-.04.038-.013.034-.014.046-.003.051A1.828 1.828 0 0 0 4 3.457Z"/><path stroke="#000" stroke-width=".39" d="M4.001 3.457c-.198 0-.377.026-.502.064.01-.005.01-.017-.004-.05-.015-.041-.04-.04-.04-.04.139-.04.332-.066.547-.066.215 0 .41.026.548.067 0 0-.024-.002-.04.038-.013.034-.014.046-.003.051A1.828 1.828 0 0 0 4 3.457"/><path fill="#C8B100" d="M4.002 3.365c-.215 0-.408.026-.547.067-.009.002-.019-.001-.022-.01a.017.017 0 0 1 .011-.022c.14-.042.338-.07.558-.07.22 0 .419.028.558.07.01.003.015.013.012.022-.004.009-.013.012-.023.01a2.035 2.035 0 0 0-.547-.067Z"/><path stroke="#000" stroke-width=".39" d="M4.002 3.365c-.215 0-.408.026-.547.067-.009.002-.019-.001-.022-.01a.017.017 0 0 1 .011-.022c.14-.042.338-.07.558-.07.22 0 .419.028.558.07.01.003.015.013.012.022-.004.009-.013.012-.023.01a2.035 2.035 0 0 0-.547-.067"/><path fill="#C8B100" stroke="#000" stroke-width=".39" d="m4.003 3.196.02.004a.077.077 0 0 0 .075.1.078.078 0 0 0 .074-.05c.002 0 .008-.028.011-.027.003 0 .003.028.004.028.005.037.04.063.078.063a.077.077 0 0 0 .078-.084l.024-.024.014.031a.067.067 0 0 0-.008.032c0 .04.034.071.075.071a.076.076 0 0 0 .063-.031l.016-.02v.024c0 .025.01.047.034.051 0 0 .028.002.064-.027a.423.423 0 0 0 .057-.053l.003.03s-.03.046-.063.066c-.018.01-.046.021-.068.018-.023-.004-.04-.023-.048-.044a.111.111 0 0 1-.057.015.109.109 0 0 1-.1-.061.116.116 0 0 1-.172-.005.115.115 0 0 1-.08.03.115.115 0 0 1-.094-.05.115.115 0 0 1-.095.05.115.115 0 0 1-.078-.03.116.116 0 0 1-.173.005.109.109 0 0 1-.1.061.111.111 0 0 1-.058-.015c-.008.021-.025.04-.048.044-.022.003-.05-.008-.067-.018-.034-.02-.064-.067-.064-.067l.003-.029s.02.024.057.053c.037.03.064.027.064.027.025-.004.035-.026.035-.05v-.025l.016.02a.076.076 0 0 0 .062.031.073.073 0 0 0 .075-.07.067.067 0 0 0-.007-.033l.013-.031.025.024-.001.01c0 .04.035.074.079.074.038 0 .073-.026.078-.063 0 0 0-.028.003-.028s.01.027.01.026c.011.03.04.051.076.051a.077.077 0 0 0 .075-.1l.02-.004Z"/><path fill="#C8B100" d="M3.334 3.301a.036.036 0 0 0-.012-.017c-.012-.01-.03-.012-.037-.004a.016.016 0 0 0-.003.004s-.018-.033-.039-.044c-.02-.012-.055-.009-.055-.009 0-.025.02-.046.047-.046a.05.05 0 0 1 .04.018l.004-.017s.021.004.031.029c.01.025 0 .06 0 .06s.005-.015.013-.025a.134.134 0 0 1 .04-.027.177.177 0 0 0 .022-.012v.023a.13.13 0 0 1 .062.007.08.08 0 0 1-.042.037l.013.012.007.008-.02.003c-.007 0-.03.005-.043.004a.252.252 0 0 1-.028-.004Z"/><path stroke="#000" stroke-width=".39" d="M3.334 3.301a.036.036 0 0 0-.012-.017c-.012-.01-.03-.012-.037-.004a.016.016 0 0 0-.003.004s-.018-.033-.039-.044c-.02-.012-.055-.009-.055-.009 0-.025.02-.046.047-.046a.05.05 0 0 1 .04.018l.004-.017s.021.004.031.029c.01.025 0 .06 0 .06s.005-.015.013-.025a.134.134 0 0 1 .04-.027.177.177 0 0 0 .022-.012v.023a.13.13 0 0 1 .062.007.08.08 0 0 1-.042.037l.013.012.007.008-.02.003c-.007 0-.03.005-.043.004a.252.252 0 0 1-.028-.004"/><path fill="#AD1519" stroke="#000" stroke-width=".39" d="M3.285 3.28c.008-.008.025-.007.037.004.013.01.017.027.009.035-.009.009-.026.007-.038-.004-.013-.01-.017-.026-.008-.035Z"/><path fill="#fff" stroke="#000" stroke-width=".39" d="M3.462 3.295c-.004-.014 0-.027.01-.03.009-.003.02.006.025.019.004.013 0 .026-.01.03-.009.002-.02-.006-.025-.02Z"/><path fill="#C8B100" d="M3.618 3.23a.028.028 0 0 1-.007-.037s-.014-.007-.03-.011a.657.657 0 0 0-.056-.004.1.1 0 0 0 .013.02.083.083 0 0 0-.049.034c.016.011.037.018.058.016l-.003.014-.001.01.017-.007c.005-.002.024-.009.034-.015a.167.167 0 0 0 .024-.02Z"/><path stroke="#000" stroke-width=".39" d="M3.618 3.23a.028.028 0 0 1-.007-.037s-.014-.007-.03-.011a.657.657 0 0 0-.056-.004.1.1 0 0 0 .013.02.083.083 0 0 0-.049.034c.016.011.037.018.058.016l-.003.014-.001.01.017-.007c.005-.002.024-.009.034-.015a.167.167 0 0 0 .024-.02"/><path fill="#C8B100" d="M3.61 3.066c.018.011.033.03.038.049 0 0 .002-.004.011-.01.01-.005.017-.005.017-.005s-.002.016-.004.021c-.001.006-.001.023-.005.038-.003.014-.01.026-.01.026a.032.032 0 0 0-.025-.006.03.03 0 0 0-.021.014s-.01-.009-.02-.022c-.008-.013-.014-.028-.018-.033a.501.501 0 0 1-.011-.018s.007-.003.018-.001c.01.002.014.005.014.005a.081.081 0 0 1 .017-.058Z"/><path stroke="#000" stroke-width=".39" d="M3.61 3.066c.018.011.033.03.038.049 0 0 .002-.004.011-.01.01-.005.017-.005.017-.005s-.002.016-.004.021c-.001.006-.001.023-.005.038-.003.014-.01.026-.01.026a.032.032 0 0 0-.025-.006.03.03 0 0 0-.021.014s-.01-.009-.02-.022c-.008-.013-.014-.028-.018-.033a.501.501 0 0 1-.011-.018s.007-.003.018-.001c.01.002.014.005.014.005a.081.081 0 0 1 .017-.058"/><path fill="#C8B100" d="M3.663 3.222a.028.028 0 0 0-.006-.037s.01-.011.023-.02c.01-.006.03-.013.035-.015l.017-.006-.001.01-.003.013a.087.087 0 0 1 .057.016.084.084 0 0 1-.048.033.1.1 0 0 0 .008.012l.004.009h-.018c-.006 0-.027 0-.038-.004a.179.179 0 0 1-.03-.01"/><path stroke="#000" stroke-width=".39" d="M3.663 3.222a.028.028 0 0 0-.006-.037s.01-.011.023-.02c.01-.006.03-.013.035-.015l.017-.006-.001.01-.003.013a.087.087 0 0 1 .057.016.084.084 0 0 1-.048.033.1.1 0 0 0 .008.012l.004.009h-.018c-.006 0-.027 0-.038-.004a.179.179 0 0 1-.03-.01"/><path fill="#AD1519" stroke="#000" stroke-width=".39" d="M3.638 3.24c.019 0 .035-.015.035-.033a.034.034 0 0 0-.035-.033.034.034 0 0 0-.035.033c0 .018.016.033.035.033Z"/><path fill="#fff" stroke="#000" stroke-width=".39" d="M3.804 3.228c-.002-.014.005-.026.015-.027.01-.001.02.01.021.023.002.014-.004.026-.014.027-.01.001-.02-.009-.022-.023Z"/><path fill="#C8B100" d="M3.976 3.197a.031.031 0 0 1 0-.042l-.03-.018a13.79 13.79 0 0 1-.062-.015.1.1 0 0 0 .009.026.097.097 0 0 0-.061.028.098.098 0 0 0 .061.028l-.006.015-.004.01.02-.003c.008-.001.03-.005.042-.01a.215.215 0 0 0 .031-.019"/><path stroke="#000" stroke-width=".39" d="M3.976 3.197a.031.031 0 0 1 0-.042l-.03-.018a13.79 13.79 0 0 1-.062-.015.1.1 0 0 0 .009.026.097.097 0 0 0-.061.028.098.098 0 0 0 .061.028l-.006.015-.004.01.02-.003c.008-.001.03-.005.042-.01a.215.215 0 0 0 .031-.019"/><path fill="#C8B100" d="M4.002 3.014c.017.015.03.038.03.06l.015-.008c.012-.004.021-.002.021-.002l-.009.023c-.003.005-.006.024-.013.04a.14.14 0 0 1-.017.028.036.036 0 0 0-.054 0s-.01-.012-.016-.028c-.008-.016-.011-.035-.014-.04l-.009-.023s.01-.002.02.002c.012.005.015.009.015.009a.095.095 0 0 1 .03-.061Z"/><path stroke="#000" stroke-width=".39" d="M4.002 3.014c.017.015.03.038.03.06l.015-.008c.012-.004.021-.002.021-.002l-.009.023c-.003.005-.006.024-.013.04a.14.14 0 0 1-.017.028.036.036 0 0 0-.054 0s-.01-.012-.016-.028c-.008-.016-.011-.035-.014-.04l-.009-.023s.01-.002.02.002c.012.005.015.009.015.009a.095.095 0 0 1 .03-.061"/><path fill="#C8B100" d="M4.028 3.197a.031.031 0 0 0 0-.042l.03-.018c.013-.006.036-.01.043-.01l.02-.005s0 .004-.003.011l-.007.015a.096.096 0 0 1 .061.028.097.097 0 0 1-.06.028.106.106 0 0 0 .009.026l-.02-.004c-.007-.001-.03-.005-.042-.01-.016-.008-.03-.019-.03-.019"/><path stroke="#000" stroke-width=".39" d="M4.028 3.197a.031.031 0 0 0 0-.042l.03-.018c.013-.006.036-.01.043-.01l.02-.005s0 .004-.003.011l-.007.015a.096.096 0 0 1 .061.028.097.097 0 0 1-.06.028.106.106 0 0 0 .009.026l-.02-.004c-.007-.001-.03-.005-.042-.01-.016-.008-.03-.019-.03-.019"/><path fill="#AD1519" stroke="#000" stroke-width=".39" d="M4.002 3.209c.02 0 .035-.015.035-.033a.034.034 0 0 0-.035-.033.034.034 0 0 0-.034.033c0 .018.015.033.034.033Z"/><path fill="#fff" stroke="#000" stroke-width=".39" d="M4.201 3.228c.002-.014-.005-.026-.015-.027-.01-.001-.02.01-.021.023-.002.014.005.026.015.027.01.001.02-.009.021-.023Z"/><path fill="#C8B100" d="M4.342 3.222a.029.029 0 0 1-.004-.02.029.029 0 0 1 .01-.017s-.01-.011-.023-.02c-.01-.006-.029-.013-.034-.015l-.017-.006v.01a.104.104 0 0 0 .004.013.087.087 0 0 0-.058.016c.011.015.028.029.049.033l-.008.012-.005.009h.018c.007 0 .027 0 .038-.004a.179.179 0 0 0 .03-.01"/><path stroke="#000" stroke-width=".39" d="M4.342 3.222a.029.029 0 0 1-.004-.02.029.029 0 0 1 .01-.017s-.01-.011-.023-.02c-.01-.006-.029-.013-.034-.015l-.017-.006v.01a.104.104 0 0 0 .004.013.087.087 0 0 0-.058.016c.011.015.028.029.049.033l-.008.012-.005.009h.018c.007 0 .027 0 .038-.004a.179.179 0 0 0 .03-.01"/><path fill="#C8B100" d="M4.395 3.066a.086.086 0 0 0-.037.049s-.002-.004-.012-.01C4.337 3.1 4.33 3.1 4.33 3.1l.004.021c.002.006.002.023.005.038.004.014.01.026.01.026a.032.032 0 0 1 .047.008s.01-.009.02-.022c.008-.013.014-.028.017-.033a.501.501 0 0 0 .012-.018s-.008-.003-.019-.001c-.01.002-.014.005-.014.005a.081.081 0 0 0-.016-.058Z"/><path stroke="#000" stroke-width=".39" d="M4.395 3.066a.086.086 0 0 0-.037.049s-.002-.004-.012-.01C4.337 3.1 4.33 3.1 4.33 3.1l.004.021c.002.006.002.023.005.038.004.014.01.026.01.026a.032.032 0 0 1 .047.008s.01-.009.02-.022c.008-.013.014-.028.017-.033a.501.501 0 0 0 .012-.018s-.008-.003-.019-.001c-.01.002-.014.005-.014.005a.081.081 0 0 0-.016-.058"/><path fill="#C8B100" d="M4.387 3.23a.028.028 0 0 0 .008-.037s.014-.007.029-.011a.672.672 0 0 1 .056-.004s0 .003-.004.009l-.008.012c.02.005.037.018.048.033a.089.089 0 0 1-.057.016l.003.014v.01l-.016-.007c-.006-.002-.025-.009-.035-.015a.178.178 0 0 1-.024-.02Z"/><path stroke="#000" stroke-width=".39" d="M4.387 3.23a.028.028 0 0 0 .008-.037s.014-.007.029-.011a.672.672 0 0 1 .056-.004s0 .003-.004.009l-.008.012c.02.005.037.018.048.033a.089.089 0 0 1-.057.016l.003.014v.01l-.016-.007c-.006-.002-.025-.009-.035-.015a.178.178 0 0 1-.024-.02"/><path fill="#AD1519" stroke="#000" stroke-width=".39" d="M4.368 3.24c.019 0 .034-.015.034-.033a.034.034 0 0 0-.034-.033.034.034 0 0 0-.035.033c0 .018.015.033.035.033Z"/><path fill="#fff" stroke="#000" stroke-width=".39" d="M4.543 3.295c.005-.014 0-.027-.009-.03-.01-.003-.02.006-.026.019-.004.013 0 .026.01.03.01.002.02-.006.025-.02Z"/><path fill="#C8B100" d="M4.671 3.301a.037.037 0 0 1 .012-.017c.013-.01.03-.012.038-.004a.017.017 0 0 1 .003.004s.017-.033.038-.044c.02-.012.056-.009.056-.009a.047.047 0 0 0-.048-.046.05.05 0 0 0-.04.018l-.003-.017s-.022.004-.032.029c-.01.025.001.06.001.06s-.005-.015-.013-.025a.134.134 0 0 0-.04-.027l-.022-.012-.001.01a.09.09 0 0 0 0 .013.13.13 0 0 0-.061.007c.008.016.022.03.042.037l-.014.012a.067.067 0 0 0-.007.008l.02.003c.008 0 .03.005.044.004L4.67 3.3Z"/><path stroke="#000" stroke-width=".39" d="M4.671 3.301a.037.037 0 0 1 .012-.017c.013-.01.03-.012.038-.004a.017.017 0 0 1 .003.004s.017-.033.038-.044c.02-.012.056-.009.056-.009a.047.047 0 0 0-.048-.046.05.05 0 0 0-.04.018l-.003-.017s-.022.004-.032.029c-.01.025.001.06.001.06s-.005-.015-.013-.025a.134.134 0 0 0-.04-.027l-.022-.012-.001.01a.09.09 0 0 0 0 .013.13.13 0 0 0-.061.007c.008.016.022.03.042.037l-.014.012a.067.067 0 0 0-.007.008l.02.003c.008 0 .03.005.044.004L4.67 3.3"/><path fill="#AD1519" stroke="#000" stroke-width=".39" d="M4.72 3.28c-.007-.008-.024-.007-.037.004-.013.01-.016.027-.008.035.008.009.025.007.038-.004.012-.01.016-.026.008-.035Z"/><path fill="#AD1519" stroke="#000" stroke-linejoin="round" stroke-width=".39" d="M4.002 3.593c-.177 0-.337-.02-.459-.052.122-.032.282-.05.459-.051.177 0 .338.02.46.051a1.903 1.903 0 0 1-.46.052Z"/><path stroke="#000" stroke-width=".05" d="M4.129 3.588v-.096m-.049.1V3.49m-.035.103v-.104"/><path stroke="#000" stroke-width=".09" d="M4.015 3.594V3.49"/><path stroke="#000" stroke-width=".14" d="M3.986 3.594V3.49"/><path stroke="#000" stroke-width=".18" d="M3.96 3.594V3.49"/><path stroke="#000" stroke-width=".23" d="M3.933 3.594V3.49"/><path stroke="#000" stroke-width=".28" d="M3.91 3.594V3.49"/><path stroke="#000" stroke-width=".33" d="m3.864 3.588-.001-.095m.022.097v-.1"/><path stroke="#000" stroke-width=".37" d="M3.822 3.584v-.088m.02.09v-.093"/><path stroke="#000" stroke-width=".42" d="M3.765 3.58v-.078m.019.078V3.5m.019.083v-.084"/><path stroke="#000" stroke-width=".46" d="M3.746 3.579v-.075"/><path stroke="#000" stroke-width=".51" d="M3.727 3.575v-.07"/><path stroke="#000" stroke-width=".56" d="M3.708 3.573v-.065"/><path stroke="#000" stroke-width=".6" d="M3.667 3.567v-.051m.021.054v-.058"/><path stroke="#000" stroke-width=".63" d="M3.647 3.563v-.046"/><path stroke="#000" stroke-width=".68" d="M3.628 3.56V3.52"/><path stroke="#000" stroke-width=".73" d="M3.607 3.554v-.03"/><path stroke="#000" stroke-width=".77" d="M3.586 3.552V3.53"/><path stroke="#000" stroke-width=".91" d="M3.563 3.547v-.011"/><path stroke="#000" stroke-width=".39" d="M3.522 3.547c.124-.035.292-.057.48-.057.187 0 .357.022.48.057"/><path fill="#AD1519" stroke="#000" stroke-width=".39" d="m3.467 3.475.02-.026.054.007-.043.031-.03-.012Z"/><path fill="#fff" stroke="#000" stroke-width=".39" d="M3.584 3.444c0-.009.008-.016.018-.016.01 0 .018.007.018.016 0 .01-.008.017-.018.017a.017.017 0 0 1-.018-.017Z"/><path fill="#058E6E" d="m3.738 3.441-.038.004c-.01.002-.018-.005-.02-.014 0-.01.006-.017.016-.018l.038-.005.039-.004c.01-.001.018.005.02.014a.017.017 0 0 1-.016.019l-.039.004Z"/><path stroke="#000" stroke-width=".39" d="m3.738 3.441-.038.004c-.01.002-.018-.005-.02-.014 0-.01.006-.017.016-.018l.038-.005.039-.004c.01-.001.018.005.02.014a.017.017 0 0 1-.016.019l-.039.004"/><path fill="#fff" stroke="#000" stroke-width=".39" d="M3.849 3.414c0-.01.007-.017.017-.017.01 0 .018.007.018.017 0 .009-.008.016-.018.016a.017.017 0 0 1-.017-.016Z"/><path fill="#AD1519" d="M4.002 3.427H3.95c-.01 0-.018-.008-.018-.017 0-.01.008-.017.017-.017h.107c.01 0 .017.008.017.017 0 .01-.008.017-.017.017h-.054Z"/><path stroke="#000" stroke-width=".39" d="M4.002 3.427H3.95c-.01 0-.018-.008-.018-.017 0-.01.008-.017.017-.017h.107c.01 0 .017.008.017.017 0 .01-.008.017-.017.017h-.054"/><path fill="#fff" stroke="#000" stroke-width=".39" d="M4.12 3.414c0-.01.009-.017.018-.017.01 0 .018.007.018.017 0 .009-.008.016-.018.016-.01 0-.017-.007-.017-.016Z"/><path fill="#058E6E" stroke="#000" stroke-width=".39" d="m4.266 3.441.038.004c.01.002.019-.005.02-.014a.017.017 0 0 0-.015-.018l-.038-.005-.039-.004c-.01-.001-.018.005-.02.014 0 .01.006.018.016.019l.038.004Z"/><path fill="#fff" stroke="#000" stroke-width=".39" d="M4.385 3.444c0-.009.008-.016.018-.016.01 0 .017.007.017.016 0 .01-.008.017-.017.017a.017.017 0 0 1-.018-.017Z"/><path fill="#AD1519" stroke="#000" stroke-width=".39" d="m4.537 3.475-.02-.026-.053.007.043.031.03-.012Z"/><path fill="#CCC" stroke="#000" stroke-width=".52" d="M4.008 5.51c-.21 0-.417-.052-.591-.137a.378.378 0 0 1-.214-.34v-.532H4.81v.533a.378.378 0 0 1-.214.339 1.35 1.35 0 0 1-.588.136Z"/><path fill="#FFD691" d="M4.047 5.273c.033.01.05.035.05.064 0 .038-.037.067-.085.067-.048 0-.087-.029-.087-.067 0-.029.016-.06.05-.063l-.004-.008a1.932 1.932 0 0 0-.01-.01s.012-.003.02 0l.012.007s.003-.007.008-.012.011-.008.011-.008.008.006.01.01c.003.004.004.01.004.01l.013-.009.013-.004-.003.011a.06.06 0 0 0-.002.012Z"/><path stroke="#000" stroke-width=".52" d="M4.047 5.273c.033.01.05.035.05.064 0 .038-.037.067-.085.067-.048 0-.087-.029-.087-.067 0-.029.016-.06.05-.063l-.004-.008a1.932 1.932 0 0 0-.01-.01s.012-.003.02 0l.012.007s.003-.007.008-.012.011-.008.011-.008.008.006.01.01c.003.004.004.01.004.01l.013-.009.013-.004-.003.011a.06.06 0 0 0-.002.012"/><path fill="#058E6E" d="M4.005 5.445s-.064-.043-.091-.049c-.035-.007-.075 0-.092-.002l.03.024a.168.168 0 0 0 .054.03.194.194 0 0 0 .1-.003Z"/><path stroke="#000" stroke-width=".52" d="M4.005 5.445s-.064-.043-.091-.049c-.035-.007-.075 0-.092-.002l.03.024a.168.168 0 0 0 .054.03.194.194 0 0 0 .1-.003"/><path fill="#058E6E" d="M4.023 5.449s.041-.043.084-.048c.05-.007.083.004.103.009l-.025.014c-.009.006-.032.025-.066.025-.035 0-.074-.003-.08-.002l-.016.002Z"/><path stroke="#000" stroke-width=".52" d="M4.023 5.449s.041-.043.084-.048c.05-.007.083.004.103.009l-.025.014c-.009.006-.032.025-.066.025-.035 0-.074-.003-.08-.002l-.016.002"/><path fill="#AD1519" stroke="#000" stroke-width=".52" d="M4.011 5.396a.08.08 0 0 1 0-.118.081.081 0 0 1 0 .118Z"/><path fill="#058E6E" d="M3.995 5.483s.01-.024.01-.045c.002-.017-.002-.035-.002-.035h.013s.006.019.006.035a.35.35 0 0 1-.003.038s-.008.001-.011.003l-.013.004Z"/><path stroke="#000" stroke-width=".52" d="M3.995 5.483s.01-.024.01-.045c.002-.017-.002-.035-.002-.035h.013s.006.019.006.035a.35.35 0 0 1-.003.038s-.008.001-.011.003l-.013.004"/><path fill="#AD1519" stroke="#000" stroke-width=".52" d="M4.005 5.033a.39.39 0 0 1-.4.381.392.392 0 0 1-.403-.38V4.5h.803v.533Z"/><path fill="#C8B100" stroke="#000" stroke-width=".52" d="M3.2 5.026a.407.407 0 0 0 .092.25v-.79h-.09l-.002.54ZM3.377 5.348c.025.013.06.035.097.044l-.003-.911h-.094v.867ZM3.556 5.412a.437.437 0 0 0 .094 0v-.931h-.094v.931ZM3.733 5.392a.317.317 0 0 0 .097-.042v-.87h-.095l-.002.912ZM3.917 5.268a.364.364 0 0 0 .09-.204l.002-.583h-.094l.002.787Z"/><path fill="#AD1519" stroke="#000" stroke-width=".52" d="M4.81 4.5v.533c0 .21-.18.381-.402.381a.392.392 0 0 1-.403-.38V4.5h.805Z"/><path fill="#C8B100" stroke="#C8B100" stroke-width=".26" d="m4.363 4.898.003-.006-.068-.076-.026.012-.05-.055.017-.023-.086-.096H4.15v.065l.028.008v.071l-.028.008v.065a.042.042 0 0 1 .028.027h.051l.008-.026h.076l.008.026h.043Zm-.111-.296v.026h.044v-.026h-.044Zm-.117.326c.01 0 .018-.008.018-.017a.018.018 0 0 0-.018-.018.018.018 0 0 0-.019.018c0 .01.009.017.019.017Zm.256-.156-.028-.007v-.072l.028-.008v-.03a.043.043 0 0 1-.03-.027H4.32l-.008.027h-.075l-.009-.027h-.05a.05.05 0 0 1-.004.01l.086.095.027-.011.05.054-.017.023.067.075.004-.002v-.1Zm-.116-.022-.02.017.027.032.021-.017-.028-.032Zm.128.58a.043.043 0 0 1-.04-.033.29.29 0 0 1-.076-.02l.013-.024c.021.01.043.015.066.018a.042.042 0 0 1 .025-.022v-.09l-.028-.008V5.08l.028-.008V4.95l-.003-.002-.064.07.016.024-.049.054-.027-.011-.052.059a.039.039 0 0 1-.002.045.25.25 0 0 0 .052.044l-.014.023a.28.28 0 0 1-.06-.051.045.045 0 0 1-.042-.008.04.04 0 0 1-.005-.058l.003-.003a.255.255 0 0 1-.022-.08h.028a.224.224 0 0 0 .017.068.05.05 0 0 1 .024.003l.053-.059-.016-.023.049-.054.026.011.064-.07a.034.034 0 0 1-.003-.008H4.32l-.008.027h-.076l-.008-.027h-.052a.043.043 0 0 1-.027.026v.064h-.027V4.95a.042.042 0 0 1-.03-.04c0-.018.012-.034.03-.04v-.064l-.028-.008v-.071l.028-.008v-.065a.042.042 0 0 1-.03-.039c0-.023.02-.041.044-.041.02 0 .036.012.042.028h.05l.008-.026h.075l.008.026h.043a.043.043 0 0 1 .04-.028l.002.134H4.39v.041h.014v.346H4.39v.042h.013l-.001.192Zm-.095-.294-.02-.016-.029.031.02.017.03-.032Zm-.16-.295h-.026v.042h.027v-.042Zm.147.183v-.026H4.25v.026h.045Zm-.17.155-.027-.006L4.094 5l.028-.009v.041c0 .016.001.03.004.046Zm.024-.088.028.006.001.036c0-.012.003.035.003.035l-.028.01a.228.228 0 0 1-.004-.045v-.042Zm.173.27.006-.027a.23.23 0 0 1-.066-.033l-.02.018a.266.266 0 0 0 .08.042Zm-.013.023-.021.02a.309.309 0 0 1-.066-.034l.006-.028a.292.292 0 0 0 .08.042Z"/><path fill="#C8B100" stroke="#C8B100" stroke-width=".26" d="M4.444 4.898a.047.047 0 0 0-.004-.006l.069-.076.026.012.05-.055-.017-.023.086-.096h.004v.065l-.028.008v.071l.028.008v.065a.042.042 0 0 0-.028.027H4.58l-.008-.026h-.076l-.008.026h-.043Zm.111-.296v.026h-.044v-.026h.044Zm.117.326a.018.018 0 0 1-.019-.017c0-.01.009-.018.019-.018s.019.008.019.018c0 .01-.009.017-.019.017Zm-.256-.156.028-.007v-.072l-.028-.008v-.03a.043.043 0 0 0 .029-.027h.043l.008.027h.075l.009-.027h.049a.05.05 0 0 0 .005.01l-.087.095-.026-.011-.05.054.017.023-.067.075a.126.126 0 0 0-.005-.002v-.1Zm.116-.022.02.017-.028.032-.02-.017.028-.032Zm-.128.58a.043.043 0 0 0 .04-.033.29.29 0 0 0 .076-.02l-.013-.024a.258.258 0 0 1-.066.018.042.042 0 0 0-.025-.022v-.09l.028-.008V5.08l-.028-.008V4.95l.003-.002.064.07-.016.024.049.054.026-.011.053.059a.039.039 0 0 0 .002.045.25.25 0 0 1-.052.044l.014.023a.28.28 0 0 0 .06-.051c.014.004.03.002.042-.008a.04.04 0 0 0 .005-.058l-.003-.003a.255.255 0 0 0 .021-.08h-.027a.224.224 0 0 1-.017.068.05.05 0 0 0-.024.003l-.053-.059.016-.023-.049-.054-.027.011-.063-.07a.034.034 0 0 0 .003-.008h.044l.008.027h.076l.008-.027h.052a.043.043 0 0 0 .027.026v.064h.027V4.95a.042.042 0 0 0 .03-.04.042.042 0 0 0-.03-.04v-.064l.028-.008v-.071l-.028-.008v-.065a.042.042 0 0 0 .03-.039.042.042 0 0 0-.044-.041.044.044 0 0 0-.042.028h-.05l-.008-.026h-.075l-.008.026h-.043a.043.043 0 0 0-.041-.028l-.001.134h.013v.041h-.013v.346h.013v.042h-.013l.001.192Zm.095-.294.02-.016.029.031-.02.017-.03-.032Zm.16-.295h.026v.042h-.027v-.042Zm-.147.183v-.026h.045v.026h-.046Zm.17.155.027-.006L4.713 5l-.028-.009v.041c0 .016-.001.03-.004.046Zm-.024-.088-.028.006-.001.036c0-.012-.003.035-.003.035l.028.01a.228.228 0 0 0 .004-.045v-.042Zm-.173.27-.006-.027a.23.23 0 0 0 .066-.033l.02.018a.266.266 0 0 1-.08.042Zm.013.023.021.02a.309.309 0 0 0 .066-.034l-.006-.028a.292.292 0 0 1-.08.042Z"/><path fill="#058E6E" d="M4.361 4.911c0-.023.02-.042.044-.042.024 0 .044.019.044.042 0 .023-.02.041-.044.041-.024 0-.044-.018-.044-.04Z"/><path fill="#AD1519" stroke="#000" stroke-width=".52" d="M3.202 4.5h.803v-.892h-.803V4.5Z"/><path fill="#C8B100" d="M3.477 3.815h-.014V3.8h-.026v.059h.026v.04h-.056v.119h.03v.237h-.06v.122h.455v-.122h-.059v-.237h.03V3.9h-.056v-.041h.026v-.06h-.026v.016h-.015V3.8h-.025v.015h-.019V3.8h-.026v.059h.026v.04h-.055V3.77h.03v-.059h-.03v.015h-.015V3.71h-.026v.015h-.015V3.71h-.03v.06h.03V3.9h-.055v-.041h.026v-.06h-.026v.016h-.015V3.8h-.03v.015Zm-.1.562h.455-.454Zm0-.03h.455-.454Zm0-.03h.455-.454Zm0-.03h.455-.454Zm0-.032h.455-.454Zm.06-.026h.336-.336Zm0-.03h.336-.336Zm0-.033h.336-.336Zm0-.03h.336-.336Zm0-.03h.336-.336Zm0-.029h.336-.336Zm0-.03h.336-.336Zm-.03-.03h.396-.396Zm0-.029h.396-.396Zm0-.03h.396-.396Zm0-.029h.396-.396Zm.056-.03h.284-.284Zm.114-.029h.056-.056Zm0-.03h.056-.056Zm0-.03h.056-.056Zm0-.029h.056-.056Zm-.03-.037h.115-.114Zm-.084.126h.059-.06Zm-.026-.037h.11-.11Zm0 .544v-.03.03Zm0-.06v-.03.03Zm-.03 0v.03-.03Zm.056.03v-.03.03Zm.03.03v-.03.03Zm0-.06v-.03.03Zm0-.062v-.026.026Zm0-.056v-.033.033Zm-.03.089v-.033.033Zm-.056 0v-.033.033Zm.115-.033v.033-.033Zm.026 0v-.026.026Zm-.085-.056v.03-.03Zm.059 0v.03-.03Zm.055 0v.03-.03Zm-.03 0v-.033.033Zm.03-.063v.03-.03Zm0-.059v.03-.03Zm-.03-.03v.03-.03Zm.03-.03v.03-.03Zm-.055 0v.03-.03Zm-.06 0v.03-.03Zm-.025-.029v.03-.03Zm.055 0v.03-.03Zm.056 0v.03-.03Zm.03-.03v.03-.03Zm-.056 0v.03-.03Zm-.06 0v.03-.03Zm-.025-.029v.03-.03Zm.11 0v.03-.03Zm-.055-.059v.03-.03Zm.255 0h-.059.06Zm.026-.037h-.11.11Zm0 .544v-.03.03Zm0-.06v-.03.03Zm.03 0v.03-.03Zm-.056.03v-.03.03Zm-.03.03v-.03.03Zm0-.06v-.03.03Zm0-.062v-.026.026Zm0-.056v-.033.033Zm.03.089v-.033.033Zm.056 0v-.033.033Zm-.115-.033v.033-.033Zm-.026 0v-.026.026Zm.085-.056v.03-.03Zm-.059 0v.03-.03Zm-.055 0v.03-.03Zm.03 0v-.033.033Zm-.03-.063v.03-.03Zm0-.059v.03-.03Zm.03-.03v.03-.03Zm-.03-.03v.03-.03Zm.055 0v.03-.03Zm.06 0v.03-.03Zm.025-.029v.03-.03Zm-.055 0v.03-.03Zm-.056 0v.03-.03Zm-.03-.03v.03-.03Zm.056 0v.03-.03Zm.06 0v.03-.03Zm.025-.029v.03-.03Zm-.11 0v.03-.03Zm.055-.059v.03-.03Zm-.115.329v-.033.033Zm0-.122v-.03.03Zm0 .06v-.03.03Zm0-.12v-.029.03Zm0-.058v-.03.03Zm0-.089v-.03.03Zm0-.06v-.029.03Zm-.14.049h.059-.06Zm.114-.089h.056-.056Zm.111.089h.06-.06Z"/><path stroke="#000" stroke-width=".46" d="M3.378 4.377h.454m-.454-.03h.454m-.454-.03h.454m-.454-.03h.454m-.454-.032h.454m-.395-.026h.336m-.336-.03h.336m-.336-.033h.336m-.336-.03h.336m-.336-.03h.336m-.336-.029h.336m-.336-.03h.336m-.366-.03h.396m-.396-.029h.396m-.396-.03h.396m-.396-.029h.396m-.34-.03h.284m-.17-.029h.056m-.056-.03h.056m-.056-.03h.056m-.056-.029h.056m-.085-.037h.114m-.2.126h.06m-.085-.037h.11m-.11.544v-.03m0-.03v-.03m-.03.03v.03m.056 0v-.03m.03.06v-.03m0-.03v-.03m0-.032v-.026m0-.03v-.033m-.03.122v-.033m-.056.033v-.033m.115 0v.033m.026-.033v-.026m-.085-.03v.03m.059-.03v.03m.055-.03v.03m-.03-.03v-.033m.03-.03v.03m0-.089v.03m-.03-.06v.03m.03-.06v.03m-.055-.03v.03m-.06-.03v.03m-.025-.059v.03m.055-.03v.03m.056-.03v.03m.03-.06v.03m-.056-.03v.03m-.06-.03v.03m-.025-.059v.03m.11-.03v.03m-.055-.089v.03m.255-.03h-.059m.085-.037h-.11m.11.544v-.03m0-.03v-.03m.03.03v.03m-.056 0v-.03m-.03.06v-.03m0-.03v-.03m0-.032v-.026m0-.03v-.033m.03.122v-.033m.056.033v-.033m-.115 0v.033m-.026-.033v-.026m.085-.03v.03m-.059-.03v.03m-.055-.03v.03m.03-.03v-.033m-.03-.03v.03m0-.089v.03m.03-.06v.03m-.03-.06v.03m.055-.03v.03m.06-.03v.03m.025-.059v.03m-.055-.03v.03m-.056-.03v.03m-.03-.06v.03m.056-.03v.03m.06-.03v.03m.025-.059v.03m-.11-.03v.03m.055-.089v.03m-.115.299v-.033m0-.089v-.03m0 .09v-.03m0-.09v-.029m0-.03V3.93m0-.059v-.03m0-.03v-.029m-.14.078h.059m.055-.089h.056m.055.089h.06m-.27-.044h-.015V3.8h-.026v.059h.026v.04h-.056v.119h.03v.237h-.06v.122h.455v-.122h-.059v-.237h.03V3.9h-.056v-.041h.026v-.06h-.026v.016h-.015V3.8h-.025v.015h-.019V3.8h-.026v.059h.026v.04h-.055V3.77h.03v-.059h-.03v.015h-.015V3.71h-.026v.015h-.015V3.71h-.03v.06h.03V3.9h-.055v-.041h.026v-.06h-.026v.016h-.015V3.8h-.03v.015Z"/><path fill="#C8B100" stroke="#000" stroke-width=".46" d="M3.68 4.377v-.078c0-.015-.007-.06-.077-.06-.066 0-.074.045-.074.06v.078h.152Z"/><path fill="#C8B100" stroke="#000" stroke-width=".46" d="m3.555 4.303-.037-.004c0-.015.004-.037.015-.044l.033.026c-.003.003-.011.014-.011.022ZM3.618 4.266l.018-.034a.089.089 0 0 0-.033-.007.087.087 0 0 0-.03.007l.019.034h.026ZM3.655 4.303l.037-.004c0-.015-.004-.037-.015-.044l-.033.026c.003.003.01.014.01.022ZM3.548 4.173v-.081c0-.022-.015-.04-.04-.04-.027 0-.042.018-.042.04v.081h.082ZM3.662 4.173v-.081c0-.022.015-.04.041-.04.026 0 .04.018.04.04v.081h-.08ZM3.522 3.974l.003-.074h-.07l.008.074h.059ZM3.633 3.974 3.64 3.9h-.07l.004.074h.059ZM3.688 3.974 3.681 3.9h.074l-.008.074h-.059Z"/><path fill="#0039F0" d="M3.655 4.377V4.31c0-.011-.007-.044-.052-.044a.045.045 0 0 0-.048.044v.067h.1ZM3.54 4.166v-.07c0-.019-.01-.037-.033-.037-.022 0-.033.018-.033.037v.07h.066ZM3.67 4.166v-.07c0-.019.01-.037.033-.037.022 0 .033.018.033.037v.07H3.67Z"/><path fill="#CCC" stroke="#000" stroke-width=".52" d="M4.004 4.5h.806v-.892h-.806V4.5Z"/><path fill="#DB4446" stroke="#000" stroke-width=".39" d="M4.415 3.828v-.01l.002-.005s-.026.002-.04-.002a.099.099 0 0 1-.038-.02c-.012-.01-.017-.018-.026-.019a.062.062 0 0 0-.039.007s.016.005.029.02a.079.079 0 0 0 .03.025c.01.003.043 0 .052.001l.03.003Z"/><path fill="#ED72AA" d="M4.535 3.792s0 .012.002.022c0 .011-.004.02-.002.026.002.006.002.01.005.015.002.004.003.015.003.015l-.012-.009-.01-.007.002.017c0 .005.004.014.008.02.005.005.014.014.017.021.003.007.002.023.002.023s-.007-.012-.014-.014l-.02-.01s.013.013.013.025c0 .012-.005.025-.005.025s-.006-.01-.014-.018c-.007-.007-.018-.014-.018-.014a.1.1 0 0 0 .009.031L4.498 4s-.006-.01-.012-.016l-.017-.012c-.002-.004.008.01.009.018.001.009.005.038.03.075.016.022.039.06.089.048.05-.012.031-.08.02-.11a.28.28 0 0 1-.015-.079c.001-.012.01-.047.009-.054a.135.135 0 0 1 .002-.052c.006-.022.012-.03.015-.039.003-.008.006-.013.007-.021.002-.008.002-.022.002-.022l.011.023a.112.112 0 0 1 .002.024s.002-.018.016-.027c.014-.008.03-.018.034-.023a.036.036 0 0 0 .005-.008s0 .03-.01.043c-.005.008-.028.033-.028.033l.02-.005H4.7s-.01.008-.023.027c-.013.018-.007.02-.017.035-.009.016-.016.016-.028.026-.017.013-.008.069-.006.077.003.008.033.076.033.093 0 .016.004.053-.025.077-.019.015-.05.015-.056.02-.007.004-.021.017-.021.046 0 .029.01.033.018.04.009.007.019.003.021.009.003.005.004.009.007.012.004.003.006.007.005.013-.001.006-.015.02-.02.03a.24.24 0 0 0-.013.04c0 .003-.001.015.003.021 0 0 .014.017.004.02-.006.002-.012-.004-.015-.003-.009.002-.014.008-.016.007-.006 0-.006-.004-.006-.012s0-.011-.003-.011c-.004 0-.005.002-.006.007 0 .004 0 .014-.005.014-.004 0-.01-.007-.013-.009-.003-.001-.013-.003-.014-.007 0-.005.006-.014.012-.016.007-.001.012-.005.008-.008s-.008-.003-.012 0-.012 0-.012-.004c0-.005.002-.011.001-.014 0-.003-.007-.008.002-.013.01-.005.013.004.023.003.009-.002.013-.005.017-.01.003-.006.003-.018-.004-.025-.006-.007-.012-.008-.015-.013l-.005-.014v.036l-.012-.013c-.005-.005-.01-.022-.01-.022v.022c0 .006.006.011.004.013-.003.002-.013-.011-.017-.013-.002-.003-.012-.01-.016-.017-.004-.008-.007-.019-.008-.023a.07.07 0 0 1-.001-.025.589.589 0 0 0 .008-.018h-.023c-.012 0-.02-.004-.025.004-.005.008-.003.025.003.046.006.022.01.032.008.036a.051.051 0 0 1-.013.014c-.003.002-.01.001-.014 0a.042.042 0 0 0-.02-.005h-.022c-.004-.001-.014-.006-.019-.005-.005.001-.013.005-.01.011.003.01-.004.012-.008.012-.005 0-.009-.002-.015-.004s-.014 0-.013-.007c.001-.006.003-.007.006-.012s.004-.008 0-.008c-.003 0-.007 0-.01.002-.004.002-.008.008-.012.006-.005-.003-.008-.007-.008-.018 0-.01-.01-.019 0-.018.01 0 .022.007.024.002.002-.006.001-.008-.004-.013-.006-.004-.012-.007-.005-.012l.012-.009c.002-.003.006-.012.011-.01.01.005 0 .012.01.023.01.01.017.015.034.013.016-.002.02-.004.02-.009l-.001-.016.002-.016s-.007.005-.01.01l-.006.012-.002-.017.002-.014c0-.005-.004-.016-.004-.016l-.004.016c-.002.003-.003.017-.003.017s-.01-.01-.007-.025c.002-.012-.002-.028.001-.033.004-.005.012-.026.033-.027h.045c.007 0 .033-.005.033-.005s-.048-.024-.059-.032a.16.16 0 0 1-.033-.034c-.005-.009-.01-.025-.01-.025s-.009 0-.016.004a.082.082 0 0 0-.02.016c-.005.005-.012.017-.012.017l.001-.02a.184.184 0 0 0 0-.014s-.006.02-.017.029l-.023.018.001-.014.003-.016s-.008.012-.02.014-.029.002-.03.009c-.001.007.003.017 0 .022-.002.005-.008.009-.008.009s-.007-.006-.013-.006c-.006-.001-.011.002-.011.002s-.005-.006-.003-.01c.001-.005.01-.011.008-.014-.002-.002-.01.001-.014.003s-.014.004-.013-.003c0-.007.003-.011 0-.017-.001-.005 0-.008.004-.01.003 0 .018.001.02-.002 0-.004-.004-.008-.014-.01s-.014-.008-.01-.013a.033.033 0 0 0 .01-.01c.002-.004.003-.012.011-.008.009.004.007.013.016.016a.068.068 0 0 0 .035-.004L4.261 4c.005-.002.026-.017.026-.017L4.27 3.97c-.005-.005-.013-.015-.017-.017a.147.147 0 0 0-.03-.01.177.177 0 0 1-.028-.008s.01-.003.013-.006c.003-.002.01-.009.014-.008h.004s-.02 0-.023-.002c-.004-.001-.016-.008-.02-.008l-.014.001s.012-.007.022-.01h.018s-.016-.005-.02-.01l-.01-.016c-.002-.003-.004-.009-.009-.01-.005 0-.013.007-.018.006-.005 0-.01-.003-.01-.01l-.001-.01c-.002-.003-.01-.012-.003-.014s.022.001.023-.001c.001-.003-.008-.01-.013-.014-.006-.003-.016-.008-.01-.012.004-.004.01-.006.012-.01.003-.004.006-.014.012-.011.005.003.014.02.018.019.005-.001.005-.013.004-.019 0-.005 0-.014.005-.013.004 0 .008.007.015.007.007 0 .018-.001.017.004a.039.039 0 0 1-.01.017c-.005.006-.007.017-.004.024a.063.063 0 0 0 .019.023c.007.005.02.009.03.014.008.006.028.022.034.023a.085.085 0 0 1 .014.005s.008-.003.018-.003c.01 0 .034.002.043-.002.01-.004.021-.01.018-.019-.004-.008-.024-.015-.022-.021.002-.007.01-.007.021-.008.012 0 .03.003.032-.015.003-.017.004-.027-.013-.03-.017-.004-.03-.005-.033-.017-.003-.013-.006-.016-.003-.019.004-.003.01-.005.023-.006.013 0 .027 0 .031-.004.004-.003.005-.01.01-.014a.104.104 0 0 1 .025-.007s.023.011.044.027c.02.015.037.036.037.036"/><path stroke="#000" stroke-width=".39" d="M4.535 3.792s0 .012.002.022c0 .011-.004.02-.002.026.002.006.002.01.005.015.002.004.003.015.003.015l-.012-.009-.01-.007.002.017c0 .005.004.014.008.02.005.005.014.014.017.021.003.007.002.023.002.023s-.007-.012-.014-.014l-.02-.01s.013.013.013.025c0 .012-.005.025-.005.025s-.006-.01-.014-.018c-.007-.007-.018-.014-.018-.014a.1.1 0 0 0 .009.031L4.498 4s-.006-.01-.012-.016l-.017-.012c-.002-.004.008.01.009.018.001.009.005.038.03.075.016.022.039.06.089.048.05-.012.031-.08.02-.11a.28.28 0 0 1-.015-.079c.001-.012.01-.047.009-.054a.135.135 0 0 1 .002-.052c.006-.022.012-.03.015-.039.003-.008.006-.013.007-.021.002-.008.002-.022.002-.022l.011.023a.112.112 0 0 1 .002.024s.002-.018.016-.027c.014-.008.03-.018.034-.023a.036.036 0 0 0 .005-.008s0 .03-.01.043c-.005.008-.028.033-.028.033l.02-.005H4.7s-.01.008-.023.027c-.013.018-.007.02-.017.035-.009.016-.016.016-.028.026-.017.013-.008.069-.006.077.003.008.033.076.033.093 0 .016.004.053-.025.077-.019.015-.05.015-.056.02-.007.004-.021.017-.021.046 0 .029.01.033.018.04.009.007.019.003.021.009.003.005.004.009.007.012.004.003.006.007.005.013-.001.006-.015.02-.02.03a.24.24 0 0 0-.013.04c0 .003-.001.015.003.021 0 0 .014.017.004.02-.006.002-.012-.004-.015-.003-.009.002-.014.008-.016.007-.006 0-.006-.004-.006-.012s0-.011-.003-.011c-.004 0-.005.002-.006.007 0 .004 0 .014-.005.014-.004 0-.01-.007-.013-.009-.003-.001-.013-.003-.014-.007 0-.005.006-.014.012-.016.007-.001.012-.005.008-.008s-.008-.003-.012 0-.012 0-.012-.004c0-.005.002-.011.001-.014 0-.003-.007-.008.002-.013.01-.005.013.004.023.003.009-.002.013-.005.017-.01.003-.006.003-.018-.004-.025-.006-.007-.012-.008-.015-.013l-.005-.014v.036l-.012-.013c-.005-.005-.01-.022-.01-.022v.022c0 .006.006.011.004.013-.003.002-.013-.011-.017-.013-.002-.003-.012-.01-.016-.017-.004-.008-.007-.019-.008-.023a.07.07 0 0 1-.001-.025.589.589 0 0 0 .008-.018h-.023c-.012 0-.02-.004-.025.004-.005.008-.003.025.003.046.006.022.01.032.008.036a.051.051 0 0 1-.013.014c-.003.002-.01.001-.014 0a.042.042 0 0 0-.02-.005h-.022c-.004-.001-.014-.006-.019-.005-.005.001-.013.005-.01.011.003.01-.004.012-.008.012-.005 0-.009-.002-.015-.004s-.014 0-.013-.007c.001-.006.003-.007.006-.012s.004-.008 0-.008c-.003 0-.007 0-.01.002-.004.002-.008.008-.012.006-.005-.003-.008-.007-.008-.018 0-.01-.01-.019 0-.018.01 0 .022.007.024.002.002-.006.001-.008-.004-.013-.006-.004-.012-.007-.005-.012l.012-.009c.002-.003.006-.012.011-.01.01.005 0 .012.01.023.01.01.017.015.034.013.016-.002.02-.004.02-.009l-.001-.016.002-.016s-.007.005-.01.01l-.006.012-.002-.017.002-.014c0-.005-.004-.016-.004-.016l-.004.016c-.002.003-.003.017-.003.017s-.01-.01-.007-.025c.002-.012-.002-.028.001-.033.004-.005.012-.026.033-.027h.045c.007 0 .033-.005.033-.005s-.048-.024-.059-.032a.16.16 0 0 1-.033-.034c-.005-.009-.01-.025-.01-.025s-.009 0-.016.004a.082.082 0 0 0-.02.016c-.005.005-.012.017-.012.017l.001-.02a.184.184 0 0 0 0-.014s-.006.02-.017.029l-.023.018.001-.014.003-.016s-.008.012-.02.014-.029.002-.03.009c-.001.007.003.017 0 .022-.002.005-.008.009-.008.009s-.007-.006-.013-.006c-.006-.001-.011.002-.011.002s-.005-.006-.003-.01c.001-.005.01-.011.008-.014-.002-.002-.01.001-.014.003s-.014.004-.013-.003c0-.007.003-.011 0-.017-.001-.005 0-.008.004-.01.003 0 .018.001.02-.002 0-.004-.004-.008-.014-.01s-.014-.008-.01-.013a.033.033 0 0 0 .01-.01c.002-.004.003-.012.011-.008.009.004.007.013.016.016a.068.068 0 0 0 .035-.004L4.261 4c.005-.002.026-.017.026-.017L4.27 3.97c-.005-.005-.013-.015-.017-.017a.147.147 0 0 0-.03-.01.177.177 0 0 1-.028-.008s.01-.003.013-.006c.003-.002.01-.009.014-.008h.004s-.02 0-.023-.002c-.004-.001-.016-.008-.02-.008l-.014.001s.012-.007.022-.01h.018s-.016-.005-.02-.01l-.01-.016c-.002-.003-.004-.009-.009-.01-.005 0-.013.007-.018.006-.005 0-.01-.003-.01-.01l-.001-.01c-.002-.003-.01-.012-.003-.014s.022.001.023-.001c.001-.003-.008-.01-.013-.014-.006-.003-.016-.008-.01-.012.004-.004.01-.006.012-.01.003-.004.006-.014.012-.011.005.003.014.02.018.019.005-.001.005-.013.004-.019 0-.005 0-.014.005-.013.004 0 .008.007.015.007.007 0 .018-.001.017.004a.039.039 0 0 1-.01.017c-.005.006-.007.017-.004.024a.063.063 0 0 0 .019.023c.007.005.02.009.03.014.008.006.028.022.034.023a.085.085 0 0 1 .014.005s.008-.003.018-.003c.01 0 .034.002.043-.002.01-.004.021-.01.018-.019-.004-.008-.024-.015-.022-.021.002-.007.01-.007.021-.008.012 0 .03.003.032-.015.003-.017.004-.027-.013-.03-.017-.004-.03-.005-.033-.017-.003-.013-.006-.016-.003-.019.004-.003.01-.005.023-.006.013 0 .027 0 .031-.004.004-.003.005-.01.01-.014a.104.104 0 0 1 .025-.007s.023.011.044.027c.02.015.037.036.037.036"/><path stroke="#000" stroke-width=".39" d="M4.304 3.894s-.013.004-.018.011c-.006.008-.005.017-.005.017s.01-.009.025-.005c.014.004.015.005.021.005.006 0 .02-.006.02-.006s-.012.014-.01.023l.003.019c-.001.011-.01.025-.01.025s.005-.003.017-.005a.074.074 0 0 0 .028-.013c.006-.005.014-.017.014-.017s-.002.016 0 .023a.134.134 0 0 1 .004.027s.007-.007.014-.01c.003-.002.01-.006.014-.011l.005-.017s.002.014.006.021c.005.007.011.028.011.028s.005-.014.01-.02c.005-.005.011-.012.011-.016l-.001-.014.006.014m-.182.01s.007-.014.015-.018l.02-.013a.19.19 0 0 0 .014-.007m.016.082s.017-.008.022-.012a.066.066 0 0 0 .019-.018"/><path stroke="#000" stroke-width=".26" d="m4.521 3.854-.007-.01a.087.087 0 0 1-.003-.008"/><path stroke="#000" stroke-width=".39" d="M4.453 4.119s.033.02.032.037c-.001.016-.018.038-.018.038"/><path fill="#000" stroke="#000" stroke-width=".26" d="m4.369 3.78-.003-.01-.002-.005s.014 0 .013.005c0 .004-.004.004-.005.006a.024.024 0 0 1-.003.004Z"/><path fill="#000" stroke="#000" stroke-width=".05" d="m4.433 3.758-.001-.007s.012 0 .018.004c.01.006.015.016.015.017-.002.001-.01-.005-.014-.006h-.007c-.004 0-.006-.001-.006-.003a.01.01 0 0 1 0-.005h-.005Z"/><path fill="#000" d="m4.37 3.842.004-.008.006.008h-.01Z"/><path stroke="#000" stroke-width=".26" d="m4.37 3.842.004-.008.006.008h-.01"/><path fill="#000" stroke="#000" stroke-width=".26" d="m4.382 3.842.006-.009.007.008h-.013ZM4.376 3.79l.013.004-.011.006-.002-.01Z"/><path fill="#000" d="m4.392 3.794.012.002-.01.008-.002-.01Z"/><path stroke="#000" stroke-width=".26" d="m4.392 3.794.012.002-.01.008-.002-.01"/><path fill="#DB4446" stroke="#000" stroke-width=".39" d="M4.19 3.777s.008.006.014.007h.013s.002-.008.001-.014c-.003-.02-.02-.024-.02-.024s.005.012.002.018a.051.051 0 0 1-.01.013ZM4.153 3.794s-.007-.012-.021-.01c-.014.001-.024.012-.024.012s.016 0 .02.002c.006.004.008.014.008.014s.008-.005.011-.009c.003-.003.006-.01.006-.01ZM4.136 3.844s-.013.002-.02.01c-.006.007-.005.022-.005.022s.008-.009.015-.009c.007 0 .019.003.019.003l-.004-.013a.043.043 0 0 0-.005-.013ZM4.177 4.006S4.17 3.999 4.158 4s-.02.015-.02.015.01-.002.017 0c.006 0 .01.006.01.006l.007-.007a.106.106 0 0 0 .005-.01ZM4.163 4.053s-.01-.001-.018.006c-.009.007-.01.02-.01.02s.009-.007.015-.006c.007 0 .014.004.014.004l.002-.01c.001-.006-.003-.014-.003-.014ZM4.186 4.097s0 .013.006.02a.03.03 0 0 0 .018.01l-.005-.013c0-.006.006-.012.006-.012s-.006-.006-.012-.006l-.013.001ZM4.304 4.21s-.008-.01-.02-.01c-.01 0-.023.011-.023.011s.014-.001.018.004l.007.01.01-.005.008-.01ZM4.27 4.255s-.016-.002-.023.005c-.007.008-.007.022-.007.022s.01-.01.017-.009c.009.001.018.005.018.005l-.003-.012c0-.004-.003-.011-.003-.011ZM4.301 4.302s-.007.01-.002.019a.037.037 0 0 0 .017.012s-.004-.006-.002-.013c.001-.005.01-.013.01-.013l-.023-.005ZM4.5 4.322s-.013-.003-.02.001c-.008.004-.014.022-.014.022s.012-.01.02-.008a.05.05 0 0 1 .016.004V4.33L4.5 4.322ZM4.506 4.37s-.01.01-.006.018c.003.01.01.018.01.018s0-.013.003-.016c.006-.005.017-.006.017-.006l-.011-.009c-.003 0-.013-.005-.013-.005ZM4.556 4.385s-.005.012.004.02c.01.008.018.01.018.01s-.007-.014-.005-.02c.002-.008.009-.012.009-.012s-.012-.004-.014-.003a.148.148 0 0 0-.012.005Z"/><path fill="#C8B100" stroke="#000" stroke-width=".26" d="M4.526 3.723H4.52c0 .001-.002.005-.004.006-.004.004-.01.005-.014.001a.008.008 0 0 1-.002-.006.008.008 0 0 1-.008 0c-.004-.003-.005-.008-.002-.013l.001-.003v-.005l-.005.001-.002.003c-.004.004-.009.005-.011.003a.008.008 0 0 1-.002-.004l-.003.002c-.009.002-.012-.017-.012-.022l-.003.004s.002.011.001.02l-.004.02c.011.003.03.013.047.026a.151.151 0 0 1 .038.039l.018-.008c.01-.003.022-.003.022-.003l.004-.004c-.005.001-.026.002-.025-.007l.001-.003h-.005c-.003-.003-.003-.007 0-.012l.003-.002v-.005H4.55l-.002.003c-.005.003-.01.004-.014 0a.007.007 0 0 1-.002-.007.01.01 0 0 1-.007 0c-.004-.003-.005-.01-.002-.014a.021.021 0 0 1 .005-.005v-.005h-.001Z"/><path fill="#000" stroke="#000" stroke-width=".05" d="M4.49 3.734h.004v.004h-.003c-.001-.001-.002-.003-.001-.004ZM4.505 3.747 4.5 3.743V3.74h.002l.005.005.006.004v.002H4.51l-.005-.004ZM4.477 3.728l-.004-.002-.001-.003h.003l.004.002.004.003.001.002h-.003l-.004-.002ZM4.46 3.717h.005v.003h-.003c-.002-.001-.002-.002-.001-.003ZM4.522 3.759v-.004h-.005l.001.004h.004ZM4.531 3.77l.004.003h.002v-.002l-.003-.004-.004-.003h-.003v.002l.004.003ZM4.546 3.782V3.78h-.004v.003h.004Z"/><use xlink:href="#reuse-0" stroke-width=".26"/><use xlink:href="#reuse-0" stroke-width=".26"/><path fill="#C8B100" d="M4.477 3.693v.01l.014.001.002-.001V3.7l-.008-.01-.008.003Z"/><path stroke="#000" stroke-width=".26" d="M4.477 3.693v.01l.014.001.002-.001V3.7l-.008-.01-.008.003"/><path fill="#C8B100" stroke="#000" stroke-width=".26" d="m4.507 3.71-.008.005-.008-.011V3.7h.002l.015.001v.009Z"/><path fill="#C8B100" stroke="#000" stroke-width=".26" d="M4.488 3.7a.005.005 0 0 1 .006-.001.004.004 0 0 1 .002.005.005.005 0 0 1-.006.002.004.004 0 0 1-.002-.006ZM4.454 3.686s-.002-.008-.005-.012a.025.025 0 0 0-.006-.007s.007-.003.014.002c.006.005 0 .014 0 .014l-.003.003Z"/><path fill="#C8B100" d="m4.47 3.69-.007.006-.01-.01v-.003h.016l.001.008Z"/><path stroke="#000" stroke-width=".26" d="m4.47 3.69-.007.006-.01-.01v-.003h.016l.001.008"/><path fill="#C8B100" stroke="#000" stroke-width=".26" d="M4.452 3.685c0-.003.003-.004.004-.004.002.001.003.003.002.006-.001.002-.003.003-.005.003s-.002-.003-.001-.005Z"/><path fill="#C8B100" d="M4.539 3.708h-.01l-.004.013v.002h.003l.014-.006-.003-.009Z"/><path stroke="#000" stroke-width=".26" d="M4.539 3.708h-.01l-.004.013v.002h.003l.014-.006-.003-.009"/><path fill="#C8B100" d="m4.512 3.712-.001.01.014.003h.002v-.003l-.006-.013-.009.003Z"/><path stroke="#000" stroke-width=".26" d="m4.512 3.712-.001.01.014.003h.002v-.003l-.006-.013-.009.003"/><path fill="#C8B100" d="m4.54 3.734-.009.003-.007-.013v-.002h.003l.014.003-.001.009Z"/><path stroke="#000" stroke-width=".26" d="m4.54 3.734-.009.003-.007-.013v-.002h.003l.014.003-.001.009"/><path fill="#C8B100" stroke="#000" stroke-width=".26" d="M4.522 3.72a.005.005 0 0 1 .007 0 .004.004 0 0 1 0 .006c-.001.002-.004.002-.006 0a.004.004 0 0 1 0-.005Z"/><path fill="#C8B100" d="m4.57 3.738.002.009-.014.004h-.003v-.003l.006-.012.01.002Z"/><path stroke="#000" stroke-width=".26" d="m4.57 3.738.002.009-.014.004h-.003v-.003l.006-.012.01.002"/><path fill="#C8B100" d="m4.568 3.763-.01.002-.004-.013V3.75h.003l.013.005-.002.008Z"/><path stroke="#000" stroke-width=".26" d="m4.568 3.763-.01.002-.004-.013V3.75h.003l.013.005-.002.008"/><path fill="#C8B100" stroke="#000" stroke-width=".26" d="m4.543 3.739-.002.008.013.005h.003V3.75l-.005-.014-.009.003Z"/><path fill="#C8B100" stroke="#000" stroke-width=".26" d="M4.558 3.754a.004.004 0 0 0 0-.006.005.005 0 0 0-.006 0c-.002.001-.002.004 0 .006a.005.005 0 0 0 .006 0ZM4.58 3.783l.013.001a.03.03 0 0 1 .009.005c0-.001.001-.007-.005-.013-.006-.004-.014.004-.014.004s-.002.001-.002.003Z"/><path fill="#C8B100" d="m4.572 3.769-.005.007.012.008.002-.001h.002l-.002-.015h-.01Z"/><path stroke="#000" stroke-width=".26" d="m4.572 3.769-.005.007.012.008.002-.001h.002l-.002-.015h-.01"/><path fill="#C8B100" stroke="#000" stroke-width=".26" d="M4.582 3.784c.002 0 .003-.003.002-.004 0-.002-.003-.002-.006 0-.002 0-.003.003-.002.004.001.002.004.002.006 0Z"/><path fill="#AD1519" stroke="#000" stroke-width=".61" d="M4.007 4.789c.144 0 .26-.131.26-.293 0-.162-.116-.293-.26-.293-.144 0-.26.131-.26.293 0 .162.116.293.26.293Z"/><path fill="#005BBF" stroke="#000" stroke-width=".61" d="M4.007 4.71c.101 0 .183-.096.183-.214 0-.12-.082-.215-.183-.215-.101 0-.183.096-.183.215 0 .118.082.214.183.214Z"/><path fill="#C8B100" stroke="#000" stroke-linejoin="round" stroke-width=".34" d="M3.92 4.348s-.021.024-.021.046.009.04.009.04a.024.024 0 0 0-.023-.015.023.023 0 0 0-.024.023l.004.012.008.016c.003-.006.009-.009.016-.009.01 0 .017.007.017.016v.004h-.02v.017h.017l-.013.026.018-.007.012.014.014-.014.017.007-.013-.026h.018V4.48h-.02v-.004c0-.009.007-.016.017-.016.007 0 .013.003.015.01l.008-.017a.034.034 0 0 0 .004-.012.023.023 0 0 0-.024-.023c-.01 0-.02.006-.022.015 0 0 .009-.018.009-.04 0-.022-.023-.046-.023-.046Z"/><path fill="#C8B100" stroke="#000" stroke-width=".34" d="M3.886 4.498h.07V4.48h-.07v.017Z"/><path fill="#C8B100" stroke="#000" stroke-linejoin="round" stroke-width=".34" d="M4.09 4.348s-.021.024-.021.046.01.04.01.04a.024.024 0 0 0-.024-.015.023.023 0 0 0-.024.023l.004.012.008.016c.003-.006.009-.009.016-.009.01 0 .017.007.017.016v.004h-.02v.017h.017l-.013.026.018-.007.013.014.013-.014.017.007-.013-.026h.018V4.48h-.02v-.004c0-.009.007-.016.017-.016.007 0 .013.003.015.01l.008-.017a.034.034 0 0 0 .004-.012.023.023 0 0 0-.024-.023c-.01 0-.02.006-.022.015 0 0 .009-.018.009-.04 0-.022-.022-.046-.022-.046Z"/><path fill="#C8B100" stroke="#000" stroke-width=".34" d="M4.056 4.498h.07V4.48h-.07v.017Z"/><path fill="#C8B100" stroke="#000" stroke-linejoin="round" stroke-width=".34" d="M4.005 4.494s-.021.024-.021.046.009.04.009.04a.024.024 0 0 0-.023-.015.023.023 0 0 0-.024.023c0 .004.003.01.004.013l.008.015c.003-.006.009-.009.016-.009.01 0 .017.007.017.016v.004h-.02v.017h.017l-.013.026.017-.007.013.015.014-.015.017.007-.013-.026h.017v-.016h-.019v-.005c0-.009.007-.016.017-.016.007 0 .013.003.015.01l.008-.016a.034.034 0 0 0 .004-.013.023.023 0 0 0-.024-.023c-.01 0-.02.007-.022.015 0 0 .009-.018.009-.04 0-.022-.023-.046-.023-.046Z"/><path fill="#C8B100" stroke="#000" stroke-width=".34" d="M3.971 4.644h.07v-.016h-.07v.016Z"/></g><defs><clipPath id="clip0_150_492"><path fill="#fff" d="M0 0h12v8H0z"/></clipPath></defs></svg>