<svg xmlns="http://www.w3.org/2000/svg" width="718" height="175" fill="none" viewBox="0 0 718 175"><path fill="#fff" d="M54.663 167.256c-2.115 2.184-4.696 3.277-7.743 3.277-3.048 0-5.63-1.093-7.747-3.277-2.114-2.184-3.173-4.852-3.173-8.001 0-3.146 1.059-5.812 3.173-7.998 2.117-2.184 4.699-3.277 7.747-3.277 3.047 0 5.628 1.093 7.743 3.277 2.117 2.186 3.173 4.852 3.173 7.998 0 3.149-1.056 5.817-3.173 8.001Zm-13.052-2.424c1.435 1.482 3.202 2.221 5.31 2.221 2.105 0 3.872-.739 5.306-2.221 1.435-1.481 2.15-3.338 2.15-5.577 0-2.236-.715-4.095-2.15-5.574-1.434-1.482-3.201-2.222-5.307-2.222-2.107 0-3.874.74-5.309 2.222-1.434 1.479-2.15 3.338-2.15 5.574 0 2.239.716 4.096 2.15 5.577Zm31.866-16.449h3.46v21.745h-3.46v-9.411h-9.022v9.411h-3.458v-21.745h3.458v8.916h9.022v-8.916Zm5.956 21.745v-3.292c1.324.185 2.31-.144 2.964-.994.652-.849.975-2.474.975-4.878v-12.581H97.48v21.745h-3.458v-18.327h-7.19v9.101c0 1.905-.196 3.51-.586 4.816-.39 1.303-.948 2.283-1.67 2.936-.722.65-1.499 1.088-2.332 1.306-.83.215-1.767.274-2.811.168Zm35.975 0-1.485-4.378h-8.954l-1.473 4.378h-3.76l7.639-21.745h4.151l7.611 21.745h-3.729Zm-9.294-7.734h6.671l-3.328-9.817-3.343 9.817Zm19.13-16.185v-2.919h8.422v2.919h-8.422Zm8.784 23.919v-14.852l-9.992 14.852h-2.641v-21.745h3.458v14.758l9.926-14.758h2.707v21.745h-3.458Zm20.15-21.745h3.461v21.745h-3.461v-9.411h-9.022v9.411h-3.457v-21.745h3.457v8.916h9.022v-8.916Zm7.671 13.917v-3.23h11.131v3.23h-11.131Zm27.221-13.917v3.418h-8.422v18.327h-3.458v-21.745h11.88Zm15.191 21.745v-14.852l-9.991 14.852h-2.642v-21.745h3.459v14.758l9.926-14.758h2.706v21.745h-3.458Zm23.16-21.745v21.745h-3.458v-18.327h-8.573v18.327h-3.459v-21.745h15.49Zm7.671 18.329h9.323v3.416h-12.781v-21.745h12.632v3.418h-9.174v5.654h8.42v3.386h-8.42v5.871Zm20.241-18.329c1.985 0 3.645.685 4.979 2.053 1.334 1.365 2 3.061 2 5.092 0 2.008-.666 3.703-2 5.08-1.334 1.375-2.994 2.065-4.979 2.065h-4.301v7.455h-3.458v-21.745h7.759Zm0 10.937c1.023 0 1.866-.359 2.529-1.071.661-.715.991-1.623.991-2.721 0-1.096-.33-2.003-.991-2.718-.663-.712-1.506-1.071-2.529-1.071h-4.301v7.581h4.301Zm30.141-10.937v21.745h-3.457v-15.5l-6.409 10.934h-.422l-6.406-10.966v15.532h-3.458v-21.745h3.729l6.351 10.872 6.368-10.872h3.704Zm17.926 21.745-1.485-4.378h-8.952l-1.475 4.378h-3.757l7.639-21.745h4.15l7.609 21.745H303.4Zm-9.295-7.734h6.672l-3.328-9.817-3.344 9.817Zm23.041-14.011c1.986 0 3.645.685 4.977 2.053 1.336 1.365 2.002 3.061 2.002 5.092 0 2.008-.666 3.703-2.002 5.08-1.332 1.375-2.991 2.065-4.977 2.065h-4.301v7.455h-3.458v-21.745h7.759Zm0 10.937c1.023 0 1.866-.359 2.527-1.071.663-.715.994-1.623.994-2.721 0-1.096-.331-2.003-.994-2.718-.661-.712-1.504-1.071-2.527-1.071h-4.301v7.581h4.301Zm25.869 10.808h-4.121l-8.301-10.358v10.358h-3.461v-21.745h3.461v9.759l8.002-9.759h4.119l-8.512 10.593 8.813 11.152Zm5.714-3.416h9.326v3.416h-12.784v-21.745h12.633v3.418h-9.175v5.654h8.423v3.386h-8.423v5.871Zm26.169-18.329v3.418h-5.925v18.327h-3.458v-18.327h-5.956v-3.418h15.339Zm20.784 10.469c2.146 1.056 3.219 2.807 3.219 5.251 0 1.904-.697 3.453-2.09 4.645-1.395 1.189-3.214 1.785-5.461 1.785-3.851 0-6.396-1.679-7.639-5.033l2.976-1.771c.623 2.298 2.177 3.448 4.663 3.448 1.325 0 2.338-.294 3.039-.885.702-.589 1.054-1.383 1.054-2.377 0-.972-.337-1.756-1.008-2.345-.673-.588-1.622-.885-2.843-.885h-2.558v-3.23h1.866c1.183 0 2.105-.28 2.768-.839.659-.561.992-1.306.992-2.236 0-.932-.302-1.674-.903-2.223-.601-.547-1.463-.821-2.586-.821-2.086 0-3.49.984-4.211 2.95l-2.947-1.77c1.362-3.023 3.747-4.536 7.158-4.536 2.064 0 3.74.576 5.022 1.723 1.283 1.151 1.925 2.647 1.925 4.489 0 2.051-.812 3.604-2.436 4.66Zm19.942 11.276-1.485-4.378h-8.954l-1.472 4.378h-3.76l7.642-21.745h4.147l7.611 21.745h-3.729Zm-9.294-7.734h6.672l-3.329-9.817-3.343 9.817Zm23.04-14.011c1.986 0 3.646.685 4.977 2.053 1.334 1.365 2 3.061 2 5.092 0 2.008-.666 3.703-2 5.08-1.331 1.375-2.991 2.065-4.977 2.065h-4.3v7.455h-3.459v-21.745h7.759Zm0 10.937c1.023 0 1.866-.359 2.527-1.071.661-.715.991-1.623.991-2.721 0-1.096-.33-2.003-.991-2.718-.661-.712-1.504-1.071-2.527-1.071h-4.3v7.581h4.3Zm23.733-10.937v21.745h-3.46v-7.922h-3.344l-5.077 7.922h-3.91l5.352-8.231c-1.381-.436-2.521-1.259-3.413-2.471-.89-1.212-1.338-2.562-1.338-4.051 0-1.949.658-3.599 1.969-4.957 1.314-1.355 2.914-2.035 4.799-2.035h8.422Zm-8.422 10.625h4.962v-7.269h-4.962c-.922 0-1.705.351-2.347 1.056-.639.702-.963 1.563-.963 2.58 0 1.014.324 1.872.963 2.577.642.705 1.425 1.056 2.347 1.056Zm28.424 7.704h2.256v7.578h-3.458v-4.162h-12.784v4.162h-3.458v-7.578h1.955c1.221-1.657 1.834-4.152 1.834-7.486v-10.843h13.655v18.329Zm-11.701 0h8.243v-14.973h-6.737v7.548c0 3.233-.503 5.706-1.506 7.425Zm29.449-18.329h3.458v21.745h-3.458v-9.411h-9.023v9.411h-3.459v-21.745h3.459v8.916h9.023v-8.916Zm7.671 21.745v-21.745h3.458v7.457h4.301c1.986 0 3.645.687 4.977 2.065 1.333 1.377 1.999 3.072 1.999 5.08s-.666 3.702-1.999 5.078c-1.332 1.377-2.991 2.065-4.977 2.065h-7.759Zm16.78 0v-21.745h3.461v21.745h-3.461Zm-13.322-3.354h4.301c1.02 0 1.863-.356 2.526-1.071.662-.715.992-1.62.992-2.718 0-1.098-.33-2.003-.992-2.718-.663-.715-1.506-1.071-2.526-1.071h-4.301v7.578Zm36.483 3.354h-3.94l-4.626-7.853-4.637 7.853h-3.939l6.609-11.194-6.219-10.551h3.911l4.27 7.234 4.27-7.234h3.942l-6.241 10.568 6.6 11.177Zm20.035.405c-3.171 0-5.796-1.083-7.881-3.247-2.087-2.162-3.128-4.84-3.128-8.031 0-3.188 1.041-5.864 3.128-8.028 2.085-2.164 4.71-3.247 7.881-3.247 1.904 0 3.664.467 5.278 1.397a10.004 10.004 0 0 1 3.775 3.792l-3.008 1.8a6.35 6.35 0 0 0-2.451-2.562c-1.074-.631-2.272-.948-3.594-.948-2.246 0-4.067.738-5.46 2.207-1.394 1.469-2.091 3.331-2.091 5.589 0 2.258.697 4.121 2.091 5.595 1.393 1.469 3.214 2.203 5.46 2.203 1.322 0 2.524-.314 3.607-.947 1.085-.63 1.896-1.486 2.438-2.562l3.008 1.768c-.882 1.598-2.132 2.864-3.746 3.807-1.612.942-3.384 1.414-5.307 1.414Zm25.445-22.15v3.418h-5.925v18.327h-3.458v-18.327h-5.956v-3.418h15.339Zm14.769 21.745-1.485-4.378h-8.951l-1.476 4.378h-3.758l7.64-21.745h4.15l7.609 21.745h-3.729Zm-9.294-7.734h6.672l-3.329-9.817-3.343 9.817Zm27.765-14.011h3.458v21.745h-3.458v-9.411h-9.024v9.411h-3.46v-21.745h3.46v8.916h9.024v-8.916Zm23.156 18.329h2.257v7.578h-3.458v-4.162h-14.285v-21.745h3.458v18.329h8.571v-18.329h3.457v18.329Zm17.896 3.416v-14.852l-9.987 14.852h-2.642v-21.745h3.457v14.758l9.932-14.758h2.704v21.745h-3.464Zm11.526-23.919v-2.919h8.417v2.919h-8.417Zm8.779 23.919v-14.852l-9.987 14.852h-2.642v-21.745h3.458v14.758l9.925-14.758H682v21.745h-3.458Z"/><path fill="#fff" fill-rule="evenodd" d="M56.704 0h249.461a67.768 67.768 0 0 0-8.481 6.033H56.704c-13.903 0-26.582 5.728-35.762 14.909-9.181 9.18-14.909 21.86-14.909 35.762 0 13.946 5.728 26.625 14.909 35.806 9.18 9.181 21.86 14.908 35.762 14.908h240.98a67.682 67.682 0 0 0 8.481 6.033H56.704C25.532 113.451 0 87.919 0 56.704 0 25.532 25.532 0 56.704 0Z" clip-rule="evenodd"/><path fill="#2D8EFF" fill-rule="evenodd" d="M371.963 0h289.333C692.468 0 718 25.532 718 56.704c0 31.215-25.532 56.747-56.704 56.747H371.963c.743 0 1.442-.043 2.186-.043h-20.767c-15.564 0-29.729-6.383-40.003-16.657-10.274-10.275-16.657-24.44-16.657-40.047 0-15.564 6.383-29.73 16.657-40.003C323.653 6.427 337.818.044 353.382.044h20.767c-.744 0-1.443-.044-2.186-.044Z" clip-rule="evenodd"/><path fill="#fff" d="M210.289 30.254v8.83H192.67v44.114h-8.787V39.085h-17.619v-8.831h44.025Zm-65.666.087v33.27h-8.831v-33.27h8.831Zm-84.203-.087 26.537 52.944h-9.749l-5.99-10.712h-21.51l-4.983 10.712H34.013L60.42 30.254Zm-5.815 33.27h12.679L60.42 49.927l-5.815 13.597Zm69.514 19.674c-3.192 0-5.946-.438-8.219-1.225-2.23-.83-4.11-1.88-5.553-3.191-1.443-1.268-2.579-2.71-3.322-4.284-.787-1.574-1.356-3.105-1.705-4.547-.35-1.487-.569-2.755-.613-3.935-.087-1.137-.131-1.967-.131-2.405v-33.27h8.832v33.27c0 .481.043 1.4.174 2.667.088 1.268.481 2.58 1.137 3.891.656 1.356 1.749 2.536 3.235 3.585 1.443 1.006 3.542 1.53 6.165 1.53v7.914ZM246.358 23.521h6.47a3.228 3.228 0 0 1 3.235 3.235v8.088h-12.941v-8.088a3.228 3.228 0 0 1 3.236-3.235Z"/><path fill="#2D8EFF" fill-rule="evenodd" d="M249.899 30.341c3.541 0 6.864.656 10.055 2.011 3.148 1.4 5.99 3.236 8.394 5.64a26.076 26.076 0 0 1 5.815 8.35c1.443 3.236 2.186 6.69 2.186 10.406 0 3.54-.7 6.864-2.055 10.055a27.589 27.589 0 0 1-5.596 8.438c-2.405 2.448-5.159 4.372-8.394 5.814a25.907 25.907 0 0 1-10.405 2.143c-3.498 0-6.864-.7-10.056-2.055-3.235-1.355-6.033-3.235-8.437-5.64-2.405-2.404-4.372-5.202-5.771-8.438-1.443-3.191-2.143-6.645-2.143-10.317 0-3.542.656-6.952 2.011-10.1a26.7 26.7 0 0 1 5.597-8.35c2.404-2.404 5.202-4.284 8.394-5.727 3.235-1.399 6.689-2.142 10.405-2.23Z" clip-rule="evenodd"/><path fill="#FEFEFE" fill-opacity=".502" fill-rule="evenodd" d="M260.173 56.398a7.818 7.818 0 0 1 7.826 7.826 7.818 7.818 0 0 1-7.826 7.825 7.818 7.818 0 0 1-7.826-7.825 7.818 7.818 0 0 1 7.826-7.826Z" clip-rule="evenodd"/><path fill="#fff" d="M248.675 21.685h1.836v1.836h-1.836v-1.836Zm0-14.69h1.836v1.836h-1.836V6.995Zm0 3.673h1.836v1.836h-1.836v-1.836Zm0 3.672h1.836v1.836h-1.836V14.34Zm0 3.672h1.836v1.837h-1.836v-1.837Z"/><path fill="#FEFEFE" fill-opacity=".502" fill-rule="evenodd" d="M261.572 60.639c3.06 0 5.508 2.448 5.508 5.465 0 3.016-2.448 5.465-5.508 5.465a5.467 5.467 0 0 1-5.465-5.465 5.467 5.467 0 0 1 5.465-5.465Z" clip-rule="evenodd"/><path fill="#FEFEFE" fill-opacity=".102" fill-rule="evenodd" d="m361.907.044-43.675 101.035a57.126 57.126 0 0 1-4.853-4.328c-10.274-10.274-16.657-24.44-16.657-40.047 0-15.564 6.383-29.729 16.657-40.003C323.653 6.427 337.818.044 353.382.044h8.525ZM478.244 0l-49.053 113.451h-57.228c.743 0 1.442-.043 2.186-.043h-3.104L420.054 0h58.19ZM594.537 0l-49.053 113.451h-58.146L536.391 0h58.146ZM702.917 18.318l-41.14 95.133h-58.146L652.684 0h8.612c16.395 0 31.259 7.083 41.621 18.318Z" clip-rule="evenodd"/><path fill="#FEFEFE" d="M361.995 75.24c-2.492 2.449-5.334 4.329-8.525 5.728a24.63 24.63 0 0 1-10.012 2.098c-3.41 0-6.733-.7-9.881-2.098-3.191-1.4-5.989-3.279-8.438-5.684-2.448-2.404-4.371-5.159-5.858-8.394a24.506 24.506 0 0 1-2.186-10.186c0-3.454.7-6.733 2.099-9.925 1.399-3.147 3.279-5.989 5.683-8.394 2.361-2.448 5.159-4.415 8.394-5.858 3.192-1.486 6.602-2.186 10.187-2.186 3.497 0 6.82.7 10.012 2.099a28.256 28.256 0 0 1 8.525 5.77l-5.859 5.859c-1.923-1.443-3.891-2.623-5.945-3.541-2.055-.918-4.285-1.4-6.733-1.4-2.448 0-4.722.482-6.864 1.4-2.142.918-3.979 2.142-5.552 3.76-1.574 1.573-2.842 3.453-3.76 5.596-.918 2.098-1.356 4.415-1.356 6.82 0 2.448.438 4.721 1.356 6.864a17.55 17.55 0 0 0 3.76 5.552 17.545 17.545 0 0 0 5.552 3.76c2.142.918 4.416 1.355 6.864 1.355 2.448 0 4.678-.437 6.645-1.355a17.627 17.627 0 0 0 5.159-3.498l6.733 5.859ZM682.15 39.13h-35.325V30.34h35.325v8.788Zm-26.537 13.203H678.172v8.787h-31.347v-8.787h8.788Zm0 22.034h26.537v8.832h-35.325v-8.832h8.788ZM472.429 30.254l26.538 52.944h-9.749l-5.99-10.712h-21.51l-4.984 10.712h-10.711l26.406-52.944Zm152.493 23.608v21.597a29.952 29.952 0 0 1-5.378 3.848c-1.705 1.005-3.716 1.88-6.12 2.666-2.405.831-5.072 1.225-8.045 1.225-3.497 0-6.82-.7-9.968-2.099-3.191-1.355-5.989-3.279-8.437-5.683-2.449-2.361-4.372-5.203-5.859-8.394a25.126 25.126 0 0 1-2.186-10.318c0-.962.088-1.924.175-2.842h8.919a15.26 15.26 0 0 0-.262 2.842c0 2.186.48 4.372 1.399 6.47.961 2.099 2.229 4.022 3.803 5.684a19.635 19.635 0 0 0 5.596 4.022c2.142 1.005 4.416 1.486 6.82 1.486 2.011 0 3.979-.262 5.815-.743 1.836-.525 3.541-1.268 5.028-2.186v-8.744h-10.843v-8.831h19.543Zm-19.543-23.52c4.197 0 7.87.786 11.105 2.36 3.235 1.574 6.033 3.716 8.438 6.427 0 .043-.394.35-1.093.874-.7.48-1.443 1.05-2.317 1.661-.962.7-2.142 1.53-3.454 2.405-1.443-1.486-3.323-2.71-5.552-3.585-2.274-.918-4.635-1.355-7.127-1.355V30.34ZM466.615 63.523h12.678l-6.864-13.597-5.814 13.597Zm-40.397-33.183v52.857h-8.831v-21.51h-22.472v21.51h-8.787V30.34h8.787v22.56h22.472V30.34h8.831Zm133.65 52.857h-9.837l-11.629-21.554h-10.843v21.554h-8.787V52.813H544.216a6.19 6.19 0 0 0 2.886-.83c.743-.438 1.442-1.094 2.055-2.056.568-.918.874-2.273.874-3.978s-.306-3.017-.874-3.935c-.613-.918-1.312-1.617-2.055-2.011-.831-.525-1.793-.83-2.886-.874H518.772V30.34h25.444c2.711.131 5.159.787 7.301 1.968a20.213 20.213 0 0 1 2.711 1.88 14.536 14.536 0 0 1 2.361 2.754 14.742 14.742 0 0 1 1.617 3.847c.438 1.486.656 3.191.656 5.203 0 3.191-.524 5.814-1.53 7.825-1.049 2.055-2.23 3.673-3.498 4.81-1.311 1.136-2.535 1.923-3.672 2.36-1.137.437-1.836.656-2.098.656l11.804 21.554Z"/></svg>