<svg xmlns="http://www.w3.org/2000/svg" width="170" height="42" fill="none" viewBox="0 0 170 42"><path fill="#000" d="M59.169 7.18c.835 0 1.627.162 2.378.484.75.323 1.415.765 1.994 1.327a6.324 6.324 0 0 1 1.376 1.986c.34.762.51 1.582.51 2.461a5.96 5.96 0 0 1-.484 2.379 6.536 6.536 0 0 1-1.327 1.993 6.334 6.334 0 0 1-1.986 1.378 5.982 5.982 0 0 1-2.461.508c-.835 0-1.63-.161-2.386-.484a6.335 6.335 0 0 1-1.995-1.335 6.489 6.489 0 0 1-1.368-1.994 5.945 5.945 0 0 1-.51-2.445c0-.845.162-1.643.485-2.394a6.33 6.33 0 0 1 1.327-1.978 6.342 6.342 0 0 1 1.985-1.352 6.489 6.489 0 0 1 2.462-.533Zm.008 10.43c.545 0 1.068-.108 1.574-.325A4.26 4.26 0 0 0 63 15.07a3.905 3.905 0 0 0 .341-1.624c0-.556-.108-1.085-.325-1.591a4.267 4.267 0 0 0-.89-1.332 4.381 4.381 0 0 0-1.323-.916 3.912 3.912 0 0 0-1.625-.342c-.556 0-1.085.109-1.59.326a4.31 4.31 0 0 0-1.333.89 4.339 4.339 0 0 0-.915 1.332 3.961 3.961 0 0 0-.342 1.633c0 .567.108 1.096.325 1.59.217.493.512.93.89 1.308s.82.676 1.324.898a4.452 4.452 0 0 0 1.641.368ZM49.79 7.165V9.25h-4.172v10.446h-2.086V9.25h-4.171V7.164H49.79Zm-15.55.017v7.876h-2.086V7.181h2.086Zm-19.93-.017 6.275 12.532h-2.303l-1.419-2.537h-5.09l-1.184 2.537H8.052L14.31 7.164Zm-1.385 7.877h3.004L14.31 11.82l-1.385 3.22Zm16.467 4.655c-.764 0-1.416-.097-1.95-.292-.53-.194-.97-.445-1.315-.75a3.304 3.304 0 0 1-.79-1.019 5.335 5.335 0 0 1-.55-2.002 11.201 11.201 0 0 1-.025-.576V7.181h2.085v7.876c0 .122.014.334.042.634.028.3.12.61.275.927.156.317.41.597.76.843.348.243.838.365 1.468.366v1.87Z"/><path fill="#000" fill-rule="evenodd" d="M13.43 0h59.064c-.71.425-1.385.904-2.017 1.432H13.43c-3.298 0-6.297 1.351-8.473 3.525a11.961 11.961 0 0 0-3.526 8.473 11.96 11.96 0 0 0 3.526 8.472 11.963 11.963 0 0 0 8.473 3.526h57.046a15.776 15.776 0 0 0 2.017 1.432H13.43C6.044 26.86 0 20.817 0 13.43S6.044 0 13.43 0Z" clip-rule="evenodd"/><path fill="#2D8EFF" fill-rule="evenodd" d="M88.071 0h68.499C163.957 0 170 6.043 170 13.43s-6.045 13.43-13.43 13.43H88.071c.172 0 .342-.005.513-.012H83.67c-3.69 0-7.044-1.51-9.476-3.943-2.433-2.431-3.942-5.786-3.942-9.475s1.51-7.044 3.942-9.476C76.626 1.522 79.98.012 83.67.012h4.913c-.17-.007-.34-.011-.512-.012Z" clip-rule="evenodd"/><path fill="#fff" d="M85.711 17.81a6.618 6.618 0 0 1-2.019 1.36 5.887 5.887 0 0 1-4.714 0 6.594 6.594 0 0 1-3.38-3.328 5.765 5.765 0 0 1-.517-2.42c0-.812.164-1.594.492-2.345a6.568 6.568 0 0 1 3.33-3.379 5.763 5.763 0 0 1 2.42-.517c.823 0 1.612.164 2.369.495.757.33 1.43.79 2.02 1.37l-1.386 1.389a7.28 7.28 0 0 0-1.41-.843 3.855 3.855 0 0 0-1.594-.326c-.578 0-1.12.109-1.626.326a4.087 4.087 0 0 0-1.32.89c-.372.378-.667.82-.883 1.324a4.078 4.078 0 0 0-.326 1.624c0 .578.109 1.118.326 1.624.216.503.511.943.884 1.316a4.149 4.149 0 0 0 2.945 1.207c.58 0 1.101-.106 1.57-.317.466-.211.873-.49 1.218-.834l1.601 1.384Zm26.15-10.646 6.274 12.532h-2.303l-1.418-2.537h-5.09l-1.184 2.537h-2.537l6.258-12.532Zm36.096 5.59v5.112a7.297 7.297 0 0 1-1.269.915 7.75 7.75 0 0 1-1.452.632c-.566.19-1.202.283-1.902.283a5.83 5.83 0 0 1-2.362-.492 6.559 6.559 0 0 1-3.379-3.338 5.855 5.855 0 0 1-.517-2.444c0-.225.012-.447.037-.668h2.108a3.735 3.735 0 0 0 .275 2.202c.222.502.522.95.9 1.344.379.396.821.712 1.327.952s1.044.359 1.611.359c.479 0 .938-.062 1.376-.184.44-.123.838-.295 1.194-.517v-2.07h-2.57v-2.086h4.623Zm-4.623-5.573c.99 0 1.866.186 2.628.559a6.351 6.351 0 0 1 1.995 1.526c0 .012-.084.078-.251.201a43.293 43.293 0 0 1-1.368.968 3.7 3.7 0 0 0-1.318-.851 4.544 4.544 0 0 0-1.686-.318V7.181Zm-32.858 7.86h3.003l-1.618-3.221-1.385 3.22Zm-9.562-7.86v12.515h-2.086v-5.09h-5.324v5.09h-2.086V7.181h2.086v5.34h5.324V7.18h2.086Zm31.64 12.515h-2.32l-2.762-5.106h-2.561v5.106h-2.086v-7.192h6.029c.253-.011.481-.078.682-.2.178-.098.337-.26.481-.481.145-.22.217-.537.217-.946 0-.398-.072-.71-.217-.93-.144-.222-.303-.383-.481-.48a1.416 1.416 0 0 0-.682-.2h-6.029V7.18h6.024a4.012 4.012 0 0 1 1.735.467c.212.122.423.272.635.45.211.178.397.395.559.651.161.256.292.56.392.91.1.35.15.76.15 1.226 0 .757-.123 1.377-.367 1.86-.245.485-.52.863-.826 1.136-.306.272-.596.459-.868.559-.273.1-.437.15-.492.15l2.787 5.106Zm28.952-10.43h-8.359V7.181h8.359v2.085Zm-6.274 3.12h5.34v2.087h-7.425v-2.086h2.085Zm0 5.225h6.274v2.085h-8.359v-2.085h2.085Z"/><path fill="#000" d="M12.926 39.83c-.5.502-1.112.752-1.834.752s-1.333-.25-1.834-.751c-.501-.501-.752-1.113-.752-1.835s.25-1.333.752-1.834a2.498 2.498 0 0 1 1.835-.752c.721 0 1.332.25 1.833.752.502.501.752 1.112.752 1.834s-.25 1.334-.752 1.835Zm-3.091-.555c.34.34.758.51 1.257.51.5 0 .918-.17 1.257-.51.34-.34.51-.766.51-1.28 0-.512-.17-.938-.51-1.278-.34-.34-.758-.509-1.257-.509-.499 0-.917.17-1.257.51-.34.339-.51.765-.51 1.278s.17.94.51 1.279Zm7.547-3.773h.82v4.987h-.82v-2.158h-2.137v2.158h-.818v-4.986h.819v2.044h2.136v-2.044Zm1.41 4.987v-.755c.314.043.548-.033.703-.228.154-.194.23-.567.23-1.118v-2.886h3.342v4.987h-.819v-4.203h-1.703v2.088c0 .436-.046.804-.139 1.104-.092.299-.224.523-.395.673-.171.15-.355.25-.552.3a1.95 1.95 0 0 1-.666.038Zm8.521 0-.351-1.004H24.84l-.35 1.004h-.89l1.81-4.986h.983l1.802 4.986h-.883Zm-2.201-1.773h1.58l-.788-2.252-.792 2.252Zm4.53-3.712v-.67h1.995v.67h-1.994Zm2.081 5.485v-3.406l-2.366 3.406h-.626v-4.986h.82v3.384l2.35-3.385h.641v4.987h-.819Zm4.773-4.986h.82v4.986h-.82v-2.158h-2.137v2.158h-.82v-4.986h.82v2.044h2.136v-2.044Zm1.816 3.191v-.74h2.637v.74h-2.637Zm6.448-3.192v.784h-1.995v4.203h-.82v-4.986h2.815Zm3.597 4.987v-3.406l-2.366 3.406h-.626v-4.986h.82v3.384l2.35-3.385h.641v4.987h-.819Zm5.486-4.986v4.986h-.82v-4.203h-2.03v4.203h-.82v-4.986h3.67Zm1.816 4.203h2.209v.783H54.84v-4.986h2.992v.783H55.66v1.297h1.995v.776h-1.995v1.347Zm4.794-4.204c.47 0 .864.158 1.18.471.315.313.473.702.473 1.168 0 .46-.158.85-.474 1.165a1.602 1.602 0 0 1-1.179.474h-1.018v1.71h-.82v-4.988h1.838Zm0 2.509a.796.796 0 0 0 .6-.246.867.867 0 0 0 .234-.624.867.867 0 0 0-.235-.623.796.796 0 0 0-.599-.246h-1.018v1.739h1.018Zm7.139-2.509v4.987h-.819v-3.554l-1.518 2.507h-.1l-1.517-2.515v3.562h-.819v-4.986h.883l1.504 2.493 1.508-2.494h.878Zm4.246 4.987-.352-1.004h-2.12l-.35 1.004h-.89l1.81-4.986h.982l1.803 4.986h-.883Zm-2.202-1.773h1.58l-.788-2.252-.792 2.252Zm5.457-3.214c.47 0 .864.158 1.179.471.316.313.474.702.474 1.168 0 .46-.158.85-.474 1.165a1.6 1.6 0 0 1-1.179.474h-1.019v1.71h-.819v-4.988h1.838Zm0 2.509a.794.794 0 0 0 .599-.246.865.865 0 0 0 .235-.624.865.865 0 0 0-.235-.623.794.794 0 0 0-.599-.246h-1.019v1.739h1.02Zm6.127 2.478h-.976l-1.966-2.375v2.375h-.82v-4.986h.82v2.238l1.895-2.239h.976l-2.016 2.43 2.087 2.557Zm1.353-.783h2.209v.783h-3.028v-4.986h2.992v.783h-2.173v1.297h1.995v.776h-1.995v1.347Zm6.198-4.204v.784h-1.403v4.203h-.82v-4.203h-1.41v-.784h3.633Zm4.923 2.401c.508.243.762.644.762 1.205 0 .436-.165.791-.495 1.065-.33.273-.761.41-1.293.41-.912 0-1.515-.386-1.81-1.155l.705-.406c.148.527.516.79 1.105.79.313 0 .553-.067.72-.203a.667.667 0 0 0 .249-.544.672.672 0 0 0-.239-.538c-.16-.135-.384-.203-.673-.203h-.606v-.741h.442c.28 0 .499-.064.656-.192a.632.632 0 0 0 .235-.513.647.647 0 0 0-.214-.51c-.143-.125-.347-.188-.613-.188-.494 0-.826.225-.997.676l-.698-.406c.322-.693.887-1.04 1.695-1.04.49 0 .886.132 1.19.395.304.264.456.607.456 1.03 0 .47-.193.826-.577 1.068Zm4.723 2.586-.352-1.004h-2.12l-.35 1.004h-.89l1.81-4.986h.982l1.803 4.986h-.883Zm-2.201-1.773h1.58l-.789-2.252-.791 2.252Zm5.456-3.214c.471 0 .864.158 1.179.471.316.313.474.702.474 1.168 0 .46-.158.85-.474 1.165a1.6 1.6 0 0 1-1.179.474h-1.018v1.71h-.82v-4.988h1.838Zm0 2.509a.794.794 0 0 0 .599-.246.87.87 0 0 0 .235-.624.869.869 0 0 0-.235-.623.794.794 0 0 0-.599-.246h-1.018v1.739h1.018Zm5.621-2.509v4.987h-.819v-1.816h-.792l-1.202 1.816h-.927l1.268-1.887a1.568 1.568 0 0 1-.808-.567 1.5 1.5 0 0 1-.317-.93c0-.446.156-.824.466-1.136.311-.31.69-.467 1.137-.467h1.994Zm-1.994 2.437h1.175v-1.667h-1.175a.734.734 0 0 0-.556.242.83.83 0 0 0-.228.592c0 .233.076.43.228.59a.733.733 0 0 0 .556.243Zm6.732 1.767h.534v1.738h-.819v-.955h-3.028v.955h-.819v-1.738h.463c.289-.38.435-.952.435-1.717v-2.486h3.234v4.203Zm-2.772 0h1.953v-3.434h-1.596v1.731c0 .742-.119 1.309-.357 1.703Zm6.975-4.204h.819v4.987h-.819v-2.158h-2.137v2.158h-.819v-4.986h.819v2.044h2.137v-2.044Zm1.817 4.987v-4.986h.819v1.71h1.019c.47 0 .863.157 1.178.473.316.316.474.705.474 1.165 0 .46-.158.85-.474 1.165-.315.316-.708.473-1.178.473h-1.838Zm3.974 0v-4.986h.82v4.986h-.82Zm-3.155-.769h1.019a.793.793 0 0 0 .598-.245.864.864 0 0 0 .235-.624.864.864 0 0 0-.235-.623.793.793 0 0 0-.598-.246h-1.019v1.738Zm8.641.77h-.933l-1.096-1.802-1.098 1.801h-.933l1.565-2.567-1.473-2.42h.926l1.012 1.66 1.011-1.66h.934l-1.479 2.424 1.564 2.563Zm4.745.092c-.751 0-1.373-.248-1.867-.745-.494-.495-.741-1.11-.741-1.841 0-.731.247-1.345.741-1.841.494-.497 1.116-.745 1.867-.745.451 0 .868.107 1.25.32.382.214.68.504.894.87l-.713.413a1.473 1.473 0 0 0-.58-.588 1.693 1.693 0 0 0-.851-.217c-.532 0-.963.17-1.294.506-.33.337-.495.764-.495 1.282s.165.945.495 1.283c.331.337.762.505 1.294.505.313 0 .597-.072.854-.217.257-.145.449-.34.577-.588l.713.406a2.302 2.302 0 0 1-.887.873 2.512 2.512 0 0 1-1.257.324Zm6.026-5.08v.784h-1.403v4.203h-.819v-4.203h-1.411v-.784h3.633Zm3.498 4.987-.352-1.004h-2.12l-.349 1.004h-.89l1.809-4.986h.983l1.802 4.986h-.883Zm-2.201-1.773h1.58l-.788-2.252-.792 2.252Zm6.576-3.214h.819v4.987h-.819v-2.158h-2.138v2.158h-.819v-4.986h.819v2.044h2.138v-2.044Zm5.484 4.204h.534v1.738h-.818v-.955h-3.384v-4.986h.819v4.203h2.03v-4.204h.819v4.204Zm4.239.783v-3.406l-2.366 3.406h-.626v-4.986h.819v3.384l2.353-3.385h.64v4.987h-.82Zm2.729-5.485v-.67h1.994v.67h-1.994Zm2.08 5.485v-3.406l-2.366 3.406h-.626v-4.986h.819v3.384l2.351-3.385h.641v4.987h-.819"/></svg>