<svg xmlns="http://www.w3.org/2000/svg" width="257" height="63" fill="none" viewBox="0 0 257 63"><path fill="#fff" fill-rule="evenodd" d="M20.304 0h89.29a23.812 23.812 0 0 0-3.05 2.166h-86.24c-4.985 0-9.52 2.042-12.808 5.33-3.29 3.288-5.33 7.822-5.33 12.808 0 4.985 2.04 9.52 5.33 12.807 3.288 3.289 7.823 5.33 12.808 5.33h86.241a23.762 23.762 0 0 0 3.049 2.166h-89.29C9.138 40.607 0 31.471 0 20.304 0 9.136 9.137 0 20.304 0Z" clip-rule="evenodd"/><path fill="#2D8EFF" fill-rule="evenodd" d="M133.143 0h103.552C247.864 0 257 9.138 257 20.304c0 11.168-9.138 20.304-20.305 20.304H133.143c.26-.001.517-.008.774-.018h-7.428c-5.577 0-10.648-2.283-14.325-5.96-3.677-3.676-5.96-8.749-5.96-14.325 0-5.577 2.282-10.648 5.96-14.325 3.676-3.677 8.748-5.96 14.325-5.96h7.428c-.256-.01-.514-.017-.774-.018Z" clip-rule="evenodd"/><path fill="#fff" d="M129.575 26.926a10.008 10.008 0 0 1-3.053 2.056 8.9 8.9 0 0 1-3.582.744 8.762 8.762 0 0 1-3.545-.744 9.981 9.981 0 0 1-3.014-2.03 9.962 9.962 0 0 1-2.094-3.003 8.706 8.706 0 0 1-.783-3.657c0-1.228.249-2.41.745-3.546a9.99 9.99 0 0 1 2.031-3.014 9.923 9.923 0 0 1 3.002-2.094 8.717 8.717 0 0 1 3.658-.782c1.245 0 2.438.248 3.582.749 1.144.5 2.161 1.194 3.053 2.072l-2.094 2.098c-.689-.521-1.4-.946-2.132-1.274a5.825 5.825 0 0 0-2.409-.492 6.18 6.18 0 0 0-2.459.492 6.159 6.159 0 0 0-1.993 1.346 6.484 6.484 0 0 0-1.338 2.002 6.173 6.173 0 0 0-.492 2.455c0 .874.165 1.69.492 2.455.329.76.774 1.426 1.338 1.989a6.253 6.253 0 0 0 1.993 1.333 6.18 6.18 0 0 0 2.459.491c.875 0 1.665-.159 2.372-.479a6.176 6.176 0 0 0 1.841-1.26l2.422 2.093Zm39.532-16.095 9.486 18.946h-3.482l-2.144-3.836h-7.695l-1.79 3.836h-3.836l9.461-18.946Zm54.567 8.451v7.728c-.571.517-1.21.98-1.916 1.384-.606.353-1.337.669-2.195.954-.858.287-1.817.429-2.877.429a8.808 8.808 0 0 1-3.569-.745 9.884 9.884 0 0 1-5.109-5.046 8.876 8.876 0 0 1-.781-3.694c0-.34.018-.677.056-1.01h3.186a5.604 5.604 0 0 0 .415 3.33 7.074 7.074 0 0 0 1.363 2.031 6.703 6.703 0 0 0 2.005 1.438 5.627 5.627 0 0 0 2.434.543 7.71 7.71 0 0 0 2.082-.278 6.88 6.88 0 0 0 1.804-.782v-3.129h-3.886v-3.153h6.988Zm-6.988-8.426c1.498 0 2.822.281 3.974.845a9.565 9.565 0 0 1 3.014 2.308c0 .018-.125.118-.378.303-.252.185-.531.387-.832.606-.353.252-.766.538-1.235.857-.523-.538-1.188-.967-1.994-1.286a6.861 6.861 0 0 0-2.549-.48v-3.153ZM167.014 22.74h4.54l-2.447-4.87-2.093 4.87Zm-14.456-11.883v18.92h-3.154v-7.694h-8.048v7.695h-3.153v-18.92h3.153v8.072h8.048v-8.073h3.154Zm47.832 18.92h-3.508l-4.174-7.719h-3.873v7.72h-3.154V18.903h9.116a2.112 2.112 0 0 0 1.03-.302c.27-.147.509-.391.728-.727.219-.333.327-.812.327-1.43 0-.602-.108-1.073-.327-1.404-.219-.337-.458-.58-.728-.727a2.13 2.13 0 0 0-1.03-.304h-9.116v-3.153h9.108c.975.05 1.85.286 2.623.707.32.184.64.411.96.68.319.27.601.597.844.985.244.386.442.844.594 1.374.151.53.227 1.149.227 1.855 0 1.143-.186 2.081-.556 2.813-.37.73-.786 1.303-1.249 1.715-.462.412-.899.694-1.312.845-.411.152-.66.227-.744.227l4.214 7.72Zm43.769-15.767h-12.638v-3.153h12.638v3.153Zm-9.485 4.718h8.073v3.153h-11.226v-3.153h3.153Zm0 7.897h9.485v3.153h-12.638v-3.153h3.153ZM89.45 10.856a9.02 9.02 0 0 1 3.594.732 9.904 9.904 0 0 1 3.015 2.005 9.578 9.578 0 0 1 2.081 3.002 9.048 9.048 0 0 1 .77 3.721c0 1.262-.244 2.46-.731 3.596a9.903 9.903 0 0 1-2.007 3.014 9.58 9.58 0 0 1-3.001 2.082 9.05 9.05 0 0 1-3.722.769 9.112 9.112 0 0 1-3.607-.732 9.585 9.585 0 0 1-3.014-2.018 9.812 9.812 0 0 1-2.07-3.015 8.986 8.986 0 0 1-.77-3.696c0-1.278.244-2.485.732-3.62a9.57 9.57 0 0 1 2.007-2.989 9.583 9.583 0 0 1 3.001-2.044 9.802 9.802 0 0 1 3.721-.807Zm.012 15.768c.824 0 1.615-.165 2.38-.493a6.437 6.437 0 0 0 2.014-1.345 6.616 6.616 0 0 0 1.383-2.002 5.9 5.9 0 0 0 .518-2.455c0-.84-.164-1.64-.493-2.405a6.464 6.464 0 0 0-3.346-3.398 5.915 5.915 0 0 0-2.456-.517 6.04 6.04 0 0 0-2.405.492 6.499 6.499 0 0 0-2.014 1.346 6.58 6.58 0 0 0-1.384 2.014 5.988 5.988 0 0 0-.516 2.468c0 .858.163 1.657.492 2.405a6.434 6.434 0 0 0 1.345 1.976 6.536 6.536 0 0 0 2.001 1.358c.766.336 1.59.522 2.48.556ZM75.27 10.831v3.153h-6.307v15.793h-3.153V13.984h-6.307v-3.153H75.27Zm-23.508.025v11.908h-3.154V10.856h3.154Zm-30.13-.025 9.487 18.946h-3.482l-2.144-3.836H17.8l-1.79 3.836h-3.835l9.46-18.946ZM19.54 22.74h4.541l-2.447-4.87-2.094 4.87Zm24.894 7.038c-1.156 0-2.14-.148-2.947-.442-.803-.294-1.467-.672-1.989-1.135a4.995 4.995 0 0 1-1.194-1.54 8.122 8.122 0 0 1-.833-3.027 16.842 16.842 0 0 1-.037-.87V10.857h3.153v11.908c0 .184.021.504.063.958.042.454.18.921.416 1.4.236.48.619.904 1.148 1.275.527.368 1.267.553 2.22.554v2.826ZM19.543 60.31c-.758.757-1.683 1.136-2.773 1.136-1.092 0-2.016-.38-2.774-1.137s-1.136-1.682-1.136-2.773c0-1.091.379-2.016 1.136-2.773.758-.758 1.682-1.137 2.774-1.137 1.09 0 2.015.38 2.773 1.137.757.758 1.136 1.682 1.136 2.773 0 1.091-.38 2.016-1.136 2.773Zm-4.675-.84c.514.513 1.148.77 1.902.77.753 0 1.387-.257 1.9-.77.513-.514.77-1.158.77-1.934s-.257-1.42-.77-1.933c-.513-.514-1.147-.77-1.9-.77-.754 0-1.388.256-1.902.77-.513.513-.77 1.157-.77 1.932 0 .777.257 1.42.77 1.934Zm11.41-5.704h1.239v7.539h-1.238v-3.263h-3.231v3.263H21.81v-7.539h1.238v3.091h3.23v-3.09Zm2.133 7.539v-1.141c.474.064.828-.05 1.061-.345.233-.294.35-.858.35-1.691v-4.362h5.051v7.539h-1.239V54.95h-2.573v3.156c0 .66-.071 1.216-.211 1.67-.14.451-.339.79-.598 1.017a2.02 2.02 0 0 1-.834.453 2.946 2.946 0 0 1-1.007.058Zm12.88 0-.531-1.518h-3.206l-.528 1.518H35.68l2.736-7.539h1.485l2.725 7.539h-1.335Zm-3.327-2.681h2.388l-1.191-3.404-1.197 3.404Zm6.849-5.612v-1.011h3.016v1.011h-3.016Zm3.145 8.293v-5.15l-3.577 5.15h-.946v-7.539h1.238v5.117l3.554-5.117h.97v7.539h-1.239Zm7.216-7.539h1.238v7.539h-1.238v-3.263h-3.231v3.263h-1.238v-7.539h1.238v3.091h3.23v-3.09Zm2.746 4.825v-1.12h3.985v1.12H57.92Zm9.746-4.825v1.185H64.65v6.354h-1.238v-7.539h4.254Zm5.439 7.539v-5.15l-3.577 5.15h-.946v-7.539h1.238v5.117l3.554-5.117h.97v7.539h-1.24Zm8.292-7.539v7.539H80.16V54.95h-3.07v6.354h-1.238v-7.539h5.546Zm2.747 6.355h3.338v1.184h-4.576v-7.539h4.523v1.185h-3.285v1.96h3.016v1.174h-3.016v2.036Zm7.248-6.355c.71 0 1.304.238 1.782.712.477.473.716 1.061.716 1.765 0 .697-.239 1.284-.716 1.762-.478.476-1.072.715-1.782.715h-1.54v2.585h-1.238v-7.539h2.778Zm0 3.792c.365 0 .667-.124.905-.371.236-.248.355-.563.355-.944 0-.38-.119-.694-.355-.942a1.202 1.202 0 0 0-.905-.371h-1.54v2.628h1.54Zm10.791-3.792v7.539h-1.238V55.93l-2.295 3.791h-.15l-2.294-3.802v5.385h-1.238v-7.539h1.335l2.275 3.77 2.279-3.77h1.326Zm6.419 7.539-.532-1.518h-3.205l-.528 1.518h-1.346l2.735-7.539h1.486l2.725 7.539h-1.335Zm-3.329-2.681h2.389l-1.192-3.404-1.197 3.404Zm8.25-4.858c.711 0 1.305.238 1.783.712.477.473.716 1.061.716 1.765 0 .697-.239 1.284-.716 1.762-.478.476-1.072.715-1.783.715h-1.54v2.585h-1.238v-7.539h2.778Zm0 3.792c.366 0 .668-.124.905-.371.237-.248.356-.563.356-.944 0-.38-.119-.694-.356-.942a1.201 1.201 0 0 0-.905-.371h-1.54v2.628h1.54Zm9.263 3.747h-1.476l-2.972-3.591v3.59H117.1v-7.538h1.238v3.384l2.865-3.384h1.475l-3.048 3.673 3.156 3.866Zm2.046-1.184h3.338v1.184h-4.576v-7.539h4.522v1.185h-3.284v1.96h3.015v1.174h-3.015v2.036Zm9.37-6.355v1.185h-2.122v6.354h-1.239V54.95h-2.132v-1.185h5.493Zm7.441 3.63c.768.366 1.152.973 1.152 1.82 0 .66-.249 1.197-.748 1.61-.499.413-1.151.62-1.954.62-1.38 0-2.292-.583-2.736-1.745l1.066-.614c.222.796.779 1.195 1.67 1.195.473 0 .836-.102 1.087-.307.251-.204.377-.48.377-.824 0-.337-.121-.609-.361-.813-.241-.204-.579-.307-1.018-.307h-.915v-1.12h.668c.423 0 .753-.097.991-.29a.955.955 0 0 0 .355-.776c0-.323-.107-.58-.324-.77-.215-.19-.523-.285-.925-.285-.747 0-1.25.341-1.508 1.023l-1.055-.614c.487-1.048 1.341-1.573 2.563-1.573.739 0 1.339.2 1.798.598.46.399.689.918.689 1.556 0 .711-.291 1.25-.872 1.616Zm7.14 3.909-.532-1.518h-3.205l-.528 1.518h-1.345l2.735-7.539h1.486l2.724 7.539h-1.335Zm-3.328-2.681h2.389l-1.192-3.404-1.197 3.404Zm8.25-4.858c.711 0 1.305.238 1.782.712.478.473.717 1.061.717 1.765 0 .697-.239 1.284-.717 1.762-.477.476-1.071.715-1.782.715h-1.54v2.585h-1.238v-7.539h2.778Zm0 3.792c.366 0 .668-.124.904-.371.238-.248.356-.563.356-.944 0-.38-.118-.694-.356-.942a1.197 1.197 0 0 0-.904-.371h-1.54v2.628h1.54Zm8.497-3.792v7.539h-1.238v-2.746h-1.197l-1.819 2.746h-1.4l1.917-2.854a2.374 2.374 0 0 1-1.222-.856 2.267 2.267 0 0 1-.479-1.405c0-.675.235-1.247.705-1.718a2.34 2.34 0 0 1 1.718-.706h3.015Zm-3.015 3.684h1.777v-2.52h-1.777c-.33 0-.611.121-.84.366-.23.243-.345.542-.345.894s.115.65.345.894c.229.244.51.366.84.366Zm10.177 2.67h.808v2.628h-1.239v-1.443h-4.577v1.443h-1.238v-2.627h.7c.437-.575.657-1.44.657-2.596v-3.759h4.889v6.355Zm-4.19 0h2.952v-5.19h-2.412v2.617c0 1.12-.18 1.978-.54 2.574Zm10.545-6.354h1.239v7.539h-1.239v-3.263h-3.231v3.263h-1.239v-7.539h1.239v3.091h3.231v-3.09Zm2.746 7.539v-7.539h1.238v2.585h1.54c.711 0 1.305.239 1.782.716.478.478.716 1.065.716 1.762 0 .696-.238 1.283-.716 1.76-.477.478-1.071.716-1.782.716h-2.778Zm6.009 0v-7.539h1.239v7.539h-1.239Zm-4.771-1.163h1.54c.366 0 .668-.123.905-.371s.355-.562.355-.942c0-.381-.118-.695-.355-.943a1.198 1.198 0 0 0-.905-.371h-1.54v2.627Zm13.064 1.163h-1.412l-1.656-2.722-1.66 2.722h-1.411l2.367-3.881-2.227-3.658h1.4l1.529 2.508 1.53-2.508h1.41l-2.234 3.664 2.364 3.875Zm7.172.14c-1.134 0-2.075-.375-2.821-1.125-.747-.75-1.12-1.678-1.12-2.785 0-1.105.373-2.032 1.12-2.783.746-.75 1.687-1.126 2.821-1.126.682 0 1.312.162 1.89.485a3.524 3.524 0 0 1 1.352 1.314l-1.077.625a2.229 2.229 0 0 0-.878-.889 2.554 2.554 0 0 0-1.287-.328c-.804 0-1.456.255-1.955.765-.499.509-.748 1.155-.748 1.938 0 .782.249 1.428.748 1.94.499.508 1.151.763 1.955.763.474 0 .904-.109 1.293-.328a2.14 2.14 0 0 0 .872-.889l1.077.613a3.48 3.48 0 0 1-1.342 1.32c-.576.327-1.21.49-1.9.49Zm9.111-7.679v1.185h-2.121v6.354h-1.239V54.95h-2.132v-1.185h5.492Zm5.288 7.539-.531-1.518h-3.206l-.527 1.518h-1.347l2.736-7.539h1.486l2.724 7.539h-1.335Zm-3.328-2.681h2.389l-1.191-3.404-1.198 3.404Zm9.94-4.858h1.24v7.539h-1.24v-3.263h-3.23v3.263h-1.238v-7.539h1.238v3.091h3.23v-3.09Zm8.293 6.355h.808v2.627h-1.238v-1.443h-5.115v-7.539h1.238v6.355h3.069v-6.355h1.238v6.355Zm6.41 1.184v-5.15l-3.578 5.15h-.946v-7.539h1.238v5.117l3.553-5.117h.971v7.539h-1.238Zm4.124-8.293v-1.011h3.014v1.011h-3.014Zm3.144 8.293v-5.15l-3.576 5.15h-.946v-7.539h1.238v5.117l3.554-5.117h.968v7.539h-1.238Z"/></svg>