<svg xmlns="http://www.w3.org/2000/svg" width="263" height="263" fill="none" viewBox="0 0 263 263"><g clip-path="url(#clip0_12672_1576)"><path fill="#161616" d="M152.378 189.215h5.543v1.211h-5.543v-1.211Zm-67.214 3.276h.999c-.328 2.408-1.908 3.829-4.351 3.829-3.204 0-5.066-2.109-5.066-5.699s1.892-5.864 4.827-5.864c2.936 0 4.5 1.914 4.56 5.52h-7.405c.03 3.635 1.013 5.281 3.278 5.281 1.758 0 2.86-1.078 3.158-3.067Zm-6.377-3.052h5.364c-.134-2.738-.998-4.069-2.578-4.069-1.579 0-2.533 1.376-2.786 4.069Zm123.149 6.029h-2.906l6.75-10.427h-8.538l-.566 3.037h.492c.894-2.095 1.296-2.424 2.905-2.424h3.055l-6.735 10.412h8.538l.64-3.366h-.521c-.73 2.139-1.431 2.768-3.114 2.768Zm-128.409-1.466-.268-11.474v-.15c0-1.047.373-1.287 2.056-1.376v-.584c-.938.075-1.34.09-1.966.09-.79 0-1.595-.045-2.384-.12l-4.694 11.819-4.604-11.819c-.79.09-1.58.12-2.37.12-.7 0-1.072-.03-2.04-.09v.584c1.713.089 2.056.329 2.056 1.406v.135l-.522 11.489c-.044 1.256-.283 1.451-2.041 1.57v.554c1.296-.09 1.788-.12 2.488-.12s1.177.03 2.459.12v-.554c-1.744-.119-2.056-.329-2.056-1.361v-.209l.491-12.133 4.083 10.337.298.823.715 1.825.268.748h.373l.268-.778.328-.882.357-.868.298-.778 4.083-10.412.224 12.088v.119c0 1.092-.373 1.362-2.057 1.451v.554c1.028-.12 2.071-.18 3.1-.194 1.043.014 2.07.074 3.099.194v-.554c-1.788-.119-2.012-.314-2.042-1.57Zm120.139.404v-5.61a5.055 5.055 0 0 0-.357-2.095c-.492-1.152-1.833-1.87-3.278-1.87-1.446 0-2.459.569-3.353 1.826a11.697 11.697 0 0 0-.253-2.035 16.6 16.6 0 0 1-3.293.703v.389c.119 0 .238.03.313.03 1.222 0 1.371.135 1.4 1.092v7.585c0 1.002-.238 1.196-1.758 1.256v.464a26.76 26.76 0 0 1 5.364 0v-.464c-1.296-.045-1.609-.284-1.609-1.212v-5.654c0-1.93.894-2.917 2.578-2.917 1.594 0 2.235.807 2.235 2.857v5.729c0 .928-.328 1.167-1.654 1.212v.464a27.134 27.134 0 0 1 5.423 0v-.464c-1.505-.09-1.758-.299-1.758-1.286Zm-99.636-9.649c-1.296 0-2.354.778-2.906 2.109v-.254c-.044-.703-.104-1.077-.223-1.945-1.073.284-2.16.479-3.278.538v.419h.313c1.296.03 1.415.135 1.43 1.152v7.645c0 1.002-.268 1.196-1.788 1.256v.464c1.848-.18 3.695-.18 5.543 0v-.464c-1.505-.075-1.758-.269-1.758-1.256v-4.877c0-2.319.82-3.785 2.1-3.785.448 0 .746.224.746.553v.21l-.06.239a.605.605 0 0 0-.045.225c0 .463.388.792 1.014.792.625 0 1.057-.448 1.057-1.121 0-1.122-.864-1.9-2.145-1.9Zm-6.213-44.745c-4.321-7.375-6.482-15.827-6.482-24.504 0-8.452 2.16-17.129 6.482-24.504 4.32-7.375 10.579-13.658 17.924-17.997 7.346-4.338 15.764-6.507 24.406-6.507 8.434 0 17.076 2.17 24.422 6.507 7.345 4.339 13.603 10.622 17.924 17.997s6.482 16.052 6.482 24.504c0 8.452-2.161 17.129-6.482 24.504s-10.579 13.658-17.924 17.997c-7.346 4.338-15.765 6.507-24.407 6.507-8.418 0-17.06-2.169-24.406-6.507-7.36-4.324-13.618-10.622-17.94-17.997Zm43.627-68.53 5.617 40.122 31.752 24.937c3.457-6.507 5.185-13.658 5.394-20.824 0-7.808-1.937-15.393-5.826-22.125-3.889-6.702-9.491-12.342-16.196-16.246-6.482-3.695-13.396-5.64-20.741-5.864Zm-1.505 52.269-37.37 15.184c3.666 6.074 9.075 11.28 15.333 14.96 6.69 3.904 14.259 5.849 22.037 5.849 7.778 0 15.332-1.945 22.037-5.849 6.481-3.68 11.667-8.886 15.332-14.96l-37.369-15.184Zm-44.074-8.243c0 7.375 1.937 14.526 5.393 20.824l31.752-24.938 5.618-40.122c-7.346.21-14.468 2.17-20.741 5.85a44.98 44.98 0 0 0-16.197 16.26c-3.873 6.732-5.825 14.317-5.825 22.126Zm84.185 74.395c.268.538.402 1.122.387 1.72 0 .718-.194 1.421-.551 2.05a4.59 4.59 0 0 1-1.505 1.57c-1.043.614-2.041.823-3.874.823h-6.273v-.553c1.833-.135 2.041-.3 2.041-1.571v-11.34c0-1.256-.253-1.451-2.041-1.54v-.584h6.526c1.609 0 2.578.254 3.427.838a3.78 3.78 0 0 1 1.118 1.316c.253.509.387 1.077.372 1.646v.015c0 1.63-.939 2.827-2.727 3.456a4.557 4.557 0 0 1 1.967.748c.462.389.864.867 1.133 1.406Zm-7.719-2.334h1.684c1.386 0 2.056-.165 2.608-.763.551-.613.819-1.376.819-2.453 0-2.169-.924-3.127-3.01-3.127h-2.101v6.343Zm5.886 4.129c0-1.122-.298-2.124-.879-2.663-.566-.538-1.311-.748-2.637-.748h-2.384v5.849c0 1.033.223 1.212 1.534 1.212h.894c2.22 0 3.472-1.316 3.472-3.65Zm-66.037 3.874c-1.907 0-2.876-1.675-2.876-4.951 0-3.336 1.088-5.236 2.951-5.236 1.519 0 2.428.987 2.875 3.007h.537v-3.86l-.417.03-.671 1.197a3.351 3.351 0 0 0-1.147-.763 3.328 3.328 0 0 0-1.386-.224c-2.92 0-4.902 2.378-4.902 5.864 0 3.411 1.967 5.699 4.842 5.699 2.235 0 3.651-1.361 3.964-3.859h-1.013c-.298 2.064-1.222 3.096-2.757 3.096Zm46.175-5.55-1.058-.418c-2.25-.943-2.637-1.242-2.637-2.17 0-1.092 1.013-1.944 2.339-1.944 1.55 0 2.384.882 2.608 2.752h.566v-3.635h-.447l-.417.957a4.314 4.314 0 0 0-2.533-.748c-2.19 0-3.725 1.257-3.725 3.112 0 1.361.566 2.005 2.384 2.798l1.147.493.939.389c1.222.524 1.684 1.047 1.684 1.84 0 1.197-1.088 2.11-2.563 2.11-1.744 0-2.772-1.033-3.234-3.157l-.536.03v3.904h.447l.596-1.062a4.614 4.614 0 0 0 2.98.988c2.339 0 3.993-1.407 3.993-3.366.015-1.347-.655-2.095-2.533-2.873Zm-8.567 2.484h.998c-.328 2.408-1.907 3.829-4.336 3.829-3.203 0-5.066-2.109-5.066-5.699 0-3.591 1.892-5.864 4.843-5.864 2.95 0 4.499 1.914 4.559 5.52h-7.39c.029 3.635 1.013 5.28 3.278 5.28h-.015c1.728-.014 2.831-1.092 3.129-3.066Zm-6.377-3.067h5.364c-.149-2.738-.999-4.069-2.578-4.069-1.58 0-2.533 1.376-2.786 4.069Zm47.456 3.067h.983c-.327 2.408-1.907 3.829-4.35 3.829-3.204 0-5.066-2.109-5.066-5.699 0-3.591 1.907-5.864 4.842-5.864 2.935 0 4.5 1.914 4.56 5.52h-7.391c.03 3.635 1.013 5.28 3.278 5.28 1.743-.014 2.846-1.092 3.144-3.066Zm-6.377-3.067h5.364c-.149-2.738-.984-4.069-2.578-4.069-1.609 0-2.548 1.376-2.786 4.069Zm-44.045 5.864v.389l-.372.045c-.983.075-1.967.269-2.906.554a8.19 8.19 0 0 1-.357-1.87c-.7 1.316-1.684 1.914-3.084 1.914-2.712 0-4.59-2.363-4.59-5.729s1.863-5.73 4.515-5.73c1.341 0 2.056.419 2.98 1.825v-4.084c0-1.211-.194-1.376-1.758-1.376v-.374a24.706 24.706 0 0 0 3.755-.643v13.493c0 1.422.149 1.541 1.817 1.586Zm-3.769-4.548c0-3.44-.999-5.206-2.787-5.206-1.788 0-2.652 1.706-2.652 5.042s.939 5.101 2.727 5.101c1.788 0 2.712-1.69 2.712-4.937Zm-10.564 1.751h.998c-.328 2.408-1.907 3.829-4.351 3.829-3.203 0-5.066-2.109-5.066-5.699 0-3.591 1.892-5.864 4.843-5.864 2.95 0 4.499 1.914 4.559 5.52h-7.39c.029 3.635 1.013 5.28 3.278 5.28h-.015c1.743-.014 2.846-1.092 3.144-3.066Zm-6.378-3.067h5.364c-.149-2.738-.998-4.069-2.577-4.069-1.58 0-2.533 1.376-2.787 4.069Z"/></g><defs><clipPath id="clip0_12672_1576"><path fill="#fff" d="M0 0h262.5v262.5H0z"/></clipPath></defs></svg>