<svg xmlns="http://www.w3.org/2000/svg" width="263" height="263" fill="none" viewBox="0 0 263 263"><g clip-path="url(#clip0_12672_1585)"><g clip-path="url(#clip1_12672_1585)"><mask id="mask0_12672_1585" width="177" height="91" x="41" y="86" maskUnits="userSpaceOnUse" style="mask-type:luminance"><path fill="#fff" d="M217.25 86.75h-176v90h176v-90Z"/></mask><g fill="#161616" mask="url(#mask0_12672_1585)"><path d="M89.134 131.476c.048 8.096-1.106 16.045-4.183 23.62-1.49 3.697-3.413 7.201-6.058 10.231-1.538 1.799-3.317 3.409-5.384 4.592-4.76 2.699-9.568 2.699-14.327-.047-2.548-1.468-4.568-3.456-6.298-5.729-3.322-4.313-5.433-9.184-6.923-14.345-1.971-6.912-2.697-13.919-2.404-21.115.336-6.723 1.437-13.304 3.798-19.6 1.586-4.166 3.606-8.096 6.586-11.505 1.731-1.988 3.697-3.74 6.101-4.923 4.188-2.084 8.419-2.13 12.601 0 2.933 1.467 5.193 3.598 7.159 6.154 3.178 4.119 5.245 8.759 6.735 13.683 1.539 5.065 2.356 10.226 2.597 15.528.048 1.089 0 2.273 0 3.456Zm-43.851-.284c0 5.729.577 10.889 1.88 16.002 1.298 5.113 3.173 9.942 6.25 14.293 1.778 2.514 3.894 4.692 6.586 6.254 4.327 2.415 8.654 2.415 12.885-.094 1.202-.71 2.35-1.61 3.365-2.557 3.27-3.077 5.433-6.817 7.067-10.889 2.356-5.776 3.558-11.788 3.99-17.99.481-7.055-.144-13.967-1.922-20.784-1.298-4.971-3.27-9.658-6.303-13.777-1.683-2.273-3.606-4.261-6.053-5.681-4.375-2.557-8.798-2.557-13.173-.048-1.539.9-2.885 2.036-4.087 3.314-2.788 2.931-4.764 6.392-6.298 10.085-2.98 7.196-4.134 14.671-4.187 21.872ZM141.428 121.899H163.976c2.019 0 3.798.568 5.24 1.988 3.51 3.409 2.5 9.137-1.923 11.221-.336.142-.673.284-1.154.52a386.962 386.962 0 0 0 4.52 5.918c-.337.048-.577.142-.818.142-1.106 0-2.211-.047-3.365 0-.625.048-1.01-.189-1.346-.663-1.106-1.515-2.308-3.03-3.462-4.545-.384-.52-.769-.71-1.442-.71-3.51.048-6.971 0-10.481 0h-1.346v-4.024c.385 0 .817-.047 1.202-.047h14.423c1.635 0 2.788-.852 3.125-2.32.385-1.61-.865-3.267-2.548-3.409H146.62c-.385 0-.769.048-1.202.048v15.576h-3.99v-19.695ZM116.476 121.899c2.211 0 4.471-.048 6.683 0 5.096.142 9.326 4.403 9.519 9.421.192 5.35-4.039 10.274-10.096 10.274-4.135.047-8.318.047-12.452 0-5.433-.048-9.808-4.309-9.952-9.659-.096-4.971 3.317-8.805 7.644-9.8.913-.236 1.875-.236 2.837-.284 1.971 0 3.894.048 5.817.048Zm0 4.024h-6.106c-.529 0-1.106 0-1.586.142a5.846 5.846 0 0 0-4.472 6.202c.337 3.03 2.837 5.255 5.914 5.302h12.308c3.413 0 6.009-2.556 6.009-5.87 0-3.362-2.981-5.918-5.961-5.776-2.02.095-4.039 0-6.106 0ZM214.503 141.641c-1.586 0-3.029.047-4.471-.047-.24 0-.577-.332-.721-.616-.817-1.42-1.587-2.84-2.404-4.261a21.54 21.54 0 0 1-.577-1.041h-18.173c.769-1.421 1.491-2.699 2.212-4.024h13.798c-.914-1.563-1.683-3.03-2.596-4.309-.673-.947-1.779-1.42-3.029-1.42-1.827 0-3.702.047-5.529 0-1.923-.047-3.269.852-4.183 2.462-1.49 2.746-3.029 5.492-4.567 8.285-.769 1.373-1.587 2.793-2.308 4.213-.288.616-.673.805-1.346.758-1.25-.047-2.5 0-3.894 0 .144-.379.24-.663.384-.9 2.741-4.971 5.433-9.894 8.174-14.818 1.442-2.604 3.701-3.977 6.73-3.977 2.404 0 4.856-.047 7.26 0 2.836.047 5.048 1.326 6.394 3.74 2.885 5.066 5.673 10.226 8.462 15.34.192.094.288.284.384.615Z"/><path d="M85.72 130.861c0 7.433-1.01 14.156-3.558 20.547-1.394 3.503-3.173 6.817-5.817 9.563-1.11 1.137-2.356 2.225-3.702 3.078-4.182 2.603-8.461 2.556-12.692 0-2.313-1.421-4.135-3.362-5.673-5.587-2.789-4.024-4.567-8.474-5.673-13.161-2.5-10.747-2.26-21.4 1.25-31.863 1.394-4.261 3.413-8.195 6.538-11.509a22.558 22.558 0 0 1 3.221-2.741c4.375-2.983 9.327-2.888 13.654.095 2.26 1.515 3.99 3.503 5.481 5.776 2.692 4.024 4.327 8.474 5.433 13.161 1.105 4.351 1.586 8.759 1.538 12.641Zm-8.322-8.901c.053-2.556-.284-5.634-1.005-8.664-.72-3.124-1.779-6.107-3.654-8.763-.913-1.273-1.97-2.41-3.365-3.215-2.02-1.136-4.135-1.183-6.106.048a9.867 9.867 0 0 0-2.404 2.083c-1.875 2.083-3.028 4.64-3.846 7.291-2.163 7.097-2.26 14.298-.577 21.494.717 3.077 1.875 5.965 3.798 8.569.77 1.041 1.683 1.988 2.789 2.651 2.211 1.373 4.423 1.373 6.586-.047.962-.663 1.827-1.515 2.597-2.415 1.25-1.467 2.062-3.172 2.783-4.923 1.736-4.356 2.404-8.901 2.404-14.109Zm-16.875 33.709c0 3.172 2.65 5.776 5.87 5.776 3.221 0 5.866-2.604 5.866-5.776 0-2.604-1.972-5.781-5.866-5.781-3.654 0-5.817 2.893-5.87 5.781Z"/></g></g></g><defs><clipPath id="clip0_12672_1585"><path fill="#fff" d="M0 0h262.5v262.5H0z"/></clipPath><clipPath id="clip1_12672_1585"><path fill="#fff" d="M0 0h180v90H0z" transform="translate(41.25 86.5)"/></clipPath></defs></svg>