<svg xmlns="http://www.w3.org/2000/svg" width="112" height="55" fill="none" viewBox="0 0 112 55"><path fill="#294256" fill-rule="evenodd" d="M53.463 32h4.488V19.467h4.214V32h4.337c.164 0 .205-.054.205-.202V15.656H53.463V32Zm18.197 6.494h.397c.15 0 .205-.054.205-.201v-2.496h-.602v2.697Zm7.826-2.361c0 .268.205.187.739.187v2.174h.534V36.32c.82 0 .738.094.738-.523h-2.01v.336Zm-2.34.59v.912c0 1.034 1.902 1.248 2.012 0h-.616c-.027.35-.3.43-.547.35-.465-.148-.465-1.732.15-1.732.288 0 .37.228.466.403h.547c-.082-.926-1.218-1.127-1.779-.564-.164.161-.233.336-.233.63Zm-23.752-.067h.534c.123-.537.807-.537.807-.067 0 .644-.739-.255-.739.724.425 0 .616-.013.74.188.273.456-.63.872-.808.134h-.533c.027 1.168 1.942 1.14 1.942 0 0-.295-.164-.402-.342-.523.178-.255.41-.349.288-.792-.247-.791-1.861-.738-1.889.336Zm17.39 1.248c-.424.094-.273.053-.793.053v-.644c.52 0 .37-.04.793.054.041.134.137.255 0 .537Zm-1.327.59c1.054 0 1.93.188 1.93-.993 0-.738-.945-.724-1.396-.724v-.98h-.534v2.697Zm-9.509-1.583c-.424.107-.287.067-.793.067v-.658c.37 0 1.135-.134.793.59Zm-1.34 1.583h.547v-.993h.465c1.286 0 1.286-1.704.068-1.704h-1.08v2.697ZM82.7 36.723c.178.12.301.577.329.845h-.602c.082-.335.246-.51.273-.845Zm-1.135 1.771h.533a1.19 1.19 0 0 0 .124-.47h1.012l.137.457.602.013-.766-2.013c-.082-.228-.192-.483-.247-.684h-.465a3.577 3.577 0 0 1-.219.644l-.492 1.342c-.096.228-.206.443-.22.711Zm-24.56-1.771c.028.362.192.456.206.845h-.534c0-.322.137-.71.329-.845Zm-1.272 1.771h.602c.028-.201.069-.322.137-.47h.93l.15.457.59.013c-.056-.268-.138-.416-.233-.684l-.767-2.013h-.465c-.027.255-.588 1.664-.711 2-.096.228-.178.469-.233.697Zm17.267 0h1.806v-.537h-1.273v-.59h1.068v-.523h-1.068v-.524c1.437 0 1.273.135 1.273-.523H73v2.697Zm11.438 0h.534v-1.127h.862v1.127h.602v-2.697h-.602v1.047h-.862v-1.047h-.534v2.697Zm-17.8 0h.602v-1.127h.875v1.127h.534v-2.697h-.534v1.047h-.875v-1.047h-.602v2.697Zm-5.008-1.771c0-.376.219-.47.602-.47h.26v.725h-.534c-.136 0-.328-.188-.328-.255Zm-.547-.201c0 .335.027.684.41.791-.04.443-.438.725-.479 1.181h.616c.082-.16.383-.805.397-.993h.465v.993h.534v-2.697c-.712 0-1.943-.161-1.943.725Zm31.852 1.972h.328c.342 0 .89-1.422 1.204-1.65v1.65h.534v-2.697h-.534l-.999 1.637v-1.637h-.533v2.697Zm-2.887 0h.547c.055-.255.342-.604.479-.832l.52-.818v1.65h.533v-2.697c-.739 0-.615.255-1.313 1.342l-.164.228v-1.57h-.602v2.697Zm-2.874 0h1.806v.59h.534v-1.127h-.328v-2.16h-.534v2.16h-.876v-2.16h-.602v2.697Zm-22.534-1.45v-.724h.602v1.637h-.807c.137-.255.205-.523.205-.912Zm-.547-.133a1.9 1.9 0 0 1-.123.67c-.096.35-.028.376-.41.376v1.127h.533v-.59h1.478v.59h.533v-1.127h-.328v-2.16h-1.683v1.114Zm4.16-13.056c0 1.288.204 2.415.52 3.354.847 2.523 2.53 3.972 4.98 4.764 1.764.563 4.295.335 5.91-.59.835-.497 1.491-1.128 2.093-1.812-.232-.349-2.285-2.724-2.544-2.885-.342.63-1.683 1.637-2.668 1.637-1.287 0-2.094-.12-2.915-1.342-1.518-2.24-.93-7.715 2.573-7.715.71 0 1.203.201 1.655.483.588.402 1.013.818 1.231.966l1.204-1.45c.233-.308 1.122-1.22 1.204-1.502-.355-.524-1.628-1.382-2.189-1.664-2.558-1.275-5.733-.859-7.799.725-.71.563-1.49 1.368-1.942 2.16-.274.496-.452.818-.684 1.369-.37.925-.63 2.24-.63 3.502Zm13.243-.457c0 1.61.014 2.67.63 4.174.356.872.793 1.637 1.423 2.334 1.012 1.141 3.092 2.349 5.24 2.349 1.56 0 2.736-.068 4.063-.86.247-.147.384-.227.603-.388l1.067-.926c.15-.161.37-.39.41-.577-.205-.309-2.025-2.254-2.408-2.818-.506.322-1.382 1.637-2.805 1.637-1.368 0-2.189-.188-2.996-1.516-1.245-2.067-.972-7.541 2.791-7.541 1.382 0 2.135.993 2.819 1.449l.574-.738c.22-.242.397-.483.616-.725.424-.483.793-.952 1.218-1.435-.22-.31-.67-.698-.986-.926-.218-.161-.355-.282-.588-.416-2.298-1.382-4.515-1.53-7.073-.443a7.24 7.24 0 0 0-1.273.724c-1.245.9-1.984 1.96-2.613 3.342-.37.791-.712 2.173-.712 3.3Z" clip-rule="evenodd"/><path fill="#DD1D4C" d="M31.324 14.744c-.78 0-1.464.188-2.285.188.068-.282.971-1.758 1.136-2.027.205-.348.369-.657.574-1.02.301-.482.383-.818.643-.885.069.335 2.107 3.57 2.203 3.932-.82 0-1.491-.188-2.271-.188ZM26.905 18.608c.068-.241 1.532-2.603 1.6-2.885.972 0 1.916-.268 2.887-.268.301 0 .794.094 1.081.12.41.054.67.054 1.095.108.615.08.492 0 .739.456.123.215.369.55.424.765-.329 0-.93-.08-1.273-.134-.711-.094-.273-.322-.998-.322.04.483.109.832.451.926.233.08.862.094 1.204.134l.944.12c.246.095.479.618.67.98-1.094 0-3.776-.443-4.405-.443l-2.217.242c-.738.067-1.45.201-2.202.201ZM24.633 24.123c-.41 0-.574-.067-.875-.067.054-.201.3-.564.424-.765l2.052-3.57c.205-.415.233-.308.753-.375l3.078-.322c2.367-.295 4.173.376 6.143.376.192.362.972 1.516 1 1.905-.63-.147-1.656-.04-2.286-.12-1.272-.175-.273-.671-1.669-.671.26 1.073.041 1.65 1.478 1.637h3.078l1.067 1.905c-.3 0-.52.067-.93.067-.397 0-.67 0-.958.04l-1.847.094c-1.327 0-2.49.121-3.817.121-1.341 0-2.504-.12-3.817-.12-.41 0-.52-.068-.93-.068l-1.944-.067ZM21.281 39.608 16 37.568c.027-.295 1.697-3.032 1.916-3.435.15-.268.574-.912.629-1.154.273 0 .657.12.875.188.274.08.52.134.794.201l9.536 2.523c.329.094 1.341.362 1.642.362.274 0 4.187-1.167 4.68-1.18 0 .268-.028.16.068.335.862-.201 1.751-.483 2.6-.725.437-.12.848-.241 1.3-.362 1.983-.564.97-.309 1.258-.63l1.122-.323c.451-.107 1.15-.349 1.614-.389.206.376.438.792.67 1.168.233.375.439.764.658 1.127.15.255 1.217 2.053 1.272 2.294-.219.054-.492.188-.725.269-.233.093-.452.187-.712.281-.478.202-1.012.35-1.436.564-.11-.148-.082-.067-.137-.255l-5.61 2.04c-.219.08-.506.228-.807.255 0 .254.014.268.069.456L31.94 43.23c-.78.308-.575.255-1.341-.027l-3.995-1.543c-1.793-.698-3.544-1.369-5.323-2.053Z"/><path fill="#DD1D4C" d="M25.304 33.959c-2.011-.483-4.337-1.195-6.294-1.637.068-.282.383-.738.534-.993l3.748-6.548 3.079.12c.424 0 .575.067.93.08 3.311.095 3.913.162 7.101-.013.315-.013.67.027 1 0 .341-.013.56-.067.998-.053.41 0 .643-.027.944-.067l1.998-.067c.068.281.396.738.533.98.192.321.328.616.534.925.383.63.711 1.261 1.08 1.892l1.629 2.804c.123.228.451.738.506.94l-2.736.724c-.507-.94-.958-1.878-1.45-2.845-.493-.979-.917-1.932-1.424-2.871-.246 0-.574.054-.862.08-.848.095-1.724.256-2.558.256.014.51 1.272 6.051 1.272 6.695l-4.227 1.1c-.397.108-.712-.013-1.068-.107l-5.267-1.395Z"/></svg>