<svg xmlns="http://www.w3.org/2000/svg" width="263" height="263" fill="none" viewBox="0 0 263 263"><g fill="#161616" clip-path="url(#clip0_12672_1564)"><path d="M81.5 182.926c.291 1.142 1.275 2.31 2.625 2.602h4.08l.209.083v10.348h2.547v-10.348l.232-.083h4.083c1.365-.353 2.328-1.46 2.615-2.602v-.025H81.5v.025ZM106.716 195.988h9.693c1.349-.269 2.351-1.464 2.632-2.619h-14.956c.279 1.156 1.296 2.35 2.631 2.619ZM106.716 190.68h9.693c1.349-.267 2.351-1.462 2.632-2.619h-14.956c.279 1.158 1.296 2.352 2.631 2.619ZM106.716 185.515h9.693c1.349-.271 2.351-1.464 2.632-2.621h-14.956c.279 1.157 1.296 2.35 2.631 2.621ZM128.822 185.49h8.955c1.35-.395 2.483-1.428 2.76-2.574h-14.225v7.724h11.643v2.71l-9.133.007c-1.431.401-2.644 1.367-3.25 2.643l.74-.014h14.144v-7.914h-11.634v-2.582ZM159.296 195.99c1.271-.542 1.955-1.479 2.217-2.576h-11.31l.008-10.502-2.536.008v13.07h11.621ZM169.173 185.525h9.696c1.347-.269 2.349-1.464 2.631-2.619h-14.957c.28 1.156 1.296 2.35 2.63 2.619ZM166.933 188.081v7.903h2.521v-5.261h9.178v5.261h2.52v-7.889l-14.219-.014ZM131.505 157.07l12.73-71.96c12.135 0 15.962 1.337 16.515 6.796 0 0 8.14-3.05 12.245-9.247-16.021-7.461-32.118-7.798-32.118-7.798l-9.393 11.5.021-.002-9.393-11.5s-16.098.337-32.117 7.799c4.102 6.196 12.246 9.246 12.246 9.246.555-5.459 4.378-6.796 16.431-6.805l12.833 71.971Z"/><path d="M131.5 71.54c12.951-.1 27.774 2.014 42.949 8.661 2.028-3.669 2.55-5.29 2.55-5.29-16.589-6.597-32.123-8.854-45.501-8.911-13.376.057-28.91 2.314-45.497 8.91 0 0 .74 1.998 2.548 5.291 15.172-6.647 29.998-8.76 42.949-8.661h.002Z"/></g><defs><clipPath id="clip0_12672_1564"><path fill="#fff" d="M0 0h262.5v262.5H0z"/></clipPath></defs></svg>