<svg xmlns="http://www.w3.org/2000/svg" width="263" height="263" fill="none" viewBox="0 0 263 263"><g fill="#161616" clip-path="url(#clip0_12672_1561)"><path d="M68.294 108.906v-7.777c0-.127-.147-.169-.231-.085L53.72 117.106a6.539 6.539 0 0 0-1.659 4.185l-.882 30.961c0 .148.168.19.252.064l1.785-3.128a2.93 2.93 0 0 0 .399-1.184l2.562-18.873a13.074 13.074 0 0 1 3.507-7.291l5.88-6.15a9.77 9.77 0 0 0 2.73-6.784ZM26 108.906v-7.777c0-.127.147-.17.231-.085l14.343 16.062a6.539 6.539 0 0 1 1.659 4.185l.882 30.961c0 .148-.168.19-.252.064l-1.785-3.128a2.935 2.935 0 0 1-.399-1.184l-2.562-18.873a13.074 13.074 0 0 0-3.507-7.291l-5.88-6.129a9.804 9.804 0 0 1-2.73-6.805ZM48.995 118.48l-1.68-1.458c-.105-.085-.252-.085-.336 0l-1.68 1.458a1.278 1.278 0 0 0-.441 1.035l1.113 39.437c0 .105.042.211.084.317l.966 1.691c.042.084.168.084.231 0l.966-1.691a.512.512 0 0 0 .084-.317l1.113-39.437c.021-.401-.147-.76-.42-1.035Z"/><path fill-rule="evenodd" d="m157.439 131.245-7.938-6.362a3.738 3.738 0 0 0-2.331-.824h-4.809a.104.104 0 0 0-.063.19l13.398 10.927v6.002c0 .063.042.106.105.106h4.179c.063 0 .105-.043.105-.106v-6.002l13.419-10.948c.084-.063.021-.19-.084-.19h-4.809c-.84 0-1.659.296-2.331.824l-7.917 6.362a.726.726 0 0 1-.924.021ZM187.931 125.053c-1.197-1.374-3.318-1.374-4.494 0l-13.881 16.104c-.063.063-.021.19.084.19h4.536c.588 0 1.155-.232 1.554-.655l9.114-10.715a1.11 1.11 0 0 1 1.701 0l9.156 10.757c.399.402.945.634 1.512.634h4.536c.105 0 .147-.127.084-.19l-13.902-16.125ZM88.811 140.354c1.197 1.373 3.318 1.373 4.494 0l13.881-16.105c.063-.063.021-.19-.084-.19h-4.536c-.588 0-1.155.233-1.554.655l-9.093 10.737a1.111 1.111 0 0 1-1.701 0l-9.156-10.758a2.142 2.142 0 0 0-1.512-.634h-4.536c-.105 0-.147.127-.084.19l13.881 16.105ZM235.853 124.059h-4.368c-.063 0-.105.043-.105.106l.042 5.748a.4.4 0 0 1-.399.402h-20.958a.377.377 0 0 1-.378-.38l-.042-5.749c0-.063-.042-.106-.105-.106h-4.41c-.063 0-.105.043-.105.106l.042 17.034c0 .064.042.106.105.106h4.389c.063 0 .105-.042.105-.106v-6.108a.4.4 0 0 1 .399-.401h20.958a.4.4 0 0 1 .399.401v6.108c0 .064.042.106.105.106h4.368c.063 0 .105-.042.105-.106l-.042-17.034c0-.063-.042-.106-.105-.127ZM108.908 129.279v6.827c0 2.874 2.31 5.199 5.166 5.199h21.231c2.856 0 5.166-2.325 5.166-5.199v-6.827c0-2.874-2.31-5.199-5.166-5.199h-21.21a5.197 5.197 0 0 0-5.187 5.199Zm25.284 8.031h-18.963a1.933 1.933 0 0 1-1.932-1.944v-5.326c0-1.078.861-1.944 1.932-1.944h18.963c1.071 0 1.932.866 1.932 1.944v5.326a1.933 1.933 0 0 1-1.932 1.944Z" clip-rule="evenodd"/></g><defs><clipPath id="clip0_12672_1561"><path fill="#fff" d="M0 0h262.5v262.5H0z"/></clipPath></defs></svg>