<svg xmlns="http://www.w3.org/2000/svg" width="263" height="263" fill="none" viewBox="0 0 263 263"><g fill="#161616" clip-path="url(#clip0_12672_1555)"><path d="M65.508 155.227H50.98v-17.946L36.45 122.76v-15.987h29.041l.017 48.454Zm-48.424 0v-48.454h14.512v17.981l14.529 14.521v15.935l-29.041.017Zm53.261-53.294H12.247v58.134h58.1v-58.134ZM107.306 121.567 92.249 137.28h14.274v3.204H84.346v-.068l15.057-15.696H85.18v-3.205h22.143v.052h-.017ZM141.029 140.493h-19.707v-18.986h19.707v3.374h-15.942v4.074h15.108v3.374h-15.108v4.772h15.942v3.392ZM174.737 140.493h-19.708v-18.986h19.708v3.374h-15.943v4.074h15.108v3.374h-15.108v4.772h15.943v3.392ZM206.536 140.493l-13.916-9.8v9.8h-3.884v-18.986h3.884v9.135l13.524-9.135h5.978l-13.592 9.067 14.052 9.902h-6.046v.017ZM250.754 140.493l-10.542-7.09h1.958c3.713 0 6.966-2.13 6.966-5.744v-.255c0-3.682-3.286-5.897-7.103-5.897h-15.449v18.969h3.885v-9.902l14.563 9.902h5.722v.017Zm-20.302-15.765h11.65c1.448 0 2.794.579 3.168 1.755.017.205.068.699.068 1.193 0 .512-.033 1.006-.068 1.193-.391 1.04-1.72 1.671-3.168 1.671h-11.65v-5.812Z"/></g><defs><clipPath id="clip0_12672_1555"><path fill="#fff" d="M0 0h262.5v262.5H0z"/></clipPath></defs></svg>